<?xml version="1.0" encoding="utf-8" standalone="no"?>
<!-- Creator: Esri ArcMap 10.6.1.9270 -->
<!DOCTYPE svg PUBLIC "-//W3C//DTD SVG 1.1//EN"  "http://www.w3.org/Graphics/SVG/1.1/DTD/svg11.dtd">
<svg width="623.25354pt" height="434.23937pt" viewBox="0 0 623.25354 434.23937"  enable-background="new 0 0 623.25354 434.23937"
	version="1.1" xmlns="http://www.w3.org/2000/svg" xmlns:xlink="http://www.w3.org/1999/xlink" >
	<g id="Layers">
		<g id="NEPAL_WARDS">
			<clipPath id="SVG_CP_1">
				<path d="M0,434.23937L0,0L623.25354,0L623.25354,434.23937L0,434.23937z"/>
			</clipPath>
			<path clip-path="url(#SVG_CP_1)" fill="#73B273" fill-rule="evenodd" stroke="#343434" stroke-width="0.95987" stroke-miterlimit="10" stroke-linecap="round" stroke-linejoin="round" d="
				M305.71795,66.96682L305.71795,67.20684L306.67782,69.12704L307.15775,70.08713L306.91779,70.80721L306.67782,71.28726L306.67782,71.52728
				L306.43785,72.48738L306.67782,73.20745L306.91779,73.6875L308.35759,74.40757L309.79739,75.36767L310.51729,76.08774L311.71713,77.76792
				L311.71713,78.24796L311.71713,78.96804L311.95709,79.68811L312.91696,80.40818L313.15693,80.64821L313.3969,85.20867L313.3969,85.92875
				L313.15693,86.88884L313.15693,87.60892L313.3969,88.32899L313.87683,88.80904L315.79657,89.28909L316.2765,89.52911L316.75643,90.24919
				L316.9964,90.72923L317.23637,90.96926L317.23637,92.40941L317.47633,93.3695L317.7163,93.84955L318.19624,94.3296L318.91614,94.80965
				L319.1561,94.80965L320.11597,95.04967L320.35594,95.2897L320.59591,95.76975L320.11597,96.2498L319.39607,96.72985L318.91614,97.20989
				L318.4362,97.92997L318.19624,98.16999L317.23637,97.68994L316.51647,96.48982L316.2765,96.00977L315.5566,95.76975L314.8367,95.76975
				L314.35676,95.76975L313.63686,96.00977L312.91696,96.72985L312.677,97.44992L312.43703,98.65004L311.95709,99.13009L310.99723,99.37011
				L309.55742,99.85016L309.07749,99.85016L307.87766,99.37011L306.91779,99.61014L305.95792,100.09019L305.23802,100.81026L305.23802,101.05029
				L304.75808,102.49043L304.27815,103.69055L304.03818,103.93058L303.55825,104.41063L303.07832,104.65065L302.83835,104.65065
				L301.87848,104.1706L301.15858,104.41063L300.67865,104.65065L300.19871,105.1307L300.19871,105.61075L300.67865,106.57085L300.91861,107.53095
				L300.67865,108.01099L300.43868,108.49104L299.95874,108.97109L299.47881,109.45114L298.99888,109.45114L297.79904,109.93119
				L297.55907,109.69116L296.35924,108.49104L296.11927,108.25102L295.1594,108.01099L294.67947,108.25102L293.95957,108.73107L
				293.47964,108.97109L292.75973,108.97109L291.31993,108.73107L290.1201,108.97109L288.92026,108.97109L288.44033,108.97109L288.20036,108.73107
				L287.48046,108.25102L287.24049,108.01099L286.52059,107.77097L285.32076,107.29092L285.08079,107.0509L284.84082,106.57085L
				284.84082,105.61075L284.60086,105.1307L283.64099,104.65065L281.72125,104.41063L281.00135,104.41063L280.28145,104.89068L279.32158,105.37073
				L278.84165,105.37073L277.88178,105.85077L276.68195,106.57085L275.96204,107.29092L275.48211,107.77097L274.28228,107.53095
				L273.80234,107.29092L273.56237,106.81087L273.32241,105.61075L273.08244,105.37073L272.60251,104.89068L271.88261,104.41063
				L271.1627,104.41063L270.68277,103.93058L270.4428,103.69055L270.4428,102.73046L269.96287,101.77036L269.7229,101.77036L269.48294,101.77036
				L268.76303,102.01038L267.5632,102.49043L266.8433,102.73046L262.52389,102.97048L261.80399,102.97048L260.60416,103.21051L258.92439,103.45053
				L256.04478,103.21051L255.08492,103.21051L252.92521,103.69055L251.48541,104.41063L250.28558,104.65065L249.32571,105.1307L
				247.64594,106.0908L246.92604,106.81087L245.24627,108.97109L244.04643,109.69116L243.32653,110.17121L241.88673,110.17121L241.4068,110.17121
				L240.92686,110.89129L237.32736,113.77158L236.84742,114.25163L236.36749,114.49165L235.16766,115.45175L234.68772,115.69178
				L233.48789,115.69178L233.00795,115.45175L232.76799,115.21173L231.80812,114.25163L230.36832,112.81148L230.60828,112.09141
				L230.84825,111.61136L231.08822,109.93119L231.08822,106.57085L231.32818,102.01038L231.56815,101.05029L232.28805,98.16999L
				232.52802,97.44992L234.20779,95.52972L234.92769,94.56963L236.36749,93.3695L237.56733,92.40941L237.80729,92.16938L238.76716,91.20928
				L239.24709,90.48921L239.24709,90.24919L240.6869,88.32899L241.64676,87.12887L242.36667,86.88884L244.76634,85.68872L245.96617,84.96865
				L246.68607,84.72862L247.16601,84.4886L248.12587,84.24858L249.56568,83.5285L250.28558,83.28848L252.20531,80.88823L252.92521,79.68811
				L253.88508,77.52789L254.12505,77.76792L254.60498,78.00794L255.56485,79.68811L256.04478,80.40818L256.52472,80.64821L257.00465,80.16816
				L257.24462,80.16816L258.20449,78.96804L259.16436,78.48799L259.16436,78.24796L259.64429,77.76792L260.12422,76.32777L260.84412,75.36767
				L261.08409,75.12765L261.56403,74.88762L262.28393,74.6476L263.48376,73.20745L264.20366,72.48738L264.6836,72.48738L264.92356,72.24735
				L264.92356,71.76731L264.92356,71.28726L264.20366,70.32716L264.20366,70.08713L264.6836,69.36706L264.92356,68.88701L265.4035,68.40696
				L265.88343,68.16694L266.60333,68.16694L269.24297,68.16694L269.96287,67.92691L271.40267,67.44687L272.12257,66.96682L272.60251,66.48677
				L272.84247,66.24674L273.80234,66.24674L274.76221,66.24674L276.44198,66.24674L276.92191,66.72679L279.08162,67.92691L279.80152,68.16694
				L281.96122,68.16694L282.68112,68.16694L282.68112,67.68689L282.44115,67.20684L282.20119,66.72679L281.24132,63.8465L281.00135,63.36645
				L280.76138,62.40635L280.28145,61.20623L280.04148,60.24613L279.80152,60.00611L278.60168,59.28603L277.88178,59.28603L277.16188,59.28603
				L276.20201,59.52606L275.48211,59.52606L274.28228,58.80599L273.32241,58.08591L272.84247,57.60586L272.36254,56.64577L272.12257,55.44564
				L271.64264,54.24552L271.40267,53.52545L269.96287,51.84528L269.48294,51.1252L267.5632,48.96498L266.36337,48.00489L265.64346,47.28481
				L264.44363,46.32472L263.9637,46.32472L262.76386,46.32472L262.52389,46.08469L261.32406,45.60464L261.56403,45.12459L262.28393,44.88457
				L262.52389,44.88457L263.72373,45.12459L263.9637,45.12459L264.20366,44.40452L263.9637,43.92447L263.72373,42.96437L263.48376,42.48432
				L263.00383,41.76425L262.52389,41.52423L261.80399,41.2842L260.84412,40.80415L259.40432,40.56413L258.92439,40.3241L258.68442,39.60403
				L258.20449,39.36401L257.72455,39.36401L257.24462,39.36401L256.28475,39.84406L255.32488,40.56413L254.36502,42.00428L253.88508,42.96437
				L253.64511,43.2044L253.16518,44.40452L252.92521,44.64454L252.20531,44.40452L251.72538,44.1645L250.28558,42.96437L249.56568,42.48432
				L249.32571,42.2443L249.08574,42.48432L247.88591,43.44442L247.40597,43.44442L245.7262,42.00428L244.76634,41.52423L244.04643,41.76425
				L243.80647,41.52423L243.32653,40.3241L243.08657,40.08408L242.8466,40.08408L241.88673,40.56413L241.16683,40.56413L240.6869,40.3241
				L239.24709,39.12398L238.76716,39.36401L238.76716,39.60403L239.00713,40.3241L239.00713,41.04418L239.00713,41.76425L238.52719,42.00428
				L237.80729,42.2443L237.08739,42.00428L236.36749,41.76425L234.92769,40.08408L234.44775,39.60403L234.20779,39.60403L233.24792,38.64393
				L233.00795,38.64393L232.76799,38.64393L232.28805,38.88396L231.80812,39.12398L230.60828,39.36401L229.40845,39.60403L228.44858,40.08408
				L227.96865,40.08408L227.72868,40.3241L226.04891,40.80415L225.32901,41.04418L224.84907,40.80415L224.60911,40.80415L224.12917,40.56413
				L225.08904,39.12398L226.28888,36.96376L226.52884,35.76364L226.76881,35.52362L227.24874,34.56352L227.48871,33.3634L227.48871,32.88335
				L227.00878,32.4033L227.72868,31.92325L228.44858,31.68323L230.84825,30.4831L231.32818,30.00305L233.72785,28.32288L233.96782,28.08286
				L234.20779,27.36279L234.44775,26.16266L234.68772,25.68261L235.16766,25.20257L235.16766,24.96254L235.64759,24.72252L235.88756,24.48249
				L236.12752,24.48249L237.56733,23.28237L238.28723,23.04235L238.76716,23.04235L240.20696,22.32227L240.6869,22.32227L241.4068,22.08225
				L242.1267,22.32227L243.08657,22.5623L244.04643,23.04235L244.2864,23.28237L245.0063,24.00244L246.4461,24.96254L247.40597,25.44259
				L247.88591,25.20257L248.84577,24.96254L249.80564,24.24247L251.00548,22.80232L251.48541,22.32227L252.92521,21.6022L255.56485,20.88213
				L258.20449,20.88213L260.36419,20.88213L262.04396,20.6421L263.24379,20.16205L264.20366,19.92203L265.16353,19.92203L264.20366,21.36217
				L264.20366,21.84222L264.20366,23.04235L264.6836,24.24247L265.16353,24.72252L265.88343,24.96254L266.8433,24.96254L267.5632,24.48249
				L268.2831,23.52239L269.48294,21.84222L270.20284,21.12215L271.40267,20.88213L272.12257,20.88213L273.56237,21.36217L274.76221,21.36217
				L276.68195,20.6421L277.88178,20.88213L278.84165,21.12215L279.56155,20.88213L282.20119,20.6421L283.40102,20.6421L284.60086,20.40208
				L285.80069,20.40208L286.52059,20.6421L286.76056,20.88213L287.48046,21.84222L287.96039,23.52239L288.44033,24.24247L289.64016,26.16266
				L290.60003,27.12276L291.5599,28.08286L291.79987,29.04296L291.79987,29.76303L291.31993,30.00305L288.92026,31.68323L284.84082,32.88335
				L283.40102,33.60342L282.92109,34.08347L281.72125,35.04357L280.52142,35.52362L280.04148,35.76364L279.56155,36.24369L279.56155,36.48371
				L279.80152,36.96376L280.04148,37.20379L280.52142,37.44381L281.48129,37.44381L282.44115,36.96376L283.40102,36.96376L284.84082,37.68384
				L286.52059,39.12398L287.72043,40.80415L288.44033,41.52423L289.16023,41.76425L289.64016,41.76425L290.1201,41.52423L290.84,41.04418
				L291.31993,41.04418L291.79987,41.04418L293.47964,42.00428L294.19954,42.48432L296.11927,44.40452L296.59921,44.64454L298.03901,45.84467
				L299.23884,46.80476L299.47881,47.52484L300.19871,48.72496L300.43868,50.40513L301.15858,52.80538L301.15858,53.0454L301.39855,54.0055
				L301.63851,54.72557L302.11845,55.20562L302.83835,56.40574L303.79822,57.84589L304.03818,58.80599L304.27815,59.76608L304.75808,60.96621
				L304.99805,62.8864L305.23802,64.08652L305.47799,65.76669L305.71795,66.96682z"/>
			<path onclick="alert(1)" clip-path="url(#SVG_CP_1)" fill="#CCCCCC" fill-rule="evenodd" stroke="#343434" stroke-width="0.95987" stroke-miterlimit="10" stroke-linecap="round" stroke-linejoin="round" d="
				M347.95214,170.65737L348.43208,171.37744L348.91201,172.33754L348.91201,172.57757L348.91201,173.29764L348.91201,174.49776
				L348.91201,175.21783L349.15198,175.93791L350.83175,177.8581L351.79162,178.57818L353.23142,179.7783L353.47138,180.01832L354.19129,180.97842
				L356.11102,182.41857L356.83092,183.13864L357.07089,183.61869L357.31086,184.33876L356.83092,185.77891L358.75066,187.21906
				L358.99063,187.6991L360.43043,189.6193L360.91036,190.33937L361.15033,191.5395L361.3903,193.45969L361.15033,195.13986L361.15033,195.61991
				L361.63026,196.33998L362.8301,197.54011L362.8301,197.78013L363.07006,198.5002L363.07006,199.70033L362.8301,201.62052L362.8301,202.34059
				L363.07006,202.58062L363.55,202.82064L364.02993,203.54072L365.22977,205.22089L365.7097,205.70094L365.94967,205.94096L366.66957,206.66103
				L367.62944,207.62113L369.06924,209.3013L370.50904,210.02138L371.70888,210.74145L372.90871,211.70155L375.54835,211.94157L
				377.46808,212.90167L377.94802,212.90167L378.42795,212.90167L378.90789,212.66165L379.86775,212.1816L380.34769,212.1816L381.30756,212.1816
				L383.94719,213.14169L384.66709,213.14169L385.86693,213.38172L387.30673,213.62174L391.38617,214.10179L392.82597,214.34182
				L394.50574,215.06189L395.46561,215.30191L394.26577,216.26201L393.54587,216.74206L393.30591,217.22211L392.82597,217.94218
				L392.34604,219.86238L391.62614,221.0625L391.1462,221.78257L390.66627,222.26262L388.02663,223.46274L383.70723,226.34304L383.22729,226.82309
				L382.50739,228.02321L380.82762,229.22333L380.10772,230.42345L379.14785,231.38355L377.70805,232.34365L376.98815,232.58367
				L376.02828,232.58367L375.54835,232.34365L373.62861,231.38355L373.14868,231.14353L372.42878,231.38355L371.46891,231.8636L
				370.98897,232.10362L370.26907,232.34365L370.02911,232.58367L369.06924,233.7838L368.10937,234.26384L367.62944,234.26384L367.1495,234.02382
				L364.9898,233.06372L364.2699,232.8237L363.78997,233.06372L363.07006,233.30375L362.35016,233.54377L361.87023,233.54377L360.67039,233.30375
				L359.71053,233.06372L358.51069,233.7838L356.59096,235.22394L356.11102,235.46397L355.63109,235.46397L354.91119,234.98392L
				352.75148,233.54377L352.27155,233.54377L350.35181,233.30375L348.43208,233.7838L346.75231,233.54377L345.79244,233.06372L344.35264,233.54377
				L343.8727,234.02382L343.1528,234.02382L341.95297,234.98392L341.713,234.98392L341.47303,234.98392L340.75313,234.98392L340.03323,234.26384
				L339.5533,234.26384L339.07336,234.02382L336.91366,233.30375L335.95379,233.06372L335.71383,232.8237L334.03406,232.58367L333.07419,232.58367
				L331.63439,233.30375L330.91449,234.26384L330.43455,234.74389L330.19459,235.22394L329.71465,235.94402L329.47468,236.18404
				L328.75478,236.66409L327.55495,236.66409L326.83505,236.18404L326.35511,235.94402L325.39525,236.18404L324.67534,236.18404
				L322.75561,236.66409L322.03571,236.90411L321.07584,236.90411L318.91614,236.90411L315.31663,237.38416L313.63686,237.38416
				L312.19706,237.86421L311.23719,237.62419L310.75726,237.62419L310.03736,237.14414L309.55742,236.90411L307.63769,236.18404
				L306.91779,235.70399L305.95792,235.46397L304.75808,234.98392L304.27815,234.98392L304.03818,235.22394L303.79822,235.70399
				L303.79822,236.18404L304.03818,236.90411L304.99805,238.10423L305.23802,238.82431L306.19789,240.02443L306.67782,240.7445L
				306.67782,241.22455L306.43785,241.94463L305.71795,242.90472L305.23802,243.38477L304.75808,243.14475L303.55825,242.6647L303.07832,242.42467
				L302.59838,241.94463L301.63851,240.98453L300.67865,240.26445L299.71878,238.58428L299.47881,238.10423L299.23884,236.90411
				L299.23884,236.18404L298.99888,235.22394L298.75891,234.02382L298.75891,232.34365L298.75891,230.66348L300.19871,229.9434L
				300.43868,229.9434L300.19871,229.22333L300.67865,227.78318L300.43868,227.54316L299.95874,227.30314L298.51894,227.54316L297.31911,227.30314
				L296.35924,226.82309L295.63934,226.58306L295.1594,226.58306L294.91944,226.58306L293.95957,226.82309L293.7196,226.58306L293.23967,225.86299
				L292.75973,225.14292L292.03983,224.90289L290.1201,224.90289L289.64016,225.14292L289.4002,225.14292L288.44033,224.90289L288.20036,224.66287
				L287.96039,223.94279L288.44033,223.46274L288.44033,222.74267L288.20036,222.50265L287.24049,222.0226L286.52059,222.0226L286.28063,222.0226
				L285.80069,221.30252L286.28063,220.34243L287.24049,220.34243L287.72043,220.1024L288.44033,219.62235L288.6803,218.90228L289.16023,217.70216
				L289.16023,217.22211L288.44033,215.30191L287.96039,213.86177L287.96039,212.42162L287.72043,211.94157L287.48046,211.2215L
				287.48046,210.74145L287.00053,210.2614L286.04066,209.78135L285.32076,209.54133L284.36089,209.3013L283.40102,209.54133L281.96122,210.02138
				L281.72125,210.2614L280.52142,210.50143L280.04148,210.50143L279.08162,210.2614L278.36171,209.78135L277.88178,209.78135L276.92191,209.78135
				L276.20201,210.02138L275.72208,210.74145L274.76221,211.94157L274.76221,212.1816L274.04231,212.1816L273.80234,211.94157L272.84247,210.74145
				L272.60251,210.2614L272.12257,210.02138L270.92274,210.02138L269.48294,209.54133L268.2831,210.02138L267.5632,210.02138L266.36337,210.02138
				L265.64346,209.54133L265.4035,209.54133L264.92356,209.06128L264.20366,208.34121L263.48376,208.10118L263.00383,208.10118L
				261.80399,208.58123L259.88426,209.06128L259.64429,208.82125L260.60416,206.66103L261.32406,205.22089L261.80399,204.74084L
				262.04396,203.06067L262.76386,201.14047L263.00383,200.18037L263.24379,192.97964L263.24379,191.77952L263.24379,189.37928L
				263.48376,188.89923L263.9637,188.41918L263.48376,187.21906L263.48376,184.09874L263.9637,183.37866L264.6836,182.89862L264.92356,182.41857
				L265.4035,181.93852L265.88343,180.97842L266.1234,179.53827L266.8433,177.8581L268.52307,175.45786L270.68277,173.29764L272.12257,172.09752
				L272.84247,171.85749L274.04231,170.89739L274.76221,170.41735L275.72208,170.17732L278.12175,170.41735L279.32158,170.41735
				L281.24132,170.65737L283.40102,170.65737L284.60086,170.41735L285.56072,170.17732L286.28063,169.69727L287.24049,169.21722
				L288.20036,168.73717L288.6803,168.25713L289.16023,167.77708L290.1201,166.33693L290.1201,166.09691L290.36006,165.37683L290.1201,164.65676
				L290.1201,163.69666L290.1201,163.45664L290.84,163.21661L291.5599,163.21661L293.47964,163.21661L294.19954,163.21661L294.67947,163.21661
				L295.63934,162.97659L296.83917,163.69666L297.79904,163.69666L298.27898,163.69666L298.75891,163.69666L298.99888,163.69666
				L299.23884,163.69666L299.47881,163.21661L299.47881,162.73656L299.23884,161.77647L299.23884,161.29642L299.23884,160.33632
				L299.47881,159.85627L299.95874,159.61625L300.67865,158.89617L302.11845,157.69605L302.59838,157.216L303.79822,156.73595L304.27815,156.73595
				L304.99805,156.97598L305.23802,156.97598L305.71795,157.216L307.63769,157.93608L308.59756,158.41612L310.27733,159.37622L311.23719,160.0963
				L313.87683,161.53644L314.8367,162.49654L316.2765,164.41673L318.4362,166.57695L318.67617,166.57695L319.1561,166.57695L319.39607,166.81698
				L319.876,167.057L320.59591,167.53705L322.51564,168.73717L323.23554,169.45725L324.19541,170.17732L324.91531,170.65737L325.87518,171.13742
				L326.59508,171.61747L327.31498,172.09752L328.03488,172.57757L328.51482,173.29764L328.75478,174.25774L329.23472,175.69788
				L329.71465,176.65798L329.71465,177.37805L329.47468,178.57818L329.47468,179.29825L329.71465,180.01832L329.71465,181.21845
				L330.43455,180.7384L332.59426,179.05823L333.31416,178.09813L334.75396,176.89801L335.71383,176.65798L335.95379,176.41796L
				337.87353,175.93791L340.03323,174.49776L341.23307,174.25774L343.1528,173.29764L345.79244,171.85749L346.99228,171.13742L347.95214,170.65737
				z"/>
			<path clip-path="url(#SVG_CP_1)" fill="#73B273" fill-rule="evenodd" stroke="#343434" stroke-width="0.95987" stroke-miterlimit="10" stroke-linecap="round" stroke-linejoin="round" d="
				M259.64429,208.82125L259.88426,209.06128L261.80399,208.58123L263.00383,208.10118L263.48376,208.10118L264.20366,208.34121
				L264.92356,209.06128L265.4035,209.54133L265.64346,209.54133L266.36337,210.02138L267.5632,210.02138L268.2831,210.02138L269.48294,209.54133
				L270.92274,210.02138L272.12257,210.02138L272.60251,210.2614L272.84247,210.74145L273.80234,211.94157L274.04231,212.1816L274.76221,212.1816
				L274.76221,211.94157L275.72208,210.74145L276.20201,210.02138L276.92191,209.78135L277.88178,209.78135L278.36171,209.78135
				L279.08162,210.2614L280.04148,210.50143L280.52142,210.50143L281.72125,210.2614L281.96122,210.02138L283.40102,209.54133L284.36089,209.3013
				L285.32076,209.54133L286.04066,209.78135L287.00053,210.2614L287.48046,210.74145L287.48046,211.2215L287.72043,211.94157L287.96039,212.42162
				L287.96039,213.86177L288.44033,215.30191L289.16023,217.22211L289.16023,217.70216L288.6803,218.90228L288.44033,219.62235L
				287.72043,220.1024L287.24049,220.34243L286.28063,220.34243L285.80069,221.30252L286.28063,222.0226L286.52059,222.0226L287.24049,222.0226
				L288.20036,222.50265L288.44033,222.74267L288.44033,223.46274L287.96039,223.94279L288.20036,224.66287L288.44033,224.90289
				L289.4002,225.14292L289.64016,225.14292L290.1201,224.90289L292.03983,224.90289L292.75973,225.14292L293.23967,225.86299L293.7196,226.58306
				L293.95957,226.82309L294.91944,226.58306L295.1594,226.58306L295.63934,226.58306L296.35924,226.82309L297.31911,227.30314L
				298.51894,227.54316L299.95874,227.30314L300.43868,227.54316L300.67865,227.78318L300.19871,229.22333L300.43868,229.9434L300.19871,229.9434
				L298.75891,230.66348L297.55907,231.14353L297.07914,231.14353L296.35924,231.62358L294.67947,233.7838L293.23967,234.50387L
				292.03983,235.46397L290.84,236.18404L289.88013,236.66409L287.48046,237.62419L286.04066,238.10423L285.08079,238.10423L281.48129,238.10423
				L280.52142,238.34426L278.36171,238.34426L277.16188,238.58428L276.68195,238.82431L275.96204,238.82431L274.28228,239.06433
				L273.32241,239.30436L272.60251,239.30436L270.92274,239.78441L269.7229,240.26445L268.2831,240.7445L265.88343,241.94463L263.72373,243.38477
				L262.76386,244.58489L262.04396,245.54499L260.84412,246.26507L260.12422,246.50509L258.68442,246.98514L258.20449,246.74511
				L256.76469,245.30497L256.52472,245.30497L255.32488,245.30497L254.12505,245.54499L253.16518,245.78502L251.96535,245.78502
				L250.76551,245.30497L250.04561,244.82492L249.08574,244.10485L248.36584,242.90472L247.40597,241.94463L246.68607,241.46458
				L245.7262,240.26445L245.0063,239.06433L244.76634,237.62419L244.76634,237.14414L244.2864,236.66409L244.04643,236.18404L244.04643,234.98392
				L243.80647,233.30375L243.80647,232.8237L243.80647,231.38355L244.04643,229.22333L245.24627,225.86299L245.48624,224.42284L
				245.96617,223.22272L246.68607,222.0226L247.16601,220.58245L248.60581,218.90228L249.32571,217.22211L249.56568,216.98209L250.04561,216.26201
				L250.76551,215.30191L251.24544,214.10179L251.96535,211.94157L252.20531,211.46152L252.92521,208.58123L252.92521,206.66103
				L254.84495,205.94096L256.52472,205.46091L258.20449,207.38111L258.68442,207.86116L259.16436,209.54133L259.64429,208.82125
				z"/>
			<path clip-path="url(#SVG_CP_1)" fill="#73B273" fill-rule="evenodd" stroke="#343434" stroke-width="0.95987" stroke-miterlimit="10" stroke-linecap="round" stroke-linejoin="round" d="
				M256.52472,202.10057L256.52472,204.98086L256.52472,205.46091L254.84495,205.94096L252.92521,206.66103L252.92521,208.58123
				L252.20531,211.46152L251.96535,211.94157L251.24544,214.10179L250.76551,215.30191L250.04561,216.26201L249.56568,216.98209
				L249.32571,217.22211L248.60581,218.90228L247.16601,220.58245L246.68607,222.0226L245.96617,223.22272L245.48624,224.42284L
				245.24627,225.86299L244.04643,229.22333L243.80647,231.38355L243.80647,232.8237L243.80647,233.30375L244.04643,234.98392L244.04643,236.18404
				L243.08657,235.70399L240.92686,235.70399L239.72703,235.94402L238.28723,236.90411L237.80729,237.14414L237.08739,236.90411
				L235.88756,236.18404L235.16766,235.94402L234.92769,236.18404L234.44775,237.62419L233.96782,238.10423L233.48789,238.10423
				L233.00795,237.86421L232.28805,238.10423L232.04808,238.10423L232.04808,237.62419L231.56815,236.66409L230.60828,235.22394
				L230.12835,234.50387L229.64841,233.7838L228.68855,232.8237L227.48871,232.34365L226.52884,231.8636L225.32901,231.38355L224.36914,230.66348
				L223.64924,229.9434L222.4494,228.26323L221.24957,226.58306L220.2897,225.14292L219.32983,223.94279L220.2897,223.46274L221.0096,223.22272
				L222.20944,222.26262L222.92934,222.0226L224.12917,220.82248L225.80894,218.42223L226.76881,217.46213L227.48871,216.02199L
				227.72868,214.82187L227.72868,214.10179L227.96865,213.38172L228.92851,211.70155L229.88838,210.74145L231.32818,209.54133L
				232.52802,208.34121L233.24792,207.86116L233.72785,206.66103L234.44775,205.46091L234.92769,204.74084L235.16766,204.50081L
				235.40762,204.26079L236.60746,203.78074L237.08739,203.78074L238.04726,203.30069L239.72703,202.58062L240.44693,201.86055L
				241.88673,201.14047L242.36667,200.90045L243.80647,200.90045L244.2864,201.14047L245.0063,201.62052L245.96617,202.10057L246.20614,202.34059
				L247.16601,203.54072L247.40597,203.54072L248.12587,203.78074L248.60581,203.78074L251.96535,202.10057L252.44528,201.62052
				L252.92521,201.14047L253.16518,201.14047L254.60498,201.3805L255.32488,201.62052L255.56485,201.86055L256.52472,202.10057z
				"/>
			<path clip-path="url(#SVG_CP_1)" fill="#73B273" fill-rule="evenodd" stroke="#343434" stroke-width="0.95987" stroke-miterlimit="10" stroke-linecap="round" stroke-linejoin="round" d="
				M287.24049,169.21722L286.28063,169.69727L285.56072,170.17732L284.60086,170.41735L283.40102,170.65737L281.24132,170.65737
				L279.32158,170.41735L278.12175,170.41735L275.72208,170.17732L274.76221,170.41735L274.04231,170.89739L272.84247,171.85749
				L272.12257,172.09752L270.68277,173.29764L268.52307,175.45786L266.8433,177.8581L266.1234,179.53827L265.88343,180.97842L265.4035,181.93852
				L264.92356,182.41857L264.6836,182.89862L263.9637,183.37866L263.48376,184.09874L263.48376,187.21906L263.9637,188.41918L263.48376,188.89923
				L263.24379,189.37928L263.24379,191.77952L263.24379,192.97964L263.00383,200.18037L262.76386,201.14047L262.04396,203.06067
				L261.80399,204.74084L261.32406,205.22089L260.60416,206.66103L259.64429,208.82125L259.16436,209.54133L258.68442,207.86116
				L258.20449,207.38111L256.52472,205.46091L256.52472,204.98086L256.52472,202.10057L256.52472,200.66042L256.04478,199.22028
				L255.32488,198.5002L255.08492,198.5002L254.60498,197.78013L254.36502,197.30008L253.88508,196.09996L253.40515,195.61991L252.68525,195.37989
				L251.48541,195.13986L250.76551,194.89984L248.84577,194.17976L247.88591,193.21967L246.92604,192.25957L246.20614,191.29947
				L243.80647,189.6193L242.8466,188.6592L241.88673,188.17915L239.72703,187.6991L236.36749,187.6991L234.68772,188.17915L233.00795,187.93913
				L232.28805,187.45908L232.28805,186.73901L232.28805,186.25896L232.28805,185.29886L232.28805,184.57879L231.80812,184.09874
				L231.32818,183.85871L230.60828,184.09874L230.12835,184.33876L229.40845,184.81881L228.68855,185.77891L228.20861,186.49898
				L227.96865,186.73901L227.72868,186.97903L226.76881,188.41918L226.28888,188.6592L223.88921,188.6592L222.4494,188.41918L221.48954,187.93913
				L221.0096,187.45908L220.2897,186.01893L220.04973,185.53888L219.80977,184.57879L219.32983,184.09874L218.60993,183.85871L218.13,183.61869
				L217.65007,183.61869L217.4101,183.61869L216.93016,183.13864L216.21026,182.17854L214.77046,180.49837L214.05056,179.29825L
				214.77046,178.57818L215.2504,178.09813L215.9703,177.13803L216.45023,176.89801L217.4101,176.17793L218.60993,175.45786L218.8499,174.97781
				L220.76964,173.29764L221.24957,172.57757L222.92934,169.9373L223.16931,169.45725L223.16931,168.0171L223.40927,166.57695L223.40927,166.09691
				L223.64924,165.61686L224.36914,164.89678L225.08904,164.65676L225.56898,164.41673L226.28888,164.41673L226.76881,163.93669
				L227.24874,162.25652L227.24874,159.85627L226.52884,156.01588L225.56898,152.65554L225.32901,152.41551L226.28888,152.17549
				L227.48871,152.17549L228.20861,151.93546L229.16848,151.21539L229.64841,150.97537L230.84825,150.73534L231.56815,150.49532
				L232.52802,150.49532L233.72785,150.49532L235.40762,150.49532L240.20696,150.49532L243.5665,150.73534L245.0063,150.73534L245.96617,150.49532
				L246.68607,150.49532L247.40597,150.25529L248.60581,149.77524L249.08574,149.77524L249.56568,149.53522L250.76551,149.53522
				L251.72538,150.01527L251.96535,150.49532L251.96535,151.21539L252.44528,151.69544L252.92521,151.93546L253.88508,151.45542
				L254.36502,151.45542L254.84495,151.69544L255.32488,152.89556L255.80482,153.61564L256.04478,153.85566L256.52472,154.33571
				L257.96452,155.53583L258.44445,155.77586L260.12422,156.2559L262.04396,156.01588L265.16353,156.49593L265.64346,156.49593L
				267.80317,157.93608L268.2831,157.93608L269.48294,157.93608L269.7229,158.1761L269.96287,158.41612L270.4428,159.1362L270.68277,159.1362
				L270.92274,159.61625L271.64264,160.0963L272.84247,160.33632L274.28228,161.05639L275.00218,161.29642L275.96204,161.29642L
				276.44198,161.29642L277.16188,161.77647L277.64181,162.01649L278.60168,162.25652L279.32158,162.25652L280.28145,162.25652L
				281.00135,162.01649L282.20119,162.01649L282.92109,161.77647L283.40102,161.77647L283.88096,162.25652L284.12092,163.45664L
				284.60086,164.17671L285.08079,164.65676L286.28063,165.37683L287.00053,166.33693L287.24049,168.0171L287.24049,169.21722z"/>
			<path clip-path="url(#SVG_CP_1)" fill="#73B273" fill-rule="evenodd" stroke="#343434" stroke-width="0.95987" stroke-miterlimit="10" stroke-linecap="round" stroke-linejoin="round" d="
				M256.52472,202.10057L255.56485,201.86055L255.32488,201.62052L254.60498,201.3805L253.16518,201.14047L252.92521,201.14047L
				252.44528,201.62052L251.96535,202.10057L248.60581,203.78074L248.12587,203.78074L247.40597,203.54072L247.16601,203.54072L
				246.20614,202.34059L245.96617,202.10057L245.0063,201.62052L244.2864,201.14047L243.80647,200.90045L242.36667,200.90045L241.88673,201.14047
				L240.44693,201.86055L239.72703,202.58062L238.04726,203.30069L237.08739,203.78074L236.60746,203.78074L235.40762,204.26079
				L235.16766,204.50081L234.92769,204.74084L234.44775,205.46091L233.72785,206.66103L233.24792,207.86116L232.52802,208.34121
				L231.32818,209.54133L229.88838,210.74145L228.92851,211.70155L227.96865,213.38172L227.72868,214.10179L227.72868,214.82187
				L227.48871,216.02199L226.76881,217.46213L225.80894,218.42223L224.12917,220.82248L222.92934,222.0226L222.20944,222.26262L
				221.0096,223.22272L220.2897,223.46274L219.32983,223.94279L219.08987,223.70277L217.4101,221.78257L216.21026,220.82248L215.9703,220.58245
				L213.57063,218.66226L213.09069,217.94218L209.97112,215.78196L208.77129,214.82187L207.33148,213.62174L205.65172,212.1816L
				204.45188,211.46152L202.29218,210.50143L201.57228,210.2614L200.85238,210.02138L200.37244,209.54133L201.09234,208.82125L201.33231,208.34121
				L201.81224,207.14108L202.29218,206.42101L202.77211,206.18099L203.49201,205.70094L203.49201,205.46091L203.73198,204.26079
				L203.97195,203.06067L204.69185,200.90045L204.69185,200.18037L204.45188,199.4603L205.65172,198.02016L206.37162,197.30008L
				207.81142,195.13986L208.53132,194.17976L209.01125,193.45969L209.25122,192.97964L209.25122,191.5395L209.97112,190.81942L211.65089,187.93913
				L212.13082,187.45908L212.61076,186.97903L212.61076,186.49898L212.61076,184.09874L213.09069,181.69849L213.09069,181.45847
				L213.81059,180.01832L214.05056,179.29825L214.77046,180.49837L216.21026,182.17854L216.93016,183.13864L217.4101,183.61869L
				217.65007,183.61869L218.13,183.61869L218.60993,183.85871L219.32983,184.09874L219.80977,184.57879L220.04973,185.53888L220.2897,186.01893
				L221.0096,187.45908L221.48954,187.93913L222.4494,188.41918L223.88921,188.6592L226.28888,188.6592L226.76881,188.41918L227.72868,186.97903
				L227.96865,186.73901L228.20861,186.49898L228.68855,185.77891L229.40845,184.81881L230.12835,184.33876L230.60828,184.09874
				L231.32818,183.85871L231.80812,184.09874L232.28805,184.57879L232.28805,185.29886L232.28805,186.25896L232.28805,186.73901
				L232.28805,187.45908L233.00795,187.93913L234.68772,188.17915L236.36749,187.6991L239.72703,187.6991L241.88673,188.17915L242.8466,188.6592
				L243.80647,189.6193L246.20614,191.29947L246.92604,192.25957L247.88591,193.21967L248.84577,194.17976L250.76551,194.89984L
				251.48541,195.13986L252.68525,195.37989L253.40515,195.61991L253.88508,196.09996L254.36502,197.30008L254.60498,197.78013L
				255.08492,198.5002L255.32488,198.5002L256.04478,199.22028L256.52472,200.66042L256.52472,202.10057z"/>
			<path clip-path="url(#SVG_CP_1)" fill="#73B273" fill-rule="evenodd" stroke="#343434" stroke-width="0.95987" stroke-miterlimit="10" stroke-linecap="round" stroke-linejoin="round" d="
				M219.32983,223.94279L220.2897,225.14292L221.24957,226.58306L222.4494,228.26323L223.64924,229.9434L224.36914,230.66348L225.32901,231.38355
				L226.52884,231.8636L227.48871,232.34365L228.68855,232.8237L229.64841,233.7838L230.12835,234.50387L230.60828,235.22394L231.56815,236.66409
				L232.04808,237.62419L232.04808,238.10423L231.80812,238.34426L231.32818,239.30436L231.08822,239.54438L230.60828,239.54438
				L229.88838,240.02443L229.16848,240.26445L227.96865,240.02443L227.00878,240.50448L225.80894,241.22455L224.36914,242.6647L
				222.68937,243.6248L220.52967,244.58489L219.5698,244.58489L218.8499,243.14475L218.36997,241.7046L218.13,240.02443L218.13,238.58428
				L218.36997,237.86421L218.8499,236.90411L219.08987,236.42406L218.8499,235.46397L218.36997,234.74389L217.65007,234.26384L216.93016,234.02382
				L215.73033,233.30375L214.05056,232.10362L212.85073,231.38355L212.13082,230.9035L210.93099,230.18343L210.21109,230.66348L
				209.25122,231.14353L208.29135,231.14353L206.85155,231.62358L204.93181,231.62358L204.21191,231.8636L203.73198,232.34365L203.01208,233.06372
				L202.53214,234.50387L202.29218,235.94402L201.81224,236.18404L201.09234,236.18404L199.17261,234.50387L198.69267,233.54377
				L198.45271,232.58367L198.93264,230.66348L200.13247,227.54316L200.37244,227.30314L200.61241,226.34304L201.33231,222.9827L
				201.33231,221.78257L200.85238,220.58245L200.61241,220.1024L199.89251,219.62235L199.41257,218.66226L199.41257,217.70216L199.17261,216.98209
				L198.69267,216.26201L198.45271,215.54194L197.25287,213.38172L197.0129,212.90167L197.49284,211.94157L198.21274,211.94157L
				198.45271,211.70155L198.69267,211.46152L198.93264,210.50143L199.41257,209.78135L200.37244,209.54133L200.85238,210.02138L
				201.57228,210.2614L202.29218,210.50143L204.45188,211.46152L205.65172,212.1816L207.33148,213.62174L208.77129,214.82187L209.97112,215.78196
				L213.09069,217.94218L213.57063,218.66226L215.9703,220.58245L216.21026,220.82248L217.4101,221.78257L219.08987,223.70277L219.32983,223.94279
				z"/>
			<path clip-path="url(#SVG_CP_1)" fill="#73B273" fill-rule="evenodd" stroke="#343434" stroke-width="0.95987" stroke-miterlimit="10" stroke-linecap="round" stroke-linejoin="round" d="
				M410.58353,214.58184L411.06346,213.86177L413.22317,213.38172L413.7031,213.38172L413.94307,214.10179L414.66297,214.82187L
				414.90293,215.30191L414.90293,215.78196L414.90293,216.50204L414.423,217.22211L413.7031,217.94218L410.8235,219.86238L408.18386,221.54255
				L404.58435,222.74267L403.38452,223.22272L401.94472,223.94279L399.30508,224.90289L396.42548,226.58306L394.26577,227.54316
				L391.8661,228.98331L391.1462,229.46336L390.90624,229.46336L390.18633,229.9434L388.50657,230.9035L385.62696,232.58367L384.90706,233.30375
				L384.66709,234.02382L383.70723,235.46397L383.22729,236.90411L381.30756,239.06433L379.38782,240.7445L377.70805,241.7046L376.26825,242.42467
				L373.62861,243.38477L372.90871,243.86482L370.98897,245.54499L370.26907,246.02504L368.5893,247.46519L365.22977,249.86543L
				364.50987,250.58551L363.55,251.30558L362.59013,252.98575L361.87023,253.94585L361.3903,253.94585L359.23059,251.06555L358.27072,250.10546
				L357.31086,248.90533L354.91119,246.74511L354.19129,245.78502L353.47138,245.30497L352.99145,245.06494L352.51152,244.82492
				L351.79162,244.58489L351.31168,244.58489L349.87188,244.82492L349.63191,245.06494L348.91201,245.54499L347.71218,246.98514
				L346.03241,248.90533L345.31251,249.86543L344.11267,250.82553L342.67287,252.26568L341.47303,253.70582L341.47303,254.18587
				L340.9931,254.90594L339.79327,257.06616L339.31333,257.54621L338.59343,258.02626L338.1135,258.02626L337.3936,257.54621L336.67369,258.26629
				L336.19376,258.98636L335.47386,259.46641L334.75396,260.18648L333.55412,261.14658L333.31416,261.14658L332.59426,261.14658
				L331.63439,260.42651L330.91449,260.42651L330.67452,260.66653L329.71465,261.3866L328.03488,264.74695L327.07501,265.70704L
				326.11515,266.18709L323.71548,267.14719L322.51564,267.86726L319.39607,270.74756L318.91614,271.46763L317.95627,272.90778L
				316.9964,274.34792L315.31663,276.98819L314.35676,278.42834L313.87683,279.38844L313.63686,279.38844L312.677,281.30863L312.19706,282.02871
				L310.99723,282.9888L308.83752,284.42895L307.15775,285.8691L306.67782,286.10912L305.47799,286.58917L304.27815,286.58917L303.79822,286.58917
				L302.11845,286.82919L300.67865,286.82919L299.71878,287.06922L298.75891,286.82919L298.03901,287.06922L298.03901,287.30924
				L297.55907,286.34915L296.35924,284.42895L295.87931,283.46885L294.4395,281.30863L293.95957,280.10851L293.47964,279.14841L
				292.51977,277.94829L290.36006,275.78807L289.16023,274.34792L288.6803,274.1079L288.20036,273.86787L287.72043,273.86787L286.76056,274.1079
				L285.56072,274.34792L284.84082,274.58795L283.64099,274.82797L283.16105,274.82797L282.92109,274.82797L282.68112,274.58795
				L282.44115,273.86787L282.20119,272.1877L282.20119,271.70766L281.96122,270.98758L281.72125,268.82736L281.48129,267.14719L
				281.24132,265.46702L280.76138,264.02687L280.28145,263.78685L279.32158,263.3068L278.60168,263.06678L277.40185,262.58673L276.20201,261.86665
				L274.28228,260.66653L273.56237,260.42651L273.32241,260.42651L272.84247,260.42651L272.36254,260.90656L271.88261,261.14658
				L270.92274,261.62663L269.96287,261.3866L269.7229,261.3866L269.24297,261.62663L268.76303,262.3467L268.2831,264.02687L268.04313,264.98697
				L267.08327,265.94707L266.36337,266.18709L265.64346,265.94707L264.20366,265.70704L263.48376,265.227L262.52389,264.50692L261.80399,263.78685
				L261.08409,263.3068L259.88426,262.10668L259.16436,261.62663L258.68442,261.62663L258.20449,261.62663L256.28475,261.62663L
				255.80482,261.62663L255.32488,261.3866L254.60498,260.42651L256.76469,259.94646L258.20449,258.98636L259.16436,258.26629L259.40432,257.54621
				L259.88426,256.58612L260.60416,254.90594L261.08409,253.22577L261.08409,252.26568L261.32406,249.62541L261.32406,247.70521
				L261.56403,246.74511L262.04396,245.54499L262.76386,244.58489L263.72373,243.38477L265.88343,241.94463L268.2831,240.7445L269.7229,240.26445
				L270.92274,239.78441L272.60251,239.30436L273.32241,239.30436L274.28228,239.06433L275.96204,238.82431L276.68195,238.82431
				L277.16188,238.58428L278.36171,238.34426L280.52142,238.34426L281.48129,238.10423L285.08079,238.10423L286.04066,238.10423
				L287.48046,237.62419L289.88013,236.66409L290.84,236.18404L292.03983,235.46397L293.23967,234.50387L294.67947,233.7838L296.35924,231.62358
				L297.07914,231.14353L297.55907,231.14353L298.75891,230.66348L298.75891,232.34365L298.75891,234.02382L298.99888,235.22394
				L299.23884,236.18404L299.23884,236.90411L299.47881,238.10423L299.71878,238.58428L300.67865,240.26445L301.63851,240.98453
				L302.59838,241.94463L303.07832,242.42467L303.55825,242.6647L304.75808,243.14475L305.23802,243.38477L305.71795,242.90472L
				306.43785,241.94463L306.67782,241.22455L306.67782,240.7445L306.19789,240.02443L305.23802,238.82431L304.99805,238.10423L304.03818,236.90411
				L303.79822,236.18404L303.79822,235.70399L304.03818,235.22394L304.27815,234.98392L304.75808,234.98392L305.95792,235.46397
				L306.91779,235.70399L307.63769,236.18404L309.55742,236.90411L310.03736,237.14414L310.75726,237.62419L311.23719,237.62419
				L312.19706,237.86421L313.63686,237.38416L315.31663,237.38416L318.91614,236.90411L321.07584,236.90411L322.03571,236.90411
				L322.75561,236.66409L324.67534,236.18404L325.39525,236.18404L326.35511,235.94402L326.83505,236.18404L327.55495,236.66409
				L328.75478,236.66409L329.47468,236.18404L329.71465,235.94402L330.19459,235.22394L330.43455,234.74389L330.91449,234.26384
				L331.63439,233.30375L333.07419,232.58367L334.03406,232.58367L335.71383,232.8237L335.95379,233.06372L336.91366,233.30375L
				339.07336,234.02382L339.5533,234.26384L340.03323,234.26384L340.75313,234.98392L341.47303,234.98392L341.713,234.98392L341.95297,234.98392
				L343.1528,234.02382L343.8727,234.02382L344.35264,233.54377L345.79244,233.06372L346.75231,233.54377L348.43208,233.7838L350.35181,233.30375
				L352.27155,233.54377L352.75148,233.54377L354.91119,234.98392L355.63109,235.46397L356.11102,235.46397L356.59096,235.22394
				L358.51069,233.7838L359.71053,233.06372L360.67039,233.30375L361.87023,233.54377L362.35016,233.54377L363.07006,233.30375L
				363.78997,233.06372L364.2699,232.8237L364.9898,233.06372L367.1495,234.02382L367.62944,234.26384L368.10937,234.26384L369.06924,233.7838
				L370.02911,232.58367L370.26907,232.34365L370.98897,232.10362L371.46891,231.8636L372.42878,231.38355L373.14868,231.14353L
				373.62861,231.38355L375.54835,232.34365L376.02828,232.58367L376.98815,232.58367L377.70805,232.34365L379.14785,231.38355L
				380.10772,230.42345L380.82762,229.22333L382.50739,228.02321L383.22729,226.82309L383.70723,226.34304L388.02663,223.46274L
				390.66627,222.26262L391.1462,221.78257L391.62614,221.0625L392.34604,219.86238L392.82597,217.94218L393.30591,217.22211L393.54587,216.74206
				L394.26577,216.26201L395.46561,215.30191L396.18551,215.30191L396.42548,215.30191L396.90541,214.82187L397.86528,213.86177
				L399.06511,213.38172L399.54505,213.38172L400.02498,213.38172L400.74488,213.62174L401.46478,214.58184L402.42465,214.82187
				L404.34439,215.78196L406.26412,216.26201L407.22399,216.26201L407.70393,216.26201L409.38369,215.30191L410.58353,214.58184
				z"/>
			<path clip-path="url(#SVG_CP_1)" fill="#73B273" fill-rule="evenodd" stroke="#343434" stroke-width="0.95987" stroke-miterlimit="10" stroke-linecap="round" stroke-linejoin="round" d="
				M431.70062,262.10668L431.22069,262.58673L430.74076,262.82675L429.54092,262.82675L426.66132,263.78685L422.58188,264.50692
				L420.66214,265.227L419.46231,265.70704L418.74241,266.18709L417.54257,266.90717L415.8628,268.10729L411.78336,269.54744L410.34356,269.54744
				L409.38369,269.78746L408.18386,270.50753L407.46396,270.98758L406.98402,271.46763L406.02416,272.1877L405.30426,272.90778L
				404.10442,274.34792L403.14455,276.74817L402.66462,276.98819L401.46478,279.62846L400.98485,280.82858L400.74488,282.26873L
				400.50492,283.22883L400.50492,284.42895L400.50492,285.8691L400.74488,287.78929L400.26495,288.26934L399.06511,289.22944L397.62531,290.66959
				L396.18551,291.62968L395.46561,292.8298L394.26577,295.47007L393.54587,296.43017L392.82597,298.59039L392.586,298.83042L392.34604,299.31046
				L391.62614,300.75061L391.1462,301.47068L390.66627,302.19076L390.4263,302.67081L389.94637,302.91083L388.9865,303.6309L386.8268,304.11095
				L382.74736,304.591L381.30756,304.591L380.10772,304.35098L378.18798,304.591L377.22812,304.83103L376.26825,305.31108L374.82845,306.27117
				L372.66874,308.19137L371.70888,309.15147L371.22894,309.63151L370.74901,309.63151L369.06924,308.67142L368.10937,308.43139
				L367.62944,308.43139L365.46973,308.91144L364.9898,309.15147L363.78997,310.11156L361.15033,311.07166L360.19046,311.31169L
				358.75066,311.31169L357.31086,311.07166L356.11102,311.31169L354.91119,311.31169L354.19129,311.07166L353.47138,310.59161L
				352.99145,310.35159L351.79162,309.39149L351.31168,308.91144L350.59178,308.43139L348.43208,307.23127L347.47221,306.27117L
				345.55247,304.83103L344.59261,304.35098L343.1528,304.11095L342.91284,303.87093L340.75313,304.11095L339.79327,304.35098L337.3936,304.35098
				L334.99393,304.11095L332.59426,303.39088L331.15445,303.39088L329.71465,303.87093L328.03488,304.591L326.11515,305.07105L324.19541,305.07105
				L323.47551,304.83103L322.03571,304.591L320.83587,304.591L320.11597,304.35098L319.39607,304.11095L318.4362,303.87093L316.9964,303.87093
				L316.03653,303.6309L315.79657,303.15086L314.8367,302.91083L313.15693,302.19076L310.99723,300.75061L310.27733,299.79051L310.03736,299.31046
				L309.55742,298.59039L309.31746,298.35037L308.83752,298.11034L307.87766,297.87032L305.95792,297.15024L304.51812,296.6702L
				301.87848,295.95012L300.67865,295.95012L299.47881,295.95012L296.59921,296.6702L296.35924,296.6702L296.35924,296.43017L296.83917,294.75
				L297.07914,293.54988L297.55907,291.14963L297.55907,290.66959L297.79904,289.94951L298.03901,288.74939L298.03901,287.78929
				L298.03901,287.06922L298.75891,286.82919L299.71878,287.06922L300.67865,286.82919L302.11845,286.82919L303.79822,286.58917
				L304.27815,286.58917L305.47799,286.58917L306.67782,286.10912L307.15775,285.8691L308.83752,284.42895L310.99723,282.9888L312.19706,282.02871
				L312.677,281.30863L313.63686,279.38844L313.87683,279.38844L314.35676,278.42834L315.31663,276.98819L316.9964,274.34792L317.95627,272.90778
				L318.91614,271.46763L319.39607,270.74756L322.51564,267.86726L323.71548,267.14719L326.11515,266.18709L327.07501,265.70704
				L328.03488,264.74695L329.71465,261.3866L330.67452,260.66653L330.91449,260.42651L331.63439,260.42651L332.59426,261.14658L
				333.31416,261.14658L333.55412,261.14658L334.75396,260.18648L335.47386,259.46641L336.19376,258.98636L336.67369,258.26629L
				337.3936,257.54621L338.1135,258.02626L338.59343,258.02626L339.31333,257.54621L339.79327,257.06616L340.9931,254.90594L341.47303,254.18587
				L341.47303,253.70582L342.67287,252.26568L344.11267,250.82553L345.31251,249.86543L346.03241,248.90533L347.71218,246.98514
				L348.91201,245.54499L349.63191,245.06494L349.87188,244.82492L351.31168,244.58489L351.79162,244.58489L352.51152,244.82492
				L352.99145,245.06494L353.47138,245.30497L354.19129,245.78502L354.91119,246.74511L357.31086,248.90533L358.27072,250.10546
				L359.23059,251.06555L361.3903,253.94585L361.87023,253.94585L362.59013,252.98575L363.55,251.30558L364.50987,250.58551L365.22977,249.86543
				L368.5893,247.46519L370.26907,246.02504L370.98897,245.54499L372.90871,243.86482L373.62861,243.38477L376.26825,242.42467L
				377.70805,241.7046L379.38782,240.7445L381.30756,239.06433L383.22729,236.90411L383.70723,235.46397L384.66709,234.02382L384.90706,233.30375
				L385.62696,232.58367L388.50657,230.9035L390.18633,229.9434L390.90624,229.46336L391.1462,229.46336L391.8661,228.98331L394.26577,227.54316
				L396.42548,226.58306L399.30508,224.90289L401.94472,223.94279L403.38452,223.22272L404.58435,222.74267L408.18386,221.54255
				L410.8235,219.86238L413.7031,217.94218L414.423,217.22211L414.90293,216.50204L414.90293,215.78196L414.90293,215.30191L414.66297,214.82187
				L413.94307,214.10179L413.7031,213.38172L414.66297,213.86177L415.62284,215.06189L417.54257,216.26201L418.74241,216.50204L
				419.46231,216.50204L420.18221,216.26201L421.14208,215.54194L422.34191,214.58184L423.54175,213.38172L424.02168,212.90167L
				424.98155,211.94157L425.70145,211.46152L426.66132,211.2215L427.86115,210.2614L428.34109,210.02138L429.06099,209.78135L431.22069,209.78135
				L431.70062,210.02138L432.66049,210.02138L433.14043,209.54133L433.62036,209.06128L433.62036,208.34121L433.38039,207.86116
				L433.38039,207.14108L434.10029,206.66103L434.8202,206.42101L435.5401,205.94096L437.21987,204.02077L439.8595,200.90045L439.8595,199.94035
				L441.05934,198.98025L441.53927,198.26018L442.73911,197.06006L443.21904,196.82003L443.69897,196.58001L445.85868,196.58001
				L446.33861,195.85994L447.05851,195.13986L447.53845,194.41979L448.25835,194.17976L448.01838,195.37989L447.53845,197.54011
				L447.53845,198.02016L448.01838,198.74023L448.73828,199.22028L451.13795,200.18037L452.33779,200.66042L453.53762,201.62052
				L453.77759,202.10057L454.01756,203.30069L454.01756,203.54072L453.05769,207.38111L453.29765,208.58123L453.53762,210.02138
				L453.53762,211.2215L453.29765,212.42162L453.05769,213.14169L452.57775,213.62174L452.33779,214.34182L451.85785,215.06189L
				450.65802,216.98209L450.41805,218.18221L450.41805,218.90228L450.17808,220.1024L448.97825,222.50265L448.97825,223.22272L448.97825,223.94279
				L448.97825,224.66287L448.97825,225.38294L449.69815,227.78318L449.69815,228.74328L449.45818,229.22333L449.21822,229.46336
				L447.29848,229.9434L446.57858,230.42345L445.13878,231.62358L444.17891,232.8237L442.97907,233.30375L442.01921,233.54377L440.81937,234.02382
				L440.09947,234.74389L438.4197,234.98392L437.21987,234.98392L436.73993,235.22394L436.49996,235.46397L436.02003,235.70399L
				435.30013,236.90411L432.90046,242.18465L432.42053,243.6248L432.42053,244.82492L432.42053,247.22516L432.66049,248.42529L432.66049,249.14536
				L432.90046,250.58551L432.90046,254.66592L432.66049,256.58612L431.94059,259.46641L431.94059,261.62663L431.70062,262.10668
				z"/>
			<path clip-path="url(#SVG_CP_1)" fill="#73B273" fill-rule="evenodd" stroke="#343434" stroke-width="0.95987" stroke-miterlimit="10" stroke-linecap="round" stroke-linejoin="round" d="
				M320.59591,95.76975L321.55577,96.48982L322.27567,96.96987L322.51564,97.20989L323.47551,97.92997L323.71548,98.65004L324.19541,99.37011
				L324.19541,100.09019L324.19541,102.01038L324.19541,102.49043L324.43538,103.21051L325.15528,104.1706L327.31498,105.61075L
				327.55495,105.85077L330.43455,106.0908L331.87435,107.0509L333.07419,107.77097L334.03406,108.97109L334.27402,110.17121L334.51399,110.65126
				L334.99393,111.13131L335.47386,111.37134L336.19376,111.85138L337.15363,112.09141L338.35346,112.09141L339.5533,112.33143L
				341.47303,111.85138L342.4329,112.09141L342.91284,112.33143L343.63274,112.33143L344.59261,111.61136L346.27237,109.93119L346.99228,109.69116
				L347.71218,109.69116L348.67204,110.17121L349.15198,110.65126L349.87188,111.13131L350.11185,111.13131L351.31168,112.33143
				L352.99145,114.9717L353.71135,115.45175L354.91119,115.9318L355.63109,116.41185L356.11102,117.13192L354.91119,117.61197L353.23142,118.57207
				L352.99145,119.05212L352.51152,119.05212L352.27155,119.29214L352.03158,119.77219L352.27155,120.25224L352.27155,122.65248
				L352.51152,123.85261L352.51152,124.09263L352.99145,124.57268L353.95132,125.29275L353.95132,125.53278L353.71135,126.49288
				L353.23142,127.21295L352.51152,129.13314L351.79162,130.09324L351.31168,130.57329L350.83175,131.77341L350.35181,133.93363
				L350.35181,134.17366L350.11185,135.85383L349.39195,138.73412L349.15198,140.41429L349.39195,143.77463L349.63191,144.73473
				L350.59178,146.4149L350.83175,147.375L350.83175,147.61502L350.83175,149.53522L350.83175,150.73534L350.83175,152.89556L350.59178,154.09568
				L349.63191,157.69605L349.63191,158.65615L349.87188,160.57634L351.31168,162.49654L352.51152,163.45664L353.95132,164.89678
				L355.15115,166.57695L354.43125,167.53705L353.23142,168.0171L350.83175,169.21722L349.87188,169.45725L348.67204,170.41735L
				347.95214,170.65737L346.99228,171.13742L345.79244,171.85749L343.1528,173.29764L341.23307,174.25774L340.03323,174.49776L337.87353,175.93791
				L335.95379,176.41796L335.71383,176.65798L334.75396,176.89801L333.31416,178.09813L332.59426,179.05823L330.43455,180.7384L
				329.71465,181.21845L329.71465,180.01832L329.47468,179.29825L329.47468,178.57818L329.71465,177.37805L329.71465,176.65798L
				329.23472,175.69788L328.75478,174.25774L328.51482,173.29764L328.03488,172.57757L327.31498,172.09752L326.59508,171.61747L
				325.87518,171.13742L324.91531,170.65737L324.19541,170.17732L323.23554,169.45725L322.51564,168.73717L320.59591,167.53705L
				319.876,167.057L319.39607,166.81698L319.1561,166.57695L318.67617,166.57695L318.4362,166.57695L316.2765,164.41673L314.8367,162.49654
				L313.87683,161.53644L311.23719,160.0963L310.27733,159.37622L308.59756,158.41612L307.63769,157.93608L305.71795,157.216L305.23802,156.97598
				L304.99805,156.97598L304.27815,156.73595L303.79822,156.73595L302.59838,157.216L302.11845,157.69605L300.67865,158.89617L299.95874,159.61625
				L299.47881,159.85627L299.23884,160.33632L299.23884,161.29642L299.23884,161.77647L299.47881,162.73656L299.47881,163.21661
				L299.23884,163.69666L298.99888,163.69666L298.75891,163.69666L298.27898,163.69666L297.79904,163.69666L296.83917,163.69666
				L295.63934,162.97659L294.67947,163.21661L294.19954,163.21661L293.47964,163.21661L291.5599,163.21661L290.84,163.21661L290.1201,163.45664
				L290.1201,163.69666L290.1201,164.65676L290.36006,165.37683L290.1201,166.09691L290.1201,166.33693L289.16023,167.77708L288.6803,168.25713
				L288.20036,168.73717L287.24049,169.21722L287.24049,168.0171L287.00053,166.33693L286.28063,165.37683L285.08079,164.65676L
				284.60086,164.17671L284.12092,163.45664L283.88096,162.25652L283.40102,161.77647L282.92109,161.77647L282.20119,162.01649L
				281.00135,162.01649L280.28145,162.25652L279.32158,162.25652L278.60168,162.25652L277.64181,162.01649L277.16188,161.77647L
				276.44198,161.29642L275.96204,161.29642L275.00218,161.29642L274.28228,161.05639L272.84247,160.33632L271.64264,160.0963L270.92274,159.61625
				L270.68277,159.1362L270.4428,159.1362L269.96287,158.41612L269.7229,158.1761L269.48294,157.93608L268.2831,157.93608L267.80317,157.93608
				L265.64346,156.49593L265.16353,156.49593L262.04396,156.01588L260.12422,156.2559L258.44445,155.77586L257.96452,155.53583L
				256.52472,154.33571L256.04478,153.85566L255.80482,153.61564L255.32488,152.89556L254.84495,151.69544L254.36502,151.45542L
				253.88508,151.45542L252.92521,151.93546L252.44528,151.69544L251.96535,151.21539L251.96535,150.49532L251.72538,150.01527L
				250.76551,149.53522L249.56568,149.53522L249.08574,149.77524L248.60581,149.77524L247.40597,150.25529L246.68607,150.49532L
				247.16601,149.77524L247.40597,148.81515L248.12587,146.17488L248.60581,142.09446L248.60581,139.21417L248.36584,137.534L248.12587,136.33388
				L247.64594,136.09385L247.16601,136.09385L246.68607,135.85383L246.4461,135.37378L246.20614,134.89373L246.20614,134.41368L
				246.20614,133.69361L246.20614,133.21356L245.7262,132.97353L244.52637,132.01344L244.04643,131.53339L242.8466,130.09324L242.60663,129.37317
				L241.4068,127.45297L240.44693,126.01283L240.20696,125.05273L239.967,124.33266L240.6869,123.85261L241.64676,123.37256L241.88673,123.37256
				L242.8466,123.37256L244.76634,123.85261L245.96617,123.85261L247.64594,123.61258L248.12587,123.13253L248.12587,122.41246L
				247.88591,121.45236L247.16601,118.81209L247.16601,118.33204L246.92604,117.13192L246.92604,116.41185L247.40597,114.73168L
				247.40597,112.57146L247.16601,111.37134L247.16601,107.29092L246.92604,106.81087L247.64594,106.0908L249.32571,105.1307L250.28558,104.65065
				L251.48541,104.41063L252.92521,103.69055L255.08492,103.21051L256.04478,103.21051L258.92439,103.45053L260.60416,103.21051
				L261.80399,102.97048L262.52389,102.97048L266.8433,102.73046L267.5632,102.49043L268.76303,102.01038L269.48294,101.77036L269.7229,101.77036
				L269.96287,101.77036L270.4428,102.73046L270.4428,103.69055L270.68277,103.93058L271.1627,104.41063L271.88261,104.41063L272.60251,104.89068
				L273.08244,105.37073L273.32241,105.61075L273.56237,106.81087L273.80234,107.29092L274.28228,107.53095L275.48211,107.77097
				L275.96204,107.29092L276.68195,106.57085L277.88178,105.85077L278.84165,105.37073L279.32158,105.37073L280.28145,104.89068
				L281.00135,104.41063L281.72125,104.41063L283.64099,104.65065L284.60086,105.1307L284.84082,105.61075L284.84082,106.57085L
				285.08079,107.0509L285.32076,107.29092L286.52059,107.77097L287.24049,108.01099L287.48046,108.25102L288.20036,108.73107L288.44033,108.97109
				L288.92026,108.97109L290.1201,108.97109L291.31993,108.73107L292.75973,108.97109L293.47964,108.97109L293.95957,108.73107L
				294.67947,108.25102L295.1594,108.01099L296.11927,108.25102L296.35924,108.49104L297.55907,109.69116L297.79904,109.93119L298.99888,109.45114
				L299.47881,109.45114L299.95874,108.97109L300.43868,108.49104L300.67865,108.01099L300.91861,107.53095L300.67865,106.57085
				L300.19871,105.61075L300.19871,105.1307L300.67865,104.65065L301.15858,104.41063L301.87848,104.1706L302.83835,104.65065L303.07832,104.65065
				L303.55825,104.41063L304.03818,103.93058L304.27815,103.69055L304.75808,102.49043L305.23802,101.05029L305.23802,100.81026
				L305.95792,100.09019L306.91779,99.61014L307.87766,99.37011L309.07749,99.85016L309.55742,99.85016L310.99723,99.37011L311.95709,99.13009
				L312.43703,98.65004L312.677,97.44992L312.91696,96.72985L313.63686,96.00977L314.35676,95.76975L314.8367,95.76975L315.5566,95.76975
				L316.2765,96.00977L316.51647,96.48982L317.23637,97.68994L318.19624,98.16999L318.4362,97.92997L318.91614,97.20989L319.39607,96.72985
				L320.11597,96.2498L320.59591,95.76975z"/>
			<path clip-path="url(#SVG_CP_1)" fill="#73B273" fill-rule="evenodd" stroke="#343434" stroke-width="0.95987" stroke-miterlimit="10" stroke-linecap="round" stroke-linejoin="round" d="
				M351.79162,309.39149L351.55165,309.63151L350.35181,310.59161L348.91201,311.79173L347.95214,312.99186L346.75231,314.432L346.27237,314.91205
				L343.63274,315.63213L343.1528,315.87215L342.19294,316.59222L341.47303,317.79235L341.47303,318.51242L341.713,320.19259L342.19294,321.15269
				L342.4329,321.87276L342.4329,322.35281L342.19294,322.59283L341.713,323.07288L340.2732,323.55293L337.87353,324.51303L335.95379,326.1932
				L334.99393,327.1533L334.03406,329.07349L334.03406,330.03359L333.55412,330.75366L333.07419,330.99369L331.63439,331.47374L
				331.39442,331.71376L330.19459,332.19381L328.51482,332.43384L327.55495,333.15391L325.63521,333.63396L325.15528,333.87398L
				324.19541,333.87398L323.47551,333.87398L322.75561,334.11401L322.03571,334.59406L321.31581,335.0741L319.63604,335.79418L319.1561,336.0342
				L318.4362,336.51425L318.4362,337.9544L317.95627,338.67447L317.7163,339.15452L317.47633,339.87459L317.47633,340.35464L318.19624,341.07472
				L318.19624,341.55476L318.4362,342.27484L318.4362,342.99491L318.19624,343.95501L317.23637,344.67508L316.9964,344.91511L316.9964,345.63518
				L316.9964,347.31535L317.23637,347.7954L316.9964,348.99552L316.9964,349.95562L317.47633,350.43567L318.19624,350.91572L318.4362,351.39577
				L318.19624,353.79601L318.67617,355.23616L318.91614,357.39638L318.67617,358.5965L317.7163,359.07655L316.03653,359.79662L315.79657,359.79662
				L312.677,360.75672L309.79739,361.47679L309.07749,361.71682L308.59756,361.95684L307.63769,362.67691L305.95792,364.59711L304.99805,365.31718
				L303.31828,365.31718L301.63851,365.79723L301.15858,366.03726L299.23884,367.23738L298.75891,367.95745L298.03901,368.67752
				L297.55907,369.15757L297.07914,370.11767L296.11927,370.83774L294.91944,373.23799L293.95957,374.19809L292.2798,376.59833L
				291.07997,377.79845L291.07997,378.03848L289.64016,378.99858L288.44033,380.91877L287.96039,381.39882L286.52059,383.55904L
				285.32076,385.23921L285.08079,385.95928L284.36089,386.67936L283.88096,387.63945L283.40102,389.0796L282.92109,389.55965L282.68112,390.0397
				L281.96122,391.23982L281.48129,392.19992L281.24132,392.91999L279.08162,395.56026L277.88178,397.96051L276.68195,399.16063
				L275.72208,400.12073L274.76221,400.8408L272.36254,399.40065L269.24297,397.96051L268.76303,397.72048L268.2831,396.76038L267.80317,395.32024
				L267.5632,392.19992L268.2831,389.31963L268.52307,388.59955L268.52307,388.1195L269.24297,386.43933L269.48294,386.19931L269.96287,385.95928
				L270.20284,385.71926L270.68277,385.47923L271.64264,385.47923L273.56237,385.95928L274.04231,385.95928L274.52224,385.71926
				L274.76221,385.23921L274.76221,384.75916L273.56237,382.35892L272.84247,380.91877L272.36254,379.95867L272.36254,378.99858
				L273.32241,377.55843L273.80234,376.35831L273.80234,376.11828L273.08244,374.91816L272.84247,373.71804L273.56237,373.23799
				L273.80234,372.75794L274.04231,372.27789L274.52224,371.31779L275.48211,370.11767L275.96204,369.87765L277.64181,369.15757
				L278.36171,368.67752L279.56155,367.71743L280.76138,366.5173L281.24132,366.27728L282.44115,366.27728L282.92109,366.03726L
				283.16105,365.55721L283.64099,364.83713L284.84082,363.15696L285.08079,362.43689L285.08079,361.23677L285.08079,359.79662L
				284.84082,358.5965L284.84082,357.39638L285.08079,355.71621L285.32076,354.75611L285.32076,353.31596L285.56072,351.87581L285.56072,350.91572
				L285.32076,349.95562L285.08079,349.71559L283.88096,349.71559L283.64099,349.23555L283.64099,348.99552L283.88096,348.51547
				L284.12092,348.03542L284.36089,347.7954L285.08079,347.07533L285.56072,346.11523L286.28063,344.91511L286.28063,344.19503L
				286.04066,343.71498L285.56072,343.47496L284.36089,342.99491L283.40102,342.51486L282.92109,341.79479L282.44115,341.07472L
				282.20119,340.35464L282.20119,339.63457L282.44115,339.15452L282.92109,338.67447L283.64099,337.9544L284.84082,336.9943L285.56072,336.0342
				L286.28063,334.59406L287.48046,333.15391L287.96039,332.67386L289.16023,331.95379L290.60003,331.23371L291.07997,330.51364
				L291.31993,329.79357L290.60003,329.79357L289.16023,329.55354L287.96039,329.55354L286.28063,329.31352L284.60086,329.07349
				L283.40102,329.07349L281.96122,329.07349L280.76138,329.31352L280.28145,329.31352L277.88178,329.79357L275.00218,330.51364
				L273.80234,330.75366L270.92274,330.75366L270.20284,330.51364L268.04313,331.23371L267.08327,331.47374L266.1234,331.71376L
				265.16353,331.71376L264.6836,331.23371L265.4035,330.99369L267.32323,330.27362L268.76303,329.79357L269.24297,329.07349L269.48294,328.83347
				L269.7229,328.1134L269.7229,326.91327L268.04313,323.55293L267.80317,320.91266L267.80317,320.19259L267.5632,318.51242L266.36337,315.3921
				L266.1234,314.91205L265.64346,314.19198L265.16353,313.71193L264.6836,312.51181L264.44363,311.55171L264.6836,309.39149L264.6836,308.67142
				L264.92356,307.4713L265.16353,307.4713L265.88343,305.5511L266.1234,304.83103L266.60333,304.11095L267.32323,303.6309L268.04313,303.39088
				L269.003,303.39088L271.40267,304.11095L271.88261,304.11095L272.84247,304.35098L274.28228,304.35098L276.44198,303.39088L281.72125,302.19076
				L284.12092,301.23066L284.84082,300.99064L287.48046,300.27056L289.64016,299.31046L290.36006,299.07044L295.63934,297.15024
				L296.11927,296.91022L296.35924,296.6702L296.59921,296.6702L299.47881,295.95012L300.67865,295.95012L301.87848,295.95012L304.51812,296.6702
				L305.95792,297.15024L307.87766,297.87032L308.83752,298.11034L309.31746,298.35037L309.55742,298.59039L310.03736,299.31046
				L310.27733,299.79051L310.99723,300.75061L313.15693,302.19076L314.8367,302.91083L315.79657,303.15086L316.03653,303.6309L316.9964,303.87093
				L318.4362,303.87093L319.39607,304.11095L320.11597,304.35098L320.83587,304.591L322.03571,304.591L323.47551,304.83103L324.19541,305.07105
				L326.11515,305.07105L328.03488,304.591L329.71465,303.87093L331.15445,303.39088L332.59426,303.39088L334.99393,304.11095L337.3936,304.35098
				L339.79327,304.35098L340.75313,304.11095L342.91284,303.87093L343.1528,304.11095L344.59261,304.35098L345.55247,304.83103L
				347.47221,306.27117L348.43208,307.23127L350.59178,308.43139L351.31168,308.91144L351.79162,309.39149z"/>
			<path clip-path="url(#SVG_CP_1)" fill="#73B273" fill-rule="evenodd" stroke="#343434" stroke-width="0.95987" stroke-miterlimit="10" stroke-linecap="round" stroke-linejoin="round" d="
				M298.03901,287.06922L298.03901,287.78929L298.03901,288.74939L297.79904,289.94951L297.55907,290.66959L297.55907,291.14963
				L297.07914,293.54988L296.83917,294.75L296.35924,296.43017L296.35924,296.6702L296.11927,296.91022L295.63934,297.15024L290.36006,299.07044
				L289.64016,299.31046L287.48046,300.27056L284.84082,300.99064L284.12092,301.23066L281.72125,302.19076L276.44198,303.39088
				L274.28228,304.35098L272.84247,304.35098L271.88261,304.11095L271.40267,304.11095L269.003,303.39088L268.04313,303.39088L267.32323,303.6309
				L266.60333,304.11095L266.1234,304.83103L265.88343,305.5511L265.16353,307.4713L264.92356,307.4713L264.6836,308.67142L264.6836,309.39149
				L264.44363,311.55171L264.6836,312.51181L265.16353,313.71193L265.64346,314.19198L264.92356,314.432L263.72373,314.91205L263.00383,314.91205
				L262.28393,314.432L261.32406,313.23188L260.36419,312.51181L259.88426,311.79173L258.92439,311.07166L257.96452,309.39149L256.76469,308.43139
				L255.80482,306.75122L255.08492,305.5511L254.60498,304.83103L253.64511,304.35098L253.16518,303.15086L252.92521,301.95073L
				252.92521,301.71071L252.92521,301.23066L251.96535,299.07044L251.96535,298.83042L251.48541,297.63029L251.24544,296.43017L
				250.04561,292.8298L249.32571,290.42956L248.84577,289.22944L248.60581,288.50937L247.88591,287.54927L246.68607,286.58917L245.24627,284.909
				L244.2864,284.42895L243.32653,284.18893L241.88673,283.9489L241.4068,283.46885L240.44693,282.9888L239.24709,282.74878L238.76716,282.74878
				L236.12752,282.50875L235.64759,282.26873L234.44775,281.78868L233.48789,281.78868L233.24792,281.78868L230.60828,281.06861
				L227.96865,281.06861L227.00878,280.82858L225.56898,279.86849L223.88921,279.62846L222.20944,279.38844L222.20944,278.90839
				L222.20944,278.18831L221.96947,277.22822L221.48954,276.50814L221.7295,276.02809L221.96947,275.78807L222.4494,275.54805L222.92934,275.068
				L222.92934,274.58795L222.4494,272.42773L222.20944,271.70766L221.96947,271.70766L221.7295,271.46763L220.52967,270.98758L219.5698,270.74756
				L219.08987,270.02748L218.60993,269.06739L218.60993,268.58734L218.8499,268.10729L219.5698,267.62724L220.76964,267.62724L221.7295,267.62724
				L222.68937,267.38722L223.16931,267.14719L223.40927,267.14719L224.60911,266.18709L225.08904,265.70704L225.56898,265.70704
				L226.28888,265.46702L227.72868,265.94707L228.20861,266.42712L228.92851,266.66714L229.16848,266.90717L229.88838,266.66714
				L231.08822,265.94707L231.32818,265.94707L231.80812,266.18709L232.52802,266.66714L233.72785,266.66714L235.16766,266.90717
				L235.40762,267.14719L236.12752,267.86726L236.60746,267.62724L236.84742,267.38722L237.56733,266.66714L238.04726,266.66714
				L238.28723,266.66714L239.00713,267.86726L239.48706,269.06739L239.72703,269.30741L240.20696,269.78746L240.92686,269.54744
				L241.64676,269.06739L242.1267,269.06739L243.80647,268.34731L244.2864,268.34731L245.48624,268.34731L246.68607,268.34731L247.88591,268.10729
				L248.84577,266.90717L249.80564,265.46702L250.28558,264.74695L250.76551,263.78685L251.96535,262.3467L252.44528,261.86665L
				254.12505,260.66653L254.60498,260.42651L255.32488,261.3866L255.80482,261.62663L256.28475,261.62663L258.20449,261.62663L258.68442,261.62663
				L259.16436,261.62663L259.88426,262.10668L261.08409,263.3068L261.80399,263.78685L262.52389,264.50692L263.48376,265.227L264.20366,265.70704
				L265.64346,265.94707L266.36337,266.18709L267.08327,265.94707L268.04313,264.98697L268.2831,264.02687L268.76303,262.3467L269.24297,261.62663
				L269.7229,261.3866L269.96287,261.3866L270.92274,261.62663L271.88261,261.14658L272.36254,260.90656L272.84247,260.42651L273.32241,260.42651
				L273.56237,260.42651L274.28228,260.66653L276.20201,261.86665L277.40185,262.58673L278.60168,263.06678L279.32158,263.3068L
				280.28145,263.78685L280.76138,264.02687L281.24132,265.46702L281.48129,267.14719L281.72125,268.82736L281.96122,270.98758L
				282.20119,271.70766L282.20119,272.1877L282.44115,273.86787L282.68112,274.58795L282.92109,274.82797L283.16105,274.82797L283.64099,274.82797
				L284.84082,274.58795L285.56072,274.34792L286.76056,274.1079L287.72043,273.86787L288.20036,273.86787L288.6803,274.1079L289.16023,274.34792
				L290.36006,275.78807L292.51977,277.94829L293.47964,279.14841L293.95957,280.10851L294.4395,281.30863L295.87931,283.46885L
				296.35924,284.42895L297.55907,286.34915L298.03901,287.30924L298.03901,287.06922z"/>
		</g>
		<g id="Labels">
			<g id="NEPAL_WARDS_-_Default">
				<g font-family="'Arial'" font-size="1" kerning="0" font-weight="400" fill="#000000" clip-path="url(#SVG_CP_1)" >
					<text text-anchor="start" transform="matrix(11.99835 0 0 12.00122 309.67741 206.038)" >
						<tspan direction="ltr" unicode-bidi="embed" x="0 ">8</tspan>
					</text>
				</g>
				<g font-family="'Arial'" font-size="1" kerning="0" font-weight="400" fill="#000000" clip-path="url(#SVG_CP_1)" >
					<text text-anchor="start" transform="matrix(11.99835 0 0 12.00122 295.75932 138.83116)" >
						<tspan direction="ltr" unicode-bidi="embed" x="0 ">1</tspan>
					</text>
				</g>
				<g font-family="'Arial'" font-size="1" kerning="0" font-weight="400" fill="#000000" clip-path="url(#SVG_CP_1)" >
					<text text-anchor="start" transform="matrix(11.99835 0 0 12.00122 281.60127 91.0663)" >
						<tspan direction="ltr" unicode-bidi="embed" x="0 ">2</tspan>
					</text>
				</g>
				<g font-family="'Arial'" font-size="1" kerning="0" font-weight="400" fill="#000000" clip-path="url(#SVG_CP_1)" >
					<text text-anchor="start" transform="matrix(11.99835 0 0 12.00122 358.27072 276.60518)" >
						<tspan direction="ltr" unicode-bidi="embed" x="0 ">1</tspan>
						<tspan direction="ltr" unicode-bidi="embed" x="0.48012 ">1</tspan>
					</text>
				</g>
				<g font-family="'Arial'" font-size="1" kerning="0" font-weight="400" fill="#000000" clip-path="url(#SVG_CP_1)" >
					<text text-anchor="start" transform="matrix(11.99835 0 0 12.00122 299.35883 258.84338)" >
						<tspan direction="ltr" unicode-bidi="embed" x="0 ">9</tspan>
					</text>
				</g>
				<g font-family="'Arial'" font-size="1" kerning="0" font-weight="400" fill="#000000" clip-path="url(#SVG_CP_1)" >
					<text text-anchor="start" transform="matrix(11.99835 0 0 12.00122 242.24668 176.03495)" >
						<tspan direction="ltr" unicode-bidi="embed" x="0 ">3</tspan>
					</text>
				</g>
				<g font-family="'Arial'" font-size="1" kerning="0" font-weight="400" fill="#000000" clip-path="url(#SVG_CP_1)" >
					<text text-anchor="start" transform="matrix(11.99835 0 0 12.00122 297.67906 337.81141)" >
						<tspan direction="ltr" unicode-bidi="embed" x="0 ">1</tspan>
						<tspan direction="ltr" unicode-bidi="embed" x="0.54013 ">2</tspan>
					</text>
				</g>
				<g font-family="'Arial'" font-size="1" kerning="0" font-weight="400" fill="#000000" clip-path="url(#SVG_CP_1)" >
					<text text-anchor="start" transform="matrix(11.99835 0 0 12.00122 264.08368 229.5604)" >
						<tspan direction="ltr" unicode-bidi="embed" x="0 ">7</tspan>
					</text>
				</g>
				<g font-family="'Arial'" font-size="1" kerning="0" font-weight="400" fill="#000000" clip-path="url(#SVG_CP_1)" >
					<text text-anchor="start" transform="matrix(11.99835 0 0 12.00122 217.53008 205.0779)" >
						<tspan direction="ltr" unicode-bidi="embed" x="0 ">4</tspan>
					</text>
				</g>
				<g font-family="'Arial'" font-size="1" kerning="0" font-weight="400" fill="#000000" clip-path="url(#SVG_CP_1)" >
					<text text-anchor="start" transform="matrix(11.99835 0 0 12.00122 263.36378 287.16626)" >
						<tspan direction="ltr" unicode-bidi="embed" x="0 ">1</tspan>
						<tspan direction="ltr" unicode-bidi="embed" x="0.54013 ">0</tspan>
					</text>
				</g>
				<g font-family="'Arial'" font-size="1" kerning="0" font-weight="400" fill="#000000" clip-path="url(#SVG_CP_1)" >
					<text text-anchor="start" transform="matrix(11.99835 0 0 12.00122 233.12794 224.27986)" >
						<tspan direction="ltr" unicode-bidi="embed" x="0 ">6</tspan>
					</text>
				</g>
				<g font-family="'Arial'" font-size="1" kerning="0" font-weight="400" fill="#000000" clip-path="url(#SVG_CP_1)" >
					<text text-anchor="start" transform="matrix(11.99835 0 0 12.00122 202.17219 228.6003)" >
						<tspan direction="ltr" unicode-bidi="embed" x="0 ">5</tspan>
					</text>
				</g>
			</g>
		</g>
	</g>
</svg>
