<?xml version="1.0" encoding="utf-8" standalone="no"?>
<!-- Creator: Esri ArcMap 10.6.1.9270 -->
<!DOCTYPE svg PUBLIC "-//W3C//DTD SVG 1.1//EN"  "http://www.w3.org/Graphics/SVG/1.1/DTD/svg11.dtd">
<svg width="813.74173pt" height="434.23937pt" viewBox="0 0 813.74173 434.23937" enable-background="new 0 0 813.74173 434.23937"
	version="1.1" xmlns="http://www.w3.org/2000/svg" xmlns:xlink="http://www.w3.org/1999/xlink" >
	<g id="Layers">
		<g id="NEPAL_WARDS">
			<clipPath id="SVG_CP_1">
				<path d="M0,434.23937L0,0L813.74173,0L813.74173,434.23937L0,434.23937z"/>
			</clipPath>
			<path clip-path="url(#SVG_CP_1)" fill="#73B273" fill-rule="evenodd" stroke="#000000" stroke-width="0.95986" stroke-miterlimit="10" stroke-linecap="round" stroke-linejoin="round" d="
				M376.98355,347.55537L376.74358,347.31535L376.02369,345.8752L375.3038,345.15513L372.90416,345.39516L371.9443,345.39516L370.98444,345.63518
				L369.06473,345.63518L368.5848,345.63518L367.62495,345.63518L367.38498,345.63518L367.14502,345.63518L361.62585,345.63518L
				360.18606,345.15513L359.9461,345.15513L358.98624,345.15513L358.50631,344.91511L357.30649,344.67508L356.82656,344.67508L354.90685,344.43506
				L354.42692,344.19503L353.70703,344.43506L352.98714,344.43506L352.26725,344.43506L351.54735,344.43506L351.30739,344.43506
				L350.5875,344.19503L350.34753,344.19503L349.38768,343.23494L348.90775,342.03481L348.66779,342.03481L348.42782,341.55476L
				347.46797,341.55476L346.74807,341.79479L346.02818,342.51486L345.06832,342.99491L344.34843,343.23494L342.90865,342.75489L
				341.2289,342.99491L340.26904,342.51486L339.78912,342.51486L338.82926,342.75489L338.34933,342.51486L337.62944,342.03481L337.38947,341.79479
				L336.90955,341.79479L336.66958,341.79479L335.46976,341.79479L334.74987,342.03481L334.26994,342.03481L332.35023,341.55476
				L331.8703,341.79479L331.63034,341.79479L331.15041,341.79479L330.91044,341.07472L330.43052,339.87459L330.19055,339.39454L
				329.95059,338.9145L328.99073,338.19442L326.83106,337.23432L326.35113,336.75428L325.8712,336.51425L325.39127,335.79418L325.15131,335.31413
				L325.15131,334.83408L325.39127,333.63396L326.11116,331.71376L326.59109,330.27362L326.35113,330.27362L326.35113,329.79357
				L326.35113,328.83347L325.8712,327.39332L325.39127,326.67325L324.91134,326.43323L324.19145,326.67325L323.95149,326.67325L
				323.23159,326.43323L322.03177,326.43323L321.79181,326.1932L321.31188,325.47313L322.75167,323.07288L322.75167,322.59283L322.75167,322.35281
				L322.03177,321.39271L322.03177,321.15269L320.83195,319.71254L320.11206,318.27239L319.63213,317.79235L318.43231,317.07227
				L317.95239,316.3522L317.95239,315.63213L318.19235,314.91205L317.71242,314.432L316.03267,313.71193L313.873,312.99186L313.39307,312.99186
				L312.43321,313.47191L311.95328,313.47191L311.71332,312.99186L311.71332,312.51181L312.19325,311.07166L312.67318,309.87154
				L312.43321,308.43139L313.1531,307.4713L313.1531,306.75122L313.1531,306.27117L312.91314,305.5511L311.71332,304.35098L310.03357,303.15086
				L308.83375,301.95073L306.19415,300.51059L305.71422,300.27056L302.83465,299.31046L300.91494,298.83042L300.43501,298.83042
				L300.19504,298.83042L300.19504,298.59039L299.71512,297.87032L299.23519,297.39027L298.99522,296.43017L298.5153,295.23005L
				297.31548,294.26995L295.39576,293.06983L293.95598,291.62968L293.23609,290.90961L292.51619,290.18954L292.27623,289.70949L
				291.31637,287.54927L290.59648,285.62907L290.59648,285.38905L289.87659,284.42895L289.39666,282.50875L289.1567,282.26873L287.95688,280.82858
				L287.47695,279.62846L287.23699,278.90839L286.51709,277.94829L285.7972,276.50814L285.55724,275.54805L285.55724,275.30802L
				285.31727,275.068L284.59738,272.1877L284.11745,271.46763L283.87749,270.98758L283.1576,270.02748L282.19774,268.58734L280.51799,264.98697
				L279.7981,264.50692L278.11835,264.2669L277.63842,263.78685L276.91853,261.62663L276.67857,260.66653L276.4386,260.18648L274.99882,259.46641
				L273.799,257.54621L272.59918,256.82614L271.15939,256.58612L268.03986,256.34609L266.84004,255.62602L265.88018,255.62602L265.40026,256.10607
				L264.20044,256.10607L263.00061,255.62602L262.28072,254.66592L263.00061,254.4259L263.24058,253.94585L263.48054,253.22577L
				263.96047,252.5057L264.20044,252.02565L264.92033,251.5456L265.40026,251.06555L266.12015,250.58551L267.31997,249.86543L268.27982,249.38538
				L269.23968,248.66531L270.19954,248.42529L270.91943,248.42529L271.63932,248.90533L271.87929,248.90533L272.35921,248.90533
				L272.83914,248.90533L273.31907,248.18526L274.75885,247.22516L276.19864,246.74511L278.11835,245.78502L279.7981,245.06494L
				280.99792,244.82492L281.95778,244.34487L282.91763,244.34487L283.63752,244.82492L284.59738,244.82492L285.07731,245.06494L
				285.7972,245.30497L286.51709,245.06494L286.99702,244.58489L287.47695,243.6248L287.95688,242.90472L288.67677,242.42467L289.63663,241.7046
				L290.83645,241.46458L291.7963,241.22455L292.99612,240.98453L294.19594,240.98453L294.43591,241.22455L295.39576,240.7445L297.07551,240.7445
				L298.27533,241.22455L298.99522,240.98453L299.47515,240.50448L300.43501,238.34426L301.63483,236.42406L302.11476,235.70399
				L303.79451,235.46397L304.5144,235.46397L304.75436,235.46397L305.47425,236.18404L306.91404,237.38416L308.35382,237.86421L
				310.99343,240.26445L313.1531,242.18465L314.35292,244.82492L314.59289,247.22516L313.873,249.38538L312.67318,252.5057L310.27354,253.94585
				L310.03357,255.86604L310.5135,258.26629L310.03357,260.42651L310.03357,264.98697L310.27354,265.227L310.99343,266.18709L312.67318,266.90717
				L314.83285,267.62724L316.99253,267.38722L318.43231,268.10729L319.8721,268.10729L321.79181,269.06739L324.19145,270.98758L
				326.35113,272.42773L329.2307,274.1079L330.67048,275.068L332.11027,275.068L334.26994,274.82797L335.70973,274.34792L337.8694,273.1478
				L339.54915,271.70766L340.50901,270.26751L341.46886,268.58734L342.42872,266.90717L343.62854,266.18709L345.06832,265.70704
				L346.26814,265.46702L346.26814,265.94707L347.228,267.62724L348.42782,270.26751L350.34753,273.38783L351.54735,276.02809L352.26725,277.22822
				L351.78732,277.70827L351.78732,279.62846L351.06743,283.46885L349.86761,285.62907L348.90775,288.50937L348.90775,290.90961
				L349.38768,294.26995L349.86761,296.19015L350.34753,297.39027L351.30739,299.07044L352.02728,300.75061L352.50721,301.71071
				L352.50721,303.39088L352.26725,304.83103L352.02728,306.5112L351.54735,308.67142L350.82746,310.11156L350.34753,311.07166L
				350.34753,312.27178L351.30739,314.19198L352.02728,314.91205L352.74717,316.83225L353.2271,319.23249L353.46707,319.95257L353.70703,322.35281
				L353.46707,324.03298L352.74717,325.47313L352.26725,326.91327L352.26725,328.35342L354.42692,328.83347L356.82656,328.35342
				L357.54646,328.59344L359.2262,329.79357L361.62585,329.79357L364.02549,329.79357L364.74538,329.79357L365.9452,330.03359L366.90505,331.23371
				L367.86491,333.15391L367.86491,334.35403L368.5848,337.47435L369.3047,338.19442L369.54466,338.9145L369.78462,340.11462L370.74448,341.55476
				L372.42423,342.75489L374.82387,343.23494L375.3038,343.71498L376.26365,344.67508L376.50362,344.91511L376.74358,346.35525L
				376.98355,347.55537L376.98355,347.55537z"/>
			<path clip-path="url(#SVG_CP_1)" fill="#73B273" fill-rule="evenodd" stroke="#000000" stroke-width="0.95986" stroke-miterlimit="10" stroke-linecap="round" stroke-linejoin="round" d="
				M292.99612,235.22394L292.27623,236.90411L293.23609,239.06433L293.47605,240.7445L294.19594,240.98453L292.99612,240.98453L
				291.7963,241.22455L290.83645,241.46458L289.63663,241.7046L288.67677,242.42467L287.95688,242.90472L287.47695,243.6248L286.99702,244.58489
				L286.51709,245.06494L285.7972,245.30497L285.07731,245.06494L284.59738,244.82492L283.63752,244.82492L282.91763,244.34487L
				281.95778,244.34487L280.99792,244.82492L279.7981,245.06494L278.11835,245.78502L276.19864,246.74511L274.75885,247.22516L273.31907,248.18526
				L272.83914,248.90533L272.35921,248.90533L271.87929,248.90533L271.63932,248.90533L270.91943,248.42529L270.19954,248.42529
				L269.23968,248.66531L268.27982,249.38538L267.31997,249.86543L266.12015,250.58551L265.40026,251.06555L264.92033,251.5456L
				264.20044,252.02565L263.96047,252.5057L263.48054,253.22577L263.24058,253.94585L263.00061,254.4259L262.28072,254.66592L261.32087,254.66592
				L259.88108,255.14597L258.68126,256.34609L257.96137,255.38599L257.72141,254.66592L257.00151,253.4658L256.04166,252.26568L
				255.56173,252.02565L255.32176,251.78563L255.0818,251.5456L254.60187,250.58551L254.12194,249.86543L254.12194,248.90533L253.16209,248.42529
				L252.92212,247.94524L251.96227,245.78502L251.24238,244.82492L250.76245,244.10485L250.28252,241.7046L249.80259,241.22455L
				249.80259,240.98453L249.32266,240.50448L249.0827,239.78441L248.84273,239.30436L248.60277,238.82431L248.60277,237.86421L248.36281,237.38416
				L248.36281,237.14414L247.40295,236.42406L246.44309,235.46397L245.48324,234.26384L244.04345,232.8237L242.36371,228.26323L
				242.12374,227.54316L242.60367,224.90289L242.36371,223.46274L242.84363,221.30252L242.84363,218.42223L242.84363,217.94218L
				244.28342,216.02199L245.24327,214.58184L246.20313,213.86177L247.64291,213.14169L247.88288,213.14169L249.32266,211.70155L
				250.76245,210.50143L251.24238,210.2614L253.16209,208.58123L254.36191,206.66103L256.28162,204.98086L257.24148,204.02077L257.72141,203.78074
				L260.12105,202.82064L262.04076,201.86055L263.00061,202.10057L263.48054,202.58062L265.16029,204.02077L266.60008,203.30069
				L267.7999,202.10057L268.75975,202.10057L269.23968,202.82064L270.91943,205.22089L271.63932,205.70094L276.91853,207.38111L
				278.83824,209.3013L279.07821,209.3013L279.07821,209.54133L281.71781,212.42162L283.87749,213.86177L284.83734,214.82187L284.35742,219.38233
				L283.87749,222.0226L284.59738,223.70277L286.03716,224.66287L286.51709,225.62296L285.7972,228.26323L285.55724,229.46336L285.55724,229.70338
				L287.47695,230.18343L288.67677,231.14353L289.39666,231.62358L290.59648,232.58367L291.7963,232.8237L292.27623,233.30375L292.27623,234.02382
				L292.99612,235.22394z"/>
			<path clip-path="url(#SVG_CP_1)" fill="#73B273" fill-rule="evenodd" stroke="#000000" stroke-width="0.95986" stroke-miterlimit="10" stroke-linecap="round" stroke-linejoin="round" d="
				M521.44191,286.82919L523.84155,289.94951L524.08152,289.94951L524.80141,290.66959L526.48116,291.38966L526.48116,291.86971
				L524.56144,294.75L523.12166,298.35037L521.44191,301.47068L520.24209,304.591L520.00213,306.5112L518.56234,308.43139L517.60249,310.35159
				L516.88259,312.51181L517.12256,313.71193L516.40267,315.87215L515.92274,318.27239L515.68277,319.95257L515.44281,321.15269
				L514.96288,322.11279L514.72292,323.07288L514.24299,325.47313L513.04317,328.35342L511.60339,329.55354L511.36342,330.75366
				L508.96378,331.47374L506.8041,332.67386L504.64443,332.91388L502.72471,333.63396L500.805,334.83408L498.88529,335.31413L497.68547,335.31413
				L495.76576,333.39393L494.32597,332.67386L492.88619,332.43384L491.20644,332.91388L488.8068,334.35403L486.40716,336.9943L485.92723,337.23432
				L483.76755,337.47435L482.08781,338.67447L479.4482,341.55476L478.48834,342.27484L475.60878,342.75489L474.40896,343.95501L
				473.20913,344.67508L472.00931,345.15513L470.80949,345.15513L469.36971,345.15513L468.40985,344.43506L467.21003,343.71498L
				465.05036,342.75489L463.13064,342.75489L461.21093,342.51486L460.49104,342.99491L459.29122,343.95501L458.33136,344.91511L
				455.93172,345.8752L454.01201,346.59528L453.29212,347.31535L451.37241,348.51547L450.17258,348.27545L449.45269,347.7954L447.77294,347.31535
				L447.53298,347.31535L445.13334,346.8353L439.85413,346.11523L436.7346,346.59528L435.53478,346.11523L432.89517,343.71498L431.21542,341.31474
				L430.0156,340.35464L427.13603,339.87459L425.21632,339.87459L424.49643,340.35464L423.05665,342.51486L421.3769,342.27484L419.45718,342.99491
				L418.49733,343.23494L417.05754,343.47496L416.09769,344.19503L414.6579,344.67508L411.29841,345.39516L409.61866,345.63518L
				408.41884,346.59528L407.45898,346.35525L406.25916,345.8752L405.2993,346.11523L404.57941,347.31535L403.61956,349.23555L401.69984,349.47557
				L396.6606,349.23555L394.26096,349.23555L393.06114,349.47557L392.58121,350.19564L391.14142,349.95562L389.70164,350.91572L
				389.22171,350.91572L388.74178,350.67569L387.54196,349.47557L385.86222,350.67569L384.90236,350.67569L382.50272,349.95562L
				379.14322,348.7555L377.46347,348.03542L376.98355,347.55537L376.74358,346.35525L376.50362,344.91511L376.26365,344.67508L375.3038,343.71498
				L374.82387,343.23494L372.42423,342.75489L370.74448,341.55476L369.78462,340.11462L369.54466,338.9145L369.3047,338.19442L368.5848,337.47435
				L367.86491,334.35403L367.86491,333.15391L366.90505,331.23371L365.9452,330.03359L364.74538,329.79357L364.02549,329.79357L
				361.62585,329.79357L359.2262,329.79357L357.54646,328.59344L356.82656,328.35342L354.42692,328.83347L352.26725,328.35342L352.26725,326.91327
				L352.74717,325.47313L353.46707,324.03298L353.70703,322.35281L353.46707,319.95257L353.2271,319.23249L352.74717,316.83225L
				352.02728,314.91205L351.30739,314.19198L350.34753,312.27178L350.34753,311.07166L350.82746,310.11156L351.54735,308.67142L
				352.02728,306.5112L352.26725,304.83103L352.50721,303.39088L352.50721,301.71071L352.02728,300.75061L351.30739,299.07044L350.34753,297.39027
				L349.86761,296.19015L349.38768,294.26995L348.90775,290.90961L348.90775,288.50937L349.86761,285.62907L351.06743,283.46885
				L351.78732,279.62846L351.78732,277.70827L352.26725,277.22822L351.54735,276.02809L350.34753,273.38783L348.42782,270.26751
				L347.228,267.62724L346.26814,265.94707L346.26814,265.46702L345.06832,265.70704L343.62854,266.18709L342.42872,266.90717L341.46886,268.58734
				L340.50901,270.26751L339.54915,271.70766L337.8694,273.1478L335.70973,274.34792L334.26994,274.82797L332.11027,275.068L330.67048,275.068
				L329.2307,274.1079L326.35113,272.42773L324.19145,270.98758L321.79181,269.06739L319.8721,268.10729L318.43231,268.10729L316.99253,267.38722
				L314.83285,267.62724L312.67318,266.90717L310.99343,266.18709L310.27354,265.227L310.03357,264.98697L310.03357,260.42651L310.5135,258.26629
				L310.03357,255.86604L310.27354,253.94585L312.67318,252.5057L313.873,249.38538L314.59289,247.22516L314.35292,244.82492L313.1531,242.18465
				L310.99343,240.26445L308.35382,237.86421L306.91404,237.38416L305.47425,236.18404L304.75436,235.46397L305.47425,234.74389
				L306.43411,233.7838L306.67407,232.34365L306.43411,231.62358L306.67407,231.14353L307.154,229.70338L307.39397,228.50326L307.154,227.30314
				L307.154,226.34304L307.154,224.90289L307.63393,222.50265L307.63393,222.0226L307.87389,221.30252L308.59379,219.62235L308.83375,218.90228
				L309.07372,218.42223L309.07372,218.18221L309.07372,216.74206L309.79361,215.54194L310.27354,215.30191L310.75346,215.06189
				L312.91314,215.78196L313.39307,216.02199L316.27264,215.54194L317.23249,215.54194L318.19235,216.02199L318.91224,218.42223
				L319.63213,219.62235L320.11206,219.62235L321.55185,218.90228L322.27174,218.42223L323.95149,218.66226L324.67138,218.42223
				L325.15131,218.18221L325.8712,217.46213L325.8712,216.74206L326.59109,214.82187L328.03088,214.34182L329.95059,212.90167L331.39037,211.70155
				L331.39037,210.2614L332.59019,208.58123L333.55005,207.62113L334.02998,207.14108L335.2298,206.66103L336.42962,205.46091L338.10937,203.78074
				L338.82926,203.78074L339.78912,203.06067L340.02908,202.58062L341.2289,201.3805L343.62854,199.94035L346.50811,199.70033L347.94789,199.70033
				L348.90775,199.22028L350.10757,197.78013L351.06743,195.13986L351.30739,195.13986L352.02728,195.13986L354.18696,193.93974
				L354.90685,193.69972L356.5866,194.41979L357.30649,194.89984L358.98624,197.06006L360.66599,197.54011L361.86581,198.5002L361.86581,198.74023
				L362.5857,200.18037L363.06563,201.14047L364.02549,201.3805L364.26545,201.3805L365.22531,201.62052L365.9452,201.86055L366.42513,202.10057
				L367.14502,202.58062L368.34484,202.82064L370.50452,203.78074L372.18426,204.26079L372.42423,204.50081L372.66419,205.46091
				L372.90416,205.70094L373.62405,206.42101L374.82387,207.38111L375.06383,207.38111L376.02369,208.34121L376.26365,208.58123
				L376.50362,209.3013L377.22351,209.54133L379.86311,209.54133L380.34304,209.78135L380.82297,210.2614L381.06293,210.2614L382.26275,210.2614
				L382.98265,210.2614L384.6624,211.2215L385.86222,212.42162L387.06204,214.34182L388.02189,214.58184L388.74178,214.58184L388.98175,214.58184
				L389.46168,214.34182L390.18157,214.34182L390.6615,214.34182L391.14142,213.86177L391.62135,213.62174L393.06114,213.62174L
				393.78103,213.38172L394.98085,213.38172L395.22081,213.38172L395.94071,213.14169L396.90056,213.14169L397.38049,212.90167L
				403.37959,212.90167L406.73909,213.38172L411.77833,215.30191L412.49823,217.22211L414.17798,219.1423L415.13783,220.34243L416.09769,222.50265
				L416.33765,224.42284L416.33765,226.34304L416.33765,227.30314L416.81758,228.74328L417.05754,229.22333L418.49733,231.62358
				L420.41704,232.8237L421.85683,234.02382L424.97636,233.54377L426.17618,234.50387L427.85593,235.70399L428.33585,235.94402L
				429.77564,236.90411L430.97546,236.66409L432.65521,237.14414L433.3751,237.38416L434.33496,237.62419L435.77474,238.10423L436.0147,238.82431
				L436.0147,239.54438L437.93442,244.82492L438.17438,245.30497L438.65431,247.22516L439.13424,247.94524L439.61417,248.90533L
				440.57402,249.62541L441.77384,249.86543L442.97366,250.10546L444.89338,250.58551L447.05305,252.02565L450.41255,253.94585L
				452.57223,254.90594L453.29212,255.14597L455.69176,255.86604L467.45,258.26629L469.36971,259.94646L469.84964,260.66653L471.52939,261.3866
				L472.48924,262.58673L473.4491,265.227L473.92903,266.90717L474.64892,268.34731L475.12885,269.30741L477.04856,273.38783L477.28852,273.62785
				L478.00842,273.1478L480.16809,272.66775L482.8077,272.42773L483.76755,272.1877L488.32687,273.1478L489.52669,273.1478L491.4464,273.1478
				L498.40536,274.34792L500.08511,273.38783L500.805,272.90778L501.52489,272.1877L502.96468,271.94768L503.92454,271.46763L505.12436,271.22761
				L506.08421,271.22761L507.04407,271.22761L508.24389,271.22761L510.40356,272.1877L511.60339,272.42773L510.64353,275.30802L
				507.76396,282.02871L507.524,283.22883L507.76396,284.66897L506.8041,285.38905L508.72382,286.34915L510.1636,286.34915L511.36342,285.62907
				L512.56324,284.909L515.44281,285.14902L517.84245,284.66897L518.80231,284.66897L520.72202,285.8691L521.44191,286.82919z"/>
			<path clip-path="url(#SVG_CP_1)" fill="#73B273" fill-rule="evenodd" stroke="#000000" stroke-width="0.95986" stroke-miterlimit="10" stroke-linecap="round" stroke-linejoin="round" d="
				M381.3029,48.00489L381.54286,48.96498L381.78283,50.64516L381.54286,52.32533L381.3029,53.76547L381.06293,55.92569L381.3029,57.84589
				L381.54286,59.52606L381.54286,61.68628L382.26275,62.16633L383.9425,64.32655L384.42243,65.28665L385.86222,66.96682L387.06204,67.68689
				L389.22171,70.32716L389.46168,72.48738L389.70164,75.12765L389.22171,76.56779L387.54196,79.44809L386.58211,80.40818L385.14232,81.84833
				L384.18247,83.28848L382.50272,84.00855L381.54286,84.4886L381.06293,84.96865L380.34304,84.96865L379.14322,84.72862L377.46347,83.76853
				L375.3038,83.04845L374.10398,85.20867L373.62405,87.12887L371.22441,88.32899L369.78462,90.96926L367.86491,92.88945L368.10487,94.80965
				L368.34484,97.68994L370.02459,101.29031L370.50452,103.93058L369.3047,106.33082L369.3047,108.25102L369.3047,110.65126L369.54466,112.81148
				L368.5848,115.21173L367.14502,117.13192L365.70523,118.57207L361.86581,121.93241L359.46617,124.33266L357.30649,125.05273L
				356.5866,129.13314L356.82656,132.01344L357.06653,134.41368L356.5866,138.25407L356.10667,143.77463L356.34664,146.89495L356.34664,147.13498
				L355.38678,148.09507L354.90685,149.05517L354.90685,149.77524L354.66689,151.93546L354.90685,154.33571L355.14682,155.05578
				L355.62674,156.2559L356.5866,158.1761L357.30649,159.37622L357.78642,161.05639L358.50631,161.77647L358.98624,162.01649L360.18606,162.01649
				L361.62585,161.53644L362.10577,161.53644L364.26545,164.17671L364.74538,166.09691L364.74538,167.53705L364.98534,168.25713
				L364.50541,168.9772L364.26545,169.9373L363.30559,171.37744L363.06563,171.61747L361.62585,173.05761L361.14592,173.29764L359.9461,174.73779
				L359.9461,175.21783L359.2262,176.89801L359.46617,178.8182L359.46617,179.53827L358.98624,180.7384L358.50631,181.45847L357.78642,181.69849
				L356.82656,181.93852L354.42692,183.13864L353.947,183.61869L353.46707,183.37866L352.74717,182.65859L352.02728,182.17854L351.06743,181.93852
				L350.10757,181.69849L349.62764,181.45847L348.66779,181.45847L348.42782,180.49837L347.46797,180.25835L346.74807,179.7783L
				346.26814,179.05823L344.82836,178.33815L343.62854,177.61808L342.18876,177.13803L340.74897,176.41796L339.30919,175.93791L
				337.62944,174.73779L335.46976,173.29764L334.02998,172.57757L332.35023,171.37744L330.91044,169.69727L330.19055,168.25713L
				329.47066,166.81698L329.47066,163.93669L329.71062,161.29642L329.71062,159.61625L329.2307,157.93608L328.5108,156.73595L326.83106,156.01588
				L325.63124,155.53583L323.95149,155.29581L322.27174,154.81576L321.07192,154.57573L320.83195,154.57573L319.39217,154.09568
				L318.67228,154.09568L317.71242,153.85566L316.99253,153.61564L316.03267,153.61564L315.07282,153.37561L314.11296,153.13559
				L313.63303,153.37561L312.67318,152.89556L311.47336,152.65554L310.5135,152.17549L309.07372,152.17549L307.63393,151.45542L
				306.19415,151.21539L305.23429,150.97537L304.27443,150.49532L303.55454,150.25529L302.11476,149.77524L300.91494,149.77524L
				298.99522,149.77524L296.35562,149.05517L297.55544,148.3351L298.5153,147.85505L299.47515,147.13498L299.95508,146.89495L300.67497,145.93485
				L301.39486,145.21478L302.59469,144.25468L303.31458,143.53461L304.75436,141.85444L305.95418,140.17427L306.67407,139.69422
				L307.63393,139.45419L308.35382,139.45419L309.79361,138.97415L310.5135,138.73412L311.95328,137.534L312.91314,137.534L313.63303,137.534
				L314.35292,137.29397L315.07282,137.534L316.03267,137.77402L317.71242,138.25407L318.91224,138.73412L319.63213,138.97415L321.07192,139.45419
				L323.47156,139.69422L324.91134,139.69422L326.35113,138.73412L326.83106,138.73412L328.03088,138.73412L328.99073,139.21417
				L329.95059,139.21417L330.91044,138.97415L331.8703,138.4941L332.59019,137.534L333.55005,136.81393L333.79001,136.09385L334.02998,135.37378
				L333.55005,135.13375L333.07012,134.65371L332.59019,134.41368L332.11027,133.93363L331.8703,133.45358L332.11027,132.97353L
				332.35023,132.73351L332.83016,132.25346L333.07012,131.77341L333.31009,131.29336L333.07012,130.57329L332.83016,129.85322L
				332.59019,129.13314L332.35023,128.17305L332.59019,127.45297L332.83016,126.7329L333.07012,126.25285L332.35023,125.29275L332.11027,125.05273
				L331.8703,124.33266L331.63034,123.61258L331.15041,123.13253L330.67048,122.65248L329.71062,122.41246L329.2307,122.17244L328.75077,121.93241
				L328.5108,121.45236L328.03088,120.73229L328.03088,119.53217L328.03088,118.81209L328.27084,117.852L328.75077,116.8919L328.99073,116.41185
				L329.47066,115.69178L329.95059,115.21173L330.19055,114.73168L330.43052,114.25163L330.43052,113.77158L330.43052,112.81148
				L330.43052,111.85138L330.43052,111.37134L329.95059,110.89129L328.99073,110.17121L328.03088,109.69116L327.79091,108.97109
				L327.31098,108.25102L327.07102,107.53095L326.83106,106.81087L327.07102,106.0908L327.31098,105.61075L327.55095,105.37073L
				328.27084,105.1307L328.99073,105.1307L329.71062,105.1307L330.43052,105.1307L331.15041,104.89068L331.8703,104.65065L332.35023,104.41063
				L332.83016,103.93058L332.83016,103.45053L333.07012,103.21051L333.07012,102.73046L332.59019,102.49043L332.11027,102.25041
				L331.63034,101.77036L331.15041,101.29031L330.91044,100.81026L330.91044,100.33021L331.39037,99.61014L331.39037,98.65004L331.8703,97.68994
				L332.35023,96.72985L332.59019,96.00977L333.07012,95.76975L333.55005,95.76975L333.79001,96.00977L334.50991,96.00977L335.2298,96.72985
				L336.18965,97.44992L336.90955,97.68994L337.38947,97.68994L337.62944,97.44992L338.10937,96.96987L338.34933,96.2498L338.58929,95.76975
				L338.58929,94.80965L338.58929,94.3296L338.34933,93.60953L338.10937,92.88945L338.10937,92.16938L338.58929,91.68933L338.82926,90.96926
				L339.54915,90.48921L340.26904,90.24919L341.94879,89.28909L342.42872,89.04906L342.66868,88.32899L342.90865,87.60892L342.66868,86.88884
				L341.94879,86.16877L341.2289,85.4487L340.98894,84.4886L340.26904,83.5285L340.26904,82.32838L340.26904,81.60831L340.02908,80.64821
				L339.54915,79.92814L339.30919,79.44809L339.54915,78.96804L339.78912,78.24796L340.26904,77.28787L340.26904,76.32777L339.78912,75.6077
				L340.02908,74.40757L339.78912,72.24735L339.78912,68.88701L340.26904,65.76669L340.50901,63.12643L340.98894,62.64638L341.94879,62.16633
				L342.18876,62.16633L343.14861,62.64638L344.34843,62.64638L345.06832,61.9263L345.30829,60.96621L345.30829,59.76608L345.78822,59.28603
				L346.74807,58.56596L347.70793,58.56596L349.14771,58.80599L349.86761,58.56596L350.34753,57.84589L350.5875,56.88579L351.30739,55.92569
				L352.02728,55.44564L352.98714,54.96559L354.18696,54.96559L355.14682,54.48555L355.62674,53.52545L356.10667,52.80538L356.5866,51.60525
				L356.5866,51.36523L355.86671,50.40513L355.14682,48.96498L354.66689,48.00489L354.66689,47.52484L354.90685,47.28481L355.62674,46.56474
				L355.86671,45.36462L356.82656,44.64454L357.30649,44.40452L358.26635,44.40452L359.46617,44.1645L360.42602,43.92447L360.66599,43.68445
				L360.90595,43.92447L361.14592,44.40452L361.14592,45.36462L360.90595,46.32472L361.62585,46.32472L362.82567,46.32472L363.78552,46.08469
				L365.46527,45.84467L367.38498,46.08469L369.06473,46.32472L370.26455,47.28481L371.9443,49.20501L372.66419,49.44503L374.10398,48.72496
				L375.54376,48.72496L377.22351,48.48494L379.14322,48.24491L380.82297,48.00489L381.3029,48.00489z"/>
			<path clip-path="url(#SVG_CP_1)" fill="#73B273" fill-rule="evenodd" stroke="#000000" stroke-width="0.95986" stroke-miterlimit="10" stroke-linecap="round" stroke-linejoin="round" d="
				M296.35562,149.05517L298.99522,149.77524L300.91494,149.77524L302.11476,149.77524L303.55454,150.25529L304.27443,150.49532
				L305.23429,150.97537L306.19415,151.21539L307.63393,151.45542L309.07372,152.17549L310.5135,152.17549L311.47336,152.65554L
				312.67318,152.89556L313.63303,153.37561L314.11296,153.13559L315.07282,153.37561L316.03267,153.61564L316.99253,153.61564L
				317.71242,153.85566L318.67228,154.09568L319.39217,154.09568L320.83195,154.57573L321.07192,154.57573L322.27174,154.81576L
				323.95149,155.29581L325.63124,155.53583L326.83106,156.01588L328.5108,156.73595L329.2307,157.93608L329.71062,159.61625L329.71062,161.29642
				L329.47066,163.93669L329.47066,166.81698L330.19055,168.25713L330.91044,169.69727L332.35023,171.37744L334.02998,172.57757
				L335.46976,173.29764L337.62944,174.73779L339.30919,175.93791L340.74897,176.41796L342.18876,177.13803L343.62854,177.61808
				L344.82836,178.33815L346.26814,179.05823L346.74807,179.7783L347.46797,180.25835L348.42782,180.49837L348.66779,181.45847L
				349.62764,181.45847L350.10757,181.69849L351.06743,181.93852L352.02728,182.17854L352.74717,182.65859L353.46707,183.37866L
				353.947,183.61869L353.70703,183.85871L353.2271,184.57879L353.70703,186.73901L353.70703,187.93913L353.70703,188.41918L353.2271,189.37928
				L353.2271,189.6193L352.98714,191.05945L352.74717,191.77952L352.02728,192.73962L351.06743,193.69972L351.06743,194.65981L351.06743,195.13986
				L350.10757,197.78013L348.90775,199.22028L347.94789,199.70033L346.50811,199.70033L343.62854,199.94035L341.2289,201.3805L340.02908,202.58062
				L339.78912,203.06067L338.82926,203.78074L338.10937,203.78074L336.42962,205.46091L335.2298,206.66103L334.02998,207.14108L
				333.55005,207.62113L332.59019,208.58123L331.39037,210.2614L331.39037,211.70155L329.95059,212.90167L328.03088,214.34182L326.59109,214.82187
				L325.8712,216.74206L325.8712,217.46213L325.15131,218.18221L324.67138,218.42223L323.95149,218.66226L322.27174,218.42223L321.55185,218.90228
				L320.11206,219.62235L319.63213,219.62235L318.91224,218.42223L318.19235,216.02199L317.23249,215.54194L316.27264,215.54194
				L313.39307,216.02199L312.91314,215.78196L310.75346,215.06189L310.27354,215.30191L309.79361,215.54194L309.07372,216.74206
				L309.07372,218.18221L309.07372,218.42223L308.83375,218.90228L308.59379,219.62235L307.87389,221.30252L307.63393,222.0226L
				307.63393,222.50265L307.154,224.90289L307.154,226.34304L307.154,227.30314L307.39397,228.50326L307.154,229.70338L306.67407,231.14353
				L306.43411,231.62358L306.67407,232.34365L306.43411,233.7838L305.47425,234.74389L304.75436,235.46397L304.5144,235.46397L303.79451,235.46397
				L302.11476,235.70399L301.63483,236.42406L300.43501,238.34426L299.47515,240.50448L298.99522,240.98453L298.27533,241.22455
				L297.07551,240.7445L295.39576,240.7445L294.43591,241.22455L294.19594,240.98453L293.47605,240.7445L293.23609,239.06433L292.27623,236.90411
				L292.99612,235.22394L293.23609,234.26384L293.47605,233.7838L294.19594,232.58367L294.43591,230.9035L294.91584,229.9434L295.1558,228.98331
				L294.91584,228.26323L294.19594,225.14292L294.43591,223.94279L294.91584,222.50265L295.1558,220.34243L295.63573,219.38233L
				295.87569,217.70216L295.1558,216.02199L294.91584,215.06189L294.91584,214.58184L294.67587,213.86177L292.51619,211.46152L292.03627,210.2614
				L291.31637,208.58123L291.07641,207.62113L290.59648,205.70094L290.35652,204.98086L289.87659,204.26079L289.87659,202.10057
				L289.63663,201.3805L287.95688,199.94035L287.47695,199.22028L287.23699,198.02016L286.99702,197.30008L286.27713,195.85994L
				286.03716,194.89984L286.03716,193.21967L285.31727,191.05945L284.35742,190.09935L282.19774,188.89923L280.99792,188.17915L
				279.31817,188.17915L278.11835,188.41918L276.67857,187.93913L276.4386,186.49898L276.4386,186.01893L277.39846,184.81881L277.15849,184.09874
				L275.71871,182.65859L274.75885,181.45847L272.35921,181.21845L271.63932,180.97842L270.91943,180.01832L270.91943,177.8581L
				271.39936,176.41796L272.35921,175.21783L272.83914,174.01771L272.83914,173.05761L273.31907,171.61747L273.55903,171.37744L
				273.55903,170.41735L274.03896,169.9373L274.75885,168.73717L274.75885,168.49715L274.99882,167.53705L275.23878,167.53705L274.99882,166.57695
				L274.99882,165.37683L275.23878,164.65676L275.23878,164.41673L275.47875,161.05639L275.95867,160.57634L276.4386,157.93608L
				276.91853,156.97598L277.15849,156.73595L277.15849,156.49593L277.87839,155.05578L278.11835,154.81576L279.31817,152.41551L
				279.55814,152.17549L280.03806,151.45542L281.95778,149.2952L282.67767,148.09507L282.67767,147.61502L283.39756,147.85505L283.63752,148.09507
				L284.59738,149.05517L285.55724,149.77524L286.51709,149.53522L287.47695,149.77524L288.43681,150.25529L290.11655,150.73534
				L291.7963,150.97537L293.23609,151.69544L294.19594,150.49532L295.1558,149.77524L296.35562,149.05517z"/>
			<path clip-path="url(#SVG_CP_1)" fill="#73B273" fill-rule="evenodd" stroke="#000000" stroke-width="0.95986" stroke-miterlimit="10" stroke-linecap="round" stroke-linejoin="round" d="
				M490.72651,51.84528L490.72651,52.0853L490.48655,52.0853L490.00662,51.84528L489.28673,51.1252L488.32687,50.40513L487.60698,49.44503
				L487.12705,49.20501L486.40716,49.44503L485.92723,50.40513L485.4473,50.64516L483.52759,50.16511L482.32777,50.88518L479.92813,51.36523
				L477.04856,51.36523L476.32867,51.84528L473.92903,53.52545L471.76935,55.20562L470.32957,57.12581L469.36971,58.08591L466.97007,59.04601
				L463.37061,61.44625L462.17079,63.12643L461.4509,65.04662L460.49104,68.64699L460.01111,69.84711L458.81129,70.80721L457.85143,71.76731
				L457.13154,72.48738L454.49194,74.16755L453.77205,75.36767L452.57223,76.32777L452.0923,77.52789L451.61237,78.00794L451.37241,78.24796
				L449.21273,79.92814L448.49284,79.92814L446.81309,79.92814L446.33316,80.16816L446.0932,80.40818L445.85323,80.40818L446.0932,81.84833
				L446.0932,83.28848L446.0932,84.24858L446.0932,85.20867L446.57312,88.08897L446.33316,89.04906L445.85323,90.24919L444.41345,93.12948
				L444.17348,94.3296L444.41345,95.76975L444.65341,96.48982L443.69355,97.44992L443.45359,98.65004L442.7337,99.61014L442.7337,99.85016
				L442.01381,102.73046L442.01381,103.69055L439.85413,107.0509L439.85413,108.97109L439.61417,109.21112L439.3742,110.41124L439.3742,111.13131
				L439.13424,111.85138L439.13424,112.33143L438.89427,113.77158L438.89427,114.49165L438.65431,114.9717L438.17438,115.45175L
				437.45449,116.17182L437.21453,116.65187L436.49463,117.37195L436.25467,118.09202L435.77474,119.05212L435.53478,119.29214L
				435.29481,119.53217L435.05485,119.77219L434.81488,119.77219L434.09499,119.77219L433.61506,119.77219L430.97546,120.25224L
				430.7355,120.49226L430.7355,120.73229L430.7355,121.21234L430.49553,121.45236L430.0156,121.45236L429.05575,121.45236L426.89607,122.41246
				L426.65611,122.89251L425.45629,123.13253L424.73639,123.85261L424.25647,125.05273L424.25647,126.01283L421.13693,129.13314
				L420.41704,129.37317L418.49733,129.37317L417.53747,129.37317L417.05754,129.37317L415.61776,129.61319L414.89787,129.61319
				L413.93801,130.09324L413.69805,130.57329L413.45808,130.57329L412.73819,130.81331L411.53837,131.05334L410.33855,131.77341
				L409.37869,132.01344L409.13873,132.01344L407.45898,132.01344L406.73909,132.73351L405.05934,133.69361L404.09948,134.17366
				L403.37959,134.65371L402.6597,135.13375L402.41974,136.81393L401.21992,138.01405L400.0201,138.25407L399.78013,138.25407L398.82028,137.534
				L397.38049,135.6138L396.6606,134.41368L392.10128,129.37317L391.62135,127.93302L390.18157,126.97292L388.74178,126.49288L386.82207,126.49288
				L384.18247,126.7329L382.74268,126.97292L382.50272,127.693L381.78283,127.93302L381.54286,127.93302L381.06293,128.41307L380.34304,130.09324
				L379.14322,131.05334L377.70344,132.49349L376.98355,134.41368L377.46347,135.13375L376.50362,137.05395L375.78372,138.01405
				L374.5839,138.97415L373.38408,140.41429L372.42423,140.89434L371.9443,141.37439L370.26455,141.61441L369.54466,141.37439L367.86491,141.37439
				L365.22531,141.37439L363.54556,142.33449L362.82567,142.81454L361.86581,143.77463L360.42602,144.25468L358.74628,145.4548L
				357.30649,146.17488L356.34664,146.89495L356.10667,143.77463L356.5866,138.25407L357.06653,134.41368L356.82656,132.01344L356.5866,129.13314
				L357.30649,125.05273L359.46617,124.33266L361.86581,121.93241L365.70523,118.57207L367.14502,117.13192L368.5848,115.21173L
				369.54466,112.81148L369.3047,110.65126L369.3047,108.25102L369.3047,106.33082L370.50452,103.93058L370.02459,101.29031L368.34484,97.68994
				L368.10487,94.80965L367.86491,92.88945L369.78462,90.96926L371.22441,88.32899L373.62405,87.12887L374.10398,85.20867L375.3038,83.04845
				L377.46347,83.76853L379.14322,84.72862L380.34304,84.96865L381.06293,84.96865L381.54286,84.4886L382.50272,84.00855L384.18247,83.28848
				L385.14232,81.84833L386.58211,80.40818L387.54196,79.44809L389.22171,76.56779L389.70164,75.12765L389.46168,72.48738L389.22171,70.32716
				L387.06204,67.68689L385.86222,66.96682L384.42243,65.28665L383.9425,64.32655L382.26275,62.16633L381.54286,61.68628L381.54286,59.52606
				L381.3029,57.84589L381.06293,55.92569L381.3029,53.76547L381.54286,52.32533L381.78283,50.64516L381.54286,48.96498L381.3029,48.00489
				L382.02279,48.00489L383.46257,48.00489L384.6624,47.52484L386.10218,47.28481L387.302,46.80476L387.78193,45.60464L387.78193,44.1645
				L388.50182,43.2044L389.22171,42.96437L389.22171,43.44442L389.46168,43.92447L389.70164,44.88457L390.6615,45.36462L390.90146,45.84467
				L391.14142,47.28481L391.62135,48.24491L392.82117,48.72496L393.3011,49.68506L394.50092,50.64516L395.22081,50.88518L396.18067,51.60525
				L396.6606,52.32533L397.38049,53.0454L397.38049,53.52545L397.38049,54.72557L398.58031,55.20562L399.54017,55.44564L400.26006,55.44564
				L401.45988,55.68567L402.89966,55.92569L404.81938,56.40574L405.77923,55.92569L407.45898,56.40574L409.13873,56.40574L410.33855,56.16572
				L411.29841,54.96559L412.49823,54.0055L413.93801,54.0055L414.89787,53.28542L416.57762,53.28542L417.53747,54.0055L418.25736,55.20562
				L419.21722,55.44564L420.89697,55.68567L422.33675,55.92569L423.29661,56.16572L424.25647,56.64577L425.69625,55.68567L425.93621,55.20562
				L426.17618,53.76547L426.41614,53.52545L426.65611,53.28542L426.65611,53.0454L426.65611,52.80538L426.65611,52.32533L426.89607,51.36523
				L428.09589,51.36523L428.57582,51.36523L429.29571,50.40513L429.53568,50.16511L430.25557,50.16511L430.97546,49.92508L431.21542,49.92508
				L433.3751,49.44503L434.57492,49.44503L434.57492,49.20501L435.29481,49.20501L436.0147,48.96498L436.97456,48.72496L437.93442,48.00489
				L438.65431,47.76486L438.89427,47.76486L439.61417,47.76486L439.85413,48.24491L440.09409,48.00489L440.33406,47.76486L440.57402,47.28481
				L440.33406,45.60464L440.33406,45.36462L441.05395,44.88457L441.77384,44.1645L442.25377,43.68445L442.25377,43.2044L442.01381,42.96437
				L441.53388,42.48432L440.09409,42.48432L438.65431,42.00428L438.41435,41.76425L438.41435,41.04418L438.65431,40.80415L438.65431,40.56413
				L439.61417,40.08408L440.57402,39.60403L441.29391,39.36401L441.53388,39.12398L442.01381,38.88396L442.97366,38.16388L443.21363,37.68384
				L443.45359,37.44381L444.65341,36.72374L445.13334,36.48371L446.57312,36.48371L447.53298,36.24369L448.01291,36.00366L449.21273,35.76364
				L450.17258,35.28359L451.85233,34.80354L453.29212,34.32349L453.77205,34.32349L454.49194,34.32349L454.7319,34.32349L454.97187,34.08347
				L455.69176,33.84345L458.0914,33.60342L459.29122,33.3634L461.4509,33.3634L463.13064,33.84345L463.37061,34.08347L463.61057,34.08347
				L465.05036,33.84345L465.77025,33.60342L466.01021,33.60342L466.73011,33.60342L469.36971,32.64332L470.56953,32.4033L472.00931,32.4033
				L472.96917,32.16327L473.20913,32.16327L473.92903,32.16327L474.88888,32.16327L475.60878,32.4033L475.84874,32.64332L476.32867,32.64332
				L476.56863,32.88335L477.28852,33.12337L477.52849,33.12337L477.76845,32.88335L478.00842,32.64332L478.24838,32.16327L478.72831,31.68323
				L480.88798,31.20318L481.36791,30.96315L483.04766,29.28298L483.76755,28.32288L484.00752,27.84283L484.00752,27.60281L484.72741,27.12276
				L485.68727,27.12276L486.40716,26.88274L486.64712,26.88274L487.84694,26.88274L488.32687,26.64271L488.8068,26.40269L490.24658,25.68261
				L491.68637,24.24247L492.1663,23.28237L492.1663,22.5623L492.1663,22.08225L491.92633,21.84222L492.1663,18.48188L493.12615,19.44198
				L497.44551,21.6022L498.1654,21.6022L498.1654,26.16266L497.44551,28.56291L497.92543,30.00305L497.68547,30.96315L496.96558,32.16327
				L496.72561,33.60342L495.76576,35.28359L494.8059,36.72374L493.12615,38.40391L492.40626,40.08408L492.1663,46.08469L491.68637,47.04479
				L491.4464,47.76486L491.20644,48.24491L491.68637,49.68506L491.68637,50.40513L491.4464,51.1252L490.72651,51.84528z"/>
			<path clip-path="url(#SVG_CP_1)" fill="#73B273" fill-rule="evenodd" stroke="#000000" stroke-width="0.95986" stroke-miterlimit="10" stroke-linecap="round" stroke-linejoin="round" d="
				M490.72651,51.84528L492.64622,52.0853L494.8059,52.32533L497.92543,53.28542L499.36522,53.52545L502.48475,55.44564L503.68457,56.64577
				L504.40446,57.12581L505.60428,57.84589L506.8041,58.32594L507.76396,58.80599L508.72382,59.76608L509.68367,60.00611L510.64353,60.24613
				L511.84335,61.44625L513.04317,61.44625L514.72292,61.20623L516.88259,61.20623L518.56234,61.44625L520.00213,61.68628L521.44191,62.40635
				L522.40177,63.36645L522.8817,63.8465L523.84155,63.8465L525.04137,63.8465L526.72112,64.8066L528.8808,66.00672L530.08062,66.72679
				L530.80051,67.44687L531.28044,68.16694L532.72022,70.56718L532.96019,70.80721L533.92004,71.28726L534.39997,71.76731L534.63994,72.24735
				L534.63994,73.92752L534.63994,74.88762L535.11986,76.08774L536.31968,77.52789L536.79961,78.48799L537.27954,79.92814L537.75947,79.92814
				L538.47936,80.88823L540.63904,82.80843L541.11897,83.04845L542.31879,83.28848L542.55875,84.24858L543.75857,89.04906L544.71843,90.24919
				L547.35803,92.16938L549.99764,94.80965L550.71753,95.04967L551.43742,95.04967L554.31699,94.08958L553.5971,95.52972L553.35713,95.76975
				L551.67738,96.96987L550.47756,98.41002L549.27774,101.77036L549.03778,105.1307L548.31789,107.29092L546.63814,109.69116L545.43832,112.57146
				L544.2385,117.37195L543.51861,120.01222L544.95839,127.21295L546.15821,132.49349L546.15821,136.81393L546.15821,138.4941L545.43832,139.93424
				L544.47846,141.37439L543.75857,142.33449L543.51861,143.05456L543.27864,143.77463L543.51861,145.21478L544.2385,147.13498L
				544.71843,148.3351L546.39817,152.41551L547.83796,156.01588L549.75767,157.69605L550.71753,158.65615L551.67738,160.0963L553.11717,162.25652
				L555.03688,163.21661L556.71663,164.41673L558.39638,166.33693L558.63634,167.057L559.5962,168.0171L563.19566,170.89739L564.39548,172.09752
				L564.87541,173.29764L564.87541,173.77769L567.99494,179.53827L568.71483,180.01832L569.19476,182.41857L569.43472,183.37866
				L569.43472,184.81881L569.43472,186.25896L569.43472,186.97903L569.43472,187.21906L569.43472,196.09996L569.43472,198.98025
				L569.67469,199.70033L569.43472,200.4204L567.99494,201.86055L567.03508,202.82064L566.55516,203.54072L565.5953,205.22089L564.63544,207.14108
				L564.15552,208.10118L564.63544,209.3013L566.07523,211.46152L566.55516,212.42162L566.79512,212.90167L566.31519,214.34182L
				565.5953,215.78196L564.15552,217.46213L563.19566,218.42223L561.51591,220.34243L560.79602,221.0625L560.55605,221.30252L559.5962,221.78257
				L557.67649,222.74267L555.27684,223.94279L554.31699,224.42284L553.35713,225.62296L552.39728,225.86299L551.91735,225.86299
				L549.99764,225.86299L548.31789,225.62296L546.63814,225.38294L545.67828,225.86299L544.47846,227.30314L543.27864,228.74328
				L543.51861,231.14353L543.27864,232.34365L543.27864,232.58367L542.79871,233.06372L542.55875,234.26384L542.31879,234.98392
				L541.83886,235.46397L541.35893,236.42406L540.39907,237.62419L539.67918,237.86421L539.91914,238.82431L539.19925,240.26445
				L537.27954,243.38477L536.79961,244.34487L536.07972,246.02504L536.31968,246.74511L535.59979,247.94524L534.8799,248.90533L
				534.39997,248.90533L533.44011,246.74511L532.72022,243.86482L531.28044,242.42467L530.08062,240.98453L528.64083,239.30436L
				526.96109,238.58428L525.76126,239.30436L524.08152,241.46458L522.40177,244.10485L521.68188,243.38477L520.48206,241.94463L
				520.24209,241.7046L518.80231,239.78441L517.84245,236.66409L515.92274,234.26384L513.5231,231.38355L511.12346,228.02321L508.72382,224.18282
				L505.60428,221.54255L502.48475,219.86238L499.36522,218.18221L496.00572,216.02199L492.40626,214.82187L487.84694,212.1816L
				484.96737,210.2614L478.96827,206.90106L476.32867,204.02077L473.68906,199.70033L469.60967,196.82003L466.97007,192.49959L465.29032,190.5794
				L463.85054,186.49898L463.85054,182.89862L463.13064,179.29825L461.21093,176.17793L460.49104,172.33754L457.85143,169.9373L
				455.45179,167.77708L451.85233,165.61686L449.21273,162.97659L448.97276,160.81637L447.29302,156.49593L447.05305,153.85566L
				446.0932,150.73534L444.41345,149.53522L442.97366,148.81515L441.77384,149.2952L439.61417,148.57512L437.69445,147.375L436.7346,148.3351
				L435.77474,147.13498L433.85503,146.17488L432.17528,146.89495L431.21542,147.85505L428.81578,147.85505L427.85593,150.49532
				L426.41614,151.93546L425.21632,153.61564L424.25647,154.57573L423.53657,154.33571L423.53657,151.45542L421.13693,150.73534
				L419.69715,150.25529L417.77744,150.73534L415.85772,149.77524L415.13783,149.77524L414.6579,150.25529L414.41794,150.49532L
				414.17798,151.21539L413.69805,151.93546L413.21812,152.89556L412.49823,153.61564L411.53837,153.37561L410.81848,152.89556L
				410.33855,151.93546L409.61866,151.45542L408.6588,150.97537L407.45898,150.25529L406.73909,149.53522L406.49913,149.05517L406.25916,148.09507
				L406.0192,147.61502L405.2993,146.89495L404.57941,146.4149L403.61956,145.69483L403.37959,144.97476L402.6597,144.01466L402.17977,143.29459
				L401.93981,142.09446L400.73999,141.85444L399.78013,141.61441L398.82028,141.37439L398.58031,141.37439L397.86042,140.41429
				L396.90056,140.17427L396.18067,139.93424L395.22081,139.93424L394.26096,139.69422L395.22081,138.97415L396.18067,138.4941L
				397.86042,138.73412L399.3002,138.73412L400.0201,138.25407L401.21992,138.01405L402.41974,136.81393L402.6597,135.13375L403.37959,134.65371
				L404.09948,134.17366L405.05934,133.69361L406.73909,132.73351L407.45898,132.01344L409.13873,132.01344L409.37869,132.01344
				L410.33855,131.77341L411.53837,131.05334L412.73819,130.81331L413.45808,130.57329L413.69805,130.57329L413.93801,130.09324
				L414.89787,129.61319L415.61776,129.61319L417.05754,129.37317L417.53747,129.37317L418.49733,129.37317L420.41704,129.37317
				L421.13693,129.13314L424.25647,126.01283L424.25647,125.05273L424.73639,123.85261L425.45629,123.13253L426.65611,122.89251
				L426.89607,122.41246L429.05575,121.45236L430.0156,121.45236L430.49553,121.45236L430.7355,121.21234L430.7355,120.73229L430.7355,120.49226
				L430.97546,120.25224L433.61506,119.77219L434.09499,119.77219L434.81488,119.77219L435.05485,119.77219L435.29481,119.53217
				L435.53478,119.29214L435.77474,119.05212L436.25467,118.09202L436.49463,117.37195L437.21453,116.65187L437.45449,116.17182
				L438.17438,115.45175L438.65431,114.9717L438.89427,114.49165L438.89427,113.77158L439.13424,112.33143L439.13424,111.85138L
				439.3742,111.13131L439.3742,110.41124L439.61417,109.21112L439.85413,108.97109L439.85413,107.0509L442.01381,103.69055L442.01381,102.73046
				L442.7337,99.85016L442.7337,99.61014L443.45359,98.65004L443.69355,97.44992L444.65341,96.48982L444.41345,95.76975L444.17348,94.3296
				L444.41345,93.12948L445.85323,90.24919L446.33316,89.04906L446.57312,88.08897L446.0932,85.20867L446.0932,84.24858L446.0932,83.28848
				L446.0932,81.84833L445.85323,80.40818L446.0932,80.40818L446.33316,80.16816L446.81309,79.92814L448.49284,79.92814L449.21273,79.92814
				L451.37241,78.24796L451.61237,78.00794L452.0923,77.52789L452.57223,76.32777L453.77205,75.36767L454.49194,74.16755L457.13154,72.48738
				L457.85143,71.76731L458.81129,70.80721L460.01111,69.84711L460.49104,68.64699L461.4509,65.04662L462.17079,63.12643L463.37061,61.44625
				L466.97007,59.04601L469.36971,58.08591L470.32957,57.12581L471.76935,55.20562L473.92903,53.52545L476.32867,51.84528L477.04856,51.36523
				L479.92813,51.36523L482.32777,50.88518L483.52759,50.16511L485.4473,50.64516L485.92723,50.40513L486.40716,49.44503L487.12705,49.20501
				L487.60698,49.44503L488.32687,50.40513L489.28673,51.1252L490.00662,51.84528L490.48655,52.0853L490.72651,52.0853L490.72651,51.84528
				z"/>
			<path clip-path="url(#SVG_CP_1)" fill="#73B273" fill-rule="evenodd" stroke="#000000" stroke-width="0.95986" stroke-miterlimit="10" stroke-linecap="round" stroke-linejoin="round" d="
				M400.0201,138.25407L399.3002,138.73412L397.86042,138.73412L396.18067,138.4941L395.22081,138.97415L394.26096,139.69422L393.06114,140.41429
				L391.86132,140.65432L390.6615,140.89434L389.46168,141.13437L388.74178,141.61441L387.54196,141.85444L386.58211,141.61441L
				386.34214,142.09446L386.10218,143.05456L385.86222,143.53461L385.38229,143.53461L384.90236,143.77463L384.6624,144.01466L384.6624,145.21478
				L384.90236,146.4149L384.90236,147.85505L384.90236,148.57512L385.14232,149.2952L385.14232,149.53522L385.14232,150.01527L384.6624,150.49532
				L384.18247,150.73534L383.70254,151.45542L383.46257,151.93546L383.22261,152.89556L382.98265,153.13559L382.74268,153.85566
				L382.26275,154.33571L382.26275,154.57573L382.26275,155.05578L382.50272,155.53583L382.50272,155.77586L382.74268,156.2559L
				382.50272,156.97598L382.50272,157.45603L382.02279,157.69605L381.3029,158.1761L380.82297,158.65615L380.34304,159.37622L380.10308,159.85627
				L379.62315,160.81637L378.90326,161.29642L377.9434,161.53644L377.46347,162.01649L377.22351,162.49654L376.98355,163.21661L
				376.50362,163.69666L376.26365,163.93669L377.22351,164.41673L378.42333,165.37683L380.10308,166.57695L380.34304,166.57695L
				381.3029,166.57695L382.26275,166.57695L383.70254,166.09691L384.6624,166.09691L384.6624,165.61686L384.6624,164.65676L384.18247,163.93669
				L385.86222,163.69666L387.302,163.93669L387.302,163.69666L387.54196,162.49654L388.02189,161.53644L389.46168,161.29642L390.18157,160.81637
				L391.14142,160.81637L392.10128,160.57634L392.34125,159.37622L393.06114,158.89617L394.50092,158.65615L394.74089,158.41612
				L395.22081,157.216L395.46078,156.01588L395.70074,154.57573L395.70074,153.37561L395.46078,152.17549L394.74089,150.97537L394.98085,150.49532
				L395.94071,150.01527L396.42063,150.01527L397.14053,150.25529L397.86042,150.49532L399.3002,151.45542L399.54017,151.93546L
				399.54017,153.13559L399.3002,154.33571L399.3002,155.53583L399.78013,156.73595L400.50002,157.69605L401.45988,158.89617L402.17977,159.37622
				L403.85952,158.89617L404.33945,157.45603L405.05934,156.97598L405.77923,158.65615L406.0192,159.37622L406.97905,159.61625L
				407.45898,159.61625L408.17887,159.61625L408.17887,159.1362L408.41884,158.1761L408.89877,158.1761L409.85862,159.37622L411.05844,159.61625
				L412.0183,159.85627L412.49823,160.57634L413.21812,161.53644L413.93801,162.01649L414.89787,162.01649L415.61776,162.01649L
				417.05754,161.77647L418.25736,162.01649L419.45718,162.25652L420.17708,162.73656L420.657,163.69666L420.89697,164.41673L421.13693,165.37683
				L421.85683,166.33693L422.57672,167.53705L422.81668,168.49715L422.57672,169.21722L422.57672,170.17732L423.05665,171.13742
				L423.29661,171.13742L423.77654,173.05761L424.0165,174.25774L426.17618,174.97781L428.33585,175.93791L430.0156,175.93791L430.7355,176.89801
				L429.77564,179.05823L430.0156,181.69849L430.97546,183.61869L431.21542,184.09874L430.7355,184.57879L430.0156,185.53888L428.57582,187.21906
				L426.17618,187.6991L424.25647,185.53888L423.29661,184.09874L423.05665,184.33876L422.81668,184.33876L421.61686,184.09874L
				420.17708,183.61869L418.97726,183.37866L418.0174,183.37866L417.29751,183.85871L416.81758,184.57879L416.09769,184.81881L415.13783,184.33876
				L413.69805,183.13864L412.73819,182.41857L412.0183,182.65859L411.05844,182.65859L411.05844,181.93852L411.05844,181.45847L
				411.05844,180.49837L410.57851,180.01832L410.09859,179.7783L409.13873,180.01832L408.41884,180.25835L407.21902,181.21845L406.73909,181.21845
				L405.77923,180.49837L404.81938,180.25835L404.09948,179.53827L404.09948,178.8182L404.33945,178.09813L404.33945,176.89801L
				403.61956,175.93791L401.93981,173.53766L400.50002,171.37744L399.06024,169.21722L398.10038,168.25713L396.6606,167.53705L394.98085,167.057
				L394.74089,168.0171L394.26096,170.17732L393.78103,172.81759L393.3011,174.97781L392.82117,175.93791L392.58121,177.61808L391.62135,178.33815
				L390.90146,179.53827L389.9416,180.49837L389.22171,181.69849L388.74178,183.37866L388.02189,186.01893L386.34214,184.81881L
				384.90236,183.85871L383.70254,181.69849L382.74268,180.97842L381.78283,180.25835L381.3029,179.29825L380.10308,177.61808L379.62315,176.89801
				L378.66329,176.17793L377.70344,175.45786L376.98355,175.69788L376.50362,176.17793L376.74358,177.13803L376.50362,179.05823
				L376.50362,179.7783L375.54376,178.8182L374.82387,177.8581L373.86401,176.89801L373.38408,176.41796L372.66419,175.69788L370.98444,174.97781
				L370.26455,174.97781L368.82477,174.73779L367.86491,174.49776L367.14502,174.25774L366.18516,174.01771L365.46527,173.77769
				L364.74538,172.81759L364.02549,172.09752L363.78552,171.61747L363.30559,171.37744L364.26545,169.9373L364.50541,168.9772L364.98534,168.25713
				L364.74538,167.53705L364.74538,166.09691L364.26545,164.17671L362.10577,161.53644L361.62585,161.53644L360.18606,162.01649
				L358.98624,162.01649L358.50631,161.77647L357.78642,161.05639L357.30649,159.37622L356.5866,158.1761L355.62674,156.2559L355.14682,155.05578
				L354.90685,154.33571L354.66689,151.93546L354.90685,149.77524L354.90685,149.05517L355.38678,148.09507L356.34664,147.13498
				L356.34664,146.89495L357.30649,146.17488L358.74628,145.4548L360.42602,144.25468L361.86581,143.77463L362.82567,142.81454L
				363.54556,142.33449L365.22531,141.37439L367.86491,141.37439L369.54466,141.37439L370.26455,141.61441L371.9443,141.37439L372.42423,140.89434
				L373.38408,140.41429L374.5839,138.97415L375.78372,138.01405L376.50362,137.05395L377.46347,135.13375L376.98355,134.41368L
				377.70344,132.49349L379.14322,131.05334L380.34304,130.09324L381.06293,128.41307L381.54286,127.93302L381.78283,127.93302L
				382.50272,127.693L382.74268,126.97292L384.18247,126.7329L386.82207,126.49288L388.74178,126.49288L390.18157,126.97292L391.62135,127.93302
				L392.10128,129.37317L396.6606,134.41368L397.38049,135.6138L398.82028,137.534L399.78013,138.25407L400.0201,138.25407z"/>
			<path clip-path="url(#SVG_CP_1)" fill="#73B273" fill-rule="evenodd" stroke="#000000" stroke-width="0.95986" stroke-miterlimit="10" stroke-linecap="round" stroke-linejoin="round" d="
				M534.39997,248.90533L534.16001,248.90533L533.92004,249.62541L534.16001,250.82553L535.35983,253.22577L536.31968,254.18587
				L537.03958,254.90594L537.99943,255.62602L538.2394,255.86604L538.2394,256.10607L538.2394,257.06616L537.99943,258.50631L537.99943,259.46641
				L537.99943,261.14658L537.75947,262.3467L537.27954,263.78685L537.03958,264.50692L536.31968,265.94707L536.31968,266.42712L
				536.07972,267.62724L535.83976,268.58734L534.63994,270.50753L533.20015,271.46763L532.72022,271.70766L531.5204,272.66775L530.80051,272.66775
				L530.08062,273.38783L529.36073,275.54805L527.44101,277.70827L526.00123,278.42834L524.32148,278.42834L523.12166,278.66836
				L522.40177,279.62846L521.92184,280.82858L521.20195,282.26873L521.20195,283.70888L521.92184,284.66897L522.40177,285.38905
				L522.40177,286.10912L522.1618,286.58917L521.44191,286.82919L520.72202,285.8691L518.80231,284.66897L517.84245,284.66897L515.44281,285.14902
				L512.56324,284.909L511.36342,285.62907L510.1636,286.34915L508.72382,286.34915L506.8041,285.38905L507.76396,284.66897L507.524,283.22883
				L507.76396,282.02871L510.64353,275.30802L511.60339,272.42773L510.40356,272.1877L508.24389,271.22761L507.04407,271.22761L
				506.08421,271.22761L505.12436,271.22761L503.92454,271.46763L502.96468,271.94768L501.52489,272.1877L500.805,272.90778L500.08511,273.38783
				L498.40536,274.34792L491.4464,273.1478L489.52669,273.1478L488.32687,273.1478L483.76755,272.1877L482.8077,272.42773L480.16809,272.66775
				L478.00842,273.1478L477.28852,273.62785L477.04856,273.38783L475.12885,269.30741L474.64892,268.34731L473.92903,266.90717L
				473.4491,265.227L472.48924,262.58673L471.52939,261.3866L469.84964,260.66653L469.36971,259.94646L467.45,258.26629L455.69176,255.86604
				L453.29212,255.14597L452.57223,254.90594L450.41255,253.94585L447.05305,252.02565L444.89338,250.58551L442.97366,250.10546
				L441.77384,249.86543L440.57402,249.62541L439.61417,248.90533L439.13424,247.94524L438.65431,247.22516L438.17438,245.30497
				L437.93442,244.82492L436.0147,239.54438L436.0147,238.82431L435.77474,238.10423L434.33496,237.62419L433.3751,237.38416L432.65521,237.14414
				L430.97546,236.66409L429.77564,236.90411L428.33585,235.94402L427.85593,235.70399L426.17618,234.50387L424.97636,233.54377
				L421.85683,234.02382L420.41704,232.8237L418.49733,231.62358L417.05754,229.22333L416.81758,228.74328L416.33765,227.30314L
				416.33765,226.34304L416.33765,224.42284L416.09769,222.50265L415.13783,220.34243L414.17798,219.1423L412.49823,217.22211L411.77833,215.30191
				L406.73909,213.38172L403.37959,212.90167L397.38049,212.90167L396.90056,213.14169L395.94071,213.14169L395.22081,213.38172
				L394.98085,213.38172L393.78103,213.38172L393.06114,213.62174L391.62135,213.62174L391.14142,213.86177L390.6615,214.34182L
				390.18157,214.34182L389.46168,214.34182L388.98175,214.58184L388.74178,214.58184L388.02189,214.58184L387.06204,214.34182L
				385.86222,212.42162L384.6624,211.2215L382.98265,210.2614L382.26275,210.2614L381.06293,210.2614L380.82297,210.2614L380.34304,209.78135
				L379.86311,209.54133L377.22351,209.54133L376.50362,209.3013L376.26365,208.58123L376.02369,208.34121L375.06383,207.38111L
				374.82387,207.38111L373.62405,206.42101L372.90416,205.70094L372.66419,205.46091L372.42423,204.50081L372.18426,204.26079L
				370.50452,203.78074L368.34484,202.82064L367.14502,202.58062L366.42513,202.10057L365.9452,201.86055L365.22531,201.62052L364.26545,201.3805
				L364.02549,201.3805L363.06563,201.14047L362.5857,200.18037L361.86581,198.74023L361.86581,198.5002L360.66599,197.54011L358.98624,197.06006
				L357.30649,194.89984L356.5866,194.41979L354.90685,193.69972L354.18696,193.93974L352.02728,195.13986L351.30739,195.13986L
				351.06743,195.13986L351.06743,194.65981L351.06743,193.69972L352.02728,192.73962L352.74717,191.77952L352.98714,191.05945L
				353.2271,189.6193L353.2271,189.37928L353.70703,188.41918L353.70703,187.93913L353.70703,186.73901L353.2271,184.57879L353.70703,183.85871
				L353.947,183.61869L354.42692,183.13864L356.82656,181.93852L357.78642,181.69849L358.50631,181.45847L358.98624,180.7384L359.46617,179.53827
				L359.46617,178.8182L359.2262,176.89801L359.9461,175.21783L359.9461,174.73779L361.14592,173.29764L361.62585,173.05761L363.06563,171.61747
				L363.30559,171.37744L363.78552,171.61747L364.02549,172.09752L364.74538,172.81759L365.46527,173.77769L366.18516,174.01771
				L367.14502,174.25774L367.86491,174.49776L368.82477,174.73779L370.26455,174.97781L370.98444,174.97781L372.66419,175.69788
				L373.38408,176.41796L373.86401,176.89801L374.82387,177.8581L375.54376,178.8182L376.50362,179.7783L376.50362,179.05823L376.74358,177.13803
				L376.50362,176.17793L376.98355,175.69788L377.70344,175.45786L378.66329,176.17793L379.62315,176.89801L380.10308,177.61808
				L381.3029,179.29825L381.78283,180.25835L382.74268,180.97842L383.70254,181.69849L384.90236,183.85871L386.34214,184.81881L
				388.02189,186.01893L388.74178,183.37866L389.22171,181.69849L389.9416,180.49837L390.90146,179.53827L391.62135,178.33815L392.58121,177.61808
				L392.82117,175.93791L393.3011,174.97781L393.78103,172.81759L394.26096,170.17732L394.74089,168.0171L394.98085,167.057L396.6606,167.53705
				L398.10038,168.25713L399.06024,169.21722L400.50002,171.37744L401.93981,173.53766L403.61956,175.93791L404.33945,176.89801
				L404.33945,178.09813L404.09948,178.8182L404.09948,179.53827L404.81938,180.25835L405.77923,180.49837L406.73909,181.21845L
				407.21902,181.21845L408.41884,180.25835L409.13873,180.01832L410.09859,179.7783L410.57851,180.01832L411.05844,180.49837L411.05844,181.45847
				L411.05844,181.93852L411.05844,182.65859L412.0183,182.65859L412.73819,182.41857L413.69805,183.13864L415.13783,184.33876L
				416.09769,184.81881L416.81758,184.57879L417.29751,183.85871L418.0174,183.37866L418.97726,183.37866L420.17708,183.61869L421.61686,184.09874
				L422.81668,184.33876L423.05665,184.33876L423.29661,184.09874L424.25647,185.53888L426.17618,187.6991L428.57582,187.21906L
				430.0156,185.53888L430.7355,184.57879L431.21542,184.09874L430.97546,183.61869L430.0156,181.69849L429.77564,179.05823L430.7355,176.89801
				L430.0156,175.93791L428.33585,175.93791L426.17618,174.97781L424.0165,174.25774L423.77654,173.05761L423.29661,171.13742L423.05665,171.13742
				L422.57672,170.17732L422.57672,169.21722L422.81668,168.49715L422.57672,167.53705L421.85683,166.33693L421.13693,165.37683
				L420.89697,164.41673L420.657,163.69666L420.17708,162.73656L419.45718,162.25652L418.25736,162.01649L417.05754,161.77647L415.61776,162.01649
				L414.89787,162.01649L413.93801,162.01649L413.21812,161.53644L412.49823,160.57634L412.0183,159.85627L411.05844,159.61625L
				409.85862,159.37622L408.89877,158.1761L408.41884,158.1761L408.17887,159.1362L408.17887,159.61625L407.45898,159.61625L406.97905,159.61625
				L406.0192,159.37622L405.77923,158.65615L405.05934,156.97598L404.33945,157.45603L403.85952,158.89617L402.17977,159.37622L
				401.45988,158.89617L400.50002,157.69605L399.78013,156.73595L399.3002,155.53583L399.3002,154.33571L399.54017,153.13559L399.54017,151.93546
				L399.3002,151.45542L397.86042,150.49532L397.14053,150.25529L396.42063,150.01527L395.94071,150.01527L394.98085,150.49532L
				394.74089,150.97537L395.46078,152.17549L395.70074,153.37561L395.70074,154.57573L395.46078,156.01588L395.22081,157.216L394.74089,158.41612
				L394.50092,158.65615L393.06114,158.89617L392.34125,159.37622L392.10128,160.57634L391.14142,160.81637L390.18157,160.81637
				L389.46168,161.29642L388.02189,161.53644L387.54196,162.49654L387.302,163.69666L387.302,163.93669L385.86222,163.69666L384.18247,163.93669
				L384.6624,164.65676L384.6624,165.61686L384.6624,166.09691L383.70254,166.09691L382.26275,166.57695L381.3029,166.57695L380.34304,166.57695
				L380.10308,166.57695L378.42333,165.37683L377.22351,164.41673L376.26365,163.93669L376.50362,163.69666L376.98355,163.21661
				L377.22351,162.49654L377.46347,162.01649L377.9434,161.53644L378.90326,161.29642L379.62315,160.81637L380.10308,159.85627L
				380.34304,159.37622L380.82297,158.65615L381.3029,158.1761L382.02279,157.69605L382.50272,157.45603L382.50272,156.97598L382.74268,156.2559
				L382.50272,155.77586L382.50272,155.53583L382.26275,155.05578L382.26275,154.57573L382.26275,154.33571L382.74268,153.85566
				L382.98265,153.13559L383.22261,152.89556L383.46257,151.93546L383.70254,151.45542L384.18247,150.73534L384.6624,150.49532L
				385.14232,150.01527L385.14232,149.53522L385.14232,149.2952L384.90236,148.57512L384.90236,147.85505L384.90236,146.4149L384.6624,145.21478
				L384.6624,144.01466L384.90236,143.77463L385.38229,143.53461L385.86222,143.53461L386.10218,143.05456L386.34214,142.09446L
				386.58211,141.61441L387.54196,141.85444L388.74178,141.61441L389.46168,141.13437L390.6615,140.89434L391.86132,140.65432L393.06114,140.41429
				L394.26096,139.69422L395.22081,139.93424L396.18067,139.93424L396.90056,140.17427L397.86042,140.41429L398.58031,141.37439
				L398.82028,141.37439L399.78013,141.61441L400.73999,141.85444L401.93981,142.09446L402.17977,143.29459L402.6597,144.01466L
				403.37959,144.97476L403.61956,145.69483L404.57941,146.4149L405.2993,146.89495L406.0192,147.61502L406.25916,148.09507L406.49913,149.05517
				L406.73909,149.53522L407.45898,150.25529L408.6588,150.97537L409.61866,151.45542L410.33855,151.93546L410.81848,152.89556L
				411.53837,153.37561L412.49823,153.61564L413.21812,152.89556L413.69805,151.93546L414.17798,151.21539L414.41794,150.49532L
				414.6579,150.25529L415.13783,149.77524L415.85772,149.77524L417.77744,150.73534L419.69715,150.25529L421.13693,150.73534L423.53657,151.45542
				L423.53657,154.33571L424.25647,154.57573L425.21632,153.61564L426.41614,151.93546L427.85593,150.49532L428.81578,147.85505
				L431.21542,147.85505L432.17528,146.89495L433.85503,146.17488L435.77474,147.13498L436.7346,148.3351L437.69445,147.375L439.61417,148.57512
				L441.77384,149.2952L442.97366,148.81515L444.41345,149.53522L446.0932,150.73534L447.05305,153.85566L447.29302,156.49593L448.97276,160.81637
				L449.21273,162.97659L451.85233,165.61686L455.45179,167.77708L457.85143,169.9373L460.49104,172.33754L461.21093,176.17793L
				463.13064,179.29825L463.85054,182.89862L463.85054,186.49898L465.29032,190.5794L466.97007,192.49959L469.60967,196.82003L473.68906,199.70033
				L476.32867,204.02077L478.96827,206.90106L484.96737,210.2614L487.84694,212.1816L492.40626,214.82187L496.00572,216.02199L499.36522,218.18221
				L502.48475,219.86238L505.60428,221.54255L508.72382,224.18282L511.12346,228.02321L513.5231,231.38355L515.92274,234.26384L
				517.84245,236.66409L518.80231,239.78441L520.24209,241.7046L520.48206,241.94463L521.68188,243.38477L522.40177,244.10485L524.08152,241.46458
				L525.76126,239.30436L526.96109,238.58428L528.64083,239.30436L530.08062,240.98453L531.28044,242.42467L532.72022,243.86482
				L533.44011,246.74511L534.39997,248.90533z"/>
		</g>
		<g id="Labels">
			<g id="NEPAL_WARDS_-_Default">
				<g font-family="'Arial'" font-size="1" kerning="0" font-weight="400" fill="#000000" clip-path="url(#SVG_CP_1)" >
					<text text-anchor="start" transform="matrix(11.9982 0 0 12.00122 411.41839 284.28597)" >
						<tspan direction="ltr" unicode-bidi="embed" x="0 ">6</tspan>
					</text>
				</g>
				<g font-family="'Arial'" font-size="1" kerning="0" font-weight="400" fill="#000000" clip-path="url(#SVG_CP_1)" >
					<text text-anchor="start" transform="matrix(11.9982 0 0 12.00122 479.08825 140.03128)" >
						<tspan direction="ltr" unicode-bidi="embed" x="0 ">7</tspan>
					</text>
				</g>
				<g font-family="'Arial'" font-size="1" kerning="0" font-weight="400" fill="#000000" clip-path="url(#SVG_CP_1)" >
					<text text-anchor="start" transform="matrix(11.9982 0 0 12.00122 439.25422 212.03861)" >
						<tspan direction="ltr" unicode-bidi="embed" x="0 ">8</tspan>
					</text>
				</g>
				<g font-family="'Arial'" font-size="1" kerning="0" font-weight="400" fill="#000000" clip-path="url(#SVG_CP_1)" >
					<text text-anchor="start" transform="matrix(11.9982 0 0 12.00122 405.41929 96.58686)" >
						<tspan direction="ltr" unicode-bidi="embed" x="0 ">3</tspan>
					</text>
				</g>
				<g font-family="'Arial'" font-size="1" kerning="0" font-weight="400" fill="#000000" clip-path="url(#SVG_CP_1)" >
					<text text-anchor="start" transform="matrix(11.9982 0 0 12.00122 344.94834 116.02884)" >
						<tspan direction="ltr" unicode-bidi="embed" x="0 ">2</tspan>
					</text>
				</g>
				<g font-family="'Arial'" font-size="1" kerning="0" font-weight="400" fill="#000000" clip-path="url(#SVG_CP_1)" >
					<text text-anchor="start" transform="matrix(11.9982 0 0 12.00122 324.5514 298.44741)" >
						<tspan direction="ltr" unicode-bidi="embed" x="0 ">5</tspan>
					</text>
				</g>
				<g font-family="'Arial'" font-size="1" kerning="0" font-weight="400" fill="#000000" clip-path="url(#SVG_CP_1)" >
					<text text-anchor="start" transform="matrix(11.9982 0 0 12.00122 311.11341 188.27619)" >
						<tspan direction="ltr" unicode-bidi="embed" x="0 ">1</tspan>
					</text>
				</g>
				<g font-family="'Arial'" font-size="1" kerning="0" font-weight="400" fill="#000000" clip-path="url(#SVG_CP_1)" >
					<text text-anchor="start" transform="matrix(11.9982 0 0 12.00122 367.02504 162.11353)" >
						<tspan direction="ltr" unicode-bidi="embed" x="0 ">9</tspan>
					</text>
				</g>
				<g font-family="'Arial'" font-size="1" kerning="0" font-weight="400" fill="#000000" clip-path="url(#SVG_CP_1)" >
					<text text-anchor="start" transform="matrix(11.9982 0 0 12.00122 261.68081 232.20067)" >
						<tspan direction="ltr" unicode-bidi="embed" x="0 ">4</tspan>
					</text>
				</g>
			</g>
		</g>
	</g>
</svg>
