<?xml version="1.0" encoding="utf-8" standalone="no"?>
<!-- Creator: Esri ArcMap 10.6.1.9270 -->
<!DOCTYPE svg PUBLIC "-//W3C//DTD SVG 1.1//EN"  "http://www.w3.org/Graphics/SVG/1.1/DTD/svg11.dtd">
<svg width="813.74173pt" height="434.23937pt" viewBox="0 0 813.74173 434.23937" enable-background="new 0 0 813.74173 434.23937"
	version="1.1" xmlns="http://www.w3.org/2000/svg" xmlns:xlink="http://www.w3.org/1999/xlink" >
	<g id="Layers">
		<g id="WordFile">
			<clipPath id="SVG_CP_1">
				<path d="M0,434.23937L0,0L813.74173,0L813.74173,434.23937L0,434.23937z"/>
			</clipPath>
			<path clip-path="url(#SVG_CP_1)" fill="#73B273" fill-rule="evenodd" stroke="#000000" stroke-width="0.95986" stroke-miterlimit="10" stroke-linecap="round" stroke-linejoin="round" d="
				M434.33496,117.852L434.57492,118.57207L435.53478,120.01222L435.53478,120.73229L435.29481,121.21234L435.05485,121.69239L433.85503,122.17244
				L433.13514,122.41246L432.17528,122.65248L431.21542,122.89251L429.77564,122.65248L428.57582,122.65248L428.09589,122.65248
				L427.13603,122.41246L425.69625,121.93241L425.21632,121.93241L424.97636,121.93241L424.0165,122.89251L423.77654,124.09263L
				423.53657,125.53278L423.29661,126.25285L422.33675,127.45297L420.17708,129.13314L419.69715,129.85322L419.21722,130.57329L
				418.97726,130.81331L418.73729,132.01344L418.49733,132.25346L418.25736,133.45358L418.25736,133.93363L418.73729,135.13375L
				419.21722,135.6138L421.13693,137.05395L422.09679,138.97415L422.57672,140.41429L423.05665,141.13437L423.53657,142.81454L424.25647,144.01466
				L424.97636,144.73473L425.45629,145.4548L425.69625,146.17488L425.21632,147.61502L424.97636,148.3351L424.97636,148.81515L424.73639,149.2952
				L424.0165,150.97537L424.0165,151.93546L422.81668,151.93546L422.09679,152.17549L421.3769,152.17549L420.17708,151.93546L419.21722,151.93546
				L418.25736,152.17549L417.77744,151.93546L416.81758,151.93546L414.41794,151.93546L413.69805,151.93546L411.53837,152.17549
				L408.41884,152.41551L406.49913,152.41551L406.49913,151.21539L406.25916,150.01527L406.0192,149.53522L406.0192,148.81515L405.77923,148.09507
				L405.2993,143.05456L405.05934,142.33449L405.05934,141.85444L404.81938,137.05395L404.33945,134.89373L404.09948,133.69361L
				404.09948,132.49349L404.33945,130.81331L404.33945,129.37317L405.05934,126.01283L405.53927,123.61258L406.73909,120.49226L
				407.45898,117.61197L408.41884,114.73168L409.85862,112.09141L410.33855,111.61136L410.57851,110.65126L410.81848,109.93119L
				412.97815,106.33082L414.41794,103.93058L414.89787,103.45053L416.09769,102.01038L417.29751,99.85016L418.49733,97.44992L419.21722,95.76975
				L419.45718,95.2897L420.17708,93.60953L420.41704,93.12948L420.41704,91.44931L420.89697,90.48921L421.13693,89.04906L421.3769,88.56902
				L421.3769,88.32899L421.85683,87.60892L422.09679,86.16877L422.09679,84.24858L422.33675,82.80843L422.09679,82.32838L421.85683,81.12826
				L421.61686,79.68811L421.61686,79.20806L421.85683,78.96804L422.33675,78.72801L423.05665,78.24796L423.77654,77.76792L424.25647,77.52789
				L425.69625,77.04784L426.89607,76.80782L430.0156,76.56779L430.0156,76.80782L430.0156,77.76792L430.25557,78.24796L430.49553,78.72801
				L431.45539,80.16816L431.45539,80.88823L431.45539,81.36828L430.97546,82.08836L430.7355,83.04845L430.49553,84.4886L429.77564,86.88884
				L429.53568,87.84894L429.29571,88.80904L429.53568,89.52911L430.0156,91.20928L430.49553,92.40941L430.97546,92.88945L432.65521,93.60953
				L433.3751,93.84955L434.09499,93.84955L434.57492,93.84955L434.81488,94.08958L435.05485,94.80965L434.57492,96.00977L434.81488,98.16999
				L434.81488,99.37011L434.57492,100.09019L434.09499,100.81026L433.85503,101.05029L433.13514,101.77036L432.65521,102.25041L
				432.41524,102.97048L432.65521,103.69055L433.13514,104.1706L433.85503,104.41063L434.81488,104.65065L435.29481,104.65065L435.77474,105.1307
				L436.25467,105.85077L436.25467,106.57085L435.77474,107.0509L435.53478,107.53095L435.05485,108.01099L433.61506,108.97109L
				433.3751,109.93119L433.3751,110.65126L433.3751,111.37134L433.85503,112.57146L434.09499,113.05151L433.85503,116.65187L434.09499,117.61197
				L434.33496,117.852z"/>
			<path clip-path="url(#SVG_CP_1)" fill="#73B273" fill-rule="evenodd" stroke="#000000" stroke-width="0.95986" stroke-miterlimit="10" stroke-linecap="round" stroke-linejoin="round" d="
				M434.33496,171.37744L434.57492,171.61747L435.05485,172.09752L435.05485,172.33754L435.29481,174.49776L435.53478,174.97781
				L435.77474,175.21783L437.21453,176.41796L438.65431,177.13803L439.13424,177.37805L439.85413,178.09813L440.33406,178.33815
				L440.81399,178.57818L441.05395,179.05823L441.05395,179.53827L440.09409,180.49837L439.61417,181.21845L439.61417,181.69849
				L439.85413,182.41857L440.33406,183.61869L440.81399,185.05884L440.81399,186.25896L439.3742,186.01893L436.97456,186.01893L
				436.0147,185.77891L435.05485,185.77891L429.53568,185.05884L426.65611,185.05884L422.81668,185.29886L421.13693,185.77891L419.21722,186.25896
				L418.25736,186.73901L417.05754,187.45908L415.85772,188.17915L414.89787,188.6592L413.45808,189.37928L410.57851,191.5395L409.85862,191.77952
				L409.37869,192.25957L407.69895,192.97964L406.73909,193.21967L406.49913,193.21967L406.25916,192.97964L406.25916,189.13925
				L400.26006,190.09935L398.58031,190.09935L397.86042,190.09935L396.18067,190.33937L395.46078,192.01954L395.46078,192.73962
				L394.98085,194.17976L394.98085,195.13986L392.82117,195.13986L389.70164,195.37989L389.22171,195.13986L389.9416,191.29947L
				390.18157,188.17915L390.18157,187.21906L390.18157,185.29886L390.42153,182.89862L389.9416,178.8182L389.70164,177.8581L389.70164,176.65798
				L389.22171,174.49776L390.90146,174.49776L391.86132,174.73779L393.06114,174.97781L393.78103,175.21783L394.26096,175.45786
				L396.90056,175.69788L398.34035,175.69788L399.3002,175.93791L400.97995,176.17793L401.45988,175.21783L401.93981,174.73779L
				402.41974,174.49776L403.85952,174.25774L405.53927,174.25774L405.77923,174.49776L407.69895,174.49776L408.41884,174.49776L
				409.13873,174.73779L410.09859,173.53766L410.57851,171.13742L412.0183,171.61747L412.73819,171.85749L414.89787,171.85749L416.33765,171.85749
				L416.81758,171.61747L418.0174,171.13742L419.21722,170.89739L420.17708,170.65737L422.81668,170.89739L424.25647,171.13742L
				424.73639,171.37744L425.21632,171.85749L425.69625,172.57757L426.41614,173.05761L427.13603,173.29764L428.57582,173.29764L
				430.49553,173.29764L431.21542,173.05761L432.89517,172.57757L433.85503,171.85749L434.33496,171.37744z"/>
			<path clip-path="url(#SVG_CP_1)" fill="#73B273" fill-rule="evenodd" stroke="#000000" stroke-width="0.95986" stroke-miterlimit="10" stroke-linecap="round" stroke-linejoin="round" d="
				M440.81399,186.25896L440.57402,186.97903L440.09409,188.17915L439.85413,188.41918L439.61417,188.89923L439.3742,189.85932L
				439.61417,190.33937L440.09409,191.29947L440.33406,191.5395L442.7337,191.77952L443.45359,192.25957L443.93352,192.49959L444.41345,192.97964
				L445.13334,193.45969L446.0932,193.93974L447.05305,195.37989L447.05305,195.85994L446.81309,196.58001L446.0932,197.06006L445.61327,197.06006
				L443.93352,197.06006L443.45359,197.30008L442.01381,197.06006L440.57402,197.06006L439.85413,197.30008L439.3742,197.54011L
				439.13424,197.78013L439.13424,198.02016L439.13424,198.5002L439.3742,198.74023L441.05395,199.22028L442.97366,199.94035L444.41345,200.90045
				L445.61327,201.14047L447.29302,202.10057L447.53298,202.10057L448.25287,202.58062L448.7328,203.06067L448.7328,203.54072L448.49284,204.26079
				L447.77294,204.50081L445.13334,204.50081L444.17348,204.98086L442.97366,205.70094L442.7337,205.94096L442.49373,206.66103L
				442.7337,207.62113L443.21363,207.86116L443.45359,207.86116L444.41345,207.62113L446.0932,206.42101L446.81309,206.42101L447.29302,206.42101
				L447.77294,206.18099L448.7328,206.18099L449.21273,206.42101L449.45269,206.90106L450.17258,209.06128L450.41255,209.3013L451.13244,209.54133
				L451.61237,209.54133L452.33226,209.3013L452.57223,209.3013L454.01201,208.82125L454.7319,208.82125L455.45179,209.3013L455.93172,210.02138
				L456.65161,210.98147L456.89158,211.70155L457.13154,212.42162L457.13154,212.90167L456.17169,214.58184L455.93172,216.02199
				L455.93172,219.1423L455.69176,220.1024L454.97187,221.30252L454.7319,222.26262L454.7319,222.50265L454.97187,223.94279L456.65161,227.30314
				L457.13154,228.50326L456.89158,229.9434L456.65161,230.42345L456.17169,231.38355L455.69176,231.8636L454.97187,232.10362L454.49194,232.10362
				L453.77205,231.62358L453.53208,231.8636L452.57223,232.10362L452.0923,232.58367L452.0923,232.8237L452.0923,233.7838L452.33226,234.50387
				L454.25197,238.58428L454.25197,238.82431L454.25197,239.54438L453.77205,239.78441L453.05215,240.26445L451.61237,240.50448
				L450.65251,240.98453L450.17258,241.46458L449.21273,243.14475L445.85323,242.42467L443.69355,242.18465L438.17438,242.42467
				L436.49463,242.6647L435.29481,242.90472L433.61506,242.90472L430.49553,243.38477L429.53568,243.38477L426.17618,243.14475L
				424.97636,243.14475L419.93711,242.18465L419.21722,242.18465L418.73729,242.18465L418.0174,240.02443L417.77744,235.46397L417.53747,233.30375
				L417.29751,229.9434L417.53747,229.70338L417.05754,220.58245L416.81758,218.66226L416.57762,217.46213L416.57762,215.78196L
				416.57762,215.54194L416.57762,215.06189L416.33765,214.82187L416.09769,210.74145L416.09769,209.54133L416.09769,208.58123L
				416.09769,205.94096L415.61776,202.34059L415.3778,201.3805L415.13783,199.22028L414.89787,195.61991L414.41794,193.21967L414.17798,191.77952
				L413.93801,190.5794L413.45808,189.37928L414.89787,188.6592L415.85772,188.17915L417.05754,187.45908L418.25736,186.73901L419.21722,186.25896
				L421.13693,185.77891L422.81668,185.29886L426.65611,185.05884L429.53568,185.05884L435.05485,185.77891L436.0147,185.77891L
				436.97456,186.01893L439.3742,186.01893L440.81399,186.25896z"/>
			<path clip-path="url(#SVG_CP_1)" fill="#73B273" fill-rule="evenodd" stroke="#000000" stroke-width="0.95986" stroke-miterlimit="10" stroke-linecap="round" stroke-linejoin="round" d="
				M413.45808,189.37928L413.93801,190.5794L414.17798,191.77952L414.41794,193.21967L414.89787,195.61991L415.13783,199.22028L
				415.3778,201.3805L415.61776,202.34059L413.93801,202.34059L413.21812,202.34059L412.73819,202.10057L411.05844,201.86055L408.6588,202.34059
				L407.93891,202.34059L404.57941,201.62052L402.6597,200.66042L400.97995,199.94035L398.58031,199.4603L396.6606,199.22028L394.98085,199.4603
				L394.50092,200.66042L394.02099,203.06067L393.78103,205.22089L393.54107,206.42101L393.06114,207.62113L392.58121,210.02138
				L392.10128,212.1816L391.62135,213.62174L391.62135,213.86177L391.14142,215.30191L390.18157,217.70216L389.9416,219.38233L389.46168,220.58245
				L389.22171,221.54255L388.26186,223.46274L387.54196,221.54255L387.54196,221.0625L385.62225,216.74206L385.38229,216.02199L
				385.38229,213.86177L385.38229,212.66165L385.38229,210.50143L385.62225,206.66103L386.34214,204.26079L386.82207,203.06067L
				387.06204,202.82064L387.302,202.34059L388.02189,200.66042L388.98175,196.58001L389.22171,195.13986L389.70164,195.37989L392.82117,195.13986
				L394.98085,195.13986L394.98085,194.17976L395.46078,192.73962L395.46078,192.01954L396.18067,190.33937L397.86042,190.09935
				L398.58031,190.09935L400.26006,190.09935L406.25916,189.13925L406.25916,192.97964L406.49913,193.21967L406.73909,193.21967
				L407.69895,192.97964L409.37869,192.25957L409.85862,191.77952L410.57851,191.5395L413.45808,189.37928z"/>
			<path clip-path="url(#SVG_CP_1)" fill="#73B273" fill-rule="evenodd" stroke="#000000" stroke-width="0.95986" stroke-miterlimit="10" stroke-linecap="round" stroke-linejoin="round" d="
				M415.61776,202.34059L416.09769,205.94096L416.09769,208.58123L416.09769,209.54133L416.09769,210.74145L416.33765,214.82187
				L416.57762,215.06189L416.57762,215.54194L416.57762,215.78196L416.57762,217.46213L416.81758,218.66226L417.05754,220.58245
				L417.53747,229.70338L417.29751,229.9434L417.53747,233.30375L417.77744,235.46397L418.0174,240.02443L418.73729,242.18465L417.29751,242.18465
				L416.09769,242.18465L415.13783,241.94463L414.6579,241.7046L414.17798,241.22455L413.21812,240.26445L412.25826,239.78441L410.33855,239.78441
				L409.37869,239.78441L406.97905,239.78441L406.25916,239.78441L405.05934,239.78441L402.6597,239.78441L400.50002,239.30436L
				399.06024,239.54438L398.10038,239.30436L397.62045,239.06433L396.6606,238.58428L395.94071,238.34426L395.22081,237.86421L394.50092,237.62419
				L393.78103,234.74389L392.58121,232.34365L391.86132,230.66348L389.70164,226.34304L388.26186,223.46274L389.22171,221.54255
				L389.46168,220.58245L389.9416,219.38233L390.18157,217.70216L391.14142,215.30191L391.62135,213.86177L391.62135,213.62174L
				392.10128,212.1816L392.58121,210.02138L393.06114,207.62113L393.54107,206.42101L393.78103,205.22089L394.02099,203.06067L394.50092,200.66042
				L394.98085,199.4603L396.6606,199.22028L398.58031,199.4603L400.97995,199.94035L402.6597,200.66042L404.57941,201.62052L407.93891,202.34059
				L408.6588,202.34059L411.05844,201.86055L412.73819,202.10057L413.21812,202.34059L413.93801,202.34059L415.61776,202.34059z
				"/>
			<path clip-path="url(#SVG_CP_1)" fill="#73B273" fill-rule="evenodd" stroke="#000000" stroke-width="0.95986" stroke-miterlimit="10" stroke-linecap="round" stroke-linejoin="round" d="
				M389.22171,195.13986L388.98175,196.58001L388.02189,200.66042L387.302,202.34059L387.06204,202.82064L386.82207,203.06067L386.34214,204.26079
				L385.62225,206.66103L385.38229,210.50143L385.38229,212.66165L385.38229,213.86177L385.38229,216.02199L384.42243,216.02199
				L383.70254,215.78196L382.98265,215.78196L381.3029,215.54194L380.58301,215.54194L380.10308,215.30191L378.66329,215.30191L
				376.98355,214.82187L375.78372,214.58184L374.5839,214.58184L371.9443,214.10179L368.82477,213.14169L365.22531,212.90167L364.98534,213.14169
				L364.50541,212.90167L362.82567,212.90167L360.18606,212.42162L358.98624,212.1816L358.50631,212.1816L357.78642,212.1816L357.30649,211.94157
				L356.5866,211.94157L355.14682,212.1816L354.66689,212.42162L354.66689,212.66165L354.66689,215.54194L354.42692,216.98209L354.18696,217.22211
				L353.46707,217.46213L352.98714,217.46213L352.26725,217.22211L351.06743,217.22211L350.5875,217.22211L349.38768,216.98209L
				348.90775,217.22211L348.66779,217.46213L348.66779,218.18221L348.90775,219.1423L349.62764,220.82248L350.34753,222.26262L350.34753,222.50265
				L350.34753,222.74267L350.10757,222.74267L348.90775,222.74267L347.228,222.9827L345.78822,222.74267L343.8685,222.50265L343.38858,222.50265
				L341.70883,222.9827L338.34933,222.9827L337.14951,222.9827L334.74987,222.9827L333.55005,222.74267L333.07012,222.74267L330.67048,223.22272
				L329.47066,223.70277L328.5108,224.90289L328.03088,225.62296L327.07102,228.98331L326.59109,230.9035L326.35113,231.14353L326.35113,231.62358
				L325.8712,233.30375L325.8712,234.98392L325.63124,236.42406L325.63124,237.62419L325.39127,239.30436L324.91134,239.78441L324.19145,240.02443
				L323.47156,239.78441L322.99163,239.54438L322.5117,239.30436L322.5117,238.34426L321.79181,237.86421L320.83195,237.38416L319.8721,237.38416
				L318.91224,237.62419L318.19235,238.34426L317.71242,238.82431L316.27264,239.54438L315.79271,239.78441L314.59289,240.02443
				L314.11296,240.26445L311.23339,240.26445L310.03357,240.26445L309.07372,240.26445L307.87389,240.7445L307.154,240.98453L306.91404,240.7445
				L305.71422,240.7445L304.5144,240.50448L303.31458,240.50448L302.35472,240.50448L302.11476,239.78441L302.35472,239.30436L302.59469,238.34426
				L303.07461,237.62419L303.31458,236.18404L303.55454,234.74389L303.55454,232.8237L303.31458,232.34365L302.83465,231.62358L
				302.35472,231.62358L301.63483,231.8636L300.67497,232.8237L300.19504,233.06372L299.95508,233.06372L299.47515,233.06372L299.23519,232.58367
				L298.99522,231.8636L299.47515,229.9434L299.71512,229.22333L299.71512,228.26323L299.23519,226.58306L299.23519,225.62296L299.47515,224.90289
				L300.19504,224.18282L300.67497,223.70277L300.91494,223.22272L301.1549,222.50265L301.39486,221.54255L301.39486,219.86238L
				300.91494,219.1423L300.43501,218.18221L300.43501,217.70216L300.43501,217.22211L300.67497,216.50204L300.67497,216.02199L301.1549,214.34182
				L301.39486,213.86177L301.87479,212.42162L302.83465,212.1816L303.55454,211.94157L304.03447,211.70155L304.99433,210.98147L
				306.43411,210.02138L307.87389,209.06128L307.87389,208.82125L308.11386,208.34121L308.59379,207.86116L309.55364,207.38111L
				311.71332,205.70094L314.59289,204.02077L315.07282,203.54072L316.75257,202.58062L318.91224,201.3805L319.8721,200.90045L320.11206,200.90045
				L320.35203,200.66042L320.59199,200.66042L323.47156,198.98025L328.03088,197.06006L332.83016,195.61991L334.02998,195.37989
				L334.50991,195.13986L340.98894,194.41979L342.90865,194.17976L343.62854,194.17976L346.74807,194.17976L348.18786,194.17976
				L349.38768,194.17976L349.38768,194.41979L351.06743,194.17976L352.98714,193.93974L357.06653,193.93974L358.26635,193.93974
				L359.9461,193.69972L362.34574,193.93974L363.30559,194.17976L365.22531,193.93974L365.9452,194.17976L368.10487,194.17976L369.54466,194.41979
				L370.98444,194.65981L374.10398,194.65981L374.82387,194.65981L375.78372,194.65981L378.42333,194.89984L379.38319,195.13986
				L381.78283,195.13986L382.26275,195.13986L382.50272,195.37989L384.42243,195.37989L385.86222,195.13986L388.26186,195.13986
				L389.22171,195.13986z"/>
			<path clip-path="url(#SVG_CP_1)" fill="#73B273" fill-rule="evenodd" stroke="#000000" stroke-width="0.95986" stroke-miterlimit="10" stroke-linecap="round" stroke-linejoin="round" d="
				M385.38229,216.02199L385.62225,216.74206L387.54196,221.0625L387.54196,221.54255L388.26186,223.46274L384.90236,231.14353L
				384.18247,232.34365L383.22261,234.98392L382.98265,235.94402L382.26275,237.14414L382.02279,238.58428L380.58301,241.22455L
				380.58301,241.46458L379.62315,243.38477L378.90326,245.30497L377.22351,248.18526L376.98355,248.90533L376.50362,250.10546L
				375.78372,252.26568L375.3038,252.74573L374.82387,254.18587L373.86401,255.86604L373.86401,256.10607L373.62405,256.58612L373.14412,256.82614
				L372.66419,258.50631L372.66419,258.98636L372.42423,260.42651L371.46437,261.86665L370.02459,264.74695L369.54466,266.18709
				L369.3047,267.14719L369.06473,267.38722L368.5848,268.58734L368.10487,270.74756L367.38498,272.90778L365.70523,278.90839L365.70523,280.34853
				L365.46527,281.06861L365.22531,286.34915L364.50541,288.26934L364.26545,288.98941L362.5857,288.74939L361.14592,288.74939L
				359.46617,288.26934L355.86671,287.30924L354.90685,286.82919L349.86761,285.14902L349.14771,284.909L346.74807,283.22883L345.54825,282.26873
				L344.5884,280.58856L344.10847,279.62846L343.8685,278.42834L343.62854,277.94829L343.8685,276.50814L344.5884,274.58795L344.82836,274.34792
				L344.82836,273.86787L342.18876,273.38783L340.50901,273.38783L338.58929,272.90778L335.46976,272.42773L330.19055,271.70766
				L329.47066,271.70766L328.27084,271.46763L328.03088,271.46763L324.67138,271.22761L322.5117,271.46763L320.35203,271.70766L
				319.15221,271.70766L317.71242,271.70766L317.23249,271.46763L316.03267,270.98758L314.83285,270.26751L314.11296,269.54744L
				310.5135,265.227L310.5135,264.02687L310.27354,263.78685L309.79361,263.3068L309.31368,263.06678L307.87389,262.82675L307.63393,262.82675
				L307.87389,262.58673L308.35382,262.3467L309.31368,259.70643L309.55364,258.74634L309.55364,258.02626L309.31368,256.10607L
				309.07372,255.14597L308.83375,254.4259L308.11386,253.22577L307.87389,253.22577L307.87389,252.74573L307.63393,252.26568L306.67407,250.58551
				L306.43411,250.10546L305.47425,247.94524L304.75436,246.98514L304.5144,245.30497L304.03447,243.86482L303.79451,243.38477L
				302.59469,241.46458L302.35472,240.50448L303.31458,240.50448L304.5144,240.50448L305.71422,240.7445L306.91404,240.7445L307.154,240.98453
				L307.87389,240.7445L309.07372,240.26445L310.03357,240.26445L311.23339,240.26445L314.11296,240.26445L314.59289,240.02443L
				315.79271,239.78441L316.27264,239.54438L317.71242,238.82431L318.19235,238.34426L318.91224,237.62419L319.8721,237.38416L320.83195,237.38416
				L321.79181,237.86421L322.5117,238.34426L322.5117,239.30436L322.99163,239.54438L323.47156,239.78441L324.19145,240.02443L324.91134,239.78441
				L325.39127,239.30436L325.63124,237.62419L325.63124,236.42406L325.8712,234.98392L325.8712,233.30375L326.35113,231.62358L326.35113,231.14353
				L326.59109,230.9035L327.07102,228.98331L328.03088,225.62296L328.5108,224.90289L329.47066,223.70277L330.67048,223.22272L333.07012,222.74267
				L333.55005,222.74267L334.74987,222.9827L337.14951,222.9827L338.34933,222.9827L341.70883,222.9827L343.38858,222.50265L343.8685,222.50265
				L345.78822,222.74267L347.228,222.9827L348.90775,222.74267L350.10757,222.74267L350.34753,222.74267L350.34753,222.50265L350.34753,222.26262
				L349.62764,220.82248L348.90775,219.1423L348.66779,218.18221L348.66779,217.46213L348.90775,217.22211L349.38768,216.98209L
				350.5875,217.22211L351.06743,217.22211L352.26725,217.22211L352.98714,217.46213L353.46707,217.46213L354.18696,217.22211L354.42692,216.98209
				L354.66689,215.54194L354.66689,212.66165L354.66689,212.42162L355.14682,212.1816L356.5866,211.94157L357.30649,211.94157L357.78642,212.1816
				L358.50631,212.1816L358.98624,212.1816L360.18606,212.42162L362.82567,212.90167L364.50541,212.90167L364.98534,213.14169L365.22531,212.90167
				L368.82477,213.14169L371.9443,214.10179L374.5839,214.58184L375.78372,214.58184L376.98355,214.82187L378.66329,215.30191L380.10308,215.30191
				L380.58301,215.54194L381.3029,215.54194L382.98265,215.78196L383.70254,215.78196L384.42243,216.02199L385.38229,216.02199z
				"/>
			<path clip-path="url(#SVG_CP_1)" fill="#73B273" fill-rule="evenodd" stroke="#000000" stroke-width="0.95986" stroke-miterlimit="10" stroke-linecap="round" stroke-linejoin="round" d="
				M394.50092,237.62419L394.50092,238.82431L394.50092,239.54438L393.78103,241.22455L393.06114,243.14475L392.82117,244.82492
				L392.82117,245.78502L392.58121,246.98514L392.10128,247.46519L391.86132,248.66531L391.38139,251.30558L391.14142,252.74573
				L390.90146,253.4658L390.6615,256.58612L389.46168,260.18648L388.50182,263.06678L388.02189,264.2669L388.02189,266.42712L387.78193,267.62724
				L387.302,269.06739L386.34214,271.46763L386.10218,272.42773L385.86222,273.1478L385.14232,276.74817L384.90236,277.22822L384.42243,278.90839
				L383.9425,280.58856L383.46257,282.9888L382.98265,284.18893L382.50272,286.82919L382.50272,287.78929L382.50272,289.22944L382.50272,289.70949
				L382.02279,289.94951L380.82297,290.18954L377.46347,289.94951L374.10398,289.94951L372.90416,289.94951L367.38498,290.18954
				L366.66509,289.94951L364.50541,289.46946L364.26545,288.98941L364.50541,288.26934L365.22531,286.34915L365.46527,281.06861
				L365.70523,280.34853L365.70523,278.90839L367.38498,272.90778L368.10487,270.74756L368.5848,268.58734L369.06473,267.38722L
				369.3047,267.14719L369.54466,266.18709L370.02459,264.74695L371.46437,261.86665L372.42423,260.42651L372.66419,258.98636L372.66419,258.50631
				L373.14412,256.82614L373.62405,256.58612L373.86401,256.10607L373.86401,255.86604L374.82387,254.18587L375.3038,252.74573L
				375.78372,252.26568L376.50362,250.10546L376.98355,248.90533L377.22351,248.18526L378.90326,245.30497L379.62315,243.38477L
				380.58301,241.46458L380.58301,241.22455L382.02279,238.58428L382.26275,237.14414L382.98265,235.94402L383.22261,234.98392L
				384.18247,232.34365L384.90236,231.14353L388.26186,223.46274L389.70164,226.34304L391.86132,230.66348L392.58121,232.34365L
				393.78103,234.74389L394.50092,237.62419z"/>
			<path clip-path="url(#SVG_CP_1)" fill="#73B273" fill-rule="evenodd" stroke="#000000" stroke-width="0.95986" stroke-miterlimit="10" stroke-linecap="round" stroke-linejoin="round" d="
				M418.73729,242.18465L419.21722,242.18465L419.93711,242.18465L424.97636,243.14475L426.17618,243.14475L429.53568,243.38477
				L430.49553,243.38477L433.61506,242.90472L435.29481,242.90472L436.49463,242.6647L438.17438,242.42467L443.69355,242.18465L
				445.85323,242.42467L449.21273,243.14475L449.21273,243.6248L449.21273,243.86482L449.21273,245.30497L449.93262,246.98514L449.93262,247.70521
				L449.93262,249.86543L449.69266,251.5456L449.21273,252.5057L448.7328,253.4658L448.01291,254.4259L448.01291,254.66592L447.29302,255.86604
				L445.61327,257.30619L445.3733,257.78624L445.13334,258.26629L445.13334,258.74634L445.3733,259.46641L446.0932,261.14658L446.81309,263.54682
				L448.49284,266.66714L449.45269,268.10729L450.41255,268.58734L450.89248,268.82736L451.61237,269.78746L452.81219,271.70766
				L453.05215,271.94768L453.53208,271.94768L454.7319,271.46763L457.61147,270.98758L458.81129,270.98758L459.53118,270.98758L
				460.01111,271.22761L460.25108,271.70766L460.49104,272.66775L460.731,274.1079L460.731,275.30802L460.97097,275.78807L461.21093,276.50814
				L461.69086,277.46824L461.93082,277.70827L462.41075,279.14841L462.41075,280.10851L462.17079,281.54866L461.69086,282.02871
				L460.49104,282.50875L460.01111,282.26873L459.29122,282.26873L459.05126,282.02871L458.57133,281.54866L458.33136,281.30863
				L458.33136,280.82858L458.81129,279.38844L458.57133,278.18831L457.85143,277.46824L457.37151,277.22822L456.89158,277.22822
				L455.69176,278.18831L455.45179,278.66836L455.21183,279.86849L454.7319,280.58856L454.7319,281.30863L454.97187,281.78868L455.45179,282.50875
				L455.93172,282.74878L457.13154,283.22883L457.61147,283.46885L458.33136,284.42895L458.57133,284.66897L458.33136,285.14902
				L457.61147,285.14902L457.13154,285.14902L456.65161,285.14902L455.93172,285.38905L455.21183,285.62907L454.25197,286.34915
				L453.05215,287.54927L452.0923,288.26934L451.37241,289.46946L451.37241,289.70949L451.37241,289.94951L451.61237,290.18954L
				451.85233,290.42956L454.25197,290.42956L455.21183,290.66959L455.69176,290.90961L455.69176,291.14963L455.69176,291.86971L
				455.69176,292.58978L454.97187,293.54988L454.49194,294.50998L454.49194,295.7101L454.01201,296.43017L453.77205,297.15024L453.05215,297.39027
				L452.33226,297.63029L451.85233,297.63029L451.37241,297.87032L450.17258,297.63029L448.7328,297.39027L447.29302,297.15024L
				447.05305,297.39027L446.81309,297.63029L446.81309,299.31046L446.81309,299.55049L446.57312,300.27056L446.0932,300.99064L445.13334,301.95073
				L444.41345,302.43078L443.45359,303.39088L442.97366,304.11095L440.09409,306.99125L439.85413,307.71132L439.3742,307.95134L
				438.89427,308.67142L438.89427,309.39149L438.65431,310.59161L438.41435,312.27178L437.93442,312.99186L437.21453,314.19198L
				436.49463,315.63213L436.25467,316.3522L436.25467,317.79235L436.49463,318.03237L437.21453,318.75244L438.65431,319.23249L439.85413,320.19259
				L440.81399,321.87276L442.01381,322.83286L442.49373,323.55293L443.21363,323.79296L445.85323,323.79296L446.33316,324.27301
				L448.7328,326.67325L449.93262,327.87337L450.89248,328.59344L451.37241,329.07349L451.61237,329.55354L451.61237,330.03359L
				451.61237,330.75366L451.61237,331.71376L450.89248,331.71376L448.97276,332.19381L447.77294,332.43384L447.53298,332.43384L
				446.33316,332.67386L445.85323,332.67386L444.89338,332.43384L442.01381,330.51364L439.85413,329.07349L438.41435,328.1134L436.25467,327.1533
				L435.77474,326.91327L434.57492,326.91327L432.41524,326.91327L430.25557,327.1533L428.57582,327.63335L426.41614,327.1533L425.21632,327.1533
				L424.73639,326.91327L422.57672,326.43323L419.69715,326.67325L419.21722,326.67325L416.57762,327.1533L414.6579,327.1533L411.29841,327.1533
				L407.45898,326.91327L405.53927,327.1533L404.57941,327.63335L399.06024,329.79357L397.14053,331.47374L396.42063,332.19381L
				395.46078,333.39393L394.26096,334.59406L393.06114,336.51425L392.34125,338.67447L391.86132,338.67447L390.18157,339.15452L
				388.98175,339.39454L388.50182,339.63457L387.06204,340.11462L386.82207,340.35464L386.34214,340.59467L386.10218,340.59467L
				385.38229,341.07472L384.18247,341.07472L383.46257,341.07472L382.74268,340.83469L381.06293,340.11462L379.86311,339.39454L
				379.62315,339.15452L378.90326,338.19442L378.42333,337.47435L377.70344,336.27423L376.98355,335.31413L376.74358,335.31413L
				376.26365,335.31413L375.06383,335.79418L374.34394,335.79418L374.34394,334.83408L374.5839,332.43384L374.5839,332.19381L374.34394,332.19381
				L372.90416,332.19381L371.22441,332.19381L369.78462,332.19381L368.82477,332.43384L368.34484,332.43384L368.82477,331.23371
				L369.3047,330.03359L369.3047,329.07349L370.02459,327.63335L370.74448,325.2331L371.22441,323.31291L371.70434,322.35281L372.66419,318.27239
				L373.62405,315.87215L374.10398,314.19198L374.34394,312.99186L374.5839,312.99186L374.82387,312.27178L375.3038,311.55171L376.02369,308.67142
				L376.02369,308.43139L377.46347,303.6309L379.14322,299.55049L379.38319,299.07044L380.58301,294.50998L381.06293,292.8298L381.3029,291.86971
				L381.78283,290.90961L382.02279,289.94951L382.50272,289.70949L382.50272,289.22944L382.50272,287.78929L382.50272,286.82919
				L382.98265,284.18893L383.46257,282.9888L383.9425,280.58856L384.42243,278.90839L384.90236,277.22822L385.14232,276.74817L385.86222,273.1478
				L386.10218,272.42773L386.34214,271.46763L387.302,269.06739L387.78193,267.62724L388.02189,266.42712L388.02189,264.2669L388.50182,263.06678
				L389.46168,260.18648L390.6615,256.58612L390.90146,253.4658L391.14142,252.74573L391.38139,251.30558L391.86132,248.66531L392.10128,247.46519
				L392.58121,246.98514L392.82117,245.78502L392.82117,244.82492L393.06114,243.14475L393.78103,241.22455L394.50092,239.54438
				L394.50092,238.82431L394.50092,237.62419L395.22081,237.86421L395.94071,238.34426L396.6606,238.58428L397.62045,239.06433L
				398.10038,239.30436L399.06024,239.54438L400.50002,239.30436L402.6597,239.78441L405.05934,239.78441L406.25916,239.78441L406.97905,239.78441
				L409.37869,239.78441L410.33855,239.78441L412.25826,239.78441L413.21812,240.26445L414.17798,241.22455L414.6579,241.7046L415.13783,241.94463
				L416.09769,242.18465L417.29751,242.18465L418.73729,242.18465z"/>
			<path clip-path="url(#SVG_CP_1)" fill="#73B273" fill-rule="evenodd" stroke="#000000" stroke-width="0.95986" stroke-miterlimit="10" stroke-linecap="round" stroke-linejoin="round" d="
				M382.02279,289.94951L381.78283,290.90961L381.3029,291.86971L381.06293,292.8298L380.58301,294.50998L379.38319,299.07044L379.14322,299.55049
				L377.46347,303.6309L376.02369,308.43139L376.02369,308.67142L375.3038,311.55171L374.82387,312.27178L374.5839,312.99186L374.34394,312.99186
				L374.10398,314.19198L373.62405,315.87215L372.66419,318.27239L371.70434,322.35281L371.22441,323.31291L370.74448,325.2331L
				370.02459,327.63335L369.3047,329.07349L369.3047,330.03359L368.82477,331.23371L368.34484,332.43384L368.82477,332.43384L369.78462,332.19381
				L371.22441,332.19381L372.90416,332.19381L374.34394,332.19381L374.5839,332.19381L374.5839,332.43384L374.34394,334.83408L374.34394,335.79418
				L373.62405,336.0342L371.22441,336.75428L367.38498,337.47435L363.78552,337.9544L361.62585,337.71437L360.66599,337.71437L359.70613,337.71437
				L357.06653,337.71437L357.06653,337.23432L357.30649,336.27423L357.30649,334.83408L357.54646,332.67386L357.54646,331.71376
				L357.78642,330.51364L357.54646,330.03359L358.26635,328.1134L358.50631,326.67325L358.50631,325.2331L358.50631,324.03298L358.98624,321.39271
				L359.2262,320.91266L359.46617,319.95257L360.18606,317.79235L360.18606,316.59222L360.18606,315.3921L360.66599,313.47191L360.66599,311.31169
				L361.14592,309.63151L361.86581,305.5511L362.10577,304.591L362.5857,301.47068L362.82567,299.55049L362.82567,299.31046L363.78552,296.19015
				L364.02549,294.26995L364.50541,289.94951L364.26545,288.98941L364.50541,289.46946L366.66509,289.94951L367.38498,290.18954
				L372.90416,289.94951L374.10398,289.94951L377.46347,289.94951L380.82297,290.18954L382.02279,289.94951z"/>
			<path clip-path="url(#SVG_CP_1)" fill="#73B273" fill-rule="evenodd" stroke="#000000" stroke-width="0.95986" stroke-miterlimit="10" stroke-linecap="round" stroke-linejoin="round" d="
				M424.0165,151.93546L424.25647,152.41551L424.73639,153.13559L426.17618,155.05578L426.17618,155.29581L426.17618,156.01588L
				425.93621,157.45603L425.69625,157.93608L423.77654,159.61625L423.29661,160.33632L423.05665,160.81637L422.81668,161.77647L
				423.05665,162.49654L422.81668,163.21661L423.29661,165.37683L424.0165,166.57695L424.0165,167.53705L424.97636,168.73717L425.21632,168.9772
				L426.41614,169.69727L429.53568,170.65737L430.49553,170.65737L431.45539,170.89739L433.61506,171.37744L434.33496,171.37744
				L433.85503,171.85749L432.89517,172.57757L431.21542,173.05761L430.49553,173.29764L428.57582,173.29764L427.13603,173.29764
				L426.41614,173.05761L425.69625,172.57757L425.21632,171.85749L424.73639,171.37744L424.25647,171.13742L422.81668,170.89739
				L420.17708,170.65737L419.21722,170.89739L418.0174,171.13742L416.81758,171.61747L416.33765,171.85749L414.89787,171.85749L
				412.73819,171.85749L412.0183,171.61747L410.57851,171.13742L410.09859,173.53766L409.13873,174.73779L408.41884,174.49776L407.69895,174.49776
				L405.77923,174.49776L405.53927,174.25774L403.85952,174.25774L402.41974,174.49776L401.93981,174.73779L401.45988,175.21783
				L400.97995,176.17793L399.3002,175.93791L398.34035,175.69788L396.90056,175.69788L394.26096,175.45786L393.78103,175.21783L
				393.06114,174.97781L391.86132,174.73779L390.90146,174.49776L389.22171,174.49776L388.74178,172.57757L388.74178,172.09752L
				388.02189,169.9373L388.02189,168.25713L387.54196,165.61686L386.82207,163.69666L386.82207,162.49654L386.58211,161.77647L386.58211,160.57634
				L386.10218,158.41612L386.10218,156.97598L385.86222,156.49593L385.86222,154.81576L385.62225,153.61564L385.38229,151.93546
				L385.14232,150.01527L385.86222,150.01527L387.78193,150.49532L388.26186,150.73534L389.22171,151.21539L390.6615,151.45542L
				392.82117,152.17549L394.50092,152.17549L395.70074,152.17549L396.42063,151.93546L397.38049,151.45542L398.58031,150.73534L
				400.97995,150.01527L402.6597,149.53522L406.0192,149.53522L406.25916,150.01527L406.49913,151.21539L406.49913,152.41551L408.41884,152.41551
				L411.53837,152.17549L413.69805,151.93546L414.41794,151.93546L416.81758,151.93546L417.77744,151.93546L418.25736,152.17549
				L419.21722,151.93546L420.17708,151.93546L421.3769,152.17549L422.09679,152.17549L422.81668,151.93546L424.0165,151.93546z"/>
			<path clip-path="url(#SVG_CP_1)" fill="#73B273" fill-rule="evenodd" stroke="#000000" stroke-width="0.95986" stroke-miterlimit="10" stroke-linecap="round" stroke-linejoin="round" d="
				M364.26545,288.98941L364.50541,289.94951L364.02549,294.26995L363.78552,296.19015L362.82567,299.31046L362.82567,299.55049
				L362.5857,301.47068L362.10577,304.591L361.86581,305.5511L361.14592,309.63151L360.66599,311.31169L360.66599,313.47191L360.18606,315.3921
				L360.18606,316.59222L360.18606,317.79235L359.46617,319.95257L359.2262,320.91266L358.98624,321.39271L358.50631,324.03298L
				358.50631,325.2331L358.50631,326.67325L358.26635,328.1134L357.54646,330.03359L357.54646,329.79357L356.5866,329.31352L355.38678,328.59344
				L353.70703,327.39332L351.54735,325.95318L350.34753,325.2331L349.14771,324.27301L347.94789,323.55293L346.98804,322.59283L
				346.02818,322.11279L345.30829,321.63274L344.34843,320.91266L343.38858,320.43261L342.90865,319.95257L341.70883,319.71254L
				340.50901,319.23249L339.30919,318.75244L337.62944,318.27239L336.42962,317.79235L334.98983,317.3123L334.50991,317.07227L333.79001,316.83225
				L332.59019,316.11217L331.63034,315.63213L331.15041,315.15208L330.43052,315.63213L329.47066,315.87215L328.03088,316.83225
				L327.55095,317.3123L326.83106,317.3123L326.11116,317.3123L325.39127,317.3123L324.67138,316.83225L323.47156,316.3522L322.75167,316.11217
				L321.79181,316.3522L321.31188,316.59222L320.35203,317.55232L319.39217,318.03237L318.43231,318.75244L317.95239,318.51242L
				317.23249,318.51242L316.75257,318.51242L316.27264,318.99247L315.55274,319.23249L314.83285,319.47252L314.35292,319.71254L
				313.873,319.47252L313.873,318.99247L313.63303,318.75244L313.63303,317.79235L313.39307,317.07227L312.91314,316.3522L312.19325,315.87215
				L311.23339,315.63213L310.5135,315.3921L309.31368,314.91205L308.83375,314.432L308.59379,313.95195L308.59379,313.23188L308.59379,312.27178
				L308.59379,311.07166L308.83375,309.87154L309.07372,309.15147L309.07372,308.67142L308.83375,307.95134L307.87389,307.71132
				L307.87389,307.95134L305.47425,306.75122L301.39486,306.99125L301.39486,306.5112L300.19504,305.07105L300.19504,304.83103L
				298.99522,303.39088L298.03537,302.19076L297.07551,301.47068L296.35562,300.75061L295.63573,299.55049L294.43591,296.19015L
				294.43591,295.7101L294.67587,294.99002L295.63573,293.7899L296.35562,292.8298L297.07551,292.10973L297.31548,291.38966L298.75526,289.94951
				L298.99522,289.46946L300.43501,287.30924L301.39486,286.34915L301.63483,285.62907L301.87479,284.66897L303.07461,282.9888L
				303.07461,282.74878L303.07461,282.26873L301.87479,281.30863L301.39486,280.82858L302.35472,278.42834L302.35472,276.50814L
				302.35472,275.54805L302.35472,275.068L302.59469,273.86787L303.31458,272.42773L304.03447,271.22761L304.75436,270.74756L306.19415,270.26751
				L306.67407,269.78746L307.39397,267.86726L307.39397,267.38722L307.87389,266.18709L307.87389,263.78685L307.63393,262.82675
				L307.87389,262.82675L309.31368,263.06678L309.79361,263.3068L310.27354,263.78685L310.5135,264.02687L310.5135,265.227L314.11296,269.54744
				L314.83285,270.26751L316.03267,270.98758L317.23249,271.46763L317.71242,271.70766L319.15221,271.70766L320.35203,271.70766
				L322.5117,271.46763L324.67138,271.22761L328.03088,271.46763L328.27084,271.46763L329.47066,271.70766L330.19055,271.70766L
				335.46976,272.42773L338.58929,272.90778L340.50901,273.38783L342.18876,273.38783L344.82836,273.86787L344.82836,274.34792L
				344.5884,274.58795L343.8685,276.50814L343.62854,277.94829L343.8685,278.42834L344.10847,279.62846L344.5884,280.58856L345.54825,282.26873
				L346.74807,283.22883L349.14771,284.909L349.86761,285.14902L354.90685,286.82919L355.86671,287.30924L359.46617,288.26934L361.14592,288.74939
				L362.5857,288.74939L364.26545,288.98941z"/>
			<path clip-path="url(#SVG_CP_1)" fill="#73B273" fill-rule="evenodd" stroke="#000000" stroke-width="0.95986" stroke-miterlimit="10" stroke-linecap="round" stroke-linejoin="round" d="
				M392.34125,338.67447L392.58121,339.15452L393.3011,340.11462L394.50092,341.55476L395.70074,342.75489L396.18067,344.19503L
				396.42063,344.91511L396.18067,345.8752L395.46078,346.8353L394.98085,348.03542L394.26096,348.99552L393.54107,349.47557L393.3011,350.19564
				L392.10128,351.15574L391.62135,352.11584L391.62135,352.35586L390.90146,353.55599L390.42153,354.99613L389.9416,355.95623L
				389.22171,357.87643L388.98175,360.03665L388.50182,360.27667L387.78193,360.51669L386.58211,360.75672L384.18247,361.23677L
				382.98265,361.23677L381.06293,361.71682L380.10308,361.71682L378.66329,361.23677L377.22351,360.99674L375.54376,360.99674L
				374.5839,361.47679L373.86401,362.19687L372.90416,364.35708L372.18426,369.15757L372.18426,370.59772L372.42423,371.07777L372.42423,372.99796
				L372.18426,373.71804L371.46437,375.87826L370.26455,376.35831L368.10487,377.07838L367.62495,377.3184L366.18516,378.51853L
				365.70523,378.75855L364.74538,378.99858L361.38588,379.2386L359.70613,378.99858L358.02638,379.2386L357.54646,379.47862L356.34664,379.71865
				L354.42692,380.1987L353.70703,380.43872L352.98714,380.91877L352.74717,379.47862L353.2271,377.3184L353.947,375.63823L354.18696,374.91816
				L355.38678,372.75794L356.10667,371.07777L356.10667,369.63762L356.34664,368.4375L356.10667,367.71743L356.10667,365.31718L
				356.10667,363.15696L355.86671,360.27667L355.86671,357.6364L355.86671,355.23616L355.62674,353.79601L355.62674,352.59589L355.86671,351.39577
				L356.10667,347.07533L356.5866,343.23494L356.82656,340.59467L357.06653,337.71437L359.70613,337.71437L360.66599,337.71437L
				361.62585,337.71437L363.78552,337.9544L367.38498,337.47435L371.22441,336.75428L373.62405,336.0342L374.34394,335.79418L375.06383,335.79418
				L376.26365,335.31413L376.74358,335.31413L376.98355,335.31413L377.70344,336.27423L378.42333,337.47435L378.90326,338.19442
				L379.62315,339.15452L379.86311,339.39454L381.06293,340.11462L382.74268,340.83469L383.46257,341.07472L384.18247,341.07472
				L385.38229,341.07472L386.10218,340.59467L386.34214,340.59467L386.82207,340.35464L387.06204,340.11462L388.50182,339.63457
				L388.98175,339.39454L390.18157,339.15452L391.86132,338.67447L392.34125,338.67447z"/>
			<path clip-path="url(#SVG_CP_1)" fill="#73B273" fill-rule="evenodd" stroke="#000000" stroke-width="0.95986" stroke-miterlimit="10" stroke-linecap="round" stroke-linejoin="round" d="
				M423.05665,78.24796L422.33675,78.72801L421.85683,78.96804L421.61686,79.20806L421.61686,79.68811L421.85683,81.12826L422.09679,82.32838
				L422.33675,82.80843L422.09679,84.24858L422.09679,86.16877L421.85683,87.60892L421.3769,88.32899L421.3769,88.56902L421.13693,89.04906
				L420.89697,90.48921L420.41704,91.44931L420.41704,93.12948L420.17708,93.60953L419.45718,95.2897L419.21722,95.76975L418.49733,97.44992
				L417.29751,99.85016L416.09769,102.01038L414.89787,103.45053L414.41794,103.93058L412.97815,106.33082L410.81848,109.93119L
				410.57851,110.65126L410.33855,111.61136L409.85862,112.09141L408.41884,114.73168L407.45898,117.61197L406.73909,120.49226L
				405.53927,123.61258L405.05934,126.01283L404.33945,129.37317L404.33945,130.81331L404.09948,132.49349L404.09948,133.69361L
				404.33945,134.89373L404.81938,137.05395L405.05934,141.85444L405.05934,142.33449L405.2993,143.05456L405.77923,148.09507L406.0192,148.81515
				L406.0192,149.53522L402.6597,149.53522L400.97995,150.01527L398.58031,150.73534L397.38049,151.45542L396.42063,151.93546L395.70074,152.17549
				L394.50092,152.17549L392.82117,152.17549L390.6615,151.45542L389.22171,151.21539L388.26186,150.73534L387.78193,150.49532L
				385.86222,150.01527L385.14232,150.01527L385.14232,148.81515L385.14232,146.89495L385.14232,144.49471L385.14232,142.81454L
				385.14232,141.13437L385.38229,137.534L385.62225,136.5739L386.34214,133.69361L386.34214,132.25346L386.58211,131.29336L386.82207,127.45297
				L387.06204,126.01283L387.06204,125.29275L387.06204,124.57268L387.54196,122.89251L387.54196,119.05212L388.02189,114.73168
				L388.26186,114.49165L388.26186,113.29153L388.50182,112.09141L388.74178,111.37134L388.74178,110.41124L388.98175,109.69116
				L389.22171,108.25102L389.9416,105.61075L389.9416,104.41063L389.9416,103.69055L390.6615,101.77036L391.14142,98.65004L391.38139,97.68994
				L391.62135,96.2498L391.86132,94.3296L392.10128,92.40941L392.58121,90.00916L393.54107,87.84894L393.78103,86.16877L394.02099,85.20867
				L394.26096,84.00855L394.50092,82.5684L395.22081,80.16816L395.46078,77.76792L395.46078,76.56779L395.94071,75.36767L396.42063,73.44748
				L396.90056,69.60709L397.62045,67.20684L397.86042,65.52667L398.10038,64.32655L398.58031,63.36645L398.82028,60.96621L399.54017,58.56596
				L399.78013,57.84589L400.0201,56.64577L400.26006,54.72557L400.50002,53.52545L400.50002,52.80538L403.37959,53.0454L406.73909,53.52545
				L407.45898,53.76547L409.13873,53.28542L411.29841,52.0853L412.0183,51.84528L412.25826,52.0853L412.49823,52.56535L412.73819,53.52545
				L412.97815,54.0055L412.97815,56.40574L413.45808,59.28603L413.93801,60.96621L414.41794,62.16633L414.6579,62.64638L414.6579,64.08652
				L414.6579,65.28665L414.89787,66.48677L415.3778,66.96682L416.33765,67.92691L416.81758,69.12704L417.29751,69.60709L417.05754,70.56718
				L417.53747,71.76731L418.73729,73.20745L418.97726,73.6875L419.21722,74.16755L419.93711,74.6476L420.41704,75.36767L420.89697,76.32777
				L421.13693,76.56779L421.85683,77.04784L423.05665,78.24796z"/>
			<path clip-path="url(#SVG_CP_1)" fill="#73B273" fill-rule="evenodd" stroke="#000000" stroke-width="0.95986" stroke-miterlimit="10" stroke-linecap="round" stroke-linejoin="round" d="
				M399.78013,52.32533L400.50002,52.80538L400.50002,53.52545L400.26006,54.72557L400.0201,56.64577L399.78013,57.84589L399.54017,58.56596
				L398.82028,60.96621L398.58031,63.36645L398.10038,64.32655L397.86042,65.52667L397.62045,67.20684L396.90056,69.60709L396.42063,73.44748
				L395.94071,75.36767L395.46078,76.56779L395.46078,77.76792L395.22081,80.16816L394.50092,82.5684L394.26096,84.00855L394.02099,85.20867
				L393.78103,86.16877L393.54107,87.84894L392.58121,90.00916L392.10128,92.40941L391.86132,94.3296L391.62135,96.2498L391.38139,97.68994
				L391.14142,98.65004L390.6615,101.77036L389.9416,103.69055L389.9416,104.41063L389.9416,105.61075L389.22171,108.25102L388.98175,109.69116
				L388.74178,110.41124L388.74178,111.37134L388.50182,112.09141L388.26186,113.29153L388.26186,114.49165L388.02189,114.73168
				L387.54196,119.05212L387.54196,122.89251L387.06204,124.57268L387.06204,125.29275L387.06204,126.01283L386.82207,127.45297
				L386.58211,131.29336L386.34214,132.25346L386.34214,133.69361L385.62225,136.5739L385.38229,137.534L385.14232,141.13437L385.14232,142.81454
				L385.14232,144.49471L385.14232,146.89495L385.14232,148.81515L385.14232,150.01527L384.18247,149.77524L381.78283,149.53522
				L380.58301,149.2952L379.38319,149.2952L377.9434,148.81515L376.98355,148.81515L374.82387,147.85505L374.10398,147.375L374.10398,147.13498
				L374.10398,146.17488L374.10398,145.4548L373.86401,144.73473L373.62405,144.49471L373.14412,144.01466L372.42423,143.77463L
				370.74448,143.29459L370.26455,143.05456L369.3047,142.81454L368.34484,142.33449L367.14502,141.85444L364.26545,141.61441L361.14592,140.89434
				L358.26635,140.65432L357.54646,140.65432L356.5866,140.65432L354.90685,140.65432L353.70703,140.17427L351.78732,139.69422L
				350.34753,138.97415L348.90775,138.73412L347.228,138.4941L344.34843,137.534L343.8685,137.534L343.38858,137.29397L342.42872,137.05395
				L339.54915,137.05395L338.10937,137.29397L337.38947,137.05395L336.90955,136.81393L336.42962,136.09385L335.46976,134.65371
				L334.50991,133.45358L333.07012,132.73351L328.99073,130.81331L327.79091,130.57329L325.8712,130.33327L324.91134,130.09324L
				323.71152,129.85322L323.23159,129.37317L322.5117,127.693L322.5117,127.21295L322.5117,126.97292L322.75167,126.7329L323.23159,124.57268
				L323.47156,123.61258L323.47156,121.21234L323.23159,120.73229L322.99163,120.25224L322.03177,120.01222L320.11206,118.81209
				L319.39217,118.09202L317.95239,115.9318L317.71242,115.9318L317.23249,115.69178L315.55274,116.17182L307.87389,116.41185L307.39397,115.9318
				L306.43411,115.9318L302.83465,114.49165L303.31458,113.77158L304.27443,113.29153L304.99433,112.33143L304.99433,112.09141L
				304.99433,111.85138L305.23429,110.65126L304.75436,109.21112L304.5144,108.73107L303.31458,107.0509L302.59469,105.1307L301.87479,103.69055
				L301.63483,103.21051L301.63483,102.49043L301.87479,101.05029L304.27443,97.68994L305.23429,96.72985L305.95418,95.52972L306.67407,94.3296
				L306.91404,93.84955L307.154,93.12948L307.63393,91.92936L307.87389,91.68933L307.87389,91.44931L308.35382,90.00916L308.59379,89.52911
				L309.07372,88.80904L310.03357,87.60892L311.23339,85.92875L312.19325,84.24858L313.39307,81.12826L313.39307,80.16816L314.11296,78.24796
				L314.35292,77.52789L314.83285,76.56779L314.83285,76.32777L315.07282,75.6077L315.55274,75.12765L316.27264,74.88762L317.23249,74.6476
				L317.71242,74.40757L317.95239,73.92752L318.19235,73.44748L318.19235,72.7274L318.43231,71.52728L318.67228,71.04723L319.8721,70.32716
				L320.11206,70.08713L321.07192,69.12704L321.31188,68.64699L321.31188,67.92691L320.83195,66.00672L320.11206,64.32655L321.07192,64.08652
				L322.75167,63.8465L324.19145,63.8465L326.11116,64.32655L328.03088,64.56657L330.19055,64.56657L334.74987,65.04662L336.90955,65.28665
				L338.58929,65.76669L343.62854,66.96682L344.34843,67.20684L345.06832,67.20684L346.26814,66.72679L346.98804,66.24674L347.70793,65.52667
				L348.18786,65.04662L348.66779,63.8465L349.38768,63.36645L349.86761,62.64638L351.06743,61.68628L351.54735,61.20623L352.50721,60.96621
				L354.90685,60.00611L355.62674,59.52606L356.10667,59.04601L357.30649,58.32594L357.78642,57.60586L359.46617,56.40574L360.42602,55.44564
				L361.14592,55.44564L362.10577,55.20562L363.30559,55.44564L364.74538,55.68567L365.22531,55.68567L365.46527,55.44564L365.9452,55.20562
				L367.86491,52.0853L368.5848,50.64516L369.54466,49.92508L370.02459,49.68506L371.70434,49.20501L374.82387,48.96498L376.02369,48.96498
				L377.46347,49.20501L378.66329,49.44503L379.86311,49.68506L381.54286,49.92508L383.46257,50.16511L385.62225,51.1252L386.58211,51.36523
				L387.78193,51.36523L389.46168,51.1252L392.82117,51.60525L393.54107,51.84528L394.98085,51.84528L398.10038,52.0853L399.78013,52.32533
				z"/>
			<path clip-path="url(#SVG_CP_1)" fill="#73B273" fill-rule="evenodd" stroke="#000000" stroke-width="0.95986" stroke-miterlimit="10" stroke-linecap="round" stroke-linejoin="round" d="
				M385.14232,150.01527L385.38229,151.93546L385.62225,153.61564L385.86222,154.81576L385.86222,156.49593L386.10218,156.97598
				L386.10218,158.41612L386.58211,160.57634L386.58211,161.77647L386.82207,162.49654L386.82207,163.69666L387.54196,165.61686
				L388.02189,168.25713L388.02189,169.9373L388.74178,172.09752L388.74178,172.57757L389.22171,174.49776L389.70164,176.65798L
				389.70164,177.8581L388.50182,178.09813L385.38229,177.8581L382.50272,177.61808L381.06293,177.13803L380.10308,177.13803L378.66329,176.65798
				L378.42333,176.65798L377.46347,175.69788L376.02369,174.73779L374.82387,174.49776L372.90416,173.53766L371.46437,173.53766
				L370.74448,173.29764L369.54466,173.05761L368.34484,172.81759L367.14502,172.57757L365.46527,172.09752L364.98534,172.09752
				L363.30559,171.85749L361.38588,171.61747L360.18606,171.13742L357.06653,171.13742L356.10667,171.37744L355.14682,171.37744
				L354.18696,171.61747L353.947,171.61747L353.2271,171.61747L351.54735,171.61747L347.94789,171.85749L346.02818,172.09752L345.54825,172.09752
				L343.8685,172.33754L343.14861,172.33754L335.46976,172.57757L332.35023,172.33754L330.43052,172.33754L327.55095,172.33754L
				326.11116,172.33754L323.71152,172.09752L320.35203,172.33754L319.63213,172.09752L316.27264,172.33754L315.55274,172.33754L
				314.35292,172.33754L312.91314,172.33754L311.47336,172.09752L309.79361,172.09752L307.87389,172.57757L307.63393,172.57757L
				306.67407,173.05761L306.19415,173.05761L305.47425,173.53766L304.99433,174.01771L304.75436,174.49776L304.5144,174.73779L303.79451,174.97781
				L302.35472,175.21783L301.87479,175.21783L301.63483,174.49776L301.39486,173.05761L301.39486,171.61747L301.1549,170.65737L
				300.43501,169.9373L300.19504,169.69727L299.71512,169.45725L298.75526,168.9772L298.03537,169.21722L297.55544,168.9772L297.31548,168.73717
				L296.35562,167.29703L296.11566,166.57695L295.39576,165.61686L294.19594,164.41673L293.23609,163.45664L292.51619,162.97659
				L290.35652,162.25652L288.43681,161.53644L287.71691,161.29642L286.99702,161.05639L285.7972,160.33632L284.35742,158.89617L
				284.11745,158.41612L283.87749,157.93608L284.59738,155.77586L284.59738,155.05578L284.83734,154.33571L285.07731,153.37561L
				286.75706,151.45542L287.95688,150.25529L288.43681,150.01527L289.1567,149.2952L291.7963,147.85505L293.23609,146.89495L295.63573,144.97476
				L296.59558,143.77463L297.31548,142.33449L298.27533,139.93424L298.27533,138.25407L298.03537,138.01405L298.27533,132.01344
				L298.03537,131.05334L298.03537,128.41307L298.03537,127.93302L297.7954,126.97292L297.7954,123.61258L298.03537,122.65248L298.99522,120.97231
				L299.23519,119.05212L300.19504,117.13192L300.43501,116.65187L301.1549,115.69178L302.35472,114.73168L302.83465,114.49165L
				306.43411,115.9318L307.39397,115.9318L307.87389,116.41185L315.55274,116.17182L317.23249,115.69178L317.71242,115.9318L317.95239,115.9318
				L319.39217,118.09202L320.11206,118.81209L322.03177,120.01222L322.99163,120.25224L323.23159,120.73229L323.47156,121.21234
				L323.47156,123.61258L323.23159,124.57268L322.75167,126.7329L322.5117,126.97292L322.5117,127.21295L322.5117,127.693L323.23159,129.37317
				L323.71152,129.85322L324.91134,130.09324L325.8712,130.33327L327.79091,130.57329L328.99073,130.81331L333.07012,132.73351L
				334.50991,133.45358L335.46976,134.65371L336.42962,136.09385L336.90955,136.81393L337.38947,137.05395L338.10937,137.29397L
				339.54915,137.05395L342.42872,137.05395L343.38858,137.29397L343.8685,137.534L344.34843,137.534L347.228,138.4941L348.90775,138.73412
				L350.34753,138.97415L351.78732,139.69422L353.70703,140.17427L354.90685,140.65432L356.5866,140.65432L357.54646,140.65432L
				358.26635,140.65432L361.14592,140.89434L364.26545,141.61441L367.14502,141.85444L368.34484,142.33449L369.3047,142.81454L370.26455,143.05456
				L370.74448,143.29459L372.42423,143.77463L373.14412,144.01466L373.62405,144.49471L373.86401,144.73473L374.10398,145.4548L
				374.10398,146.17488L374.10398,147.13498L374.10398,147.375L374.82387,147.85505L376.98355,148.81515L377.9434,148.81515L379.38319,149.2952
				L380.58301,149.2952L381.78283,149.53522L384.18247,149.77524L385.14232,150.01527z"/>
			<path clip-path="url(#SVG_CP_1)" fill="#73B273" fill-rule="evenodd" stroke="#000000" stroke-width="0.95986" stroke-miterlimit="10" stroke-linecap="round" stroke-linejoin="round" d="
				M389.70164,177.8581L389.9416,178.8182L390.42153,182.89862L390.18157,185.29886L390.18157,187.21906L390.18157,188.17915L389.9416,191.29947
				L389.22171,195.13986L388.26186,195.13986L385.86222,195.13986L384.42243,195.37989L382.50272,195.37989L382.26275,195.13986
				L381.78283,195.13986L379.38319,195.13986L378.42333,194.89984L375.78372,194.65981L374.82387,194.65981L374.10398,194.65981
				L370.98444,194.65981L369.54466,194.41979L368.10487,194.17976L365.9452,194.17976L365.22531,193.93974L363.30559,194.17976L
				362.34574,193.93974L359.9461,193.69972L358.26635,193.93974L357.06653,193.93974L352.98714,193.93974L351.06743,194.17976L349.38768,194.41979
				L349.38768,194.17976L348.18786,194.17976L346.74807,194.17976L343.62854,194.17976L342.90865,194.17976L340.98894,194.41979
				L334.50991,195.13986L334.02998,195.37989L332.83016,195.61991L328.03088,197.06006L323.47156,198.98025L320.59199,200.66042
				L320.35203,200.66042L320.11206,200.90045L319.8721,200.90045L318.91224,201.3805L316.75257,202.58062L315.07282,203.54072L314.59289,204.02077
				L311.71332,205.70094L309.55364,207.38111L308.59379,207.86116L308.11386,208.34121L307.87389,208.82125L307.87389,209.06128
				L306.43411,210.02138L304.99433,210.98147L304.03447,211.70155L303.55454,211.94157L302.83465,212.1816L301.87479,212.42162L
				302.35472,211.70155L302.35472,211.46152L304.99433,206.90106L306.19415,203.54072L306.67407,202.10057L306.67407,201.3805L306.43411,200.90045
				L305.95418,200.66042L304.99433,200.66042L303.79451,201.14047L302.83465,201.14047L302.11476,200.90045L301.87479,200.66042
				L301.63483,200.4204L301.39486,199.94035L301.39486,198.26018L301.63483,197.54011L302.11476,195.37989L302.35472,194.89984L
				302.59469,193.21967L302.59469,192.49959L302.35472,191.5395L301.87479,190.81942L300.67497,189.37928L299.95508,188.6592L299.71512,188.17915
				L299.47515,187.6991L299.47515,186.97903L299.71512,186.01893L299.95508,185.29886L301.1549,183.13864L301.39486,182.65859L301.63483,182.41857
				L301.63483,182.17854L303.07461,180.25835L303.31458,179.29825L303.31458,178.57818L303.07461,177.61808L302.59469,176.41796
				L301.87479,175.69788L301.87479,175.21783L302.35472,175.21783L303.79451,174.97781L304.5144,174.73779L304.75436,174.49776L
				304.99433,174.01771L305.47425,173.53766L306.19415,173.05761L306.67407,173.05761L307.63393,172.57757L307.87389,172.57757L
				309.79361,172.09752L311.47336,172.09752L312.91314,172.33754L314.35292,172.33754L315.55274,172.33754L316.27264,172.33754L
				319.63213,172.09752L320.35203,172.33754L323.71152,172.09752L326.11116,172.33754L327.55095,172.33754L330.43052,172.33754L
				332.35023,172.33754L335.46976,172.57757L343.14861,172.33754L343.8685,172.33754L345.54825,172.09752L346.02818,172.09752L347.94789,171.85749
				L351.54735,171.61747L353.2271,171.61747L353.947,171.61747L354.18696,171.61747L355.14682,171.37744L356.10667,171.37744L357.06653,171.13742
				L360.18606,171.13742L361.38588,171.61747L363.30559,171.85749L364.98534,172.09752L365.46527,172.09752L367.14502,172.57757
				L368.34484,172.81759L369.54466,173.05761L370.74448,173.29764L371.46437,173.53766L372.90416,173.53766L374.82387,174.49776
				L376.02369,174.73779L377.46347,175.69788L378.42333,176.65798L378.66329,176.65798L380.10308,177.13803L381.06293,177.13803
				L382.50272,177.61808L385.38229,177.8581L388.50182,178.09813L389.70164,177.8581z"/>
			<path clip-path="url(#SVG_CP_1)" fill="#73B273" fill-rule="evenodd" stroke="#000000" stroke-width="0.95986" stroke-miterlimit="10" stroke-linecap="round" stroke-linejoin="round" d="
				M447.53298,332.43384L447.77294,334.35403L448.25287,336.27423L449.45269,337.47435L449.69266,337.9544L450.89248,339.63457L
				451.37241,340.59467L451.61237,343.47496L451.37241,346.59528L450.89248,349.23555L450.17258,351.15574L449.69266,353.55599L
				449.21273,355.23616L448.97276,356.19625L448.7328,357.15635L448.49284,358.35647L448.01291,359.5566L447.53298,360.99674L447.29302,361.47679
				L446.81309,363.63701L446.81309,364.35708L446.57312,365.55721L446.57312,366.03726L446.33316,366.99735L445.3733,369.87765L
				445.3733,371.07777L445.3733,371.55782L445.3733,372.03787L445.3733,372.75794L444.65341,373.95806L444.17348,375.87826L443.93352,376.83836
				L443.69355,378.2785L442.49373,380.67875L442.01381,380.91877L440.81399,381.63884L441.29391,382.35892L442.01381,384.03909L
				443.21363,385.47923L444.17348,386.43933L444.65341,386.67936L445.61327,387.63945L447.29302,388.35953L448.49284,388.59955L
				449.21273,388.59955L449.93262,388.83958L450.65251,388.83958L451.37241,389.0796L452.33226,389.0796L454.7319,389.55965L455.45179,389.55965
				L456.65161,390.0397L458.81129,390.27972L462.89068,390.75977L463.61057,390.75977L463.13064,391.47985L462.65072,392.67997L
				462.17079,393.16002L460.25108,393.16002L458.33136,393.64007L455.69176,394.12011L454.7319,394.36014L453.77205,394.84019L451.61237,397.24043
				L450.41255,398.68058L446.33316,402.28094L445.61327,403.00102L444.89338,403.72109L444.17348,404.44116L443.69355,404.20114
				L442.49373,404.20114L441.29391,403.96112L440.33406,404.20114L437.93442,404.44116L436.7346,404.68119L434.33496,405.40126L
				433.61506,405.40126L432.41524,405.88131L431.21542,406.36136L430.49553,406.60138L428.33585,407.80151L425.69625,409.48168L
				424.49643,410.44178L424.0165,410.92182L423.53657,411.16185L421.3769,411.88192L420.657,412.84202L420.657,413.56209L420.657,414.04214
				L421.3769,415.48229L421.3769,415.96234L421.3769,416.20236L419.93711,415.24226L419.21722,415.48229L411.05844,416.68241L401.69984,418.12256
				L397.86042,417.88253L395.46078,417.88253L391.62135,418.12256L382.50272,418.12256L374.34394,418.36258L357.06653,415.00224
				L356.34664,411.16185L356.34664,410.44178L355.86671,408.28156L355.86671,405.64129L355.14682,401.32085L354.66689,397.00041
				L354.66689,396.76038L354.18696,392.67997L353.2271,383.55904L352.98714,380.91877L353.70703,380.43872L354.42692,380.1987L356.34664,379.71865
				L357.54646,379.47862L358.02638,379.2386L359.70613,378.99858L361.38588,379.2386L364.74538,378.99858L365.70523,378.75855L366.18516,378.51853
				L367.62495,377.3184L368.10487,377.07838L370.26455,376.35831L371.46437,375.87826L372.18426,373.71804L372.42423,372.99796L
				372.42423,371.07777L372.18426,370.59772L372.18426,369.15757L372.90416,364.35708L373.86401,362.19687L374.5839,361.47679L375.54376,360.99674
				L377.22351,360.99674L378.66329,361.23677L380.10308,361.71682L381.06293,361.71682L382.98265,361.23677L384.18247,361.23677
				L386.58211,360.75672L387.78193,360.51669L388.50182,360.27667L388.98175,360.03665L389.22171,357.87643L389.9416,355.95623L
				390.42153,354.99613L390.90146,353.55599L391.62135,352.35586L391.62135,352.11584L392.10128,351.15574L393.3011,350.19564L393.54107,349.47557
				L394.26096,348.99552L394.98085,348.03542L395.46078,346.8353L396.18067,345.8752L396.42063,344.91511L396.18067,344.19503L395.70074,342.75489
				L394.50092,341.55476L393.3011,340.11462L392.58121,339.15452L392.34125,338.67447L393.06114,336.51425L394.26096,334.59406L
				395.46078,333.39393L396.42063,332.19381L397.14053,331.47374L399.06024,329.79357L404.57941,327.63335L405.53927,327.1533L407.45898,326.91327
				L411.29841,327.1533L414.6579,327.1533L416.57762,327.1533L419.21722,326.67325L419.69715,326.67325L422.57672,326.43323L424.73639,326.91327
				L425.21632,327.1533L426.41614,327.1533L428.57582,327.63335L430.25557,327.1533L432.41524,326.91327L434.57492,326.91327L435.77474,326.91327
				L436.25467,327.1533L438.41435,328.1134L439.85413,329.07349L442.01381,330.51364L444.89338,332.43384L445.85323,332.67386L446.33316,332.67386
				L447.53298,332.43384z"/>
			<path clip-path="url(#SVG_CP_1)" fill="#73B273" fill-rule="evenodd" stroke="#000000" stroke-width="0.95986" stroke-miterlimit="10" stroke-linecap="round" stroke-linejoin="round" d="
				M484.48745,49.20501L484.72741,49.20501L484.96737,49.44503L485.92723,49.68506L487.12705,50.16511L488.08691,50.64516L491.20644,51.1252
				L496.24569,51.36523L497.68547,51.1252L500.32507,50.64516L502.48475,50.64516L503.44461,50.40513L505.12436,50.16511L506.8041,49.68506
				L507.76396,49.44503L509.44371,49.44503L511.36342,49.44503L512.56324,49.92508L513.04317,50.16511L513.5231,50.64516L513.5231,51.1252
				L513.5231,51.60525L512.32328,53.28542L511.36342,54.24552L510.88349,55.44564L510.88349,55.92569L510.88349,57.60586L510.64353,59.04601
				L510.64353,59.76608L511.12346,60.48616L511.84335,61.20623L512.80321,61.68628L513.04317,63.12643L513.04317,64.32655L512.32328,67.68689
				L511.84335,69.36706L511.60339,71.04723L511.12346,72.48738L510.1636,73.92752L509.68367,75.12765L509.68367,75.6077L509.20374,76.56779
				L509.20374,76.80782L508.72382,77.28787L508.72382,78.24796L508.48385,78.48799L508.24389,78.48799L507.28403,78.48799L507.04407,78.48799
				L506.8041,78.72801L506.8041,78.96804L508.00392,79.92814L508.00392,80.40818L507.524,80.88823L506.8041,81.36828L506.08421,81.36828
				L505.84425,81.12826L505.60428,80.40818L505.36432,80.16816L504.88439,79.92814L504.40446,79.92814L504.1645,80.40818L503.92454,80.64821
				L503.68457,81.36828L503.44461,82.32838L503.68457,83.28848L503.68457,83.76853L502.96468,84.24858L502.24479,84.72862L501.04497,85.20867
				L497.44551,87.36889L497.20554,88.08897L497.20554,89.28909L496.96558,89.52911L496.48565,89.76914L495.76576,89.76914L495.28583,90.24919
				L495.04586,90.96926L495.04586,91.68933L495.28583,93.12948L495.28583,93.60953L495.28583,94.3296L495.04586,95.76975L494.8059,96.2498
				L494.56594,97.44992L494.56594,98.16999L494.8059,98.89007L495.04586,99.13009L495.28583,99.61014L495.04586,101.53033L496.00572,104.1706
				L496.00572,104.89068L496.48565,106.0908L496.96558,107.0509L497.20554,107.53095L497.20554,108.01099L496.48565,108.73107L495.28583,109.45114
				L495.04586,109.69116L494.8059,110.17121L495.04586,110.41124L495.04586,110.65126L495.76576,110.89129L496.48565,110.89129L
				496.72561,110.65126L497.44551,110.65126L497.68547,110.89129L497.92543,111.61136L497.92543,112.81148L497.92543,113.29153L
				498.64533,113.29153L499.84515,113.05151L500.08511,113.29153L500.32507,113.53156L500.32507,113.77158L499.84515,115.21173L
				499.12525,116.65187L498.88529,117.13192L498.1654,118.57207L497.44551,119.29214L496.00572,120.25224L492.40626,121.93241L491.20644,122.41246
				L490.48655,122.89251L490.00662,123.13253L487.84694,123.85261L486.16719,124.8127L484.72741,125.29275L483.76755,125.53278L
				482.8077,125.7728L479.92813,125.7728L477.76845,125.7728L477.04856,125.7728L476.56863,126.01283L474.40896,126.25285L473.20913,126.25285
				L471.76935,126.49288L471.28942,126.25285L470.32957,126.25285L468.40985,125.53278L466.01021,125.05273L464.57043,124.8127L
				464.0905,124.57268L463.37061,124.33266L462.65072,123.85261L461.4509,123.13253L460.731,122.65248L459.77115,121.93241L458.81129,121.45236
				L457.85143,121.21234L455.93172,120.73229L454.7319,120.73229L451.85233,120.49226L449.45269,120.25224L447.77294,120.49226L
				446.57312,121.21234L446.0932,121.21234L445.61327,121.45236L445.3733,121.21234L445.13334,121.21234L443.69355,119.53217L443.21363,119.29214
				L442.97366,119.29214L442.7337,119.29214L441.77384,119.53217L441.29391,119.77219L440.81399,120.49226L440.57402,120.73229L
				440.33406,120.73229L439.61417,120.49226L439.13424,120.01222L438.41435,118.57207L437.21453,117.61197L436.7346,117.61197L435.77474,117.61197
				L434.81488,117.852L434.33496,117.852L434.09499,117.61197L433.85503,116.65187L434.09499,113.05151L433.85503,112.57146L433.3751,111.37134
				L433.3751,110.65126L433.3751,109.93119L433.61506,108.97109L435.05485,108.01099L435.53478,107.53095L435.77474,107.0509L436.25467,106.57085
				L436.25467,105.85077L435.77474,105.1307L435.29481,104.65065L434.81488,104.65065L433.85503,104.41063L433.13514,104.1706L432.65521,103.69055
				L432.41524,102.97048L432.65521,102.25041L433.13514,101.77036L433.85503,101.05029L434.09499,100.81026L434.57492,100.09019
				L434.81488,99.37011L434.81488,98.16999L434.57492,96.00977L435.05485,94.80965L434.81488,94.08958L434.57492,93.84955L434.09499,93.84955
				L433.3751,93.84955L432.65521,93.60953L430.97546,92.88945L430.49553,92.40941L430.0156,91.20928L429.53568,89.52911L429.29571,88.80904
				L429.53568,87.84894L429.77564,86.88884L430.49553,84.4886L430.7355,83.04845L430.97546,82.08836L431.45539,81.36828L431.45539,80.88823
				L431.45539,80.16816L430.49553,78.72801L430.25557,78.24796L430.0156,77.76792L430.0156,76.80782L430.0156,76.56779L430.0156,76.32777
				L429.53568,75.84772L429.29571,74.6476L429.05575,73.20745L429.53568,72.00733L430.97546,70.08713L431.21542,69.60709L431.21542,68.88701
				L431.21542,68.40696L430.97546,67.92691L429.77564,66.96682L429.29571,66.48677L429.29571,66.00672L429.29571,65.28665L428.81578,64.08652
				L428.81578,63.36645L428.81578,62.8864L428.09589,61.44625L427.13603,60.24613L426.89607,59.28603L426.65611,58.08591L427.13603,57.12581
				L427.376,56.40574L428.09589,54.96559L428.81578,54.24552L429.05575,54.0055L429.29571,53.52545L429.53568,53.0454L430.25557,52.0853
				L431.69535,50.88518L431.93532,50.64516L432.41524,50.40513L434.09499,50.40513L435.05485,49.92508L436.97456,47.76486L437.45449,47.52484
				L438.17438,47.28481L438.41435,47.28481L438.89427,47.04479L439.61417,47.04479L440.81399,47.52484L441.53388,47.52484L442.25377,47.52484
				L442.49373,47.28481L442.97366,46.80476L442.97366,46.08469L442.97366,45.36462L443.69355,45.12459L445.3733,45.12459L446.0932,45.12459
				L448.7328,45.36462L450.17258,45.36462L451.13244,45.12459L452.57223,45.12459L453.29212,45.12459L455.45179,45.60464L457.85143,45.60464
				L458.81129,45.60464L460.97097,45.60464L461.4509,45.60464L463.85054,45.84467L465.77025,45.84467L466.73011,46.08469L471.76935,46.08469
				L472.96917,46.08469L476.56863,45.60464L477.52849,45.60464L478.24838,45.84467L481.60788,45.60464L482.8077,45.60464L483.28763,46.08469
				L483.52759,46.56474L483.28763,48.00489L483.76755,48.96498L484.48745,49.20501z"/>
		</g>
		<g id="Labels">
			<g id="WordFile_-_Default">
				<g font-family="'Arial'" font-size="1" kerning="0" font-weight="400" fill="#000000" clip-path="url(#SVG_CP_1)" >
					<text text-anchor="start" transform="matrix(7.91881 0 0 7.92081 345.78822 102.97212)" >
						<tspan direction="ltr" unicode-bidi="embed" x="0 ">4</tspan>
					</text>
				</g>
				<g font-family="'Arial'" font-size="1" kerning="0" font-weight="400" fill="#000000" clip-path="url(#SVG_CP_1)" >
					<text text-anchor="start" transform="matrix(7.91881 0 0 7.92081 331.15041 155.53747)" >
						<tspan direction="ltr" unicode-bidi="embed" x="0 ">5</tspan>
					</text>
				</g>
				<g font-family="'Arial'" font-size="1" kerning="0" font-weight="400" fill="#000000" clip-path="url(#SVG_CP_1)" >
					<text text-anchor="start" transform="matrix(7.91881 0 0 7.92081 402.77968 379.24024)" >
						<tspan direction="ltr" unicode-bidi="embed" x="0 ">1</tspan>
						<tspan direction="ltr" unicode-bidi="embed" x="0.54559 ">8</tspan>
					</text>
				</g>
				<g font-family="'Arial'" font-size="1" kerning="0" font-weight="400" fill="#000000" clip-path="url(#SVG_CP_1)" >
					<text text-anchor="start" transform="matrix(7.91881 0 0 7.92081 413.57806 287.07086)" >
						<tspan direction="ltr" unicode-bidi="embed" x="0 ">1</tspan>
						<tspan direction="ltr" unicode-bidi="embed" x="0.54559 ">4</tspan>
					</text>
				</g>
				<g font-family="'Arial'" font-size="1" kerning="0" font-weight="400" fill="#000000" clip-path="url(#SVG_CP_1)" >
					<text text-anchor="start" transform="matrix(7.91881 0 0 7.92081 460.13109 85.45034)" >
						<tspan direction="ltr" unicode-bidi="embed" x="0 ">1</tspan>
						<tspan direction="ltr" unicode-bidi="embed" x="0.54559 ">9</tspan>
					</text>
				</g>
				<g font-family="'Arial'" font-size="1" kerning="0" font-weight="400" fill="#000000" clip-path="url(#SVG_CP_1)" >
					<text text-anchor="start" transform="matrix(7.91881 0 0 7.92081 344.5884 186.02057)" >
						<tspan direction="ltr" unicode-bidi="embed" x="0 ">6</tspan>
					</text>
				</g>
				<g font-family="'Arial'" font-size="1" kerning="0" font-weight="400" fill="#000000" clip-path="url(#SVG_CP_1)" >
					<text text-anchor="start" transform="matrix(7.91881 0 0 7.92081 400.26006 104.17224)" >
						<tspan direction="ltr" unicode-bidi="embed" x="0 ">3</tspan>
					</text>
				</g>
				<g font-family="'Arial'" font-size="1" kerning="0" font-weight="400" fill="#000000" clip-path="url(#SVG_CP_1)" >
					<text text-anchor="start" transform="matrix(7.91881 0 0 7.92081 434.09499 217.22375)" >
						<tspan direction="ltr" unicode-bidi="embed" x="0 ">8</tspan>
					</text>
				</g>
				<g font-family="'Arial'" font-size="1" kerning="0" font-weight="400" fill="#000000" clip-path="url(#SVG_CP_1)" >
					<text text-anchor="start" transform="matrix(7.91881 0 0 7.92081 336.78956 256.58776)" >
						<tspan direction="ltr" unicode-bidi="embed" x="0 ">1</tspan>
						<tspan direction="ltr" unicode-bidi="embed" x="0.54559 ">2</tspan>
					</text>
				</g>
				<g font-family="'Arial'" font-size="1" kerning="0" font-weight="400" fill="#000000" clip-path="url(#SVG_CP_1)" >
					<text text-anchor="start" transform="matrix(7.91881 0 0 7.92081 325.51125 299.31211)" >
						<tspan direction="ltr" unicode-bidi="embed" x="0 ">1</tspan>
						<tspan direction="ltr" unicode-bidi="embed" x="0.54559 ">6</tspan>
					</text>
				</g>
				<g font-family="'Arial'" font-size="1" kerning="0" font-weight="400" fill="#000000" clip-path="url(#SVG_CP_1)" >
					<text text-anchor="start" transform="matrix(7.91881 0 0 7.92081 420.41704 115.21337)" >
						<tspan direction="ltr" unicode-bidi="embed" x="0 ">1</tspan>
					</text>
				</g>
				<g font-family="'Arial'" font-size="1" kerning="0" font-weight="400" fill="#000000" clip-path="url(#SVG_CP_1)" >
					<text text-anchor="start" transform="matrix(7.91881 0 0 7.92081 330.19055 211.70319)" >
						<tspan direction="ltr" unicode-bidi="embed" x="0 ">1</tspan>
						<tspan direction="ltr" unicode-bidi="embed" x="0.48497 ">1</tspan>
					</text>
				</g>
				<g font-family="'Arial'" font-size="1" kerning="0" font-weight="400" fill="#000000" clip-path="url(#SVG_CP_1)" >
					<text text-anchor="start" transform="matrix(7.91881 0 0 7.92081 403.13963 165.37847)" >
						<tspan direction="ltr" unicode-bidi="embed" x="0 ">2</tspan>
					</text>
				</g>
				<g font-family="'Arial'" font-size="1" kerning="0" font-weight="400" fill="#000000" clip-path="url(#SVG_CP_1)" >
					<text text-anchor="start" transform="matrix(7.91881 0 0 7.92081 405.05934 183.62033)" >
						<tspan direction="ltr" unicode-bidi="embed" x="0 ">7</tspan>
					</text>
				</g>
				<g font-family="'Arial'" font-size="1" kerning="0" font-weight="400" fill="#000000" clip-path="url(#SVG_CP_1)" >
					<text text-anchor="start" transform="matrix(7.91881 0 0 7.92081 368.22486 357.63804)" >
						<tspan direction="ltr" unicode-bidi="embed" x="0 ">1</tspan>
						<tspan direction="ltr" unicode-bidi="embed" x="0.54559 ">7</tspan>
					</text>
				</g>
				<g font-family="'Arial'" font-size="1" kerning="0" font-weight="400" fill="#000000" clip-path="url(#SVG_CP_1)" >
					<text text-anchor="start" transform="matrix(7.91881 0 0 7.92081 375.90371 264.98861)" >
						<tspan direction="ltr" unicode-bidi="embed" x="0 ">1</tspan>
						<tspan direction="ltr" unicode-bidi="embed" x="0.54559 ">3</tspan>
					</text>
				</g>
				<g font-family="'Arial'" font-size="1" kerning="0" font-weight="400" fill="#000000" clip-path="url(#SVG_CP_1)" >
					<text text-anchor="start" transform="matrix(7.91881 0 0 7.92081 399.18022 223.46439)" >
						<tspan direction="ltr" unicode-bidi="embed" x="0 ">1</tspan>
						<tspan direction="ltr" unicode-bidi="embed" x="0.54559 ">0</tspan>
					</text>
				</g>
				<g font-family="'Arial'" font-size="1" kerning="0" font-weight="400" fill="#000000" clip-path="url(#SVG_CP_1)" >
					<text text-anchor="start" transform="matrix(7.91881 0 0 7.92081 409.13873 199.94199)" >
						<tspan direction="ltr" unicode-bidi="embed" x="0 ">9</tspan>
					</text>
				</g>
				<g font-family="'Arial'" font-size="1" kerning="0" font-weight="400" fill="#000000" clip-path="url(#SVG_CP_1)" >
					<text text-anchor="start" transform="matrix(7.91881 0 0 7.92081 362.70568 315.63377)" >
						<tspan direction="ltr" unicode-bidi="embed" x="0 ">1</tspan>
						<tspan direction="ltr" unicode-bidi="embed" x="0.54559 ">5</tspan>
					</text>
				</g>
			</g>
		</g>
	</g>
</svg>
