<?xml version="1.0" encoding="utf-8" standalone="no"?>
<!-- Creator: Esri ArcMap 10.6.1.9270 -->
<!DOCTYPE svg PUBLIC "-//W3C//DTD SVG 1.1//EN"  "http://www.w3.org/Graphics/SVG/1.1/DTD/svg11.dtd">
<svg width="813.74173pt" height="434.23937pt" viewBox="0 0 813.74173 434.23937" enable-background="new 0 0 813.74173 434.23937"
	version="1.1" xmlns="http://www.w3.org/2000/svg" xmlns:xlink="http://www.w3.org/1999/xlink" >
	<g id="Layers">
		<g id="WordFile">
			<clipPath id="SVG_CP_1">
				<path d="M0,434.23937L0,0L813.74173,0L813.74173,434.23937L0,434.23937z"/>
			</clipPath>
			<path clip-path="url(#SVG_CP_1)" fill="#73B273" fill-rule="evenodd" stroke="#000000" stroke-width="0.95986" stroke-miterlimit="10" stroke-linecap="round" stroke-linejoin="round" d="
				M442.97366,62.16633L442.25377,63.36645L440.33406,67.20684L439.13424,73.6875L438.17438,78.00794L437.45449,79.92814L436.97456,80.40818
				L435.53478,81.12826L434.57492,83.04845L434.57492,84.24858L434.81488,84.72862L435.53478,85.20867L436.25467,86.4088L436.7346,87.60892
				L436.97456,89.28909L437.21453,89.76914L437.93442,90.24919L438.41435,90.72923L438.41435,92.16938L438.17438,93.3695L438.65431,96.2498
				L438.89427,96.72985L440.09409,97.92997L440.81399,99.61014L441.53388,100.33021L441.77384,101.05029L441.53388,102.49043L441.53388,104.65065
				L441.77384,105.85077L441.77384,108.49104L442.7337,109.45114L443.45359,109.69116L444.41345,110.17121L445.85323,110.41124L
				447.29302,110.17121L448.7328,110.65126L449.93262,111.37134L450.17258,112.33143L452.33226,114.0116L453.05215,114.9717L453.05215,116.41185
				L452.33226,117.61197L451.85233,118.57207L450.89248,119.05212L449.45269,119.53217L445.61327,119.77219L443.21363,118.33204
				L440.33406,118.81209L439.85413,118.81209L438.65431,119.05212L433.61506,121.93241L432.65521,123.61258L431.93532,123.61258
				L429.29571,127.21295L427.376,131.29336L426.89607,132.01344L424.73639,136.5739L422.33675,140.65432L421.61686,142.09446L422.57672,142.57451
				L424.25647,143.05456L425.45629,144.01466L426.17618,144.97476L426.41614,145.93485L427.376,147.61502L427.61596,149.77524L427.376,153.37561
				L425.69625,158.41612L424.0165,161.05639L422.81668,162.49654L422.09679,162.97659L421.61686,162.97659L421.13693,163.21661L
				419.45718,163.45664L417.77744,164.17671L416.09769,166.57695L414.89787,168.73717L413.45808,172.57757L410.33855,175.45786L
				408.89877,177.61808L409.13873,180.49837L408.41884,182.65859L407.93891,189.37928L407.69895,190.33937L407.69895,193.93974L
				404.33945,194.65981L402.6597,194.65981L401.69984,195.13986L401.21992,194.89984L399.54017,195.13986L397.86042,194.41979L394.50092,192.25957
				L393.3011,192.01954L390.18157,191.29947L386.10218,191.29947L383.9425,191.5395L382.74268,191.5395L379.62315,190.81942L378.90326,190.5794
				L373.38408,189.13925L371.70434,188.41918L370.74448,188.17915L370.02459,187.6991L367.86491,187.21906L365.70523,187.21906L
				357.30649,185.77891L355.14682,185.53888L353.947,185.29886L350.5875,185.53888L342.42872,185.53888L341.94879,185.29886L341.70883,185.05884
				L340.74897,184.09874L339.54915,183.37866L338.10937,181.93852L335.94969,180.97842L334.50991,179.29825L334.02998,179.05823
				L333.07012,178.09813L331.8703,177.61808L330.19055,178.33815L328.75077,178.57818L328.27084,178.33815L326.83106,177.13803L
				323.95149,176.65798L322.27174,176.41796L319.63213,176.89801L316.03267,176.65798L313.39307,176.17793L312.43321,175.93791L
				311.23339,174.73779L309.31368,173.05761L308.35382,172.09752L307.63393,170.41735L306.19415,168.73717L305.47425,167.057L304.5144,165.85688
				L303.55454,164.41673L303.07461,163.21661L301.87479,161.53644L302.11476,160.0963L300.67497,158.65615L299.95508,156.73595L
				298.5153,154.81576L296.59558,149.53522L296.11566,146.65493L295.63573,144.73473L294.91584,143.05456L294.67587,141.61441L294.67587,140.41429
				L294.91584,138.97415L295.39576,137.77402L296.35562,134.89373L297.7954,129.85322L298.99522,128.41307L299.95508,126.97292L
				300.67497,126.25285L301.39486,124.8127L303.55454,122.17244L304.5144,120.49226L304.03447,119.77219L303.79451,119.53217L300.91494,119.77219
				L297.7954,119.29214L292.75616,116.8919L289.87659,114.49165L286.99702,110.17121L286.51709,108.01099L286.75706,106.33082L287.23699,105.61075
				L288.43681,104.41063L290.11655,102.97048L290.83645,102.49043L293.47605,101.05029L296.11566,100.81026L298.99522,101.29031
				L299.95508,101.53033L300.91494,101.29031L301.87479,101.29031L304.99433,100.57024L309.07372,99.85016L310.03357,100.09019L
				313.63303,99.13009L315.79271,98.16999L318.19235,95.52972L318.91224,92.88945L318.91224,88.08897L316.27264,84.24858L313.63303,80.64821
				L312.43321,80.16816L311.47336,79.20806L308.59379,78.00794L302.59469,72.7274L301.63483,72.24735L299.47515,69.84711L298.5153,68.16694
				L296.59558,62.8864L296.11566,60.48616L296.59558,58.56596L296.83555,54.72557L297.55544,50.64516L297.31548,48.24491L298.03537,46.08469
				L298.75526,40.80415L299.23519,38.16388L300.67497,34.56352L301.39486,33.12337L302.11476,32.4033L303.31458,30.24308L303.55454,29.28298
				L304.27443,28.32288L306.91404,22.08225L307.154,21.36217L307.39397,18.72191L307.63393,17.52178L307.63393,16.32166L308.11386,15.60159
				L308.59379,13.68139L308.35382,12.96132L307.63393,12.00122L304.99433,9.60098L300.19504,6.00061L301.63483,5.52056L303.55454,5.28054
				L304.99433,5.28054L305.23429,5.28054L306.43411,6.24064L310.5135,7.68078L311.95328,8.40086L313.1531,8.8809L314.35292,8.8809
				L316.03267,8.64088L317.71242,8.16083L322.03177,4.32044L322.75167,4.32044L323.71152,4.32044L325.15131,4.32044L328.03088,4.80049
				L330.19055,5.52056L334.50991,6.96071L336.42962,7.68078L338.10937,8.64088L340.26904,8.8809L342.18876,9.36095L343.14861,9.60098
				L345.06832,10.56108L345.78822,10.8011L348.18786,11.7612L351.06743,12.48127L357.30649,13.44137L359.70613,14.16144L362.82567,14.64149
				L364.26545,15.12154L368.5848,16.08164L369.06473,16.80171L368.5848,18.48188L367.38498,20.88213L366.66509,23.04235L365.9452,24.72252
				L365.46527,25.68261L361.38588,28.80293L359.70613,31.4432L359.2262,32.4033L358.98624,33.84345L359.70613,35.52362L360.66599,35.76364
				L362.34574,36.00366L364.74538,36.00366L365.70523,35.76364L371.70434,36.00366L373.38408,36.48371L376.26365,37.92386L378.18337,38.64393
				L380.58301,38.88396L382.02279,39.36401L382.74268,39.36401L386.10218,40.3241L388.26186,40.56413L389.46168,41.2842L390.18157,41.52423
				L392.10128,42.2443L393.06114,42.72435L394.26096,44.1645L394.98085,44.40452L399.3002,45.84467L401.69984,47.52484L402.41974,48.24491
				L404.09948,49.20501L410.09859,51.1252L413.69805,53.0454L416.81758,54.0055L417.53747,54.48555L421.3769,55.92569L422.81668,55.92569
				L426.89607,56.64577L428.81578,56.88579L433.13514,59.52606L436.97456,62.8864L438.65431,61.44625L439.61417,61.20623L442.97366,62.16633
				z"/>
			<path clip-path="url(#SVG_CP_1)" fill="#73B273" fill-rule="evenodd" stroke="#000000" stroke-width="0.95986" stroke-miterlimit="10" stroke-linecap="round" stroke-linejoin="round" d="
				M338.82926,418.36258L337.62944,417.88253L336.42962,417.40248L330.91044,417.40248L329.47066,417.88253L327.55095,418.36258
				L325.63124,419.32268L323.95149,421.24287L319.8721,423.64312L318.91224,423.88314L316.75257,425.08327L313.1531,426.76344L311.71332,427.48351
				L309.79361,428.92366L309.55364,428.92366L308.83375,428.44361L307.87389,427.24349L307.39397,426.04336L306.19415,423.88314
				L305.47425,421.4829L303.79451,419.80273L301.39486,418.36258L300.19504,418.12256L298.99522,418.84263L297.31548,419.32268L
				296.35562,419.80273L294.91584,421.4829L292.99612,422.20297L291.31637,423.40309L290.11655,423.64312L289.87659,423.64312L289.1567,422.92305
				L286.99702,419.80273L285.7972,418.60261L287.23699,416.68241L289.87659,414.28217L290.83645,413.08204L295.63573,408.28156L
				297.07551,405.64129L297.55544,404.44116L298.5153,401.56087L298.75526,399.64068L300.67497,393.40004L302.59469,390.0397L304.75436,388.35953
				L305.47425,387.39943L306.19415,386.19931L306.91404,384.75916L308.11386,382.83897L309.31368,379.47862L310.03357,377.79845
				L310.75346,375.15818L310.99343,373.71804L310.99343,370.59772L311.23339,368.67752L311.47336,367.4774L311.47336,364.11706L
				310.75346,359.07655L309.07372,355.47618L308.35382,353.79601L306.43411,351.15574L305.23429,348.03542L304.27443,346.11523L
				302.35472,342.99491L300.43501,340.83469L299.47515,338.9145L301.63483,336.9943L304.5144,332.91388L306.67407,331.95379L307.87389,331.47374
				L310.99343,331.47374L311.71332,330.99369L313.63303,329.07349L316.5126,326.91327L318.67228,326.1932L319.63213,326.1932L320.11206,325.95318
				L322.27174,325.71315L324.19145,326.43323L325.39127,326.43323L327.31098,326.67325L327.55095,326.43323L328.5108,326.91327L
				330.19055,327.1533L332.11027,327.63335L333.55005,328.1134L334.98983,329.79357L335.94969,330.51364L336.18965,330.51364L338.82926,331.95379
				L342.66868,332.91388L344.10847,333.63396L345.30829,333.87398L345.78822,333.63396L345.78822,333.15391L345.54825,329.07349
				L343.14861,320.19259L342.66868,318.75244L341.70883,315.87215L341.46886,314.67203L348.90775,313.95195L352.50721,314.432L353.947,314.19198
				L360.18606,314.19198L361.62585,314.432L363.54556,314.432L373.62405,316.3522L376.74358,316.83225L383.46257,318.27239L386.34214,318.75244
				L394.74089,318.75244L396.6606,318.75244L399.3002,318.75244L402.17977,318.51242L406.25916,318.75244L407.45898,318.99247L408.17887,318.99247
				L409.85862,319.47252L412.25826,320.91266L412.73819,320.91266L417.77744,324.75305L417.05754,326.1932L416.33765,331.95379L
				416.33765,333.15391L416.33765,335.31413L415.85772,337.71437L415.3778,338.19442L414.41794,338.43445L410.81848,338.19442L409.61866,338.43445
				L408.89877,338.9145L408.6588,339.63457L408.41884,340.83469L408.6588,341.79479L408.41884,342.27484L408.41884,345.63518L408.89877,346.59528
				L411.53837,348.99552L412.25826,350.19564L412.25826,351.63579L411.77833,354.27606L410.81848,358.11645L410.57851,360.51669
				L410.33855,364.35708L411.29841,368.19748L412.73819,371.79784L414.41794,374.91816L406.49913,372.27789L404.33945,371.79784
				L401.93981,370.59772L401.21992,369.87765L399.78013,369.3976L396.18067,368.67752L392.10128,368.19748L388.74178,367.23738L
				386.58211,366.5173L385.38229,366.27728L384.42243,366.27728L379.14322,364.83713L376.02369,364.59711L374.82387,364.35708L372.18426,363.39699
				L366.42513,362.67691L364.26545,362.19687L361.38588,360.75672L360.42602,360.51669L358.50631,359.5566L356.82656,359.31657L
				355.38678,359.07655L353.46707,359.31657L351.54735,359.07655L349.86761,359.31657L346.98804,359.07655L345.30829,358.5965L343.8685,358.83652
				L341.46886,360.03665L339.30919,360.51669L338.10937,360.51669L336.66958,360.75672L336.66958,363.15696L336.90955,365.07716
				L336.66958,365.31718L335.46976,366.03726L333.79001,366.75733L333.79001,367.95745L333.55005,369.3976L333.79001,369.87765L
				332.59019,374.19809L331.39037,379.2386L331.15041,381.39882L330.91044,383.79906L330.67048,384.03909L330.67048,385.23921L329.95059,388.1195
				L329.71062,390.51975L328.27084,395.56026L328.27084,397.48046L328.03088,400.12073L328.03088,403.48107L328.5108,405.40126L
				329.47066,406.60138L332.35023,409.24165L335.2298,411.40187L335.70973,411.40187L339.30919,413.80212L339.54915,414.28217L339.54915,415.96234
				L338.82926,418.36258z"/>
			<path clip-path="url(#SVG_CP_1)" fill="#73B273" fill-rule="evenodd" stroke="#000000" stroke-width="0.95986" stroke-miterlimit="10" stroke-linecap="round" stroke-linejoin="round" d="
				M393.06114,287.78929L399.06024,289.22944L402.41974,290.42956L404.09948,290.90961L405.05934,290.90961L406.97905,291.38966
				L408.6588,292.10973L411.29841,292.58978L412.97815,292.58978L415.61776,293.30985L418.97726,293.30985L420.657,294.02993L422.57672,294.50998
				L424.25647,295.23005L428.09589,296.91022L429.77564,297.39027L430.97546,298.35037L446.33316,296.91022L448.25287,295.95012
				L449.69266,295.7101L451.37241,296.43017L452.33226,297.15024L452.57223,297.39027L453.53208,297.87032L453.77205,297.87032L
				456.89158,298.59039L458.81129,299.55049L462.65072,300.27056L466.01021,301.47068L470.56953,302.67081L473.92903,304.11095L
				475.60878,304.591L477.04856,304.591L477.76845,305.07105L482.8077,306.27117L484.24748,306.27117L487.60698,306.5112L490.00662,306.27117
				L491.4464,306.75122L493.60608,306.75122L495.28583,307.23127L496.00572,306.99125L498.64533,306.99125L499.36522,306.75122L
				500.32507,306.99125L502.00482,306.5112L503.20464,306.99125L503.68457,307.4713L504.64443,308.67142L504.88439,309.63151L504.64443,309.87154
				L504.64443,310.35159L504.1645,311.07166L502.96468,312.51181L501.52489,313.47191L500.08511,314.19198L499.12525,315.15208L
				498.64533,315.87215L498.40536,316.3522L497.92543,318.99247L497.68547,323.31291L497.68547,325.95318L498.1654,328.83347L498.40536,330.03359
				L499.84515,330.75366L502.48475,331.23371L503.44461,331.95379L503.68457,332.43384L503.68457,333.63396L503.20464,334.83408
				L502.24479,336.0342L501.28493,336.75428L500.32507,337.23432L497.68547,337.47435L494.56594,338.9145L493.36612,339.87459L491.4464,342.03481
				L489.28673,345.8752L486.40716,350.19564L484.24748,350.91572L483.04766,351.63579L480.40806,352.11584L479.68816,352.35586L
				474.40896,356.6763L472.48924,359.07655L471.04946,362.91694L470.56953,365.31718L470.56953,366.75733L469.60967,369.3976L468.88978,370.11767
				L468.40985,371.79784L466.97007,374.43811L465.29032,376.83836L464.81039,378.75855L464.33046,379.47862L463.61057,379.95867
				L462.65072,381.39882L462.17079,382.59894L462.17079,383.31901L461.21093,385.95928L460.97097,387.39943L460.01111,390.0397L
				459.53118,390.75977L458.57133,390.9998L454.25197,390.75977L453.05215,391.23982L452.33226,391.23982L449.69266,391.23982L446.33316,391.95989
				L444.65341,392.67997L443.45359,393.88009L442.97366,395.32024L442.25377,397.72048L442.01381,399.40065L441.77384,401.8009L
				440.81399,403.48107L441.05395,405.40126L438.41435,406.12134L436.25467,406.84141L435.53478,406.84141L432.17528,407.80151L
				430.0156,408.04153L426.41614,409.96173L422.57672,410.92182L421.13693,410.92182L417.29751,411.40187L416.09769,411.40187L411.53837,412.84202
				L409.37869,412.84202L407.69895,413.08204L406.73909,413.56209L403.85952,413.56209L402.17977,413.08204L399.54017,412.602L398.82028,412.84202
				L398.58031,412.84202L398.10038,413.32207L396.90056,416.92244L397.14053,417.64251L398.82028,419.32268L399.54017,420.5228L
				399.3002,421.4829L399.54017,422.20297L399.54017,422.68302L399.54017,424.12317L399.06024,424.36319L395.94071,424.36319L394.02099,424.84324
				L392.58121,424.84324L390.18157,424.60322L387.54196,423.88314L386.82207,423.88314L385.38229,424.36319L385.14232,424.36319
				L384.18247,424.12317L382.50272,424.12317L379.14322,423.64312L377.46347,423.64312L374.82387,423.16307L373.14412,422.92305
				L370.26455,422.443L366.18516,422.68302L364.50541,422.20297L362.34574,422.443L359.70613,421.96295L358.98624,422.20297L357.30649,421.96295
				L354.66689,421.24287L352.98714,421.24287L350.34753,420.5228L346.98804,420.28278L345.78822,420.76283L343.14861,419.32268L
				342.42872,419.32268L338.82926,418.36258L339.54915,415.96234L339.54915,414.28217L339.30919,413.80212L335.70973,411.40187L
				335.2298,411.40187L332.35023,409.24165L329.47066,406.60138L328.5108,405.40126L328.03088,403.48107L328.03088,400.12073L328.27084,397.48046
				L328.27084,395.56026L329.71062,390.51975L329.95059,388.1195L330.67048,385.23921L330.67048,384.03909L330.91044,383.79906L
				331.15041,381.39882L331.39037,379.2386L332.59019,374.19809L333.79001,369.87765L333.55005,369.3976L333.79001,367.95745L333.79001,366.75733
				L335.46976,366.03726L336.66958,365.31718L336.90955,365.07716L336.66958,363.15696L336.66958,360.75672L338.10937,360.51669
				L339.30919,360.51669L341.46886,360.03665L343.8685,358.83652L345.30829,358.5965L346.98804,359.07655L349.86761,359.31657L351.54735,359.07655
				L353.46707,359.31657L355.38678,359.07655L356.82656,359.31657L358.50631,359.5566L360.42602,360.51669L361.38588,360.75672L
				364.26545,362.19687L366.42513,362.67691L372.18426,363.39699L374.82387,364.35708L376.02369,364.59711L379.14322,364.83713L
				384.42243,366.27728L385.38229,366.27728L386.58211,366.5173L388.74178,367.23738L392.10128,368.19748L396.18067,368.67752L399.78013,369.3976
				L401.21992,369.87765L401.93981,370.59772L404.33945,371.79784L406.49913,372.27789L414.41794,374.91816L412.73819,371.79784
				L411.29841,368.19748L410.33855,364.35708L410.57851,360.51669L410.81848,358.11645L411.77833,354.27606L412.25826,351.63579
				L412.25826,350.19564L411.53837,348.99552L408.89877,346.59528L408.41884,345.63518L408.41884,342.27484L408.6588,341.79479L
				408.41884,340.83469L408.6588,339.63457L408.89877,338.9145L409.61866,338.43445L410.81848,338.19442L414.41794,338.43445L415.3778,338.19442
				L415.85772,337.71437L416.33765,335.31413L416.33765,333.15391L416.33765,331.95379L417.05754,326.1932L417.77744,324.75305L
				412.73819,320.91266L412.25826,320.91266L409.85862,319.47252L408.17887,318.99247L407.45898,318.99247L406.25916,318.75244L
				402.17977,318.51242L399.3002,318.75244L396.6606,318.75244L394.74089,318.75244L386.34214,318.75244L383.46257,318.27239L376.74358,316.83225
				L373.62405,316.3522L363.54556,314.432L361.62585,314.432L360.18606,314.19198L353.947,314.19198L352.50721,314.432L348.90775,313.95195
				L341.46886,314.67203L340.26904,312.51181L338.82926,310.83164L338.34933,309.87154L337.62944,308.67142L337.14951,307.4713L
				336.66958,305.07105L338.58929,298.83042L339.06922,298.35037L340.02908,297.87032L341.94879,296.6702L346.50811,294.99002L350.34753,294.02993
				L352.02728,292.8298L352.98714,292.10973L357.06653,290.66959L358.50631,289.94951L361.62585,287.78929L364.74538,285.8691L366.42513,285.38905
				L369.06473,284.66897L372.42423,284.42895L378.90326,284.66897L381.06293,285.38905L382.50272,286.34915L387.302,287.06922L388.74178,287.30924
				L389.9416,287.30924L393.06114,287.78929z"/>
			<path clip-path="url(#SVG_CP_1)" fill="#73B273" fill-rule="evenodd" stroke="#000000" stroke-width="0.95986" stroke-miterlimit="10" stroke-linecap="round" stroke-linejoin="round" d="
				M448.25287,156.01588L448.7328,158.89617L448.7328,161.29642L448.01291,163.45664L447.05305,165.37683L447.05305,166.57695L446.57312,167.77708
				L446.0932,168.49715L446.0932,169.69727L446.33316,171.85749L446.0932,176.41796L443.93352,182.41857L443.69355,183.61869L442.97366,186.25896
				L442.25377,191.05945L441.29391,197.78013L440.81399,201.62052L440.57402,204.74084L439.85413,207.38111L439.61417,214.10179
				L439.3742,216.50204L439.13424,218.18221L438.65431,219.62235L438.41435,221.54255L438.17438,222.9827L437.45449,226.82309L436.49463,234.50387
				L436.25467,238.34426L436.0147,239.06433L436.0147,240.98453L435.77474,241.7046L435.29481,252.02565L435.29481,254.66592L435.29481,257.06616
				L435.29481,259.70643L435.29481,265.70704L434.81488,269.54744L433.61506,274.58795L432.65521,277.94829L430.0156,283.46885L
				427.376,288.02932L424.25647,295.23005L422.57672,294.50998L420.657,294.02993L418.97726,293.30985L415.61776,293.30985L412.97815,292.58978
				L411.29841,292.58978L408.6588,292.10973L406.97905,291.38966L405.05934,290.90961L404.09948,290.90961L402.41974,290.42956L
				399.06024,289.22944L393.06114,287.78929L393.3011,283.9489L393.3011,279.86849L392.10128,276.26812L391.86132,274.34792L392.10128,271.46763
				L390.90146,269.06739L390.6615,267.86726L389.70164,263.06678L387.06204,258.02626L386.58211,256.10607L386.58211,254.90594L
				386.82207,252.74573L387.06204,249.62541L387.302,248.42529L388.02189,247.94524L388.26186,247.22516L388.74178,246.02504L388.74178,243.6248
				L389.46168,242.6647L390.42153,240.98453L390.90146,240.02443L391.38139,239.54438L392.10128,238.10423L393.3011,236.66409L393.54107,235.94402
				L392.58121,235.46397L390.90146,234.50387L387.06204,234.02382L382.74268,233.7838L380.58301,236.18404L379.86311,237.38416L
				379.38319,237.62419L376.74358,238.34426L375.78372,239.30436L374.34394,242.90472L373.62405,243.6248L372.66419,246.74511L371.46437,248.90533
				L370.74448,250.82553L370.26455,251.30558L370.02459,251.30558L365.9452,248.18526L361.14592,245.06494L357.78642,243.38477L
				356.5866,243.14475L352.26725,242.6647L351.06743,242.18465L349.38768,242.42467L347.228,242.42467L346.50811,242.6647L343.14861,242.18465
				L339.30919,242.42467L338.10937,242.18465L336.18965,242.6647L335.70973,242.6647L334.26994,243.38477L332.83016,245.30497L330.19055,246.74511
				L328.99073,247.94524L326.83106,249.14536L325.39127,250.58551L324.19145,251.5456L322.5117,252.02565L321.55185,252.02565L319.8721,251.5456
				L314.83285,247.94524L310.75346,245.54499L306.91404,243.86482L305.47425,243.14475L301.87479,242.42467L298.75526,241.46458
				L295.87569,240.02443L294.67587,239.78441L294.19594,239.30436L292.51619,238.82431L283.63752,234.74389L281.95778,234.02382
				L282.19774,232.34365L285.07731,229.22333L285.7972,228.26323L287.95688,226.10301L288.67677,224.90289L292.75616,219.86238L
				294.43591,218.66226L295.1558,217.22211L296.83555,215.30191L298.75526,212.1816L301.1549,209.06128L302.11476,207.38111L302.59469,205.94096
				L303.79451,203.78074L305.71422,201.3805L300.43501,200.4204L297.31548,200.18037L295.63573,199.70033L292.03627,197.54011L303.79451,189.85932
				L305.71422,188.17915L308.11386,187.21906L309.55364,186.49898L311.71332,183.85871L313.39307,181.93852L315.31278,178.57818
				L316.03267,176.65798L319.63213,176.89801L322.27174,176.41796L323.95149,176.65798L326.83106,177.13803L328.27084,178.33815
				L328.75077,178.57818L330.19055,178.33815L331.8703,177.61808L333.07012,178.09813L334.02998,179.05823L334.50991,179.29825L
				335.94969,180.97842L338.10937,181.93852L339.54915,183.37866L340.74897,184.09874L341.70883,185.05884L341.94879,185.29886L
				342.42872,185.53888L350.5875,185.53888L353.947,185.29886L355.14682,185.53888L357.30649,185.77891L365.70523,187.21906L367.86491,187.21906
				L370.02459,187.6991L370.74448,188.17915L371.70434,188.41918L373.38408,189.13925L378.90326,190.5794L379.62315,190.81942L382.74268,191.5395
				L383.9425,191.5395L386.10218,191.29947L390.18157,191.29947L393.3011,192.01954L394.50092,192.25957L397.86042,194.41979L399.54017,195.13986
				L401.21992,194.89984L401.69984,195.13986L402.6597,194.65981L404.33945,194.65981L407.69895,193.93974L407.69895,190.33937L
				407.93891,189.37928L408.41884,182.65859L409.13873,180.49837L408.89877,177.61808L410.33855,175.45786L413.45808,172.57757L
				416.57762,170.89739L419.21722,169.69727L422.57672,168.73717L427.61596,167.77708L428.81578,167.29703L430.49553,167.057L435.53478,167.29703
				L437.45449,166.81698L437.93442,166.33693L439.13424,164.89678L440.33406,162.49654L442.97366,160.57634L444.89338,157.93608
				L446.33316,156.49593L447.05305,156.01588L448.25287,156.01588z"/>
			<path clip-path="url(#SVG_CP_1)" fill="#73B273" fill-rule="evenodd" stroke="#000000" stroke-width="0.95986" stroke-miterlimit="10" stroke-linecap="round" stroke-linejoin="round" d="
				M316.03267,176.65798L315.31278,178.57818L313.39307,181.93852L311.71332,183.85871L309.55364,186.49898L308.11386,187.21906
				L305.71422,188.17915L303.79451,189.85932L292.03627,197.54011L295.63573,199.70033L297.31548,200.18037L300.43501,200.4204L
				305.71422,201.3805L303.79451,203.78074L302.59469,205.94096L302.11476,207.38111L301.1549,209.06128L298.75526,212.1816L296.83555,215.30191
				L295.1558,217.22211L294.43591,218.66226L292.75616,219.86238L288.67677,224.90289L287.95688,226.10301L285.7972,228.26323L285.07731,229.22333
				L282.19774,232.34365L281.95778,234.02382L281.47785,234.02382L279.7981,234.98392L274.75885,238.10423L272.59918,240.26445L
				271.87929,241.22455L269.95957,242.90472L268.99972,243.86482L268.75975,244.58489L268.03986,245.30497L265.88018,246.26507L
				262.76065,246.50509L261.56083,246.98514L259.88108,247.94524L255.56173,248.66531L253.88198,249.62541L251.00241,250.34548L
				248.36281,251.5456L247.16299,251.78563L245.96317,252.02565L245.00331,253.22577L243.80349,254.4259L241.88378,256.58612L241.16388,257.06616
				L239.96406,258.26629L238.04435,260.18648L237.0845,260.90656L236.12464,261.3866L234.68486,261.3866L233.48503,261.62663L231.32536,261.62663
				L229.64561,261.86665L228.92572,262.3467L227.7259,262.58673L226.04615,263.78685L223.88647,264.74695L222.20672,264.98697L219.56712,265.46702
				L219.32716,264.02687L218.84723,263.3068L218.3673,259.94646L217.40744,249.86543L216.68755,248.42529L213.80798,244.34487L212.84813,242.42467
				L212.12823,241.46458L210.92841,240.26445L211.40834,239.06433L212.60816,237.62419L213.08809,236.66409L215.0078,234.26384L
				217.64741,229.70338L219.56712,227.30314L220.76694,225.14292L221.48683,222.9827L221.7268,221.30252L221.7268,220.34243L221.0069,216.74206
				L221.24687,213.38172L221.24687,212.90167L221.7268,211.46152L222.92662,210.02138L225.08629,209.3013L226.28611,209.06128L227.48593,208.58123
				L230.12554,207.14108L231.56532,205.70094L232.28521,204.26079L233.00511,200.66042L233.24507,200.4204L233.48503,198.98025L
				234.20493,197.06006L235.40475,194.41979L238.28432,186.01893L238.52428,185.29886L239.7241,181.21845L240.20403,178.33815L240.20403,177.13803
				L240.20403,176.41796L240.20403,175.45786L240.44399,172.81759L241.16388,172.09752L241.88378,171.61747L242.36371,171.37744
				L244.28342,171.13742L245.00331,171.13742L246.20313,171.13742L247.16299,170.89739L248.84273,171.37744L252.68216,171.61747
				L253.64202,171.85749L254.60187,171.61747L267.55993,173.53766L271.63932,173.53766L275.71871,173.53766L278.11835,173.53766
				L279.7981,173.29764L283.39756,174.01771L284.59738,174.01771L289.39666,174.49776L291.55634,174.25774L292.99612,173.77769L
				295.87569,171.61747L296.35562,170.17732L298.03537,168.49715L299.23519,167.057L301.87479,162.97659L301.87479,161.53644L303.07461,163.21661
				L303.55454,164.41673L304.5144,165.85688L305.47425,167.057L306.19415,168.73717L307.63393,170.41735L308.35382,172.09752L309.31368,173.05761
				L311.23339,174.73779L312.43321,175.93791L313.39307,176.17793L316.03267,176.65798z"/>
			<path clip-path="url(#SVG_CP_1)" fill="#73B273" fill-rule="evenodd" stroke="#000000" stroke-width="0.95986" stroke-miterlimit="10" stroke-linecap="round" stroke-linejoin="round" d="
				M542.79871,233.30375L541.59889,235.22394L540.15911,238.82431L539.67918,240.26445L538.2394,247.46519L537.03958,251.30558L
				536.07972,252.74573L535.35983,254.90594L534.8799,255.86604L534.39997,256.82614L532.24029,261.14658L531.76037,262.82675L531.04047,263.54682
				L531.04047,264.2669L530.08062,266.18709L528.8808,267.38722L527.92094,269.54744L526.48116,270.50753L525.5213,270.98758L524.56144,271.70766
				L522.40177,275.30802L523.84155,275.78807L526.96109,276.74817L529.84065,277.22822L532.72022,277.46824L537.99943,277.94829
				L541.59889,277.94829L546.39817,277.22822L550.71753,276.26812L552.8772,276.26812L553.11717,276.50814L553.5971,276.98819L553.5971,278.18831
				L552.63724,280.10851L552.39728,281.78868L552.15731,282.50875L551.67738,284.42895L551.43742,290.42956L548.79782,292.34976
				L547.35803,293.7899L546.39817,295.23005L545.19835,297.39027L544.71843,299.07044L544.47846,300.03054L544.71843,300.99064L
				545.19835,301.95073L546.63814,306.99125L547.11807,308.19137L547.59799,309.87154L548.07792,311.55171L550.71753,316.59222L
				550.71753,317.79235L550.47756,318.51242L549.75767,319.23249L548.07792,319.71254L544.95839,319.95257L543.75857,319.47252L
				542.79871,319.71254L538.47936,321.39271L537.5195,322.35281L537.03958,324.03298L536.79961,325.2331L537.27954,327.87337L536.55965,329.55354
				L534.63994,332.67386L532.96019,334.59406L532.72022,335.31413L532.48026,335.31413L530.32058,339.63457L529.36073,341.31474
				L528.16091,342.99491L526.96109,343.95501L525.28134,344.67508L522.40177,347.07533L519.5222,349.71559L517.60249,351.87581L
				515.44281,353.79601L514.24299,354.99613L512.56324,355.95623L510.88349,356.43628L507.76396,357.6364L506.08421,357.87643L504.1645,358.35647
				L502.00482,358.11645L498.88529,357.15635L497.68547,356.19625L496.24569,354.99613L491.92633,353.31596L488.32687,350.91572
				L486.40716,350.19564L489.28673,345.8752L491.4464,342.03481L493.36612,339.87459L494.56594,338.9145L497.68547,337.47435L500.32507,337.23432
				L501.28493,336.75428L502.24479,336.0342L503.20464,334.83408L503.68457,333.63396L503.68457,332.43384L503.44461,331.95379L
				502.48475,331.23371L499.84515,330.75366L498.40536,330.03359L498.1654,328.83347L497.68547,325.95318L497.68547,323.31291L497.92543,318.99247
				L498.40536,316.3522L498.64533,315.87215L499.12525,315.15208L500.08511,314.19198L501.52489,313.47191L502.96468,312.51181L
				504.1645,311.07166L504.64443,310.35159L504.64443,309.87154L504.88439,309.63151L504.64443,308.67142L503.68457,307.4713L503.20464,306.99125
				L502.00482,306.5112L500.32507,306.99125L499.36522,306.75122L498.64533,306.99125L496.00572,306.99125L495.28583,307.23127L
				493.60608,306.75122L491.4464,306.75122L490.00662,306.27117L487.60698,306.5112L484.24748,306.27117L482.8077,306.27117L477.76845,305.07105
				L477.04856,304.591L475.60878,304.591L473.92903,304.11095L470.56953,302.67081L466.01021,301.47068L462.65072,300.27056L458.81129,299.55049
				L456.89158,298.59039L453.77205,297.87032L453.53208,297.87032L452.57223,297.39027L452.33226,297.15024L451.37241,296.43017
				L449.69266,295.7101L448.25287,295.95012L446.33316,296.91022L430.97546,298.35037L429.77564,297.39027L428.09589,296.91022L
				424.25647,295.23005L427.376,288.02932L430.0156,283.46885L432.65521,277.94829L433.61506,274.58795L434.81488,269.54744L435.29481,265.70704
				L435.29481,259.70643L435.29481,257.06616L435.29481,254.66592L435.29481,252.02565L435.77474,241.7046L436.0147,240.98453L436.0147,239.06433
				L436.25467,238.34426L436.49463,234.50387L437.45449,226.82309L438.17438,222.9827L438.41435,221.54255L438.65431,219.62235L
				439.13424,218.18221L439.3742,216.50204L439.61417,214.10179L445.13334,214.58184L449.45269,215.78196L450.41255,216.50204L451.37241,216.98209
				L452.0923,217.46213L452.33226,218.18221L452.81219,219.1423L455.93172,221.54255L457.61147,222.50265L459.29122,223.94279L465.29032,225.86299
				L467.68996,225.86299L470.80949,226.58306L470.32957,228.02321L471.76935,231.62358L471.76935,232.58367L472.48924,234.50387
				L472.96917,236.90411L473.4491,238.34426L473.92903,240.98453L474.40896,242.90472L475.84874,245.30497L477.28852,246.26507L
				480.64802,246.74511L483.52759,246.98514L484.48745,246.74511L486.16719,246.74511L487.12705,246.74511L489.28673,247.46519L
				490.48655,247.94524L491.20644,248.42529L495.28583,252.02565L496.48565,252.5057L497.44551,252.74573L499.36522,253.22577L501.28493,253.22577
				L502.72471,253.94585L504.40446,254.4259L509.44371,254.90594L511.84335,254.90594L513.28313,252.74573L514.24299,251.30558L
				514.96288,250.82553L515.92274,250.10546L518.80231,249.14536L520.72202,248.18526L523.12166,247.22516L524.08152,246.50509L
				525.04137,245.30497L525.04137,244.10485L525.28134,243.6248L525.76126,242.90472L527.20105,241.22455L528.40087,239.54438L528.40087,236.66409
				L528.64083,236.66409L528.8808,236.18404L528.64083,234.26384L529.36073,232.8237L529.84065,231.8636L530.32058,231.14353L532.00033,230.18343
				L532.72022,230.18343L534.8799,230.9035L536.55965,231.62358L537.27954,231.62358L539.91914,232.58367L542.79871,233.30375z"/>
			<path clip-path="url(#SVG_CP_1)" fill="#73B273" fill-rule="evenodd" stroke="#000000" stroke-width="0.95986" stroke-miterlimit="10" stroke-linecap="round" stroke-linejoin="round" d="
				M562.71573,183.85871L562.2358,185.77891L561.99584,188.17915L561.27595,190.33937L560.79602,192.97964L560.79602,195.61991L
				560.79602,197.06006L558.39638,204.26079L554.07702,215.54194L552.39728,219.1423L551.91735,221.54255L550.71753,223.70277L548.79782,230.66348
				L547.59799,232.8237L546.63814,233.54377L545.91825,233.7838L543.99853,233.30375L542.79871,233.30375L539.91914,232.58367L537.27954,231.62358
				L536.55965,231.62358L534.8799,230.9035L532.72022,230.18343L532.00033,230.18343L530.32058,231.14353L529.84065,231.8636L529.36073,232.8237
				L528.64083,234.26384L528.8808,236.18404L528.64083,236.66409L528.40087,236.66409L528.40087,239.54438L527.20105,241.22455L
				525.76126,242.90472L525.28134,243.6248L525.04137,244.10485L525.04137,245.30497L524.08152,246.50509L523.12166,247.22516L520.72202,248.18526
				L518.80231,249.14536L515.92274,250.10546L514.96288,250.82553L514.24299,251.30558L513.28313,252.74573L511.84335,254.90594
				L509.44371,254.90594L504.40446,254.4259L502.72471,253.94585L501.28493,253.22577L499.36522,253.22577L497.44551,252.74573L
				496.48565,252.5057L495.28583,252.02565L491.20644,248.42529L490.48655,247.94524L489.28673,247.46519L487.12705,246.74511L486.16719,246.74511
				L484.48745,246.74511L483.52759,246.98514L480.64802,246.74511L477.28852,246.26507L475.84874,245.30497L474.40896,242.90472
				L473.92903,240.98453L473.4491,238.34426L472.96917,236.90411L472.48924,234.50387L471.76935,232.58367L471.76935,231.62358L
				470.32957,228.02321L470.80949,226.58306L467.68996,225.86299L465.29032,225.86299L459.29122,223.94279L457.61147,222.50265L
				455.93172,221.54255L452.81219,219.1423L452.33226,218.18221L452.0923,217.46213L451.37241,216.98209L450.41255,216.50204L449.45269,215.78196
				L445.13334,214.58184L439.61417,214.10179L439.85413,207.38111L440.57402,204.74084L440.81399,201.62052L441.29391,197.78013
				L442.25377,191.05945L451.61237,193.93974L452.33226,194.17976L453.53208,194.41979L455.21183,194.41979L456.17169,194.17976
				L458.57133,192.97964L459.53118,192.73962L460.49104,192.73962L463.85054,194.17976L464.81039,194.41979L468.88978,193.93974
				L469.60967,190.5794L470.0896,189.37928L470.32957,189.13925L471.04946,188.6592L471.52939,188.6592L472.96917,189.37928L473.20913,189.13925
				L474.40896,189.6193L476.32867,189.6193L477.28852,189.37928L481.12795,189.13925L482.32777,188.6592L485.4473,187.93913L489.28673,187.45908
				L491.20644,187.21906L500.56504,187.21906L502.72471,187.45908L504.40446,187.21906L508.48385,187.45908L510.40356,187.6991L
				512.08331,188.17915L513.04317,188.41918L514.24299,188.89923L516.40267,188.89923L517.84245,189.37928L520.96198,189.6193L525.04137,189.6193
				L528.64083,188.6592L531.28044,187.6991L533.20015,186.73901L534.39997,185.29886L535.83976,182.41857L536.55965,181.93852L537.75947,181.69849
				L538.71932,181.45847L541.35893,182.41857L545.67828,182.65859L548.07792,182.89862L560.31609,183.13864L562.71573,183.85871
				z"/>
			<path clip-path="url(#SVG_CP_1)" fill="#73B273" fill-rule="evenodd" stroke="#000000" stroke-width="0.95986" stroke-miterlimit="10" stroke-linecap="round" stroke-linejoin="round" d="
				M580.953,95.52972L579.75318,98.16999L579.51322,101.53033L579.03329,102.49043L577.83347,106.57085L577.5935,108.01099L577.35354,109.21112
				L577.11357,112.09141L576.63365,115.69178L575.43383,121.45236L574.9539,123.13253L574.47397,125.05273L573.03419,129.61319L
				571.5944,133.21356L569.91465,136.33388L569.19476,137.534L568.2349,139.21417L567.51501,144.73473L567.51501,148.3351L568.9548,152.89556
				L570.63454,155.77586L571.5944,156.97598L572.07433,157.93608L572.55426,160.0963L572.31429,161.29642L571.83437,162.73656L571.83437,163.21661
				L570.87451,165.61686L570.15462,168.73717L567.99494,173.53766L566.79512,175.69788L565.5953,176.89801L564.87541,178.09813L
				563.67559,181.93852L562.71573,183.85871L560.31609,183.13864L548.07792,182.89862L545.67828,182.65859L541.35893,182.41857L
				538.71932,181.45847L537.75947,181.69849L536.55965,181.93852L535.83976,182.41857L534.39997,185.29886L533.20015,186.73901L
				531.28044,187.6991L528.64083,188.6592L525.04137,189.6193L520.96198,189.6193L517.84245,189.37928L516.40267,188.89923L514.24299,188.89923
				L513.04317,188.41918L512.08331,188.17915L510.40356,187.6991L508.48385,187.45908L504.40446,187.21906L502.72471,187.45908L
				500.56504,187.21906L491.20644,187.21906L489.28673,187.45908L485.4473,187.93913L482.32777,188.6592L481.12795,189.13925L477.28852,189.37928
				L476.32867,189.6193L474.40896,189.6193L473.20913,189.13925L472.96917,189.37928L471.52939,188.6592L471.04946,188.6592L470.32957,189.13925
				L470.0896,189.37928L469.60967,190.5794L468.88978,193.93974L464.81039,194.41979L463.85054,194.17976L460.49104,192.73962L459.53118,192.73962
				L458.57133,192.97964L456.17169,194.17976L455.21183,194.41979L453.53208,194.41979L452.33226,194.17976L451.61237,193.93974
				L442.25377,191.05945L442.97366,186.25896L443.69355,183.61869L443.93352,182.41857L446.0932,176.41796L446.33316,171.85749L
				446.0932,169.69727L446.0932,168.49715L446.57312,167.77708L447.05305,166.57695L447.05305,165.37683L448.01291,163.45664L448.7328,161.29642
				L448.7328,158.89617L448.25287,156.01588L452.33226,156.2559L453.77205,156.49593L455.93172,156.2559L458.0914,155.77586L460.97097,154.81576
				L462.65072,154.33571L464.0905,154.09568L466.25018,154.57573L466.97007,154.57573L471.76935,153.61564L472.48924,153.13559L
				475.12885,151.93546L478.48834,151.21539L478.96827,150.73534L479.4482,149.53522L479.68816,149.05517L479.20824,148.57512L479.4482,147.61502
				L479.68816,147.13498L481.84784,146.65493L482.56773,146.4149L484.48745,143.29459L485.20734,140.65432L486.40716,138.25407L
				489.04676,134.65371L490.72651,131.77341L491.92633,130.57329L493.60608,129.61319L494.08601,129.37317L494.8059,129.85322L495.28583,129.85322
				L496.00572,129.61319L496.72561,129.13314L497.20554,128.89312L497.68547,127.93302L497.68547,127.21295L497.92543,126.49288
				L498.88529,125.7728L500.32507,125.29275L501.28493,124.09263L502.00482,122.89251L502.48475,121.21234L503.20464,118.33204L
				503.20464,116.65187L502.72471,115.45175L503.20464,114.0116L502.96468,111.61136L503.44461,111.13131L503.44461,108.49104L504.40446,106.81087
				L508.24389,103.45053L509.20374,102.73046L509.92364,102.49043L511.84335,101.53033L514.24299,101.29031L517.60249,101.77036
				L519.28224,102.49043L522.40177,103.21051L523.84155,103.69055L526.48116,104.41063L527.68098,104.41063L528.64083,104.1706L
				529.84065,103.69055L531.5204,102.73046L531.76037,102.49043L535.59979,99.13009L537.5195,97.92997L540.15911,97.44992L542.31879,97.44992
				L543.03868,97.44992L543.75857,96.72985L544.47846,95.76975L544.71843,95.04967L544.71843,94.08958L545.67828,92.40941L546.63814,91.20928
				L547.59799,90.48921L548.07792,90.48921L550.47756,90.96926L554.79692,92.64943L556.47667,92.88945L559.35623,93.60953L560.79602,93.60953
				L562.47577,93.84955L563.19566,94.3296L564.63544,94.3296L565.83526,94.80965L566.55516,94.80965L568.47487,95.52972L569.67469,95.52972
				L570.87451,95.76975L575.67379,96.00977L576.39368,96.00977L578.07343,95.76975L580.953,95.52972z"/>
			<path clip-path="url(#SVG_CP_1)" fill="#73B273" fill-rule="evenodd" stroke="#000000" stroke-width="0.95986" stroke-miterlimit="10" stroke-linecap="round" stroke-linejoin="round" d="
				M632.54527,147.375L629.90567,149.53522L628.94581,150.49532L627.98596,151.21539L627.74599,152.41551L627.0261,153.61564L626.78614,154.33571
				L626.78614,155.77586L627.26606,158.65615L627.26606,159.61625L627.50603,161.29642L627.98596,162.25652L627.74599,163.21661
				L627.98596,164.17671L627.98596,167.29703L627.98596,168.49715L627.26606,170.65737L625.10639,173.77769L624.14653,175.69788
				L623.6666,177.13803L623.42664,178.8182L622.94671,181.45847L622.70675,184.09874L622.94671,185.53888L623.42664,187.21906L623.42664,190.09935
				L623.90657,192.49959L623.90657,195.37989L624.3865,197.78013L623.90657,199.70033L622.70675,201.62052L622.22682,203.30069L
				621.027,205.94096L620.78703,207.38111L619.10729,210.74145L617.42754,213.38172L615.50782,216.02199L614.54797,216.74206L612.86822,219.1423
				L612.62826,219.86238L612.62826,225.86299L612.62826,227.06311L611.42844,230.66348L610.70854,231.62358L609.26876,232.58367
				L607.34905,232.58367L605.6693,232.34365L602.78973,233.06372L600.87002,232.8237L598.23041,233.30375L597.03059,233.54377L595.83077,233.54377
				L593.43113,234.02382L593.19117,233.7838L591.27145,234.50387L589.11178,234.98392L587.43203,235.70399L583.83257,236.66409L
				582.39278,237.38416L580.71304,237.86421L579.51322,238.58428L571.11447,240.7445L568.47487,242.42467L567.03508,243.86482L566.79512,244.34487
				L567.03508,247.94524L567.27505,248.66531L567.51501,250.58551L566.79512,252.74573L564.87541,255.38599L563.67559,256.58612
				L562.95569,257.54621L559.83616,260.18648L558.39638,261.86665L557.91645,263.06678L558.15641,265.94707L558.39638,267.14719
				L559.11627,267.62724L559.5962,267.86726L564.39548,265.70704L566.07523,265.46702L566.55516,265.70704L567.51501,266.90717L
				568.47487,267.62724L569.91465,268.82736L570.63454,271.22761L570.63454,274.58795L571.35444,276.26812L571.35444,276.98819L
				570.87451,278.42834L570.39458,282.26873L569.43472,284.18893L568.71483,284.66897L566.55516,285.14902L565.83526,285.14902L
				561.99584,286.34915L558.15641,286.58917L555.51681,287.78929L554.55695,288.50937L552.8772,289.22944L551.43742,290.42956L551.67738,284.42895
				L552.15731,282.50875L552.39728,281.78868L552.63724,280.10851L553.5971,278.18831L553.5971,276.98819L553.11717,276.50814L552.8772,276.26812
				L550.71753,276.26812L546.39817,277.22822L541.59889,277.94829L537.99943,277.94829L532.72022,277.46824L529.84065,277.22822
				L526.96109,276.74817L523.84155,275.78807L522.40177,275.30802L524.56144,271.70766L525.5213,270.98758L526.48116,270.50753L
				527.92094,269.54744L528.8808,267.38722L530.08062,266.18709L531.04047,264.2669L531.04047,263.54682L531.76037,262.82675L532.24029,261.14658
				L534.39997,256.82614L534.8799,255.86604L535.35983,254.90594L536.07972,252.74573L537.03958,251.30558L538.2394,247.46519L539.67918,240.26445
				L540.15911,238.82431L541.59889,235.22394L542.79871,233.30375L543.99853,233.30375L545.91825,233.7838L546.63814,233.54377L
				547.59799,232.8237L548.79782,230.66348L550.71753,223.70277L551.91735,221.54255L552.39728,219.1423L554.07702,215.54194L558.39638,204.26079
				L560.79602,197.06006L560.79602,195.61991L560.79602,192.97964L561.27595,190.33937L561.99584,188.17915L562.2358,185.77891L
				562.71573,183.85871L563.67559,181.93852L564.87541,178.09813L565.5953,176.89801L566.79512,175.69788L567.99494,173.53766L570.15462,168.73717
				L570.87451,165.61686L571.83437,163.21661L571.83437,162.73656L572.31429,161.29642L572.55426,160.0963L572.07433,157.93608L
				571.5944,156.97598L570.63454,155.77586L568.9548,152.89556L567.51501,148.3351L567.51501,144.73473L568.2349,139.21417L569.19476,137.534
				L569.91465,136.33388L571.5944,133.21356L573.03419,129.61319L574.47397,125.05273L574.9539,123.13253L575.43383,121.45236L576.63365,115.69178
				L577.11357,112.09141L577.35354,109.21112L577.5935,108.01099L577.83347,106.57085L579.03329,102.49043L579.51322,101.53033L
				579.75318,98.16999L580.953,95.52972L584.79242,95.52972L585.03239,96.2498L585.51232,97.44992L586.71214,98.89007L588.63185,102.49043
				L591.51142,107.77097L591.99135,108.97109L592.23131,109.21112L593.6711,112.57146L596.3107,119.05212L597.51052,119.77219L600.15012,119.53217
				L602.78973,120.97231L603.74959,121.93241L604.22951,122.65248L604.46948,123.13253L603.74959,124.57268L603.98955,125.29275
				L604.22951,125.53278L605.18937,125.7728L606.86912,125.29275L608.3089,126.49288L608.78883,126.49288L609.98865,126.49288L610.46858,126.01283
				L610.70854,125.7728L610.94851,125.05273L610.94851,124.33266L610.94851,121.69239L611.42844,120.97231L611.18847,118.09202L
				611.90836,117.13192L612.38829,117.13192L614.54797,118.57207L615.0279,119.29214L615.50782,120.49226L616.94761,121.93241L617.6675,122.17244
				L619.58721,122.17244L620.06714,122.65248L620.78703,123.85261L620.78703,125.05273L621.26696,126.25285L622.22682,126.25285
				L622.70675,125.53278L623.6666,125.29275L623.90657,124.8127L624.62646,124.8127L626.06624,125.7728L625.58632,127.93302L626.30621,130.81331
				L627.98596,134.65371L629.90567,139.93424L630.62556,141.61441L632.54527,147.375z"/>
		</g>
		<g id="Labels">
			<g id="WordFile_-_Default">
				<g font-family="'Arial'" font-size="1" kerning="0" font-weight="400" fill="#000000" clip-path="url(#SVG_CP_1)" >
					<text text-anchor="start" transform="matrix(7.91881 0 0 7.92081 364.26545 114.25327)" >
						<tspan direction="ltr" unicode-bidi="embed" x="0 ">9</tspan>
					</text>
				</g>
				<g font-family="'Arial'" font-size="1" kerning="0" font-weight="400" fill="#000000" clip-path="url(#SVG_CP_1)" >
					<text text-anchor="start" transform="matrix(7.91881 0 0 7.92081 447.29302 347.79704)" >
						<tspan direction="ltr" unicode-bidi="embed" x="0 ">8</tspan>
					</text>
				</g>
				<g font-family="'Arial'" font-size="1" kerning="0" font-weight="400" fill="#000000" clip-path="url(#SVG_CP_1)" >
					<text text-anchor="start" transform="matrix(7.91881 0 0 7.92081 364.02549 225.14456)" >
						<tspan direction="ltr" unicode-bidi="embed" x="0 ">1</tspan>
					</text>
				</g>
				<g font-family="'Arial'" font-size="1" kerning="0" font-weight="400" fill="#000000" clip-path="url(#SVG_CP_1)" >
					<text text-anchor="start" transform="matrix(7.91881 0 0 7.92081 476.0887 280.35018)" >
						<tspan direction="ltr" unicode-bidi="embed" x="0 ">3</tspan>
					</text>
				</g>
				<g font-family="'Arial'" font-size="1" kerning="0" font-weight="400" fill="#000000" clip-path="url(#SVG_CP_1)" >
					<text text-anchor="start" transform="matrix(7.91881 0 0 7.92081 590.55156 194.42143)" >
						<tspan direction="ltr" unicode-bidi="embed" x="0 ">6</tspan>
					</text>
				</g>
				<g font-family="'Arial'" font-size="1" kerning="0" font-weight="400" fill="#000000" clip-path="url(#SVG_CP_1)" >
					<text text-anchor="start" transform="matrix(7.91881 0 0 7.92081 524.08152 148.81679)" >
						<tspan direction="ltr" unicode-bidi="embed" x="0 ">5</tspan>
					</text>
				</g>
				<g font-family="'Arial'" font-size="1" kerning="0" font-weight="400" fill="#000000" clip-path="url(#SVG_CP_1)" >
					<text text-anchor="start" transform="matrix(7.91881 0 0 7.92081 375.06383 339.39619)" >
						<tspan direction="ltr" unicode-bidi="embed" x="0 ">7</tspan>
					</text>
				</g>
				<g font-family="'Arial'" font-size="1" kerning="0" font-weight="400" fill="#000000" clip-path="url(#SVG_CP_1)" >
					<text text-anchor="start" transform="matrix(7.91881 0 0 7.92081 504.88439 223.70441)" >
						<tspan direction="ltr" unicode-bidi="embed" x="0 ">4</tspan>
					</text>
				</g>
				<g font-family="'Arial'" font-size="1" kerning="0" font-weight="400" fill="#000000" clip-path="url(#SVG_CP_1)" >
					<text text-anchor="start" transform="matrix(7.91881 0 0 7.92081 262.28072 212.90331)" >
						<tspan direction="ltr" unicode-bidi="embed" x="0 ">2</tspan>
					</text>
				</g>
			</g>
		</g>
	</g>
</svg>
