<?xml version="1.0" encoding="utf-8" standalone="no"?>
<!-- Creator: Esri ArcMap 10.6.1.9270 -->
<!DOCTYPE svg PUBLIC "-//W3C//DTD SVG 1.1//EN"  "http://www.w3.org/Graphics/SVG/1.1/DTD/svg11.dtd">
<svg width="813.74173pt" height="434.23937pt" viewBox="0 0 813.74173 434.23937" enable-background="new 0 0 813.74173 434.23937"
	version="1.1" xmlns="http://www.w3.org/2000/svg" xmlns:xlink="http://www.w3.org/1999/xlink" >
	<g id="Layers">
		<g id="WordFile">
			<clipPath id="SVG_CP_1">
				<path d="M0,434.23937L0,0L813.74173,0L813.74173,434.23937L0,434.23937z"/>
			</clipPath>
			<path clip-path="url(#SVG_CP_1)" fill="#73B273" fill-rule="evenodd" stroke="#000000" stroke-width="0.95986" stroke-miterlimit="10" stroke-linecap="round" stroke-linejoin="round" d="
				M341.2289,274.82797L341.70883,275.54805L343.14861,277.46824L343.8685,278.90839L345.06832,280.10851L345.54825,280.58856L346.26814,280.82858
				L347.46797,281.06861L349.14771,280.10851L350.34753,279.14841L351.54735,279.62846L352.02728,280.10851L352.98714,280.34853
				L354.90685,280.58856L358.98624,280.82858L360.90595,281.06861L361.62585,281.54866L361.86581,281.54866L362.34574,282.02871
				L363.78552,284.42895L363.78552,286.58917L363.54556,287.30924L362.34574,289.22944L361.86581,289.46946L361.38588,289.70949
				L360.66599,289.94951L360.18606,290.66959L360.90595,291.86971L361.62585,292.34976L364.02549,293.7899L367.38498,294.75L368.82477,295.95012
				L370.26455,297.15024L370.98444,299.07044L371.22441,300.75061L370.74448,301.71071L369.54466,303.15086L369.3047,303.6309L368.10487,305.07105
				L367.14502,305.79112L366.66509,306.27117L364.74538,307.71132L364.02549,308.91144L361.86581,311.31169L360.66599,318.27239
				L360.90595,320.19259L361.86581,321.15269L363.30559,324.03298L363.78552,325.71315L363.78552,327.63335L364.74538,329.79357
				L361.62585,334.35403L361.38588,335.55415L362.10577,336.75428L364.02549,338.43445L365.46527,339.15452L367.62495,339.39454
				L368.82477,340.11462L369.3047,340.59467L369.06473,341.55476L368.34484,342.51486L363.78552,343.23494L361.38588,342.03481L
				353.70703,341.31474L351.78732,342.27484L350.5875,342.99491L349.14771,344.67508L347.94789,345.15513L345.54825,345.8752L341.70883,345.15513
				L331.63034,346.35525L330.19055,347.07533L329.47066,348.27545L329.47066,348.7555L329.95059,349.95562L331.39037,351.39577L
				333.31009,352.59589L333.79001,353.31596L334.26994,353.79601L334.26994,355.95623L333.31009,359.79662L330.91044,364.59711L
				330.67048,366.27728L329.95059,367.4774L326.59109,368.4375L324.19145,368.4375L321.07192,367.95745L319.8721,368.4375L319.39217,369.3976
				L319.15221,370.3577L321.79181,374.67814L321.79181,375.15818L322.27174,377.3184L322.5117,377.79845L322.75167,378.03848L323.23159,379.71865
				L323.47156,381.1588L323.23159,381.87887L322.5117,382.59894L320.83195,381.1588L319.63213,378.2785L318.91224,377.79845L315.79271,377.55843
				L315.55274,377.55843L314.59289,377.55843L313.1531,377.3184L312.43321,377.07838L311.23339,375.63823L310.5135,373.47801L310.03357,372.99796
				L307.39397,371.79784L306.43411,371.79784L305.95418,371.79784L304.5144,372.03787L303.55454,372.51792L303.31458,375.39821L
				302.83465,376.83836L302.35472,377.3184L301.87479,377.79845L301.39486,378.03848L300.67497,378.99858L297.7954,383.55904L296.59558,382.35892
				L296.35562,381.1588L296.35562,379.71865L296.59558,378.75855L296.59558,377.55843L295.87569,375.63823L295.63573,375.15818L
				295.39576,374.91816L292.75616,372.51792L290.83645,370.11767L289.63663,368.4375L288.67677,367.71743L286.99702,366.75733L285.31727,366.03726
				L283.39756,364.35708L281.71781,363.15696L280.51799,360.99674L280.51799,360.27667L280.51799,359.79662L282.19774,358.5965L
				282.67767,358.5965L284.83734,358.5965L286.75706,359.07655L287.71691,359.5566L288.67677,359.79662L292.03627,360.27667L292.51619,360.03665
				L293.95598,359.31657L294.67587,358.83652L295.1558,357.87643L295.1558,356.43628L294.43591,354.75611L290.83645,347.55537L289.39666,344.19503
				L289.1567,341.55476L288.67677,337.9544L288.67677,337.71437L286.99702,331.95379L287.23699,330.27362L287.95688,328.59344L288.67677,327.1533
				L291.31637,324.27301L292.51619,322.83286L292.75616,321.63274L292.99612,321.15269L292.99612,320.19259L292.99612,319.47252
				L292.51619,316.83225L292.51619,311.07166L292.03627,307.71132L291.7963,306.27117L291.7963,305.5511L291.31637,303.87093L291.7963,303.15086
				L292.51619,302.67081L292.99612,302.19076L294.19594,301.47068L294.43591,301.47068L295.87569,301.47068L296.11566,301.23066
				L296.35562,301.23066L297.7954,301.23066L299.71512,301.95073L300.91494,301.47068L301.39486,300.75061L301.39486,300.27056L
				301.39486,300.03054L300.91494,299.07044L300.67497,298.83042L300.43501,298.11034L298.27533,295.95012L297.31548,294.75L296.83555,294.26995
				L294.91584,292.58978L294.43591,291.86971L293.47605,290.42956L292.99612,289.22944L292.99612,285.8691L292.99612,284.18893L
				292.75616,283.22883L292.75616,282.02871L292.27623,280.34853L291.55634,278.42834L291.55634,277.70827L291.7963,276.74817L291.55634,276.26812
				L291.55634,275.78807L292.03627,274.1079L292.03627,273.86787L292.27623,272.90778L294.19594,274.34792L294.91584,274.82797L
				296.83555,275.30802L299.71512,275.54805L301.1549,275.54805L302.11476,275.78807L302.83465,276.26812L304.27443,276.50814L306.19415,276.98819
				L307.154,276.74817L308.35382,276.98819L309.55364,276.98819L310.27354,277.94829L311.23339,278.42834L313.39307,279.14841L314.59289,280.10851
				L315.79271,281.30863L317.23249,282.50875L318.19235,282.9888L319.15221,282.74878L320.35203,282.50875L322.03177,282.50875L
				323.71152,282.02871L325.15131,281.30863L326.35113,280.10851L328.03088,279.62846L329.47066,279.86849L330.19055,279.86849L
				331.15041,279.86849L332.83016,279.38844L335.94969,277.94829L336.90955,277.70827L338.82926,276.98819L341.2289,274.82797z"/>
			<path clip-path="url(#SVG_CP_1)" fill="#73B273" fill-rule="evenodd" stroke="#000000" stroke-width="0.95986" stroke-miterlimit="10" stroke-linecap="round" stroke-linejoin="round" d="
				M468.64982,214.10179L468.88978,214.82187L468.16989,215.54194L467.68996,216.98209L468.16989,217.70216L469.12975,218.90228
				L469.36971,219.1423L469.12975,220.1024L468.16989,221.0625L467.92993,222.0226L467.21003,222.26262L466.73011,222.26262L466.01021,221.78257
				L465.05036,221.78257L464.57043,222.0226L463.85054,222.50265L463.37061,222.9827L463.37061,223.46274L463.85054,224.90289L463.37061,226.10301
				L463.61057,226.34304L464.57043,227.06311L464.81039,227.78318L464.81039,228.02321L464.0905,228.50326L462.89068,229.22333L
				462.89068,229.70338L463.61057,230.9035L464.81039,232.10362L465.29032,233.54377L465.05036,234.74389L464.81039,235.22394L464.0905,236.18404
				L463.85054,236.90411L464.0905,239.54438L463.61057,240.50448L462.89068,241.46458L462.89068,242.18465L463.37061,243.14475L
				464.33046,243.6248L464.81039,244.10485L465.29032,244.82492L465.53028,245.78502L465.53028,246.50509L464.81039,248.66531L465.05036,249.38538
				L465.29032,250.10546L465.53028,250.34548L467.21003,251.30558L467.92993,251.78563L468.16989,252.5057L467.68996,253.4658L467.45,253.70582
				L466.97007,253.94585L464.33046,252.98575L463.85054,253.94585L462.41075,254.18587L459.05126,255.14597L449.69266,255.62602
				L448.25287,255.62602L446.57312,255.38599L445.3733,254.90594L443.69355,254.18587L442.01381,253.94585L441.77384,253.94585L
				440.81399,256.10607L439.13424,258.02626L438.17438,258.98636L437.69445,259.46641L436.49463,259.94646L435.77474,260.18648L
				433.13514,261.86665L432.41524,262.10668L430.25557,263.06678L429.77564,263.3068L427.85593,264.2669L425.21632,265.227L423.53657,265.70704
				L423.29661,265.94707L423.29661,264.74695L423.53657,264.02687L424.0165,263.54682L425.45629,262.82675L425.69625,262.3467L425.93621,261.62663
				L425.93621,260.42651L426.41614,259.22638L426.89607,258.26629L426.65611,256.58612L426.17618,255.62602L425.69625,254.66592
				L424.49643,252.74573L424.25647,252.26568L423.77654,250.82553L422.57672,249.38538L421.3769,247.94524L420.657,247.22516L419.69715,244.34487
				L419.45718,243.14475L419.93711,242.42467L421.3769,241.22455L422.57672,240.7445L424.73639,240.7445L424.97636,240.50448L424.97636,239.78441
				L424.49643,239.06433L421.13693,236.42406L420.41704,235.70399L418.97726,232.58367L417.77744,228.50326L418.0174,227.78318L
				419.21722,224.66287L419.45718,223.22272L420.17708,222.0226L421.13693,220.58245L421.61686,219.62235L422.81668,214.82187L423.29661,213.62174
				L424.25647,212.42162L425.21632,209.06128L425.93621,207.62113L427.376,205.94096L428.33585,205.46091L429.77564,205.22089L431.45539,205.22089
				L433.3751,205.46091L435.29481,205.46091L437.21453,205.22089L440.33406,204.50081L441.77384,204.50081L443.21363,204.74084L
				444.89338,204.26079L445.13334,204.02077L445.3733,203.54072L445.3733,201.62052L445.3733,201.3805L445.61327,201.14047L446.33316,201.14047
				L448.25287,202.34059L448.7328,202.58062L450.65251,203.30069L451.85233,204.02077L455.93172,205.70094L457.85143,206.66103L
				461.69086,209.3013L464.0905,210.74145L465.77025,212.1816L466.49014,212.66165L467.68996,213.62174L468.64982,214.10179z"/>
			<path clip-path="url(#SVG_CP_1)" fill="#73B273" fill-rule="evenodd" stroke="#000000" stroke-width="0.95986" stroke-miterlimit="10" stroke-linecap="round" stroke-linejoin="round" d="
				M463.85054,253.94585L463.85054,254.4259L464.33046,255.38599L465.05036,256.34609L466.49014,257.30619L466.49014,258.50631L
				465.53028,259.46641L464.81039,259.70643L464.57043,260.66653L464.81039,261.86665L464.57043,262.3467L464.33046,262.82675L463.85054,263.06678
				L462.65072,263.3068L461.93082,264.02687L460.731,265.227L459.77115,265.70704L458.57133,266.90717L458.57133,267.62724L458.81129,269.30741
				L458.57133,270.74756L458.57133,271.70766L458.81129,271.94768L459.77115,272.42773L460.49104,272.42773L461.4509,271.46763L
				462.89068,271.70766L465.53028,272.42773L466.49014,273.38783L467.45,273.86787L468.64982,274.1079L469.12975,274.58795L469.60967,275.30802
				L469.12975,276.50814L468.64982,276.98819L467.68996,278.18831L467.45,279.62846L467.68996,280.58856L467.92993,281.30863L467.92993,282.26873
				L468.40985,283.46885L470.0896,283.46885L472.48924,283.46885L473.4491,283.70888L474.40896,284.42895L474.64892,285.14902L474.88888,286.58917
				L473.4491,287.30924L473.20913,287.30924L472.96917,287.54927L473.92903,289.70949L474.88888,290.18954L475.84874,291.62968L
				477.52849,292.10973L478.72831,293.54988L479.4482,293.7899L479.92813,293.30985L481.12795,290.90961L481.60788,290.18954L482.08781,288.74939
				L482.56773,288.26934L483.28763,288.26934L486.16719,288.50937L486.88709,288.74939L487.36701,289.70949L487.36701,290.18954
				L486.40716,291.86971L485.20734,294.50998L485.20734,295.47007L485.4473,296.19015L485.92723,296.6702L486.40716,296.91022L488.08691,296.91022
				L488.8068,296.19015L490.24658,295.7101L491.68637,296.19015L492.88619,296.6702L494.08601,297.15024L495.28583,297.87032L495.76576,298.59039
				L496.24569,301.23066L496.72561,302.43078L496.00572,302.67081L495.52579,302.91083L494.8059,304.35098L494.32597,304.83103L
				493.84604,305.31108L493.36612,305.31108L491.68637,305.5511L491.20644,305.5511L490.72651,306.03115L489.76666,306.27117L489.04676,306.27117
				L488.56683,306.75122L484.00752,308.43139L483.76755,308.91144L483.52759,310.35159L483.04766,310.83164L480.16809,312.99186
				L478.96827,314.19198L478.48834,315.3921L476.32867,316.59222L476.56863,317.55232L476.32867,318.75244L475.60878,318.75244L
				473.68906,318.75244L470.56953,319.23249L466.73011,318.99247L459.05126,323.55293L455.21183,326.67325L454.01201,327.87337L
				453.53208,328.83347L451.37241,330.51364L450.89248,331.47374L449.69266,331.23371L448.25287,330.99369L446.33316,330.51364L
				440.57402,328.35342L436.25467,327.1533L432.65521,326.67325L430.25557,325.95318L428.57582,325.47313L427.13603,324.75305L424.97636,321.39271
				L424.25647,320.43261L421.61686,317.3123L419.45718,312.27178L419.45718,310.35159L422.09679,306.27117L422.09679,305.5511L422.33675,304.35098
				L422.33675,303.39088L422.81668,301.71071L423.29661,300.75061L424.25647,299.55049L424.97636,297.87032L424.73639,297.63029
				L427.376,296.91022L428.09589,296.6702L431.21542,295.23005L431.69535,294.75L432.17528,293.7899L432.41524,292.10973L432.41524,290.42956
				L432.41524,288.26934L431.93532,287.30924L431.93532,286.82919L431.45539,285.8691L430.25557,284.18893L430.0156,283.70888L430.0156,282.74878
				L430.97546,280.34853L430.97546,278.18831L430.0156,276.98819L429.29571,276.26812L427.376,275.30802L425.93621,273.86787L425.45629,273.38783
				L425.21632,272.66775L425.45629,271.46763L425.69625,270.26751L425.69625,270.02748L424.25647,268.58734L423.05665,266.66714
				L423.29661,265.94707L423.53657,265.70704L425.21632,265.227L427.85593,264.2669L429.77564,263.3068L430.25557,263.06678L432.41524,262.10668
				L433.13514,261.86665L435.77474,260.18648L436.49463,259.94646L437.69445,259.46641L438.17438,258.98636L439.13424,258.02626
				L440.81399,256.10607L441.77384,253.94585L442.01381,253.94585L443.69355,254.18587L445.3733,254.90594L446.57312,255.38599L
				448.25287,255.62602L449.69266,255.62602L459.05126,255.14597L462.41075,254.18587L463.85054,253.94585z"/>
			<path clip-path="url(#SVG_CP_1)" fill="#73B273" fill-rule="evenodd" stroke="#000000" stroke-width="0.95986" stroke-miterlimit="10" stroke-linecap="round" stroke-linejoin="round" d="
				M533.44011,228.26323L533.68008,231.14353L533.92004,232.10362L534.16001,232.58367L534.63994,234.50387L533.68008,234.50387
				L532.96019,234.74389L527.92094,234.74389L525.5213,234.98392L523.84155,234.98392L522.40177,234.98392L520.24209,234.98392L
				518.80231,234.74389L517.12256,234.74389L514.00303,234.50387L512.08331,234.50387L511.36342,234.74389L510.88349,235.22394L
				510.40356,236.18404L510.40356,237.14414L510.64353,238.10423L511.84335,240.98453L512.56324,243.86482L512.56324,247.46519L
				513.04317,254.4259L513.04317,254.90594L512.56324,255.62602L512.08331,255.86604L511.12346,255.86604L508.24389,254.4259L505.84425,253.94585
				L504.40446,254.18587L503.44461,254.4259L499.84515,256.10607L498.1654,256.58612L496.00572,256.58612L494.8059,255.86604L493.12615,256.34609
				L492.88619,256.58612L491.68637,256.58612L491.4464,256.58612L490.48655,256.34609L490.00662,259.22638L489.76666,259.70643L
				489.04676,259.94646L487.60698,259.70643L487.36701,260.90656L487.36701,261.86665L487.36701,263.78685L487.60698,264.74695L
				486.64712,264.74695L486.40716,265.70704L485.4473,267.14719L484.48745,270.26751L483.76755,271.22761L480.64802,273.1478L477.04856,276.02809
				L475.60878,276.74817L473.92903,277.22822L472.96917,277.22822L470.80949,276.98819L470.56953,276.74817L468.64982,276.98819
				L469.12975,276.50814L469.60967,275.30802L469.12975,274.58795L468.64982,274.1079L467.45,273.86787L466.49014,273.38783L465.53028,272.42773
				L462.89068,271.70766L461.4509,271.46763L460.49104,272.42773L459.77115,272.42773L458.81129,271.94768L458.57133,271.70766L
				458.57133,270.74756L458.81129,269.30741L458.57133,267.62724L458.57133,266.90717L459.77115,265.70704L460.731,265.227L461.93082,264.02687
				L462.65072,263.3068L463.85054,263.06678L464.33046,262.82675L464.57043,262.3467L464.81039,261.86665L464.57043,260.66653L464.81039,259.70643
				L465.53028,259.46641L466.49014,258.50631L466.49014,257.30619L465.05036,256.34609L464.33046,255.38599L463.85054,254.4259L
				463.85054,253.94585L464.33046,252.98575L466.97007,253.94585L467.45,253.70582L467.68996,253.4658L468.16989,252.5057L467.92993,251.78563
				L467.21003,251.30558L465.53028,250.34548L465.29032,250.10546L465.05036,249.38538L464.81039,248.66531L465.53028,246.50509
				L465.53028,245.78502L465.29032,244.82492L464.81039,244.10485L464.33046,243.6248L463.37061,243.14475L462.89068,242.18465L
				462.89068,241.46458L463.61057,240.50448L464.0905,239.54438L463.85054,236.90411L464.0905,236.18404L464.81039,235.22394L465.05036,234.74389
				L465.29032,233.54377L464.81039,232.10362L463.61057,230.9035L462.89068,229.70338L462.89068,229.22333L464.0905,228.50326L464.81039,228.02321
				L464.81039,227.78318L464.57043,227.06311L463.61057,226.34304L463.37061,226.10301L463.85054,224.90289L463.37061,223.46274
				L463.37061,222.9827L463.85054,222.50265L464.57043,222.0226L465.05036,221.78257L466.01021,221.78257L466.73011,222.26262L467.21003,222.26262
				L467.92993,222.0226L468.16989,221.0625L469.12975,220.1024L469.36971,219.1423L469.12975,218.90228L468.16989,217.70216L467.68996,216.98209
				L468.16989,215.54194L468.88978,214.82187L468.64982,214.10179L469.60967,213.62174L470.0896,213.62174L471.52939,214.34182L
				472.72921,214.10179L474.16899,214.10179L476.32867,213.38172L477.28852,213.38172L478.96827,213.62174L479.92813,214.10179L
				480.64802,214.58184L482.32777,214.34182L485.20734,213.86177L486.16719,214.34182L487.36701,214.58184L488.32687,214.10179L
				489.76666,213.86177L490.72651,214.10179L491.92633,214.82187L493.12615,214.10179L495.52579,213.14169L498.40536,213.14169L
				499.60518,212.1816L500.32507,212.1816L504.1645,211.94157L508.72382,210.98147L509.92364,210.98147L511.60339,211.46152L514.72292,212.66165
				L516.88259,214.10179L518.56234,215.54194L520.00213,216.50204L521.68188,218.18221L522.8817,219.38233L524.08152,221.30252L
				526.96109,223.22272L527.44101,223.70277L528.16091,224.18282L528.8808,224.66287L529.36073,225.38294L531.76037,227.54316L532.72022,228.02321
				L533.44011,228.26323z"/>
			<path clip-path="url(#SVG_CP_1)" fill="#73B273" fill-rule="evenodd" stroke="#000000" stroke-width="0.95986" stroke-miterlimit="10" stroke-linecap="round" stroke-linejoin="round" d="
				M534.63994,234.50387L535.35983,237.86421L536.07972,243.86482L536.07972,244.82492L535.59979,246.02504L535.59979,246.98514
				L536.07972,249.38538L535.35983,252.5057L535.35983,253.4658L535.83976,255.62602L536.07972,256.34609L536.79961,258.26629L538.47936,261.3866
				L538.47936,262.10668L538.71932,263.06678L538.2394,264.74695L536.55965,267.14719L536.07972,268.82736L535.11986,270.26751L
				534.16001,273.38783L534.63994,275.30802L535.83976,277.22822L536.55965,277.70827L535.83976,278.18831L535.11986,278.42834L
				533.44011,278.66836L532.48026,278.66836L531.76037,278.90839L530.32058,278.90839L527.20105,279.86849L526.48116,279.86849L
				524.32148,279.38844L523.12166,279.62846L521.44191,279.14841L518.56234,279.14841L516.88259,279.62846L515.44281,280.34853L
				514.48295,280.58856L511.60339,280.58856L510.64353,280.82858L508.72382,281.06861L508.00392,281.30863L507.04407,282.02871L
				506.32418,282.50875L506.08421,282.50875L505.12436,282.50875L504.1645,282.26873L503.92454,282.50875L500.805,283.46885L499.36522,284.42895
				L498.40536,285.14902L497.92543,285.38905L497.20554,286.82919L496.24569,287.30924L495.52579,287.06922L493.36612,285.62907
				L491.92633,284.909L490.00662,284.909L486.16719,286.10912L483.76755,287.06922L481.60788,287.30924L477.04856,287.54927L476.0887,287.54927
				L475.60878,287.30924L474.88888,286.58917L474.64892,285.14902L474.40896,284.42895L473.4491,283.70888L472.48924,283.46885L
				470.0896,283.46885L468.40985,283.46885L467.92993,282.26873L467.92993,281.30863L467.68996,280.58856L467.45,279.62846L467.68996,278.18831
				L468.64982,276.98819L470.56953,276.74817L470.80949,276.98819L472.96917,277.22822L473.92903,277.22822L475.60878,276.74817
				L477.04856,276.02809L480.64802,273.1478L483.76755,271.22761L484.48745,270.26751L485.4473,267.14719L486.40716,265.70704L486.64712,264.74695
				L487.60698,264.74695L487.36701,263.78685L487.36701,261.86665L487.36701,260.90656L487.60698,259.70643L489.04676,259.94646
				L489.76666,259.70643L490.00662,259.22638L490.48655,256.34609L491.4464,256.58612L491.68637,256.58612L492.88619,256.58612L
				493.12615,256.34609L494.8059,255.86604L496.00572,256.58612L498.1654,256.58612L499.84515,256.10607L503.44461,254.4259L504.40446,254.18587
				L505.84425,253.94585L508.24389,254.4259L511.12346,255.86604L512.08331,255.86604L512.56324,255.62602L513.04317,254.90594L
				513.04317,254.4259L512.56324,247.46519L512.56324,243.86482L511.84335,240.98453L510.64353,238.10423L510.40356,237.14414L510.40356,236.18404
				L510.88349,235.22394L511.36342,234.74389L512.08331,234.50387L514.00303,234.50387L517.12256,234.74389L518.80231,234.74389
				L520.24209,234.98392L522.40177,234.98392L523.84155,234.98392L525.5213,234.98392L527.92094,234.74389L532.96019,234.74389L
				533.68008,234.50387L534.63994,234.50387z"/>
			<path clip-path="url(#SVG_CP_1)" fill="#73B273" fill-rule="evenodd" stroke="#000000" stroke-width="0.95986" stroke-miterlimit="10" stroke-linecap="round" stroke-linejoin="round" d="
				M335.70973,251.78563L335.94969,252.74573L335.94969,253.70582L335.2298,254.4259L335.2298,254.90594L334.74987,255.86604L334.50991,256.10607
				L334.02998,257.06616L334.26994,258.26629L334.98983,260.66653L334.98983,261.86665L335.2298,262.3467L335.94969,263.54682L336.18965,264.50692
				L336.42962,264.98697L337.62944,265.227L338.34933,265.94707L339.06922,268.82736L339.54915,269.30741L340.50901,271.46763L340.74897,273.1478
				L340.98894,274.34792L341.2289,274.82797L338.82926,276.98819L336.90955,277.70827L335.94969,277.94829L332.83016,279.38844L
				331.15041,279.86849L330.19055,279.86849L329.47066,279.86849L328.03088,279.62846L326.35113,280.10851L325.15131,281.30863L
				323.71152,282.02871L322.03177,282.50875L320.35203,282.50875L319.15221,282.74878L318.19235,282.9888L317.23249,282.50875L315.79271,281.30863
				L314.59289,280.10851L313.39307,279.14841L311.23339,278.42834L310.27354,277.94829L309.55364,276.98819L308.35382,276.98819
				L307.154,276.74817L306.19415,276.98819L304.27443,276.50814L302.83465,276.26812L302.11476,275.78807L301.1549,275.54805L299.71512,275.54805
				L296.83555,275.30802L294.91584,274.82797L294.19594,274.34792L292.27623,272.90778L292.75616,272.1877L292.75616,271.94768L
				292.75616,270.98758L292.51619,270.50753L291.07641,268.82736L290.59648,268.34731L290.11655,268.10729L288.43681,267.62724L
				287.47695,267.38722L284.35742,266.90717L281.95778,266.42712L280.27803,265.70704L279.07821,264.98697L278.83824,264.98697L
				277.63842,264.02687L276.67857,263.3068L276.4386,263.06678L275.71871,262.82675L274.03896,261.3866L273.31907,260.90656L272.59918,260.42651
				L272.11925,259.94646L268.27982,257.78624L267.55993,257.30619L267.08,256.82614L266.36011,256.10607L265.88018,255.86604L265.16029,255.14597
				L264.92033,254.66592L264.68036,254.18587L261.56083,250.82553L261.56083,250.58551L259.88108,248.66531L258.20133,246.26507
				L256.04166,243.38477L252.92212,240.02443L252.68216,239.54438L252.20223,238.34426L251.96227,238.10423L250.28252,235.22394
				L250.28252,234.98392L249.56263,233.06372L249.32266,231.62358L248.60277,229.70338L248.84273,228.74328L248.84273,228.26323
				L249.32266,226.58306L250.52248,225.62296L251.48234,224.90289L253.88198,224.18282L255.0818,224.18282L258.68126,224.90289L
				259.88108,225.38294L261.32087,226.10301L262.76065,226.82309L263.72051,227.78318L264.92033,228.02321L266.36011,228.02321L
				267.55993,227.78318L269.23968,226.82309L269.95957,225.86299L270.4395,224.66287L270.19954,224.18282L269.95957,222.74267L268.75975,220.58245
				L268.51979,219.38233L268.03986,218.18221L268.03986,216.98209L267.7999,216.02199L267.7999,213.86177L267.08,210.2614L267.08,209.06128
				L267.31997,207.14108L268.75975,203.54072L269.23968,202.58062L270.4395,200.90045L271.39936,199.70033L272.59918,197.54011L
				273.799,196.09996L274.99882,195.13986L275.95867,194.41979L277.63842,193.21967L279.55814,191.5395L280.27803,191.05945L281.71781,190.09935
				L283.87749,188.89923L285.55724,187.6991L285.7972,187.6991L287.47695,186.01893L289.63663,184.81881L290.83645,184.09874L291.07641,184.33876
				L291.55634,185.29886L291.55634,186.25896L291.7963,186.97903L293.95598,189.37928L293.95598,190.5794L293.71601,191.05945L293.71601,191.77952
				L294.91584,193.45969L296.11566,194.65981L298.99522,196.82003L300.19504,198.02016L301.1549,199.22028L301.63483,199.4603L302.35472,199.70033
				L303.55454,199.70033L304.75436,199.94035L308.11386,201.14047L309.55364,202.34059L310.03357,203.06067L310.75346,204.02077
				L311.47336,205.94096L311.47336,206.90106L314.59289,210.02138L315.07282,211.46152L315.31278,212.42162L316.27264,213.62174
				L316.75257,214.58184L317.95239,216.02199L319.15221,218.90228L319.8721,219.86238L320.35203,220.34243L322.03177,221.30252L
				322.99163,222.74267L323.23159,223.70277L323.23159,224.90289L322.99163,225.14292L322.99163,226.10301L322.5117,227.30314L321.31188,228.50326
				L320.11206,230.18343L319.39217,230.66348L317.95239,233.30375L317.71242,233.7838L317.47246,234.50387L317.95239,236.18404L
				318.19235,236.66409L318.43231,237.38416L319.15221,238.58428L320.11206,239.06433L322.5117,239.30436L323.23159,239.78441L324.67138,240.98453
				L326.35113,241.22455L328.03088,241.7046L329.47066,242.18465L331.15041,242.6647L332.83016,244.10485L334.26994,246.26507L335.2298,248.18526
				L335.70973,250.10546L335.70973,251.06555L335.70973,251.78563z"/>
			<path clip-path="url(#SVG_CP_1)" fill="#73B273" fill-rule="evenodd" stroke="#000000" stroke-width="0.95986" stroke-miterlimit="10" stroke-linecap="round" stroke-linejoin="round" d="
				M386.58211,42.2443L386.10218,42.72435L384.90236,44.88457L383.70254,48.96498L383.46257,50.16511L383.70254,50.64516L384.18247,51.36523
				L385.38229,52.0853L388.98175,53.28542L389.9416,53.76547L390.42153,54.72557L390.42153,56.16572L387.78193,61.9263L387.78193,62.40635
				L387.78193,62.64638L388.26186,63.12643L389.46168,63.36645L390.18157,64.08652L390.6615,64.8066L389.9416,66.00672L389.22171,68.40696
				L388.98175,71.04723L388.98175,72.24735L387.302,72.00733L383.70254,72.24735L382.02279,72.00733L378.42333,70.56718L373.38408,67.68689
				L371.9443,66.48677L370.74448,65.76669L369.78462,64.08652L369.3047,63.12643L369.3047,58.08591L369.78462,56.88579L370.26455,56.16572
				L371.22441,56.16572L372.18426,56.88579L372.42423,56.88579L373.14412,55.44564L373.14412,54.96559L372.90416,54.72557L369.54466,52.80538
				L367.86491,52.32533L366.66509,51.60525L364.74538,51.1252L363.78552,50.16511L362.34574,48.96498L359.2262,46.56474L358.50631,45.84467
				L358.26635,45.12459L358.26635,44.64454L358.74628,43.92447L358.98624,43.2044L359.46617,42.00428L359.70613,41.04418L361.62585,37.68384
				L363.06563,35.76364L363.78552,34.32349L365.9452,31.4432L366.18516,31.68323L366.66509,31.92325L367.86491,32.64332L369.06473,32.88335
				L369.78462,33.3634L371.9443,34.32349L377.22351,36.24369L379.14322,37.20379L382.02279,39.36401L384.42243,40.56413L386.58211,42.2443
				z"/>
			<path clip-path="url(#SVG_CP_1)" fill="#73B273" fill-rule="evenodd" stroke="#000000" stroke-width="0.95986" stroke-miterlimit="10" stroke-linecap="round" stroke-linejoin="round" d="
				M422.09679,54.0055L424.73639,54.72557L429.05575,56.16572L429.77564,56.40574L431.69535,58.08591L431.21542,58.56596L430.7355,59.28603
				L430.25557,60.24613L429.05575,61.9263L427.85593,64.32655L427.376,65.52667L427.376,66.48677L427.376,70.08713L426.89607,71.76731
				L426.65611,72.7274L426.17618,73.44748L424.73639,75.36767L424.0165,77.04784L423.29661,78.24796L422.09679,79.44809L420.17708,80.88823
				L415.85772,82.5684L414.89787,83.04845L412.73819,85.20867L412.25826,85.68872L409.37869,87.84894L408.17887,88.80904L407.93891,87.84894
				L405.53927,85.20867L404.81938,84.24858L403.85952,83.28848L402.6597,82.32838L401.45988,81.60831L399.3002,81.84833L397.86042,81.60831
				L395.22081,80.64821L394.02099,80.16816L393.3011,80.16816L392.82117,79.92814L392.82117,79.44809L393.3011,78.48799L393.78103,77.28787
				L394.98085,75.36767L394.98085,74.88762L394.98085,74.40757L394.74089,74.16755L393.78103,73.44748L390.42153,72.7274L388.98175,72.24735
				L388.98175,71.04723L389.22171,68.40696L389.9416,66.00672L390.6615,64.8066L390.18157,64.08652L389.46168,63.36645L388.26186,63.12643
				L387.78193,62.64638L387.78193,62.40635L387.78193,61.9263L390.42153,56.16572L390.42153,54.72557L389.9416,53.76547L388.98175,53.28542
				L385.38229,52.0853L384.18247,51.36523L383.70254,50.64516L383.46257,50.16511L383.70254,48.96498L384.90236,44.88457L386.10218,42.72435
				L386.58211,42.2443L387.302,42.96437L389.22171,44.64454L392.34125,47.04479L394.26096,47.76486L396.42063,49.20501L398.10038,50.16511
				L399.78013,50.64516L403.37959,51.36523L404.09948,51.60525L405.53927,52.0853L406.97905,52.80538L409.13873,53.76547L410.57851,53.52545
				L411.53837,53.76547L414.41794,53.52545L415.85772,53.52545L416.81758,54.0055L418.73729,54.0055L419.69715,54.24552L421.13693,54.0055
				L422.09679,54.0055z"/>
			<path clip-path="url(#SVG_CP_1)" fill="#73B273" fill-rule="evenodd" stroke="#000000" stroke-width="0.95986" stroke-miterlimit="10" stroke-linecap="round" stroke-linejoin="round" d="
				M435.53478,109.93119L435.29481,110.41124L432.41524,117.61197L431.45539,119.29214L427.13603,125.7728L426.89607,126.01283L
				426.41614,126.7329L423.77654,131.05334L423.05665,133.21356L422.33675,135.37378L422.33675,136.09385L421.61686,137.77402L421.3769,138.4941
				L421.3769,141.13437L421.13693,142.33449L420.17708,141.37439L419.69715,140.65432L419.45718,139.45419L418.73729,138.25407L
				418.25736,135.85383L417.53747,135.37378L417.05754,135.13375L416.09769,134.65371L415.3778,134.17366L414.41794,133.69361L415.3778,131.05334
				L418.49733,123.37256L421.85683,117.13192L422.57672,116.17182L423.05665,114.49165L423.05665,114.25163L423.29661,113.53156
				L423.53657,112.81148L424.0165,111.37134L426.17618,106.57085L426.41614,103.93058L427.13603,102.25041L428.09589,100.57024L
				428.57582,99.61014L429.05575,99.85016L429.77564,100.33021L430.97546,101.05029L431.45539,101.53033L432.89517,102.01038L433.3751,102.49043
				L435.77474,103.93058L436.7346,104.89068L437.21453,105.1307L437.45449,105.37073L437.45449,105.61075L436.25467,108.01099L435.53478,109.93119
				z"/>
			<path clip-path="url(#SVG_CP_1)" fill="#73B273" fill-rule="evenodd" stroke="#000000" stroke-width="0.95986" stroke-miterlimit="10" stroke-linecap="round" stroke-linejoin="round" d="
				M377.46347,136.33388L378.18337,138.25407L379.14322,140.65432L379.62315,142.33449L382.02279,148.3351L382.26275,150.73534L
				382.98265,152.17549L382.98265,153.13559L383.22261,153.37561L383.46257,154.33571L383.46257,155.05578L383.22261,155.77586L
				382.02279,158.1761L381.3029,160.0963L379.62315,163.45664L376.98355,167.29703L375.78372,168.49715L373.38408,170.41735L372.18426,170.89739
				L371.70434,171.61747L370.98444,171.85749L368.82477,172.81759L366.42513,173.29764L364.26545,173.77769L362.34574,171.13742
				L359.46617,169.21722L357.54646,168.49715L356.82656,168.0171L353.70703,166.57695L352.98714,165.85688L352.50721,164.89678L
				352.50721,163.69666L352.02728,158.65615L352.26725,156.2559L352.50721,155.53583L352.50721,154.33571L352.26725,153.85566L352.02728,153.37561
				L351.30739,152.89556L350.34753,152.89556L349.38768,152.89556L347.228,153.37561L345.54825,153.37561L346.02818,152.17549L347.46797,148.81515
				L349.14771,146.65493L350.82746,143.53461L352.02728,142.09446L355.86671,136.09385L356.34664,135.37378L358.02638,132.49349
				L358.26635,132.01344L360.42602,128.89312L361.62585,127.21295L362.34574,125.7728L363.06563,124.8127L364.74538,126.01283L366.66509,127.21295
				L368.34484,128.65309L368.82477,128.89312L369.06473,128.65309L369.54466,128.17305L370.50452,126.7329L371.46437,126.01283L
				372.90416,125.29275L373.62405,125.53278L374.5839,126.49288L375.3038,127.93302L375.54376,130.09324L376.98355,134.65371L377.22351,135.37378
				L377.46347,136.33388z"/>
			<path clip-path="url(#SVG_CP_1)" fill="#73B273" fill-rule="evenodd" stroke="#000000" stroke-width="0.95986" stroke-miterlimit="10" stroke-linecap="round" stroke-linejoin="round" d="
				M396.6606,157.45603L400.0201,160.0963L401.21992,161.29642L402.41974,163.21661L405.2993,165.61686L406.25916,166.81698L406.49913,166.81698
				L409.37869,169.21722L409.37869,169.45725L410.33855,169.9373L410.81848,170.41735L412.73819,171.85749L413.21812,172.57757L
				412.97815,173.53766L412.25826,175.45786L412.0183,177.61808L411.77833,178.33815L411.77833,179.05823L411.29841,180.97842L411.05844,184.33876
				L410.57851,185.29886L410.57851,186.01893L410.09859,187.21906L410.09859,188.17915L409.61866,189.13925L409.61866,189.85932
				L409.37869,190.5794L409.61866,193.93974L410.09859,196.09996L410.09859,197.30008L410.33855,198.26018L410.33855,200.18037L
				409.13873,202.82064L408.89877,204.02077L408.41884,204.50081L406.97905,205.70094L406.49913,206.42101L405.53927,207.38111L
				404.33945,209.06128L404.09948,209.78135L403.13963,211.46152L402.6597,213.62174L403.13963,214.34182L403.13963,214.82187L402.89966,215.30191
				L402.89966,216.50204L402.6597,216.98209L402.6597,218.42223L401.93981,220.34243L401.69984,221.30252L401.21992,223.46274L400.50002,225.14292
				L400.26006,225.62296L399.78013,226.58306L399.78013,227.54316L399.78013,228.98331L399.3002,228.74328L397.38049,228.50326L
				396.42063,228.50326L393.3011,227.78318L390.90146,228.02321L388.74178,227.30314L388.02189,227.30314L385.14232,226.82309L383.70254,226.82309
				L382.74268,226.82309L382.26275,227.06311L381.3029,227.06311L380.10308,227.30314L376.98355,229.70338L376.50362,230.42345L
				375.3038,232.8237L374.10398,234.26384L373.14412,235.46397L372.18426,236.18404L371.22441,236.18404L370.50452,235.46397L369.78462,234.50387
				L368.5848,233.7838L367.62495,233.30375L366.42513,232.58367L365.9452,231.62358L365.9452,231.14353L366.18516,230.42345L366.66509,229.46336
				L367.14502,228.98331L367.62495,227.78318L367.38498,227.30314L367.14502,226.10301L366.66509,225.38294L364.74538,223.46274
				L364.50541,222.74267L364.26545,221.54255L365.9452,220.1024L366.66509,219.38233L367.62495,217.94218L368.10487,217.22211L368.34484,216.02199
				L369.54466,214.58184L370.02459,213.62174L371.70434,212.42162L372.90416,212.42162L374.34394,212.42162L375.54376,212.90167
				L376.26365,213.62174L376.98355,214.10179L380.10308,214.82187L380.82297,214.34182L381.3029,213.86177L381.3029,212.90167L379.62315,210.74145
				L378.90326,209.54133L377.9434,208.10118L375.54376,206.42101L374.82387,205.70094L373.38408,204.02077L372.90416,203.06067L
				372.66419,201.3805L371.9443,199.70033L371.70434,198.26018L371.70434,195.37989L372.18426,193.93974L372.18426,193.21967L372.42423,191.29947
				L373.86401,187.93913L374.10398,185.53888L373.86401,184.57879L372.66419,183.37866L371.46437,182.41857L371.22441,182.17854
				L369.54466,180.97842L367.38498,179.7783L366.66509,179.05823L365.9452,177.8581L365.46527,175.93791L364.98534,174.73779L364.50541,174.49776
				L364.26545,173.77769L366.42513,173.29764L368.82477,172.81759L370.98444,171.85749L371.70434,171.61747L372.18426,170.89739
				L373.38408,170.41735L375.78372,168.49715L376.98355,167.29703L379.62315,163.45664L381.3029,160.0963L382.02279,158.1761L383.22261,155.77586
				L383.46257,155.05578L383.46257,154.33571L383.22261,153.37561L382.98265,153.13559L382.98265,152.17549L382.26275,150.73534
				L382.02279,148.3351L379.62315,142.33449L379.14322,140.65432L378.18337,138.25407L377.46347,136.33388L379.62315,135.85383L
				380.34304,135.85383L382.98265,135.37378L383.46257,135.37378L384.6624,135.37378L384.90236,135.37378L385.62225,136.09385L385.86222,137.05395
				L385.86222,139.69422L386.10218,140.89434L386.34214,143.53461L386.10218,146.89495L386.34214,148.09507L389.46168,150.97537
				L393.3011,154.09568L394.50092,155.77586L395.70074,156.97598L396.6606,157.45603z"/>
			<path clip-path="url(#SVG_CP_1)" fill="#73B273" fill-rule="evenodd" stroke="#000000" stroke-width="0.95986" stroke-miterlimit="10" stroke-linecap="round" stroke-linejoin="round" d="
				M421.13693,142.33449L422.09679,142.57451L423.53657,143.29459L424.25647,143.77463L426.17618,144.97476L427.61596,145.69483
				L430.0156,147.61502L431.69535,148.57512L432.65521,149.53522L433.61506,150.25529L433.85503,150.73534L434.33496,152.17549L
				434.33496,152.89556L434.09499,154.09568L433.85503,155.53583L433.61506,156.2559L433.61506,157.45603L434.33496,158.65615L435.53478,159.61625
				L436.25467,160.81637L436.7346,162.25652L436.97456,163.69666L437.69445,165.13681L438.41435,166.09691L438.89427,166.57695L
				439.61417,166.81698L440.33406,167.057L442.49373,166.81698L445.13334,166.81698L445.61327,167.057L447.05305,167.057L448.25287,167.29703
				L449.21273,167.53705L450.65251,167.53705L452.0923,168.0171L453.05215,167.77708L455.69176,168.25713L456.65161,168.49715L458.0914,168.49715
				L460.97097,168.49715L462.65072,168.9772L464.81039,169.45725L467.21003,170.89739L467.21003,171.61747L468.40985,173.05761L
				468.40985,173.53766L467.92993,173.77769L467.68996,174.73779L467.68996,174.97781L469.60967,176.41796L469.84964,177.61808L
				469.36971,179.53827L469.36971,180.01832L469.12975,180.01832L468.64982,180.25835L466.25018,179.29825L465.53028,179.29825L
				464.33046,180.25835L463.61057,181.45847L463.61057,182.41857L464.0905,182.65859L465.77025,182.89862L466.49014,183.61869L466.25018,184.57879
				L465.29032,186.01893L464.57043,186.73901L463.61057,186.97903L463.61057,187.45908L463.61057,187.6991L464.0905,187.93913L465.05036,188.17915
				L465.53028,188.41918L465.53028,188.6592L464.81039,189.6193L465.05036,190.81942L464.33046,191.5395L463.85054,193.45969L463.85054,193.69972
				L464.33046,194.17976L464.81039,194.17976L466.97007,194.65981L467.45,195.61991L467.45,196.58001L469.12975,198.5002L469.36971,199.22028
				L469.36971,199.70033L469.36971,199.94035L468.64982,200.4204L467.45,200.90045L466.73011,201.14047L466.49014,201.62052L466.25018,202.34059
				L466.25018,202.82064L466.49014,203.30069L467.21003,203.78074L467.45,203.78074L468.64982,204.26079L469.60967,204.74084L471.76935,206.90106
				L472.48924,207.86116L472.48924,208.58123L471.28942,209.54133L470.0896,210.98147L469.84964,212.66165L469.60967,213.62174L
				468.64982,214.10179L467.68996,213.62174L466.49014,212.66165L465.77025,212.1816L464.0905,210.74145L461.69086,209.3013L457.85143,206.66103
				L455.93172,205.70094L451.85233,204.02077L450.65251,203.30069L448.7328,202.58062L448.25287,202.34059L446.33316,201.14047L
				445.61327,201.14047L445.3733,201.3805L445.3733,201.62052L445.3733,203.54072L445.13334,204.02077L444.89338,204.26079L443.21363,204.74084
				L441.77384,204.50081L440.33406,204.50081L437.21453,205.22089L435.29481,205.46091L433.3751,205.46091L431.45539,205.22089L
				429.77564,205.22089L428.33585,205.46091L427.376,205.94096L425.93621,207.62113L425.21632,209.06128L424.25647,212.42162L423.29661,213.62174
				L422.81668,214.82187L421.61686,219.62235L421.13693,220.58245L420.17708,222.0226L419.45718,223.22272L419.21722,224.66287L
				418.0174,227.78318L417.77744,228.50326L416.33765,229.22333L413.93801,230.42345L411.77833,231.38355L411.05844,231.14353L409.61866,231.38355
				L406.97905,231.38355L405.77923,230.9035L405.05934,230.9035L401.93981,229.70338L401.21992,229.70338L399.78013,228.98331L399.78013,227.54316
				L399.78013,226.58306L400.26006,225.62296L400.50002,225.14292L401.21992,223.46274L401.69984,221.30252L401.93981,220.34243
				L402.6597,218.42223L402.6597,216.98209L402.89966,216.50204L402.89966,215.30191L403.13963,214.82187L403.13963,214.34182L402.6597,213.62174
				L403.13963,211.46152L404.09948,209.78135L404.33945,209.06128L405.53927,207.38111L406.49913,206.42101L406.97905,205.70094
				L408.41884,204.50081L408.89877,204.02077L409.13873,202.82064L410.33855,200.18037L410.33855,198.26018L410.09859,197.30008
				L410.09859,196.09996L409.61866,193.93974L409.37869,190.5794L409.61866,189.85932L409.61866,189.13925L410.09859,188.17915L
				410.09859,187.21906L410.57851,186.01893L410.57851,185.29886L411.05844,184.33876L411.29841,180.97842L411.77833,179.05823L
				411.77833,178.33815L412.0183,177.61808L412.25826,175.45786L412.97815,173.53766L413.21812,172.57757L412.73819,171.85749L410.81848,170.41735
				L410.33855,169.9373L409.37869,169.45725L409.37869,169.21722L406.49913,166.81698L406.25916,166.81698L405.2993,165.61686L402.41974,163.21661
				L401.21992,161.29642L400.0201,160.0963L396.6606,157.45603L398.58031,154.57573L400.97995,149.77524L401.69984,148.09507L402.17977,147.375
				L403.37959,144.73473L403.85952,143.77463L404.81938,142.57451L405.53927,142.09446L406.97905,142.33449L409.37869,143.05456
				L409.85862,142.81454L410.57851,142.09446L411.05844,140.65432L412.0183,138.97415L412.73819,137.534L413.69805,135.37378L413.93801,134.89373
				L414.41794,133.69361L415.3778,134.17366L416.09769,134.65371L417.05754,135.13375L417.53747,135.37378L418.25736,135.85383L
				418.73729,138.25407L419.45718,139.45419L419.69715,140.65432L420.17708,141.37439L421.13693,142.33449z"/>
			<path clip-path="url(#SVG_CP_1)" fill="#73B273" fill-rule="evenodd" stroke="#000000" stroke-width="0.95986" stroke-miterlimit="10" stroke-linecap="round" stroke-linejoin="round" d="
				M429.77564,97.92997L429.29571,98.41002L428.57582,99.61014L428.09589,100.57024L427.13603,102.25041L426.41614,103.93058L426.17618,106.57085
				L424.0165,111.37134L423.53657,112.81148L423.29661,113.53156L423.05665,114.25163L423.05665,114.49165L421.61686,114.25163L
				420.17708,114.0116L418.49733,113.77158L416.81758,112.81148L415.61776,112.33143L413.45808,111.13131L412.25826,110.89129L409.61866,109.45114
				L408.89877,109.21112L406.97905,108.25102L406.49913,108.01099L405.05934,107.53095L404.81938,107.0509L405.2993,105.85077L406.0192,104.89068
				L408.41884,99.85016L409.37869,97.20989L409.37869,94.80965L409.37869,93.84955L409.61866,91.44931L412.25826,92.16938L414.6579,92.40941
				L416.81758,92.88945L418.49733,94.08958L420.17708,95.04967L422.33675,96.96987L422.81668,97.44992L423.77654,98.41002L424.25647,97.68994
				L425.45629,95.76975L425.93621,95.2897L427.13603,95.76975L429.05575,97.44992L429.77564,97.92997z"/>
			<path clip-path="url(#SVG_CP_1)" fill="#73B273" fill-rule="evenodd" stroke="#000000" stroke-width="0.95986" stroke-miterlimit="10" stroke-linecap="round" stroke-linejoin="round" d="
				M459.77115,138.25407L460.01111,139.93424L461.69086,141.37439L461.93082,142.57451L461.69086,143.29459L460.97097,143.53461
				L459.77115,143.53461L459.05126,144.01466L458.81129,144.49471L458.81129,145.21478L459.29122,145.69483L460.49104,145.93485
				L462.65072,146.4149L463.37061,146.89495L463.37061,147.13498L463.37061,147.61502L462.89068,148.09507L462.41075,148.57512L
				461.21093,149.2952L460.97097,149.53522L460.731,150.25529L460.731,151.45542L461.21093,153.13559L461.4509,153.37561L462.65072,153.61564
				L462.89068,153.61564L465.29032,154.09568L466.01021,155.29581L465.77025,155.77586L465.29032,156.01588L464.33046,156.2559L
				463.37061,156.2559L462.89068,156.49593L462.65072,156.73595L462.89068,157.93608L463.37061,158.41612L464.57043,158.89617L465.29032,159.61625
				L465.77025,161.53644L466.49014,162.25652L467.68996,162.73656L468.64982,163.21661L469.84964,164.41673L471.04946,164.89678
				L471.28942,165.37683L471.52939,165.85688L471.52939,167.057L471.04946,167.53705L470.80949,167.77708L470.0896,167.77708L468.64982,167.057
				L467.92993,167.29703L467.68996,167.77708L467.68996,168.9772L468.16989,169.9373L467.92993,170.17732L467.68996,170.41735L467.21003,170.89739
				L464.81039,169.45725L462.65072,168.9772L460.97097,168.49715L458.0914,168.49715L456.65161,168.49715L455.69176,168.25713L453.05215,167.77708
				L452.0923,168.0171L450.65251,167.53705L449.21273,167.53705L448.25287,167.29703L447.05305,167.057L445.61327,167.057L445.13334,166.81698
				L442.49373,166.81698L440.33406,167.057L439.61417,166.81698L438.89427,166.57695L438.41435,166.09691L437.69445,165.13681L436.97456,163.69666
				L436.7346,162.25652L436.25467,160.81637L435.53478,159.61625L434.33496,158.65615L433.61506,157.45603L433.61506,156.2559L433.85503,155.53583
				L434.09499,154.09568L434.33496,152.89556L435.29481,152.17549L436.0147,151.45542L436.7346,149.77524L437.45449,148.81515L437.69445,148.09507
				L438.17438,147.13498L438.89427,144.49471L438.89427,143.05456L438.65431,140.89434L437.93442,138.97415L438.17438,137.05395
				L438.17438,135.37378L437.93442,129.37317L438.41435,126.49288L439.13424,125.29275L440.57402,126.97292L442.25377,128.65309
				L443.45359,129.37317L443.93352,129.85322L445.61327,131.29336L446.81309,132.25346L448.25287,133.21356L449.69266,133.93363
				L452.33226,135.37378L453.77205,136.09385L458.0914,137.534L459.29122,137.77402L459.77115,138.25407z"/>
			<path clip-path="url(#SVG_CP_1)" fill="#73B273" fill-rule="evenodd" stroke="#000000" stroke-width="0.95986" stroke-miterlimit="10" stroke-linecap="round" stroke-linejoin="round" d="
				M423.05665,114.49165L422.57672,116.17182L421.85683,117.13192L418.49733,123.37256L415.3778,131.05334L414.41794,133.69361L
				413.69805,132.97353L411.77833,131.05334L411.05844,129.13314L410.81848,127.693L411.05844,126.25285L411.77833,123.61258L411.77833,122.89251
				L411.29841,122.41246L406.0192,119.05212L403.85952,118.33204L402.17977,117.13192L401.21992,116.41185L401.45988,115.69178L
				401.93981,114.9717L404.09948,108.73107L404.81938,107.0509L405.05934,107.53095L406.49913,108.01099L406.97905,108.25102L408.89877,109.21112
				L409.61866,109.45114L412.25826,110.89129L413.45808,111.13131L415.61776,112.33143L416.81758,112.81148L418.49733,113.77158
				L420.17708,114.0116L421.61686,114.25163L423.05665,114.49165z"/>
			<path clip-path="url(#SVG_CP_1)" fill="#73B273" fill-rule="evenodd" stroke="#000000" stroke-width="0.95986" stroke-miterlimit="10" stroke-linecap="round" stroke-linejoin="round" d="
				M355.62674,27.84283L357.54646,28.56291L358.98624,29.52301L360.18606,29.76303L363.78552,30.96315L365.9452,31.4432L363.78552,34.32349
				L363.06563,35.76364L361.62585,37.68384L359.70613,41.04418L359.46617,42.00428L358.98624,43.2044L358.74628,43.92447L358.26635,44.64454
				L358.26635,45.12459L358.50631,45.84467L359.2262,46.56474L362.34574,48.96498L363.78552,50.16511L364.74538,51.1252L366.66509,51.60525
				L367.86491,52.32533L369.54466,52.80538L372.90416,54.72557L373.14412,54.96559L373.14412,55.44564L372.42423,56.88579L372.18426,56.88579
				L371.22441,56.16572L370.26455,56.16572L369.78462,56.88579L369.3047,58.08591L369.3047,63.12643L369.78462,64.08652L370.74448,65.76669
				L370.50452,66.24674L370.02459,67.44687L369.06473,69.12704L369.06473,70.08713L368.5848,71.52728L365.46527,76.08774L364.26545,78.96804
				L363.30559,83.5285L363.06563,86.16877L362.82567,86.16877L362.5857,86.16877L361.86581,85.92875L359.2262,85.20867L356.5866,84.24858
				L353.70703,83.04845L352.50721,82.32838L351.78732,82.08836L349.62764,81.12826L347.94789,80.40818L343.38858,79.20806L343.14861,78.72801
				L343.62854,77.52789L347.228,72.48738L347.46797,72.00733L347.228,71.28726L346.26814,70.56718L344.34843,69.84711L342.66868,69.12704
				L340.98894,67.92691L339.30919,66.24674L337.14951,65.04662L335.46976,63.8465L334.50991,62.64638L333.79001,61.68628L332.11027,60.24613
				L329.95059,59.28603L327.07102,59.04601L325.39127,59.04601L324.91134,58.80599L323.47156,58.56596L324.91134,52.56535L327.07102,47.52484
				L327.55095,45.36462L328.03088,43.2044L328.5108,42.00428L330.19055,39.12398L330.91044,37.44381L331.15041,36.24369L331.63034,35.04357
				L333.31009,32.64332L334.26994,31.92325L335.94969,30.72313L338.58929,29.52301L343.14861,28.08286L343.62854,28.08286L344.5884,27.60281
				L346.02818,27.36279L348.90775,26.40269L351.54735,26.40269L354.42692,27.12276L355.62674,27.84283z"/>
			<path clip-path="url(#SVG_CP_1)" fill="#73B273" fill-rule="evenodd" stroke="#000000" stroke-width="0.95986" stroke-miterlimit="10" stroke-linecap="round" stroke-linejoin="round" d="
				M409.61866,91.44931L409.37869,93.84955L409.37869,94.80965L409.37869,97.20989L408.41884,99.85016L406.0192,104.89068L405.2993,105.85077
				L404.81938,107.0509L404.09948,108.73107L401.93981,114.9717L401.45988,115.69178L401.21992,116.41185L399.78013,114.9717L397.86042,114.25163
				L396.90056,114.0116L393.78103,113.53156L391.14142,113.53156L390.18157,113.29153L386.34214,112.81148L385.62225,112.57146L
				384.18247,112.09141L384.6624,110.89129L385.14232,110.41124L385.86222,108.01099L386.58211,107.0509L388.02189,102.73046L388.50182,100.57024
				L388.50182,99.85016L389.9416,99.37011L390.6615,99.13009L393.54107,98.65004L395.70074,97.92997L396.6606,97.92997L398.10038,98.41002
				L398.58031,96.96987L398.82028,96.48982L399.78013,95.04967L400.26006,94.80965L401.69984,94.56963L402.6597,94.3296L403.37959,94.08958
				L404.09948,92.88945L405.05934,91.44931L406.49913,90.00916L408.17887,88.80904L408.89877,89.76914L409.37869,90.48921L409.61866,91.44931
				z"/>
			<path clip-path="url(#SVG_CP_1)" fill="#73B273" fill-rule="evenodd" stroke="#000000" stroke-width="0.95986" stroke-miterlimit="10" stroke-linecap="round" stroke-linejoin="round" d="
				M445.85323,79.92814L445.3733,80.64821L444.41345,82.08836L443.93352,83.04845L442.49373,85.4487L441.05395,88.32899L439.61417,90.00916
				L438.41435,91.44931L436.25467,93.12948L434.81488,95.2897L433.85503,95.76975L432.17528,96.00977L430.7355,96.96987L429.77564,97.92997
				L429.05575,97.44992L427.13603,95.76975L425.93621,95.2897L425.45629,95.76975L424.25647,97.68994L423.77654,98.41002L422.81668,97.44992
				L422.33675,96.96987L420.17708,95.04967L418.49733,94.08958L416.81758,92.88945L414.6579,92.40941L412.25826,92.16938L409.61866,91.44931
				L409.37869,90.48921L408.89877,89.76914L408.17887,88.80904L409.37869,87.84894L412.25826,85.68872L412.73819,85.20867L414.89787,83.04845
				L415.85772,82.5684L420.17708,80.88823L422.09679,79.44809L423.29661,78.24796L424.0165,77.04784L424.73639,75.36767L426.17618,73.44748
				L426.65611,72.7274L426.89607,71.76731L427.376,70.08713L427.376,66.48677L427.376,65.52667L427.85593,64.32655L429.05575,61.9263
				L430.25557,60.24613L430.7355,59.28603L431.21542,58.56596L431.69535,58.08591L432.17528,58.32594L434.57492,60.96621L435.29481,62.16633
				L436.0147,63.36645L436.49463,63.8465L438.89427,68.40696L439.61417,69.36706L440.09409,71.04723L441.53388,74.16755L442.25377,76.32777
				L442.97366,77.52789L443.93352,78.48799L444.65341,79.20806L445.85323,79.92814z"/>
			<path clip-path="url(#SVG_CP_1)" fill="#73B273" fill-rule="evenodd" stroke="#000000" stroke-width="0.95986" stroke-miterlimit="10" stroke-linecap="round" stroke-linejoin="round" d="
				M370.74448,65.76669L371.9443,66.48677L373.38408,67.68689L378.42333,70.56718L382.02279,72.00733L383.70254,72.24735L387.302,72.00733
				L388.98175,72.24735L390.42153,72.7274L393.78103,73.44748L394.74089,74.16755L394.98085,74.40757L394.98085,74.88762L394.98085,75.36767
				L393.78103,77.28787L393.3011,78.48799L392.82117,79.44809L392.82117,79.92814L393.3011,80.16816L394.02099,80.16816L395.22081,80.64821
				L397.86042,81.60831L399.3002,81.84833L401.45988,81.60831L402.6597,82.32838L403.85952,83.28848L404.81938,84.24858L405.53927,85.20867
				L407.93891,87.84894L408.17887,88.80904L406.49913,90.00916L405.05934,91.44931L404.09948,92.88945L403.37959,94.08958L402.6597,94.3296
				L401.69984,94.56963L400.26006,94.80965L399.78013,95.04967L398.82028,96.48982L398.58031,96.96987L398.10038,98.41002L396.6606,97.92997
				L395.70074,97.92997L393.54107,98.65004L390.6615,99.13009L389.9416,99.37011L388.50182,99.85016L387.78193,99.85016L386.10218,100.09019
				L384.90236,99.85016L382.50272,98.89007L381.3029,98.41002L379.62315,97.92997L376.02369,98.16999L372.18426,98.89007L360.66599,99.37011
				L356.5866,100.09019L344.82836,101.77036L343.38858,102.01038L340.74897,102.01038L339.78912,102.25041L338.10937,102.49043L
				336.66958,102.97048L334.50991,103.45053L330.19055,103.21051L329.2307,103.21051L324.67138,103.21051L322.5117,103.69055L318.19235,103.69055
				L317.23249,103.93058L315.55274,103.69055L314.83285,103.93058L312.67318,103.93058L310.99343,104.41063L309.07372,104.1706L
				308.11386,104.41063L306.67407,104.41063L305.95418,104.65065L304.5144,104.65065L302.35472,104.1706L301.39486,104.1706L300.19504,104.65065
				L299.71512,104.89068L297.7954,105.1307L296.83555,105.1307L295.63573,105.1307L294.91584,105.1307L292.75616,104.89068L294.91584,104.41063
				L296.11566,103.45053L298.75526,102.49043L301.87479,101.53033L303.55454,100.57024L304.03447,100.33021L304.75436,99.85016L
				307.39397,98.16999L308.11386,97.68994L309.79361,96.72985L311.95328,95.2897L315.31278,91.92936L316.27264,90.72923L317.23249,88.08897
				L317.47246,87.12887L318.43231,84.96865L318.67228,83.76853L319.63213,80.64821L319.39217,77.28787L319.15221,75.84772L318.67228,74.40757
				L318.43231,73.20745L318.67228,70.32716L319.15221,67.44687L318.91224,65.76669L318.91224,64.56657L319.63213,62.64638L320.35203,62.16633
				L321.79181,60.72618L323.23159,59.04601L323.47156,58.56596L324.91134,58.80599L325.39127,59.04601L327.07102,59.04601L329.95059,59.28603
				L332.11027,60.24613L333.79001,61.68628L334.50991,62.64638L335.46976,63.8465L337.14951,65.04662L339.30919,66.24674L340.98894,67.92691
				L342.66868,69.12704L344.34843,69.84711L346.26814,70.56718L347.228,71.28726L347.46797,72.00733L347.228,72.48738L343.62854,77.52789
				L343.14861,78.72801L343.38858,79.20806L347.94789,80.40818L349.62764,81.12826L351.78732,82.08836L352.50721,82.32838L353.70703,83.04845
				L356.5866,84.24858L359.2262,85.20867L361.86581,85.92875L362.5857,86.16877L362.82567,86.16877L363.06563,86.16877L363.30559,83.5285
				L364.26545,78.96804L365.46527,76.08774L368.5848,71.52728L369.06473,70.08713L369.06473,69.12704L370.02459,67.44687L370.50452,66.24674
				L370.74448,65.76669z"/>
			<path clip-path="url(#SVG_CP_1)" fill="#73B273" fill-rule="evenodd" stroke="#000000" stroke-width="0.95986" stroke-miterlimit="10" stroke-linecap="round" stroke-linejoin="round" d="
				M388.50182,99.85016L388.50182,100.57024L388.02189,102.73046L386.58211,107.0509L385.86222,108.01099L385.14232,110.41124L384.6624,110.89129
				L384.18247,112.09141L383.70254,113.29153L383.22261,113.77158L382.98265,113.77158L382.26275,113.77158L380.34304,113.05151
				L376.98355,112.33143L376.50362,112.33143L376.26365,112.33143L375.54376,112.81148L374.34394,114.73168L372.90416,116.8919L
				371.70434,118.33204L370.98444,119.29214L370.02459,120.25224L369.06473,120.97231L367.62495,121.45236L365.9452,122.65248L364.26545,123.85261
				L363.06563,124.8127L362.34574,125.7728L361.62585,127.21295L360.42602,128.89312L358.26635,132.01344L358.02638,132.49349L356.34664,135.37378
				L355.86671,136.09385L352.02728,142.09446L350.82746,143.53461L349.14771,146.65493L347.46797,148.81515L346.02818,152.17549
				L345.54825,153.37561L344.34843,153.37561L341.70883,153.61564L340.74897,153.85566L337.38947,154.57573L336.42962,154.33571
				L334.74987,153.85566L334.02998,153.13559L333.55005,152.17549L333.55005,151.69544L333.79001,150.73534L333.79001,148.57512
				L333.07012,147.13498L331.8703,145.4548L331.15041,143.29459L330.67048,143.05456L330.19055,142.57451L328.99073,141.85444L328.27084,141.61441
				L326.59109,141.13437L324.67138,141.61441L323.47156,141.37439L320.83195,139.93424L318.43231,139.93424L317.95239,140.17427
				L316.27264,141.13437L314.35292,144.01466L313.39307,145.21478L310.75346,150.01527L309.31368,150.97537L308.35382,151.21539
				L307.63393,150.97537L307.39397,150.49532L306.91404,148.09507L306.19415,145.93485L306.19415,144.97476L306.91404,142.09446
				L309.31368,138.25407L310.75346,137.05395L311.47336,135.85383L311.71332,135.37378L311.71332,134.65371L311.71332,132.73351
				L310.99343,130.81331L310.03357,129.61319L308.83375,128.65309L308.11386,128.41307L306.43411,128.17305L302.11476,127.93302
				L300.67497,127.693L299.95508,127.693L299.23519,127.45297L298.5153,127.45297L295.39576,126.7329L294.19594,126.25285L293.47605,125.7728
				L292.75616,124.8127L290.59648,122.89251L288.43681,120.25224L287.23699,118.09202L286.75706,116.8919L286.51709,115.9318L286.51709,114.49165
				L286.51709,112.57146L286.75706,110.89129L287.95688,109.45114L289.1567,107.77097L291.7963,105.61075L292.75616,104.89068L294.91584,105.1307
				L295.63573,105.1307L296.83555,105.1307L297.7954,105.1307L299.71512,104.89068L300.19504,104.65065L301.39486,104.1706L302.35472,104.1706
				L304.5144,104.65065L305.95418,104.65065L306.67407,104.41063L308.11386,104.41063L309.07372,104.1706L310.99343,104.41063L312.67318,103.93058
				L314.83285,103.93058L315.55274,103.69055L317.23249,103.93058L318.19235,103.69055L322.5117,103.69055L324.67138,103.21051L
				329.2307,103.21051L330.19055,103.21051L334.50991,103.45053L336.66958,102.97048L338.10937,102.49043L339.78912,102.25041L340.74897,102.01038
				L343.38858,102.01038L344.82836,101.77036L356.5866,100.09019L360.66599,99.37011L372.18426,98.89007L376.02369,98.16999L379.62315,97.92997
				L381.3029,98.41002L382.50272,98.89007L384.90236,99.85016L386.10218,100.09019L387.78193,99.85016L388.50182,99.85016z"/>
			<path clip-path="url(#SVG_CP_1)" fill="#73B273" fill-rule="evenodd" stroke="#000000" stroke-width="0.95986" stroke-miterlimit="10" stroke-linecap="round" stroke-linejoin="round" d="
				M401.21992,116.41185L402.17977,117.13192L403.85952,118.33204L406.0192,119.05212L411.29841,122.41246L411.77833,122.89251L
				411.77833,123.61258L411.05844,126.25285L410.81848,127.693L411.05844,129.13314L411.77833,131.05334L413.69805,132.97353L414.41794,133.69361
				L413.93801,134.89373L413.69805,135.37378L412.73819,137.534L412.0183,138.97415L411.05844,140.65432L410.57851,142.09446L409.85862,142.81454
				L409.37869,143.05456L406.97905,142.33449L405.53927,142.09446L404.81938,142.57451L403.85952,143.77463L403.37959,144.73473
				L402.17977,147.375L401.69984,148.09507L400.97995,149.77524L398.58031,154.57573L396.6606,157.45603L395.70074,156.97598L394.50092,155.77586
				L393.3011,154.09568L389.46168,150.97537L386.34214,148.09507L386.10218,146.89495L386.34214,143.53461L386.10218,140.89434L
				385.86222,139.69422L385.86222,137.05395L385.62225,136.09385L384.90236,135.37378L384.6624,135.37378L383.46257,135.37378L382.98265,135.37378
				L380.34304,135.85383L379.62315,135.85383L377.46347,136.33388L377.22351,135.37378L376.98355,134.65371L375.54376,130.09324
				L375.3038,127.93302L374.5839,126.49288L373.62405,125.53278L372.90416,125.29275L371.46437,126.01283L370.50452,126.7329L369.54466,128.17305
				L369.06473,128.65309L368.82477,128.89312L368.34484,128.65309L366.66509,127.21295L364.74538,126.01283L363.06563,124.8127L
				364.26545,123.85261L365.9452,122.65248L367.62495,121.45236L369.06473,120.97231L370.02459,120.25224L370.98444,119.29214L371.70434,118.33204
				L372.90416,116.8919L374.34394,114.73168L375.54376,112.81148L376.26365,112.33143L376.50362,112.33143L376.98355,112.33143L
				380.34304,113.05151L382.26275,113.77158L382.98265,113.77158L383.22261,113.77158L383.70254,113.29153L384.18247,112.09141L
				385.62225,112.57146L386.34214,112.81148L390.18157,113.29153L391.14142,113.53156L393.78103,113.53156L396.90056,114.0116L397.86042,114.25163
				L399.78013,114.9717L401.21992,116.41185z"/>
			<path clip-path="url(#SVG_CP_1)" fill="#73B273" fill-rule="evenodd" stroke="#000000" stroke-width="0.95986" stroke-miterlimit="10" stroke-linecap="round" stroke-linejoin="round" d="
				M439.13424,125.29275L438.41435,126.49288L437.93442,129.37317L438.17438,135.37378L438.17438,137.05395L437.93442,138.97415
				L438.65431,140.89434L438.89427,143.05456L438.89427,144.49471L438.17438,147.13498L437.69445,148.09507L437.45449,148.81515
				L436.7346,149.77524L436.0147,151.45542L435.29481,152.17549L434.33496,152.89556L434.33496,152.17549L433.85503,150.73534L433.61506,150.25529
				L432.65521,149.53522L431.69535,148.57512L430.0156,147.61502L427.61596,145.69483L426.17618,144.97476L424.25647,143.77463L
				423.53657,143.29459L422.09679,142.57451L421.13693,142.33449L421.3769,141.13437L421.3769,138.4941L421.61686,137.77402L422.33675,136.09385
				L422.33675,135.37378L423.05665,133.21356L423.77654,131.05334L426.41614,126.7329L426.89607,126.01283L427.13603,125.7728L431.45539,119.29214
				L435.05485,122.17244L435.77474,122.65248L438.41435,124.8127L439.13424,125.29275z"/>
			<path clip-path="url(#SVG_CP_1)" fill="#73B273" fill-rule="evenodd" stroke="#000000" stroke-width="0.95986" stroke-miterlimit="10" stroke-linecap="round" stroke-linejoin="round" d="
				M472.24928,135.37378L472.00931,135.37378L470.56953,136.81393L469.84964,137.05395L468.88978,137.29397L468.40985,136.81393
				L467.21003,135.37378L466.25018,133.93363L464.33046,133.93363L464.0905,133.69361L462.89068,132.73351L462.65072,132.49349L
				462.17079,132.49349L461.69086,132.73351L461.4509,133.21356L461.4509,135.37378L461.4509,136.33388L460.97097,137.29397L460.49104,137.77402
				L459.77115,138.25407L459.29122,137.77402L458.0914,137.534L453.77205,136.09385L452.33226,135.37378L449.69266,133.93363L448.25287,133.21356
				L446.81309,132.25346L445.61327,131.29336L443.93352,129.85322L443.45359,129.37317L442.25377,128.65309L440.57402,126.97292
				L439.13424,125.29275L439.85413,124.33266L441.53388,122.65248L445.85323,121.69239L448.25287,121.69239L448.97276,121.69239
				L450.65251,122.17244L452.0923,122.17244L454.49194,122.17244L456.65161,121.93241L458.81129,120.73229L460.01111,120.49226L
				461.4509,121.21234L462.89068,122.89251L463.85054,123.85261L464.33046,125.29275L465.77025,127.45297L467.68996,130.33327L470.80949,133.93363
				L471.76935,134.89373L472.24928,135.37378z"/>
			<path clip-path="url(#SVG_CP_1)" fill="#73B273" fill-rule="evenodd" stroke="#000000" stroke-width="0.95986" stroke-miterlimit="10" stroke-linecap="round" stroke-linejoin="round" d="
				M490.48655,118.33204L490.24658,118.57207L489.52669,119.53217L489.04676,120.97231L488.56683,121.93241L487.84694,122.41246
				L486.64712,122.89251L485.68727,123.13253L484.72741,123.61258L483.76755,123.85261L482.8077,124.57268L482.56773,125.05273L
				482.32777,125.7728L482.32777,127.93302L481.60788,129.13314L481.12795,129.85322L481.36791,131.77341L480.88798,132.73351L480.40806,133.45358
				L479.68816,133.69361L478.96827,133.69361L475.60878,133.45358L473.92903,133.69361L472.96917,134.65371L472.24928,135.37378
				L471.76935,134.89373L470.80949,133.93363L467.68996,130.33327L465.77025,127.45297L464.33046,125.29275L463.85054,123.85261
				L462.89068,122.89251L461.4509,121.21234L460.01111,120.49226L458.81129,120.73229L456.65161,121.93241L454.49194,122.17244L
				452.0923,122.17244L450.65251,122.17244L448.97276,121.69239L448.25287,121.69239L445.85323,121.69239L441.53388,122.65248L439.85413,124.33266
				L439.13424,125.29275L438.41435,124.8127L435.77474,122.65248L435.05485,122.17244L431.45539,119.29214L432.41524,117.61197L
				435.29481,110.41124L435.53478,109.93119L436.49463,110.17121L437.45449,110.41124L438.17438,110.41124L440.81399,110.89129L
				443.93352,110.65126L445.13334,110.41124L447.05305,110.17121L447.53298,109.93119L448.25287,109.69116L448.49284,109.69116L
				449.93262,109.69116L450.41255,109.93119L452.33226,109.69116L453.77205,109.93119L457.61147,110.89129L460.01111,111.13131L
				461.69086,111.13131L463.61057,111.61136L465.77025,112.57146L468.88978,114.0116L472.00931,114.9717L473.4491,115.21173L477.52849,114.9717
				L481.12795,114.9717L483.04766,115.21173L486.40716,116.41185L488.08691,117.13192L488.8068,117.61197L489.52669,117.852L490.48655,118.33204
				z"/>
			<path clip-path="url(#SVG_CP_1)" fill="#73B273" fill-rule="evenodd" stroke="#000000" stroke-width="0.95986" stroke-miterlimit="10" stroke-linecap="round" stroke-linejoin="round" d="
				M457.61147,88.32899L458.33136,88.56902L459.29122,89.04906L460.25108,89.28909L460.97097,89.28909L461.93082,89.52911L462.89068,89.76914
				L466.25018,91.92936L467.92993,93.3695L468.64982,93.84955L471.28942,95.04967L472.24928,95.76975L473.92903,96.72985L474.88888,96.96987
				L476.0887,97.92997L477.52849,98.89007L478.00842,99.13009L479.68816,100.33021L480.88798,100.81026L481.84784,101.77036L483.28763,102.25041
				L484.96737,103.45053L486.16719,104.65065L487.36701,105.85077L490.24658,108.49104L499.36522,115.21173L499.84515,115.69178
				L499.60518,116.17182L498.88529,118.09202L497.92543,118.57207L494.08601,118.81209L491.68637,118.33204L490.48655,118.33204
				L489.52669,117.852L488.8068,117.61197L488.08691,117.13192L486.40716,116.41185L483.04766,115.21173L481.12795,114.9717L477.52849,114.9717
				L473.4491,115.21173L472.00931,114.9717L468.88978,114.0116L465.77025,112.57146L463.61057,111.61136L461.69086,111.13131L460.01111,111.13131
				L457.61147,110.89129L453.77205,109.93119L452.33226,109.69116L450.41255,109.93119L449.93262,109.69116L448.49284,109.69116
				L448.25287,109.69116L447.53298,109.93119L447.05305,110.17121L445.13334,110.41124L443.93352,110.65126L440.81399,110.89129
				L438.17438,110.41124L437.45449,110.41124L436.49463,110.17121L435.53478,109.93119L436.25467,108.01099L437.45449,105.61075
				L437.45449,105.37073L437.21453,105.1307L436.7346,104.89068L435.77474,103.93058L433.3751,102.49043L432.89517,102.01038L431.45539,101.53033
				L430.97546,101.05029L429.77564,100.33021L429.05575,99.85016L428.57582,99.61014L429.29571,98.41002L429.77564,97.92997L430.7355,96.96987
				L432.17528,96.00977L433.85503,95.76975L434.81488,95.2897L436.25467,93.12948L438.41435,91.44931L439.61417,90.00916L441.05395,88.32899
				L442.49373,85.4487L443.93352,83.04845L444.41345,82.08836L445.3733,80.64821L445.85323,79.92814L446.0932,80.40818L446.33316,80.40818
				L447.53298,82.08836L448.25287,83.04845L448.49284,83.04845L451.37241,84.72862L452.0923,84.96865L453.05215,85.68872L454.49194,87.12887
				L455.21183,87.36889L457.61147,88.32899z"/>
			<path clip-path="url(#SVG_CP_1)" fill="#73B273" fill-rule="evenodd" stroke="#000000" stroke-width="0.95986" stroke-miterlimit="10" stroke-linecap="round" stroke-linejoin="round" d="
				M364.26545,173.77769L364.50541,174.49776L364.98534,174.73779L365.46527,175.93791L365.9452,177.8581L366.66509,179.05823L367.38498,179.7783
				L369.54466,180.97842L371.22441,182.17854L371.46437,182.41857L372.66419,183.37866L373.86401,184.57879L374.10398,185.53888
				L373.86401,187.93913L372.42423,191.29947L372.18426,193.21967L372.18426,193.93974L371.70434,195.37989L371.70434,198.26018
				L371.9443,199.70033L372.66419,201.3805L372.90416,203.06067L373.38408,204.02077L374.82387,205.70094L375.54376,206.42101L377.9434,208.10118
				L378.90326,209.54133L379.62315,210.74145L381.3029,212.90167L381.3029,213.86177L380.82297,214.34182L380.10308,214.82187L376.98355,214.10179
				L376.26365,213.62174L375.54376,212.90167L374.34394,212.42162L372.90416,212.42162L371.70434,212.42162L370.02459,213.62174
				L369.54466,214.58184L368.34484,216.02199L368.10487,217.22211L367.62495,217.94218L366.66509,219.38233L365.9452,220.1024L364.26545,221.54255
				L364.50541,222.74267L364.74538,223.46274L366.66509,225.38294L367.14502,226.10301L367.38498,227.30314L367.62495,227.78318
				L367.14502,228.98331L366.66509,229.46336L366.18516,230.42345L365.9452,231.14353L365.9452,231.62358L366.42513,232.58367L367.62495,233.30375
				L368.5848,233.7838L369.78462,234.50387L370.50452,235.46397L371.22441,236.18404L372.18426,236.18404L372.42423,236.90411L372.90416,238.34426
				L372.66419,240.02443L372.90416,240.50448L373.62405,241.22455L373.86401,241.94463L374.10398,243.14475L373.14412,244.34487
				L372.90416,244.82492L372.66419,245.06494L372.42423,245.30497L370.98444,245.54499L369.54466,246.74511L369.06473,246.98514
				L366.90505,247.70521L365.70523,247.70521L364.26545,246.98514L363.78552,246.50509L363.06563,246.50509L362.5857,246.98514L
				362.10577,248.18526L361.38588,248.90533L360.18606,249.38538L359.46617,249.62541L358.50631,250.10546L358.26635,250.82553L
				358.50631,251.5456L357.54646,252.98575L357.06653,254.18587L357.06653,255.86604L356.10667,258.02626L356.34664,258.98636L356.10667,259.46641
				L355.86671,260.42651L356.10667,261.14658L356.10667,263.3068L356.5866,264.2669L356.34664,264.98697L355.86671,265.70704L355.38678,266.66714
				L355.14682,267.62724L354.18696,269.06739L352.50721,270.50753L350.5875,271.46763L349.62764,272.66775L349.62764,273.1478L350.10757,274.58795
				L350.34753,275.30802L349.86761,276.26812L349.62764,276.74817L349.14771,277.22822L349.14771,277.46824L349.86761,278.42834
				L350.34753,279.14841L349.14771,280.10851L347.46797,281.06861L346.26814,280.82858L345.54825,280.58856L345.06832,280.10851
				L343.8685,278.90839L343.14861,277.46824L341.70883,275.54805L341.2289,274.82797L340.98894,274.34792L340.74897,273.1478L340.50901,271.46763
				L339.54915,269.30741L339.06922,268.82736L338.34933,265.94707L337.62944,265.227L336.42962,264.98697L336.18965,264.50692L335.94969,263.54682
				L335.2298,262.3467L334.98983,261.86665L334.98983,260.66653L334.26994,258.26629L334.02998,257.06616L334.50991,256.10607L334.74987,255.86604
				L335.2298,254.90594L335.2298,254.4259L335.94969,253.70582L335.94969,252.74573L335.70973,251.78563L336.42962,251.30558L336.66958,251.06555
				L338.10937,248.18526L338.34933,247.46519L339.06922,246.02504L339.54915,245.54499L339.78912,245.06494L340.50901,244.34487
				L341.2289,243.6248L340.98894,242.6647L341.2289,241.46458L341.46886,240.26445L341.2289,239.78441L340.50901,236.90411L340.50901,235.70399
				L340.74897,228.98331L340.74897,224.90289L340.98894,221.78257L341.2289,220.82248L341.46886,214.10179L341.70883,211.94157L
				342.18876,210.02138L342.18876,208.34121L342.18876,207.62113L341.2289,207.38111L340.26904,207.14108L338.34933,205.94096L337.14951,204.50081
				L336.18965,203.06067L335.46976,201.62052L336.18965,199.4603L337.14951,198.26018L338.10937,196.58001L338.58929,195.85994L
				338.58929,195.37989L338.34933,195.13986L337.8694,194.65981L335.2298,194.41979L332.59019,193.93974L330.91044,193.93974L330.91044,193.69972
				L329.71062,191.77952L329.2307,190.09935L329.71062,186.97903L329.71062,184.57879L329.71062,183.85871L332.11027,179.7783L334.98983,176.65798
				L336.42962,175.21783L339.78912,169.9373L342.42872,167.057L343.14861,165.85688L343.62854,164.17671L343.8685,163.93669L344.34843,162.49654
				L346.26814,160.57634L346.02818,159.61625L344.82836,157.69605L344.5884,157.216L344.82836,156.49593L345.06832,155.53583L345.54825,153.37561
				L347.228,153.37561L349.38768,152.89556L350.34753,152.89556L351.30739,152.89556L352.02728,153.37561L352.26725,153.85566L352.50721,154.33571
				L352.50721,155.53583L352.26725,156.2559L352.02728,158.65615L352.50721,163.69666L352.50721,164.89678L352.98714,165.85688L
				353.70703,166.57695L356.82656,168.0171L357.54646,168.49715L359.46617,169.21722L362.34574,171.13742L364.26545,173.77769z"/>
			<path clip-path="url(#SVG_CP_1)" fill="#73B273" fill-rule="evenodd" stroke="#000000" stroke-width="0.95986" stroke-miterlimit="10" stroke-linecap="round" stroke-linejoin="round" d="
				M345.54825,153.37561L345.06832,155.53583L344.82836,156.49593L344.5884,157.216L344.82836,157.69605L346.02818,159.61625L346.26814,160.57634
				L344.34843,162.49654L343.8685,163.93669L343.62854,164.17671L343.14861,165.85688L342.42872,167.057L339.78912,169.9373L336.42962,175.21783
				L334.98983,176.65798L332.11027,179.7783L329.71062,183.85871L329.71062,184.57879L329.71062,186.97903L329.2307,190.09935L329.71062,191.77952
				L330.91044,193.69972L330.91044,193.93974L332.59019,193.93974L335.2298,194.41979L337.8694,194.65981L338.34933,195.13986L338.58929,195.37989
				L338.58929,195.85994L338.10937,196.58001L337.14951,198.26018L336.18965,199.4603L335.46976,201.62052L336.18965,203.06067L
				337.14951,204.50081L338.34933,205.94096L340.26904,207.14108L341.2289,207.38111L342.18876,207.62113L342.18876,208.34121L342.18876,210.02138
				L341.70883,211.94157L341.46886,214.10179L341.2289,220.82248L340.98894,221.78257L340.74897,224.90289L340.74897,228.98331L
				340.50901,235.70399L340.50901,236.90411L341.2289,239.78441L341.46886,240.26445L341.2289,241.46458L340.98894,242.6647L341.2289,243.6248
				L340.50901,244.34487L339.78912,245.06494L339.54915,245.54499L339.06922,246.02504L338.34933,247.46519L338.10937,248.18526
				L336.66958,251.06555L336.42962,251.30558L335.70973,251.78563L335.70973,251.06555L335.70973,250.10546L335.2298,248.18526L
				334.26994,246.26507L332.83016,244.10485L331.15041,242.6647L329.47066,242.18465L328.03088,241.7046L326.35113,241.22455L324.67138,240.98453
				L323.23159,239.78441L322.5117,239.30436L320.11206,239.06433L319.15221,238.58428L318.43231,237.38416L318.19235,236.66409L
				317.95239,236.18404L317.47246,234.50387L317.71242,233.7838L317.95239,233.30375L319.39217,230.66348L320.11206,230.18343L321.31188,228.50326
				L322.5117,227.30314L322.99163,226.10301L322.99163,225.14292L323.23159,224.90289L323.23159,223.70277L322.99163,222.74267L
				322.03177,221.30252L320.35203,220.34243L319.8721,219.86238L319.15221,218.90228L317.95239,216.02199L316.75257,214.58184L316.27264,213.62174
				L315.31278,212.42162L315.07282,211.46152L314.59289,210.02138L311.47336,206.90106L311.47336,205.94096L310.75346,204.02077
				L310.03357,203.06067L309.55364,202.34059L308.11386,201.14047L304.75436,199.94035L303.55454,199.70033L302.35472,199.70033
				L301.63483,199.4603L301.1549,199.22028L300.19504,198.02016L298.99522,196.82003L296.11566,194.65981L294.91584,193.45969L293.71601,191.77952
				L293.71601,191.05945L293.95598,190.5794L293.95598,189.37928L291.7963,186.97903L291.55634,186.25896L291.55634,185.29886L291.07641,184.33876
				L290.83645,184.09874L292.99612,182.17854L293.95598,181.21845L295.39576,179.05823L296.11566,177.37805L296.35562,175.93791
				L295.63573,173.29764L295.39576,173.05761L295.1558,172.33754L294.91584,170.17732L295.1558,169.21722L296.35562,167.057L297.55544,165.85688
				L298.75526,164.65676L299.47515,164.17671L300.67497,163.69666L301.39486,163.69666L302.35472,162.97659L303.31458,162.01649
				L304.27443,161.05639L304.99433,161.05639L305.95418,161.29642L307.154,161.53644L307.87389,161.05639L308.35382,160.57634L308.83375,159.1362
				L308.59379,155.05578L308.11386,153.13559L307.63393,150.97537L308.35382,151.21539L309.31368,150.97537L310.75346,150.01527
				L313.39307,145.21478L314.35292,144.01466L316.27264,141.13437L317.95239,140.17427L318.43231,139.93424L320.83195,139.93424
				L323.47156,141.37439L324.67138,141.61441L326.59109,141.13437L328.27084,141.61441L328.99073,141.85444L330.19055,142.57451
				L330.67048,143.05456L331.15041,143.29459L331.8703,145.4548L333.07012,147.13498L333.79001,148.57512L333.79001,150.73534L333.55005,151.69544
				L333.55005,152.17549L334.02998,153.13559L334.74987,153.85566L336.42962,154.33571L337.38947,154.57573L340.74897,153.85566
				L341.70883,153.61564L344.34843,153.37561L345.54825,153.37561z"/>
			<path clip-path="url(#SVG_CP_1)" fill="#73B273" fill-rule="evenodd" stroke="#000000" stroke-width="0.95986" stroke-miterlimit="10" stroke-linecap="round" stroke-linejoin="round" d="
				M423.29661,265.94707L423.05665,266.66714L424.25647,268.58734L425.69625,270.02748L425.69625,270.26751L425.45629,271.46763
				L425.21632,272.66775L425.45629,273.38783L425.93621,273.86787L427.376,275.30802L429.29571,276.26812L430.0156,276.98819L430.97546,278.18831
				L430.97546,280.34853L430.0156,282.74878L430.0156,283.70888L430.25557,284.18893L431.45539,285.8691L431.93532,286.82919L431.93532,287.30924
				L432.41524,288.26934L432.41524,290.42956L432.41524,292.10973L432.17528,293.7899L431.69535,294.75L431.21542,295.23005L428.09589,296.6702
				L427.376,296.91022L424.73639,297.63029L424.25647,297.63029L422.81668,297.87032L419.69715,298.11034L418.49733,298.59039L416.81758,299.55049
				L415.85772,299.79051L414.41794,299.79051L412.97815,300.03054L411.29841,300.03054L409.85862,299.79051L407.45898,300.27056
				L402.89966,302.19076L402.17977,302.43078L400.0201,303.15086L398.82028,303.6309L398.34035,303.87093L397.14053,304.11095L396.18067,304.83103
				L394.98085,305.07105L390.90146,304.591L389.70164,304.35098L388.98175,303.87093L386.58211,303.6309L385.14232,303.6309L383.9425,304.11095
				L382.98265,304.591L382.02279,305.5511L380.82297,305.79112L378.66329,305.5511L377.22351,305.79112L376.26365,305.79112L372.66419,304.83103
				L370.02459,304.11095L369.3047,303.6309L369.54466,303.15086L370.74448,301.71071L371.22441,300.75061L370.98444,299.07044L370.26455,297.15024
				L368.82477,295.95012L367.38498,294.75L364.02549,293.7899L361.62585,292.34976L360.90595,291.86971L360.18606,290.66959L360.66599,289.94951
				L361.38588,289.70949L361.86581,289.46946L362.34574,289.22944L363.54556,287.30924L363.78552,286.58917L363.78552,284.42895
				L362.34574,282.02871L361.86581,281.54866L361.62585,281.54866L360.90595,281.06861L358.98624,280.82858L354.90685,280.58856
				L352.98714,280.34853L352.02728,280.10851L351.54735,279.62846L350.34753,279.14841L349.86761,278.42834L349.14771,277.46824
				L349.14771,277.22822L349.62764,276.74817L349.86761,276.26812L350.34753,275.30802L350.10757,274.58795L349.62764,273.1478L
				349.62764,272.66775L350.5875,271.46763L352.50721,270.50753L354.18696,269.06739L355.14682,267.62724L355.38678,266.66714L358.26635,267.38722
				L358.74628,267.62724L359.9461,268.58734L360.66599,268.82736L361.62585,268.58734L362.34574,268.58734L363.06563,269.06739L
				363.54556,270.02748L363.30559,271.94768L363.78552,272.90778L364.26545,273.38783L366.42513,274.34792L368.5848,274.82797L371.46437,274.82797
				L374.82387,274.82797L376.26365,275.30802L377.46347,274.58795L377.70344,274.34792L378.90326,273.62785L381.3029,272.66775L
				381.78283,272.66775L382.50272,272.42773L383.9425,271.94768L385.14232,271.70766L386.82207,271.46763L387.78193,271.70766L388.50182,271.94768
				L389.70164,272.1877L390.42153,272.42773L391.14142,272.66775L392.82117,273.86787L394.02099,274.34792L395.22081,275.068L396.18067,271.94768
				L397.14053,269.30741L398.34035,270.02748L399.54017,270.74756L400.26006,271.46763L401.69984,271.22761L404.33945,270.74756
				L408.17887,268.10729L412.25826,267.14719L414.6579,266.42712L415.85772,265.70704L416.57762,264.98697L417.29751,264.02687L
				418.0174,261.3866L418.97726,259.46641L420.41704,258.02626L421.85683,257.30619L423.29661,256.58612L425.45629,255.86604L426.17618,255.62602
				L426.65611,256.58612L426.89607,258.26629L426.41614,259.22638L425.93621,260.42651L425.93621,261.62663L425.69625,262.3467L
				425.45629,262.82675L424.0165,263.54682L423.53657,264.02687L423.29661,264.74695L423.29661,265.94707z"/>
			<path clip-path="url(#SVG_CP_1)" fill="#73B273" fill-rule="evenodd" stroke="#000000" stroke-width="0.95986" stroke-miterlimit="10" stroke-linecap="round" stroke-linejoin="round" d="
				M399.78013,228.98331L401.21992,229.70338L401.93981,229.70338L405.05934,230.9035L405.77923,230.9035L406.97905,231.38355L409.61866,231.38355
				L411.05844,231.14353L411.77833,231.38355L413.93801,230.42345L416.33765,229.22333L417.77744,228.50326L418.97726,232.58367
				L420.41704,235.70399L421.13693,236.42406L424.49643,239.06433L424.97636,239.78441L424.97636,240.50448L424.73639,240.7445L
				422.57672,240.7445L421.3769,241.22455L419.93711,242.42467L419.45718,243.14475L419.69715,244.34487L420.657,247.22516L421.3769,247.94524
				L422.57672,249.38538L423.77654,250.82553L424.25647,252.26568L424.49643,252.74573L425.69625,254.66592L426.17618,255.62602
				L425.45629,255.86604L423.29661,256.58612L421.85683,257.30619L420.41704,258.02626L418.97726,259.46641L418.0174,261.3866L417.29751,264.02687
				L416.57762,264.98697L415.85772,265.70704L414.6579,266.42712L412.25826,267.14719L408.17887,268.10729L404.33945,270.74756L
				401.69984,271.22761L400.26006,271.46763L399.54017,270.74756L398.34035,270.02748L397.14053,269.30741L396.18067,271.94768L
				395.22081,275.068L394.02099,274.34792L392.82117,273.86787L391.14142,272.66775L390.42153,272.42773L389.70164,272.1877L388.50182,271.94768
				L387.78193,271.70766L386.82207,271.46763L385.14232,271.70766L383.9425,271.94768L382.50272,272.42773L381.78283,272.66775L
				381.3029,272.66775L378.90326,273.62785L377.70344,274.34792L377.46347,274.58795L376.26365,275.30802L374.82387,274.82797L371.46437,274.82797
				L368.5848,274.82797L366.42513,274.34792L364.26545,273.38783L363.78552,272.90778L363.30559,271.94768L363.54556,270.02748L
				363.06563,269.06739L362.34574,268.58734L361.62585,268.58734L360.66599,268.82736L359.9461,268.58734L358.74628,267.62724L358.26635,267.38722
				L355.38678,266.66714L355.86671,265.70704L356.34664,264.98697L356.5866,264.2669L356.10667,263.3068L356.10667,261.14658L355.86671,260.42651
				L356.10667,259.46641L356.34664,258.98636L356.10667,258.02626L357.06653,255.86604L357.06653,254.18587L357.54646,252.98575
				L358.50631,251.5456L358.26635,250.82553L358.50631,250.10546L359.46617,249.62541L360.18606,249.38538L361.38588,248.90533L
				362.10577,248.18526L362.5857,246.98514L363.06563,246.50509L363.78552,246.50509L364.26545,246.98514L365.70523,247.70521L366.90505,247.70521
				L369.06473,246.98514L369.54466,246.74511L370.98444,245.54499L372.42423,245.30497L372.66419,245.06494L372.90416,244.82492
				L373.14412,244.34487L374.10398,243.14475L373.86401,241.94463L373.62405,241.22455L372.90416,240.50448L372.66419,240.02443
				L372.90416,238.34426L372.42423,236.90411L372.18426,236.18404L373.14412,235.46397L374.10398,234.26384L375.3038,232.8237L376.50362,230.42345
				L376.98355,229.70338L380.10308,227.30314L381.3029,227.06311L382.26275,227.06311L382.74268,226.82309L383.70254,226.82309L
				385.14232,226.82309L388.02189,227.30314L388.74178,227.30314L390.90146,228.02321L393.3011,227.78318L396.42063,228.50326L397.38049,228.50326
				L399.3002,228.74328L399.78013,228.98331z"/>
		</g>
		<g id="Labels">
			<g id="WordFile_-_Default">
				<g font-family="'Arial'" font-size="1" kerning="0" font-weight="400" fill="#000000" clip-path="url(#SVG_CP_1)" >
					<text text-anchor="start" transform="matrix(7.91881 0 0 7.92081 325.63124 123.3742)" >
						<tspan direction="ltr" unicode-bidi="embed" x="0 ">4</tspan>
					</text>
				</g>
				<g font-family="'Arial'" font-size="1" kerning="0" font-weight="400" fill="#000000" clip-path="url(#SVG_CP_1)" >
					<text text-anchor="start" transform="matrix(7.91881 0 0 7.92081 322.39172 324.99472)" >
						<tspan direction="ltr" unicode-bidi="embed" x="0 ">2</tspan>
						<tspan direction="ltr" unicode-bidi="embed" x="0.54559 ">2</tspan>
					</text>
				</g>
				<g font-family="'Arial'" font-size="1" kerning="0" font-weight="400" fill="#000000" clip-path="url(#SVG_CP_1)" >
					<text text-anchor="start" transform="matrix(7.91881 0 0 7.92081 356.10667 94.33124)" >
						<tspan direction="ltr" unicode-bidi="embed" x="0 ">3</tspan>
					</text>
				</g>
				<g font-family="'Arial'" font-size="1" kerning="0" font-weight="400" fill="#000000" clip-path="url(#SVG_CP_1)" >
					<text text-anchor="start" transform="matrix(7.91881 0 0 7.92081 280.63797 237.62583)" >
						<tspan direction="ltr" unicode-bidi="embed" x="0 ">2</tspan>
						<tspan direction="ltr" unicode-bidi="embed" x="0.54559 ">1</tspan>
					</text>
				</g>
				<g font-family="'Arial'" font-size="1" kerning="0" font-weight="400" fill="#000000" clip-path="url(#SVG_CP_1)" >
					<text text-anchor="start" transform="matrix(7.91881 0 0 7.92081 433.25512 186.2606)" >
						<tspan direction="ltr" unicode-bidi="embed" x="0 ">1</tspan>
						<tspan direction="ltr" unicode-bidi="embed" x="0.54559 ">5</tspan>
					</text>
				</g>
				<g font-family="'Arial'" font-size="1" kerning="0" font-weight="400" fill="#000000" clip-path="url(#SVG_CP_1)" >
					<text text-anchor="start" transform="matrix(7.91881 0 0 7.92081 342.42872 56.40738)" >
						<tspan direction="ltr" unicode-bidi="embed" x="0 ">2</tspan>
					</text>
				</g>
				<g font-family="'Arial'" font-size="1" kerning="0" font-weight="400" fill="#000000" clip-path="url(#SVG_CP_1)" >
					<text text-anchor="start" transform="matrix(7.91881 0 0 7.92081 448.37285 295.71174)" >
						<tspan direction="ltr" unicode-bidi="embed" x="0 ">2</tspan>
						<tspan direction="ltr" unicode-bidi="embed" x="0.54559 ">4</tspan>
					</text>
				</g>
				<g font-family="'Arial'" font-size="1" kerning="0" font-weight="400" fill="#000000" clip-path="url(#SVG_CP_1)" >
					<text text-anchor="start" transform="matrix(7.91881 0 0 7.92081 348.5478 220.34407)" >
						<tspan direction="ltr" unicode-bidi="embed" x="0 ">2</tspan>
						<tspan direction="ltr" unicode-bidi="embed" x="0.54559 ">5</tspan>
					</text>
				</g>
				<g font-family="'Arial'" font-size="1" kerning="0" font-weight="400" fill="#000000" clip-path="url(#SVG_CP_1)" >
					<text text-anchor="start" transform="matrix(7.91881 0 0 7.92081 307.27398 191.30111)" >
						<tspan direction="ltr" unicode-bidi="embed" x="0 ">1</tspan>
						<tspan direction="ltr" unicode-bidi="embed" x="0.54559 ">8</tspan>
					</text>
				</g>
				<g font-family="'Arial'" font-size="1" kerning="0" font-weight="400" fill="#000000" clip-path="url(#SVG_CP_1)" >
					<text text-anchor="start" transform="matrix(7.91881 0 0 7.92081 483.40761 238.58592)" >
						<tspan direction="ltr" unicode-bidi="embed" x="0 ">2</tspan>
						<tspan direction="ltr" unicode-bidi="embed" x="0.54559 ">8</tspan>
					</text>
				</g>
				<g font-family="'Arial'" font-size="1" kerning="0" font-weight="400" fill="#000000" clip-path="url(#SVG_CP_1)" >
					<text text-anchor="start" transform="matrix(7.91881 0 0 7.92081 387.18202 193.94138)" >
						<tspan direction="ltr" unicode-bidi="embed" x="0 ">1</tspan>
						<tspan direction="ltr" unicode-bidi="embed" x="0.54559 ">4</tspan>
					</text>
				</g>
				<g font-family="'Arial'" font-size="1" kerning="0" font-weight="400" fill="#000000" clip-path="url(#SVG_CP_1)" >
					<text text-anchor="start" transform="matrix(7.91881 0 0 7.92081 390.06159 254.42754)" >
						<tspan direction="ltr" unicode-bidi="embed" x="0 ">2</tspan>
						<tspan direction="ltr" unicode-bidi="embed" x="0.54559 ">6</tspan>
					</text>
				</g>
				<g font-family="'Arial'" font-size="1" kerning="0" font-weight="400" fill="#000000" clip-path="url(#SVG_CP_1)" >
					<text text-anchor="start" transform="matrix(7.91881 0 0 7.92081 452.33226 102.97212)" >
						<tspan direction="ltr" unicode-bidi="embed" x="0 ">9</tspan>
					</text>
				</g>
				<g font-family="'Arial'" font-size="1" kerning="0" font-weight="400" fill="#000000" clip-path="url(#SVG_CP_1)" >
					<text text-anchor="start" transform="matrix(7.91881 0 0 7.92081 391.86132 133.2152)" >
						<tspan direction="ltr" unicode-bidi="embed" x="0 ">5</tspan>
					</text>
				</g>
				<g font-family="'Arial'" font-size="1" kerning="0" font-weight="400" fill="#000000" clip-path="url(#SVG_CP_1)" >
					<text text-anchor="start" transform="matrix(7.91881 0 0 7.92081 436.85458 232.10526)" >
						<tspan direction="ltr" unicode-bidi="embed" x="0 ">2</tspan>
						<tspan direction="ltr" unicode-bidi="embed" x="0.54559 ">3</tspan>
					</text>
				</g>
				<g font-family="'Arial'" font-size="1" kerning="0" font-weight="400" fill="#000000" clip-path="url(#SVG_CP_1)" >
					<text text-anchor="start" transform="matrix(7.91881 0 0 7.92081 393.66105 292.59142)" >
						<tspan direction="ltr" unicode-bidi="embed" x="0 ">2</tspan>
						<tspan direction="ltr" unicode-bidi="embed" x="0.54559 ">7</tspan>
					</text>
				</g>
				<g font-family="'Arial'" font-size="1" kerning="0" font-weight="400" fill="#000000" clip-path="url(#SVG_CP_1)" >
					<text text-anchor="start" transform="matrix(7.91881 0 0 7.92081 506.68412 270.98922)" >
						<tspan direction="ltr" unicode-bidi="embed" x="0 ">2</tspan>
						<tspan direction="ltr" unicode-bidi="embed" x="0.54559 ">9</tspan>
					</text>
				</g>
				<g font-family="'Arial'" font-size="1" kerning="0" font-weight="400" fill="#000000" clip-path="url(#SVG_CP_1)" >
					<text text-anchor="start" transform="matrix(7.91881 0 0 7.92081 376.26365 54.48719)" >
						<tspan direction="ltr" unicode-bidi="embed" x="0 ">1</tspan>
					</text>
				</g>
				<g font-family="'Arial'" font-size="1" kerning="0" font-weight="400" fill="#000000" clip-path="url(#SVG_CP_1)" >
					<text text-anchor="start" transform="matrix(7.91881 0 0 7.92081 444.65341 119.05376)" >
						<tspan direction="ltr" unicode-bidi="embed" x="0 ">8</tspan>
					</text>
				</g>
				<g font-family="'Arial'" font-size="1" kerning="0" font-weight="400" fill="#000000" clip-path="url(#SVG_CP_1)" >
					<text text-anchor="start" transform="matrix(7.91881 0 0 7.92081 404.45943 68.64863)" >
						<tspan direction="ltr" unicode-bidi="embed" x="0 ">1</tspan>
						<tspan direction="ltr" unicode-bidi="embed" x="0.54559 ">0</tspan>
					</text>
				</g>
				<g font-family="'Arial'" font-size="1" kerning="0" font-weight="400" fill="#000000" clip-path="url(#SVG_CP_1)" >
					<text text-anchor="start" transform="matrix(7.91881 0 0 7.92081 362.22576 152.8972)" >
						<tspan direction="ltr" unicode-bidi="embed" x="0 ">1</tspan>
						<tspan direction="ltr" unicode-bidi="embed" x="0.54559 ">3</tspan>
					</text>
				</g>
				<g font-family="'Arial'" font-size="1" kerning="0" font-weight="400" fill="#000000" clip-path="url(#SVG_CP_1)" >
					<text text-anchor="start" transform="matrix(7.91881 0 0 7.92081 445.01336 154.57737)" >
						<tspan direction="ltr" unicode-bidi="embed" x="0 ">1</tspan>
						<tspan direction="ltr" unicode-bidi="embed" x="0.54559 ">7</tspan>
					</text>
				</g>
				<g font-family="'Arial'" font-size="1" kerning="0" font-weight="400" fill="#000000" clip-path="url(#SVG_CP_1)" >
					<text text-anchor="start" transform="matrix(7.91881 0 0 7.92081 428.57582 138.73576)" >
						<tspan direction="ltr" unicode-bidi="embed" x="0 ">6</tspan>
					</text>
				</g>
				<g font-family="'Arial'" font-size="1" kerning="0" font-weight="400" fill="#000000" clip-path="url(#SVG_CP_1)" >
					<text text-anchor="start" transform="matrix(7.91881 0 0 7.92081 428.81578 84.49024)" >
						<tspan direction="ltr" unicode-bidi="embed" x="0 ">1</tspan>
						<tspan direction="ltr" unicode-bidi="embed" x="0.48497 ">1</tspan>
					</text>
				</g>
				<g font-family="'Arial'" font-size="1" kerning="0" font-weight="400" fill="#000000" clip-path="url(#SVG_CP_1)" >
					<text text-anchor="start" transform="matrix(7.91881 0 0 7.92081 452.81219 131.53503)" >
						<tspan direction="ltr" unicode-bidi="embed" x="0 ">7</tspan>
					</text>
				</g>
				<g font-family="'Arial'" font-size="1" kerning="0" font-weight="400" fill="#000000" clip-path="url(#SVG_CP_1)" >
					<text text-anchor="start" transform="matrix(7.91881 0 0 7.92081 391.26141 108.97273)" >
						<tspan direction="ltr" unicode-bidi="embed" x="0 ">2</tspan>
						<tspan direction="ltr" unicode-bidi="embed" x="0.54559 ">0</tspan>
					</text>
				</g>
				<g font-family="'Arial'" font-size="1" kerning="0" font-weight="400" fill="#000000" clip-path="url(#SVG_CP_1)" >
					<text text-anchor="start" transform="matrix(7.91881 0 0 7.92081 412.85817 105.85241)" >
						<tspan direction="ltr" unicode-bidi="embed" x="0 ">1</tspan>
						<tspan direction="ltr" unicode-bidi="embed" x="0.54559 ">6</tspan>
					</text>
				</g>
				<g font-family="'Arial'" font-size="1" kerning="0" font-weight="400" fill="#000000" clip-path="url(#SVG_CP_1)" >
					<text text-anchor="start" transform="matrix(7.91881 0 0 7.92081 421.97681 121.454)" >
						<tspan direction="ltr" unicode-bidi="embed" x="0 ">1</tspan>
						<tspan direction="ltr" unicode-bidi="embed" x="0.54559 ">2</tspan>
					</text>
				</g>
				<g font-family="'Arial'" font-size="1" kerning="0" font-weight="400" fill="#000000" clip-path="url(#SVG_CP_1)" >
					<text text-anchor="start" transform="matrix(7.91881 0 0 7.92081 408.05889 120.97395)" >
						<tspan direction="ltr" unicode-bidi="embed" x="0 ">1</tspan>
						<tspan direction="ltr" unicode-bidi="embed" x="0.54559 ">9</tspan>
					</text>
				</g>
			</g>
		</g>
	</g>
</svg>
