<?xml version="1.0" encoding="utf-8" standalone="no"?>
<!-- Creator: Esri ArcMap 10.6.1.9270 -->
<!DOCTYPE svg PUBLIC "-//W3C//DTD SVG 1.1//EN"  "http://www.w3.org/Graphics/SVG/1.1/DTD/svg11.dtd">
<svg width="813.74173pt" height="434.23937pt" viewBox="0 0 813.74173 434.23937" enable-background="new 0 0 813.74173 434.23937"
	version="1.1" xmlns="http://www.w3.org/2000/svg" xmlns:xlink="http://www.w3.org/1999/xlink" >
	<g id="Layers">
		<g id="NEPAL_WARDS">
			<clipPath id="SVG_CP_1">
				<path d="M0,434.23937L0,0L813.74173,0L813.74173,434.23937L0,434.23937z"/>
			</clipPath>
			<path clip-path="url(#SVG_CP_1)" fill="#73B273" fill-rule="evenodd" stroke="#000000" stroke-width="0.95986" stroke-miterlimit="10" stroke-linecap="round" stroke-linejoin="round" d="
				M388.74178,226.82309L388.74178,227.06311L388.50182,227.78318L388.74178,228.50326L388.98175,229.22333L388.98175,229.70338
				L389.46168,230.18343L389.70164,230.18343L389.46168,230.9035L389.46168,231.14353L388.26186,232.10362L387.54196,233.06372L
				386.10218,233.7838L384.42243,234.26384L383.46257,234.26384L382.98265,234.74389L381.54286,235.22394L379.38319,234.98392L377.70344,235.70399
				L376.98355,236.66409L376.98355,237.14414L377.70344,238.82431L378.42333,240.02443L378.42333,240.50448L378.42333,241.46458
				L378.66329,242.18465L378.90326,242.90472L378.42333,243.86482L378.18337,244.58489L378.18337,245.06494L378.18337,245.30497
				L377.9434,246.02504L377.22351,246.98514L376.98355,247.94524L376.74358,248.42529L376.98355,248.90533L376.98355,249.86543L
				377.22351,250.34548L379.38319,252.74573L379.38319,253.70582L379.86311,255.62602L379.86311,256.34609L380.10308,256.82614L
				380.10308,257.06616L380.82297,257.54621L383.22261,259.94646L383.9425,260.90656L384.18247,261.62663L385.62225,263.3068L386.58211,264.74695
				L388.02189,267.14719L388.50182,267.86726L388.98175,269.54744L389.70164,270.02748L390.6615,270.98758L391.86132,272.1877L393.06114,273.1478
				L394.02099,274.1079L394.98085,274.82797L395.94071,275.30802L397.14053,276.02809L398.34035,276.50814L399.3002,276.74817L400.0201,276.74817
				L400.26006,276.74817L401.45988,276.02809L402.17977,275.78807L402.89966,275.54805L404.33945,275.068L404.81938,275.068L405.05934,275.30802
				L405.2993,275.30802L405.53927,275.78807L406.73909,276.02809L406.97905,276.02809L407.93891,276.02809L408.41884,276.50814L
				409.13873,276.98819L410.81848,277.46824L411.05844,277.46824L411.77833,277.46824L413.21812,278.42834L413.69805,279.14841L
				414.41794,279.62846L414.89787,280.10851L415.3778,280.34853L416.81758,281.06861L418.25736,282.02871L418.73729,282.50875L421.3769,283.70888
				L421.61686,283.9489L422.33675,284.42895L422.33675,284.909L422.09679,284.909L422.09679,285.14902L422.33675,285.14902L422.81668,285.38905
				L423.05665,285.62907L423.77654,286.10912L424.97636,286.58917L425.21632,286.82919L425.45629,287.06922L425.93621,287.78929
				L426.41614,288.02932L427.13603,288.02932L427.61596,288.02932L427.85593,288.50937L428.33585,288.98941L428.57582,288.98941
				L429.05575,289.22944L429.53568,290.18954L429.77564,291.14963L429.77564,293.54988L429.53568,294.02993L428.57582,294.99002
				L428.09589,295.47007L427.61596,295.7101L426.89607,296.6702L426.41614,297.63029L425.93621,298.83042L425.69625,299.07044L425.45629,300.51059
				L424.97636,301.23066L424.97636,301.71071L424.73639,302.19076L424.49643,302.67081L424.0165,303.6309L423.77654,304.11095L423.29661,304.35098
				L422.81668,304.83103L421.3769,305.79112L420.17708,306.75122L419.45718,307.4713L418.97726,308.19137L418.73729,308.91144L418.49733,309.39149
				L418.49733,310.11156L418.49733,310.83164L418.25736,312.51181L418.25736,312.75183L418.0174,313.23188L417.53747,313.71193L
				417.53747,314.19198L418.0174,314.67203L418.49733,315.15208L418.97726,315.3921L419.21722,315.87215L419.21722,316.83225L418.97726,317.07227
				L418.73729,317.79235L418.73729,318.27239L419.21722,319.95257L419.45718,320.67264L419.69715,320.91266L420.41704,321.39271
				L420.657,321.87276L421.13693,322.35281L421.3769,322.83286L421.61686,323.31291L421.3769,324.03298L421.13693,324.99308L421.13693,325.47313
				L421.3769,326.67325L421.3769,327.39332L421.61686,328.1134L421.61686,328.59344L421.61686,329.07349L420.657,328.35342L419.93711,327.87337
				L419.69715,327.63335L419.21722,327.39332L418.73729,326.91327L418.25736,326.67325L417.53747,326.1932L417.05754,325.95318L
				416.33765,325.71315L416.09769,325.47313L415.61776,325.47313L415.3778,325.47313L415.13783,325.47313L414.6579,325.47313L413.93801,324.99308
				L413.21812,324.75305L412.0183,324.51303L411.05844,324.51303L410.33855,324.75305L409.37869,324.99308L408.6588,325.2331L407.93891,325.2331
				L407.45898,325.2331L406.49913,325.47313L405.77923,325.47313L404.81938,325.47313L404.09948,325.71315L403.61956,325.95318L
				402.6597,327.1533L401.21992,328.1134L400.26006,328.35342L399.06024,328.59344L398.10038,329.07349L397.38049,329.55354L396.90056,329.79357
				L396.18067,330.03359L395.46078,330.03359L394.50092,330.03359L393.3011,330.51364L392.34125,330.27362L391.86132,330.27362L
				391.62135,330.03359L391.14142,330.03359L388.98175,330.03359L387.54196,330.27362L387.06204,330.27362L387.06204,329.79357L
				386.58211,328.83347L386.10218,328.35342L385.86222,327.63335L384.6624,326.43323L384.42243,325.95318L384.18247,325.71315L383.9425,325.47313
				L383.46257,324.99308L382.50272,324.51303L381.78283,324.03298L381.3029,323.79296L380.58301,323.79296L380.10308,323.55293L
				379.86311,323.55293L379.14322,323.31291L377.46347,323.55293L376.74358,323.31291L376.26365,323.07288L376.02369,323.07288L
				375.06383,322.59283L375.06383,322.35281L374.5839,322.11279L374.10398,321.63274L373.62405,321.15269L373.38408,320.91266L372.18426,320.67264
				L371.46437,320.43261L370.50452,320.19259L370.02459,319.95257L369.3047,318.99247L368.82477,318.51242L369.06473,317.79235L
				369.78462,316.11217L370.02459,315.3921L370.50452,314.67203L370.74448,314.19198L371.22441,313.23188L371.70434,312.27178L372.42423,311.31169
				L372.90416,310.35159L373.62405,309.39149L374.10398,309.15147L374.82387,308.43139L375.78372,307.23127L376.02369,306.99125
				L376.26365,306.99125L376.26365,306.5112L376.02369,305.79112L375.78372,304.11095L375.78372,303.87093L375.54376,302.91083L
				375.54376,302.19076L375.3038,301.47068L375.06383,300.75061L374.82387,300.03054L374.5839,299.55049L373.86401,298.83042L373.62405,298.83042
				L373.38408,298.35037L372.90416,297.63029L372.42423,296.6702L371.9443,295.95012L371.46437,295.7101L370.50452,295.47007L370.02459,295.23005
				L369.54466,294.99002L369.3047,294.26995L369.3047,293.30985L369.3047,292.8298L368.82477,292.34976L368.34484,292.10973L368.10487,291.86971
				L368.10487,291.62968L368.10487,290.66959L368.5848,289.46946L368.82477,289.22944L369.3047,287.78929L369.54466,286.58917L369.54466,286.10912
				L369.54466,285.14902L369.54466,284.42895L369.54466,283.70888L370.02459,283.46885L370.74448,282.9888L371.70434,282.74878L
				372.90416,282.26873L373.62405,281.78868L374.82387,281.54866L376.26365,280.34853L376.50362,280.34853L376.50362,279.14841L
				375.54376,278.42834L375.06383,277.22822L374.10398,276.50814L372.18426,275.78807L370.50452,275.30802L369.78462,274.34792L
				369.06473,273.38783L367.86491,273.86787L366.90505,275.068L365.46527,275.54805L363.54556,275.30802L362.82567,276.50814L362.34574,277.70827
				L361.38588,278.18831L360.42602,278.42834L359.70613,277.22822L358.02638,276.02809L356.82656,275.54805L355.62674,275.30802
				L354.42692,275.068L354.18696,274.1079L353.2271,273.38783L353.2271,272.42773L353.70703,271.94768L354.66689,271.46763L353.70703,270.98758
				L352.98714,270.50753L353.2271,269.06739L352.74717,267.38722L352.26725,265.94707L350.82746,264.02687L350.34753,263.3068L349.62764,262.82675
				L349.14771,262.10668L349.14771,261.86665L349.62764,260.90656L349.14771,260.42651L348.66779,260.18648L347.46797,260.66653
				L346.50811,260.66653L345.06832,260.18648L344.10847,260.66653L343.14861,259.70643L342.42872,258.26629L341.94879,258.02626
				L340.50901,257.78624L340.02908,257.06616L339.78912,256.58612L339.30919,255.62602L339.78912,254.18587L339.54915,253.4658L
				339.30919,253.4658L340.26904,253.22577L341.70883,252.98575L343.14861,252.26568L345.30829,251.06555L346.50811,250.58551L347.70793,250.10546
				L349.62764,249.62541L351.06743,249.14536L352.02728,248.42529L353.2271,247.70521L354.42692,246.98514L356.34664,246.02504L
				357.06653,246.02504L358.50631,246.02504L359.70613,245.54499L360.42602,245.30497L361.86581,244.82492L364.02549,243.14475L
				365.46527,241.46458L366.42513,240.02443L367.62495,238.82431L368.82477,237.14414L370.02459,236.18404L370.98444,235.22394L
				372.42423,234.50387L372.90416,234.26384L373.14412,234.98392L373.62405,236.42406L373.86401,236.18404L374.82387,234.98392L
				375.78372,233.54377L376.26365,232.8237L376.50362,231.38355L377.46347,230.42345L378.18337,229.46336L379.14322,228.98331L380.34304,228.98331
				L381.06293,228.26323L381.3029,227.30314L382.74268,226.82309L383.70254,226.34304L384.6624,225.62296L385.14232,225.14292L385.62225,225.14292
				L386.34214,225.62296L387.54196,226.10301L388.26186,226.58306L388.74178,226.82309z"/>
			<path clip-path="url(#SVG_CP_1)" fill="#73B273" fill-rule="evenodd" stroke="#000000" stroke-width="0.95986" stroke-miterlimit="10" stroke-linecap="round" stroke-linejoin="round" d="
				M333.31009,219.86238L333.55005,220.1024L334.98983,222.0226L336.18965,222.9827L338.10937,224.42284L338.34933,224.66287L339.54915,224.90289
				L340.02908,225.38294L340.98894,226.34304L340.26904,226.82309L339.06922,227.54316L337.62944,229.9434L337.62944,230.18343L
				336.66958,230.9035L334.50991,232.58367L334.02998,232.8237L333.07012,233.54377L331.63034,234.50387L331.15041,235.22394L330.43052,235.70399
				L330.19055,235.94402L328.03088,234.98392L326.35113,234.50387L325.39127,233.06372L324.91134,231.38355L323.71152,229.46336
				L322.5117,227.54316L320.83195,226.10301L320.35203,224.42284L319.39217,223.46274L316.99253,222.74267L314.83285,222.50265L
				312.19325,221.0625L308.83375,219.86238L307.154,218.66226L306.19415,217.94218L305.47425,217.22211L305.71422,215.54194L305.47425,213.38172
				L307.87389,210.74145L310.5135,208.10118L311.95328,205.70094L315.07282,204.26079L317.23249,202.82064L319.15221,200.66042L
				321.31188,199.22028L321.79181,198.98025L320.59199,197.30008L319.15221,195.37989L316.27264,196.82003L315.55274,199.4603L314.11296,200.18037
				L311.71332,200.18037L310.27354,199.22028L308.35382,198.98025L305.23429,196.58001L302.35472,193.45969L299.95508,189.37928
				L296.35562,184.81881L296.59558,184.81881L298.75526,184.33876L300.91494,183.85871L302.35472,183.13864L303.31458,182.17854
				L304.5144,180.25835L305.95418,179.05823L307.63393,177.8581L308.83375,177.37805L309.55364,177.37805L310.03357,177.8581L310.5135,178.57818
				L311.23339,179.7783L312.19325,180.97842L312.67318,181.93852L313.39307,182.17854L314.83285,182.17854L316.75257,183.13864L
				317.47246,183.37866L318.19235,183.85871L319.8721,186.97903L321.31188,188.41918L322.5117,189.13925L323.95149,189.37928L325.8712,190.5794
				L327.31098,191.29947L329.47066,192.01954L331.15041,192.49959L332.11027,193.45969L331.63034,194.17976L331.39037,194.17976
				L332.35023,195.85994L332.83016,197.06006L332.59019,198.26018L331.39037,199.94035L329.71062,200.90045L328.75077,201.3805L
				330.19055,201.86055L333.07012,201.62052L335.2298,201.3805L336.90955,200.66042L337.38947,200.66042L336.90955,201.62052L337.14951,203.06067
				L338.10937,204.26079L338.10937,205.70094L337.62944,210.74145L337.62944,211.2215L336.66958,213.14169L334.50991,216.74206L
				332.83016,219.1423L332.59019,219.38233L333.31009,219.86238L333.31009,219.86238z"/>
			<path clip-path="url(#SVG_CP_1)" fill="#73B273" fill-rule="evenodd" stroke="#000000" stroke-width="0.95986" stroke-miterlimit="10" stroke-linecap="round" stroke-linejoin="round" d="
				M323.47156,113.53156L323.95149,114.73168L325.15131,116.8919L326.35113,117.13192L327.55095,119.05212L327.07102,120.01222L
				328.99073,121.21234L329.95059,121.45236L331.15041,123.61258L331.15041,124.57268L331.39037,124.8127L331.63034,126.49288L332.35023,127.21295
				L333.79001,128.65309L333.79001,129.85322L334.50991,131.05334L334.98983,132.97353L334.98983,133.45358L334.26994,134.65371
				L332.59019,134.17366L332.83016,135.6138L332.59019,136.81393L332.35023,137.77402L332.83016,138.01405L333.07012,138.01405L
				333.31009,138.73412L334.50991,140.17427L334.02998,141.13437L335.2298,143.05456L336.18965,143.29459L338.10937,145.21478L338.34933,146.4149
				L339.30919,147.375L340.02908,148.09507L340.98894,148.81515L342.18876,149.53522L342.66868,150.25529L342.66868,151.21539L343.62854,151.93546
				L343.8685,153.37561L344.5884,153.85566L345.06832,154.09568L346.02818,155.29581L346.50811,156.2559L347.94789,158.41612L348.42782,159.37622
				L349.38768,160.33632L350.10757,161.53644L350.10757,162.73656L350.34753,163.69666L351.30739,164.65676L352.02728,164.41673
				L352.74717,164.89678L353.947,166.09691L354.42692,167.29703L355.14682,167.53705L356.34664,168.9772L357.30649,168.9772L357.78642,169.69727
				L358.74628,171.37744L359.2262,172.57757L359.70613,173.53766L360.18606,174.01771L360.66599,174.49776L361.14592,174.97781L
				361.86581,174.97781L362.5857,174.73779L363.30559,174.73779L364.02549,174.73779L364.74538,175.21783L364.98534,175.69788L365.70523,176.17793
				L366.42513,176.89801L367.14502,177.13803L368.10487,177.61808L369.06473,178.09813L370.02459,178.09813L370.74448,178.09813
				L371.46437,178.57818L372.18426,179.05823L372.90416,179.29825L373.38408,179.7783L374.34394,180.25835L374.82387,180.7384L375.54376,180.7384
				L376.98355,180.7384L377.70344,180.25835L378.90326,180.01832L380.34304,180.49837L381.3029,180.97842L380.58301,181.93852L379.38319,182.65859
				L378.42333,182.89862L377.22351,183.85871L375.3038,184.81881L373.86401,186.01893L372.42423,186.73901L370.26455,186.73901L
				368.5848,187.21906L367.38498,188.6592L367.14502,188.6592L367.86491,190.09935L368.10487,192.01954L367.62495,194.17976L366.90505,194.89984
				L365.9452,195.85994L364.50541,197.30008L363.54556,198.98025L362.82567,199.94035L363.30559,200.18037L364.26545,200.66042L
				365.9452,199.94035L367.14502,199.4603L368.34484,199.94035L368.82477,201.62052L369.54466,203.30069L369.54466,204.50081L368.10487,204.50081
				L366.66509,204.74084L365.46527,205.22089L364.26545,206.42101L363.06563,207.62113L361.38588,208.58123L361.38588,208.82125
				L360.42602,208.82125L359.2262,208.58123L358.26635,208.82125L356.10667,209.06128L354.66689,209.06128L354.18696,209.3013L352.02728,209.78135
				L350.5875,208.82125L348.42782,208.58123L345.30829,211.94157L342.66868,214.58184L342.18876,214.58184L340.50901,216.26201L
				338.82926,217.46213L337.8694,217.94218L336.18965,218.90228L334.02998,219.1423L333.31009,219.86238L332.59019,219.38233L332.83016,219.1423
				L334.50991,216.74206L336.66958,213.14169L337.62944,211.2215L337.62944,210.74145L338.10937,205.70094L338.10937,204.26079L
				337.14951,203.06067L336.90955,201.62052L337.38947,200.66042L336.90955,200.66042L335.2298,201.3805L333.07012,201.62052L330.19055,201.86055
				L328.75077,201.3805L329.71062,200.90045L331.39037,199.94035L332.59019,198.26018L332.83016,197.06006L332.35023,195.85994L
				331.39037,194.17976L331.63034,194.17976L332.11027,193.45969L331.15041,192.49959L329.47066,192.01954L327.31098,191.29947L
				325.8712,190.5794L323.95149,189.37928L322.5117,189.13925L321.31188,188.41918L319.8721,186.97903L318.19235,183.85871L317.47246,183.37866
				L316.75257,183.13864L314.83285,182.17854L313.39307,182.17854L312.67318,181.93852L312.19325,180.97842L311.23339,179.7783L
				310.5135,178.57818L310.03357,177.8581L309.55364,177.37805L308.83375,177.37805L307.63393,177.8581L305.95418,179.05823L304.5144,180.25835
				L303.31458,182.17854L302.35472,183.13864L300.91494,183.85871L298.75526,184.33876L296.59558,184.81881L296.35562,184.81881
				L295.63573,185.05884L290.83645,185.05884L288.43681,185.29886L286.75706,185.05884L285.7972,184.33876L284.83734,183.61869L
				283.1576,181.45847L282.4377,180.49837L281.71781,179.53827L280.99792,178.09813L280.03806,176.17793L279.07821,174.25774L277.87839,173.29764
				L277.39846,173.05761L275.95867,172.57757L274.75885,171.61747L273.31907,170.65737L272.35921,170.41735L271.15939,169.9373L
				270.4395,169.9373L269.23968,169.9373L268.03986,170.17732L266.84004,170.17732L264.20044,170.17732L261.80079,169.69727L259.64112,169.45725
				L257.24148,168.25713L256.76155,166.33693L256.28162,166.33693L255.80169,166.09691L256.04166,163.93669L255.80169,163.69666
				L254.60187,162.97659L255.80169,159.85627L255.80169,157.69605L256.52159,155.05578L257.48144,153.13559L258.68126,151.93546
				L259.88108,150.01527L260.36101,148.57512L261.0809,146.17488L263.72051,143.53461L264.68036,142.57451L265.64022,141.37439L
				266.84004,140.89434L269.71961,140.41429L270.91943,140.17427L272.59918,139.93424L274.51889,139.45419L276.4386,138.97415L277.63842,138.25407
				L279.55814,137.05395L284.83734,134.17366L286.27713,137.77402L287.23699,139.21417L288.19684,140.65432L288.91673,141.85444
				L289.63663,143.29459L291.31637,144.97476L292.03627,144.49471L292.51619,143.77463L292.99612,141.61441L293.95598,139.93424
				L294.19594,139.21417L294.67587,137.29397L294.91584,135.85383L295.39576,133.69361L296.35562,132.97353L297.31548,132.49349
				L298.03537,131.77341L298.5153,131.29336L298.75526,130.33327L299.23519,129.61319L299.71512,127.93302L300.43501,126.49288L
				300.67497,126.01283L300.67497,125.7728L301.87479,123.13253L302.59469,122.41246L303.79451,119.77219L304.75436,118.09202L305.23429,117.37195
				L305.71422,116.41185L306.19415,114.73168L306.91404,113.29153L308.11386,111.61136L308.35382,111.37134L308.35382,110.65126
				L308.59379,110.17121L309.55364,109.69116L312.19325,108.97109L312.43321,108.49104L312.67318,107.29092L312.67318,107.0509L
				312.91314,106.57085L313.63303,106.0908L314.11296,106.33082L315.31278,108.01099L316.27264,108.73107L316.99253,109.45114L317.71242,109.93119
				L318.91224,110.65126L319.8721,111.13131L320.83195,111.37134L322.27174,112.81148L322.99163,113.29153L323.47156,113.53156z
				"/>
			<path clip-path="url(#SVG_CP_1)" fill="#73B273" fill-rule="evenodd" stroke="#000000" stroke-width="0.95986" stroke-miterlimit="10" stroke-linecap="round" stroke-linejoin="round" d="
				M382.50272,196.58001L382.74268,198.5002L382.74268,200.18037L383.22261,202.82064L383.46257,203.30069L383.46257,204.50081L
				383.70254,205.22089L383.70254,206.18099L383.70254,207.14108L383.9425,207.62113L383.9425,209.06128L383.70254,209.78135L383.70254,210.02138
				L383.22261,210.50143L382.26275,210.98147L381.78283,211.2215L381.3029,212.1816L380.58301,212.66165L379.62315,213.38172L378.18337,214.10179
				L376.98355,214.34182L375.06383,215.06189L374.10398,215.78196L373.14412,217.46213L372.66419,217.94218L371.22441,219.1423L
				370.26455,219.62235L368.5848,221.0625L367.38498,221.30252L365.46527,222.50265L364.98534,223.22272L364.02549,223.70277L363.06563,223.46274
				L362.34574,222.9827L361.86581,221.54255L360.90595,220.82248L359.9461,220.1024L358.98624,220.34243L357.30649,220.58245L356.34664,220.82248
				L355.14682,221.0625L354.18696,220.82248L352.98714,220.34243L352.50721,220.34243L351.06743,221.30252L350.34753,221.30252L
				349.14771,222.50265L348.66779,223.22272L348.18786,223.22272L347.46797,223.94279L346.26814,224.66287L345.30829,224.90289L
				344.34843,225.14292L343.14861,225.38294L341.94879,225.86299L340.98894,226.34304L340.02908,225.38294L339.54915,224.90289L
				338.34933,224.66287L338.10937,224.42284L336.18965,222.9827L334.98983,222.0226L333.55005,220.1024L333.31009,219.86238L334.02998,219.1423
				L336.18965,218.90228L337.8694,217.94218L338.82926,217.46213L340.50901,216.26201L342.18876,214.58184L342.66868,214.58184L
				345.30829,211.94157L348.42782,208.58123L350.5875,208.82125L352.02728,209.78135L354.18696,209.3013L354.66689,209.06128L356.10667,209.06128
				L358.26635,208.82125L359.2262,208.58123L360.42602,208.82125L361.38588,208.82125L361.38588,208.58123L363.06563,207.62113L
				364.26545,206.42101L365.46527,205.22089L366.66509,204.74084L368.10487,204.50081L369.54466,204.50081L369.54466,203.30069L
				368.82477,201.62052L368.34484,199.94035L367.14502,199.4603L365.9452,199.94035L364.26545,200.66042L363.30559,200.18037L362.82567,199.94035
				L363.54556,198.98025L364.50541,197.30008L365.9452,195.85994L366.90505,194.89984L367.62495,194.17976L368.10487,192.01954L
				367.86491,190.09935L367.14502,188.6592L367.38498,188.6592L368.5848,187.21906L370.26455,186.73901L372.42423,186.73901L373.86401,186.01893
				L375.3038,184.81881L377.22351,183.85871L378.42333,182.89862L379.38319,182.65859L380.58301,181.93852L381.3029,180.97842L382.98265,181.69849
				L383.9425,181.93852L383.9425,183.37866L383.9425,183.61869L383.46257,185.05884L383.22261,185.29886L382.98265,186.73901L382.50272,187.6991
				L382.98265,188.41918L382.74268,189.6193L382.50272,190.81942L382.26275,191.05945L381.06293,192.01954L380.58301,193.93974L
				380.58301,194.41979L381.3029,195.61991L382.26275,195.85994L382.50272,196.58001z"/>
			<path clip-path="url(#SVG_CP_1)" fill="#73B273" fill-rule="evenodd" stroke="#000000" stroke-width="0.95986" stroke-miterlimit="10" stroke-linecap="round" stroke-linejoin="round" d="
				M392.10128,184.57879L391.86132,185.53888L391.14142,187.21906L390.90146,187.6991L390.42153,189.13925L390.42153,190.33937L
				391.62135,192.49959L392.82117,193.69972L393.06114,194.17976L393.06114,194.65981L393.06114,195.61991L392.58121,196.58001L
				391.62135,197.54011L390.90146,198.02016L389.70164,198.74023L388.74178,198.74023L388.02189,198.74023L387.06204,198.26018L
				385.38229,197.30008L384.90236,197.06006L383.70254,196.58001L382.50272,196.58001L382.26275,195.85994L381.3029,195.61991L380.58301,194.41979
				L380.58301,193.93974L381.06293,192.01954L382.26275,191.05945L382.50272,190.81942L382.74268,189.6193L382.98265,188.41918L
				382.50272,187.6991L382.98265,186.73901L383.22261,185.29886L383.46257,185.05884L383.9425,183.61869L383.9425,183.37866L383.9425,181.93852
				L382.98265,181.69849L381.3029,180.97842L380.34304,180.49837L378.90326,180.01832L377.70344,180.25835L376.98355,180.7384L375.54376,180.7384
				L374.82387,180.7384L374.34394,180.25835L373.38408,179.7783L372.90416,179.29825L372.18426,179.05823L371.46437,178.57818L370.74448,178.09813
				L370.02459,178.09813L369.06473,178.09813L368.10487,177.61808L367.14502,177.13803L366.42513,176.89801L365.70523,176.17793
				L364.98534,175.69788L364.74538,175.21783L364.02549,174.73779L363.30559,174.73779L362.5857,174.73779L361.86581,174.97781L
				361.14592,174.97781L360.66599,174.49776L360.18606,174.01771L359.70613,173.53766L359.2262,172.57757L358.74628,171.37744L357.78642,169.69727
				L357.30649,168.9772L356.34664,168.9772L355.14682,167.53705L354.42692,167.29703L353.947,166.09691L352.74717,164.89678L352.02728,164.41673
				L351.30739,164.65676L350.34753,163.69666L350.10757,162.73656L350.10757,161.53644L349.38768,160.33632L348.42782,159.37622
				L347.94789,158.41612L346.50811,156.2559L346.02818,155.29581L345.06832,154.09568L344.5884,153.85566L343.8685,153.37561L343.62854,151.93546
				L342.66868,151.21539L342.66868,150.25529L342.18876,149.53522L340.98894,148.81515L340.02908,148.09507L339.30919,147.375L338.34933,146.4149
				L338.10937,145.21478L338.34933,144.73473L338.10937,142.81454L338.58929,140.65432L339.78912,138.73412L341.2289,137.77402L
				342.90865,137.534L344.10847,136.33388L345.78822,134.89373L346.98804,133.21356L348.18786,131.29336L350.10757,130.57329L351.78732,130.81331
				L352.98714,130.57329L353.2271,131.77341L352.98714,133.21356L352.26725,134.65371L352.74717,136.09385L352.26725,138.01405L
				352.02728,139.21417L352.98714,140.89434L354.90685,142.09446L357.30649,144.01466L359.2262,145.69483L359.70613,148.3351L360.42602,150.01527
				L360.42602,150.97537L362.82567,151.45542L365.70523,151.69544L368.34484,151.93546L370.26455,152.89556L372.90416,154.57573
				L373.86401,155.77586L374.5839,156.2559L374.82387,156.73595L377.22351,158.89617L379.14322,159.85627L380.58301,160.33632L382.02279,159.61625
				L384.6624,160.57634L387.06204,160.57634L388.02189,161.53644L388.74178,162.97659L389.46168,164.17671L389.9416,165.13681L389.9416,166.81698
				L389.70164,168.9772L389.70164,169.9373L388.50182,171.61747L388.26186,173.29764L388.02189,176.17793L387.78193,178.57818L388.02189,181.21845
				L388.26186,183.37866L388.98175,185.53888L390.6615,185.05884L392.10128,184.57879z"/>
			<path clip-path="url(#SVG_CP_1)" fill="#73B273" fill-rule="evenodd" stroke="#000000" stroke-width="0.95986" stroke-miterlimit="10" stroke-linecap="round" stroke-linejoin="round" d="
				M409.61866,50.64516L409.13873,52.32533L409.13873,53.28542L410.33855,56.16572L411.05844,57.36584L411.05844,58.08591L410.57851,58.80599
				L409.85862,60.00611L409.61866,60.72618L409.85862,62.40635L409.61866,62.8864L408.41884,62.8864L407.21902,62.8864L406.73909,63.12643
				L405.77923,62.8864L405.77923,64.8066L403.85952,64.56657L403.13963,64.8066L402.17977,65.04662L401.45988,65.28665L400.50002,65.76669
				L400.0201,66.00672L399.54017,66.24674L399.06024,66.48677L398.58031,66.48677L398.34035,66.48677L397.38049,66.24674L396.42063,65.76669
				L394.50092,65.28665L393.54107,65.04662L392.10128,65.28665L391.14142,65.52667L390.6615,65.76669L388.74178,66.24674L387.06204,66.48677
				L384.90236,66.72679L385.14232,67.44687L385.38229,67.92691L387.302,72.00733L387.78193,72.48738L388.50182,72.96743L389.46168,73.6875
				L390.6615,74.40757L391.14142,74.88762L392.10128,75.36767L392.34125,76.08774L392.58121,79.44809L392.82117,79.44809L393.54107,80.16816
				L394.50092,80.88823L394.02099,82.08836L394.26096,82.32838L394.74089,82.5684L395.22081,82.5684L398.34035,80.88823L399.06024,80.64821
				L400.97995,80.16816L402.17977,79.68811L403.61956,79.92814L404.33945,80.40818L405.2993,80.40818L406.49913,80.16816L407.69895,80.40818
				L409.61866,81.12826L410.09859,81.36828L410.81848,81.12826L412.0183,81.36828L412.49823,81.84833L412.97815,82.32838L414.17798,82.80843
				L415.85772,84.00855L416.81758,85.20867L418.0174,85.68872L419.21722,85.92875L419.69715,87.12887L419.45718,87.84894L418.73729,87.84894
				L417.53747,88.32899L416.57762,88.08897L415.61776,88.08897L414.89787,89.04906L414.6579,91.20928L414.17798,91.68933L413.21812,92.64943
				L411.53837,93.12948L410.57851,94.3296L410.81848,96.2498L410.81848,97.44992L410.81848,97.68994L410.09859,99.13009L410.09859,100.33021
				L410.09859,100.81026L409.85862,102.01038L409.85862,102.97048L410.33855,103.69055L410.57851,104.1706L412.0183,105.85077L412.49823,107.0509
				L411.77833,108.97109L412.25826,110.17121L412.49823,110.65126L411.77833,112.33143L412.0183,113.77158L411.77833,114.9717L411.77833,115.45175
				L410.81848,116.8919L411.05844,117.61197L411.53837,118.09202L412.49823,118.33204L413.45808,118.33204L414.41794,118.81209L
				414.41794,120.73229L414.6579,121.69239L416.09769,121.93241L417.05754,122.17244L417.77744,122.89251L418.97726,123.85261L420.17708,125.53278
				L420.657,126.01283L421.3769,126.7329L421.85683,127.93302L422.81668,129.85322L423.29661,130.33327L423.77654,130.81331L424.49643,130.81331
				L426.17618,131.53339L426.89607,132.25346L427.61596,132.49349L428.09589,133.45358L428.57582,133.93363L429.29571,134.65371
				L429.53568,135.37378L430.97546,136.5739L431.69535,137.05395L431.93532,137.534L432.41524,138.73412L433.13514,139.69422L433.85503,140.17427
				L434.81488,141.13437L435.77474,141.85444L436.0147,142.57451L436.49463,143.53461L436.49463,145.21478L436.25467,147.13498L
				436.25467,148.3351L436.25467,149.05517L435.53478,151.21539L435.53478,153.13559L436.0147,153.85566L434.33496,156.01588L433.85503,156.49593
				L432.17528,157.93608L431.45539,158.89617L430.97546,158.65615L430.0156,159.1362L429.05575,159.37622L427.85593,159.61625L427.13603,159.61625
				L425.69625,160.33632L425.69625,160.57634L424.73639,161.05639L424.49643,161.29642L423.53657,162.01649L422.81668,163.21661
				L421.61686,164.89678L421.3769,166.57695L421.61686,168.25713L421.85683,169.45725L421.85683,170.65737L421.13693,171.85749L
				421.13693,173.29764L421.3769,174.73779L421.85683,176.41796L421.61686,176.89801L420.89697,178.33815L420.17708,179.29825L418.49733,180.01832
				L417.53747,180.01832L416.33765,180.49837L414.17798,180.49837L413.45808,180.7384L412.49823,180.97842L411.53837,181.69849L
				411.05844,181.93852L410.33855,182.41857L408.89877,183.37866L408.41884,183.61869L407.21902,184.09874L406.0192,184.33876L404.57941,184.09874
				L403.61956,184.09874L401.45988,183.61869L398.82028,183.85871L397.62045,184.57879L395.70074,183.61869L394.74089,183.37866
				L394.26096,183.37866L393.06114,183.61869L392.34125,184.33876L392.10128,184.57879L390.6615,185.05884L388.98175,185.53888L
				388.26186,183.37866L388.02189,181.21845L387.78193,178.57818L388.02189,176.17793L388.26186,173.29764L388.50182,171.61747L
				389.70164,169.9373L389.70164,168.9772L389.9416,166.81698L389.9416,165.13681L389.46168,164.17671L388.74178,162.97659L388.02189,161.53644
				L387.06204,160.57634L384.6624,160.57634L382.02279,159.61625L380.58301,160.33632L379.14322,159.85627L377.22351,158.89617L
				374.82387,156.73595L374.5839,156.2559L373.86401,155.77586L372.90416,154.57573L370.26455,152.89556L368.34484,151.93546L365.70523,151.69544
				L362.82567,151.45542L360.42602,150.97537L360.42602,150.01527L359.70613,148.3351L359.2262,145.69483L357.30649,144.01466L354.90685,142.09446
				L352.98714,140.89434L352.02728,139.21417L352.26725,138.01405L352.74717,136.09385L352.26725,134.65371L352.98714,133.21356
				L353.2271,131.77341L352.98714,130.57329L351.78732,130.81331L350.10757,130.57329L348.18786,131.29336L346.98804,133.21356L
				345.78822,134.89373L344.10847,136.33388L342.90865,137.534L341.2289,137.77402L339.78912,138.73412L338.58929,140.65432L338.10937,142.81454
				L338.34933,144.73473L338.10937,145.21478L336.18965,143.29459L335.2298,143.05456L334.02998,141.13437L334.50991,140.17427L
				333.31009,138.73412L333.07012,138.01405L332.83016,138.01405L332.35023,137.77402L332.59019,136.81393L332.83016,135.6138L332.59019,134.17366
				L334.26994,134.65371L334.98983,133.45358L334.98983,132.97353L334.50991,131.05334L333.79001,129.85322L333.79001,128.65309
				L332.35023,127.21295L331.63034,126.49288L331.39037,124.8127L331.15041,124.57268L331.15041,123.61258L329.95059,121.45236L
				328.99073,121.21234L327.07102,120.01222L327.55095,119.05212L326.35113,117.13192L325.15131,116.8919L323.95149,114.73168L323.47156,113.53156
				L323.47156,112.57146L323.95149,111.85138L323.71152,110.65126L324.19145,108.97109L325.8712,107.29092L326.11116,105.85077L
				326.83106,105.37073L327.79091,103.45053L328.27084,103.21051L328.5108,101.53033L328.99073,100.81026L329.71062,99.85016L330.43052,99.37011
				L331.15041,96.72985L330.91044,95.76975L331.8703,94.3296L332.35023,93.84955L333.31009,93.3695L334.26994,90.96926L334.02998,89.76914
				L333.79001,88.08897L333.31009,86.88884L333.31009,85.92875L332.35023,85.20867L331.39037,85.20867L330.91044,84.96865L329.71062,85.20867
				L328.03088,82.80843L327.79091,81.60831L326.83106,80.16816L326.83106,78.96804L325.8712,77.04784L325.8712,75.6077L326.59109,74.40757
				L327.55095,71.76731L327.79091,70.56718L328.27084,69.60709L328.99073,68.88701L329.47066,67.44687L329.47066,66.72679L329.71062,65.76669
				L330.67048,65.28665L331.39037,64.08652L331.8703,63.60647L333.07012,62.8864L334.74987,61.44625L335.2298,60.72618L335.46976,59.52606
				L335.70973,59.52606L335.94969,59.52606L338.34933,59.76608L339.54915,59.76608L341.2289,59.28603L342.42872,59.04601L344.10847,58.32594
				L344.5884,58.08591L346.26814,58.32594L346.74807,58.32594L347.46797,58.32594L347.94789,58.56596L348.90775,58.32594L350.10757,57.60586
				L350.5875,57.12581L351.06743,56.64577L351.30739,56.40574L351.54735,56.16572L351.78732,55.92569L352.26725,55.20562L352.74717,54.72557
				L352.98714,54.72557L353.46707,54.48555L353.947,54.24552L355.38678,53.0454L358.26635,51.1252L358.98624,50.64516L359.46617,48.72496
				L359.70613,47.52484L360.42602,46.56474L360.42602,46.08469L361.14592,46.08469L361.38588,46.08469L362.82567,44.88457L363.30559,44.64454
				L364.02549,44.1645L364.98534,43.68445L368.34484,44.40452L368.82477,44.40452L371.22441,44.1645L372.42423,43.92447L374.10398,43.44442
				L375.54376,43.44442L377.46347,43.68445L377.9434,43.44442L379.14322,43.68445L380.10308,44.1645L382.26275,44.88457L386.10218,45.60464
				L388.50182,46.32472L389.9416,47.04479L391.62135,47.52484L394.74089,47.52484L397.62045,48.00489L399.3002,49.44503L400.26006,48.96498
				L401.93981,48.96498L403.37959,48.48494L404.33945,48.48494L405.77923,48.00489L406.73909,47.28481L407.69895,47.04479L408.6588,47.52484
				L408.89877,47.76486L409.37869,48.72496L409.37869,49.44503L409.37869,49.92508L409.61866,50.40513L409.61866,50.64516z"/>
			<path clip-path="url(#SVG_CP_1)" fill="#73B273" fill-rule="evenodd" stroke="#000000" stroke-width="0.95986" stroke-miterlimit="10" stroke-linecap="round" stroke-linejoin="round" d="
				M559.35623,324.75305L559.11627,324.99308L558.15641,324.99308L555.75677,324.51303L555.27684,324.51303L554.79692,324.75305
				L552.63724,326.1932L550.47756,326.91327L549.03778,327.87337L547.35803,328.59344L546.63814,329.31352L545.91825,329.07349L
				545.67828,329.07349L544.47846,328.1134L543.03868,327.87337L542.55875,328.35342L540.879,329.31352L537.5195,328.83347L537.03958,328.35342
				L534.63994,329.55354L532.00033,329.79357L529.36073,330.75366L527.44101,332.43384L526.72112,331.95379L525.5213,331.47374L
				524.32148,330.99369L523.12166,330.99369L522.40177,330.75366L521.92184,330.03359L521.20195,329.31352L519.76216,328.1134L518.56234,327.87337
				L517.36252,328.59344L516.40267,328.83347L515.44281,327.63335L514.24299,326.67325L512.80321,326.1932L508.72382,324.99308L
				501.52489,324.03298L500.56504,324.27301L499.12525,325.47313L497.68547,327.39332L496.72561,328.83347L493.60608,327.1533L491.92633,325.71315
				L491.92633,325.47313L490.48655,324.75305L490.96648,323.55293L490.96648,323.31291L490.72651,323.07288L489.76666,322.83286
				L488.32687,323.07288L487.12705,323.07288L486.88709,324.03298L486.16719,324.27301L484.48745,324.27301L484.48745,323.07288
				L483.52759,322.83286L481.84784,322.35281L480.64802,321.63274L479.68816,323.55293L478.24838,324.99308L476.56863,326.1932L
				473.68906,327.39332L471.52939,328.83347L466.49014,329.55354L464.81039,329.55354L462.65072,329.79357L462.17079,329.79357L
				461.93082,330.03359L461.4509,330.27362L460.97097,330.99369L460.731,331.23371L460.731,331.47374L460.01111,332.19381L459.29122,332.91388
				L458.81129,333.39393L458.33136,333.87398L456.89158,335.31413L456.65161,335.79418L456.65161,336.0342L456.41165,336.27423L
				455.69176,337.9544L455.45179,338.67447L455.21183,339.15452L454.7319,339.39454L454.01201,339.87459L453.05215,340.11462L452.57223,340.11462
				L451.61237,339.63457L451.13244,339.63457L450.89248,339.87459L449.69266,340.35464L449.21273,340.59467L447.77294,340.83469
				L446.57312,341.31474L445.85323,341.55476L445.3733,341.55476L443.93352,341.79479L443.69355,342.03481L442.49373,342.27484L
				441.05395,342.75489L440.33406,342.75489L438.17438,342.75489L436.97456,342.27484L436.7346,342.27484L436.49463,342.03481L436.49463,341.79479
				L436.25467,341.55476L436.0147,341.31474L435.53478,340.83469L434.81488,340.59467L434.33496,340.11462L434.09499,340.11462L
				433.61506,339.87459L432.17528,339.15452L431.69535,338.67447L430.25557,338.19442L430.0156,338.19442L429.29571,338.19442L428.81578,338.19442
				L428.33585,337.71437L428.09589,337.47435L428.09589,337.23432L427.85593,336.9943L427.13603,336.0342L426.89607,335.31413L425.45629,332.43384
				L425.21632,332.19381L424.73639,331.71376L423.53657,330.99369L423.05665,330.51364L422.81668,330.27362L422.33675,329.79357
				L421.85683,329.55354L421.61686,329.07349L421.61686,328.59344L421.61686,328.1134L421.3769,327.39332L421.3769,326.67325L421.13693,325.47313
				L421.13693,324.99308L421.3769,324.03298L421.61686,323.31291L421.3769,322.83286L421.13693,322.35281L420.657,321.87276L420.41704,321.39271
				L419.69715,320.91266L419.45718,320.67264L419.21722,319.95257L418.73729,318.27239L418.73729,317.79235L418.97726,317.07227
				L419.21722,316.83225L419.21722,315.87215L418.97726,315.3921L418.49733,315.15208L418.0174,314.67203L417.53747,314.19198L417.53747,313.71193
				L418.0174,313.23188L418.25736,312.75183L418.25736,312.51181L418.49733,310.83164L418.49733,310.11156L418.49733,309.39149L
				418.73729,308.91144L418.97726,308.19137L419.45718,307.4713L420.17708,306.75122L421.3769,305.79112L422.81668,304.83103L423.29661,304.35098
				L423.77654,304.11095L424.0165,303.6309L424.49643,302.67081L424.73639,302.19076L424.97636,301.71071L424.97636,301.23066L425.45629,300.51059
				L425.69625,299.07044L425.93621,298.83042L426.41614,297.63029L426.89607,296.6702L427.61596,295.7101L428.09589,295.47007L428.57582,294.99002
				L429.53568,294.02993L429.77564,293.54988L429.77564,291.14963L429.53568,290.18954L429.05575,289.22944L428.57582,288.98941
				L428.33585,288.98941L427.85593,288.50937L427.61596,288.02932L427.13603,288.02932L426.41614,288.02932L425.93621,287.78929
				L425.45629,287.06922L425.21632,286.82919L424.97636,286.58917L423.77654,286.10912L423.05665,285.62907L422.81668,285.38905
				L422.33675,285.14902L422.09679,285.14902L422.09679,284.909L422.33675,284.909L422.33675,284.42895L421.61686,283.9489L421.3769,283.70888
				L421.85683,283.22883L422.57672,282.74878L423.29661,282.50875L424.0165,282.02871L424.49643,281.06861L425.21632,279.86849L
				424.97636,279.86849L423.77654,279.38844L423.53657,278.66836L423.29661,277.94829L422.57672,276.74817L422.57672,275.78807L
				423.05665,275.78807L423.77654,275.30802L425.93621,274.58795L428.09589,273.38783L427.85593,272.42773L428.57582,271.22761L
				428.81578,270.26751L429.05575,269.30741L429.05575,268.58734L428.57582,267.14719L427.85593,266.42712L426.89607,264.74695L
				426.65611,264.2669L425.21632,263.06678L424.73639,262.3467L424.25647,261.3866L426.41614,258.26629L428.33585,255.38599L428.09589,254.18587
				L428.09589,253.70582L427.85593,253.22577L427.376,252.5057L427.376,252.26568L427.13603,252.02565L427.13603,251.78563L427.376,250.10546
				L427.13603,249.38538L427.13603,249.14536L427.13603,248.42529L427.376,247.94524L427.376,247.46519L426.89607,246.50509L426.89607,246.26507
				L426.17618,243.6248L425.69625,242.18465L425.45629,241.7046L425.45629,241.22455L425.21632,240.98453L424.97636,240.26445L424.73639,239.30436
				L424.0165,237.14414L423.77654,236.42406L422.57672,234.98392L422.09679,233.7838L421.61686,233.06372L421.13693,232.10362L420.17708,231.14353
				L419.93711,230.18343L419.21722,229.46336L419.21722,229.22333L418.25736,228.74328L418.0174,228.50326L418.0174,228.26323L417.77744,227.54316
				L418.0174,226.58306L418.0174,226.10301L417.77744,225.14292L418.0174,222.50265L417.77744,221.54255L417.77744,220.58245L418.25736,218.66226
				L418.25736,218.18221L418.25736,217.94218L418.0174,217.22211L418.0174,216.50204L418.25736,215.78196L418.25736,215.54194L418.73729,215.30191
				L419.21722,214.58184L420.41704,212.1816L420.17708,210.98147L419.45718,209.54133L419.21722,209.06128L419.21722,208.82125L
				418.97726,208.34121L418.97726,207.86116L418.97726,207.14108L418.97726,206.42101L418.25736,205.22089L417.77744,204.74084L
				417.53747,204.26079L417.53747,203.78074L417.53747,203.06067L417.77744,200.90045L417.77744,199.94035L417.53747,198.98025L
				417.53747,198.74023L417.53747,198.02016L418.0174,198.02016L419.45718,198.5002L420.17708,199.22028L420.89697,199.70033L422.09679,199.94035
				L424.0165,200.4204L425.21632,200.66042L425.93621,201.14047L427.61596,201.62052L428.81578,201.86055L430.25557,202.34059L431.21542,203.30069
				L432.17528,204.50081L433.13514,205.70094L433.85503,206.42101L434.57492,207.14108L435.05485,209.06128L435.29481,209.3013L
				436.25467,210.50143L437.45449,211.94157L438.89427,213.62174L440.09409,216.02199L442.25377,218.90228L444.89338,222.50265L
				444.89338,222.74267L445.13334,222.9827L447.05305,225.62296L448.25287,227.30314L448.7328,227.78318L450.65251,229.22333L451.61237,229.70338
				L452.33226,231.14353L453.05215,232.8237L453.77205,234.50387L454.25197,236.42406L454.7319,238.58428L454.97187,239.54438L455.21183,240.7445
				L456.17169,241.94463L456.41165,242.18465L458.81129,244.10485L460.25108,245.06494L463.13064,246.50509L464.33046,246.02504
				L465.29032,245.78502L466.01021,245.54499L467.92993,245.78502L468.88978,246.50509L470.32957,246.74511L472.00931,246.50509
				L473.92903,246.74511L475.12885,247.70521L475.84874,248.18526L476.8086,248.42529L478.72831,248.90533L479.20824,249.62541L
				479.4482,250.34548L479.4482,250.82553L479.20824,251.06555L478.48834,251.5456L478.48834,252.74573L478.72831,253.22577L478.96827,253.4658
				L480.16809,254.18587L481.36791,254.66592L482.56773,257.06616L483.28763,258.50631L484.00752,259.70643L485.68727,260.18648
				L487.36701,260.42651L489.76666,261.62663L490.48655,262.10668L491.92633,263.06678L492.40626,263.54682L493.36612,264.2669L
				493.60608,264.98697L494.08601,266.66714L495.28583,267.38722L496.24569,268.82736L496.48565,269.78746L496.96558,270.74756L
				497.92543,271.70766L498.88529,272.90778L499.60518,273.86787L499.60518,275.30802L500.56504,276.02809L501.76486,276.98819L
				502.00482,278.18831L502.24479,279.14841L502.72471,280.10851L503.68457,280.58856L504.88439,280.82858L506.08421,281.30863L
				506.08421,281.78868L506.32418,282.74878L506.8041,283.70888L507.524,284.18893L508.24389,284.909L508.72382,286.10912L509.44371,287.06922
				L509.68367,287.30924L510.40356,288.98941L510.64353,289.70949L511.12346,289.94951L512.32328,290.66959L516.1627,291.38966L
				517.12256,292.10973L518.08241,293.30985L519.04227,294.99002L520.72202,296.6702L522.8817,298.11034L525.04137,299.31046L525.76126,299.31046
				L526.24119,299.79051L526.72112,300.27056L527.68098,301.71071L528.16091,302.19076L528.16091,302.43078L528.64083,303.15086
				L529.36073,304.11095L531.5204,305.5511L532.00033,305.5511L532.72022,305.79112L534.39997,307.23127L534.39997,307.4713L535.11986,307.4713
				L537.03958,307.4713L537.03958,307.95134L537.5195,308.43139L537.99943,310.11156L539.43922,311.07166L542.31879,312.27178L542.79871,312.75183
				L543.27864,313.47191L543.27864,313.71193L543.99853,313.23188L544.47846,313.47191L547.11807,314.67203L547.83796,314.91205
				L548.31789,314.91205L548.55785,314.91205L549.03778,315.63213L549.51771,315.87215L550.2376,315.87215L551.19746,316.11217L
				551.19746,316.3522L551.43742,316.59222L552.15731,317.55232L552.63724,318.03237L552.8772,318.51242L553.11717,318.75244L553.5971,318.99247
				L555.27684,319.71254L555.99674,320.43261L556.71663,321.15269L557.43652,321.87276L557.91645,322.35281L558.15641,322.59283
				L558.39638,322.83286L558.63634,323.31291L559.35623,324.75305z"/>
			<path clip-path="url(#SVG_CP_1)" fill="#73B273" fill-rule="evenodd" stroke="#000000" stroke-width="0.95986" stroke-miterlimit="10" stroke-linecap="round" stroke-linejoin="round" d="
				M296.35562,184.81881L299.95508,189.37928L302.35472,193.45969L305.23429,196.58001L308.35382,198.98025L310.27354,199.22028
				L311.71332,200.18037L314.11296,200.18037L315.55274,199.4603L316.27264,196.82003L319.15221,195.37989L320.59199,197.30008L
				321.79181,198.98025L321.31188,199.22028L319.15221,200.66042L317.23249,202.82064L315.07282,204.26079L311.95328,205.70094L
				310.5135,208.10118L307.87389,210.74145L305.47425,213.38172L305.71422,215.54194L305.47425,217.22211L306.19415,217.94218L307.154,218.66226
				L308.83375,219.86238L312.19325,221.0625L314.83285,222.50265L316.99253,222.74267L319.39217,223.46274L320.35203,224.42284L
				320.83195,226.10301L322.5117,227.54316L323.71152,229.46336L324.91134,231.38355L325.39127,233.06372L326.35113,234.50387L328.03088,234.98392
				L330.19055,235.94402L329.47066,236.66409L328.5108,237.14414L327.07102,238.58428L326.35113,239.30436L324.91134,241.46458L
				324.43142,242.90472L322.99163,244.10485L321.31188,245.30497L320.35203,246.50509L319.8721,248.42529L319.63213,249.38538L319.63213,252.02565
				L319.63213,252.5057L319.15221,253.94585L318.67228,254.66592L318.19235,255.14597L317.71242,255.38599L317.23249,255.38599L
				316.03267,255.86604L313.873,256.34609L311.95328,256.82614L309.79361,257.30619L309.31368,257.54621L307.87389,258.02626L307.39397,258.74634
				L306.43411,260.66653L305.71422,261.62663L305.47425,263.3068L304.99433,263.78685L304.5144,265.94707L304.03447,266.90717L304.03447,267.38722
				L303.79451,269.30741L303.55454,269.78746L303.31458,270.74756L303.07461,271.22761L302.11476,271.46763L301.1549,271.94768L
				298.5153,273.38783L298.03537,274.1079L295.39576,276.26812L294.19594,277.46824L292.27623,278.90839L289.63663,279.14841L286.99702,279.14841
				L286.03716,278.18831L285.55724,277.94829L284.59738,277.22822L283.63752,276.26812L283.63752,275.54805L282.67767,274.82797
				L281.47785,275.068L280.75796,274.82797L279.55814,274.82797L280.03806,273.86787L280.03806,273.62785L280.03806,273.1478L280.03806,272.1877
				L280.27803,269.30741L280.03806,267.86726L280.27803,267.62724L280.27803,266.42712L280.27803,265.70704L280.51799,264.74695
				L280.75796,263.3068L280.51799,262.3467L280.75796,260.90656L280.75796,259.46641L280.75796,258.50631L280.27803,258.26629L279.7981,258.26629
				L278.59828,258.50631L276.19864,259.46641L275.23878,259.22638L274.51889,258.98636L273.55903,258.26629L272.11925,257.78624
				L271.39936,257.78624L269.71961,257.78624L269.23968,257.30619L268.75975,255.14597L268.51979,253.94585L268.27982,253.94585
				L267.55993,252.98575L267.31997,252.98575L267.08,252.5057L267.08,252.02565L266.60008,251.5456L265.64022,251.30558L265.16029,251.06555
				L265.16029,250.82553L264.68036,250.58551L263.24058,250.34548L262.52069,250.10546L261.80079,249.38538L261.56083,249.38538
				L260.84094,248.90533L260.36101,248.42529L260.84094,247.70521L260.36101,247.22516L259.64112,246.26507L259.40115,245.54499
				L259.64112,244.58489L260.12105,244.10485L260.60097,243.38477L260.36101,242.18465L260.12105,241.7046L262.76065,240.50448L
				264.68036,240.26445L265.16029,240.26445L266.36011,240.02443L267.55993,239.78441L269.23968,239.30436L270.91943,238.58428L
				271.39936,238.10423L270.91943,237.38416L268.99972,236.66409L268.03986,235.94402L267.55993,234.98392L267.7999,232.34365L267.31997,232.34365
				L266.60008,232.34365L264.92033,231.8636L263.72051,230.9035L263.48054,230.66348L263.00061,230.18343L262.76065,230.18343L262.52069,229.70338
				L262.28072,229.46336L262.04076,228.98331L261.80079,228.02321L261.56083,227.54316L261.0809,227.06311L260.12105,226.58306L
				259.40115,226.10301L258.92123,226.10301L257.00151,223.70277L257.24148,223.22272L258.68126,222.50265L259.40115,221.78257L
				260.60097,221.30252L262.76065,221.0625L262.28072,220.58245L261.56083,220.1024L260.60097,218.90228L258.92123,216.74206L258.4413,216.02199
				L259.40115,212.1816L259.64112,211.94157L260.84094,211.2215L265.64022,210.50143L266.60008,209.78135L268.27982,208.10118L269.47964,206.42101
				L269.71961,204.98086L269.47964,202.58062L268.99972,202.34059L267.55993,201.62052L265.40026,200.18037L263.72051,199.70033
				L262.52069,198.98025L261.56083,198.74023L260.12105,197.78013L258.4413,196.58001L256.76155,195.37989L255.56173,194.17976L
				254.84184,192.73962L253.64202,189.6193L253.64202,187.45908L253.64202,180.7384L254.60187,176.89801L255.56173,175.21783L257.24148,170.65737
				L257.48144,169.45725L256.76155,168.25713L256.28162,166.33693L256.76155,166.33693L257.24148,168.25713L259.64112,169.45725
				L261.80079,169.69727L264.20044,170.17732L266.84004,170.17732L268.03986,170.17732L269.23968,169.9373L270.4395,169.9373L271.15939,169.9373
				L272.35921,170.41735L273.31907,170.65737L274.75885,171.61747L275.95867,172.57757L277.39846,173.05761L277.87839,173.29764
				L279.07821,174.25774L280.03806,176.17793L280.99792,178.09813L281.71781,179.53827L282.4377,180.49837L283.1576,181.45847L284.83734,183.61869
				L285.7972,184.33876L286.75706,185.05884L288.43681,185.29886L290.83645,185.05884L295.63573,185.05884L296.35562,184.81881z
				"/>
			<path clip-path="url(#SVG_CP_1)" fill="#73B273" fill-rule="evenodd" stroke="#000000" stroke-width="0.95986" stroke-miterlimit="10" stroke-linecap="round" stroke-linejoin="round" d="
				M388.74178,198.74023L388.98175,199.4603L389.46168,201.14047L389.70164,202.34059L389.70164,202.82064L389.9416,203.78074L389.9416,205.22089
				L389.9416,207.14108L389.9416,209.06128L389.70164,210.50143L389.46168,211.70155L388.74178,212.42162L388.02189,212.90167L388.02189,213.38172
				L388.50182,214.10179L388.50182,214.58184L388.50182,214.82187L388.50182,215.06189L388.26186,216.26201L388.26186,216.50204
				L388.98175,218.18221L389.46168,223.94279L389.22171,224.66287L389.22171,225.38294L389.22171,225.62296L389.22171,226.10301
				L388.74178,226.82309L388.26186,226.58306L387.54196,226.10301L386.34214,225.62296L385.62225,225.14292L385.14232,225.14292
				L384.6624,225.62296L383.70254,226.34304L382.74268,226.82309L381.3029,227.30314L381.06293,228.26323L380.34304,228.98331L379.14322,228.98331
				L378.18337,229.46336L377.46347,230.42345L376.50362,231.38355L376.26365,232.8237L375.78372,233.54377L374.82387,234.98392L
				373.86401,236.18404L373.62405,236.42406L373.14412,234.98392L372.90416,234.26384L372.42423,234.50387L370.98444,235.22394L
				370.02459,236.18404L368.82477,237.14414L367.62495,238.82431L366.42513,240.02443L365.46527,241.46458L364.02549,243.14475L
				361.86581,244.82492L360.42602,245.30497L359.70613,245.54499L358.50631,246.02504L357.06653,246.02504L356.34664,246.02504L
				354.42692,246.98514L353.2271,247.70521L352.02728,248.42529L351.06743,249.14536L349.62764,249.62541L347.70793,250.10546L346.50811,250.58551
				L345.30829,251.06555L343.14861,252.26568L341.70883,252.98575L340.26904,253.22577L339.30919,253.4658L339.54915,253.4658L339.78912,254.18587
				L339.30919,255.62602L339.78912,256.58612L340.02908,257.06616L340.50901,257.78624L341.94879,258.02626L342.42872,258.26629
				L343.14861,259.70643L344.10847,260.66653L345.06832,260.18648L346.50811,260.66653L347.46797,260.66653L348.66779,260.18648
				L349.14771,260.42651L349.62764,260.90656L349.14771,261.86665L349.14771,262.10668L349.62764,262.82675L350.34753,263.3068L
				350.82746,264.02687L352.26725,265.94707L352.74717,267.38722L353.2271,269.06739L352.98714,270.50753L353.70703,270.98758L354.66689,271.46763
				L353.70703,271.94768L353.2271,272.42773L353.2271,273.38783L354.18696,274.1079L354.42692,275.068L355.62674,275.30802L356.82656,275.54805
				L358.02638,276.02809L359.70613,277.22822L360.42602,278.42834L361.38588,278.18831L362.34574,277.70827L362.82567,276.50814
				L363.54556,275.30802L365.46527,275.54805L366.90505,275.068L367.86491,273.86787L369.06473,273.38783L369.78462,274.34792L370.50452,275.30802
				L372.18426,275.78807L374.10398,276.50814L375.06383,277.22822L375.54376,278.42834L376.50362,279.14841L376.50362,280.34853
				L376.26365,280.34853L374.82387,281.54866L373.62405,281.78868L372.90416,282.26873L371.70434,282.74878L370.74448,282.9888L
				370.02459,283.46885L369.54466,283.70888L369.54466,284.42895L369.54466,285.14902L369.54466,286.10912L369.54466,286.58917L
				369.3047,287.78929L368.82477,289.22944L368.5848,289.46946L368.10487,290.66959L368.10487,291.62968L368.10487,291.86971L368.34484,292.10973
				L368.82477,292.34976L369.3047,292.8298L369.3047,293.30985L369.3047,294.26995L369.54466,294.99002L370.02459,295.23005L370.50452,295.47007
				L371.46437,295.7101L371.9443,295.95012L372.42423,296.6702L372.90416,297.63029L373.38408,298.35037L373.62405,298.83042L373.86401,298.83042
				L374.5839,299.55049L374.82387,300.03054L375.06383,300.75061L375.3038,301.47068L375.54376,302.19076L375.54376,302.91083L375.78372,303.87093
				L375.78372,304.11095L376.02369,305.79112L376.26365,306.5112L376.26365,306.99125L376.02369,306.99125L375.78372,307.23127L
				374.82387,308.43139L374.10398,309.15147L373.62405,309.39149L372.90416,310.35159L372.42423,311.31169L371.70434,312.27178L
				371.22441,313.23188L370.74448,314.19198L370.50452,314.67203L370.02459,315.3921L369.78462,316.11217L369.06473,317.79235L368.82477,318.51242
				L368.34484,318.27239L367.86491,318.03237L367.62495,317.79235L367.14502,317.79235L366.90505,317.55232L366.18516,316.83225
				L365.22531,316.59222L364.02549,316.59222L363.30559,316.59222L362.10577,317.3123L361.62585,317.3123L361.14592,317.3123L360.90595,317.3123
				L360.42602,317.07227L359.9461,317.07227L358.26635,317.07227L358.02638,317.07227L357.06653,317.07227L356.34664,316.83225L
				355.14682,316.83225L354.90685,316.83225L354.42692,316.83225L353.947,316.83225L353.46707,316.83225L352.74717,316.59222L352.26725,316.59222
				L351.78732,316.59222L351.06743,316.3522L350.10757,316.3522L349.86761,316.3522L349.38768,316.3522L348.42782,316.59222L347.70793,316.3522
				L346.98804,315.87215L346.02818,315.63213L345.78822,315.63213L345.30829,315.3921L345.06832,315.15208L344.34843,314.432L344.10847,313.95195
				L343.62854,313.71193L342.18876,312.75183L341.70883,312.51181L340.74897,312.51181L339.06922,312.51181L338.34933,312.27178
				L338.10937,312.03176L337.62944,312.03176L337.38947,311.79173L336.42962,310.35159L336.18965,309.87154L336.18965,309.15147
				L335.70973,308.19137L335.2298,307.71132L334.98983,307.23127L334.74987,307.23127L334.50991,306.75122L334.26994,306.5112L334.02998,306.03115
				L334.02998,305.5511L333.31009,302.91083L332.83016,301.71071L332.59019,301.23066L332.59019,300.75061L332.11027,299.79051L
				331.8703,299.31046L330.19055,294.26995L329.95059,294.02993L329.95059,293.54988L329.47066,293.06983L328.99073,292.8298L328.27084,292.58978
				L328.03088,292.34976L327.79091,291.86971L327.31098,291.14963L327.07102,290.42956L326.59109,288.50937L326.35113,288.02932
				L325.8712,287.30924L325.39127,286.82919L325.15131,286.58917L324.91134,286.58917L324.67138,286.82919L323.95149,286.82919L
				322.27174,286.34915L321.79181,286.34915L320.83195,286.34915L319.39217,286.34915L318.91224,286.34915L318.19235,286.10912L
				317.47246,285.8691L316.75257,285.62907L316.03267,285.38905L315.07282,285.14902L314.35292,284.909L313.63303,284.909L313.1531,284.66897
				L312.67318,284.42895L312.19325,283.9489L311.23339,283.46885L310.99343,283.46885L309.31368,282.26873L309.31368,282.02871L
				309.07372,281.78868L307.87389,280.82858L306.91404,280.34853L306.43411,279.86849L306.19415,279.38844L304.99433,278.66836L
				304.75436,278.42834L304.5144,277.70827L304.27443,277.22822L304.5144,276.50814L304.99433,275.54805L304.75436,275.30802L304.27443,274.82797
				L302.83465,273.86787L302.35472,273.38783L301.87479,272.90778L301.39486,272.42773L301.1549,271.94768L302.11476,271.46763L
				303.07461,271.22761L303.31458,270.74756L303.55454,269.78746L303.79451,269.30741L304.03447,267.38722L304.03447,266.90717L
				304.5144,265.94707L304.99433,263.78685L305.47425,263.3068L305.71422,261.62663L306.43411,260.66653L307.39397,258.74634L307.87389,258.02626
				L309.31368,257.54621L309.79361,257.30619L311.95328,256.82614L313.873,256.34609L316.03267,255.86604L317.23249,255.38599L317.71242,255.38599
				L318.19235,255.14597L318.67228,254.66592L319.15221,253.94585L319.63213,252.5057L319.63213,252.02565L319.63213,249.38538L
				319.8721,248.42529L320.35203,246.50509L321.31188,245.30497L322.99163,244.10485L324.43142,242.90472L324.91134,241.46458L326.35113,239.30436
				L327.07102,238.58428L328.5108,237.14414L329.47066,236.66409L330.19055,235.94402L330.43052,235.70399L331.15041,235.22394L
				331.63034,234.50387L333.07012,233.54377L334.02998,232.8237L334.50991,232.58367L336.66958,230.9035L337.62944,230.18343L337.62944,229.9434
				L339.06922,227.54316L340.26904,226.82309L340.98894,226.34304L341.94879,225.86299L343.14861,225.38294L344.34843,225.14292
				L345.30829,224.90289L346.26814,224.66287L347.46797,223.94279L348.18786,223.22272L348.66779,223.22272L349.14771,222.50265
				L350.34753,221.30252L351.06743,221.30252L352.50721,220.34243L352.98714,220.34243L354.18696,220.82248L355.14682,221.0625L
				356.34664,220.82248L357.30649,220.58245L358.98624,220.34243L359.9461,220.1024L360.90595,220.82248L361.86581,221.54255L362.34574,222.9827
				L363.06563,223.46274L364.02549,223.70277L364.98534,223.22272L365.46527,222.50265L367.38498,221.30252L368.5848,221.0625L370.26455,219.62235
				L371.22441,219.1423L372.66419,217.94218L373.14412,217.46213L374.10398,215.78196L375.06383,215.06189L376.98355,214.34182L
				378.18337,214.10179L379.62315,213.38172L380.58301,212.66165L381.3029,212.1816L381.78283,211.2215L382.26275,210.98147L383.22261,210.50143
				L383.70254,210.02138L383.70254,209.78135L383.9425,209.06128L383.9425,207.62113L383.70254,207.14108L383.70254,206.18099L383.70254,205.22089
				L383.46257,204.50081L383.46257,203.30069L383.22261,202.82064L382.74268,200.18037L382.74268,198.5002L382.50272,196.58001L
				383.70254,196.58001L384.90236,197.06006L385.38229,197.30008L387.06204,198.26018L388.02189,198.74023L388.74178,198.74023z
				"/>
			<path clip-path="url(#SVG_CP_1)" fill="#73B273" fill-rule="evenodd" stroke="#000000" stroke-width="0.95986" stroke-miterlimit="10" stroke-linecap="round" stroke-linejoin="round" d="
				M397.62045,184.57879L398.34035,185.29886L398.34035,185.53888L398.58031,186.01893L398.58031,186.97903L397.86042,188.17915
				L397.62045,189.6193L398.34035,190.5794L399.54017,191.29947L401.45988,193.21967L402.41974,194.41979L403.13963,195.13986L403.61956,195.37989
				L404.33945,195.37989L404.81938,195.37989L406.49913,194.65981L407.21902,194.65981L407.93891,195.13986L408.6588,195.61991L
				409.85862,195.85994L411.29841,196.09996L413.45808,196.58001L414.41794,197.30008L415.61776,197.78013L417.53747,198.02016L
				417.53747,198.74023L417.53747,198.98025L417.77744,199.94035L417.77744,200.90045L417.53747,203.06067L417.53747,203.78074L
				417.53747,204.26079L417.77744,204.74084L418.25736,205.22089L418.97726,206.42101L418.97726,207.14108L418.97726,207.86116L
				418.97726,208.34121L419.21722,208.82125L419.21722,209.06128L419.45718,209.54133L420.17708,210.98147L420.41704,212.1816L419.21722,214.58184
				L418.73729,215.30191L418.25736,215.54194L418.25736,215.78196L418.0174,216.50204L418.0174,217.22211L418.25736,217.94218L418.25736,218.18221
				L418.25736,218.66226L417.77744,220.58245L417.77744,221.54255L418.0174,222.50265L417.77744,225.14292L418.0174,226.10301L418.0174,226.58306
				L417.77744,227.54316L418.0174,228.26323L418.0174,228.50326L418.25736,228.74328L419.21722,229.22333L419.21722,229.46336L419.93711,230.18343
				L420.17708,231.14353L421.13693,232.10362L421.61686,233.06372L422.09679,233.7838L422.57672,234.98392L423.77654,236.42406L
				424.0165,237.14414L424.73639,239.30436L424.97636,240.26445L425.21632,240.98453L425.45629,241.22455L425.45629,241.7046L425.69625,242.18465
				L426.17618,243.6248L426.89607,246.26507L426.89607,246.50509L427.376,247.46519L427.376,247.94524L427.13603,248.42529L427.13603,249.14536
				L427.13603,249.38538L427.376,250.10546L427.13603,251.78563L427.13603,252.02565L427.376,252.26568L427.376,252.5057L427.85593,253.22577
				L428.09589,253.70582L428.09589,254.18587L427.13603,253.94585L426.17618,253.70582L424.97636,253.70582L423.77654,253.70582
				L422.81668,253.22577L421.85683,252.5057L420.89697,251.78563L420.41704,251.78563L419.45718,251.30558L418.49733,250.82553L
				418.25736,250.82553L418.0174,249.38538L417.77744,247.70521L417.53747,246.50509L417.05754,245.06494L417.05754,244.34487L417.29751,243.14475
				L417.77744,241.94463L417.29751,241.22455L417.29751,240.50448L417.05754,239.54438L416.33765,238.34426L415.61776,237.38416
				L415.61776,235.94402L415.3778,234.98392L414.89787,233.54377L413.93801,232.8237L413.45808,232.8237L412.49823,233.54377L411.77833,234.02382
				L411.53837,233.7838L411.05844,233.06372L410.33855,233.06372L409.61866,232.8237L409.37869,232.34365L410.09859,232.10362L410.33855,231.62358
				L410.33855,230.9035L409.85862,229.70338L409.37869,228.74328L409.61866,228.02321L410.09859,227.30314L410.33855,226.34304L
				409.85862,224.66287L409.61866,223.46274L409.13873,222.74267L408.41884,221.78257L407.45898,221.0625L406.73909,220.82248L406.0192,221.78257
				L405.2993,222.26262L404.09948,222.74267L403.61956,222.74267L402.6597,222.9827L402.17977,222.9827L401.69984,223.70277L401.21992,224.18282
				L400.73999,225.14292L400.50002,225.86299L400.97995,226.34304L401.45988,226.34304L401.45988,226.10301L401.93981,226.58306
				L402.17977,227.78318L402.6597,228.50326L403.61956,229.70338L404.09948,230.66348L404.09948,232.10362L404.09948,233.06372L
				405.05934,234.26384L406.0192,234.74389L407.21902,235.22394L408.41884,235.46397L408.89877,236.18404L408.89877,237.38416L408.17887,238.58428
				L407.69895,239.78441L406.49913,240.50448L405.53927,240.98453L405.53927,241.7046L405.77923,242.6647L406.73909,243.38477L407.69895,244.10485
				L408.17887,244.82492L408.41884,246.02504L407.69895,246.50509L406.73909,247.70521L406.49913,248.66531L406.97905,249.86543
				L407.45898,250.82553L407.69895,252.26568L407.93891,252.98575L408.6588,254.4259L409.61866,255.62602L410.57851,256.58612L411.53837,257.78624
				L412.49823,258.50631L413.45808,259.46641L412.97815,260.90656L412.73819,261.86665L412.25826,262.58673L410.81848,263.06678
				L409.85862,263.3068L409.13873,263.78685L408.6588,264.50692L408.6588,265.46702L408.17887,266.66714L407.69895,268.10729L407.21902,269.30741
				L407.21902,270.74756L406.97905,272.1877L406.25916,273.62785L405.53927,274.34792L405.05934,275.30802L404.81938,275.068L404.33945,275.068
				L402.89966,275.54805L402.17977,275.78807L401.45988,276.02809L400.26006,276.74817L400.0201,276.74817L399.3002,276.74817L398.34035,276.50814
				L397.14053,276.02809L395.94071,275.30802L394.98085,274.82797L394.02099,274.1079L393.06114,273.1478L391.86132,272.1877L390.6615,270.98758
				L389.70164,270.02748L388.98175,269.54744L388.50182,267.86726L388.02189,267.14719L386.58211,264.74695L385.62225,263.3068L
				384.18247,261.62663L383.9425,260.90656L383.22261,259.94646L380.82297,257.54621L380.10308,257.06616L380.10308,256.82614L379.86311,256.34609
				L379.86311,255.62602L379.38319,253.70582L379.38319,252.74573L377.22351,250.34548L376.98355,249.86543L376.98355,248.90533
				L376.74358,248.42529L376.98355,247.94524L377.22351,246.98514L377.9434,246.02504L378.18337,245.30497L378.18337,245.06494L
				378.18337,244.58489L378.42333,243.86482L378.90326,242.90472L378.66329,242.18465L378.42333,241.46458L378.42333,240.50448L
				378.42333,240.02443L377.70344,238.82431L376.98355,237.14414L376.98355,236.66409L377.70344,235.70399L379.38319,234.98392L
				381.54286,235.22394L382.98265,234.74389L383.46257,234.26384L384.42243,234.26384L386.10218,233.7838L387.54196,233.06372L388.26186,232.10362
				L389.46168,231.14353L389.46168,230.9035L389.70164,230.18343L389.46168,230.18343L388.98175,229.70338L388.98175,229.22333L
				388.74178,228.50326L388.50182,227.78318L388.74178,227.06311L388.74178,226.82309L389.22171,226.10301L389.22171,225.62296L
				389.22171,225.38294L389.22171,224.66287L389.46168,223.94279L388.98175,218.18221L388.26186,216.50204L388.26186,216.26201L
				388.50182,215.06189L388.50182,214.82187L388.50182,214.58184L388.50182,214.10179L388.02189,213.38172L388.02189,212.90167L
				388.74178,212.42162L389.46168,211.70155L389.70164,210.50143L389.9416,209.06128L389.9416,207.14108L389.9416,205.22089L389.9416,203.78074
				L389.70164,202.82064L389.70164,202.34059L389.46168,201.14047L388.98175,199.4603L388.74178,198.74023L389.70164,198.74023L
				390.90146,198.02016L391.62135,197.54011L392.58121,196.58001L393.06114,195.61991L393.06114,194.65981L393.06114,194.17976L
				392.82117,193.69972L391.62135,192.49959L390.42153,190.33937L390.42153,189.13925L390.90146,187.6991L391.14142,187.21906L391.86132,185.53888
				L392.10128,184.57879L392.34125,184.33876L393.06114,183.61869L394.26096,183.37866L394.74089,183.37866L395.70074,183.61869
				L397.62045,184.57879z"/>
			<path clip-path="url(#SVG_CP_1)" fill="#73B273" fill-rule="evenodd" stroke="#000000" stroke-width="0.95986" stroke-miterlimit="10" stroke-linecap="round" stroke-linejoin="round" d="
				M428.09589,254.18587L428.33585,255.38599L426.41614,258.26629L424.25647,261.3866L424.73639,262.3467L425.21632,263.06678L426.65611,264.2669
				L426.89607,264.74695L427.85593,266.42712L428.57582,267.14719L429.05575,268.58734L429.05575,269.30741L428.81578,270.26751
				L428.57582,271.22761L427.85593,272.42773L428.09589,273.38783L425.93621,274.58795L423.77654,275.30802L423.05665,275.78807
				L422.57672,275.78807L422.57672,276.74817L423.29661,277.94829L423.53657,278.66836L423.77654,279.38844L424.97636,279.86849
				L425.21632,279.86849L424.49643,281.06861L424.0165,282.02871L423.29661,282.50875L422.57672,282.74878L421.85683,283.22883L
				421.3769,283.70888L418.73729,282.50875L418.25736,282.02871L416.81758,281.06861L415.3778,280.34853L414.89787,280.10851L414.41794,279.62846
				L413.69805,279.14841L413.21812,278.42834L411.77833,277.46824L411.05844,277.46824L410.81848,277.46824L409.13873,276.98819
				L408.41884,276.50814L407.93891,276.02809L406.97905,276.02809L406.73909,276.02809L405.53927,275.78807L405.2993,275.30802L
				405.05934,275.30802L405.53927,274.34792L406.25916,273.62785L406.97905,272.1877L407.21902,270.74756L407.21902,269.30741L407.69895,268.10729
				L408.17887,266.66714L408.6588,265.46702L408.6588,264.50692L409.13873,263.78685L409.85862,263.3068L410.81848,263.06678L412.25826,262.58673
				L412.73819,261.86665L412.97815,260.90656L413.45808,259.46641L412.49823,258.50631L411.53837,257.78624L410.57851,256.58612
				L409.61866,255.62602L408.6588,254.4259L407.93891,252.98575L407.69895,252.26568L407.45898,250.82553L406.97905,249.86543L406.49913,248.66531
				L406.73909,247.70521L407.69895,246.50509L408.41884,246.02504L408.17887,244.82492L407.69895,244.10485L406.73909,243.38477
				L405.77923,242.6647L405.53927,241.7046L405.53927,240.98453L406.49913,240.50448L407.69895,239.78441L408.17887,238.58428L408.89877,237.38416
				L408.89877,236.18404L408.41884,235.46397L407.21902,235.22394L406.0192,234.74389L405.05934,234.26384L404.09948,233.06372L
				404.09948,232.10362L404.09948,230.66348L403.61956,229.70338L402.6597,228.50326L402.17977,227.78318L401.93981,226.58306L401.45988,226.10301
				L401.45988,226.34304L400.97995,226.34304L400.50002,225.86299L400.73999,225.14292L401.21992,224.18282L401.69984,223.70277
				L402.17977,222.9827L402.6597,222.9827L403.61956,222.74267L404.09948,222.74267L405.2993,222.26262L406.0192,221.78257L406.73909,220.82248
				L407.45898,221.0625L408.41884,221.78257L409.13873,222.74267L409.61866,223.46274L409.85862,224.66287L410.33855,226.34304L
				410.09859,227.30314L409.61866,228.02321L409.37869,228.74328L409.85862,229.70338L410.33855,230.9035L410.33855,231.62358L410.09859,232.10362
				L409.37869,232.34365L409.61866,232.8237L410.33855,233.06372L411.05844,233.06372L411.53837,233.7838L411.77833,234.02382L412.49823,233.54377
				L413.45808,232.8237L413.93801,232.8237L414.89787,233.54377L415.3778,234.98392L415.61776,235.94402L415.61776,237.38416L416.33765,238.34426
				L417.05754,239.54438L417.29751,240.50448L417.29751,241.22455L417.77744,241.94463L417.29751,243.14475L417.05754,244.34487
				L417.05754,245.06494L417.53747,246.50509L417.77744,247.70521L418.0174,249.38538L418.25736,250.82553L418.49733,250.82553L
				419.45718,251.30558L420.41704,251.78563L420.89697,251.78563L421.85683,252.5057L422.81668,253.22577L423.77654,253.70582L424.97636,253.70582
				L426.17618,253.70582L427.13603,253.94585L428.09589,254.18587z"/>
		</g>
		<g id="Labels">
			<g id="NEPAL_WARDS_-_Default">
				<g font-family="'Arial'" font-size="1" kerning="0" font-weight="400" fill="#000000" clip-path="url(#SVG_CP_1)" >
					<text text-anchor="start" transform="matrix(11.9982 0 0 12.00122 463.97052 291.72672)" >
						<tspan direction="ltr" unicode-bidi="embed" x="0 ">1</tspan>
					</text>
				</g>
				<g font-family="'Arial'" font-size="1" kerning="0" font-weight="400" fill="#000000" clip-path="url(#SVG_CP_1)" >
					<text text-anchor="start" transform="matrix(11.9982 0 0 12.00122 310.63348 150.35233)" >
						<tspan direction="ltr" unicode-bidi="embed" x="0 ">8</tspan>
					</text>
				</g>
				<g font-family="'Arial'" font-size="1" kerning="0" font-weight="400" fill="#000000" clip-path="url(#SVG_CP_1)" >
					<text text-anchor="start" transform="matrix(11.9982 0 0 12.00122 362.82567 115.06874)" >
						<tspan direction="ltr" unicode-bidi="embed" x="0 ">1</tspan>
						<tspan direction="ltr" unicode-bidi="embed" x="0.48012 ">1</tspan>
					</text>
				</g>
				<g font-family="'Arial'" font-size="1" kerning="0" font-weight="400" fill="#000000" clip-path="url(#SVG_CP_1)" >
					<text text-anchor="start" transform="matrix(11.9982 0 0 12.00122 281.1179 227.6402)" >
						<tspan direction="ltr" unicode-bidi="embed" x="0 ">7</tspan>
					</text>
				</g>
				<g font-family="'Arial'" font-size="1" kerning="0" font-weight="400" fill="#000000" clip-path="url(#SVG_CP_1)" >
					<text text-anchor="start" transform="matrix(11.9982 0 0 12.00122 321.67183 270.60457)" >
						<tspan direction="ltr" unicode-bidi="embed" x="0 ">5</tspan>
					</text>
				</g>
				<g font-family="'Arial'" font-size="1" kerning="0" font-weight="400" fill="#000000" clip-path="url(#SVG_CP_1)" >
					<text text-anchor="start" transform="matrix(11.9982 0 0 12.00122 396.06069 302.2878)" >
						<tspan direction="ltr" unicode-bidi="embed" x="0 ">4</tspan>
					</text>
				</g>
				<g font-family="'Arial'" font-size="1" kerning="0" font-weight="400" fill="#000000" clip-path="url(#SVG_CP_1)" >
					<text text-anchor="start" transform="matrix(11.9982 0 0 12.00122 390.54151 255.48303)" >
						<tspan direction="ltr" unicode-bidi="embed" x="0 ">3</tspan>
					</text>
				</g>
				<g font-family="'Arial'" font-size="1" kerning="0" font-weight="400" fill="#000000" clip-path="url(#SVG_CP_1)" >
					<text text-anchor="start" transform="matrix(11.9982 0 0 12.00122 319.03222 216.8391)" >
						<tspan direction="ltr" unicode-bidi="embed" x="0 ">6</tspan>
					</text>
				</g>
				<g font-family="'Arial'" font-size="1" kerning="0" font-weight="400" fill="#000000" clip-path="url(#SVG_CP_1)" >
					<text text-anchor="start" transform="matrix(11.9982 0 0 12.00122 370.14457 211.79859)" >
						<tspan direction="ltr" unicode-bidi="embed" x="0 ">9</tspan>
					</text>
				</g>
				<g font-family="'Arial'" font-size="1" kerning="0" font-weight="400" fill="#000000" clip-path="url(#SVG_CP_1)" >
					<text text-anchor="start" transform="matrix(11.9982 0 0 12.00122 415.73774 265.32404)" >
						<tspan direction="ltr" unicode-bidi="embed" x="0 ">2</tspan>
					</text>
				</g>
				<g font-family="'Arial'" font-size="1" kerning="0" font-weight="400" fill="#000000" clip-path="url(#SVG_CP_1)" >
					<text text-anchor="start" transform="matrix(11.9982 0 0 12.00122 360.54601 168.35417)" >
						<tspan direction="ltr" unicode-bidi="embed" x="0 ">1</tspan>
						<tspan direction="ltr" unicode-bidi="embed" x="0.54014 ">0</tspan>
					</text>
				</g>
			</g>
		</g>
	</g>
</svg>
