<?xml version="1.0" encoding="utf-8" standalone="no"?>
<!-- Creator: Esri ArcMap 10.6.1.9270 -->
<!DOCTYPE svg PUBLIC "-//W3C//DTD SVG 1.1//EN"  "http://www.w3.org/Graphics/SVG/1.1/DTD/svg11.dtd">
<svg width="813.74173pt" height="434.23937pt" viewBox="0 0 813.74173 434.23937" enable-background="new 0 0 813.74173 434.23937"
	version="1.1" xmlns="http://www.w3.org/2000/svg" xmlns:xlink="http://www.w3.org/1999/xlink" >
	<g id="Layers">
		<g id="WordFile">
			<clipPath id="SVG_CP_1">
				<path d="M0,434.23937L0,0L813.74173,0L813.74173,434.23937L0,434.23937z"/>
			</clipPath>
			<path clip-path="url(#SVG_CP_1)" fill="#73B273" fill-rule="evenodd" stroke="#000000" stroke-width="0.95986" stroke-miterlimit="10" stroke-linecap="round" stroke-linejoin="round" d="
				M455.93172,227.06311L454.49194,226.82309L451.37241,225.38294L450.65251,225.14292L450.17258,225.62296L449.93262,225.86299
				L449.93262,226.34304L449.93262,232.58367L449.45269,235.22394L449.21273,236.18404L448.01291,237.86421L447.77294,242.90472
				L447.29302,244.82492L446.57312,246.50509L445.85323,248.18526L445.3733,248.42529L443.69355,248.42529L442.7337,248.90533L441.29391,250.34548
				L439.3742,252.74573L437.69445,252.98575L436.97456,253.4658L436.97456,253.70582L436.25467,255.14597L435.77474,257.78624L437.21453,264.2669
				L437.69445,266.90717L438.17438,268.82736L438.17438,269.30741L438.41435,270.50753L441.53388,276.02809L442.7337,276.98819L
				444.65341,278.66836L445.61327,279.14841L446.33316,278.66836L447.29302,277.46824L448.7328,276.98819L450.65251,276.98819L456.17169,279.62846
				L459.77115,280.82858L461.93082,281.30863L464.33046,281.30863L465.53028,281.78868L466.01021,282.26873L466.49014,283.9489L
				466.01021,286.10912L465.05036,287.78929L465.05036,288.74939L466.97007,292.10973L469.36971,294.99002L469.60967,294.99002L
				470.0896,295.47007L471.28942,296.91022L472.72921,299.55049L474.88888,302.91083L475.12885,305.5511L474.88888,308.43139L474.16899,310.35159
				L473.92903,311.07166L472.00931,310.59161L469.60967,310.35159L452.0923,312.27178L447.29302,312.27178L441.29391,312.99186L
				438.89427,312.99186L434.81488,313.95195L434.57492,313.95195L428.09589,313.47191L426.89607,313.47191L425.45629,312.99186L
				423.53657,306.27117L423.29661,303.39088L421.85683,298.83042L421.3769,295.47007L421.13693,294.99002L419.45718,289.94951L418.73729,286.10912
				L416.81758,276.74817L414.6579,269.06739L412.25826,259.70643L412.0183,259.22638L410.81848,258.98636L400.26006,259.94646L394.02099,259.22638
				L392.82117,258.98636L391.14142,258.74634L388.98175,258.98636L387.78193,260.18648L379.38319,264.98697L378.42333,265.70704
				L376.98355,266.66714L376.26365,267.38722L374.5839,277.94829L374.10398,278.42834L373.62405,278.66836L367.86491,276.02809L
				365.46527,273.86787L364.50541,274.1079L364.02549,273.38783L363.78552,271.70766L363.78552,270.74756L363.54556,269.54744L362.5857,268.82736
				L360.18606,267.86726L358.26635,267.62724L356.34664,266.42712L353.2271,264.02687L352.74717,263.3068L352.74717,261.14658L353.2271,258.02626
				L352.74717,255.14597L352.74717,253.4658L353.46707,253.70582L355.38678,253.70582L358.98624,253.4658L364.02549,251.5456L364.98534,250.82553
				L365.46527,250.34548L366.90505,247.70521L367.14502,247.46519L367.86491,244.10485L369.78462,242.90472L370.02459,242.42467
				L371.70434,236.18404L372.42423,233.54377L374.10398,230.18343L375.3038,228.02321L376.26365,224.90289L376.02369,222.74267L
				375.54376,221.78257L374.10398,220.1024L374.10398,218.66226L374.34394,217.94218L374.82387,217.70216L375.54376,217.46213L380.58301,217.46213
				L382.74268,217.94218L383.9425,217.70216L387.54196,217.46213L391.14142,216.98209L394.02099,216.98209L397.86042,215.78196L
				399.78013,215.30191L403.37959,215.30191L404.09948,215.54194L404.81938,215.78196L405.53927,215.78196L406.25916,215.78196L
				409.13873,216.74206L411.77833,217.94218L418.73729,219.38233L418.97726,219.38233L422.09679,219.1423L423.53657,218.42223L424.25647,217.46213
				L424.49643,217.46213L424.49643,216.50204L424.49643,215.54194L424.97636,212.42162L424.97636,212.1816L425.69625,211.46152L
				425.93621,211.2215L426.17618,211.2215L431.45539,211.46152L433.13514,211.70155L434.09499,211.70155L434.33496,211.46152L435.29481,207.38111
				L436.7346,200.66042L436.97456,199.22028L436.97456,198.74023L436.97456,198.5002L437.21453,197.06006L437.45449,196.58001L437.69445,196.33998
				L438.17438,196.33998L442.7337,197.06006L443.45359,196.82003L444.17348,196.58001L446.81309,194.65981L447.05305,194.65981L
				448.01291,194.41979L450.17258,194.41979L450.89248,194.65981L451.37241,195.37989L454.49194,201.14047L456.65161,203.54072L
				458.57133,206.90106L458.81129,207.86116L459.05126,209.54133L459.05126,217.46213L457.85143,221.78257L456.89158,223.22272L
				455.93172,225.62296L455.93172,226.82309L455.93172,227.06311z"/>
			<path clip-path="url(#SVG_CP_1)" fill="#73B273" fill-rule="evenodd" stroke="#000000" stroke-width="0.95986" stroke-miterlimit="10" stroke-linecap="round" stroke-linejoin="round" d="
				M434.81488,313.95195L433.61506,319.23249L432.89517,326.67325L431.93532,331.95379L430.97546,334.59406L430.49553,335.0741L
				428.57582,335.79418L423.53657,336.75428L420.657,338.9145L415.85772,339.87459L414.41794,340.59467L410.57851,343.23494L410.81848,343.95501
				L410.33855,349.47557L411.05844,351.39577L411.53837,351.87581L412.49823,352.35586L412.97815,353.31596L413.45808,354.03603
				L413.45808,354.99613L412.97815,356.19625L412.49823,357.87643L412.73819,359.31657L413.93801,361.47679L414.41794,361.95684
				L415.3778,362.43689L416.81758,363.15696L417.77744,363.15696L419.21722,363.39699L422.81668,364.59711L424.97636,365.07716L
				427.13603,366.03726L430.7355,367.95745L431.69535,368.19748L432.89517,368.4375L434.33496,368.19748L434.57492,368.19748L435.53478,368.67752
				L436.0147,369.15757L436.7346,369.87765L435.53478,371.79784L434.09499,375.39821L431.69535,379.2386L430.49553,382.35892L430.25557,383.55904
				L429.29571,389.55965L429.05575,392.43994L428.81578,393.40004L428.09589,397.72048L428.09589,400.12073L428.09589,400.8408L
				425.93621,400.12073L423.05665,399.64068L420.89697,399.16063L418.25736,398.9206L417.29751,398.9206L416.33765,398.9206L414.6579,398.68058
				L412.73819,397.96051L411.29841,397.96051L410.57851,397.96051L409.37869,397.72048L407.21902,397.96051L403.85952,398.44055
				L401.69984,398.68058L399.3002,399.16063L398.10038,399.16063L396.6606,399.64068L392.34125,400.60077L390.18157,401.08082L389.46168,401.32085
				L387.54196,401.56087L386.10218,402.28094L384.42243,402.76099L383.9425,402.76099L382.26275,403.72109L381.06293,402.76099L
				379.38319,402.52097L376.98355,402.52097L376.26365,402.28094L375.06383,402.76099L372.90416,404.44116L372.90416,404.68119L
				370.98444,405.40126L369.78462,405.88131L367.86491,405.88131L367.38498,405.64129L366.42513,404.20114L365.46527,401.8009L365.9452,400.60077
				L366.42513,399.8807L366.42513,399.16063L366.18516,398.44055L365.22531,397.48046L365.22531,397.00041L365.22531,396.28033L
				365.22531,395.56026L364.02549,394.60016L363.54556,393.88009L363.30559,392.67997L363.30559,392.19992L364.26545,390.27972L
				364.98534,389.0796L365.46527,388.1195L366.42513,386.67936L368.82477,386.43933L370.50452,386.43933L371.70434,385.71926L372.42423,384.99919
				L373.14412,383.31901L373.38408,381.1588L373.86401,379.47862L374.10398,378.03848L374.82387,375.87826L376.02369,374.91816L
				376.50362,374.43811L378.90326,373.47801L379.86311,373.23799L380.34304,373.23799L380.34304,372.99796L380.58301,372.27789L
				380.34304,371.55782L380.10308,370.83774L379.14322,369.87765L378.66329,369.15757L378.66329,367.71743L379.38319,365.55721L
				379.62315,365.31718L379.86311,364.11706L380.82297,362.43689L381.06293,360.51669L380.82297,359.79662L380.82297,358.35647L
				381.3029,357.15635L381.78283,356.6763L382.74268,355.95623L383.46257,354.99613L385.14232,353.79601L385.62225,353.31596L385.86222,350.91572
				L386.10218,350.19564L386.82207,344.91511L386.82207,342.99491L386.58211,342.03481L386.10218,341.55476L385.62225,341.07472
				L383.46257,340.35464L382.98265,339.63457L383.70254,338.43445L388.50182,333.15391L389.46168,331.47374L389.46168,330.51364
				L389.70164,330.03359L389.70164,329.79357L391.14142,328.59344L393.06114,326.67325L393.78103,325.2331L395.94071,323.07288L
				396.6606,322.11279L396.6606,320.91266L396.42063,319.95257L396.18067,319.23249L395.94071,317.55232L395.46078,316.59222L394.02099,315.87215
				L393.06114,314.432L392.58121,312.27178L392.10128,311.31169L391.14142,310.83164L388.50182,309.63151L385.38229,308.43139L384.18247,308.67142
				L381.3029,308.67142L379.86311,307.95134L376.74358,305.79112L374.10398,303.39088L372.66419,302.43078L370.74448,301.95073L
				369.54466,300.99064L366.18516,298.11034L364.50541,295.95012L361.86581,293.06983L360.90595,291.62968L360.66599,290.42956L
				361.62585,287.78929L362.5857,287.06922L362.82567,284.909L362.34574,283.9489L362.34574,283.70888L360.90595,282.74878L360.42602,282.02871
				L361.14592,278.18831L363.54556,276.02809L364.50541,274.34792L364.50541,274.1079L365.46527,273.86787L367.86491,276.02809L
				373.62405,278.66836L374.10398,278.42834L374.5839,277.94829L376.26365,267.38722L376.98355,266.66714L378.42333,265.70704L379.38319,264.98697
				L387.78193,260.18648L388.98175,258.98636L391.14142,258.74634L392.82117,258.98636L394.02099,259.22638L400.26006,259.94646
				L410.81848,258.98636L412.0183,259.22638L412.25826,259.70643L414.6579,269.06739L416.81758,276.74817L418.73729,286.10912L419.45718,289.94951
				L421.13693,294.99002L421.3769,295.47007L421.85683,298.83042L423.29661,303.39088L423.53657,306.27117L425.45629,312.99186L
				426.89607,313.47191L428.09589,313.47191L434.57492,313.95195L434.81488,313.95195z"/>
			<path clip-path="url(#SVG_CP_1)" fill="#73B273" fill-rule="evenodd" stroke="#000000" stroke-width="0.95986" stroke-miterlimit="10" stroke-linecap="round" stroke-linejoin="round" d="
				M473.92903,311.07166L473.68906,311.79173L473.20913,314.91205L469.60967,320.67264L465.29032,327.39332L466.49014,328.1134L
				468.40985,328.59344L479.20824,329.55354L481.84784,329.79357L484.72741,330.27362L486.16719,329.79357L488.08691,329.79357L
				491.92633,330.51364L495.28583,330.75366L495.52579,330.99369L501.52489,332.43384L505.84425,333.39393L510.88349,333.87398L
				519.04227,336.51425L521.68188,336.9943L525.5213,338.19442L525.5213,338.43445L525.28134,339.15452L523.84155,341.79479L523.12166,345.39516
				L522.1618,353.31596L521.92184,353.55599L521.20195,359.79662L520.96198,361.95684L520.72202,366.27728L520.24209,368.19748L
				519.28224,368.91755L518.08241,369.3976L515.44281,370.11767L512.80321,370.59772L512.08331,371.07777L511.84335,371.31779L511.60339,371.31779
				L511.12346,372.51792L511.12346,373.71804L510.88349,376.11828L510.64353,378.03848L510.40356,379.2386L509.68367,380.91877L
				509.92364,387.63945L509.44371,392.19992L508.96378,394.84019L508.24389,397.72048L508.00392,399.8807L508.48385,401.08082L508.96378,402.04092
				L509.68367,403.24104L510.1636,403.96112L503.44461,405.16124L501.76486,405.40126L501.52489,405.40126L498.40536,406.12134L
				493.36612,406.84141L491.68637,407.08143L490.00662,407.32146L488.08691,407.56148L486.88709,407.80151L485.68727,408.04153L
				482.8077,408.52158L481.36791,408.7616L480.40806,409.24165L479.68816,410.6818L478.96827,412.12195L478.24838,413.08204L475.36881,419.5627
				L473.4491,422.92305L472.24928,425.08327L469.60967,423.40309L465.77025,420.28278L463.13064,418.84263L462.89068,418.84263L
				461.93082,418.12256L460.731,417.16246L458.33136,416.20236L454.97187,415.00224L449.93262,413.80212L447.29302,413.08204L443.93352,412.36197
				L442.49373,411.88192L440.57402,411.88192L439.61417,411.6419L436.97456,410.20175L435.29481,409.00163L434.33496,408.04153L
				432.89517,406.84141L431.69535,404.44116L431.21542,403.96112L429.53568,402.28094L428.09589,400.8408L428.09589,400.12073L428.09589,397.72048
				L428.81578,393.40004L429.05575,392.43994L429.29571,389.55965L430.25557,383.55904L430.49553,382.35892L431.69535,379.2386L
				434.09499,375.39821L435.53478,371.79784L436.7346,369.87765L436.0147,369.15757L435.53478,368.67752L434.57492,368.19748L434.33496,368.19748
				L432.89517,368.4375L431.69535,368.19748L430.7355,367.95745L427.13603,366.03726L424.97636,365.07716L422.81668,364.59711L419.21722,363.39699
				L417.77744,363.15696L416.81758,363.15696L415.3778,362.43689L414.41794,361.95684L413.93801,361.47679L412.73819,359.31657L
				412.49823,357.87643L412.97815,356.19625L413.45808,354.99613L413.45808,354.03603L412.97815,353.31596L412.49823,352.35586L
				411.53837,351.87581L411.05844,351.39577L410.33855,349.47557L410.81848,343.95501L410.57851,343.23494L414.41794,340.59467L
				415.85772,339.87459L420.657,338.9145L423.53657,336.75428L428.57582,335.79418L430.49553,335.0741L430.97546,334.59406L431.93532,331.95379
				L432.89517,326.67325L433.61506,319.23249L434.81488,313.95195L438.89427,312.99186L441.29391,312.99186L447.29302,312.27178
				L452.0923,312.27178L469.60967,310.35159L472.00931,310.59161L473.92903,311.07166z"/>
			<path clip-path="url(#SVG_CP_1)" fill="#73B273" fill-rule="evenodd" stroke="#000000" stroke-width="0.95986" stroke-miterlimit="10" stroke-linecap="round" stroke-linejoin="round" d="
				M455.93172,227.06311L456.17169,229.9434L456.89158,231.14353L460.25108,233.7838L461.93082,234.74389L462.89068,234.74389L463.61057,234.74389
				L466.01021,234.74389L468.40985,235.46397L471.52939,237.38416L472.96917,238.10423L475.60878,238.58428L477.04856,238.10423
				L477.76845,237.38416L478.24838,236.42406L478.24838,234.74389L478.48834,234.02382L479.4482,234.02382L481.36791,234.02382L
				486.64712,235.94402L488.56683,236.18404L489.52669,236.66409L490.96648,236.90411L496.24569,237.86421L500.08511,237.86421L
				501.04497,237.38416L501.52489,236.66409L502.24479,235.94402L505.36432,235.46397L507.524,235.70399L508.96378,235.46397L509.20374,234.98392
				L509.44371,234.26384L509.68367,234.26384L514.00303,232.58367L515.68277,231.38355L517.36252,229.22333L518.56234,228.98331
				L519.5222,229.9434L520.72202,231.14353L521.68188,233.06372L522.40177,237.38416L523.12166,240.98453L523.12166,241.94463L523.12166,243.86482
				L522.64173,245.30497L522.40177,246.26507L521.92184,246.50509L518.56234,247.94524L514.96288,249.38538L512.80321,249.86543
				L510.88349,249.86543L508.96378,250.58551L507.76396,251.78563L507.04407,253.22577L507.04407,254.90594L507.28403,256.34609
				L508.96378,258.50631L512.32328,262.10668L512.32328,262.3467L516.1627,269.30741L519.04227,274.58795L521.44191,278.90839L521.68188,279.38844
				L524.08152,283.22883L525.04137,284.66897L525.76126,286.10912L527.20105,291.14963L528.40087,294.75L530.80051,299.79051L531.28044,302.91083
				L531.76037,303.87093L532.24029,304.35098L533.68008,305.31108L534.8799,305.07105L536.07972,304.591L537.99943,304.35098L537.99943,305.31108
				L538.71932,308.91144L538.2394,310.83164L536.31968,312.75183L536.07972,312.99186L535.59979,313.47191L533.68008,315.3921L531.04047,319.71254
				L528.8808,323.55293L528.16091,325.47313L527.44101,328.35342L526.48116,330.75366L525.76126,336.27423L525.5213,338.19442L521.68188,336.9943
				L519.04227,336.51425L510.88349,333.87398L505.84425,333.39393L501.52489,332.43384L495.52579,330.99369L495.28583,330.75366
				L491.92633,330.51364L488.08691,329.79357L486.16719,329.79357L484.72741,330.27362L481.84784,329.79357L479.20824,329.55354
				L468.40985,328.59344L466.49014,328.1134L465.29032,327.39332L469.60967,320.67264L473.20913,314.91205L473.68906,311.79173L
				473.92903,311.07166L474.16899,310.35159L474.88888,308.43139L475.12885,305.5511L474.88888,302.91083L472.72921,299.55049L471.28942,296.91022
				L470.0896,295.47007L469.60967,294.99002L469.36971,294.99002L466.97007,292.10973L465.05036,288.74939L465.05036,287.78929L
				466.01021,286.10912L466.49014,283.9489L466.01021,282.26873L465.53028,281.78868L464.33046,281.30863L461.93082,281.30863L459.77115,280.82858
				L456.17169,279.62846L450.65251,276.98819L448.7328,276.98819L447.29302,277.46824L446.33316,278.66836L445.61327,279.14841L
				444.65341,278.66836L442.7337,276.98819L441.53388,276.02809L438.41435,270.50753L438.17438,269.30741L438.17438,268.82736L437.69445,266.90717
				L437.21453,264.2669L435.77474,257.78624L436.25467,255.14597L436.97456,253.70582L436.97456,253.4658L437.69445,252.98575L439.3742,252.74573
				L441.29391,250.34548L442.7337,248.90533L443.69355,248.42529L445.3733,248.42529L445.85323,248.18526L446.57312,246.50509L447.29302,244.82492
				L447.77294,242.90472L448.01291,237.86421L449.21273,236.18404L449.45269,235.22394L449.93262,232.58367L449.93262,226.34304
				L449.93262,225.86299L450.17258,225.62296L450.65251,225.14292L451.37241,225.38294L454.49194,226.82309L455.93172,227.06311
				z"/>
			<path clip-path="url(#SVG_CP_1)" fill="#73B273" fill-rule="evenodd" stroke="#000000" stroke-width="0.95986" stroke-miterlimit="10" stroke-linecap="round" stroke-linejoin="round" d="
				M511.84335,20.16205L511.60339,20.40208L507.76396,24.96254L504.88439,27.36279L501.52489,30.72313L501.28493,31.20318L501.04497,31.4432
				L499.84515,32.16327L497.68547,33.3634L493.36612,37.44381L490.00662,40.56413L487.84694,42.00428L484.24748,43.92447L482.08781,44.1645
				L478.72831,43.2044L478.24838,43.2044L478.48834,43.44442L478.00842,45.84467L477.04856,49.20501L475.84874,51.1252L474.16899,52.32533
				L473.68906,53.52545L473.92903,55.92569L472.96917,58.56596L473.20913,59.52606L474.64892,61.68628L478.24838,67.20684L478.24838,73.92752
				L478.48834,75.36767L478.48834,75.84772L478.48834,76.32777L478.48834,77.04784L478.48834,79.68811L477.76845,84.24858L477.52849,85.4487
				L477.04856,86.88884L476.56863,91.68933L476.32867,92.40941L476.56863,98.41002L476.32867,99.85016L475.60878,104.89068L475.36881,105.37073
				L475.36881,106.0908L475.12885,108.49104L475.84874,114.9717L478.24838,122.17244L480.40806,128.89312L482.32777,132.97353L482.8077,134.65371
				L485.68727,142.33449L487.36701,149.2952L488.8068,152.17549L490.00662,156.01588L490.96648,158.65615L492.1663,162.01649L492.40626,164.65676
				L485.68727,162.01649L475.84874,159.61625L471.28942,159.1362L466.01021,157.45603L463.85054,157.216L460.01111,155.77586L458.0914,155.53583
				L454.97187,154.57573L449.93262,152.41551L446.81309,151.69544L446.33316,151.45542L446.0932,151.45542L445.85323,151.45542L
				444.89338,151.21539L440.81399,149.05517L434.33496,146.4149L431.45539,144.49471L431.21542,144.25468L430.0156,139.45419L429.29571,138.25407
				L426.17618,133.21356L425.21632,131.77341L423.77654,131.05334L421.61686,131.77341L420.657,132.49349L420.41704,132.73351L419.45718,133.93363
				L418.97726,135.13375L417.53747,136.5739L413.93801,138.73412L412.97815,138.73412L410.33855,137.29397L409.61866,136.33388L
				408.89877,133.93363L408.41884,128.65309L408.89877,123.61258L408.6588,123.37256L406.73909,123.13253L403.85952,124.09263L400.73999,124.57268
				L396.90056,126.01283L393.06114,126.97292L392.58121,126.97292L390.18157,124.57268L389.9416,123.61258L389.70164,119.53217L
				390.90146,115.9318L391.86132,108.01099L391.62135,105.37073L392.10128,102.97048L391.38139,99.13009L391.14142,93.60953L391.14142,92.64943
				L390.90146,89.28909L389.9416,87.36889L389.46168,85.92875L388.02189,81.60831L387.302,76.32777L386.34214,74.40757L386.34214,72.96743
				L386.58211,66.48677L385.86222,64.08652L385.86222,63.8465L386.10218,62.16633L385.62225,54.96559L385.38229,50.16511L384.90236,48.48494
				L384.90236,46.08469L384.6624,43.92447L384.18247,37.44381L384.90236,34.56352L384.6624,32.64332L384.90236,32.16327L385.14232,32.4033
				L385.86222,32.16327L387.78193,31.92325L390.90146,31.68323L394.74089,32.16327L407.45898,40.80415L411.77833,43.44442L412.73819,44.88457
				L412.97815,44.88457L413.21812,44.88457L413.45808,44.40452L414.6579,42.96437L416.81758,38.88396L417.05754,36.72374L416.33765,34.80354
				L416.09769,29.28298L416.33765,27.60281L417.05754,24.72252L417.29751,23.28237L417.53747,20.6421L418.0174,18.00183L418.25736,12.96132
				L417.77744,10.08103L417.29751,8.64088L417.29751,6.96071L418.25736,5.04051L419.45718,4.32044L421.61686,4.08042L424.0165,4.56046
				L425.45629,4.56046L432.65521,4.08042L436.49463,4.56046L437.93442,4.56046L440.57402,4.56046L441.05395,4.56046L442.97366,4.80049
				L444.65341,5.52056L445.85323,6.00061L447.05305,6.48066L449.45269,9.36095L453.05215,14.64149L454.01201,14.16144L462.17079,11.04112
				L463.37061,10.56108L466.73011,8.40086L470.0896,7.44076L478.00842,6.96071L484.00752,8.40086L485.20734,8.64088L486.40716,8.64088
				L489.76666,8.16083L497.44551,6.00061L501.52489,5.28054L503.92454,4.80049L505.84425,4.80049L507.76396,4.32044L509.20374,4.32044
				L510.40356,6.24064L512.08331,11.52117L512.32328,13.92142L511.84335,17.04174L511.60339,18.96193L511.84335,20.16205z"/>
			<path clip-path="url(#SVG_CP_1)" fill="#73B273" fill-rule="evenodd" stroke="#000000" stroke-width="0.95986" stroke-miterlimit="10" stroke-linecap="round" stroke-linejoin="round" d="
				M385.86222,63.8465L385.86222,64.08652L386.58211,66.48677L386.34214,72.96743L386.34214,74.40757L387.302,76.32777L388.02189,81.60831
				L389.46168,85.92875L389.9416,87.36889L390.90146,89.28909L391.14142,92.64943L391.14142,93.60953L391.38139,99.13009L392.10128,102.97048
				L391.62135,105.37073L391.86132,108.01099L390.90146,115.9318L389.70164,119.53217L389.9416,123.61258L390.18157,124.57268L392.58121,126.97292
				L393.06114,127.21295L393.06114,132.25346L393.3011,137.534L392.10128,140.41429L391.14142,144.01466L391.38139,147.61502L392.10128,149.53522
				L391.62135,150.73534L389.9416,152.65554L388.02189,153.61564L384.6624,153.85566L383.22261,155.53583L382.26275,155.53583L375.06383,155.77586
				L374.10398,156.01588L371.46437,157.216L365.22531,159.1362L363.54556,159.61625L362.5857,159.85627L361.86581,160.33632L357.30649,161.53644
				L355.38678,162.49654L354.42692,162.49654L353.70703,161.77647L352.74717,160.0963L352.02728,159.61625L347.46797,159.37622L
				346.98804,159.1362L346.26814,158.1761L343.8685,156.49593L341.70883,155.53583L340.26904,155.29581L338.34933,155.77586L337.38947,155.29581
				L336.42962,155.05578L333.31009,155.05578L332.35023,155.05578L330.67048,154.33571L329.47066,154.81576L328.03088,154.81576
				L327.31098,154.57573L326.83106,154.09568L325.15131,152.65554L324.19145,152.17549L323.47156,151.93546L323.23159,152.17549
				L323.23159,152.89556L323.23159,154.81576L322.75167,155.29581L322.03177,155.53583L321.07192,155.53583L318.67228,155.53583
				L317.71242,155.77586L316.27264,155.77586L314.35292,155.77586L311.23339,156.2559L309.79361,156.2559L308.83375,156.49593L305.47425,156.01588
				L303.79451,155.53583L302.35472,155.53583L301.1549,155.05578L301.1549,153.85566L300.43501,150.49532L300.19504,149.2952L300.43501,148.3351
				L300.43501,146.65493L299.95508,145.4548L299.71512,142.81454L299.23519,140.17427L298.99522,137.29397L298.27533,133.45358L
				297.55544,129.13314L296.83555,126.01283L296.83555,124.8127L296.83555,123.61258L296.35562,121.69239L296.11566,119.53217L295.87569,119.05212
				L293.95598,118.81209L290.83645,118.33204L288.19684,118.33204L286.51709,117.852L285.31727,117.852L280.27803,116.8919L279.55814,116.8919
				L276.19864,116.8919L274.51889,116.8919L273.07911,116.41185L271.39936,115.9318L270.91943,115.45175L269.23968,114.73168L268.03986,114.49165
				L266.12015,114.0116L263.48054,114.0116L260.36101,113.29153L258.4413,113.29153L256.76155,112.57146L255.56173,111.85138L255.0818,110.89129
				L254.60187,110.17121L252.92212,108.49104L252.68216,108.25102L251.00241,106.81087L249.56263,106.33082L248.12284,105.37073
				L247.16299,105.1307L243.56353,105.1307L242.36371,104.89068L241.64381,104.1706L240.92392,102.25041L240.68396,101.53033L240.92392,100.57024
				L241.40385,99.61014L243.0836,98.16999L244.28342,96.96987L247.64291,94.3296L249.56263,93.12948L251.24238,92.16938L253.16209,90.72923
				L253.40205,90.24919L253.64202,88.80904L253.64202,87.84894L253.64202,85.20867L253.40205,83.04845L253.88198,82.08836L254.36191,81.60831
				L254.60187,80.88823L254.60187,80.64821L253.64202,79.68811L253.40205,78.96804L253.64202,77.52789L253.64202,76.80782L255.0818,75.84772
				L255.56173,74.88762L255.32176,73.92752L254.84184,72.7274L255.32176,71.76731L256.52159,70.80721L257.24148,69.84711L257.72141,68.88701
				L257.72141,66.72679L258.20133,65.52667L258.92123,65.04662L259.88108,65.28665L260.60097,65.04662L261.32087,64.56657L261.32087,64.32655
				L261.0809,62.8864L261.80079,62.16633L262.04076,61.20623L262.52069,60.72618L263.24058,60.48616L264.20044,60.72618L265.40026,61.20623
				L266.60008,61.9263L267.7999,62.16633L269.23968,62.16633L270.91943,61.68628L272.59918,60.96621L273.799,60.48616L274.99882,60.48616
				L276.67857,61.20623L277.63842,60.96621L280.27803,60.96621L282.4377,60.96621L285.55724,61.20623L286.75706,60.72618L289.1567,60.72618
				L291.07641,61.20623L292.75616,61.44625L297.07551,61.44625L299.23519,61.20623L303.07461,61.44625L305.95418,61.20623L309.79361,60.24613
				L313.63303,58.80599L315.55274,57.60586L316.5126,57.36584L318.19235,56.88579L319.15221,56.40574L320.35203,55.44564L321.55185,54.24552
				L322.03177,53.28542L322.03177,52.32533L322.5117,51.1252L322.99163,50.64516L323.47156,50.16511L323.95149,50.16511L324.67138,50.40513
				L325.39127,51.1252L326.11116,51.60525L327.55095,53.0454L327.79091,53.0454L329.2307,53.28542L330.19055,53.0454L331.15041,52.56535
				L331.63034,52.0853L332.35023,50.40513L332.35023,49.68506L332.59019,46.56474L332.59019,46.08469L332.83016,44.1645L332.83016,43.2044
				L333.31009,40.3241L333.79001,39.36401L334.02998,37.92386L334.26994,36.48371L334.74987,36.00366L335.46976,35.28359L335.70973,35.28359
				L337.38947,35.28359L341.46886,35.04357L342.42872,35.52362L342.66868,35.76364L343.38858,37.20379L343.38858,39.84406L343.62854,41.2842
				L344.34843,43.44442L346.50811,45.84467L347.46797,46.08469L349.86761,46.32472L350.82746,47.52484L351.06743,48.96498L350.34753,49.68506
				L348.90775,50.40513L347.70793,51.36523L346.98804,53.0454L346.74807,54.24552L347.70793,55.44564L349.86761,56.40574L352.26725,58.80599
				L353.46707,59.04601L353.70703,59.28603L354.18696,61.44625L354.66689,61.9263L355.38678,62.16633L359.2262,62.40635L359.46617,62.40635
				L361.62585,62.64638L363.06563,63.36645L363.30559,63.36645L365.46527,63.60647L367.86491,63.60647L370.98444,63.12643L372.90416,63.36645
				L373.62405,63.8465L375.3038,65.52667L376.74358,65.76669L377.9434,65.76669L379.14322,64.56657L380.10308,64.08652L383.46257,64.08652
				L385.86222,63.8465z"/>
			<path clip-path="url(#SVG_CP_1)" fill="#73B273" fill-rule="evenodd" stroke="#000000" stroke-width="0.95986" stroke-miterlimit="10" stroke-linecap="round" stroke-linejoin="round" d="
				M343.38858,175.69788L341.70883,178.8182L341.2289,180.01832L340.50901,181.45847L340.02908,184.09874L340.50901,184.57879L341.46886,184.81881
				L341.94879,185.05884L341.46886,189.13925L341.46886,191.29947L340.98894,201.14047L340.74897,204.98086L340.98894,208.82125
				L340.26904,208.82125L337.38947,209.06128L336.42962,209.06128L335.94969,209.06128L335.2298,208.58123L334.50991,207.86116L
				333.31009,207.38111L332.11027,206.90106L326.59109,205.70094L323.71152,204.74084L320.83195,203.54072L319.15221,202.82064L
				316.75257,201.86055L314.83285,201.14047L311.23339,199.94035L310.03357,199.70033L308.83375,199.4603L306.67407,198.98025L306.19415,199.22028
				L305.95418,199.4603L305.71422,200.4204L305.71422,206.18099L305.23429,208.82125L305.47425,210.74145L305.23429,213.62174L304.5144,216.98209
				L304.27443,217.46213L303.55454,216.74206L302.35472,216.02199L300.91494,215.54194L299.23519,215.06189L296.59558,214.58184
				L294.43591,213.62174L292.03627,213.14169L290.11655,212.66165L287.95688,212.42162L286.75706,211.70155L284.83734,211.2215L
				284.11745,211.2215L283.87749,210.98147L282.19774,210.74145L280.75796,210.50143L277.87839,210.2614L276.67857,209.78135L274.51889,209.78135
				L269.47964,208.82125L267.08,208.82125L264.20044,208.34121L262.76065,208.10118L261.56083,208.10118L260.12105,207.38111L257.24148,207.14108
				L256.28162,206.90106L255.56173,206.42101L256.04166,205.46091L256.76155,204.26079L257.96137,201.3805L259.64112,195.61991L
				259.88108,195.13986L260.36101,193.93974L260.84094,192.73962L262.04076,189.13925L262.28072,189.13925L262.28072,188.89923L
				263.00061,187.45908L264.4404,185.05884L264.92033,183.85871L264.92033,182.89862L265.88018,180.7384L266.60008,179.05823L268.27982,176.41796
				L269.71961,173.05761L269.95957,172.33754L271.63932,171.13742L274.51889,169.21722L275.47875,168.73717L278.59828,167.057L280.27803,166.57695
				L280.99792,165.85688L283.1576,164.89678L284.11745,164.65676L284.83734,164.65676L285.7972,164.41673L286.03716,164.89678L286.51709,165.85688
				L287.47695,167.057L287.95688,169.21722L288.43681,170.41735L288.91673,170.89739L291.7963,172.09752L294.43591,173.53766L297.7954,174.73779
				L301.39486,174.97781L303.07461,175.21783L304.99433,176.17793L308.11386,177.13803L308.83375,177.37805L313.39307,178.57818
				L315.31278,178.8182L316.03267,179.05823L316.99253,179.53827L319.39217,179.7783L321.31188,179.7783L322.99163,179.53827L325.8712,178.57818
				L327.79091,177.37805L330.19055,175.69788L331.8703,174.01771L334.02998,172.33754L336.42962,172.33754L337.38947,172.57757L
				340.26904,173.53766L342.90865,175.69788L343.38858,175.69788z"/>
			<path clip-path="url(#SVG_CP_1)" fill="#73B273" fill-rule="evenodd" stroke="#000000" stroke-width="0.95986" stroke-miterlimit="10" stroke-linecap="round" stroke-linejoin="round" d="
				M492.40626,164.65676L492.40626,165.13681L494.08601,173.29764L496.00572,180.25835L496.96558,185.05884L498.64533,189.13925
				L499.60518,191.77952L499.84515,192.49959L500.08511,193.93974L501.28493,196.33998L501.52489,197.54011L501.76486,198.5002L
				502.96468,200.4204L504.1645,206.18099L506.08421,210.2614L507.04407,214.34182L507.76396,220.82248L508.24389,223.46274L508.48385,224.42284
				L508.96378,230.18343L509.44371,233.7838L509.68367,234.26384L509.44371,234.26384L509.20374,234.98392L508.96378,235.46397L
				507.524,235.70399L505.36432,235.46397L502.24479,235.94402L501.52489,236.66409L501.04497,237.38416L500.08511,237.86421L496.24569,237.86421
				L490.96648,236.90411L489.52669,236.66409L488.56683,236.18404L486.64712,235.94402L481.36791,234.02382L479.4482,234.02382L
				478.48834,234.02382L478.24838,234.74389L478.24838,236.42406L477.76845,237.38416L477.04856,238.10423L475.60878,238.58428L
				472.96917,238.10423L471.52939,237.38416L468.40985,235.46397L466.01021,234.74389L463.61057,234.74389L462.89068,234.74389L
				461.93082,234.74389L460.25108,233.7838L456.89158,231.14353L456.17169,229.9434L455.93172,227.06311L455.93172,226.82309L455.93172,225.62296
				L456.89158,223.22272L457.85143,221.78257L459.05126,217.46213L459.05126,209.54133L458.81129,207.86116L458.57133,206.90106
				L456.65161,203.54072L454.49194,201.14047L451.37241,195.37989L450.89248,194.65981L450.17258,194.41979L448.01291,194.41979
				L447.05305,194.65981L446.81309,194.65981L444.17348,196.58001L443.45359,196.82003L442.7337,197.06006L438.17438,196.33998L
				437.69445,196.33998L437.45449,196.58001L437.21453,197.06006L436.97456,198.5002L436.97456,198.74023L436.97456,199.22028L436.7346,200.66042
				L435.29481,207.38111L434.33496,211.46152L434.09499,211.70155L433.13514,211.70155L431.45539,211.46152L426.17618,211.2215L
				425.93621,211.2215L425.69625,211.46152L424.97636,212.1816L424.97636,212.42162L424.49643,215.54194L424.49643,216.50204L424.49643,217.46213
				L424.25647,217.46213L423.53657,218.42223L422.09679,219.1423L418.97726,219.38233L418.73729,219.38233L411.77833,217.94218L
				409.13873,216.74206L406.25916,215.78196L405.53927,215.78196L404.81938,215.78196L404.09948,215.54194L403.37959,215.30191L
				399.78013,215.30191L397.86042,215.78196L397.62045,214.82187L396.42063,208.58123L396.18067,202.58062L395.94071,200.90045L
				395.70074,195.85994L394.26096,189.37928L394.26096,189.13925L393.54107,182.89862L392.58121,180.97842L392.10128,179.29825L
				391.86132,177.8581L391.14142,176.41796L390.42153,174.73779L388.74178,170.65737L387.78193,168.73717L385.86222,166.09691L381.3029,162.25652
				L381.78283,159.85627L382.26275,155.53583L383.22261,155.53583L384.6624,153.85566L388.02189,153.61564L389.9416,152.65554L391.62135,150.73534
				L392.10128,149.53522L391.38139,147.61502L391.14142,144.01466L392.10128,140.41429L393.3011,137.534L393.06114,132.25346L393.06114,127.21295
				L392.58121,126.97292L393.06114,126.97292L396.90056,126.01283L400.73999,124.57268L403.85952,124.09263L406.73909,123.13253
				L408.6588,123.37256L408.89877,123.61258L408.41884,128.65309L408.89877,133.93363L409.61866,136.33388L410.33855,137.29397L
				412.97815,138.73412L413.93801,138.73412L417.53747,136.5739L418.97726,135.13375L419.45718,133.93363L420.41704,132.73351L420.657,132.49349
				L421.61686,131.77341L423.77654,131.05334L425.21632,131.77341L426.17618,133.21356L429.29571,138.25407L430.0156,139.45419L
				431.21542,144.25468L431.45539,144.49471L434.33496,146.4149L440.81399,149.05517L444.89338,151.21539L445.85323,151.45542L446.0932,151.45542
				L446.33316,151.45542L446.81309,151.69544L449.93262,152.41551L454.97187,154.57573L458.0914,155.53583L460.01111,155.77586L
				463.85054,157.216L466.01021,157.45603L471.28942,159.1362L475.84874,159.61625L485.68727,162.01649L492.40626,164.65676z"/>
			<path clip-path="url(#SVG_CP_1)" fill="#73B273" fill-rule="evenodd" stroke="#000000" stroke-width="0.95986" stroke-miterlimit="10" stroke-linecap="round" stroke-linejoin="round" d="
				M356.82656,218.42223L355.86671,217.70216L351.30739,216.26201L347.94789,214.58184L345.78822,213.86177L343.8685,213.62174L
				342.42872,212.90167L341.70883,209.54133L341.46886,208.82125L340.98894,208.82125L340.74897,204.98086L340.98894,201.14047L
				341.70883,201.14047L343.14861,201.3805L351.06743,201.3805L357.78642,200.66042L357.78642,202.58062L357.54646,203.06067L355.86671,203.54072
				L354.18696,204.50081L353.70703,205.46091L353.46707,208.34121L352.98714,210.2614L352.98714,211.46152L353.70703,212.66165L
				354.42692,213.14169L356.34664,214.10179L357.30649,215.30191L357.30649,216.50204L356.82656,218.42223z"/>
			<path clip-path="url(#SVG_CP_1)" fill="#73B273" fill-rule="evenodd" stroke="#000000" stroke-width="0.95986" stroke-miterlimit="10" stroke-linecap="round" stroke-linejoin="round" d="
				M357.78642,200.66042L351.06743,201.3805L343.14861,201.3805L341.70883,201.14047L340.98894,201.14047L341.46886,191.29947L341.46886,189.13925
				L341.94879,185.05884L341.46886,184.81881L340.50901,184.57879L340.02908,184.09874L340.50901,181.45847L341.2289,180.01832L
				341.70883,178.8182L343.38858,175.69788L346.50811,175.93791L348.18786,176.41796L351.54735,177.37805L352.98714,178.33815L353.46707,178.09813
				L356.82656,176.17793L360.90595,174.25774L361.86581,174.01771L361.62585,177.37805L360.90595,181.93852L359.9461,186.25896L
				359.2262,189.13925L358.74628,191.29947L358.74628,195.13986L358.02638,198.5002L357.78642,200.66042z"/>
			<path clip-path="url(#SVG_CP_1)" fill="#73B273" fill-rule="evenodd" stroke="#000000" stroke-width="0.95986" stroke-miterlimit="10" stroke-linecap="round" stroke-linejoin="round" d="
				M363.54556,159.61625L364.02549,161.29642L364.02549,166.81698L363.30559,170.41735L362.82567,171.61747L361.86581,173.53766
				L361.86581,174.01771L360.90595,174.25774L356.82656,176.17793L353.46707,178.09813L352.98714,178.33815L351.54735,177.37805
				L348.18786,176.41796L346.50811,175.93791L343.38858,175.69788L342.90865,175.69788L340.26904,173.53766L337.38947,172.57757
				L336.42962,172.33754L334.02998,172.33754L331.8703,174.01771L330.19055,175.69788L327.79091,177.37805L325.8712,178.57818L322.99163,179.53827
				L321.31188,179.7783L319.39217,179.7783L316.99253,179.53827L316.03267,179.05823L315.31278,178.8182L313.39307,178.57818L308.83375,177.37805
				L308.11386,177.13803L304.99433,176.17793L303.07461,175.21783L301.39486,174.97781L297.7954,174.73779L294.43591,173.53766L
				291.7963,172.09752L288.91673,170.89739L288.43681,170.41735L287.95688,169.21722L287.47695,167.057L286.51709,165.85688L286.03716,164.89678
				L285.7972,164.41673L286.75706,164.17671L290.83645,163.69666L292.75616,162.97659L293.47605,162.49654L294.67587,161.05639L
				295.39576,160.33632L297.55544,159.1362L298.99522,157.93608L299.95508,156.97598L300.91494,155.77586L301.1549,155.05578L302.35472,155.53583
				L303.79451,155.53583L305.47425,156.01588L308.83375,156.49593L309.79361,156.2559L311.23339,156.2559L314.35292,155.77586L316.27264,155.77586
				L317.71242,155.77586L318.67228,155.53583L321.07192,155.53583L322.03177,155.53583L322.75167,155.29581L323.23159,154.81576
				L323.23159,152.89556L323.23159,152.17549L323.47156,151.93546L324.19145,152.17549L325.15131,152.65554L326.83106,154.09568
				L327.31098,154.57573L328.03088,154.81576L329.47066,154.81576L330.67048,154.33571L332.35023,155.05578L333.31009,155.05578
				L336.42962,155.05578L337.38947,155.29581L338.34933,155.77586L340.26904,155.29581L341.70883,155.53583L343.8685,156.49593L
				346.26814,158.1761L346.98804,159.1362L347.46797,159.37622L352.02728,159.61625L352.74717,160.0963L353.70703,161.77647L354.42692,162.49654
				L355.38678,162.49654L357.30649,161.53644L361.86581,160.33632L362.5857,159.85627L363.54556,159.61625z"/>
			<path clip-path="url(#SVG_CP_1)" fill="#73B273" fill-rule="evenodd" stroke="#000000" stroke-width="0.95986" stroke-miterlimit="10" stroke-linecap="round" stroke-linejoin="round" d="
				M333.31009,207.38111L333.31009,208.82125L332.83016,210.50143L332.83016,212.66165L332.35023,214.34182L332.11027,215.30191
				L331.63034,215.78196L331.39037,216.26201L330.91044,217.46213L331.15041,219.1423L330.91044,220.1024L331.15041,220.58245L331.8703,221.30252
				L333.07012,221.54255L334.02998,222.0226L334.74987,222.50265L334.98983,222.9827L334.26994,224.42284L333.79001,225.14292L333.07012,226.58306
				L332.35023,229.9434L332.59019,231.8636L331.8703,232.10362L330.67048,233.7838L330.19055,234.26384L328.99073,234.50387L328.5108,234.50387
				L326.11116,233.06372L325.8712,233.06372L324.19145,233.30375L323.23159,234.02382L321.79181,234.26384L319.15221,234.26384L
				317.95239,234.26384L316.5126,234.26384L315.55274,234.74389L313.873,235.94402L312.91314,236.18404L311.71332,236.18404L309.79361,235.70399
				L306.91404,235.94402L303.55454,236.66409L302.59469,236.90411L302.35472,235.94402L302.59469,235.46397L303.07461,234.02382
				L303.31458,233.30375L303.07461,232.34365L303.07461,231.8636L302.59469,229.22333L302.59469,228.74328L303.07461,227.30314L
				304.75436,222.26262L304.99433,220.82248L304.75436,218.66226L304.27443,217.46213L304.5144,216.98209L305.23429,213.62174L305.47425,210.74145
				L305.23429,208.82125L305.71422,206.18099L305.71422,200.4204L305.95418,199.4603L306.19415,199.22028L306.67407,198.98025L308.83375,199.4603
				L310.03357,199.70033L311.23339,199.94035L314.83285,201.14047L316.75257,201.86055L319.15221,202.82064L320.83195,203.54072
				L323.71152,204.74084L326.59109,205.70094L332.11027,206.90106L333.31009,207.38111z"/>
			<path clip-path="url(#SVG_CP_1)" fill="#73B273" fill-rule="evenodd" stroke="#000000" stroke-width="0.95986" stroke-miterlimit="10" stroke-linecap="round" stroke-linejoin="round" d="
				M340.98894,208.82125L341.46886,208.82125L341.70883,209.54133L342.42872,212.90167L343.8685,213.62174L345.78822,213.86177L
				347.94789,214.58184L351.30739,216.26201L355.86671,217.70216L356.82656,218.42223L357.30649,218.66226L358.26635,219.1423L358.50631,219.62235
				L357.78642,222.9827L358.26635,228.02321L358.02638,228.74328L352.74717,236.18404L351.54735,237.38416L350.5875,239.78441L348.90775,242.18465
				L346.74807,239.06433L346.02818,237.86421L344.10847,237.14414L343.14861,236.42406L342.42872,234.74389L340.98894,233.54377
				L340.02908,233.06372L338.34933,233.06372L337.38947,234.02382L336.18965,233.54377L335.2298,233.06372L333.31009,231.8636L332.59019,231.8636
				L332.35023,229.9434L333.07012,226.58306L333.79001,225.14292L334.26994,224.42284L334.98983,222.9827L334.74987,222.50265L334.02998,222.0226
				L333.07012,221.54255L331.8703,221.30252L331.15041,220.58245L330.91044,220.1024L331.15041,219.1423L330.91044,217.46213L331.39037,216.26201
				L331.63034,215.78196L332.11027,215.30191L332.35023,214.34182L332.83016,212.66165L332.83016,210.50143L333.31009,208.82125
				L333.31009,207.38111L334.50991,207.86116L335.2298,208.58123L335.94969,209.06128L336.42962,209.06128L337.38947,209.06128L
				340.26904,208.82125L340.98894,208.82125z"/>
			<path clip-path="url(#SVG_CP_1)" fill="#73B273" fill-rule="evenodd" stroke="#000000" stroke-width="0.95986" stroke-miterlimit="10" stroke-linecap="round" stroke-linejoin="round" d="
				M397.86042,215.78196L394.02099,216.98209L391.14142,216.98209L387.54196,217.46213L383.9425,217.70216L382.74268,217.94218L
				380.58301,217.46213L375.54376,217.46213L374.82387,217.70216L374.34394,217.94218L374.10398,218.66226L374.10398,220.1024L375.54376,221.78257
				L376.02369,222.74267L376.26365,224.90289L375.3038,228.02321L374.10398,230.18343L372.42423,233.54377L371.70434,236.18404L
				370.02459,242.42467L369.78462,242.90472L367.86491,244.10485L367.14502,247.46519L366.90505,247.70521L365.46527,250.34548L
				364.98534,250.82553L364.02549,251.5456L358.98624,253.4658L355.38678,253.70582L353.46707,253.70582L352.74717,253.4658L352.26725,252.98575
				L351.06743,251.5456L350.34753,249.86543L350.10757,246.26507L349.14771,242.42467L348.90775,242.18465L350.5875,239.78441L351.54735,237.38416
				L352.74717,236.18404L358.02638,228.74328L358.26635,228.02321L357.78642,222.9827L358.50631,219.62235L358.26635,219.1423L357.30649,218.66226
				L356.82656,218.42223L357.30649,216.50204L357.30649,215.30191L356.34664,214.10179L354.42692,213.14169L353.70703,212.66165
				L352.98714,211.46152L352.98714,210.2614L353.46707,208.34121L353.70703,205.46091L354.18696,204.50081L355.86671,203.54072L
				357.54646,203.06067L357.78642,202.58062L357.78642,200.66042L358.02638,198.5002L358.74628,195.13986L358.74628,191.29947L359.2262,189.13925
				L359.9461,186.25896L360.90595,181.93852L361.62585,177.37805L361.86581,174.01771L361.86581,173.53766L362.82567,171.61747L
				363.30559,170.41735L364.02549,166.81698L364.02549,161.29642L363.54556,159.61625L365.22531,159.1362L371.46437,157.216L374.10398,156.01588
				L375.06383,155.77586L382.26275,155.53583L381.78283,159.85627L381.3029,162.25652L385.86222,166.09691L387.78193,168.73717L
				388.74178,170.65737L390.42153,174.73779L391.14142,176.41796L391.86132,177.8581L392.10128,179.29825L392.58121,180.97842L393.54107,182.89862
				L394.26096,189.13925L394.26096,189.37928L395.70074,195.85994L395.94071,200.90045L396.18067,202.58062L396.42063,208.58123
				L397.62045,214.82187L397.86042,215.78196z"/>
			<path clip-path="url(#SVG_CP_1)" fill="#73B273" fill-rule="evenodd" stroke="#000000" stroke-width="0.95986" stroke-miterlimit="10" stroke-linecap="round" stroke-linejoin="round" d="
				M572.31429,294.26995L574.47397,297.63029L575.19386,300.99064L574.9539,301.95073L573.75408,303.39088L570.87451,307.4713L569.43472,308.91144
				L567.51501,312.27178L565.35534,314.67203L564.39548,316.11217L564.87541,317.07227L565.83526,318.03237L567.03508,319.95257
				L566.31519,322.35281L564.63544,324.75305L563.43562,325.2331L563.67559,326.1932L562.95569,329.07349L562.2358,333.63396L562.2358,336.51425
				L562.95569,341.07472L563.43562,342.03481L563.67559,344.43506L561.99584,346.11523L561.27595,348.51547L561.27595,350.19564
				L561.27595,351.15574L561.03598,352.11584L560.79602,353.31596L561.03598,353.55599L561.75587,355.47618L561.99584,356.19625
				L562.47577,357.15635L562.71573,357.87643L562.47577,360.27667L561.99584,361.23677L561.03598,362.91694L560.55605,364.11706
				L560.55605,365.79723L560.55605,368.19748L561.03598,369.3976L561.75587,371.55782L562.47577,373.23799L562.95569,375.15818L
				563.91555,377.3184L565.35534,379.2386L566.79512,382.11889L567.03508,382.83897L568.47487,385.71926L568.71483,386.91938L569.91465,389.55965
				L568.2349,390.27972L562.71573,392.43994L557.67649,394.12011L555.99674,394.36014L550.95749,394.60016L547.35803,394.60016L
				544.47846,394.84019L542.55875,395.32024L540.879,396.04031L539.19925,397.00041L535.83976,398.9206L533.92004,400.12073L531.04047,401.32085
				L529.36073,402.52097L528.40087,403.00102L526.24119,403.24104L521.92184,403.48107L519.5222,403.72109L514.48295,403.72109L
				512.80321,403.96112L511.84335,403.96112L510.1636,403.96112L509.68367,403.24104L508.96378,402.04092L508.48385,401.08082L508.00392,399.8807
				L508.24389,397.72048L508.96378,394.84019L509.44371,392.19992L509.92364,387.63945L509.68367,380.91877L510.40356,379.2386L
				510.64353,378.03848L510.88349,376.11828L511.12346,373.71804L511.12346,372.51792L511.60339,371.31779L511.84335,371.31779L
				512.08331,371.07777L512.80321,370.59772L515.44281,370.11767L518.08241,369.3976L519.28224,368.91755L520.24209,368.19748L520.72202,366.27728
				L520.96198,361.95684L521.20195,359.79662L521.92184,353.55599L522.1618,353.31596L523.12166,345.39516L523.84155,341.79479L
				525.28134,339.15452L525.5213,338.43445L525.5213,338.19442L525.76126,336.27423L526.48116,330.75366L527.44101,328.35342L528.16091,325.47313
				L528.8808,323.55293L531.04047,319.71254L533.68008,315.3921L535.59979,313.47191L536.07972,312.99186L536.31968,312.75183L538.2394,310.83164
				L538.71932,308.91144L537.99943,305.31108L537.99943,304.35098L538.47936,304.35098L540.879,302.67081L543.99853,301.95073L546.39817,300.75061
				L549.51771,298.83042L554.07702,296.6702L556.71663,295.95012L562.2358,295.7101L568.9548,294.02993L571.35444,293.7899L572.31429,294.26995
				z"/>
			<path clip-path="url(#SVG_CP_1)" fill="#73B273" fill-rule="evenodd" stroke="#000000" stroke-width="0.95986" stroke-miterlimit="10" stroke-linecap="round" stroke-linejoin="round" d="
				M304.27443,217.46213L304.75436,218.66226L304.99433,220.82248L304.75436,222.26262L303.07461,227.30314L302.59469,228.74328
				L302.59469,229.22333L303.07461,231.8636L303.07461,232.34365L303.31458,233.30375L303.07461,234.02382L302.59469,235.46397L
				302.35472,235.94402L302.59469,236.90411L302.35472,237.86421L301.1549,240.02443L299.95508,243.14475L299.95508,243.86482L300.19504,245.06494
				L299.95508,248.18526L298.5153,251.78563L298.27533,252.98575L298.27533,253.70582L298.27533,254.18587L297.55544,255.38599L
				297.07551,256.34609L295.87569,257.30619L293.23609,261.14658L292.75616,262.10668L292.75616,263.3068L292.75616,264.2669L292.03627,265.70704
				L291.7963,265.94707L291.07641,265.94707L290.83645,265.94707L289.87659,265.46702L288.43681,264.50692L287.47695,264.02687L
				286.27713,263.06678L285.55724,263.06678L284.83734,263.78685L284.35742,264.98697L283.63752,266.18709L283.39756,267.14719L
				281.95778,269.54744L280.51799,272.1877L279.7981,273.1478L279.07821,275.068L278.35831,276.26812L277.15849,278.90839L276.4386,279.86849
				L273.799,284.18893L273.31907,284.909L272.35921,286.82919L271.63932,287.78929L270.67946,287.78929L269.23968,287.78929L266.84004,288.50937
				L265.16029,288.74939L262.52069,289.46946L260.12105,289.94951L257.48144,290.90961L256.04166,291.38966L253.40205,292.34976
				L248.60277,293.54988L245.24327,294.02993L242.36371,293.54988L239.7241,293.30985L236.3646,292.8298L233.00511,292.34976L231.32536,292.58978
				L227.7259,292.8298L222.92662,293.06983L221.24687,292.58978L218.60726,292.58978L216.68755,292.10973L212.60816,291.86971L210.20852,291.38966
				L208.52877,290.66959L207.56892,290.18954L206.60906,289.46946L208.28881,288.02932L209.24866,287.06922L209.24866,285.14902
				L208.76874,284.66897L207.80888,283.70888L207.56892,282.9888L207.56892,282.50875L208.76874,281.78868L211.16838,279.38844L
				212.84813,277.94829L212.84813,276.74817L212.3682,275.54805L212.12823,274.58795L212.3682,273.86787L212.60816,273.38783L214.28791,272.66775
				L215.48773,271.46763L215.96766,270.98758L220.28701,269.30741L221.24687,268.58734L221.7268,268.34731L223.40654,266.90717L
				225.80618,265.46702L227.24597,264.74695L228.44579,264.02687L229.88557,263.78685L230.84543,263.06678L230.84543,262.58673L
				231.08539,261.86665L231.08539,261.14658L230.60547,259.70643L229.64561,257.78624L229.16568,256.10607L229.16568,254.90594L
				229.64561,253.70582L230.60547,253.4658L231.56532,253.22577L233.24507,251.5456L234.20493,249.62541L234.20493,249.38538L233.96496,248.66531
				L234.68486,247.94524L234.92482,247.22516L235.16478,246.02504L235.16478,244.82492L234.68486,243.86482L233.96496,242.90472
				L233.48503,241.94463L233.48503,241.46458L234.68486,240.7445L235.40475,239.78441L237.0845,238.82431L237.0845,238.58428L238.28432,235.94402
				L238.28432,234.26384L238.76424,232.34365L239.24417,231.38355L239.7241,230.18343L240.20403,228.98331L241.88378,226.58306L
				242.84363,224.90289L243.56353,223.22272L244.28342,222.50265L245.00331,221.0625L246.20313,219.1423L250.28252,215.78196L251.7223,213.62174
				L252.4422,212.90167L253.40205,211.46152L253.64202,210.2614L254.84184,208.34121L255.0818,207.14108L255.56173,206.42101L256.28162,206.90106
				L257.24148,207.14108L260.12105,207.38111L261.56083,208.10118L262.76065,208.10118L264.20044,208.34121L267.08,208.82125L269.47964,208.82125
				L274.51889,209.78135L276.67857,209.78135L277.87839,210.2614L280.75796,210.50143L282.19774,210.74145L283.87749,210.98147L
				284.11745,211.2215L284.83734,211.2215L286.75706,211.70155L287.95688,212.42162L290.11655,212.66165L292.03627,213.14169L294.43591,213.62174
				L296.59558,214.58184L299.23519,215.06189L300.91494,215.54194L302.35472,216.02199L303.55454,216.74206L304.27443,217.46213
				z"/>
		</g>
		<g id="Labels">
			<g id="WordFile_-_Default">
				<g font-family="'Arial'" font-size="1" kerning="0" font-weight="400" fill="#000000" clip-path="url(#SVG_CP_1)" >
					<text text-anchor="start" transform="matrix(7.91881 0 0 7.92081 320.11206 106.81251)" >
						<tspan direction="ltr" unicode-bidi="embed" x="0 ">9</tspan>
					</text>
				</g>
				<g font-family="'Arial'" font-size="1" kerning="0" font-weight="400" fill="#000000" clip-path="url(#SVG_CP_1)" >
					<text text-anchor="start" transform="matrix(7.91881 0 0 7.92081 440.33406 176.4196)" >
						<tspan direction="ltr" unicode-bidi="embed" x="0 ">1</tspan>
					</text>
				</g>
				<g font-family="'Arial'" font-size="1" kerning="0" font-weight="400" fill="#000000" clip-path="url(#SVG_CP_1)" >
					<text text-anchor="start" transform="matrix(7.91881 0 0 7.92081 428.6958 78.96968)" >
						<tspan direction="ltr" unicode-bidi="embed" x="0 ">1</tspan>
						<tspan direction="ltr" unicode-bidi="embed" x="0.54559 ">0</tspan>
					</text>
				</g>
				<g font-family="'Arial'" font-size="1" kerning="0" font-weight="400" fill="#000000" clip-path="url(#SVG_CP_1)" >
					<text text-anchor="start" transform="matrix(7.91881 0 0 7.92081 472.60922 367.71907)" >
						<tspan direction="ltr" unicode-bidi="embed" x="0 ">1</tspan>
						<tspan direction="ltr" unicode-bidi="embed" x="0.54559 ">3</tspan>
					</text>
				</g>
				<g font-family="'Arial'" font-size="1" kerning="0" font-weight="400" fill="#000000" clip-path="url(#SVG_CP_1)" >
					<text text-anchor="start" transform="matrix(7.91881 0 0 7.92081 419.93711 258.26793)" >
						<tspan direction="ltr" unicode-bidi="embed" x="0 ">1</tspan>
						<tspan direction="ltr" unicode-bidi="embed" x="0.48497 ">1</tspan>
					</text>
				</g>
				<g font-family="'Arial'" font-size="1" kerning="0" font-weight="400" fill="#000000" clip-path="url(#SVG_CP_1)" >
					<text text-anchor="start" transform="matrix(7.91881 0 0 7.92081 488.68682 283.47049)" >
						<tspan direction="ltr" unicode-bidi="embed" x="0 ">1</tspan>
						<tspan direction="ltr" unicode-bidi="embed" x="0.54559 ">5</tspan>
					</text>
				</g>
				<g font-family="'Arial'" font-size="1" kerning="0" font-weight="400" fill="#000000" clip-path="url(#SVG_CP_1)" >
					<text text-anchor="start" transform="matrix(7.91881 0 0 7.92081 402.29975 335.79582)" >
						<tspan direction="ltr" unicode-bidi="embed" x="0 ">1</tspan>
						<tspan direction="ltr" unicode-bidi="embed" x="0.54559 ">2</tspan>
					</text>
				</g>
				<g font-family="'Arial'" font-size="1" kerning="0" font-weight="400" fill="#000000" clip-path="url(#SVG_CP_1)" >
					<text text-anchor="start" transform="matrix(7.91881 0 0 7.92081 322.5117 197.78177)" >
						<tspan direction="ltr" unicode-bidi="embed" x="0 ">7</tspan>
					</text>
				</g>
				<g font-family="'Arial'" font-size="1" kerning="0" font-weight="400" fill="#000000" clip-path="url(#SVG_CP_1)" >
					<text text-anchor="start" transform="matrix(7.91881 0 0 7.92081 374.5839 197.54175)" >
						<tspan direction="ltr" unicode-bidi="embed" x="0 ">2</tspan>
					</text>
				</g>
				<g font-family="'Arial'" font-size="1" kerning="0" font-weight="400" fill="#000000" clip-path="url(#SVG_CP_1)" >
					<text text-anchor="start" transform="matrix(7.91881 0 0 7.92081 262.4007 251.54724)" >
						<tspan direction="ltr" unicode-bidi="embed" x="0 ">1</tspan>
						<tspan direction="ltr" unicode-bidi="embed" x="0.54559 ">6</tspan>
					</text>
				</g>
				<g font-family="'Arial'" font-size="1" kerning="0" font-weight="400" fill="#000000" clip-path="url(#SVG_CP_1)" >
					<text text-anchor="start" transform="matrix(7.91881 0 0 7.92081 537.63949 351.63743)" >
						<tspan direction="ltr" unicode-bidi="embed" x="0 ">1</tspan>
						<tspan direction="ltr" unicode-bidi="embed" x="0.54559 ">4</tspan>
					</text>
				</g>
				<g font-family="'Arial'" font-size="1" kerning="0" font-weight="400" fill="#000000" clip-path="url(#SVG_CP_1)" >
					<text text-anchor="start" transform="matrix(7.91881 0 0 7.92081 321.79181 168.73882)" >
						<tspan direction="ltr" unicode-bidi="embed" x="0 ">8</tspan>
					</text>
				</g>
				<g font-family="'Arial'" font-size="1" kerning="0" font-weight="400" fill="#000000" clip-path="url(#SVG_CP_1)" >
					<text text-anchor="start" transform="matrix(7.91881 0 0 7.92081 315.79271 221.78421)" >
						<tspan direction="ltr" unicode-bidi="embed" x="0 ">6</tspan>
					</text>
				</g>
				<g font-family="'Arial'" font-size="1" kerning="0" font-weight="400" fill="#000000" clip-path="url(#SVG_CP_1)" >
					<text text-anchor="start" transform="matrix(7.91881 0 0 7.92081 344.10847 226.82473)" >
						<tspan direction="ltr" unicode-bidi="embed" x="0 ">5</tspan>
					</text>
				</g>
				<g font-family="'Arial'" font-size="1" kerning="0" font-weight="400" fill="#000000" clip-path="url(#SVG_CP_1)" >
					<text text-anchor="start" transform="matrix(7.91881 0 0 7.92081 348.18786 192.02119)" >
						<tspan direction="ltr" unicode-bidi="embed" x="0 ">3</tspan>
					</text>
				</g>
				<g font-family="'Arial'" font-size="1" kerning="0" font-weight="400" fill="#000000" clip-path="url(#SVG_CP_1)" >
					<text text-anchor="start" transform="matrix(7.91881 0 0 7.92081 345.54825 210.98312)" >
						<tspan direction="ltr" unicode-bidi="embed" x="0 ">4</tspan>
					</text>
				</g>
			</g>
		</g>
	</g>
</svg>
