<?xml version="1.0" encoding="utf-8" standalone="no"?>
<!-- Creator: Esri ArcMap 10.6.1.9270 -->
<!DOCTYPE svg PUBLIC "-//W3C//DTD SVG 1.1//EN"  "http://www.w3.org/Graphics/SVG/1.1/DTD/svg11.dtd">
<svg width="813.74173pt" height="434.23937pt" viewBox="0 0 813.74173 434.23937" enable-background="new 0 0 813.74173 434.23937"
	version="1.1" xmlns="http://www.w3.org/2000/svg" xmlns:xlink="http://www.w3.org/1999/xlink" >
	<g id="Layers">
		<g id="WordFile">
			<clipPath id="SVG_CP_1">
				<path d="M0,434.23937L0,0L813.74173,0L813.74173,434.23937L0,434.23937z"/>
			</clipPath>
			<path clip-path="url(#SVG_CP_1)" fill="#73B273" fill-rule="evenodd" stroke="#000000" stroke-width="0.95986" stroke-miterlimit="10" stroke-linecap="round" stroke-linejoin="round" d="
				M361.62585,71.04723L362.34574,72.00733L364.26545,73.92752L365.46527,75.84772L366.18516,77.28787L368.10487,81.84833L370.02459,85.4487
				L370.26455,86.88884L370.50452,89.52911L370.26455,90.24919L370.02459,90.96926L368.82477,92.40941L367.62495,93.84955L367.14502,95.04967
				L366.18516,96.48982L365.9452,96.96987L364.74538,99.37011L364.02549,101.29031L364.26545,102.25041L364.26545,102.73046L364.98534,104.1706
				L366.90505,108.49104L366.90505,110.41124L366.66509,111.13131L366.18516,112.57146L364.74538,114.9717L363.78552,116.8919L360.66599,121.45236
				L358.50631,125.05273L357.54646,126.97292L356.34664,129.13314L355.62674,131.29336L352.98714,138.4941L352.74717,139.69422L
				352.50721,141.37439L353.2271,142.09446L355.14682,142.57451L355.86671,143.05456L354.90685,144.25468L353.947,146.65493L350.82746,154.81576
				L349.38768,157.93608L347.228,160.33632L345.06832,162.01649L343.62854,162.49654L342.18876,163.45664L340.50901,165.37683L339.30919,166.33693
				L337.62944,168.73717L337.62944,169.21722L336.90955,170.17732L335.70973,173.77769L334.74987,175.69788L332.11027,183.61869
				L330.91044,186.49898L329.71062,189.13925L329.2307,190.33937L328.27084,195.61991L328.03088,199.4603L327.55095,202.58062L328.03088,204.26079
				L328.27084,208.34121L327.79091,214.34182L327.07102,216.02199L325.8712,219.38233L324.67138,222.26262L324.19145,223.22272L
				323.47156,224.42284L323.23159,224.66287L322.5117,225.62296L319.39217,227.78318L317.95239,229.70338L314.35292,233.54377L313.63303,234.02382
				L313.1531,234.02382L311.95328,233.54377L310.5135,233.30375L309.79361,233.30375L306.91404,235.70399L304.99433,237.62419L303.79451,238.58428
				L301.39486,240.98453L298.99522,242.6647L294.91584,245.06494L292.75616,246.02504L292.27623,246.02504L289.39666,246.74511L
				286.99702,247.70521L285.07731,248.18526L280.99792,248.66531L279.7981,249.14536L276.4386,251.06555L275.71871,251.06555L275.47875,251.06555
				L273.799,252.5057L272.59918,253.22577L268.75975,253.94585L266.36011,253.94585L264.92033,254.18587L264.20044,254.66592L263.72051,255.14597
				L262.76065,257.06616L259.88108,262.82675L258.92123,263.54682L257.72141,263.78685L256.52159,264.02687L250.76245,262.82675
				L249.0827,262.58673L245.7232,263.06678L244.04345,262.82675L242.60367,262.82675L241.64381,264.02687L241.64381,264.98697L241.64381,266.42712
				L243.32356,269.54744L243.0836,272.1877L242.84363,272.90778L242.12374,274.1079L239.48414,276.98819L237.56442,278.90839L236.3646,279.86849
				L236.3646,279.14841L235.88468,276.50814L233.48503,273.62785L229.40565,270.02748L226.76604,268.34731L224.60636,267.38722L
				222.92662,266.90717L222.44669,266.66714L219.32716,265.227L217.64741,264.02687L216.68755,262.82675L216.44759,262.10668L215.96766,260.90656
				L216.44759,259.70643L219.32716,255.62602L220.52698,253.70582L221.48683,250.82553L222.68665,248.90533L223.64651,246.98514
				L223.88647,245.78502L224.12644,243.6248L224.84633,241.22455L224.84633,239.78441L223.88647,239.06433L221.7268,237.86421L219.08719,237.14414
				L217.88737,237.14414L216.68755,237.14414L214.28791,237.38416L210.92841,238.34426L204.68935,238.82431L198.69025,240.02443
				L197.49043,240.7445L195.33075,240.98453L194.85082,240.98453L193.89096,240.7445L193.17107,239.78441L192.93111,238.58428L193.89096,236.66409
				L196.05064,232.58367L196.77053,230.66348L197.73039,228.74328L198.69025,227.54316L200.60996,223.22272L201.32985,221.30252
				L202.28971,219.86238L203.24956,218.90228L206.12913,216.98209L207.80888,216.26201L212.12823,214.58184L214.76784,212.66165
				L216.20762,211.46152L217.40744,210.02138L218.12733,208.58123L218.60726,206.90106L218.12733,205.70094L216.92751,204.50081
				L215.96766,203.54072L214.76784,203.06067L211.64831,202.10057L207.08899,201.14047L205.6492,201.14047L201.08989,200.4204L198.93021,199.4603
				L197.97035,198.74023L197.25046,196.33998L197.0105,192.49959L197.0105,188.89923L197.25046,187.21906L197.25046,185.29886L197.97035,181.21845
				L198.21032,177.61808L198.21032,176.17793L198.21032,175.21783L197.0105,170.65737L195.81068,162.01649L195.09078,158.41612L
				195.09078,156.73595L194.61086,154.33571L194.37089,152.41551L194.37089,151.93546L193.89096,146.4149L194.37089,144.73473L195.09078,141.13437
				L195.81068,138.01405L196.2906,134.17366L197.97035,130.33327L200.84992,125.7728L202.04974,123.13253L205.40924,118.09202L207.08899,114.25163
				L207.56892,112.33143L207.56892,111.61136L207.08899,110.65126L206.84902,110.17121L205.88917,109.45114L204.68935,108.73107
				L200.60996,108.01099L199.89007,107.53095L199.6501,107.0509L200.13003,106.33082L200.84992,104.41063L200.84992,104.1706L201.56981,102.97048
				L202.52967,101.77036L203.96945,98.89007L205.16928,97.44992L206.3691,96.00977L207.32895,94.80965L208.76874,92.64943L210.92841,88.80904
				L211.64831,87.60892L213.08809,84.96865L214.04795,81.36828L214.52787,79.92814L215.96766,79.44809L217.88737,78.72801L218.12733,78.72801
				L224.60636,77.04784L231.32536,74.88762L234.92482,73.92752L238.76424,72.24735L243.56353,69.12704L247.64291,66.48677L248.36281,66.00672
				L251.96227,63.8465L254.36191,62.16633L254.60187,61.9263L256.76155,60.48616L260.60097,57.60586L264.68036,54.48555L267.7999,52.32533
				L269.95957,50.64516L271.15939,49.68506L272.35921,49.20501L275.47875,48.00489L275.95867,47.76486L278.35831,46.32472L280.99792,45.12459
				L282.67767,44.88457L284.83734,44.88457L292.03627,43.92447L292.27623,43.92447L294.19594,43.44442L295.39576,42.72435L297.7954,41.04418
				L300.19504,38.88396L305.47425,32.4033L308.83375,27.60281L312.43321,24.24247L315.07282,22.5623L316.03267,22.32227L318.91224,20.88213
				L320.11206,22.80232L322.75167,25.20257L323.95149,27.36279L324.67138,28.08286L326.83106,30.00305L327.31098,30.00305L328.03088,30.72313
				L329.71062,31.68323L331.15041,32.64332L333.79001,35.76364L334.50991,37.20379L334.74987,41.04418L335.70973,44.1645L336.42962,45.12459
				L339.54915,48.48494L341.2289,49.92508L344.34843,53.52545L345.54825,54.48555L346.26814,55.20562L348.66779,57.36584L349.38768,58.56596
				L351.54735,61.20623L352.98714,63.36645L356.10667,66.96682L359.46617,69.84711L360.42602,70.56718L361.62585,71.04723z"/>
			<path clip-path="url(#SVG_CP_1)" fill="#73B273" fill-rule="evenodd" stroke="#000000" stroke-width="0.95986" stroke-miterlimit="10" stroke-linecap="round" stroke-linejoin="round" d="
				M457.61147,74.40757L457.37151,75.36767L456.65161,76.32777L454.97187,77.76792L453.53208,79.92814L451.85233,81.36828L449.69266,84.00855
				L448.25287,85.68872L447.29302,87.84894L446.33316,88.56902L444.65341,89.28909L444.17348,90.00916L440.81399,94.08958L439.61417,96.72985
				L438.89427,99.61014L438.89427,100.57024L438.65431,100.81026L438.17438,102.01038L437.69445,103.21051L437.45449,104.1706L436.97456,105.85077
				L435.77474,107.77097L434.09499,110.41124L431.21542,114.0116L430.0156,114.25163L427.13603,115.45175L425.93621,115.69178L421.3769,116.65187
				L418.73729,117.61197L417.77744,118.33204L417.05754,118.81209L416.81758,119.77219L416.81758,122.89251L416.09769,125.05273
				L415.3778,127.21295L414.6579,129.13314L413.69805,131.29336L412.25826,133.21356L409.13873,138.97415L408.6588,140.89434L407.45898,144.01466
				L406.25916,149.05517L406.0192,151.93546L405.77923,153.61564L404.81938,155.05578L404.33945,156.49593L404.09948,158.1761L403.61956,158.89617
				L402.41974,159.37622L400.73999,159.37622L399.3002,159.1362L398.10038,159.37622L395.70074,160.0963L394.50092,160.33632L393.54107,160.57634
				L393.06114,160.57634L392.82117,160.33632L392.10128,158.65615L390.6615,157.45603L389.9416,157.216L388.26186,156.73595L383.46257,154.81576
				L380.82297,153.37561L379.38319,152.41551L376.74358,151.21539L374.82387,151.21539L373.86401,150.97537L372.66419,150.25529
				L371.70434,149.2952L371.46437,147.85505L370.74448,146.4149L370.74448,145.93485L371.46437,144.01466L371.22441,143.53461L370.98444,143.29459
				L369.78462,143.05456L367.62495,143.29459L363.30559,142.81454L361.62585,143.05456L359.9461,142.57451L358.26635,141.85444L
				357.30649,141.85444L355.86671,143.05456L355.14682,142.57451L353.2271,142.09446L352.50721,141.37439L352.74717,139.69422L352.98714,138.4941
				L355.62674,131.29336L356.34664,129.13314L357.54646,126.97292L358.50631,125.05273L360.66599,121.45236L363.78552,116.8919L
				364.74538,114.9717L366.18516,112.57146L366.66509,111.13131L366.90505,110.41124L366.90505,108.49104L364.98534,104.1706L364.26545,102.73046
				L364.26545,102.25041L364.02549,101.29031L364.74538,99.37011L365.9452,96.96987L366.18516,96.48982L367.14502,95.04967L367.62495,93.84955
				L368.82477,92.40941L370.02459,90.96926L370.26455,90.24919L370.50452,89.52911L370.26455,86.88884L370.02459,85.4487L368.10487,81.84833
				L366.18516,77.28787L365.46527,75.84772L364.26545,73.92752L362.34574,72.00733L361.62585,71.04723L362.10577,71.28726L363.06563,71.52728
				L364.74538,71.28726L367.14502,70.32716L370.98444,69.84711L376.26365,72.00733L376.98355,72.24735L378.42333,72.7274L379.62315,72.96743
				L381.3029,73.20745L385.14232,72.7274L386.10218,72.48738L387.78193,71.76731L389.9416,71.04723L393.3011,71.52728L394.02099,71.52728
				L395.70074,72.48738L397.86042,72.7274L398.82028,73.20745L403.13963,74.16755L408.89877,74.6476L411.53837,75.12765L413.21812,75.36767
				L414.41794,76.08774L416.57762,76.32777L419.21722,77.28787L426.41614,78.00794L426.65611,78.00794L432.17528,78.48799L437.69445,78.24796
				L441.05395,79.44809L443.45359,79.92814L444.41345,79.92814L445.61327,78.96804L448.49284,76.08774L449.45269,75.6077L453.29212,74.6476
				L455.45179,74.88762L457.13154,74.6476L457.61147,74.40757z"/>
			<path clip-path="url(#SVG_CP_1)" fill="#73B273" fill-rule="evenodd" stroke="#000000" stroke-width="0.95986" stroke-miterlimit="10" stroke-linecap="round" stroke-linejoin="round" d="
				M539.19925,83.28848L539.67918,85.92875L539.91914,87.12887L539.91914,90.00916L539.43922,93.12948L538.2394,97.44992L537.99943,99.37011
				L538.2394,102.73046L538.2394,104.1706L538.47936,108.73107L539.19925,112.57146L539.19925,112.81148L538.95929,112.81148L537.27954,112.81148
				L535.11986,112.33143L532.24029,111.85138L530.32058,111.13131L529.36073,111.13131L527.20105,111.37134L526.48116,111.85138
				L526.00123,112.33143L525.76126,113.05151L525.76126,114.9717L525.76126,116.8919L525.04137,124.33266L524.08152,127.693L522.64173,134.89373
				L521.92184,137.29397L521.44191,138.25407L520.24209,143.29459L518.80231,147.85505L517.12256,151.93546L515.44281,155.05578
				L514.72292,156.73595L514.48295,157.69605L514.48295,161.29642L514.24299,162.01649L513.76306,162.73656L512.80321,163.45664
				L510.88349,164.41673L509.92364,165.13681L508.48385,167.53705L506.56414,174.25774L504.64443,176.41796L503.92454,178.57818
				L503.44461,179.29825L502.48475,180.01832L501.76486,180.25835L501.52489,179.05823L502.00482,175.93791L501.76486,175.45786
				L500.805,174.01771L500.32507,172.81759L500.56504,169.45725L499.60518,167.29703L499.84515,165.61686L500.08511,164.89678L500.08511,163.93669
				L499.84515,162.73656L499.60518,162.97659L494.8059,162.49654L494.08601,157.93608L494.32597,155.77586L494.8059,152.41551L495.04586,149.53522
				L495.76576,146.89495L497.20554,144.01466L498.1654,141.61441L498.88529,139.69422L497.20554,139.45419L495.52579,138.97415L
				489.28673,136.81393L484.96737,135.6138L482.32777,135.13375L480.16809,134.41368L476.8086,132.73351L475.12885,131.77341L472.96917,131.05334
				L468.40985,128.89312L466.73011,128.17305L464.57043,127.693L461.4509,127.45297L459.53118,126.97292L457.61147,126.25285L454.7319,125.29275
				L450.89248,124.57268L447.53298,123.13253L442.01381,120.73229L441.29391,120.01222L441.29391,119.29214L440.81399,118.09202
				L439.13424,116.65187L437.69445,116.41185L436.0147,116.41185L433.13514,115.21173L431.21542,114.0116L434.09499,110.41124L435.77474,107.77097
				L436.97456,105.85077L437.45449,104.1706L437.69445,103.21051L438.17438,102.01038L438.65431,100.81026L438.89427,100.57024L
				438.89427,99.61014L439.61417,96.72985L440.81399,94.08958L444.17348,90.00916L444.65341,89.28909L446.33316,88.56902L447.29302,87.84894
				L448.25287,85.68872L449.69266,84.00855L451.85233,81.36828L453.53208,79.92814L454.97187,77.76792L456.65161,76.32777L457.37151,75.36767
				L457.61147,74.40757L459.29122,73.44748L461.4509,71.76731L463.37061,69.36706L466.01021,65.28665L468.16989,63.12643L469.36971,61.20623
				L473.20913,61.44625L479.20824,61.44625L481.84784,60.48616L483.52759,60.00611L484.72741,60.24613L485.4473,60.24613L487.12705,60.00611
				L494.08601,58.08591L495.04586,57.36584L496.24569,55.92569L496.00572,54.72557L496.48565,53.52545L496.72561,53.0454L497.92543,52.56535
				L499.60518,51.60525L499.60518,50.40513L501.04497,49.20501L502.00482,48.72496L503.68457,49.20501L503.92454,49.20501L504.40446,48.96498
				L504.64443,48.24491L505.36432,44.1645L505.84425,42.96437L505.84425,39.60403L505.12436,38.40391L502.96468,36.48371L501.76486,36.00366
				L501.52489,35.52362L501.04497,34.08347L501.28493,33.3634L502.24479,32.64332L505.84425,31.92325L514.72292,31.68323L516.40267,31.4432
				L517.12256,30.96315L517.60249,30.24308L518.08241,29.28298L518.08241,27.84283L517.12256,25.44259L515.44281,23.04235L514.72292,21.36217
				L514.72292,20.16205L514.96288,19.44198L515.92274,18.96193L516.64263,18.72191L517.36252,18.48188L519.5222,18.24186L520.48206,18.24186
				L520.72202,18.24186L522.40177,19.20195L523.60159,19.682L528.16091,20.6421L529.36073,20.6421L529.60069,20.6421L530.32058,21.84222
				L531.76037,23.76242L532.24029,24.72252L532.96019,28.32288L532.96019,30.96315L533.44011,36.72374L533.68008,37.68384L533.92004,40.56413
				L534.16001,45.12459L533.68008,47.04479L533.68008,49.68506L535.11986,56.16572L536.07972,58.80599L537.03958,66.00672L537.99943,69.84711
				L538.2394,71.76731L537.75947,76.32777L538.71932,81.36828L538.95929,82.32838L539.19925,83.28848z"/>
			<path clip-path="url(#SVG_CP_1)" fill="#73B273" fill-rule="evenodd" stroke="#000000" stroke-width="0.95986" stroke-miterlimit="10" stroke-linecap="round" stroke-linejoin="round" d="
				M577.11357,228.02321L576.87361,229.9434L576.15372,232.34365L576.15372,234.26384L575.43383,237.14414L575.43383,238.58428L
				574.9539,241.7046L574.71393,241.94463L573.99404,246.74511L573.51411,247.22516L573.03419,248.66531L572.55426,249.14536L571.83437,250.34548
				L570.87451,252.74573L570.63454,254.90594L569.19476,258.02626L568.47487,259.46641L565.35534,264.74695L564.39548,266.66714
				L563.67559,270.26751L563.43562,271.22761L562.95569,272.1877L562.47577,274.82797L561.75587,280.34853L561.75587,280.58856L
				561.75587,283.46885L562.2358,285.62907L562.2358,287.06922L561.99584,287.78929L562.2358,290.18954L562.71573,292.10973L563.43562,293.06983
				L564.39548,296.19015L564.63544,300.03054L564.87541,302.43078L564.87541,306.99125L564.63544,308.43139L564.39548,311.07166
				L564.39548,311.31169L564.39548,312.99186L563.91555,316.11217L563.91555,321.63274L564.39548,324.75305L564.39548,327.39332
				L564.15552,328.59344L563.91555,329.07349L563.19566,329.31352L560.79602,329.31352L559.35623,329.55354L556.95659,328.83347
				L556.71663,328.35342L555.75677,327.63335L555.03688,326.67325L555.03688,325.71315L554.31699,324.99308L553.35713,322.11279
				L551.19746,319.47252L550.2376,318.75244L549.75767,318.75244L549.03778,319.23249L548.07792,320.19259L546.15821,321.39271L
				544.2385,321.63274L542.31879,322.83286L541.35893,323.07288L539.43922,323.31291L537.03958,322.83286L534.16001,323.07288L533.20015,323.79296
				L532.48026,325.2331L532.24029,326.67325L532.00033,327.39332L531.28044,327.87337L530.08062,328.35342L528.16091,328.35342L
				526.96109,328.35342L526.72112,328.59344L525.76126,329.31352L525.04137,330.51364L524.56144,331.23371L523.60159,333.39393L
				522.8817,335.31413L522.40177,339.63457L521.92184,340.83469L521.44191,341.31474L520.24209,341.79479L520.00213,341.79479L517.36252,340.11462
				L515.44281,339.87459L512.32328,341.55476L510.40356,342.51486L508.72382,342.99491L508.24389,343.47496L507.76396,343.71498
				L507.76396,343.95501L507.76396,344.91511L508.24389,346.59528L509.44371,348.03542L508.96378,348.7555L508.24389,349.23555L
				506.8041,349.95562L505.60428,351.39577L504.1645,352.11584L503.20464,353.55599L501.76486,354.51608L501.28493,354.99613L501.28493,356.6763
				L501.76486,358.5965L501.76486,359.31657L501.76486,359.79662L500.805,360.51669L499.60518,361.71682L498.88529,362.19687L498.1654,364.35708
				L497.92543,366.03726L497.92543,367.23738L497.68547,368.4375L496.24569,369.15757L495.04586,369.15757L494.56594,369.63762L
				494.08601,370.3577L494.56594,372.27789L495.76576,374.19809L495.76576,374.67814L495.52579,375.15818L495.04586,375.63823L493.84604,376.11828
				L493.12615,376.59833L491.68637,378.2785L490.00662,379.2386L489.04676,379.71865L487.12705,379.71865L484.24748,381.39882L482.08781,383.55904
				L480.64802,384.75916L479.92813,385.47923L478.48834,386.19931L474.16899,387.15941L470.32957,388.35953L467.92993,390.51975
				L467.45,391.47985L466.25018,393.16002L465.05036,394.12011L463.61057,394.36014L462.89068,394.84019L460.97097,397.24043L458.81129,399.16063
				L455.45179,401.32085L454.7319,401.32085L450.41255,401.8009L446.0932,401.08082L443.69355,400.12073L442.25377,399.64068L441.29391,399.64068
				L439.13424,400.12073L436.25467,401.08082L434.09499,402.28094L432.89517,402.76099L430.7355,402.76099L429.53568,402.52097L
				428.09589,402.76099L426.17618,403.96112L424.73639,404.20114L424.0165,404.68119L422.09679,406.36136L418.97726,408.28156L418.25736,408.52158
				L417.77744,408.28156L416.81758,407.56148L416.33765,407.32146L415.3778,407.32146L414.41794,407.56148L413.45808,408.28156L
				412.25826,409.7217L411.29841,410.44178L409.61866,413.32207L406.97905,415.96234L405.05934,417.64251L403.13963,419.5627L403.13963,418.12256
				L402.89966,415.00224L402.6597,412.602L403.13963,411.16185L402.89966,409.24165L401.93981,408.52158L397.86042,406.36136L396.18067,404.44116
				L393.54107,402.52097L393.06114,401.56087L392.34125,400.8408L392.10128,399.64068L392.10128,398.9206L392.58121,397.48046L392.58121,397.00041
				L392.34125,396.52036L391.62135,396.04031L389.70164,396.28033L388.98175,395.80029L388.50182,395.32024L388.26186,394.12011
				L389.22171,391.71987L390.18157,388.35953L391.14142,385.71926L391.14142,385.23921L390.6615,384.03909L390.6615,383.79906L389.70164,381.63884
				L388.98175,379.2386L388.74178,378.51853L387.54196,375.63823L384.90236,369.87765L383.70254,368.67752L379.38319,365.07716L
				376.02369,361.23677L374.34394,358.5965L369.78462,350.67569L366.66509,345.8752L364.74538,341.31474L363.54556,340.11462L361.14592,338.19442
				L360.18606,336.9943L358.98624,335.79418L360.66599,334.59406L363.06563,331.71376L364.26545,329.31352L367.62495,326.1932L368.82477,324.99308
				L370.02459,323.79296L371.46437,322.11279L372.66419,320.91266L374.34394,319.95257L374.82387,319.23249L375.06383,318.51242
				L375.54376,316.3522L375.3038,312.27178L375.54376,311.79173L375.78372,311.31169L376.98355,309.63151L376.98355,309.39149L378.42333,307.95134
				L378.66329,307.23127L380.58301,305.5511L382.50272,304.35098L384.18247,303.6309L385.86222,302.67081L387.302,301.71071L388.02189,301.23066
				L389.70164,298.59039L390.42153,296.6702L390.42153,296.43017L390.42153,295.95012L390.90146,295.47007L391.86132,295.23005L
				393.06114,294.99002L396.18067,294.02993L397.86042,293.7899L401.21992,292.34976L402.41974,292.10973L403.13963,291.62968L404.33945,290.66959
				L405.05934,289.70949L406.25916,288.50937L409.37869,285.8691L410.81848,284.66897L411.77833,283.70888L413.93801,282.74878L
				416.33765,282.50875L418.49733,282.02871L419.45718,281.78868L421.13693,280.10851L422.09679,279.38844L423.05665,279.14841L
				423.77654,278.66836L424.49643,277.94829L424.73639,276.50814L424.97636,273.62785L426.89607,269.78746L427.13603,268.34731L
				426.89607,264.74695L427.376,264.02687L427.61596,261.62663L428.57582,259.70643L429.77564,256.82614L429.77564,255.86604L430.25557,254.90594
				L430.97546,254.18587L432.17528,253.4658L435.53478,252.5057L436.97456,252.26568L437.45449,252.26568L445.3733,252.74573L445.85323,252.98575
				L446.0932,254.66592L446.81309,257.30619L448.7328,259.70643L450.65251,261.14658L453.29212,264.02687L456.17169,266.90717L459.77115,270.26751
				L461.93082,271.70766L465.05036,273.86787L467.21003,275.30802L472.24928,278.42834L474.64892,279.38844L477.28852,279.62846
				L482.8077,279.86849L487.36701,278.90839L489.52669,277.94829L491.20644,276.74817L492.88619,275.30802L495.04586,272.90778L
				498.1654,269.06739L499.36522,267.86726L499.60518,267.62724L501.28493,264.50692L501.52489,263.78685L501.52489,262.58673L501.52489,257.30619
				L501.28493,255.62602L500.56504,253.70582L500.805,245.78502L501.28493,242.42467L501.28493,235.94402L500.56504,232.8237L500.08511,229.70338
				L499.60518,227.78318L499.84515,225.62296L499.60518,223.70277L499.60518,222.74267L499.60518,222.26262L499.84515,221.0625L
				500.08511,217.94218L499.84515,215.54194L499.84515,214.10179L499.60518,213.38172L499.36522,212.66165L499.36522,211.46152L
				499.60518,210.98147L501.28493,209.06128L502.96468,206.42101L504.88439,202.58062L506.56414,200.66042L507.76396,199.4603L509.44371,198.02016
				L510.88349,196.33998L512.80321,193.45969L514.00303,191.05945L514.72292,190.09935L516.64263,188.41918L517.60249,187.93913
				L520.72202,186.49898L521.68188,186.25896L524.08152,185.05884L525.28134,184.09874L527.68098,186.97903L529.36073,189.13925
				L531.28044,192.97964L533.20015,196.82003L534.16001,197.78013L535.83976,199.22028L537.75947,200.4204L540.39907,201.62052L
				544.2385,203.30069L549.51771,207.62113L554.31699,210.50143L560.31609,214.82187L566.79512,221.0625L568.71483,223.46274L571.11447,225.38294
				L575.19386,227.54316L577.11357,228.02321z"/>
			<path clip-path="url(#SVG_CP_1)" fill="#73B273" fill-rule="evenodd" stroke="#000000" stroke-width="0.95986" stroke-miterlimit="10" stroke-linecap="round" stroke-linejoin="round" d="
				M562.71573,81.60831L562.95569,81.84833L562.95569,82.08836L561.27595,84.24858L560.55605,87.36889L558.39638,90.72923L556.95659,92.64943
				L552.63724,97.44992L551.67738,98.89007L550.2376,100.81026L549.75767,101.77036L548.55785,103.21051L548.31789,104.1706L547.83796,105.1307
				L547.83796,107.53095L548.55785,111.61136L548.55785,111.85138L548.79782,113.77158L549.99764,117.61197L550.2376,120.01222L
				550.2376,121.21234L548.55785,124.57268L548.55785,125.29275L549.27774,128.41307L549.27774,130.57329L549.51771,132.25346L549.03778,133.21356
				L547.83796,135.6138L545.43832,138.97415L544.71843,140.65432L543.51861,142.57451L542.79871,145.21478L542.79871,145.69483L
				542.79871,146.17488L542.79871,147.13498L543.75857,148.09507L544.95839,148.81515L546.15821,149.2952L547.11807,149.53522L549.03778,151.21539
				L549.75767,151.93546L555.03688,153.85566L556.71663,154.33571L557.91645,154.09568L560.55605,153.13559L563.91555,152.41551
				L565.11537,151.69544L566.31519,150.97537L568.71483,148.3351L569.67469,146.17488L570.63454,143.05456L570.87451,141.85444L
				571.83437,139.21417L572.31429,138.4941L573.51411,136.81393L574.47397,135.85383L575.91375,135.37378L576.39368,135.37378L576.63365,135.6138
				L577.11357,136.5739L576.63365,138.73412L577.11357,140.17427L578.79332,142.57451L579.03329,143.05456L579.27325,144.49471L
				579.27325,147.61502L579.75318,149.53522L578.79332,152.41551L578.79332,153.85566L580.23311,156.97598L581.19296,158.1761L582.63275,161.05639
				L583.11268,162.25652L583.11268,162.97659L582.63275,166.33693L581.91286,167.53705L580.71304,168.25713L578.79332,168.9772L
				578.31339,168.9772L576.63365,169.69727L575.67379,170.41735L575.19386,171.37744L575.67379,172.33754L579.03329,174.25774L579.51322,175.21783
				L579.99314,177.13803L580.953,178.33815L582.39278,179.7783L585.03239,181.69849L585.99224,182.65859L586.47217,183.37866L586.9521,186.01893
				L586.23221,190.5794L586.47217,192.73962L589.11178,197.54011L590.07163,200.18037L589.35174,202.10057L588.87181,203.30069L
				587.19207,205.46091L585.75228,210.2614L584.3125,212.90167L583.35264,214.10179L582.39278,216.50204L582.15282,216.74206L581.19296,218.66226
				L579.75318,220.82248L579.27325,222.74267L578.31339,224.42284L577.35354,227.54316L577.11357,228.02321L575.19386,227.54316
				L571.11447,225.38294L568.71483,223.46274L566.79512,221.0625L560.31609,214.82187L554.31699,210.50143L549.51771,207.62113L
				544.2385,203.30069L540.39907,201.62052L537.75947,200.4204L535.83976,199.22028L534.16001,197.78013L533.20015,196.82003L531.28044,192.97964
				L529.36073,189.13925L527.68098,186.97903L525.28134,184.09874L524.08152,185.05884L521.68188,186.25896L520.72202,186.49898
				L517.60249,187.93913L516.64263,188.41918L514.72292,190.09935L514.00303,191.05945L512.80321,193.45969L510.88349,196.33998
				L509.44371,198.02016L507.76396,199.4603L506.56414,200.66042L504.88439,202.58062L502.96468,206.42101L501.28493,209.06128L
				499.60518,210.98147L499.36522,211.46152L499.36522,212.66165L499.60518,213.38172L499.84515,214.10179L499.84515,215.54194L
				500.08511,217.94218L499.84515,221.0625L499.60518,222.26262L499.60518,222.74267L499.60518,223.70277L499.84515,225.62296L499.60518,227.78318
				L500.08511,229.70338L500.56504,232.8237L501.28493,235.94402L501.28493,242.42467L500.805,245.78502L500.56504,253.70582L501.28493,255.62602
				L501.52489,257.30619L501.52489,262.58673L501.52489,263.78685L501.28493,264.50692L499.60518,267.62724L499.36522,267.86726
				L498.1654,269.06739L495.04586,272.90778L492.88619,275.30802L491.20644,276.74817L489.52669,277.94829L487.36701,278.90839L
				482.8077,279.86849L477.28852,279.62846L474.64892,279.38844L472.24928,278.42834L467.21003,275.30802L465.05036,273.86787L461.93082,271.70766
				L459.77115,270.26751L456.17169,266.90717L453.29212,264.02687L450.65251,261.14658L448.7328,259.70643L446.81309,257.30619L
				446.0932,254.66592L445.85323,252.98575L448.01291,249.86543L448.7328,247.94524L449.21273,245.78502L449.21273,239.06433L448.25287,233.7838
				L448.25287,231.38355L448.49284,230.66348L448.7328,230.18343L449.21273,229.22333L450.65251,227.06311L451.61237,224.66287L
				452.0923,220.34243L452.33226,218.66226L452.57223,216.26201L453.05215,215.78196L454.97187,214.10179L455.93172,213.62174L459.29122,211.2215
				L459.77115,210.50143L460.01111,210.02138L460.01111,207.62113L460.25108,206.42101L460.49104,205.70094L462.17079,204.26079
				L463.13064,204.02077L465.77025,203.78074L469.60967,205.22089L470.0896,204.98086L470.0896,204.02077L470.32957,201.3805L470.80949,198.5002
				L473.20913,193.93974L474.40896,192.49959L474.88888,191.29947L476.0887,190.5794L478.48834,189.37928L479.20824,188.6592L480.16809,186.97903
				L481.12795,186.25896L482.56773,185.05884L484.24748,184.33876L487.12705,184.33876L488.56683,184.33876L489.28673,183.85871
				L492.1663,182.65859L493.36612,181.69849L494.32597,181.21845L496.72561,180.97842L498.1654,180.49837L499.36522,180.7384L499.60518,180.7384
				L501.76486,180.25835L502.48475,180.01832L503.44461,179.29825L503.92454,178.57818L504.64443,176.41796L506.56414,174.25774
				L508.48385,167.53705L509.92364,165.13681L510.88349,164.41673L512.80321,163.45664L513.76306,162.73656L514.24299,162.01649
				L514.48295,161.29642L514.48295,157.69605L514.72292,156.73595L515.44281,155.05578L517.12256,151.93546L518.80231,147.85505
				L520.24209,143.29459L521.44191,138.25407L521.92184,137.29397L522.64173,134.89373L524.08152,127.693L525.04137,124.33266L525.76126,116.8919
				L525.76126,114.9717L525.76126,113.05151L526.00123,112.33143L526.48116,111.85138L527.20105,111.37134L529.36073,111.13131L
				530.32058,111.13131L532.24029,111.85138L535.11986,112.33143L537.27954,112.81148L538.95929,112.81148L539.19925,112.81148L
				539.19925,112.57146L538.47936,108.73107L538.2394,104.1706L538.2394,102.73046L537.99943,99.37011L538.2394,97.44992L539.43922,93.12948
				L539.91914,90.00916L539.91914,87.12887L539.67918,85.92875L539.19925,83.28848L540.39907,84.00855L543.03868,84.72862L544.2385,84.72862
				L546.8781,84.00855L550.2376,83.76853L553.5971,83.28848L558.39638,81.84833L559.11627,81.36828L562.47577,81.36828L562.71573,81.60831
				L562.71573,81.60831z"/>
			<path clip-path="url(#SVG_CP_1)" fill="#73B273" fill-rule="evenodd" stroke="#000000" stroke-width="0.95986" stroke-miterlimit="10" stroke-linecap="round" stroke-linejoin="round" d="
				M393.06114,160.57634L391.38139,160.57634L390.6615,160.33632L389.70164,160.0963L388.98175,160.33632L388.26186,160.81637L386.82207,162.01649
				L386.34214,163.21661L386.10218,163.93669L383.9425,168.25713L382.74268,169.69727L382.02279,170.89739L381.78283,173.05761L
				381.78283,178.09813L380.58301,182.17854L380.58301,184.57879L380.58301,186.49898L379.86311,188.6592L379.62315,190.5794L379.62315,193.69972
				L380.58301,197.78013L379.14322,200.4204L378.42333,202.10057L378.42333,202.82064L377.9434,203.54072L378.66329,204.26079L380.82297,205.70094
				L381.3029,206.42101L382.26275,207.86116L382.74268,209.3013L383.22261,210.50143L384.90236,213.38172L384.18247,213.86177L380.58301,215.06189
				L378.18337,216.50204L376.98355,218.90228L376.74358,221.30252L376.26365,223.94279L375.78372,224.42284L375.06383,224.42284
				L374.82387,224.18282L374.5839,223.94279L373.86401,226.34304L373.62405,228.50326L373.62405,231.14353L373.38408,233.06372L
				373.38408,233.54377L372.42423,236.18404L370.26455,245.78502L368.5848,251.06555L368.10487,253.70582L368.5848,254.66592L369.78462,255.38599
				L372.42423,255.14597L374.10398,255.62602L378.66329,257.06616L380.34304,257.30619L381.78283,257.30619L385.14232,257.06616
				L387.302,256.10607L391.62135,253.4658L392.58121,253.22577L393.78103,253.22577L396.90056,254.4259L402.89966,257.30619L406.73909,258.50631
				L408.41884,258.74634L408.6588,258.98636L410.57851,259.46641L411.29841,260.18648L412.0183,262.10668L413.21812,263.78685L413.21812,266.18709
				L412.73819,269.30741L412.97815,271.22761L413.69805,272.1877L415.13783,273.1478L415.61776,273.86787L415.3778,275.30802L414.17798,278.42834
				L413.93801,279.62846L413.93801,282.74878L411.77833,283.70888L410.81848,284.66897L409.37869,285.8691L406.25916,288.50937L
				405.05934,289.70949L404.33945,290.66959L403.13963,291.62968L402.41974,292.10973L401.21992,292.34976L397.86042,293.7899L396.18067,294.02993
				L393.06114,294.99002L391.86132,295.23005L390.90146,295.47007L390.42153,295.95012L390.42153,296.43017L390.42153,296.6702L
				389.70164,298.59039L388.02189,301.23066L387.302,301.71071L385.86222,302.67081L384.18247,303.6309L382.50272,304.35098L380.58301,305.5511
				L378.66329,307.23127L378.42333,307.95134L376.98355,309.39149L376.98355,309.63151L375.78372,311.31169L375.54376,311.79173
				L375.3038,312.27178L375.54376,316.3522L375.06383,318.51242L374.82387,319.23249L374.34394,319.95257L372.66419,320.91266L371.46437,322.11279
				L370.02459,323.79296L368.82477,324.99308L367.62495,326.1932L364.26545,329.31352L363.06563,331.71376L360.66599,334.59406L
				358.98624,335.79418L357.54646,334.83408L356.10667,334.35403L353.46707,333.63396L351.78732,332.67386L348.42782,331.71376L
				342.90865,331.95379L340.26904,331.71376L336.90955,330.75366L333.79001,330.99369L330.91044,330.75366L325.39127,330.75366L
				322.03177,331.47374L318.19235,332.67386L316.99253,333.15391L316.03267,333.39393L313.63303,334.59406L309.07372,337.23432L
				305.23429,338.9145L303.31458,340.11462L301.1549,340.59467L299.71512,340.59467L298.5153,340.35464L293.47605,340.35464L292.27623,340.35464
				L291.31637,340.11462L289.1567,340.11462L284.83734,338.9145L281.47785,338.67447L279.7981,338.43445L278.83824,338.19442L277.63842,337.9544
				L274.27893,336.9943L273.07911,336.51425L272.35921,336.0342L271.39936,335.31413L270.91943,335.31413L270.19954,335.0741L268.03986,334.11401
				L265.88018,333.63396L264.92033,332.91388L264.4404,332.91388L261.80079,334.11401L256.76155,336.27423L256.04166,336.51425L
				255.56173,336.51425L254.36191,336.0342L253.16209,336.0342L251.7223,336.51425L250.52248,337.47435L249.56263,339.63457L248.12284,340.11462
				L244.76335,340.35464L241.40385,341.55476L239.7241,341.79479L239.24417,341.79479L238.04435,343.23494L237.32446,343.71498L
				234.68486,343.47496L233.725,343.47496L233.00511,343.47496L232.04525,343.71498L231.08539,344.67508L230.84543,345.63518L230.12554,345.8752
				L228.68575,345.8752L227.96586,346.35525L226.76604,347.31535L226.28611,347.31535L225.32626,347.07533L224.84633,347.07533L
				224.12644,348.27545L222.44669,349.95562L221.96676,350.19564L221.0069,350.19564L220.52698,349.71559L219.56712,349.71559L218.84723,349.95562
				L217.64741,351.39577L215.48773,353.07594L211.64831,355.23616L209.72859,356.19625L208.76874,356.43628L206.84902,356.19625
				L206.12913,355.71621L203.48953,352.11584L203.48953,351.87581L203.0096,350.19564L203.0096,349.47557L202.28971,346.11523L202.28971,342.51486
				L201.80978,341.07472L202.04974,338.9145L202.04974,336.0342L202.52967,333.39393L202.28971,331.23371L202.04974,326.91327L201.80978,325.71315
				L201.32985,324.99308L202.28971,323.55293L203.72949,319.47252L205.16928,314.432L206.12913,312.51181L206.84902,311.31169L207.56892,310.35159
				L208.76874,308.43139L209.24866,306.99125L211.16838,304.11095L212.12823,303.15086L212.3682,302.67081L215.96766,299.79051L
				216.20762,299.55049L219.08719,297.39027L220.04705,296.91022L223.40654,294.26995L225.80618,291.86971L228.20583,288.98941L
				229.64561,287.54927L231.80529,286.34915L233.48503,284.909L235.40475,282.50875L235.88468,281.54866L236.12464,280.82858L236.12464,280.58856
				L236.3646,279.86849L237.56442,278.90839L239.48414,276.98819L242.12374,274.1079L242.84363,272.90778L243.0836,272.1877L243.32356,269.54744
				L241.64381,266.42712L241.64381,264.98697L241.64381,264.02687L242.60367,262.82675L244.04345,262.82675L245.7232,263.06678L
				249.0827,262.58673L250.76245,262.82675L256.52159,264.02687L257.72141,263.78685L258.92123,263.54682L259.88108,262.82675L262.76065,257.06616
				L263.72051,255.14597L264.20044,254.66592L264.92033,254.18587L266.36011,253.94585L268.75975,253.94585L272.59918,253.22577
				L273.799,252.5057L275.47875,251.06555L275.71871,251.06555L276.4386,251.06555L279.7981,249.14536L280.99792,248.66531L285.07731,248.18526
				L286.99702,247.70521L289.39666,246.74511L292.27623,246.02504L292.75616,246.02504L294.91584,245.06494L298.99522,242.6647L
				301.39486,240.98453L303.79451,238.58428L304.99433,237.62419L306.91404,235.70399L309.79361,233.30375L310.5135,233.30375L311.95328,233.54377
				L313.1531,234.02382L313.63303,234.02382L314.35292,233.54377L317.95239,229.70338L319.39217,227.78318L322.5117,225.62296L323.23159,224.66287
				L323.47156,224.42284L324.19145,223.22272L324.67138,222.26262L325.8712,219.38233L327.07102,216.02199L327.79091,214.34182L
				328.27084,208.34121L328.03088,204.26079L327.55095,202.58062L328.03088,199.4603L328.27084,195.61991L329.2307,190.33937L329.71062,189.13925
				L330.91044,186.49898L332.11027,183.61869L334.74987,175.69788L335.70973,173.77769L336.90955,170.17732L337.62944,169.21722
				L337.62944,168.73717L339.30919,166.33693L340.50901,165.37683L342.18876,163.45664L343.62854,162.49654L345.06832,162.01649
				L347.228,160.33632L349.38768,157.93608L350.82746,154.81576L353.947,146.65493L354.90685,144.25468L355.86671,143.05456L357.30649,141.85444
				L358.26635,141.85444L359.9461,142.57451L361.62585,143.05456L363.30559,142.81454L367.62495,143.29459L369.78462,143.05456L
				370.98444,143.29459L371.22441,143.53461L371.46437,144.01466L370.74448,145.93485L370.74448,146.4149L371.46437,147.85505L371.70434,149.2952
				L372.66419,150.25529L373.86401,150.97537L374.82387,151.21539L376.74358,151.21539L379.38319,152.41551L380.82297,153.37561
				L383.46257,154.81576L388.26186,156.73595L389.9416,157.216L390.6615,157.45603L392.10128,158.65615L392.82117,160.33632L393.06114,160.57634
				z"/>
			<path clip-path="url(#SVG_CP_1)" fill="#73B273" fill-rule="evenodd" stroke="#000000" stroke-width="0.95986" stroke-miterlimit="10" stroke-linecap="round" stroke-linejoin="round" d="
				M501.76486,180.25835L499.60518,180.7384L499.36522,180.7384L498.1654,180.49837L496.72561,180.97842L494.32597,181.21845L493.36612,181.69849
				L492.1663,182.65859L489.28673,183.85871L488.56683,184.33876L487.12705,184.33876L484.24748,184.33876L482.56773,185.05884L
				481.12795,186.25896L480.16809,186.97903L479.20824,188.6592L478.48834,189.37928L476.0887,190.5794L474.88888,191.29947L474.40896,192.49959
				L473.20913,193.93974L470.80949,198.5002L470.32957,201.3805L470.0896,204.02077L470.0896,204.98086L469.60967,205.22089L465.77025,203.78074
				L463.13064,204.02077L462.17079,204.26079L460.49104,205.70094L460.25108,206.42101L460.01111,207.62113L460.01111,210.02138
				L459.77115,210.50143L459.29122,211.2215L455.93172,213.62174L454.97187,214.10179L453.05215,215.78196L452.57223,216.26201L
				452.33226,218.66226L452.0923,220.34243L451.61237,224.66287L450.65251,227.06311L449.21273,229.22333L448.7328,230.18343L448.49284,230.66348
				L448.25287,231.38355L448.25287,233.7838L449.21273,239.06433L449.21273,245.78502L448.7328,247.94524L448.01291,249.86543L445.85323,252.98575
				L445.3733,252.74573L437.45449,252.26568L436.97456,252.26568L435.53478,252.5057L432.17528,253.4658L430.97546,254.18587L430.25557,254.90594
				L429.77564,255.86604L429.77564,256.82614L428.57582,259.70643L427.61596,261.62663L427.376,264.02687L426.89607,264.74695L427.13603,268.34731
				L426.89607,269.78746L424.97636,273.62785L424.73639,276.50814L424.49643,277.94829L423.77654,278.66836L423.05665,279.14841
				L422.09679,279.38844L421.13693,280.10851L419.45718,281.78868L418.49733,282.02871L416.33765,282.50875L413.93801,282.74878
				L413.93801,279.62846L414.17798,278.42834L415.3778,275.30802L415.61776,273.86787L415.13783,273.1478L413.69805,272.1877L412.97815,271.22761
				L412.73819,269.30741L413.21812,266.18709L413.21812,263.78685L412.0183,262.10668L411.29841,260.18648L410.57851,259.46641L
				408.6588,258.98636L408.41884,258.74634L406.73909,258.50631L402.89966,257.30619L396.90056,254.4259L393.78103,253.22577L392.58121,253.22577
				L391.62135,253.4658L387.302,256.10607L385.14232,257.06616L381.78283,257.30619L380.34304,257.30619L378.66329,257.06616L374.10398,255.62602
				L372.42423,255.14597L369.78462,255.38599L368.5848,254.66592L368.10487,253.70582L368.5848,251.06555L370.26455,245.78502L372.42423,236.18404
				L373.38408,233.54377L373.38408,233.06372L373.62405,231.14353L373.62405,228.50326L373.86401,226.34304L374.5839,223.94279L
				374.82387,224.18282L375.06383,224.42284L375.78372,224.42284L376.26365,223.94279L376.74358,221.30252L376.98355,218.90228L
				378.18337,216.50204L380.58301,215.06189L384.18247,213.86177L384.90236,213.38172L383.22261,210.50143L382.74268,209.3013L382.26275,207.86116
				L381.3029,206.42101L380.82297,205.70094L378.66329,204.26079L377.9434,203.54072L378.42333,202.82064L378.42333,202.10057L379.14322,200.4204
				L380.58301,197.78013L379.62315,193.69972L379.62315,190.5794L379.86311,188.6592L380.58301,186.49898L380.58301,184.57879L380.58301,182.17854
				L381.78283,178.09813L381.78283,173.05761L382.02279,170.89739L382.74268,169.69727L383.9425,168.25713L386.10218,163.93669L
				386.34214,163.21661L386.82207,162.01649L388.26186,160.81637L388.98175,160.33632L389.70164,160.0963L390.6615,160.33632L391.38139,160.57634
				L393.06114,160.57634L393.54107,160.57634L394.50092,160.33632L395.70074,160.0963L398.10038,159.37622L399.3002,159.1362L400.73999,159.37622
				L402.41974,159.37622L403.61956,158.89617L404.09948,158.1761L404.33945,156.49593L404.81938,155.05578L405.77923,153.61564L
				406.0192,151.93546L406.25916,149.05517L407.45898,144.01466L408.6588,140.89434L409.13873,138.97415L412.25826,133.21356L413.69805,131.29336
				L414.6579,129.13314L415.3778,127.21295L416.09769,125.05273L416.81758,122.89251L416.81758,119.77219L417.05754,118.81209L417.77744,118.33204
				L418.73729,117.61197L421.3769,116.65187L425.93621,115.69178L427.13603,115.45175L430.0156,114.25163L431.21542,114.0116L433.13514,115.21173
				L436.0147,116.41185L437.69445,116.41185L439.13424,116.65187L440.81399,118.09202L441.29391,119.29214L441.29391,120.01222L
				442.01381,120.73229L447.53298,123.13253L450.89248,124.57268L454.7319,125.29275L457.61147,126.25285L459.53118,126.97292L461.4509,127.45297
				L464.57043,127.693L466.73011,128.17305L468.40985,128.89312L472.96917,131.05334L475.12885,131.77341L476.8086,132.73351L480.16809,134.41368
				L482.32777,135.13375L484.96737,135.6138L489.28673,136.81393L495.52579,138.97415L497.20554,139.45419L498.88529,139.69422L
				498.1654,141.61441L497.20554,144.01466L495.76576,146.89495L495.04586,149.53522L494.8059,152.41551L494.32597,155.77586L494.08601,157.93608
				L494.8059,162.49654L499.60518,162.97659L499.84515,162.73656L500.08511,163.93669L500.08511,164.89678L499.84515,165.61686L
				499.60518,167.29703L500.56504,169.45725L500.32507,172.81759L500.805,174.01771L501.76486,175.45786L502.00482,175.93791L501.52489,179.05823
				L501.76486,180.25835z"/>
		</g>
		<g id="Labels">
			<g id="WordFile_-_Default">
				<g font-family="'Arial'" font-size="1" kerning="0" font-weight="400" fill="#000000" clip-path="url(#SVG_CP_1)" >
					<text text-anchor="start" transform="matrix(7.91881 0 0 7.92081 270.91943 151.69708)" >
						<tspan direction="ltr" unicode-bidi="embed" x="0 ">1</tspan>
					</text>
				</g>
				<g font-family="'Arial'" font-size="1" kerning="0" font-weight="400" fill="#000000" clip-path="url(#SVG_CP_1)" >
					<text text-anchor="start" transform="matrix(7.91881 0 0 7.92081 441.53388 336.03584)" >
						<tspan direction="ltr" unicode-bidi="embed" x="0 ">6</tspan>
					</text>
				</g>
				<g font-family="'Arial'" font-size="1" kerning="0" font-weight="400" fill="#000000" clip-path="url(#SVG_CP_1)" >
					<text text-anchor="start" transform="matrix(7.91881 0 0 7.92081 321.79181 284.67062)" >
						<tspan direction="ltr" unicode-bidi="embed" x="0 ">5</tspan>
					</text>
				</g>
				<g font-family="'Arial'" font-size="1" kerning="0" font-weight="400" fill="#000000" clip-path="url(#SVG_CP_1)" >
					<text text-anchor="start" transform="matrix(7.91881 0 0 7.92081 428.09589 186.98067)" >
						<tspan direction="ltr" unicode-bidi="embed" x="0 ">4</tspan>
					</text>
				</g>
				<g font-family="'Arial'" font-size="1" kerning="0" font-weight="400" fill="#000000" clip-path="url(#SVG_CP_1)" >
					<text text-anchor="start" transform="matrix(7.91881 0 0 7.92081 553.35713 186.74065)" >
						<tspan direction="ltr" unicode-bidi="embed" x="0 ">7</tspan>
					</text>
				</g>
				<g font-family="'Arial'" font-size="1" kerning="0" font-weight="400" fill="#000000" clip-path="url(#SVG_CP_1)" >
					<text text-anchor="start" transform="matrix(7.91881 0 0 7.92081 488.32687 99.13173)" >
						<tspan direction="ltr" unicode-bidi="embed" x="0 ">3</tspan>
					</text>
				</g>
				<g font-family="'Arial'" font-size="1" kerning="0" font-weight="400" fill="#000000" clip-path="url(#SVG_CP_1)" >
					<text text-anchor="start" transform="matrix(7.91881 0 0 7.92081 389.46168 118.81373)" >
						<tspan direction="ltr" unicode-bidi="embed" x="0 ">2</tspan>
					</text>
				</g>
			</g>
		</g>
	</g>
</svg>
