<?xml version="1.0" encoding="utf-8" standalone="no"?>
<!-- Creator: Esri ArcMap 10.6.1.9270 -->
<!DOCTYPE svg PUBLIC "-//W3C//DTD SVG 1.1//EN"  "http://www.w3.org/Graphics/SVG/1.1/DTD/svg11.dtd">
<svg width="813.74173pt" height="434.23937pt" viewBox="0 0 813.74173 434.23937" enable-background="new 0 0 813.74173 434.23937"
	version="1.1" xmlns="http://www.w3.org/2000/svg" xmlns:xlink="http://www.w3.org/1999/xlink" >
	<g id="Layers">
		<g id="WordFile">
			<clipPath id="SVG_CP_1">
				<path d="M0,434.23937L0,0L813.74173,0L813.74173,434.23937L0,434.23937z"/>
			</clipPath>
			<path clip-path="url(#SVG_CP_1)" fill="#73B273" fill-rule="evenodd" stroke="#000000" stroke-width="0.95986" stroke-miterlimit="10" stroke-linecap="round" stroke-linejoin="round" d="
				M525.04137,73.44748L524.80141,73.6875L523.36162,76.08774L522.40177,79.92814L522.64173,82.5684L521.20195,84.96865L521.68188,88.32899
				L520.96198,89.04906L518.80231,91.20928L518.56234,92.88945L518.32238,95.52972L516.1627,98.16999L513.5231,101.29031L510.88349,102.97048
				L507.76396,104.41063L506.32418,106.0908L504.64443,108.73107L503.20464,113.77158L502.48475,117.852L502.00482,118.57207L502.24479,118.57207
				L501.76486,120.25224L501.52489,122.17244L501.28493,123.61258L501.04497,125.7728L501.76486,130.09324L501.76486,133.21356L
				501.76486,134.65371L501.28493,136.33388L501.04497,137.534L500.805,139.93424L500.08511,142.33449L498.1654,147.61502L496.72561,150.49532
				L495.52579,153.13559L495.28583,154.57573L495.52579,156.01588L497.20554,159.61625L497.44551,160.33632L498.1654,162.25652L
				498.40536,163.93669L498.40536,165.13681L498.64533,167.53705L498.64533,173.05761L498.40536,174.73779L497.20554,175.21783L
				495.28583,176.17793L495.04586,175.69788L495.04586,175.45786L494.56594,174.73779L494.32597,174.25774L494.08601,173.53766L
				493.60608,173.05761L493.12615,172.33754L492.88619,172.33754L492.40626,171.61747L491.92633,171.13742L491.20644,170.89739L
				489.52669,169.69727L488.56683,169.21722L484.72741,168.25713L483.52759,168.25713L482.8077,168.25713L482.56773,168.0171L481.36791,167.77708
				L479.92813,167.29703L479.68816,167.29703L478.24838,167.057L477.76845,166.57695L474.64892,165.37683L473.92903,165.13681L472.96917,163.69666
				L472.48924,163.21661L472.24928,162.73656L471.52939,162.01649L471.04946,161.77647L470.80949,161.77647L470.32957,161.29642
				L468.88978,159.61625L468.40985,158.89617L468.40985,157.69605L466.73011,157.45603L465.29032,156.97598L462.65072,156.73595
				L459.29122,156.2559L457.85143,155.77586L456.65161,156.2559L454.97187,156.73595L454.01201,156.73595L452.81219,158.1761L451.61237,158.65615
				L450.41255,158.41612L448.01291,158.89617L448.25287,160.33632L447.29302,162.01649L445.61327,163.69666L443.69355,164.41673
				L441.53388,163.69666L440.33406,163.93669L437.69445,163.69666L434.81488,163.21661L432.89517,163.69666L431.21542,163.69666
				L429.53568,163.69666L429.05575,162.73656L426.65611,160.57634L424.49643,159.61625L420.89697,157.45603L419.45718,154.81576
				L419.45718,152.41551L419.93711,149.77524L420.17708,146.4149L418.97726,143.53461L420.89697,140.65432L420.41704,139.45419L
				419.93711,139.45419L419.45718,139.45419L417.77744,139.21417L414.17798,137.77402L411.77833,137.29397L410.57851,138.25407L
				408.89877,139.45419L407.93891,139.45419L407.21902,139.45419L406.25916,137.77402L405.77923,136.33388L404.57941,135.37378L
				403.85952,134.41368L403.61956,133.69361L403.85952,132.73351L404.57941,131.05334L407.69895,128.89312L407.45898,127.93302L
				406.97905,127.45297L406.97905,126.49288L406.73909,125.05273L406.25916,123.13253L404.81938,121.45236L404.81938,120.73229L
				406.25916,119.05212L406.97905,117.852L407.21902,116.8919L407.93891,116.8919L411.29841,116.65187L413.45808,116.41185L414.6579,115.69178
				L415.85772,114.9717L416.33765,114.49165L418.25736,112.57146L418.49733,111.85138L419.93711,110.17121L420.657,109.45114L421.13693,108.97109
				L423.77654,108.01099L425.21632,108.01099L425.93621,107.53095L426.41614,107.0509L427.13603,105.61075L428.09589,103.93058L
				429.53568,102.97048L431.21542,102.25041L431.93532,101.29031L432.17528,100.81026L432.89517,97.20989L433.85503,95.76975L435.05485,95.04967
				L436.7346,94.08958L437.69445,94.08958L438.41435,93.84955L440.09409,93.84955L441.77384,93.60953L442.7337,93.60953L443.45359,93.3695
				L444.65341,92.88945L447.29302,91.92936L449.93262,91.92936L451.85233,91.68933L454.25197,91.68933L455.69176,91.20928L457.13154,89.76914
				L458.81129,88.56902L460.01111,87.60892L461.21093,86.88884L462.17079,86.16877L462.65072,85.92875L464.33046,84.4886L466.01021,82.80843
				L467.92993,81.36828L469.12975,80.64821L469.36971,80.40818L473.20913,77.28787L474.16899,75.84772L475.60878,73.44748L476.56863,72.48738
				L478.96827,70.80721L482.32777,68.40696L484.48745,67.20684L487.12705,65.76669L491.68637,64.08652L492.1663,63.60647L494.08601,62.40635
				L495.28583,62.16633L497.20554,61.68628L499.12525,61.20623L501.28493,60.48616L502.72471,60.00611L504.88439,59.52606L505.84425,58.56596
				L507.28403,56.88579L508.48385,55.68567L509.68367,54.72557L510.64353,54.24552L512.32328,53.76547L513.28313,53.52545L513.76306,52.80538
				L514.72292,52.32533L516.64263,50.64516L517.36252,50.16511L518.08241,49.44503L519.28224,47.76486L520.48206,46.80476L521.68188,46.32472
				L522.64173,45.12459L524.08152,45.84467L525.28134,45.60464L525.28134,46.56474L525.28134,48.24491L524.80141,50.16511L524.08152,52.0853
				L523.36162,54.72557L523.60159,55.20562L524.56144,56.64577L525.5213,58.56596L527.20105,60.00611L527.44101,63.8465L526.24119,66.48677
				L525.76126,69.36706L525.76126,71.52728L525.04137,73.44748z"/>
			<path clip-path="url(#SVG_CP_1)" fill="#73B273" fill-rule="evenodd" stroke="#000000" stroke-width="0.95986" stroke-miterlimit="10" stroke-linecap="round" stroke-linejoin="round" d="
				M345.30829,179.05823L344.5884,178.8182L343.8685,178.57818L342.66868,178.33815L342.18876,178.09813L341.94879,177.61808L340.98894,176.89801
				L340.50901,177.37805L338.34933,180.7384L338.10937,181.93852L337.8694,183.37866L338.10937,186.01893L338.10937,186.97903L337.38947,187.93913
				L337.14951,188.6592L336.90955,191.05945L335.94969,192.73962L335.2298,193.69972L334.98983,194.17976L334.98983,195.13986L335.46976,196.09996
				L336.18965,197.06006L336.66958,197.30008L337.38947,198.5002L337.8694,198.74023L339.30919,199.70033L339.78912,200.18037L340.50901,201.62052
				L341.2289,202.34059L341.2289,202.82064L338.82926,204.50081L336.66958,205.94096L335.2298,207.14108L333.79001,208.82125L332.83016,210.02138
				L331.39037,211.70155L331.15041,212.42162L330.67048,213.38172L330.43052,213.62174L329.95059,213.62174L329.71062,213.86177
				L329.71062,214.34182L329.95059,215.30191L329.95059,215.78196L329.47066,216.02199L327.79091,216.26201L326.59109,216.26201
				L323.23159,216.74206L322.75167,216.74206L321.07192,216.26201L320.11206,215.54194L319.15221,215.06189L318.67228,214.34182
				L318.43231,213.62174L318.19235,213.14169L317.71242,212.90167L317.47246,212.42162L317.23249,211.70155L316.99253,210.98147
				L316.75257,210.98147L316.03267,210.50143L314.11296,210.50143L313.63303,210.50143L311.95328,209.54133L310.75346,209.3013L
				309.55364,207.38111L308.35382,206.90106L304.99433,206.18099L303.55454,205.46091L302.83465,205.46091L302.35472,205.46091L
				301.63483,205.70094L300.19504,207.14108L299.47515,207.62113L298.75526,207.62113L298.27533,207.38111L296.35562,206.42101L
				295.1558,205.22089L294.43591,204.74084L293.71601,204.50081L290.59648,204.26079L291.55634,200.66042L291.7963,200.18037L292.51619,199.94035
				L293.47605,199.70033L294.91584,199.4603L295.87569,199.22028L298.27533,198.5002L300.43501,197.78013L301.39486,197.30008L302.35472,196.33998
				L302.83465,195.85994L303.07461,195.37989L303.31458,193.69972L303.55454,192.97964L303.79451,192.49959L305.47425,190.33937
				L305.71422,190.09935L307.63393,186.49898L308.11386,185.29886L308.11386,181.69849L307.87389,179.29825L309.79361,174.49776
				L311.23339,173.29764L314.59289,170.65737L320.11206,167.77708L322.99163,166.09691L324.19145,165.13681L327.79091,161.53644
				L329.47066,160.57634L329.95059,160.33632L333.79001,157.45603L335.70973,156.97598L338.82926,156.73595L342.18876,155.77586
				L345.54825,153.61564L347.228,150.97537L346.98804,150.01527L347.228,147.85505L346.50811,144.97476L348.42782,141.13437L348.66779,140.17427
				L348.66779,137.29397L349.62764,136.33388L353.46707,133.93363L357.06653,132.73351L363.78552,131.29336L368.82477,129.13314
				L371.22441,128.41307L371.9443,127.93302L374.10398,126.7329L376.98355,124.57268L379.14322,123.61258L381.06293,122.65248L385.62225,121.21234
				L387.302,120.25224L391.14142,119.77219L392.82117,119.53217L393.54107,119.05212L395.22081,117.61197L395.46078,120.49226L395.70074,122.65248
				L395.94071,124.57268L395.94071,127.93302L395.70074,130.09324L395.94071,132.49349L395.94071,134.41368L395.70074,134.65371
				L395.70074,137.29397L395.22081,137.77402L394.02099,138.97415L393.06114,139.21417L391.62135,140.41429L389.9416,140.89434L
				388.50182,140.89434L387.78193,141.13437L384.6624,142.57451L384.42243,143.05456L383.46257,144.01466L382.98265,144.25468L382.50272,145.21478
				L382.26275,145.21478L381.54286,145.21478L380.34304,145.21478L379.62315,145.21478L377.9434,145.4548L376.50362,145.93485L375.54376,146.65493
				L374.82387,146.89495L373.62405,147.13498L371.9443,147.375L368.5848,148.09507L367.86491,147.85505L365.9452,146.89495L363.30559,145.69483
				L363.06563,145.69483L362.10577,144.73473L361.62585,144.73473L361.14592,144.73473L360.42602,144.49471L360.18606,144.49471
				L359.70613,144.97476L358.98624,146.4149L357.78642,147.61502L356.10667,149.77524L355.62674,151.45542L355.38678,155.29581L
				355.38678,157.216L355.62674,158.41612L356.34664,160.33632L356.34664,161.05639L356.10667,161.29642L355.86671,161.53644L354.90685,161.29642
				L352.26725,161.77647L351.54735,162.01649L350.5875,163.69666L350.10757,164.89678L349.62764,167.77708L349.38768,168.73717L
				348.90775,170.89739L348.42782,172.33754L348.42782,172.81759L348.18786,173.05761L347.94789,174.49776L346.98804,175.45786L
				346.26814,176.17793L345.78822,176.89801L345.54825,178.09813L345.30829,179.05823z"/>
			<path clip-path="url(#SVG_CP_1)" fill="#73B273" fill-rule="evenodd" stroke="#000000" stroke-width="0.95986" stroke-miterlimit="10" stroke-linecap="round" stroke-linejoin="round" d="
				M408.89877,315.87215L409.37869,315.3921L409.85862,315.15208L410.33855,314.91205L412.73819,315.3921L413.69805,315.3921L415.13783,315.87215
				L415.61776,315.87215L417.77744,316.11217L418.25736,316.3522L419.69715,316.83225L421.13693,317.07227L421.3769,317.55232L421.61686,318.51242
				L422.33675,319.23249L422.33675,319.47252L422.57672,320.19259L423.05665,320.91266L423.53657,320.91266L424.25647,321.15269
				L425.21632,320.67264L425.93621,320.67264L428.33585,321.39271L429.29571,321.39271L430.0156,321.39271L431.21542,321.15269L
				430.49553,321.39271L430.25557,321.87276L428.57582,322.83286L428.09589,323.79296L427.376,324.75305L427.376,324.99308L427.13603,326.1932
				L427.376,328.35342L427.61596,330.03359L427.85593,332.19381L427.85593,332.91388L426.89607,334.35403L425.93621,334.83408L425.21632,335.55415
				L424.73639,335.55415L422.57672,336.51425L422.33675,336.75428L421.85683,336.9943L421.85683,337.71437L421.61686,338.67447L
				421.13693,339.39454L420.657,339.87459L418.73729,341.07472L417.29751,341.55476L416.33765,342.03481L415.3778,342.03481L414.89787,342.27484
				L414.41794,342.75489L414.17798,343.23494L413.93801,344.67508L414.17798,346.35525L414.17798,348.51547L414.17798,349.71559
				L414.17798,352.59589L414.17798,353.07594L413.93801,353.79601L413.69805,354.03603L411.77833,355.95623L411.53837,356.43628
				L409.61866,357.87643L408.89877,359.31657L408.89877,360.27667L409.13873,360.51669L409.37869,360.99674L411.05844,360.99674
				L412.0183,361.23677L413.45808,361.95684L417.29751,363.15696L420.41704,364.83713L422.09679,365.31718L422.57672,365.79723L
				421.85683,366.27728L420.17708,367.71743L418.97726,368.67752L417.77744,369.3976L415.85772,370.3577L413.93801,370.59772L412.49823,371.07777
				L410.81848,371.07777L408.41884,371.07777L406.97905,371.07777L406.49913,371.07777L406.0192,371.55782L406.0192,372.03787L405.53927,373.23799
				L405.2993,373.71804L404.81938,373.95806L404.09948,374.19809L402.6597,374.19809L401.93981,374.43811L400.26006,376.11828L399.3002,376.83836
				L398.58031,377.07838L397.14053,377.3184L395.22081,376.83836L394.74089,376.83836L394.50092,376.83836L393.3011,376.83836L393.06114,377.07838
				L392.58121,377.55843L392.34125,378.03848L392.10128,379.2386L391.86132,379.47862L391.62135,379.95867L390.90146,380.67875L
				390.6615,380.91877L390.18157,381.63884L389.70164,382.11889L389.22171,382.83897L389.46168,383.07899L389.22171,383.31901L388.98175,383.55904
				L388.74178,383.55904L388.02189,383.55904L387.54196,383.55904L386.82207,383.55904L386.34214,383.55904L386.10218,383.79906
				L385.62225,384.03909L384.90236,384.75916L384.6624,385.47923L384.42243,385.71926L383.22261,386.91938L382.26275,388.35953L
				380.58301,389.79967L379.62315,390.75977L379.38319,390.75977L378.90326,391.47985L377.9434,392.43994L377.70344,392.43994L377.22351,392.91999
				L376.02369,394.12011L375.3038,394.60016L374.82387,394.84019L374.34394,394.84019L374.10398,394.60016L373.38408,393.88009L
				373.14412,393.40004L373.14412,393.16002L372.90416,392.91999L372.90416,392.67997L372.42423,392.43994L372.18426,392.19992L
				371.46437,391.95989L370.50452,392.19992L370.26455,392.43994L369.78462,392.67997L369.54466,392.91999L369.3047,393.16002L369.3047,393.40004
				L369.06473,394.12011L369.06473,394.84019L369.54466,396.28033L369.54466,396.52036L369.3047,396.76038L369.06473,397.00041L
				368.82477,397.24043L368.10487,397.48046L366.42513,397.48046L364.74538,397.48046L364.02549,397.48046L363.78552,397.72048L
				363.54556,397.96051L363.30559,398.20053L363.06563,397.96051L362.5857,397.72048L362.34574,397.72048L362.10577,397.24043L361.38588,396.52036
				L361.14592,396.28033L360.66599,395.56026L359.9461,394.84019L359.46617,394.12011L359.2262,393.88009L358.74628,393.16002L358.26635,392.67997
				L357.54646,391.95989L357.30649,391.71987L356.5866,390.9998L356.34664,390.75977L356.10667,390.27972L356.10667,390.0397L356.10667,389.55965
				L355.38678,387.63945L354.66689,386.91938L353.947,385.71926L352.50721,382.11889L352.02728,381.39882L351.78732,381.1588L351.06743,380.1987
				L349.62764,378.51853L348.90775,377.3184L348.18786,376.59833L347.46797,375.63823L347.46797,375.15818L346.74807,374.43811L
				346.74807,374.19809L346.50811,373.95806L346.26814,373.71804L345.78822,372.27789L345.06832,371.55782L344.82836,371.31779L
				344.10847,371.07777L343.8685,370.83774L343.38858,370.83774L342.42872,371.07777L341.70883,371.07777L340.02908,371.55782L338.82926,371.31779
				L337.62944,371.07777L337.38947,370.83774L336.66958,370.11767L336.18965,369.87765L335.70973,369.63762L334.74987,368.91755
				L334.26994,368.67752L333.79001,368.4375L333.07012,368.4375L331.63034,368.67752L330.91044,368.67752L329.47066,368.4375L328.75077,368.19748
				L328.27084,367.95745L328.03088,367.71743L327.55095,366.99735L327.55095,366.75733L327.55095,366.27728L327.31098,366.03726
				L327.31098,364.59711L327.31098,364.11706L327.31098,363.63701L327.31098,363.15696L327.07102,361.95684L326.59109,361.23677
				L325.39127,360.03665L324.43142,359.07655L323.23159,358.35647L322.99163,358.11645L321.79181,356.6763L321.55185,356.19625L
				321.07192,355.47618L320.35203,354.99613L319.39217,354.51608L318.91224,354.27606L317.47246,354.03603L316.5126,353.79601L315.79271,353.79601
				L315.07282,353.55599L313.873,353.31596L312.67318,353.31596L312.43321,353.55599L311.95328,353.55599L311.23339,353.55599L310.75346,353.55599
				L310.5135,353.31596L310.27354,353.07594L309.79361,352.35586L309.55364,351.87581L309.55364,351.15574L309.55364,350.19564L
				309.79361,349.71559L309.79361,349.23555L310.03357,347.7954L309.79361,347.55537L309.79361,347.07533L310.03357,347.07533L310.03357,346.35525
				L310.27354,345.39516L310.27354,345.15513L310.5135,343.95501L310.75346,343.23494L311.23339,341.79479L311.23339,339.87459L
				311.23339,339.39454L311.23339,339.15452L311.23339,338.43445L311.23339,338.19442L311.23339,337.47435L311.47336,336.75428L
				311.47336,334.35403L311.47336,333.87398L310.99343,332.91388L310.99343,331.47374L310.99343,330.51364L310.99343,330.03359L
				310.99343,329.07349L310.75346,328.59344L310.5135,327.63335L310.5135,327.1533L310.03357,325.95318L309.79361,325.2331L309.55364,324.99308
				L309.55364,324.75305L308.83375,323.79296L308.11386,322.83286L307.87389,322.59283L307.39397,322.35281L307.154,322.11279L306.91404,322.11279
				L306.67407,322.35281L305.71422,322.59283L304.99433,323.07288L303.31458,324.51303L302.83465,324.99308L302.59469,325.2331L
				301.87479,325.71315L301.63483,326.1932L300.91494,326.91327L300.43501,327.1533L299.23519,327.39332L298.75526,327.63335L298.03537,327.63335
				L297.31548,327.63335L296.35562,327.63335L294.43591,327.63335L293.95598,327.63335L292.75616,327.39332L292.03627,327.1533L
				290.83645,326.67325L290.35652,326.1932L290.35652,325.95318L289.87659,325.71315L289.39666,324.99308L289.63663,324.75305L289.87659,324.27301
				L290.11655,323.79296L290.35652,323.55293L290.83645,323.07288L291.31637,322.59283L291.55634,322.11279L291.55634,321.15269
				L291.55634,320.67264L290.83645,319.71254L290.59648,319.23249L290.59648,318.75244L290.59648,318.03237L290.59648,317.55232
				L291.31637,317.3123L291.31637,317.07227L292.03627,316.83225L293.23609,316.3522L293.95598,315.63213L294.43591,315.3921L295.1558,314.91205
				L296.35562,314.432L297.07551,314.19198L298.27533,313.95195L298.75526,313.95195L298.99522,313.71193L299.47515,313.71193L299.95508,313.71193
				L300.43501,313.23188L300.91494,312.75183L301.1549,312.51181L302.35472,312.27178L303.31458,311.79173L304.03447,311.31169L
				304.27443,311.31169L304.75436,311.31169L304.99433,311.07166L305.23429,311.07166L305.47425,311.31169L306.43411,311.79173L
				308.59379,312.99186L309.31368,313.47191L310.75346,314.19198L312.43321,315.63213L313.63303,316.3522L313.873,316.3522L314.35292,316.59222
				L315.07282,316.59222L315.79271,316.3522L316.75257,315.87215L317.47246,315.87215L317.95239,315.87215L318.19235,316.11217L
				318.91224,316.3522L319.8721,317.3123L320.59199,317.79235L321.31188,318.03237L322.03177,318.03237L322.5117,317.79235L323.23159,317.55232
				L324.43142,317.3123L325.39127,317.3123L325.8712,317.07227L326.35113,317.07227L326.59109,316.83225L328.5108,316.83225L329.2307,316.83225
				L329.47066,316.83225L329.95059,316.59222L330.43052,316.3522L330.91044,316.11217L331.39037,315.87215L331.8703,315.63213L333.55005,314.432
				L334.50991,314.19198L335.2298,313.95195L336.66958,313.95195L338.58929,314.19198L339.06922,314.19198L339.78912,314.19198L
				340.26904,314.19198L341.46886,313.95195L343.14861,312.99186L344.34843,312.51181L344.82836,312.27178L346.02818,311.31169L
				346.74807,310.83164L347.228,310.35159L347.228,310.11156L347.70793,309.87154L348.18786,309.15147L348.90775,308.91144L349.38768,308.67142
				L350.34753,308.43139L351.06743,308.19137L352.74717,308.19137L353.70703,308.19137L354.18696,308.19137L355.14682,308.19137
				L355.38678,308.19137L355.86671,308.19137L356.10667,308.19137L356.5866,308.43139L357.06653,308.67142L357.54646,308.91144L
				358.02638,308.91144L358.26635,308.91144L358.74628,308.43139L359.2262,308.19137L359.46617,308.19137L360.42602,308.19137L361.62585,307.71132
				L362.5857,307.4713L362.82567,307.4713L363.06563,307.4713L363.78552,307.23127L364.50541,306.99125L364.74538,306.99125L366.18516,306.27117
				L366.90505,306.03115L367.62495,305.31108L368.10487,305.07105L369.3047,304.591L370.02459,304.11095L371.46437,302.91083L371.70434,302.91083
				L371.9443,302.67081L372.18426,302.19076L372.66419,301.23066L372.90416,300.27056L372.90416,298.83042L373.38408,297.87032L
				373.38408,297.63029L373.86401,297.15024L374.34394,296.91022L374.82387,296.6702L375.06383,295.95012L375.3038,295.95012L375.78372,295.7101
				L376.26365,295.7101L376.26365,295.95012L376.74358,297.39027L376.98355,298.11034L378.18337,299.31046L378.66329,299.55049L
				379.62315,299.79051L380.10308,299.79051L380.82297,300.27056L381.3029,300.27056L382.02279,300.03054L382.74268,300.03054L383.46257,300.03054
				L384.18247,300.27056L385.38229,301.23066L385.86222,301.71071L386.82207,302.91083L387.54196,303.39088L387.78193,303.39088
				L388.26186,303.6309L388.50182,303.87093L389.46168,304.11095L389.70164,304.591L389.9416,304.591L390.42153,305.31108L390.6615,305.5511
				L391.14142,305.79112L391.62135,306.03115L392.58121,306.27117L393.3011,306.5112L393.78103,306.75122L394.26096,306.99125L394.26096,307.4713
				L394.26096,308.19137L394.50092,308.43139L394.50092,308.67142L394.74089,308.91144L395.22081,309.15147L395.46078,309.87154
				L395.46078,310.35159L395.70074,310.59161L395.94071,310.83164L397.38049,310.83164L397.86042,311.07166L398.58031,311.55171
				L399.3002,312.27178L401.21992,313.71193L402.6597,315.3921L403.85952,316.59222L404.81938,318.03237L405.53927,318.75244L406.25916,319.95257
				L406.0192,319.95257L406.25916,320.19259L406.73909,320.67264L407.69895,321.39271L409.61866,321.39271L410.81848,321.15269L
				410.81848,320.91266L408.41884,319.71254L408.17887,318.99247L407.93891,318.51242L408.17887,317.3123L408.89877,315.87215z"/>
			<path clip-path="url(#SVG_CP_1)" fill="#73B273" fill-rule="evenodd" stroke="#000000" stroke-width="0.95986" stroke-miterlimit="10" stroke-linecap="round" stroke-linejoin="round" d="
				M467.21003,182.65859L466.49014,183.61869L464.0905,184.81881L463.37061,185.53888L462.65072,186.97903L461.4509,188.41918L460.49104,189.37928
				L459.53118,189.37928L458.81129,189.85932L458.0914,190.5794L457.61147,191.29947L457.61147,192.01954L457.85143,193.69972L457.85143,194.65981
				L458.33136,196.09996L458.81129,197.06006L459.05126,198.5002L459.05126,200.4204L459.29122,200.90045L459.53118,202.34059L459.29122,203.54072
				L458.81129,204.02077L456.89158,205.70094L455.21183,207.86116L453.29212,209.78135L453.29212,210.50143L452.81219,211.94157
				L452.0923,213.14169L452.0923,213.62174L450.89248,215.06189L450.17258,216.50204L449.93262,218.42223L449.69266,219.1423L448.25287,220.58245
				L448.01291,220.82248L447.05305,223.22272L446.33316,224.18282L445.13334,225.14292L443.21363,227.30314L440.81399,229.22333
				L440.33406,230.18343L440.09409,231.38355L439.3742,231.8636L437.69445,233.54377L435.77474,234.98392L434.57492,235.22394L433.13514,235.46397
				L431.69535,235.94402L430.25557,235.46397L428.33585,234.26384L426.17618,233.06372L424.49643,232.58367L422.33675,232.8237L
				420.657,233.7838L419.21722,234.74389L418.97726,234.74389L417.53747,235.94402L416.81758,237.38416L416.09769,236.90411L414.17798,235.22394
				L413.69805,234.98392L412.97815,234.74389L412.73819,234.50387L411.77833,233.54377L411.29841,233.06372L411.29841,232.8237L
				409.85862,231.38355L408.6588,229.9434L407.93891,228.98331L407.45898,228.50326L406.49913,227.78318L406.25916,227.54316L406.0192,227.06311
				L406.0192,226.82309L406.0192,226.58306L406.49913,225.62296L406.73909,223.70277L406.73909,223.46274L406.97905,223.22272L407.21902,222.74267
				L407.21902,222.26262L407.45898,221.54255L407.69895,221.30252L407.69895,220.82248L407.21902,220.82248L406.97905,219.86238
				L406.97905,218.90228L407.45898,217.22211L407.45898,216.74206L406.25916,215.30191L404.81938,214.34182L404.33945,214.10179
				L402.17977,213.62174L401.93981,213.62174L402.41974,213.14169L402.89966,212.90167L403.85952,212.1816L404.09948,211.70155L
				404.57941,210.98147L405.05934,210.02138L404.81938,209.54133L404.33945,208.82125L404.81938,208.10118L405.2993,207.62113L406.25916,206.66103
				L406.49913,205.94096L406.49913,204.74084L406.97905,204.02077L407.69895,203.30069L408.6588,202.82064L409.85862,202.34059L
				409.85862,202.10057L410.33855,202.58062L411.53837,202.82064L413.69805,201.86055L416.09769,200.4204L418.25736,199.22028L419.21722,198.98025
				L419.93711,199.22028L421.61686,198.74023L422.33675,198.5002L423.53657,198.74023L425.45629,198.26018L426.89607,197.30008L
				428.09589,196.09996L428.81578,195.61991L429.29571,194.17976L429.77564,192.49959L430.49553,191.5395L430.49553,191.05945L430.7355,190.09935
				L430.97546,189.13925L433.13514,188.6592L435.05485,188.17915L436.7346,187.45908L438.17438,186.01893L439.85413,185.29886L442.01381,184.81881
				L443.45359,185.53888L445.3733,186.73901L446.81309,187.21906L448.49284,186.97903L450.89248,186.25896L453.53208,185.77891L
				454.97187,185.77891L456.41165,186.01893L458.0914,185.53888L460.97097,184.57879L463.37061,183.61869L465.29032,183.13864L466.73011,182.41857
				L467.21003,182.65859z"/>
			<path clip-path="url(#SVG_CP_1)" fill="#73B273" fill-rule="evenodd" stroke="#000000" stroke-width="0.95986" stroke-miterlimit="10" stroke-linecap="round" stroke-linejoin="round" d="
				M409.85862,202.10057L409.85862,202.34059L408.6588,202.82064L407.69895,203.30069L406.97905,204.02077L406.49913,204.74084L
				406.49913,205.94096L406.25916,206.66103L405.2993,207.62113L404.81938,208.10118L404.33945,208.82125L404.81938,209.54133L405.05934,210.02138
				L404.57941,210.98147L404.09948,211.70155L403.85952,212.1816L402.89966,212.90167L402.41974,213.14169L401.93981,213.62174L
				400.50002,213.86177L398.10038,214.10179L396.6606,213.38172L395.22081,211.94157L394.74089,211.70155L393.06114,211.70155L392.34125,212.1816
				L391.62135,212.66165L392.82117,214.10179L393.3011,214.58184L393.78103,215.06189L393.78103,215.54194L393.78103,216.98209L
				393.3011,217.94218L392.34125,219.1423L392.10128,220.1024L391.62135,222.26262L391.38139,222.74267L390.6615,223.70277L389.46168,225.86299
				L389.22171,226.82309L388.74178,227.54316L388.50182,228.02321L387.78193,228.74328L387.06204,230.42345L387.06204,231.14353
				L386.82207,231.38355L387.06204,231.62358L387.06204,232.58367L386.34214,234.98392L386.58211,236.18404L386.82207,236.42406
				L387.302,238.34426L387.54196,239.54438L387.302,240.26445L387.06204,240.7445L386.34214,240.98453L386.10218,240.50448L385.62225,240.50448
				L384.90236,240.50448L384.90236,240.26445L384.6624,240.26445L384.42243,239.06433L383.9425,238.58428L382.50272,237.86421L381.06293,236.66409
				L380.10308,235.46397L380.10308,234.50387L379.14322,233.54377L378.90326,232.58367L378.66329,231.62358L378.90326,231.38355
				L378.66329,231.38355L378.18337,230.18343L377.22351,229.46336L374.82387,228.98331L374.34394,228.98331L375.54376,227.06311
				L376.26365,225.86299L376.50362,225.62296L378.42333,224.66287L379.14322,224.18282L379.86311,223.70277L380.82297,223.22272
				L382.74268,221.0625L383.70254,219.38233L383.9425,218.66226L383.70254,217.70216L383.22261,217.46213L381.78283,217.22211L380.58301,217.22211
				L379.62315,216.50204L378.90326,216.50204L378.66329,216.26201L377.9434,215.30191L377.22351,214.82187L376.74358,214.58184L
				376.02369,214.58184L375.54376,214.82187L375.06383,215.06189L373.62405,216.02199L372.90416,215.78196L371.9443,215.06189L371.70434,214.82187
				L370.98444,214.58184L370.02459,215.30191L366.66509,218.42223L365.9452,218.66226L366.18516,218.18221L366.42513,216.74206L
				367.14502,214.10179L367.14502,213.14169L367.14502,211.94157L366.66509,209.78135L366.66509,209.3013L367.14502,208.58123L368.5848,206.66103
				L370.02459,204.26079L370.26455,203.78074L370.74448,202.34059L371.22441,201.3805L371.70434,200.18037L371.9443,199.70033L370.98444,199.22028
				L370.74448,198.98025L369.78462,197.54011L369.54466,197.06006L368.82477,196.82003L368.10487,196.33998L367.86491,195.61991
				L367.86491,195.13986L368.10487,194.65981L368.5848,193.93974L368.5848,193.69972L368.5848,193.45969L367.62495,192.49959L367.86491,192.01954
				L368.34484,191.29947L368.34484,190.5794L368.10487,189.13925L367.38498,188.41918L365.46527,186.73901L364.74538,186.25896L
				363.06563,185.77891L362.34574,185.29886L361.86581,184.81881L361.62585,184.57879L360.66599,183.85871L361.14592,183.85871L
				361.62585,183.61869L362.5857,183.37866L364.50541,183.13864L365.46527,182.89862L365.9452,182.89862L366.66509,183.13864L367.38498,183.13864
				L369.06473,182.17854L370.50452,181.93852L371.22441,181.69849L372.18426,181.21845L372.66419,180.97842L372.90416,180.7384L
				373.14412,180.7384L373.38408,180.7384L374.34394,180.01832L375.06383,179.05823L378.66329,176.89801L380.82297,176.17793L381.3029,175.69788
				L382.98265,174.25774L383.70254,173.77769L384.18247,173.77769L384.90236,173.77769L386.34214,174.25774L387.78193,174.73779
				L388.26186,174.97781L390.18157,175.69788L391.14142,175.93791L392.34125,176.17793L393.06114,176.17793L393.54107,176.65798
				L394.02099,177.37805L394.26096,178.09813L394.50092,179.05823L394.02099,181.45847L394.26096,183.13864L394.26096,184.09874
				L394.50092,185.05884L395.22081,186.01893L395.46078,186.01893L395.94071,186.01893L396.6606,186.49898L396.90056,187.21906L
				397.62045,187.45908L398.10038,188.17915L398.58031,189.37928L400.26006,189.6193L402.89966,190.09935L403.85952,190.81942L404.33945,192.25957
				L404.81938,193.45969L404.81938,193.93974L404.33945,194.89984L403.85952,195.37989L404.81938,197.06006L406.49913,196.82003
				L408.6588,196.58001L411.29841,196.09996L412.73819,195.85994L413.69805,196.09996L413.69805,196.82003L413.45808,197.54011L
				412.97815,198.74023L412.25826,199.70033L411.05844,200.66042L410.33855,201.14047L409.85862,202.10057z"/>
			<path clip-path="url(#SVG_CP_1)" fill="#73B273" fill-rule="evenodd" stroke="#000000" stroke-width="0.95986" stroke-miterlimit="10" stroke-linecap="round" stroke-linejoin="round" d="
				M407.21902,116.8919L406.97905,117.852L406.25916,119.05212L404.81938,120.73229L404.81938,121.45236L406.25916,123.13253L406.73909,125.05273
				L406.97905,126.49288L406.97905,127.45297L407.45898,127.93302L407.69895,128.89312L404.57941,131.05334L403.85952,132.73351
				L403.61956,133.69361L403.85952,134.41368L404.57941,135.37378L405.77923,136.33388L406.25916,137.77402L407.21902,139.45419
				L407.93891,139.45419L408.89877,139.45419L410.57851,138.25407L411.77833,137.29397L414.17798,137.77402L417.77744,139.21417
				L419.45718,139.45419L419.93711,139.45419L420.41704,139.45419L420.89697,140.65432L418.97726,143.53461L420.17708,146.4149L
				419.93711,149.77524L419.45718,152.41551L419.45718,154.81576L420.89697,157.45603L424.49643,159.61625L426.65611,160.57634L
				429.05575,162.73656L429.53568,163.69666L431.21542,163.69666L432.89517,163.69666L434.81488,163.21661L437.69445,163.69666L
				440.33406,163.93669L441.53388,163.69666L443.69355,164.41673L445.61327,163.69666L447.29302,162.01649L448.25287,160.33632L
				448.01291,158.89617L450.41255,158.41612L451.61237,158.65615L452.81219,158.1761L454.01201,156.73595L454.97187,156.73595L456.65161,156.2559
				L457.85143,155.77586L459.29122,156.2559L462.65072,156.73595L465.29032,156.97598L466.73011,157.45603L468.40985,157.69605L
				468.40985,158.89617L468.88978,159.61625L470.32957,161.29642L470.80949,161.77647L471.04946,161.77647L471.52939,162.01649L
				472.24928,162.73656L472.48924,163.21661L472.96917,163.69666L473.92903,165.13681L474.64892,165.37683L477.76845,166.57695L
				478.24838,167.057L479.68816,167.29703L479.92813,167.29703L481.36791,167.77708L482.56773,168.0171L482.8077,168.25713L483.52759,168.25713
				L484.72741,168.25713L488.56683,169.21722L489.52669,169.69727L491.20644,170.89739L491.92633,171.13742L492.40626,171.61747
				L492.88619,172.33754L493.12615,172.33754L493.60608,173.05761L494.08601,173.53766L494.32597,174.25774L494.56594,174.73779
				L495.04586,175.45786L495.04586,175.69788L495.28583,176.17793L493.84604,176.89801L491.68637,177.8581L489.76666,178.57818L
				488.08691,179.7783L487.12705,180.49837L485.68727,180.7384L483.52759,180.97842L480.88798,181.69849L477.52849,181.93852L474.88888,181.69849
				L473.4491,181.69849L472.00931,181.93852L468.88978,182.41857L467.21003,182.41857L467.21003,182.65859L466.73011,182.41857L
				465.29032,183.13864L463.37061,183.61869L460.97097,184.57879L458.0914,185.53888L456.41165,186.01893L454.97187,185.77891L453.53208,185.77891
				L450.89248,186.25896L448.49284,186.97903L446.81309,187.21906L445.3733,186.73901L443.45359,185.53888L442.01381,184.81881L
				439.85413,185.29886L438.17438,186.01893L436.7346,187.45908L435.05485,188.17915L433.13514,188.6592L430.97546,189.13925L430.7355,190.09935
				L430.49553,191.05945L430.49553,191.5395L429.77564,192.49959L429.29571,194.17976L428.81578,195.61991L428.09589,196.09996L
				426.89607,197.30008L425.45629,198.26018L423.53657,198.74023L422.33675,198.5002L421.61686,198.74023L419.93711,199.22028L419.21722,198.98025
				L418.25736,199.22028L416.09769,200.4204L413.69805,201.86055L411.53837,202.82064L410.33855,202.58062L409.85862,202.10057L
				410.33855,201.14047L411.05844,200.66042L412.25826,199.70033L412.97815,198.74023L413.45808,197.54011L413.69805,196.82003L
				413.69805,196.09996L412.73819,195.85994L411.29841,196.09996L408.6588,196.58001L406.49913,196.82003L404.81938,197.06006L403.85952,195.37989
				L404.33945,194.89984L404.81938,193.93974L404.81938,193.45969L404.33945,192.25957L403.85952,190.81942L402.89966,190.09935
				L400.26006,189.6193L398.58031,189.37928L398.10038,188.17915L397.62045,187.45908L396.90056,187.21906L396.6606,186.49898L395.94071,186.01893
				L395.46078,186.01893L395.22081,186.01893L394.50092,185.05884L394.26096,184.09874L394.26096,183.13864L394.02099,181.45847
				L394.50092,179.05823L394.26096,178.09813L394.02099,177.37805L393.54107,176.65798L393.06114,176.17793L392.34125,176.17793
				L391.14142,175.93791L390.18157,175.69788L388.26186,174.97781L387.78193,174.73779L386.34214,174.25774L384.90236,173.77769
				L384.18247,173.77769L383.70254,173.77769L382.98265,174.25774L381.3029,175.69788L380.82297,176.17793L378.66329,176.89801L
				375.06383,179.05823L374.34394,180.01832L373.38408,180.7384L373.14412,180.7384L372.90416,180.7384L372.66419,180.97842L372.18426,181.21845
				L371.22441,181.69849L370.50452,181.93852L369.06473,182.17854L367.38498,183.13864L366.66509,183.13864L365.9452,182.89862L
				365.46527,182.89862L364.50541,183.13864L362.5857,183.37866L361.62585,183.61869L361.14592,183.85871L360.66599,183.85871L359.9461,183.85871
				L359.2262,183.13864L358.02638,182.41857L357.06653,181.93852L356.34664,181.69849L355.86671,181.69849L354.90685,181.69849L
				353.46707,181.69849L352.98714,181.45847L351.54735,180.7384L350.82746,180.49837L349.14771,180.01832L348.42782,179.7783L347.46797,179.53827
				L346.02818,178.8182L345.30829,179.05823L345.54825,178.09813L345.78822,176.89801L346.26814,176.17793L346.98804,175.45786L
				347.94789,174.49776L348.18786,173.05761L348.42782,172.81759L348.42782,172.33754L348.90775,170.89739L349.38768,168.73717L
				349.62764,167.77708L350.10757,164.89678L350.5875,163.69666L351.54735,162.01649L352.26725,161.77647L354.90685,161.29642L355.86671,161.53644
				L356.10667,161.29642L356.34664,161.05639L356.34664,160.33632L355.62674,158.41612L355.38678,157.216L355.38678,155.29581L355.62674,151.45542
				L356.10667,149.77524L357.78642,147.61502L358.98624,146.4149L359.70613,144.97476L360.18606,144.49471L360.42602,144.49471L
				361.14592,144.73473L361.62585,144.73473L362.10577,144.73473L363.06563,145.69483L363.30559,145.69483L365.9452,146.89495L367.86491,147.85505
				L368.5848,148.09507L371.9443,147.375L373.62405,147.13498L374.82387,146.89495L375.54376,146.65493L376.50362,145.93485L377.9434,145.4548
				L379.62315,145.21478L380.34304,145.21478L381.54286,145.21478L382.26275,145.21478L382.50272,145.21478L382.98265,144.25468
				L383.46257,144.01466L384.42243,143.05456L384.6624,142.57451L387.78193,141.13437L388.50182,140.89434L389.9416,140.89434L391.62135,140.41429
				L393.06114,139.21417L394.02099,138.97415L395.22081,137.77402L395.70074,137.29397L395.70074,134.65371L395.94071,134.41368
				L395.94071,132.49349L395.70074,130.09324L395.94071,127.93302L395.94071,124.57268L395.70074,122.65248L395.46078,120.49226
				L395.22081,117.61197L397.14053,116.41185L398.82028,115.69178L399.78013,115.45175L401.21992,115.45175L402.6597,115.69178L
				404.57941,116.17182L405.53927,116.41185L406.73909,116.8919L407.21902,116.8919z"/>
			<path clip-path="url(#SVG_CP_1)" fill="#73B273" fill-rule="evenodd" stroke="#000000" stroke-width="0.95986" stroke-miterlimit="10" stroke-linecap="round" stroke-linejoin="round" d="
				M345.30829,179.05823L346.02818,178.8182L347.46797,179.53827L348.42782,179.7783L349.14771,180.01832L350.82746,180.49837L351.54735,180.7384
				L352.98714,181.45847L353.46707,181.69849L354.90685,181.69849L355.86671,181.69849L356.34664,181.69849L357.06653,181.93852
				L358.02638,182.41857L359.2262,183.13864L359.9461,183.85871L360.66599,183.85871L361.62585,184.57879L361.86581,184.81881L362.34574,185.29886
				L363.06563,185.77891L364.74538,186.25896L365.46527,186.73901L367.38498,188.41918L368.10487,189.13925L368.34484,190.5794L
				368.34484,191.29947L367.86491,192.01954L367.62495,192.49959L368.5848,193.45969L368.5848,193.69972L368.5848,193.93974L368.10487,194.65981
				L367.86491,195.13986L367.86491,195.61991L368.10487,196.33998L368.82477,196.82003L369.54466,197.06006L369.78462,197.54011
				L370.74448,198.98025L370.98444,199.22028L371.9443,199.70033L371.70434,200.18037L371.22441,201.3805L370.74448,202.34059L370.26455,203.78074
				L370.02459,204.26079L368.5848,206.66103L367.14502,208.58123L366.66509,209.3013L366.66509,209.78135L367.14502,211.94157L367.14502,213.14169
				L367.14502,214.10179L366.42513,216.74206L366.18516,218.18221L365.9452,218.66226L366.66509,218.42223L370.02459,215.30191L
				370.98444,214.58184L371.70434,214.82187L371.9443,215.06189L372.90416,215.78196L373.62405,216.02199L375.06383,215.06189L375.54376,214.82187
				L376.02369,214.58184L376.74358,214.58184L377.22351,214.82187L377.9434,215.30191L378.66329,216.26201L378.90326,216.50204L
				379.62315,216.50204L380.58301,217.22211L381.78283,217.22211L383.22261,217.46213L383.70254,217.70216L383.9425,218.66226L383.70254,219.38233
				L382.74268,221.0625L380.82297,223.22272L379.86311,223.70277L379.14322,224.18282L378.42333,224.66287L376.50362,225.62296L
				376.26365,225.86299L375.54376,227.06311L374.34394,228.98331L374.82387,228.98331L377.22351,229.46336L378.18337,230.18343L
				378.66329,231.38355L378.90326,231.38355L378.66329,231.62358L378.90326,232.58367L379.14322,233.54377L380.10308,234.50387L
				380.10308,235.46397L381.06293,236.66409L382.50272,237.86421L383.9425,238.58428L384.42243,239.06433L384.6624,240.26445L384.90236,240.26445
				L384.90236,240.50448L385.62225,240.50448L386.10218,240.50448L386.34214,240.98453L387.06204,240.7445L387.302,240.26445L387.54196,239.54438
				L387.302,238.34426L386.82207,236.42406L386.58211,236.18404L386.34214,234.98392L387.06204,232.58367L387.06204,231.62358L386.82207,231.38355
				L387.06204,231.14353L387.06204,230.42345L387.78193,228.74328L388.50182,228.02321L388.74178,227.54316L389.22171,226.82309
				L389.46168,225.86299L390.6615,223.70277L391.38139,222.74267L391.62135,222.26262L392.10128,220.1024L392.34125,219.1423L393.3011,217.94218
				L393.78103,216.98209L393.78103,215.54194L393.78103,215.06189L393.3011,214.58184L392.82117,214.10179L391.62135,212.66165L
				392.34125,212.1816L393.06114,211.70155L394.74089,211.70155L395.22081,211.94157L396.6606,213.38172L398.10038,214.10179L400.50002,213.86177
				L401.93981,213.62174L402.17977,213.62174L404.33945,214.10179L404.81938,214.34182L406.25916,215.30191L407.45898,216.74206
				L407.45898,217.22211L406.97905,218.90228L406.97905,219.86238L407.21902,220.82248L407.69895,220.82248L407.69895,221.30252
				L407.45898,221.54255L407.21902,222.26262L407.21902,222.74267L406.97905,223.22272L406.73909,223.46274L406.73909,223.70277
				L406.49913,225.62296L406.0192,226.58306L406.0192,226.82309L406.0192,227.06311L406.25916,227.54316L406.49913,227.78318L407.45898,228.50326
				L407.93891,228.98331L408.6588,229.9434L409.85862,231.38355L411.29841,232.8237L411.29841,233.06372L411.77833,233.54377L412.73819,234.50387
				L412.97815,234.74389L413.69805,234.98392L414.17798,235.22394L416.09769,236.90411L416.81758,237.38416L415.3778,240.02443L
				413.93801,240.50448L411.77833,242.6647L411.53837,242.6647L409.13873,244.10485L407.93891,244.58489L405.53927,245.30497L402.17977,246.02504
				L400.50002,246.74511L399.78013,247.22516L397.62045,248.18526L396.6606,248.90533L395.22081,249.62541L393.54107,248.42529L
				393.06114,248.18526L392.34125,248.18526L390.90146,248.66531L389.9416,249.38538L388.98175,250.34548L388.02189,250.82553L385.86222,252.02565
				L384.18247,253.22577L383.22261,254.4259L382.02279,255.62602L379.14322,257.30619L378.66329,257.54621L377.9434,257.78624L377.46347,257.78624
				L376.74358,257.54621L376.26365,257.06616L376.26365,256.34609L376.74358,255.38599L376.74358,254.90594L376.98355,254.18587
				L376.74358,253.94585L376.74358,253.70582L376.74358,253.4658L376.26365,252.5057L375.54376,251.5456L374.34394,250.34548L374.10398,248.90533
				L373.38408,247.46519L373.38408,247.22516L373.14412,247.22516L373.14412,246.98514L373.38408,244.82492L372.90416,244.10485
				L372.66419,242.6647L372.42423,242.18465L371.46437,241.46458L370.98444,240.98453L370.74448,240.50448L370.50452,240.02443L
				369.54466,238.34426L369.06473,237.86421L368.82477,236.42406L368.82477,235.94402L368.10487,235.22394L366.66509,232.10362L
				366.18516,231.62358L365.9452,231.62358L365.22531,231.14353L364.74538,230.66348L363.78552,229.9434L362.5857,229.70338L361.86581,229.46336
				L360.66599,228.98331L359.2262,228.50326L356.82656,228.50326L356.34664,228.50326L354.18696,228.02321L352.50721,228.02321L
				351.54735,227.78318L350.10757,227.06311L349.14771,226.34304L348.18786,225.38294L347.228,224.66287L346.02818,223.94279L345.30829,223.70277
				L344.82836,223.70277L343.62854,223.70277L342.90865,223.22272L342.42872,222.74267L342.42872,222.0226L342.18876,220.34243L
				342.18876,219.86238L341.94879,219.38233L341.46886,218.90228L339.30919,217.70216L338.58929,217.46213L334.50991,217.22211L
				332.11027,216.02199L331.39037,216.02199L330.43052,215.78196L329.95059,215.78196L329.95059,215.30191L329.71062,214.34182L
				329.71062,213.86177L329.95059,213.62174L330.43052,213.62174L330.67048,213.38172L331.15041,212.42162L331.39037,211.70155L
				332.83016,210.02138L333.79001,208.82125L335.2298,207.14108L336.66958,205.94096L338.82926,204.50081L341.2289,202.82064L341.2289,202.34059
				L340.50901,201.62052L339.78912,200.18037L339.30919,199.70033L337.8694,198.74023L337.38947,198.5002L336.66958,197.30008L336.18965,197.06006
				L335.46976,196.09996L334.98983,195.13986L334.98983,194.17976L335.2298,193.69972L335.94969,192.73962L336.90955,191.05945L
				337.14951,188.6592L337.38947,187.93913L338.10937,186.97903L338.10937,186.01893L337.8694,183.37866L338.10937,181.93852L338.34933,180.7384
				L340.50901,177.37805L340.98894,176.89801L341.94879,177.61808L342.18876,178.09813L342.66868,178.33815L343.8685,178.57818L
				344.5884,178.8182L345.30829,179.05823z"/>
			<path clip-path="url(#SVG_CP_1)" fill="#73B273" fill-rule="evenodd" stroke="#000000" stroke-width="0.95986" stroke-miterlimit="10" stroke-linecap="round" stroke-linejoin="round" d="
				M374.5839,281.78868L374.5839,282.26873L374.34394,282.9888L373.86401,283.9489L373.86401,284.42895L373.86401,284.66897L374.34394,285.62907
				L374.34394,286.10912L374.34394,286.34915L374.34394,286.82919L374.10398,287.30924L373.86401,287.78929L373.86401,288.02932
				L373.62405,288.50937L373.62405,288.74939L373.38408,289.22944L373.38408,289.46946L373.38408,289.94951L373.14412,290.42956
				L372.90416,291.14963L373.14412,291.62968L373.38408,292.10973L373.62405,292.34976L374.34394,292.58978L374.82387,293.06983
				L375.3038,293.7899L375.54376,294.02993L375.78372,294.02993L376.26365,294.02993L376.98355,294.02993L376.98355,294.50998L376.98355,294.75
				L376.50362,295.23005L376.26365,295.47007L376.26365,295.7101L375.78372,295.7101L375.3038,295.95012L375.06383,295.95012L374.82387,296.6702
				L374.34394,296.91022L373.86401,297.15024L373.38408,297.63029L373.38408,297.87032L372.90416,298.83042L372.90416,300.27056
				L372.66419,301.23066L372.18426,302.19076L371.9443,302.67081L371.70434,302.91083L371.46437,302.91083L370.02459,304.11095L
				369.3047,304.591L368.10487,305.07105L367.62495,305.31108L366.90505,306.03115L366.18516,306.27117L364.74538,306.99125L364.50541,306.99125
				L363.78552,307.23127L363.06563,307.4713L362.82567,307.4713L362.5857,307.4713L361.62585,307.71132L360.42602,308.19137L359.46617,308.19137
				L359.2262,308.19137L358.74628,308.43139L358.26635,308.91144L358.02638,308.91144L357.54646,308.91144L357.06653,308.67142L
				356.5866,308.43139L356.10667,308.19137L355.86671,308.19137L355.38678,308.19137L355.14682,308.19137L354.18696,308.19137L353.70703,308.19137
				L352.74717,308.19137L351.06743,308.19137L350.34753,308.43139L349.38768,308.67142L348.90775,308.91144L348.18786,309.15147
				L347.70793,309.87154L347.228,310.11156L347.228,310.35159L346.74807,310.83164L346.02818,311.31169L344.82836,312.27178L344.34843,312.51181
				L343.14861,312.99186L341.46886,313.95195L340.26904,314.19198L339.78912,314.19198L339.06922,314.19198L338.58929,314.19198
				L336.66958,313.95195L335.2298,313.95195L334.50991,314.19198L333.55005,314.432L331.8703,315.63213L331.39037,315.87215L330.91044,316.11217
				L330.43052,316.3522L329.95059,316.59222L329.47066,316.83225L329.2307,316.83225L328.5108,316.83225L326.59109,316.83225L326.35113,317.07227
				L325.8712,317.07227L325.39127,317.3123L324.43142,317.3123L323.23159,317.55232L322.5117,317.79235L322.03177,318.03237L321.31188,318.03237
				L320.59199,317.79235L319.8721,317.3123L318.91224,316.3522L318.19235,316.11217L317.95239,315.87215L317.47246,315.87215L316.75257,315.87215
				L315.79271,316.3522L315.07282,316.59222L314.35292,316.59222L313.873,316.3522L313.63303,316.3522L312.43321,315.63213L310.75346,314.19198
				L309.31368,313.47191L308.59379,312.99186L306.43411,311.79173L305.47425,311.31169L305.23429,311.07166L304.99433,311.07166
				L304.75436,311.31169L304.27443,311.31169L304.03447,311.31169L303.31458,311.79173L302.35472,312.27178L301.1549,312.51181L
				300.91494,312.75183L300.43501,313.23188L299.95508,313.71193L299.47515,313.71193L298.99522,313.71193L298.75526,313.95195L
				298.27533,313.95195L297.07551,314.19198L296.35562,314.432L295.1558,314.91205L294.43591,315.3921L293.95598,315.63213L293.23609,316.3522
				L292.03627,316.83225L291.31637,317.07227L291.31637,317.3123L290.59648,317.55232L290.35652,317.79235L290.11655,317.55232L
				290.11655,317.3123L289.87659,316.59222L289.63663,315.63213L289.63663,315.15208L289.87659,314.432L290.35652,313.71193L290.83645,313.23188
				L290.83645,312.99186L290.11655,312.03176L289.63663,311.55171L289.1567,311.31169L288.91673,311.31169L288.43681,311.55171L
				287.95688,311.55171L287.71691,311.31169L287.71691,311.07166L288.19684,310.59161L288.67677,310.11156L288.91673,309.87154L
				289.1567,309.87154L290.35652,308.91144L291.07641,308.19137L291.55634,307.71132L291.55634,307.4713L291.7963,306.75122L292.03627,306.5112
				L292.03627,306.03115L292.51619,304.591L292.75616,304.35098L292.75616,303.87093L292.75616,302.43078L292.99612,301.47068L293.23609,301.23066
				L293.23609,300.99064L293.47605,300.75061L294.19594,300.27056L295.63573,299.79051L296.35562,299.55049L297.31548,299.07044
				L297.7954,298.59039L298.03537,298.35037L298.03537,298.11034L298.03537,297.15024L297.7954,296.19015L297.55544,295.7101L297.55544,294.50998
				L297.55544,293.54988L297.7954,292.8298L297.7954,292.10973L297.7954,291.62968L297.55544,290.90961L297.31548,289.94951L297.07551,288.50937
				L297.07551,288.02932L297.55544,287.30924L297.31548,286.10912L297.55544,285.14902L297.55544,284.909L297.55544,284.42895L297.55544,284.18893
				L297.07551,283.22883L296.83555,281.54866L296.83555,280.58856L297.07551,280.10851L297.31548,279.86849L297.7954,279.14841L
				298.5153,278.42834L298.75526,278.18831L298.99522,277.70827L299.23519,277.70827L299.23519,276.98819L299.23519,276.50814L299.23519,276.02809
				L298.99522,275.54805L298.5153,275.30802L298.5153,275.068L297.55544,274.58795L297.07551,274.1079L295.87569,273.38783L295.63573,273.38783
				L294.91584,272.66775L293.95598,272.1877L292.99612,271.94768L292.51619,271.94768L292.03627,271.70766L291.7963,271.46763L290.83645,271.22761
				L290.59648,270.98758L290.11655,270.98758L290.35652,270.26751L290.83645,268.34731L290.83645,267.38722L291.31637,265.94707
				L291.31637,265.46702L291.31637,264.98697L291.31637,264.74695L291.07641,264.50692L291.07641,264.02687L290.83645,263.3068L
				290.59648,262.82675L289.87659,262.3467L289.63663,261.86665L289.63663,261.62663L289.63663,261.14658L289.87659,261.14658L290.83645,260.66653
				L291.31637,260.42651L291.55634,260.18648L291.55634,259.70643L291.7963,259.46641L291.7963,259.22638L292.51619,258.98636L292.99612,258.02626
				L293.71601,257.06616L293.95598,256.34609L294.91584,255.62602L295.39576,255.38599L297.55544,254.66592L298.75526,253.94585
				L299.95508,252.74573L300.91494,252.5057L301.87479,252.5057L302.59469,252.5057L303.31458,252.98575L304.5144,253.22577L304.99433,253.22577
				L306.43411,252.98575L307.154,252.74573L308.11386,252.5057L308.59379,252.74573L309.07372,252.74573L310.75346,252.74573L312.19325,252.26568
				L312.43321,252.02565L313.63303,251.78563L314.83285,251.5456L315.79271,251.06555L316.5126,250.58551L318.43231,249.86543L319.63213,249.38538
				L321.07192,249.38538L322.03177,249.14536L322.5117,248.66531L322.75167,249.14536L323.23159,250.10546L323.47156,250.58551L
				323.95149,250.82553L325.15131,250.82553L327.07102,251.30558L328.03088,251.30558L328.5108,250.82553L329.47066,250.34548L329.95059,250.34548
				L330.43052,250.34548L331.15041,249.86543L333.07012,250.58551L334.50991,251.30558L335.46976,251.30558L335.94969,251.5456L
				336.42962,252.02565L337.62944,252.26568L338.10937,252.5057L338.34933,252.5057L339.30919,252.26568L341.2289,251.5456L342.66868,250.82553
				L344.10847,250.58551L346.98804,250.10546L348.42782,249.62541L350.5875,248.42529L351.30739,248.18526L351.54735,248.42529L
				352.02728,249.14536L352.50721,252.02565L353.70703,253.4658L353.947,254.4259L354.42692,255.62602L354.18696,256.82614L354.90685,258.02626
				L354.42692,259.22638L354.42692,260.42651L354.42692,262.3467L354.42692,262.82675L354.42692,263.06678L354.66689,264.2669L354.90685,266.18709
				L354.90685,267.38722L355.14682,268.58734L355.38678,269.06739L355.38678,269.30741L355.62674,270.02748L356.5866,272.1877L356.82656,273.62785
				L356.82656,274.34792L357.06653,274.82797L357.54646,275.78807L358.26635,276.98819L358.26635,277.22822L358.50631,277.70827
				L358.74628,277.94829L359.2262,278.66836L359.2262,278.90839L359.9461,280.10851L360.66599,281.06861L360.90595,281.30863L361.14592,281.30863
				L362.10577,281.30863L362.82567,281.30863L363.06563,281.30863L364.74538,281.30863L366.42513,281.54866L367.86491,281.54866
				L369.06473,281.54866L370.74448,281.54866L372.42423,281.78868L374.5839,281.78868z"/>
			<path clip-path="url(#SVG_CP_1)" fill="#73B273" fill-rule="evenodd" stroke="#000000" stroke-width="0.95986" stroke-miterlimit="10" stroke-linecap="round" stroke-linejoin="round" d="
				M329.95059,215.78196L330.43052,215.78196L331.39037,216.02199L332.11027,216.02199L334.50991,217.22211L338.58929,217.46213
				L339.30919,217.70216L341.46886,218.90228L341.94879,219.38233L342.18876,219.86238L342.18876,220.34243L342.42872,222.0226L
				342.42872,222.74267L342.90865,223.22272L343.62854,223.70277L344.82836,223.70277L345.30829,223.70277L346.02818,223.94279L
				347.228,224.66287L348.18786,225.38294L349.14771,226.34304L350.10757,227.06311L351.54735,227.78318L352.50721,228.02321L354.18696,228.02321
				L356.34664,228.50326L356.82656,228.50326L359.2262,228.50326L360.66599,228.98331L361.86581,229.46336L362.5857,229.70338L363.78552,229.9434
				L364.74538,230.66348L365.22531,231.14353L365.9452,231.62358L366.18516,231.62358L366.66509,232.10362L368.10487,235.22394L
				368.82477,235.94402L368.82477,236.42406L369.06473,237.86421L369.54466,238.34426L370.50452,240.02443L370.74448,240.50448L
				370.98444,240.98453L371.46437,241.46458L372.42423,242.18465L372.66419,242.6647L372.90416,244.10485L373.38408,244.82492L373.14412,246.98514
				L373.14412,247.22516L373.38408,247.22516L373.38408,247.46519L374.10398,248.90533L374.34394,250.34548L375.54376,251.5456L
				376.26365,252.5057L376.74358,253.4658L376.74358,253.70582L376.74358,253.94585L376.98355,254.18587L376.74358,254.90594L376.74358,255.38599
				L376.26365,256.34609L376.26365,257.06616L375.54376,256.82614L374.82387,256.58612L373.86401,256.82614L371.22441,256.58612
				L370.50452,256.82614L370.26455,256.82614L370.26455,257.06616L370.26455,258.02626L370.02459,259.22638L370.02459,260.66653
				L370.02459,260.90656L370.02459,261.14658L369.78462,261.3866L370.02459,262.58673L369.78462,263.54682L369.78462,264.2669L369.78462,264.50692
				L369.78462,265.227L369.78462,265.94707L369.54466,266.90717L369.3047,267.14719L368.82477,268.82736L368.82477,269.30741L368.82477,269.78746
				L369.06473,269.78746L369.54466,270.26751L370.02459,270.74756L370.74448,271.46763L371.22441,271.94768L371.70434,272.1877L
				372.18426,272.66775L372.66419,273.1478L373.62405,273.62785L373.86401,273.86787L374.10398,274.34792L374.34394,274.82797L374.5839,275.068
				L374.82387,276.26812L374.82387,279.14841L374.82387,280.10851L374.5839,280.34853L374.5839,280.82858L374.5839,281.54866L374.5839,281.78868
				L372.42423,281.78868L370.74448,281.54866L369.06473,281.54866L367.86491,281.54866L366.42513,281.54866L364.74538,281.30863
				L363.06563,281.30863L362.82567,281.30863L362.10577,281.30863L361.14592,281.30863L360.90595,281.30863L360.66599,281.06861
				L359.9461,280.10851L359.2262,278.90839L359.2262,278.66836L358.74628,277.94829L358.50631,277.70827L358.26635,277.22822L358.26635,276.98819
				L357.54646,275.78807L357.06653,274.82797L356.82656,274.34792L356.82656,273.62785L356.5866,272.1877L355.62674,270.02748L355.38678,269.30741
				L355.38678,269.06739L355.14682,268.58734L354.90685,267.38722L354.90685,266.18709L354.66689,264.2669L354.42692,263.06678L
				354.42692,262.82675L354.42692,262.3467L354.42692,260.42651L354.42692,259.22638L354.90685,258.02626L354.18696,256.82614L354.42692,255.62602
				L353.947,254.4259L353.70703,253.4658L352.50721,252.02565L352.02728,249.14536L351.54735,248.42529L351.30739,248.18526L350.5875,248.42529
				L348.42782,249.62541L346.98804,250.10546L344.10847,250.58551L342.66868,250.82553L341.2289,251.5456L339.30919,252.26568L338.34933,252.5057
				L338.10937,252.5057L337.62944,252.26568L336.42962,252.02565L335.94969,251.5456L335.46976,251.30558L334.50991,251.30558L333.07012,250.58551
				L331.15041,249.86543L330.43052,250.34548L329.95059,250.34548L329.47066,250.34548L328.5108,250.82553L328.03088,251.30558L
				327.07102,251.30558L325.15131,250.82553L323.95149,250.82553L323.47156,250.58551L323.23159,250.10546L322.75167,249.14536L
				322.5117,248.66531L322.03177,249.14536L321.07192,249.38538L319.63213,249.38538L318.43231,249.86543L316.5126,250.58551L315.79271,251.06555
				L314.83285,251.5456L313.63303,251.78563L312.43321,252.02565L312.19325,252.26568L310.75346,252.74573L309.07372,252.74573L
				308.59379,252.74573L308.11386,252.5057L307.154,252.74573L306.43411,252.98575L304.99433,253.22577L304.5144,253.22577L303.31458,252.98575
				L302.59469,252.5057L301.87479,252.5057L300.91494,252.5057L299.95508,252.74573L298.75526,253.94585L297.55544,254.66592L295.39576,255.38599
				L294.91584,255.62602L293.95598,256.34609L293.71601,257.06616L292.99612,258.02626L292.51619,258.98636L291.7963,259.22638L
				291.7963,259.46641L291.55634,259.70643L291.55634,260.18648L291.31637,260.42651L290.83645,260.66653L289.87659,261.14658L289.63663,261.14658
				L289.63663,261.62663L289.63663,261.86665L289.87659,262.3467L290.59648,262.82675L290.83645,263.3068L291.07641,264.02687L291.07641,264.50692
				L291.31637,264.74695L291.31637,264.98697L291.31637,265.46702L291.31637,265.94707L290.83645,267.38722L290.83645,268.34731
				L290.35652,270.26751L290.11655,270.98758L290.59648,270.98758L290.83645,271.22761L291.7963,271.46763L292.03627,271.70766L
				292.51619,271.94768L292.99612,271.94768L293.95598,272.1877L294.91584,272.66775L295.63573,273.38783L295.87569,273.38783L297.07551,274.1079
				L297.55544,274.58795L298.5153,275.068L298.5153,275.30802L298.99522,275.54805L299.23519,276.02809L299.23519,276.50814L299.23519,276.98819
				L299.23519,277.70827L298.99522,277.70827L298.75526,278.18831L298.5153,278.42834L297.7954,279.14841L297.31548,279.86849L297.07551,280.10851
				L296.83555,280.58856L296.83555,281.54866L297.07551,283.22883L297.55544,284.18893L297.55544,284.42895L297.55544,284.909L297.55544,285.14902
				L297.31548,286.10912L297.55544,287.30924L297.07551,288.02932L297.07551,288.50937L297.31548,289.94951L297.55544,290.90961
				L297.7954,291.62968L297.7954,292.10973L297.7954,292.8298L297.55544,293.54988L297.55544,294.50998L297.55544,295.7101L297.7954,296.19015
				L298.03537,297.15024L298.03537,298.11034L298.03537,298.35037L297.7954,298.59039L297.31548,299.07044L296.35562,299.55049L
				295.63573,299.79051L294.19594,300.27056L293.47605,300.75061L293.23609,300.99064L293.23609,301.23066L292.99612,301.47068L
				292.75616,302.43078L292.75616,303.87093L292.75616,304.35098L292.51619,304.591L292.03627,306.03115L292.03627,306.5112L291.7963,306.75122
				L291.55634,307.4713L291.55634,307.71132L291.07641,308.19137L290.35652,308.91144L289.1567,309.87154L288.91673,309.87154L288.67677,310.11156
				L288.19684,310.59161L287.71691,311.07166L287.71691,311.31169L287.95688,311.55171L288.43681,311.55171L288.91673,311.31169
				L289.1567,311.31169L289.63663,311.55171L290.11655,312.03176L290.83645,312.99186L290.83645,313.23188L290.35652,313.71193L
				289.87659,314.432L289.63663,315.15208L289.63663,315.63213L289.87659,316.59222L290.11655,317.3123L290.11655,317.55232L290.35652,317.79235
				L290.59648,317.55232L290.59648,318.03237L290.59648,318.75244L290.59648,319.23249L290.83645,319.71254L291.55634,320.67264
				L291.55634,321.15269L291.55634,322.11279L291.31637,322.59283L290.83645,323.07288L290.35652,323.55293L290.11655,323.79296
				L289.87659,324.27301L289.63663,324.75305L289.39666,324.99308L289.1567,324.99308L289.1567,324.75305L288.91673,324.51303L288.67677,324.03298
				L288.43681,323.55293L288.19684,323.07288L287.47695,321.87276L286.99702,320.67264L286.75706,320.19259L285.55724,319.23249
				L285.31727,318.75244L285.07731,318.27239L285.07731,317.79235L285.07731,316.83225L285.07731,316.3522L285.07731,315.87215L
				284.83734,315.15208L284.11745,314.432L283.39756,314.19198L282.91763,313.95195L281.95778,313.71193L281.95778,313.47191L281.47785,313.47191
				L280.99792,313.47191L280.51799,313.47191L279.7981,313.47191L279.31817,313.47191L278.11835,312.27178L277.63842,311.55171L
				276.91853,310.11156L276.19864,308.67142L275.71871,308.19137L275.71871,306.99125L275.71871,306.03115L275.95867,304.591L276.4386,302.91083
				L277.63842,300.75061L279.07821,299.07044L279.31817,298.11034L279.7981,297.39027L280.27803,296.43017L280.75796,294.50998L
				280.99792,293.54988L280.99792,292.8298L279.7981,290.42956L279.55814,290.18954L279.31817,289.70949L277.39846,288.26934L277.15849,288.26934
				L276.19864,287.30924L275.47875,286.58917L274.51889,285.8691L274.27893,285.38905L273.799,284.42895L273.07911,282.50875L272.83914,281.54866
				L272.59918,279.38844L272.59918,279.14841L272.11925,278.18831L271.15939,276.98819L270.4395,276.26812L269.71961,275.54805L
				267.55993,274.1079L266.36011,273.38783L266.12015,273.1478L265.64022,272.66775L265.40026,272.1877L264.92033,270.74756L265.16029,270.50753
				L264.92033,269.54744L264.92033,269.30741L264.68036,268.82736L264.20044,268.10729L263.72051,267.86726L263.24058,267.38722
				L262.04076,266.90717L260.60097,266.42712L258.92123,265.94707L258.4413,265.94707L257.24148,265.70704L257.00151,265.46702L
				256.76155,265.227L256.52159,264.74695L256.28162,264.50692L256.28162,264.2669L256.52159,263.54682L256.76155,263.06678L256.76155,262.82675
				L257.24148,262.58673L257.96137,262.10668L258.4413,262.10668L258.92123,262.10668L259.64112,262.10668L260.84094,262.3467L261.32087,262.10668
				L262.04076,262.10668L262.28072,261.86665L263.00061,261.62663L263.24058,261.3866L263.72051,261.14658L264.20044,260.90656L
				265.16029,260.42651L266.12015,259.22638L267.55993,258.50631L268.27982,256.58612L268.99972,255.14597L270.19954,252.5057L269.71961,249.62541
				L267.7999,246.98514L265.64022,244.82492L264.20044,239.78441L263.96047,238.34426L263.96047,237.62419L263.72051,237.62419L
				263.96047,235.94402L264.4404,233.06372L264.4404,232.8237L264.4404,232.34365L265.40026,231.14353L267.08,228.74328L267.7999,228.02321
				L268.27982,225.62296L270.19954,223.94279L273.07911,223.46274L280.51799,223.22272L281.47785,221.54255L283.63752,218.66226
				L285.7972,215.30191L287.47695,212.90167L287.95688,211.46152L288.43681,210.98147L288.67677,209.78135L289.1567,208.58123L289.63663,207.38111
				L289.87659,206.66103L290.59648,204.26079L293.71601,204.50081L294.43591,204.74084L295.1558,205.22089L296.35562,206.42101L
				298.27533,207.38111L298.75526,207.62113L299.47515,207.62113L300.19504,207.14108L301.63483,205.70094L302.35472,205.46091L
				302.83465,205.46091L303.55454,205.46091L304.99433,206.18099L308.35382,206.90106L309.55364,207.38111L310.75346,209.3013L311.95328,209.54133
				L313.63303,210.50143L314.11296,210.50143L316.03267,210.50143L316.75257,210.98147L316.99253,210.98147L317.23249,211.70155
				L317.47246,212.42162L317.71242,212.90167L318.19235,213.14169L318.43231,213.62174L318.67228,214.34182L319.15221,215.06189
				L320.11206,215.54194L321.07192,216.26201L322.75167,216.74206L323.23159,216.74206L326.59109,216.26201L327.79091,216.26201
				L329.47066,216.02199L329.95059,215.78196z"/>
		</g>
		<g id="Labels">
			<g id="WordFile_-_Default">
				<g font-family="'Arial'" font-size="1" kerning="0" font-weight="400" fill="#000000" clip-path="url(#SVG_CP_1)" >
					<text text-anchor="start" transform="matrix(7.91881 0 0 7.92081 455.45179 123.13417)" >
						<tspan direction="ltr" unicode-bidi="embed" x="0 ">5</tspan>
					</text>
				</g>
				<g font-family="'Arial'" font-size="1" kerning="0" font-weight="400" fill="#000000" clip-path="url(#SVG_CP_1)" >
					<text text-anchor="start" transform="matrix(7.91881 0 0 7.92081 360.42602 346.11687)" >
						<tspan direction="ltr" unicode-bidi="embed" x="0 ">1</tspan>
					</text>
				</g>
				<g font-family="'Arial'" font-size="1" kerning="0" font-weight="400" fill="#000000" clip-path="url(#SVG_CP_1)" >
					<text text-anchor="start" transform="matrix(7.91881 0 0 7.92081 306.67407 233.78544)" >
						<tspan direction="ltr" unicode-bidi="embed" x="0 ">3</tspan>
					</text>
				</g>
				<g font-family="'Arial'" font-size="1" kerning="0" font-weight="400" fill="#000000" clip-path="url(#SVG_CP_1)" >
					<text text-anchor="start" transform="matrix(7.91881 0 0 7.92081 387.78193 169.45889)" >
						<tspan direction="ltr" unicode-bidi="embed" x="0 ">6</tspan>
					</text>
				</g>
				<g font-family="'Arial'" font-size="1" kerning="0" font-weight="400" fill="#000000" clip-path="url(#SVG_CP_1)" >
					<text text-anchor="start" transform="matrix(7.91881 0 0 7.92081 326.35113 286.59081)" >
						<tspan direction="ltr" unicode-bidi="embed" x="0 ">2</tspan>
					</text>
				</g>
				<g font-family="'Arial'" font-size="1" kerning="0" font-weight="400" fill="#000000" clip-path="url(#SVG_CP_1)" >
					<text text-anchor="start" transform="matrix(7.91881 0 0 7.92081 335.94969 169.45889)" >
						<tspan direction="ltr" unicode-bidi="embed" x="0 ">4</tspan>
					</text>
				</g>
				<g font-family="'Arial'" font-size="1" kerning="0" font-weight="400" fill="#000000" clip-path="url(#SVG_CP_1)" >
					<text text-anchor="start" transform="matrix(7.91881 0 0 7.92081 396.6606 229.94505)" >
						<tspan direction="ltr" unicode-bidi="embed" x="0 ">8</tspan>
					</text>
				</g>
				<g font-family="'Arial'" font-size="1" kerning="0" font-weight="400" fill="#000000" clip-path="url(#SVG_CP_1)" >
					<text text-anchor="start" transform="matrix(7.91881 0 0 7.92081 426.65611 215.06353)" >
						<tspan direction="ltr" unicode-bidi="embed" x="0 ">9</tspan>
					</text>
				</g>
				<g font-family="'Arial'" font-size="1" kerning="0" font-weight="400" fill="#000000" clip-path="url(#SVG_CP_1)" >
					<text text-anchor="start" transform="matrix(7.91881 0 0 7.92081 386.10218 204.26243)" >
						<tspan direction="ltr" unicode-bidi="embed" x="0 ">7</tspan>
					</text>
				</g>
			</g>
		</g>
	</g>
</svg>
