<?xml version="1.0" encoding="utf-8" standalone="no"?>
<!-- Creator: Esri ArcMap 10.6.1.9270 -->
<!DOCTYPE svg PUBLIC "-//W3C//DTD SVG 1.1//EN"  "http://www.w3.org/Graphics/SVG/1.1/DTD/svg11.dtd">
<svg width="813.74173pt" height="434.23937pt" viewBox="0 0 813.74173 434.23937" enable-background="new 0 0 813.74173 434.23937"
	version="1.1" xmlns="http://www.w3.org/2000/svg" xmlns:xlink="http://www.w3.org/1999/xlink" >
	<g id="Layers">
		<g id="WordFile">
			<clipPath id="SVG_CP_1">
				<path d="M0,434.23937L0,0L813.74173,0L813.74173,434.23937L0,434.23937z"/>
			</clipPath>
			<path clip-path="url(#SVG_CP_1)" fill="#73B273" fill-rule="evenodd" stroke="#000000" stroke-width="0.95986" stroke-miterlimit="10" stroke-linecap="round" stroke-linejoin="round" d="
				M238.76424,50.88518L239.7241,51.1252L244.04345,51.60525L245.24327,51.84528L249.0827,53.0454L252.92212,55.20562L254.60187,56.64577
				L255.80169,58.32594L257.24148,60.96621L257.72141,62.40635L259.64112,67.44687L262.28072,71.28726L263.72051,72.96743L266.12015,74.40757
				L271.15939,76.80782L271.15939,77.76792L270.91943,78.48799L266.60008,79.92814L266.12015,80.40818L265.88018,80.88823L265.88018,81.36828
				L266.12015,81.84833L267.31997,82.32838L268.27982,82.32838L269.71961,82.5684L276.4386,82.32838L278.11835,82.80843L279.07821,83.28848
				L280.99792,84.96865L281.47785,85.68872L282.91763,86.88884L283.87749,87.12887L284.59738,87.36889L286.75706,87.36889L287.71691,87.84894
				L288.43681,88.80904L290.83645,89.04906L291.55634,90.00916L291.7963,91.68933L292.51619,93.12948L292.99612,93.84955L293.71601,94.3296
				L294.43591,94.3296L295.1558,94.08958L295.63573,92.88945L295.87569,92.16938L296.59558,91.68933L297.55544,91.44931L298.27533,92.16938
				L298.5153,92.64943L298.75526,94.80965L299.23519,96.00977L300.67497,97.68994L301.1549,97.92997L302.11476,98.16999L304.27443,97.92997
				L306.91404,98.16999L309.79361,99.61014L311.23339,99.85016L311.95328,100.33021L312.91314,101.05029L313.39307,102.01038L314.59289,106.81087
				L314.59289,107.77097L314.59289,108.25102L315.07282,109.93119L316.03267,110.89129L316.5126,111.37134L318.43231,111.61136L
				319.63213,111.85138L320.59199,112.57146L321.07192,113.53156L321.31188,115.45175L321.55185,116.8919L321.07192,118.09202L320.83195,118.33204
				L320.11206,120.01222L319.15221,121.45236L317.71242,123.85261L316.03267,125.7728L315.79271,126.49288L315.31278,128.41307L
				313.63303,131.05334L311.23339,135.6138L309.07372,138.4941L307.87389,139.93424L307.154,141.13437L304.27443,144.49471L303.31458,145.69483
				L300.19504,148.57512L299.71512,148.81515L295.39576,147.13498L292.99612,145.4548L292.27623,144.97476L291.31637,144.73473L
				289.39666,143.77463L288.43681,143.77463L285.7972,144.01466L283.87749,143.77463L282.19774,143.29459L280.99792,143.05456L279.7981,143.29459
				L278.83824,144.01466L278.11835,144.97476L277.87839,146.17488L277.39846,147.61502L277.15849,150.73534L276.67857,151.93546
				L274.99882,153.85566L273.31907,154.81576L272.59918,155.77586L271.87929,156.49593L270.91943,159.37622L269.95957,160.57634
				L268.99972,161.53644L267.55993,161.53644L266.36011,161.29642L265.40026,160.81637L263.48054,160.81637L261.80079,160.33632
				L261.32087,160.0963L260.36101,159.37622L259.40115,158.65615L258.4413,157.216L257.72141,156.73595L256.52159,156.01588L255.56173,155.77586
				L252.4422,154.33571L251.48234,154.09568L251.00241,154.09568L250.04256,154.57573L249.0827,154.81576L248.84273,157.216L250.28252,161.77647
				L250.04256,162.25652L249.56263,162.73656L248.12284,163.21661L246.92302,163.21661L245.24327,162.97659L243.32356,162.97659
				L241.16388,162.25652L239.48414,162.01649L235.88468,162.25652L234.44489,162.73656L231.08539,163.69666L226.28611,163.93669
				L221.96676,163.69666L217.88737,162.49654L215.48773,162.25652L213.80798,162.25652L209.24866,162.97659L205.88917,162.97659
				L203.96945,162.73656L202.04974,162.25652L198.21032,162.25652L196.77053,162.01649L195.33075,161.77647L193.651,162.25652L192.45118,162.97659
				L190.2915,164.65676L187.41193,167.29703L186.45208,168.0171L185.25226,169.21722L184.05244,170.89739L183.33255,171.37744L181.89276,173.77769
				L179.25316,176.89801L178.2933,177.61808L177.09348,178.57818L176.13362,177.8581L174.21391,176.17793L173.25405,175.21783L172.53416,173.29764
				L172.53416,168.73717L172.05423,167.53705L171.09438,165.85688L169.65459,164.17671L169.17467,162.73656L169.41463,161.77647
				L170.13452,160.57634L170.85441,159.61625L173.01409,156.2559L173.97395,155.29581L175.17377,153.61564L175.89366,152.17549L
				177.57341,149.53522L178.05334,148.3351L178.2933,147.375L179.01319,146.4149L179.97305,145.4548L180.9329,143.53461L181.41283,142.09446
				L181.6528,141.13437L182.37269,139.45419L182.61265,136.09385L183.09258,134.89373L183.81247,133.45358L184.77233,130.81331L
				185.73219,129.13314L185.97215,128.17305L186.45208,126.25285L187.41193,121.93241L188.85172,119.77219L189.33165,118.57207L
				189.81158,116.65187L189.81158,115.45175L189.33165,114.73168L188.13183,113.05151L187.17197,112.09141L186.69204,111.61136L
				186.45208,110.41124L186.45208,109.93119L186.21211,108.73107L185.73219,107.77097L185.73219,107.29092L185.25226,106.0908L185.97215,104.65065
				L186.93201,104.1706L189.33165,104.1706L192.69114,104.65065L194.37089,105.1307L196.05064,105.85077L198.45028,107.77097L198.93021,108.01099
				L201.32985,110.65126L202.76963,111.13131L203.24956,110.89129L204.20942,110.17121L204.20942,109.21112L203.0096,107.77097L
				201.32985,105.61075L199.89007,103.21051L198.69025,101.05029L198.45028,99.61014L197.73039,98.65004L197.73039,98.16999L197.73039,96.72985
				L197.73039,96.00977L198.69025,94.80965L199.17017,94.3296L207.08899,89.76914L208.28881,88.56902L209.0087,87.36889L209.0087,85.92875
				L208.52877,84.96865L207.32895,84.24858L206.12913,84.00855L203.48953,84.00855L202.52967,83.76853L201.32985,83.5285L200.36999,83.04845
				L198.69025,82.08836L198.21032,81.12826L197.73039,80.16816L197.0105,78.00794L197.0105,76.80782L196.2906,75.36767L195.57071,74.6476
				L192.69114,72.7274L191.73129,71.76731L190.2915,69.12704L191.0114,68.16694L191.73129,67.68689L192.93111,67.68689L194.13093,67.68689
				L195.33075,68.40696L198.45028,67.44687L201.80978,66.96682L204.68935,65.52667L206.84902,63.36645L208.04884,61.44625L208.28881,60.96621
				L208.28881,58.08591L208.52877,57.36584L208.52877,55.20562L209.72859,52.0853L210.44848,51.1252L211.40834,50.40513L213.32805,50.16511
				L214.52787,50.64516L217.40744,52.56535L219.08719,53.28542L219.56712,53.76547L220.76694,55.44564L222.92662,55.92569L227.00601,57.84589
				L229.16568,58.56596L230.3655,58.80599L232.04525,58.56596L234.44489,57.36584L235.16478,57.12581L237.0845,54.72557L238.52428,51.84528
				L238.76424,50.88518z"/>
			<path clip-path="url(#SVG_CP_1)" fill="#73B273" fill-rule="evenodd" stroke="#000000" stroke-width="0.95986" stroke-miterlimit="10" stroke-linecap="round" stroke-linejoin="round" d="
				M495.52579,176.65798L494.32597,176.89801L492.64622,176.89801L490.24658,177.61808L489.52669,177.61808L487.84694,178.09813
				L478.96827,180.97842L476.0887,181.69849L472.00931,181.69849L470.32957,181.93852L469.60967,182.41857L469.36971,183.13864L
				469.36971,184.09874L470.32957,185.29886L471.76935,185.77891L472.48924,186.25896L473.68906,189.13925L474.40896,189.6193L476.32867,190.09935
				L478.00842,190.09935L480.64802,189.37928L482.32777,189.37928L483.52759,189.85932L484.48745,190.81942L484.96737,191.29947
				L485.92723,191.05945L486.88709,191.29947L487.12705,192.01954L487.12705,192.97964L486.64712,193.93974L487.12705,194.89984
				L488.08691,196.09996L486.88709,198.5002L485.4473,199.94035L482.08781,201.3805L481.12795,202.34059L479.92813,204.02077L479.92813,204.50081
				L479.4482,205.70094L479.4482,205.94096L477.28852,205.94096L473.20913,206.90106L468.88978,207.14108L467.92993,207.38111L463.13064,206.66103
				L460.731,206.18099L458.81129,205.46091L457.61147,204.50081L457.13154,204.02077L454.97187,202.58062L453.53208,201.86055L450.41255,200.90045
				L449.21273,200.66042L446.0932,200.66042L444.17348,201.14047L442.49373,202.10057L441.77384,202.58062L441.53388,202.82064L
				440.33406,204.02077L438.17438,205.22089L437.45449,205.46091L436.0147,205.46091L435.29481,205.70094L434.33496,205.94096L433.85503,206.18099
				L433.85503,206.66103L434.33496,209.3013L434.33496,211.70155L434.33496,212.66165L433.85503,213.14169L433.3751,213.62174L431.69535,213.38172
				L428.33585,213.62174L427.13603,213.62174L425.69625,213.14169L424.97636,213.14169L424.25647,213.14169L423.53657,213.62174
				L423.53657,213.86177L423.77654,215.30191L421.3769,214.58184L418.25736,214.82187L415.85772,214.34182L414.41794,214.10179L
				412.73819,213.38172L410.33855,211.46152L408.41884,210.74145L405.53927,210.50143L404.09948,210.74145L402.41974,210.74145L
				400.50002,210.74145L399.3002,210.02138L399.06024,209.54133L400.97995,206.42101L402.17977,205.46091L407.21902,201.86055L408.6588,200.4204
				L409.13873,199.4603L409.13873,198.02016L409.13873,197.54011L408.89877,193.69972L407.93891,191.29947L407.21902,190.5794L406.73909,190.09935
				L404.57941,189.6193L401.45988,189.6193L399.78013,189.85932L397.38049,190.81942L395.22081,191.29947L394.26096,191.5395L393.54107,191.77952
				L391.86132,191.29947L391.38139,190.81942L391.14142,190.5794L391.62135,188.6592L392.82117,186.49898L394.26096,185.05884L394.74089,184.33876
				L397.14053,181.93852L398.10038,180.49837L399.78013,179.05823L402.6597,178.09813L403.61956,178.09813L404.81938,177.37805L
				405.77923,176.65798L406.0192,176.41796L406.0192,175.69788L405.53927,174.01771L405.77923,172.57757L406.0192,172.33754L407.21902,172.09752
				L408.89877,172.57757L409.85862,172.57757L411.77833,171.61747L413.21812,170.89739L413.93801,171.13742L414.17798,171.85749
				L413.93801,172.81759L413.45808,173.77769L412.49823,175.21783L412.25826,175.69788L412.49823,176.17793L412.97815,177.13803
				L414.41794,177.8581L414.89787,178.09813L416.57762,178.09813L417.53747,177.13803L418.25736,176.17793L418.49733,175.69788L
				418.49733,174.01771L418.49733,169.69727L419.69715,164.41673L419.69715,161.77647L419.21722,160.0963L419.45718,159.37622L420.41704,158.1761
				L422.57672,156.2559L424.25647,153.61564L424.97636,152.89556L426.41614,151.93546L429.05575,151.45542L430.25557,150.73534L
				432.17528,149.05517L433.61506,148.3351L436.49463,147.375L438.17438,146.65493L439.13424,146.65493L439.85413,146.89495L440.57402,147.375
				L441.05395,148.09507L441.77384,148.3351L443.45359,149.05517L444.41345,149.2952L446.33316,149.2952L447.53298,149.53522L449.21273,150.01527
				L450.65251,150.97537L451.13244,151.21539L452.0923,150.73534L452.33226,150.01527L452.81219,148.81515L453.29212,146.89495L
				452.57223,145.69483L451.85233,145.21478L449.93262,145.4548L449.45269,145.4548L448.97276,144.97476L447.29302,141.61441L445.13334,139.45419
				L444.89338,138.4941L444.65341,136.81393L445.13334,135.37378L445.85323,133.69361L448.97276,129.61319L450.89248,127.45297L
				453.05215,126.01283L453.77205,125.05273L454.7319,126.49288L455.21183,127.21295L455.93172,127.693L456.89158,129.61319L459.77115,132.01344
				L463.85054,136.81393L466.73011,138.73412L467.92993,139.21417L471.76935,140.17427L472.96917,140.89434L473.4491,141.13437L
				473.92903,141.85444L473.68906,143.53461L474.40896,145.4548L475.36881,146.17488L478.00842,147.61502L479.20824,147.61502L482.08781,148.57512
				L482.8077,149.05517L483.28763,150.01527L483.28763,151.45542L482.8077,152.89556L482.32777,157.216L482.32777,158.41612L483.04766,160.0963
				L483.76755,160.81637L486.16719,162.97659L487.84694,164.17671L491.4464,165.85688L492.40626,166.81698L493.60608,167.53705L
				494.56594,168.49715L495.52579,170.89739L496.48565,173.53766L496.00572,175.69788L495.52579,176.65798z"/>
			<path clip-path="url(#SVG_CP_1)" fill="#73B273" fill-rule="evenodd" stroke="#000000" stroke-width="0.95986" stroke-miterlimit="10" stroke-linecap="round" stroke-linejoin="round" d="
				M357.54646,45.12459L357.30649,46.32472L356.82656,48.48494L356.34664,49.20501L356.34664,53.52545L356.10667,54.48555L355.86671,55.20562
				L354.42692,56.64577L354.42692,56.88579L354.66689,57.84589L356.82656,61.20623L357.30649,62.8864L357.30649,64.56657L358.26635,66.48677
				L358.74628,66.96682L359.9461,67.68689L361.38588,68.16694L364.74538,67.92691L366.42513,68.16694L370.50452,71.52728L371.22441,72.00733
				L372.66419,72.7274L374.82387,73.20745L379.86311,73.44748L381.54286,73.92752L382.50272,74.88762L382.50272,75.84772L382.26275,77.52789
				L382.26275,78.24796L383.9425,79.92814L385.14232,81.12826L386.34214,81.60831L389.46168,82.80843L390.42153,83.28848L393.54107,85.68872
				L395.70074,88.32899L397.38049,91.44931L399.06024,93.3695L400.0201,93.60953L401.21992,94.56963L402.89966,95.2897L406.0192,95.76975
				L410.33855,97.20989L414.17798,99.85016L416.09769,101.53033L419.45718,103.45053L421.85683,104.89068L425.69625,106.81087L426.65611,107.77097
				L430.97546,111.37134L431.69535,111.61136L431.93532,112.09141L433.13514,112.81148L436.7346,114.25163L439.61417,115.21173L
				441.05395,115.9318L441.53388,116.41185L441.77384,116.65187L442.01381,117.13192L443.93352,118.81209L448.01291,121.21234L449.21273,121.69239
				L451.85233,123.13253L452.81219,123.85261L453.77205,125.05273L453.05215,126.01283L450.89248,127.45297L448.97276,129.61319
				L445.85323,133.69361L445.13334,135.37378L444.65341,136.81393L444.89338,138.4941L445.13334,139.45419L447.29302,141.61441L
				448.97276,144.97476L449.45269,145.4548L449.93262,145.4548L451.85233,145.21478L452.57223,145.69483L453.29212,146.89495L452.81219,148.81515
				L452.33226,150.01527L452.0923,150.73534L451.13244,151.21539L450.65251,150.97537L449.21273,150.01527L447.53298,149.53522L
				446.33316,149.2952L444.41345,149.2952L443.45359,149.05517L441.77384,148.3351L441.05395,148.09507L440.57402,147.375L439.85413,146.89495
				L439.13424,146.65493L438.17438,146.65493L436.49463,147.375L433.61506,148.3351L432.17528,149.05517L430.25557,150.73534L429.05575,151.45542
				L426.41614,151.93546L424.97636,152.89556L424.25647,153.61564L422.57672,156.2559L420.41704,158.1761L419.45718,159.37622L419.21722,160.0963
				L419.69715,161.77647L419.69715,164.41673L418.49733,169.69727L418.49733,174.01771L418.49733,175.69788L418.25736,176.17793
				L417.53747,177.13803L416.57762,178.09813L414.89787,178.09813L414.41794,177.8581L412.97815,177.13803L412.49823,176.17793L
				412.25826,175.69788L412.49823,175.21783L413.45808,173.77769L413.93801,172.81759L414.17798,171.85749L413.93801,171.13742L
				413.21812,170.89739L411.77833,171.61747L409.85862,172.57757L408.89877,172.57757L407.21902,172.09752L406.0192,172.33754L405.77923,172.57757
				L405.53927,174.01771L406.0192,175.69788L406.0192,176.41796L405.77923,176.65798L404.81938,177.37805L403.61956,178.09813L402.6597,178.09813
				L399.78013,179.05823L398.10038,180.49837L397.14053,181.93852L394.74089,184.33876L394.26096,185.05884L393.78103,184.57879
				L391.14142,183.13864L390.18157,182.41857L387.06204,179.05823L386.10218,178.09813L383.22261,175.93791L379.62315,174.49776
				L378.18337,174.01771L375.54376,174.73779L373.86401,175.45786L372.90416,176.41796L371.70434,177.61808L370.26455,178.09813
				L369.78462,177.8581L369.3047,177.37805L369.06473,175.93791L369.06473,174.01771L368.82477,173.29764L368.10487,172.33754L366.66509,171.61747
				L364.98534,171.61747L362.82567,171.13742L361.86581,170.65737L360.90595,169.69727L360.42602,168.9772L359.9461,167.53705L361.62585,162.97659
				L361.86581,161.53644L361.86581,161.05639L361.62585,159.85627L360.42602,158.41612L358.02638,157.216L356.34664,155.77586L356.10667,155.77586
				L355.62674,154.81576L355.14682,153.37561L354.42692,152.41551L352.26725,150.97537L351.06743,149.05517L351.06743,146.89495
				L352.02728,144.49471L352.50721,143.53461L352.74717,142.09446L351.78732,139.45419L352.02728,138.73412L352.50721,136.5739L
				352.50721,136.09385L352.02728,135.6138L351.30739,135.13375L350.5875,135.13375L348.66779,136.09385L348.18786,136.5739L345.78822,138.97415
				L345.54825,139.93424L344.5884,140.89434L342.66868,142.09446L342.18876,142.57451L340.26904,143.53461L339.06922,144.25468L
				337.8694,145.21478L336.66958,146.4149L333.79001,150.49532L333.07012,150.97537L332.35023,151.45542L330.91044,151.45542L329.95059,150.97537
				L328.27084,150.73534L325.8712,150.97537L324.91134,151.45542L323.23159,152.41551L321.79181,152.89556L320.83195,152.89556L
				317.95239,152.89556L315.55274,152.41551L313.39307,151.45542L310.75346,150.25529L309.79361,149.77524L307.63393,150.01527L
				306.43411,150.73534L304.75436,151.21539L303.79451,150.97537L302.59469,150.73534L300.43501,149.53522L299.71512,148.81515L
				300.19504,148.57512L303.31458,145.69483L304.27443,144.49471L307.154,141.13437L307.87389,139.93424L309.07372,138.4941L311.23339,135.6138
				L313.63303,131.05334L315.31278,128.41307L315.79271,126.49288L316.03267,125.7728L317.71242,123.85261L319.15221,121.45236L
				320.11206,120.01222L320.83195,118.33204L321.07192,118.09202L321.55185,116.8919L321.31188,115.45175L321.07192,113.53156L320.59199,112.57146
				L319.63213,111.85138L318.43231,111.61136L316.5126,111.37134L316.03267,110.89129L315.07282,109.93119L314.59289,108.25102L
				314.59289,107.77097L314.59289,106.81087L313.39307,102.01038L312.91314,101.05029L311.95328,100.33021L311.23339,99.85016L309.79361,99.61014
				L306.91404,98.16999L304.27443,97.92997L302.11476,98.16999L301.1549,97.92997L300.67497,97.68994L299.23519,96.00977L298.75526,94.80965
				L298.5153,92.64943L298.27533,92.16938L297.55544,91.44931L296.59558,91.68933L295.87569,92.16938L295.63573,92.88945L295.1558,94.08958
				L294.43591,94.3296L293.71601,94.3296L292.99612,93.84955L292.51619,93.12948L291.7963,91.68933L291.55634,90.00916L290.83645,89.04906
				L288.43681,88.80904L287.71691,87.84894L286.75706,87.36889L284.59738,87.36889L283.87749,87.12887L282.91763,86.88884L281.47785,85.68872
				L280.99792,84.96865L279.07821,83.28848L278.11835,82.80843L276.4386,82.32838L269.71961,82.5684L268.27982,82.32838L267.31997,82.32838
				L266.12015,81.84833L265.88018,81.36828L265.88018,80.88823L266.12015,80.40818L266.60008,79.92814L270.91943,78.48799L271.15939,77.76792
				L271.15939,76.80782L266.12015,74.40757L263.72051,72.96743L262.28072,71.28726L259.64112,67.44687L257.72141,62.40635L257.24148,60.96621
				L255.80169,58.32594L254.60187,56.64577L252.92212,55.20562L249.0827,53.0454L245.24327,51.84528L244.04345,51.60525L239.7241,51.1252
				L238.76424,50.88518L239.7241,48.96498L240.44399,45.84467L240.68396,41.2842L240.44399,40.08408L239.96406,39.60403L239.48414,38.40391
				L239.48414,37.92386L239.7241,37.44381L240.44399,37.20379L241.16388,37.20379L241.88378,37.44381L247.64291,39.84406L251.96227,40.80415
				L254.12194,41.52423L257.96137,43.44442L259.64112,44.1645L263.48054,44.64454L264.20044,44.88457L267.08,45.12459L269.47964,45.12459
				L272.11925,44.88457L274.51889,44.40452L280.51799,43.92447L282.19774,43.44442L284.35742,42.72435L288.19684,40.80415L290.59648,39.84406
				L292.03627,39.12398L293.23609,37.92386L294.67587,35.52362L295.1558,32.88335L295.87569,29.04296L297.31548,26.64271L303.55454,18.48188
				L305.23429,16.80171L305.71422,17.28176L305.95418,17.76181L306.67407,18.48188L306.91404,19.44198L306.43411,20.40208L305.95418,21.36217
				L305.95418,22.08225L306.91404,22.80232L308.83375,22.5623L312.67318,20.6421L313.1531,20.6421L313.63303,21.12215L314.35292,23.04235
				L314.59289,24.24247L313.63303,27.12276L313.873,28.80293L314.59289,30.24308L316.5126,32.64332L321.31188,36.00366L322.5117,37.68384
				L323.23159,39.12398L323.47156,40.56413L322.75167,42.72435L322.99163,44.1645L326.11116,46.80476L327.07102,48.00489L327.79091,49.20501
				L328.75077,51.60525L328.99073,53.0454L329.71062,54.72557L329.95059,57.60586L330.43052,58.80599L331.8703,59.52606L332.83016,59.76608
				L333.07012,59.52606L333.79001,58.32594L334.26994,56.40574L335.2298,54.0055L336.42962,52.0853L338.82926,50.16511L341.70883,48.24491
				L342.42872,48.24491L343.62854,47.28481L346.02818,46.32472L347.94789,46.32472L350.82746,45.60464L356.82656,45.12459L357.54646,45.12459
				z"/>
			<path clip-path="url(#SVG_CP_1)" fill="#73B273" fill-rule="evenodd" stroke="#000000" stroke-width="0.95986" stroke-miterlimit="10" stroke-linecap="round" stroke-linejoin="round" d="
				M483.52759,249.38538L484.72741,251.30558L487.84694,254.66592L489.76666,257.78624L490.48655,258.50631L490.48655,258.98636
				L487.12705,259.46641L485.92723,259.70643L484.24748,260.42651L483.28763,261.62663L482.32777,263.3068L480.88798,264.50692L
				479.92813,266.42712L479.4482,268.58734L479.4482,271.22761L479.68816,272.1877L479.92813,273.38783L480.40806,274.1079L481.60788,274.1079
				L483.28763,273.62785L484.00752,273.86787L484.72741,274.34792L486.40716,276.98819L486.64712,278.42834L486.40716,279.62846
				L486.16719,280.82858L484.96737,282.74878L485.20734,284.909L484.96737,285.8691L483.76755,287.54927L483.04766,288.26934L483.04766,290.90961
				L482.32777,292.8298L481.84784,293.54988L481.36791,295.95012L481.12795,296.6702L480.88798,297.39027L479.92813,298.59039L478.96827,299.55049
				L478.24838,300.27056L477.28852,300.99064L476.0887,302.91083L476.32867,304.11095L477.28852,306.03115L478.48834,307.4713L478.24838,308.91144
				L476.8086,311.55171L475.60878,313.47191L473.4491,313.71193L472.48924,314.19198L471.52939,314.91205L470.56953,316.11217L469.84964,317.55232
				L468.16989,318.99247L467.68996,319.71254L467.45,320.19259L468.16989,321.15269L468.40985,321.87276L468.40985,322.59283L467.68996,323.31291
				L467.21003,324.03298L467.45,324.27301L468.16989,325.2331L468.88978,325.47313L470.80949,325.95318L471.52939,326.1932L472.48924,327.1533
				L472.48924,328.1134L472.24928,330.27362L474.40896,336.0342L474.40896,336.75428L473.68906,337.47435L473.4491,338.67447L473.68906,342.51486
				L473.4491,343.47496L472.24928,345.8752L471.52939,346.8353L470.32957,348.27545L469.60967,348.7555L468.88978,348.7555L468.40985,349.47557
				L467.68996,350.67569L466.25018,352.35586L465.05036,353.07594L463.85054,353.31596L462.17079,355.23616L461.69086,356.43628
				L461.4509,357.6364L461.21093,359.79662L461.21093,360.75672L460.49104,361.23677L459.53118,361.71682L458.81129,362.67691L457.13154,366.03726
				L456.17169,367.71743L455.21183,368.4375L453.77205,369.15757L451.85233,369.87765L451.13244,370.59772L450.41255,371.55782L
				449.21273,372.27789L448.7328,372.99796L446.81309,374.67814L445.85323,376.11828L445.85323,376.35831L446.57312,376.83836L449.69266,376.83836
				L451.13244,377.07838L451.61237,377.55843L451.85233,378.03848L451.61237,384.27911L452.0923,386.43933L452.0923,391.23982L453.05215,394.60016
				L452.81219,398.68058L454.49194,401.32085L454.7319,406.36136L455.21183,407.08143L455.45179,408.28156L455.21183,409.7217L454.25197,412.12195
				L454.49194,413.56209L454.25197,414.76222L454.7319,416.20236L454.7319,418.12256L455.21183,419.32268L455.45179,420.04275L454.25197,420.5228
				L450.41255,420.76283L450.17258,421.00285L449.21273,421.4829L448.01291,421.4829L446.81309,421.72292L445.13334,421.72292L444.41345,421.72292
				L442.7337,421.4829L441.77384,421.4829L441.53388,421.4829L441.29391,421.4829L440.81399,421.4829L439.3742,421.4829L438.89427,421.4829
				L437.21453,421.96295L435.53478,421.96295L433.85503,422.20297L432.17528,422.443L431.69535,422.20297L430.97546,422.20297L425.45629,420.76283
				L424.49643,420.28278L424.25647,420.28278L423.05665,419.32268L422.09679,417.88253L421.3769,417.40248L420.17708,416.20236L
				418.25736,415.24226L415.3778,414.52219L413.93801,414.52219L413.45808,414.52219L412.97815,414.52219L412.49823,414.52219L411.29841,413.80212
				L409.37869,412.84202L406.49913,410.92182L403.85952,409.96173L400.97995,408.52158L396.90056,408.28156L395.94071,408.04153
				L395.70074,408.04153L394.74089,407.80151L393.54107,407.32146L393.06114,406.84141L392.34125,406.60138L391.86132,406.12134
				L391.38139,405.88131L390.42153,405.16124L388.74178,403.72109L387.06204,402.52097L385.86222,402.04092L384.42243,401.56087
				L383.22261,401.08082L381.78283,400.36075L380.82297,399.64068L379.86311,399.16063L379.14322,398.9206L378.66329,398.9206L376.98355,398.9206
				L373.62405,399.64068L372.18426,400.12073L370.98444,400.12073L369.3047,400.36075L369.06473,399.8807L367.86491,399.16063L367.14502,398.68058
				L363.78552,395.08021L360.18606,388.1195L358.98624,387.15941L355.14682,385.23921L354.18696,384.51914L351.54735,383.07899L
				350.10757,381.87887L347.228,378.75855L346.02818,378.2785L346.98804,377.07838L348.18786,375.87826L349.62764,374.19809L350.34753,373.47801
				L352.50721,371.79784L354.66689,370.11767L356.10667,368.91755L356.82656,368.4375L357.30649,367.71743L359.2262,366.03726L360.42602,365.31718
				L363.06563,364.59711L364.74538,363.63701L366.66509,362.43689L370.02459,360.99674L373.14412,358.83652L375.78372,355.95623
				L376.98355,354.75611L377.9434,352.59589L380.10308,348.99552L380.58301,348.03542L381.54286,346.11523L383.22261,343.47496L
				383.70254,342.03481L385.62225,339.63457L386.34214,337.9544L387.302,336.27423L388.74178,334.59406L390.18157,331.71376L391.62135,329.79357
				L394.74089,325.95318L397.14053,323.79296L398.82028,322.83286L400.50002,322.11279L402.17977,320.91266L403.13963,319.95257
				L410.09859,316.3522L411.77833,315.3921L411.77833,315.15208L412.73819,313.23188L413.69805,312.51181L415.13783,312.03176L416.09769,312.03176
				L418.0174,312.99186L421.3769,312.51181L427.376,309.87154L434.81488,306.27117L438.41435,303.87093L439.3742,303.15086L441.53388,301.23066
				L441.77384,301.23066L445.13334,297.63029L445.3733,296.91022L444.89338,295.7101L444.65341,294.50998L445.13334,294.02993L446.0932,292.58978
				L446.57312,292.34976L450.41255,291.14963L451.37241,290.66959L452.57223,289.22944L453.77205,287.78929L454.25197,284.909L454.97187,283.9489
				L455.93172,282.9888L455.93172,282.02871L456.89158,280.58856L456.89158,279.86849L456.89158,278.66836L454.7319,276.50814L454.49194,276.02809
				L454.7319,275.78807L455.45179,275.068L457.61147,272.1877L458.57133,270.74756L459.29122,269.30741L460.25108,267.62724L460.731,265.227
				L460.731,264.50692L461.21093,261.86665L462.65072,259.70643L463.13064,258.98636L463.85054,258.74634L465.29032,258.26629L466.25018,257.78624
				L467.21003,256.82614L468.88978,255.62602L471.04946,253.22577L472.24928,251.30558L473.68906,249.86543L475.12885,249.62541
				L478.96827,249.38538L483.52759,249.38538z"/>
			<path clip-path="url(#SVG_CP_1)" fill="#73B273" fill-rule="evenodd" stroke="#000000" stroke-width="0.95986" stroke-miterlimit="10" stroke-linecap="round" stroke-linejoin="round" d="
				M394.26096,185.05884L392.82117,186.49898L391.62135,188.6592L391.14142,190.5794L391.38139,190.81942L391.86132,191.29947L393.54107,191.77952
				L394.26096,191.5395L395.22081,191.29947L397.38049,190.81942L399.78013,189.85932L401.45988,189.6193L404.57941,189.6193L406.73909,190.09935
				L407.21902,190.5794L407.93891,191.29947L408.89877,193.69972L409.13873,197.54011L409.13873,198.02016L409.13873,199.4603L408.6588,200.4204
				L407.21902,201.86055L402.17977,205.46091L400.97995,206.42101L399.06024,209.54133L399.3002,210.02138L400.50002,210.74145L
				402.41974,210.74145L404.09948,210.74145L405.53927,210.50143L408.41884,210.74145L410.33855,211.46152L412.73819,213.38172L
				414.41794,214.10179L415.85772,214.34182L418.25736,214.82187L421.3769,214.58184L423.77654,215.30191L423.77654,216.74206L423.53657,217.94218
				L422.81668,219.86238L420.17708,223.46274L419.69715,224.42284L418.73729,226.34304L417.05754,228.74328L415.3778,230.42345L
				413.69805,231.38355L411.77833,232.10362L408.6588,232.58367L406.97905,232.34365L406.0192,232.34365L405.05934,233.06372L403.37959,234.50387
				L400.97995,237.14414L400.50002,237.38416L399.54017,238.10423L395.46078,240.7445L393.78103,241.22455L393.54107,241.22455L
				389.9416,242.18465L389.22171,242.6647L386.58211,243.14475L383.70254,244.10485L381.54286,245.06494L379.86311,246.26507L378.66329,246.98514
				L377.9434,248.42529L376.74358,252.26568L374.82387,254.90594L374.34394,255.14597L373.38408,255.38599L372.42423,255.14597L
				370.74448,254.4259L367.14502,253.4658L365.46527,251.30558L365.70523,250.58551L365.9452,249.86543L366.66509,249.38538L367.38498,248.90533
				L369.3047,247.46519L372.90416,244.10485L374.82387,243.14475L376.50362,241.7046L379.38319,238.58428L382.50272,235.70399L383.9425,234.50387
				L385.62225,232.58367L386.58211,230.9035L387.54196,229.46336L386.58211,228.26323L385.38229,227.06311L384.18247,226.34304L
				383.70254,226.10301L379.38319,223.22272L375.3038,220.1024L371.70434,217.94218L370.02459,217.22211L367.38498,216.50204L365.9452,216.02199
				L365.22531,215.54194L363.06563,214.82187L360.42602,215.30191L357.54646,216.02199L356.34664,216.26201L354.90685,216.26201
				L353.947,216.02199L354.42692,215.30191L355.62674,213.86177L356.34664,212.42162L357.78642,210.50143L358.26635,209.78135L358.50631,208.34121
				L359.46617,206.66103L359.70613,205.94096L360.42602,205.94096L364.74538,206.18099L367.62495,205.94096L368.82477,204.50081
				L368.5848,201.86055L369.06473,200.66042L369.78462,199.70033L371.70434,198.74023L372.66419,198.26018L372.66419,197.06006L
				372.42423,196.09996L371.9443,195.13986L372.42423,194.89984L372.66419,194.17976L374.5839,191.77952L375.78372,190.5794L376.98355,187.21906
				L377.22351,186.01893L377.22351,183.61869L377.46347,180.25835L377.9434,175.93791L378.18337,174.01771L379.62315,174.49776L
				383.22261,175.93791L386.10218,178.09813L387.06204,179.05823L390.18157,182.41857L391.14142,183.13864L393.78103,184.57879L
				394.26096,185.05884z"/>
			<path clip-path="url(#SVG_CP_1)" fill="#73B273" fill-rule="evenodd" stroke="#000000" stroke-width="0.95986" stroke-miterlimit="10" stroke-linecap="round" stroke-linejoin="round" d="
				M359.70613,205.94096L359.46617,206.66103L358.50631,208.34121L358.26635,209.78135L357.78642,210.50143L356.34664,212.42162
				L355.62674,213.86177L354.42692,215.30191L353.947,216.02199L354.90685,216.26201L356.34664,216.26201L357.54646,216.02199L360.42602,215.30191
				L363.06563,214.82187L365.22531,215.54194L365.9452,216.02199L367.38498,216.50204L370.02459,217.22211L371.70434,217.94218L
				375.3038,220.1024L379.38319,223.22272L383.70254,226.10301L384.18247,226.34304L385.38229,227.06311L386.58211,228.26323L387.54196,229.46336
				L386.58211,230.9035L385.62225,232.58367L383.9425,234.50387L382.50272,235.70399L379.38319,238.58428L376.50362,241.7046L374.82387,243.14475
				L372.90416,244.10485L369.3047,247.46519L367.38498,248.90533L366.66509,249.38538L365.9452,249.86543L365.70523,250.58551L365.46527,251.30558
				L367.14502,253.4658L366.18516,253.94585L364.98534,254.4259L363.06563,256.34609L360.18606,257.78624L358.98624,258.50631L358.02638,259.46641
				L357.30649,259.94646L356.10667,261.62663L355.38678,263.3068L354.42692,264.50692L352.50721,266.18709L351.78732,266.90717L
				350.82746,267.86726L348.90775,269.06739L342.90865,270.26751L340.74897,271.22761L340.26904,271.46763L339.06922,272.1877L338.58929,272.90778
				L338.10937,274.34792L338.10937,275.068L337.62944,276.02809L337.14951,276.74817L335.70973,277.22822L334.50991,276.50814L332.83016,275.54805
				L331.15041,275.068L328.99073,274.1079L324.67138,274.34792L321.79181,275.30802L320.83195,275.78807L317.95239,277.70827L316.75257,278.42834
				L315.07282,279.14841L313.39307,280.10851L310.99343,281.06861L309.31368,281.30863L306.19415,282.26873L303.31458,283.70888
				L302.35472,283.70888L300.67497,284.66897L299.95508,285.14902L287.95688,291.14963L286.75706,291.38966L285.55724,292.34976
				L282.19774,293.54988L279.55814,294.75L273.55903,298.83042L269.95957,302.19076L268.99972,303.6309L267.08,307.23127L266.12015,310.35159
				L265.16029,312.03176L264.20044,314.91205L263.96047,315.15208L262.76065,316.59222L261.0809,318.03237L260.12105,318.99247L
				258.68126,319.95257L257.48144,320.67264L256.04166,321.87276L255.32176,322.35281L253.88198,323.55293L253.16209,324.51303L
				251.48234,324.27301L249.0827,324.27301L247.40295,324.03298L244.28342,323.07288L239.24417,321.87276L238.28432,321.39271L237.0845,320.91266
				L234.44489,319.71254L233.00511,319.23249L230.60547,318.51242L230.12554,318.03237L230.3655,317.07227L230.12554,316.11217L
				229.64561,315.15208L229.40565,314.67203L227.96586,312.03176L225.56622,308.67142L223.16658,304.591L221.7268,301.23066L220.76694,300.03054
				L220.04705,299.31046L220.76694,298.83042L221.0069,298.11034L221.7268,295.95012L222.44669,294.75L222.92662,292.10973L224.12644,290.18954
				L224.3664,289.22944L228.20583,285.62907L229.16568,285.14902L230.12554,284.909L230.60547,284.909L231.08539,285.14902L232.04525,285.8691
				L233.24507,288.50937L233.48503,288.74939L233.725,288.98941L234.20493,288.98941L234.44489,288.74939L234.92482,288.26934L235.88468,287.78929
				L237.80439,287.30924L239.48414,287.30924L239.96406,287.06922L240.68396,286.58917L241.16388,285.62907L241.88378,284.66897
				L243.32356,283.9489L245.48324,282.26873L247.40295,280.34853L249.0827,278.66836L251.7223,276.98819L254.36191,274.82797L256.28162,273.62785
				L257.96137,272.66775L262.76065,269.78746L264.92033,268.82736L265.88018,268.10729L267.55993,267.62724L268.75975,266.66714
				L271.87929,265.70704L273.799,264.98697L276.91853,262.82675L279.55814,260.18648L280.27803,259.70643L281.47785,258.98636L283.63752,258.26629
				L285.31727,257.54621L290.59648,253.4658L293.47605,252.26568L294.43591,251.78563L297.07551,250.34548L297.55544,250.10546L
				300.91494,248.18526L304.5144,245.78502L306.43411,245.06494L308.59379,243.6248L310.99343,242.90472L312.91314,241.7046L315.31278,239.30436
				L315.31278,238.82431L315.31278,237.86421L315.55274,237.14414L315.79271,236.42406L316.27264,235.22394L316.75257,234.74389
				L318.43231,232.34365L320.11206,230.18343L321.55185,227.06311L322.75167,225.62296L323.47156,224.18282L323.95149,222.9827L
				324.43142,221.30252L325.8712,217.94218L326.83106,216.02199L328.75077,213.86177L329.71062,211.94157L330.67048,210.74145L331.39037,209.54133
				L332.83016,208.82125L335.94969,207.14108L338.10937,205.46091L339.54915,205.22089L341.2289,205.22089L347.46797,205.46091L
				350.5875,205.70094L353.70703,206.66103L357.30649,205.94096L359.70613,205.94096z"/>
			<path clip-path="url(#SVG_CP_1)" fill="#73B273" fill-rule="evenodd" stroke="#000000" stroke-width="0.95986" stroke-miterlimit="10" stroke-linecap="round" stroke-linejoin="round" d="
				M378.18337,174.01771L377.9434,175.93791L377.46347,180.25835L377.22351,183.61869L377.22351,186.01893L376.98355,187.21906L
				375.78372,190.5794L374.5839,191.77952L372.66419,194.17976L372.42423,194.89984L371.9443,195.13986L372.42423,196.09996L372.66419,197.06006
				L372.66419,198.26018L371.70434,198.74023L369.78462,199.70033L369.06473,200.66042L368.5848,201.86055L368.82477,204.50081L
				367.62495,205.94096L364.74538,206.18099L360.42602,205.94096L359.70613,205.94096L357.30649,205.94096L353.70703,206.66103L
				350.5875,205.70094L347.46797,205.46091L341.2289,205.22089L339.54915,205.22089L338.10937,205.46091L335.94969,207.14108L332.83016,208.82125
				L331.39037,209.54133L330.67048,210.74145L329.71062,211.94157L328.75077,213.86177L326.83106,216.02199L325.8712,217.94218L
				324.43142,221.30252L323.95149,222.9827L323.47156,224.18282L322.75167,225.62296L321.55185,227.06311L320.11206,230.18343L318.43231,232.34365
				L316.75257,234.74389L316.27264,235.22394L315.79271,236.42406L315.55274,237.14414L315.31278,237.86421L315.31278,238.82431
				L315.31278,239.30436L312.91314,241.7046L310.99343,242.90472L308.59379,243.6248L306.43411,245.06494L304.5144,245.78502L300.91494,248.18526
				L297.55544,250.10546L297.07551,250.34548L294.43591,251.78563L293.47605,252.26568L290.59648,253.4658L285.31727,257.54621L
				283.63752,258.26629L281.47785,258.98636L280.27803,259.70643L279.55814,260.18648L276.91853,262.82675L273.799,264.98697L271.87929,265.70704
				L268.75975,266.66714L267.55993,267.62724L265.88018,268.10729L264.92033,268.82736L262.76065,269.78746L257.96137,272.66775
				L256.28162,273.62785L254.36191,274.82797L251.7223,276.98819L249.0827,278.66836L247.40295,280.34853L245.48324,282.26873L243.32356,283.9489
				L241.88378,284.66897L241.16388,285.62907L240.68396,286.58917L239.96406,287.06922L239.48414,287.30924L237.80439,287.30924
				L235.88468,287.78929L234.92482,288.26934L234.44489,288.74939L234.20493,288.98941L233.725,288.98941L233.48503,288.74939L233.24507,288.50937
				L232.04525,285.8691L231.08539,285.14902L230.60547,284.909L230.12554,284.909L229.16568,285.14902L228.20583,285.62907L224.3664,289.22944
				L224.12644,290.18954L222.92662,292.10973L222.44669,294.75L221.7268,295.95012L221.0069,298.11034L220.76694,298.83042L220.04705,299.31046
				L217.64741,297.87032L215.24777,296.91022L214.28791,296.6702L213.08809,296.43017L210.44848,295.95012L209.48863,295.47007L
				207.32895,295.23005L203.48953,293.54988L201.80978,292.58978L199.17017,290.18954L198.21032,289.70949L193.41104,287.78929L
				190.05154,285.14902L189.57161,284.42895L190.77143,283.46885L192.21122,282.02871L192.93111,279.86849L193.89096,274.82797L
				193.17107,272.1877L192.45118,270.74756L191.97125,270.26751L190.77143,269.54744L189.33165,269.54744L186.69204,269.78746L185.73219,269.54744
				L185.25226,269.06739L185.01229,267.38722L185.97215,264.50692L186.69204,261.86665L187.89186,259.46641L189.09168,257.78624
				L192.69114,255.38599L193.651,254.66592L194.61086,253.4658L194.61086,251.78563L194.37089,249.62541L194.61086,248.66531L195.09078,248.18526
				L196.77053,248.18526L202.04974,249.14536L203.24956,249.86543L204.92931,250.82553L207.08899,251.30558L208.28881,251.06555
				L209.24866,250.82553L211.16838,248.42529L212.84813,247.22516L213.32805,247.22516L214.76784,247.94524L215.72769,248.66531
				L216.68755,249.62541L218.12733,249.86543L218.60726,249.62541L218.84723,249.38538L219.32716,248.42529L219.32716,247.46519
				L218.60726,246.26507L217.64741,245.30497L217.16748,244.34487L217.64741,243.86482L218.3673,243.38477L218.84723,243.14475L
				221.0069,242.6647L223.16658,241.22455L225.80618,238.58428L227.7259,235.70399L228.92572,234.98392L229.40565,234.98392L230.84543,236.18404
				L232.04525,236.66409L233.24507,236.66409L234.20493,236.18404L234.44489,235.70399L235.40475,234.26384L236.12464,233.7838L
				237.0845,233.54377L237.80439,233.7838L238.52428,234.50387L239.96406,236.18404L240.92392,236.90411L241.88378,237.14414L242.84363,236.90411
				L244.28342,235.94402L245.00331,235.22394L246.44309,230.18343L248.12284,227.30314L248.36281,226.82309L249.56263,225.14292
				L251.7223,223.70277L254.60187,222.26262L256.76155,221.54255L261.0809,220.34243L266.12015,220.1024L267.31997,220.58245L269.47964,220.58245
				L270.91943,221.0625L273.07911,222.50265L274.27893,223.70277L274.51889,225.62296L273.799,228.02321L273.799,228.74328L274.03896,229.9434
				L275.23878,229.9434L276.91853,229.46336L278.11835,229.46336L280.27803,229.22333L283.1576,227.78318L284.83734,226.82309L288.67677,223.22272
				L289.39666,222.0226L290.59648,220.82248L291.55634,220.34243L292.75616,220.1024L293.71601,220.34243L294.67587,220.1024L295.39576,219.62235
				L295.63573,219.62235L298.27533,219.62235L299.95508,218.66226L302.59469,215.30191L304.03447,212.66165L307.39397,209.3013L
				309.07372,207.86116L312.91314,206.42101L315.31278,204.74084L317.23249,203.30069L318.19235,202.10057L318.91224,200.90045L
				320.35203,199.22028L323.23159,196.58001L324.19145,195.37989L325.15131,193.21967L325.8712,192.01954L328.5108,189.37928L331.15041,188.17915
				L331.63034,188.17915L336.66958,186.73901L338.82926,185.77891L339.54915,185.53888L341.2289,185.05884L345.06832,184.81881L
				346.74807,184.33876L350.10757,182.17854L351.78732,180.7384L352.50721,178.57818L353.46707,177.13803L355.14682,175.93791L356.34664,174.73779
				L356.5866,173.77769L356.82656,172.33754L357.06653,171.37744L359.2262,168.73717L359.9461,167.53705L360.42602,168.9772L360.90595,169.69727
				L361.86581,170.65737L362.82567,171.13742L364.98534,171.61747L366.66509,171.61747L368.10487,172.33754L368.82477,173.29764
				L369.06473,174.01771L369.06473,175.93791L369.3047,177.37805L369.78462,177.8581L370.26455,178.09813L371.70434,177.61808L372.90416,176.41796
				L373.86401,175.45786L375.54376,174.73779L378.18337,174.01771z"/>
			<path clip-path="url(#SVG_CP_1)" fill="#73B273" fill-rule="evenodd" stroke="#000000" stroke-width="0.95986" stroke-miterlimit="10" stroke-linecap="round" stroke-linejoin="round" d="
				M444.65341,294.50998L444.89338,295.7101L445.3733,296.91022L445.13334,297.63029L441.77384,301.23066L441.53388,301.23066L439.3742,303.15086
				L438.41435,303.87093L434.81488,306.27117L427.376,309.87154L421.3769,312.51181L418.0174,312.99186L416.09769,312.03176L415.13783,312.03176
				L413.69805,312.51181L412.73819,313.23188L411.77833,315.15208L411.77833,315.3921L410.09859,316.3522L403.13963,319.95257L402.17977,320.91266
				L400.50002,322.11279L398.82028,322.83286L397.14053,323.79296L394.74089,325.95318L391.62135,329.79357L390.18157,331.71376
				L388.74178,334.59406L387.302,336.27423L386.34214,337.9544L385.62225,339.63457L383.70254,342.03481L383.22261,343.47496L381.54286,346.11523
				L380.58301,348.03542L380.10308,348.99552L377.9434,352.59589L376.98355,354.75611L375.78372,355.95623L373.14412,358.83652L
				370.02459,360.99674L366.66509,362.43689L364.74538,363.63701L363.06563,364.59711L360.42602,365.31718L359.2262,366.03726L357.30649,367.71743
				L356.82656,368.4375L356.10667,368.91755L354.66689,370.11767L352.50721,371.79784L350.34753,373.47801L349.62764,374.19809L
				348.18786,375.87826L346.98804,377.07838L346.02818,378.2785L345.54825,378.03848L343.8685,376.83836L342.66868,376.11828L339.54915,375.63823
				L337.38947,374.91816L335.94969,374.43811L334.74987,374.19809L333.07012,374.43811L331.39037,374.67814L329.71062,375.63823
				L329.47066,375.63823L326.83106,376.59833L324.43142,377.3184L322.27174,378.03848L319.63213,378.51853L317.95239,378.75855L
				316.27264,378.75855L314.11296,378.51853L311.71332,377.3184L310.99343,376.83836L310.03357,375.87826L309.31368,374.67814L308.59379,372.99796
				L307.87389,371.31779L306.91404,369.3976L305.95418,367.71743L304.03447,365.31718L303.07461,364.83713L300.67497,363.15696L
				298.99522,362.67691L298.03537,362.19687L296.35562,360.75672L295.1558,360.27667L292.99612,359.07655L290.83645,358.35647L287.23699,357.6364
				L285.07731,356.6763L282.67767,355.23616L278.59828,351.39577L275.47875,349.47557L274.51889,348.7555L272.35921,348.03542L269.23968,346.11523
				L268.27982,344.91511L266.60008,342.03481L265.64022,338.9145L265.16029,338.19442L264.20044,337.23432L262.52069,336.51425L
				260.84094,335.0741L260.12105,334.35403L259.16119,332.67386L258.92123,331.47374L258.20133,330.03359L256.52159,327.87337L254.60187,325.95318
				L254.12194,324.99308L253.16209,324.51303L253.88198,323.55293L255.32176,322.35281L256.04166,321.87276L257.48144,320.67264
				L258.68126,319.95257L260.12105,318.99247L261.0809,318.03237L262.76065,316.59222L263.96047,315.15208L264.20044,314.91205L
				265.16029,312.03176L266.12015,310.35159L267.08,307.23127L268.99972,303.6309L269.95957,302.19076L273.55903,298.83042L279.55814,294.75
				L282.19774,293.54988L285.55724,292.34976L286.75706,291.38966L287.95688,291.14963L299.95508,285.14902L300.67497,284.66897
				L302.35472,283.70888L303.31458,283.70888L306.19415,282.26873L309.31368,281.30863L310.99343,281.06861L313.39307,280.10851
				L315.07282,279.14841L316.75257,278.42834L317.95239,277.70827L320.83195,275.78807L321.79181,275.30802L324.67138,274.34792
				L328.99073,274.1079L331.15041,275.068L332.83016,275.54805L334.50991,276.50814L335.70973,277.22822L337.14951,276.74817L337.62944,276.02809
				L338.10937,275.068L338.10937,274.34792L338.58929,272.90778L339.06922,272.1877L340.26904,271.46763L340.74897,271.22761L342.90865,270.26751
				L348.90775,269.06739L350.82746,267.86726L351.78732,266.90717L352.50721,266.18709L354.42692,264.50692L355.38678,263.3068L
				356.10667,261.62663L357.30649,259.94646L358.02638,259.46641L358.98624,258.50631L360.18606,257.78624L363.06563,256.34609L
				364.98534,254.4259L366.18516,253.94585L367.14502,253.4658L370.74448,254.4259L372.42423,255.14597L373.38408,255.38599L374.34394,255.14597
				L374.82387,254.90594L376.74358,252.26568L377.9434,248.42529L378.66329,246.98514L380.10308,247.94524L382.26275,248.90533L
				384.18247,251.06555L385.14232,251.78563L386.10218,252.02565L387.06204,252.74573L389.22171,253.4658L391.86132,253.94585L393.54107,253.94585
				L396.42063,253.94585L397.86042,253.70582L399.54017,253.4658L401.69984,253.70582L405.53927,254.66592L408.89877,254.66592L
				412.0183,254.90594L413.45808,255.62602L415.61776,256.82614L417.29751,257.78624L417.53747,258.02626L419.69715,259.22638L420.89697,259.70643
				L422.81668,260.66653L423.05665,260.90656L425.21632,261.14658L426.89607,260.90656L431.21542,259.94646L434.09499,260.18648
				L435.05485,260.66653L439.61417,261.62663L441.05395,262.82675L441.77384,263.3068L442.01381,263.78685L445.3733,264.74695L444.65341,265.94707
				L443.21363,267.86726L441.77384,270.02748L441.53388,270.26751L439.85413,270.74756L436.7346,273.1478L432.41524,278.90839L431.69535,279.62846
				L429.05575,282.74878L430.0156,284.18893L431.45539,285.62907L432.65521,286.34915L434.09499,287.30924L435.05485,287.78929L
				437.69445,289.46946L440.09409,291.86971L441.29391,292.34976L441.77384,292.8298L442.01381,292.8298L443.69355,293.7899L444.65341,294.50998
				z"/>
			<path clip-path="url(#SVG_CP_1)" fill="#73B273" fill-rule="evenodd" stroke="#000000" stroke-width="0.95986" stroke-miterlimit="10" stroke-linecap="round" stroke-linejoin="round" d="
				M479.4482,205.94096L480.64802,207.14108L480.88798,207.38111L482.8077,208.58123L483.04766,208.82125L483.04766,210.50143L482.8077,211.2215
				L483.04766,212.42162L483.76755,212.90167L485.20734,213.14169L486.40716,212.66165L488.56683,211.70155L490.24658,211.2215L
				491.68637,211.46152L492.64622,212.1816L493.12615,212.90167L493.84604,214.10179L494.08601,215.54194L494.8059,216.74206L496.48565,216.74206
				L498.88529,216.50204L501.04497,216.74206L502.24479,217.46213L502.48475,218.18221L502.24479,219.86238L502.48475,220.82248
				L502.00482,222.74267L502.00482,223.70277L502.72471,226.10301L505.36432,230.18343L506.56414,231.38355L507.28403,231.8636L
				508.72382,234.02382L507.76396,235.46397L507.28403,236.18404L505.84425,237.14414L505.36432,238.34426L505.84425,240.7445L506.8041,243.38477
				L506.56414,244.82492L506.32418,245.30497L505.60428,245.78502L504.40446,246.02504L503.68457,246.50509L503.44461,248.66531
				L502.96468,249.14536L501.52489,249.86543L500.32507,249.86543L497.92543,250.82553L496.48565,251.06555L495.76576,250.82553
				L495.76576,249.86543L496.00572,248.42529L495.76576,247.70521L495.04586,247.22516L493.60608,247.46519L492.88619,249.38538
				L491.92633,249.86543L485.92723,249.38538L483.52759,249.38538L481.84784,247.94524L481.12795,246.26507L479.20824,243.14475
				L478.48834,241.46458L479.20824,240.26445L481.36791,239.30436L483.28763,237.86421L483.76755,236.90411L483.52759,235.94402
				L483.28763,235.46397L480.16809,234.50387L476.8086,233.06372L472.00931,229.9434L470.0896,229.70338L469.12975,229.9434L466.49014,230.66348
				L463.61057,231.8636L459.53118,233.06372L455.69176,232.8237L453.77205,233.06372L451.61237,233.7838L448.97276,233.7838L447.05305,234.02382
				L446.0932,234.02382L445.3733,233.7838L443.45359,234.02382L441.77384,234.98392L441.53388,234.98392L440.33406,234.98392L439.13424,235.46397
				L437.45449,235.46397L436.25467,235.46397L435.53478,234.50387L436.49463,234.02382L436.97456,233.30375L435.29481,233.06372
				L434.57492,232.34365L433.13514,230.66348L431.69535,229.70338L429.77564,229.22333L427.61596,228.98331L424.97636,228.26323
				L423.77654,227.30314L423.53657,227.30314L421.85683,225.38294L419.69715,224.42284L420.17708,223.46274L422.81668,219.86238
				L423.53657,217.94218L423.77654,216.74206L423.77654,215.30191L423.53657,213.86177L423.53657,213.62174L424.25647,213.14169
				L424.97636,213.14169L425.69625,213.14169L427.13603,213.62174L428.33585,213.62174L431.69535,213.38172L433.3751,213.62174L
				433.85503,213.14169L434.33496,212.66165L434.33496,211.70155L434.33496,209.3013L433.85503,206.66103L433.85503,206.18099L434.33496,205.94096
				L435.29481,205.70094L436.0147,205.46091L437.45449,205.46091L438.17438,205.22089L440.33406,204.02077L441.53388,202.82064L
				441.77384,202.58062L442.49373,202.10057L444.17348,201.14047L446.0932,200.66042L449.21273,200.66042L450.41255,200.90045L453.53208,201.86055
				L454.97187,202.58062L457.13154,204.02077L457.61147,204.50081L458.81129,205.46091L460.731,206.18099L463.13064,206.66103L467.92993,207.38111
				L468.88978,207.14108L473.20913,206.90106L477.28852,205.94096L479.4482,205.94096z"/>
			<path clip-path="url(#SVG_CP_1)" fill="#73B273" fill-rule="evenodd" stroke="#000000" stroke-width="0.95986" stroke-miterlimit="10" stroke-linecap="round" stroke-linejoin="round" d="
				M318.91224,200.90045L318.19235,202.10057L317.23249,203.30069L315.31278,204.74084L312.91314,206.42101L309.07372,207.86116
				L307.39397,209.3013L304.03447,212.66165L302.59469,215.30191L299.95508,218.66226L298.27533,219.62235L295.63573,219.62235L
				295.39576,219.62235L294.67587,220.1024L293.71601,220.34243L292.75616,220.1024L291.55634,220.34243L290.59648,220.82248L289.39666,222.0226
				L288.67677,223.22272L284.83734,226.82309L283.1576,227.78318L280.27803,229.22333L278.11835,229.46336L276.91853,229.46336L
				275.23878,229.9434L274.03896,229.9434L273.799,228.74328L273.799,228.02321L274.51889,225.62296L274.27893,223.70277L273.07911,222.50265
				L270.91943,221.0625L269.47964,220.58245L267.31997,220.58245L266.12015,220.1024L261.0809,220.34243L256.76155,221.54255L254.60187,222.26262
				L251.7223,223.70277L249.56263,225.14292L248.36281,226.82309L248.12284,227.30314L246.44309,230.18343L245.00331,235.22394L
				244.28342,235.94402L242.84363,236.90411L241.88378,237.14414L240.92392,236.90411L239.96406,236.18404L238.52428,234.50387L
				237.80439,233.7838L237.0845,233.54377L236.12464,233.7838L235.40475,234.26384L234.44489,235.70399L234.20493,236.18404L233.24507,236.66409
				L232.04525,236.66409L230.84543,236.18404L229.40565,234.98392L228.92572,234.98392L227.7259,235.70399L225.80618,238.58428L
				223.16658,241.22455L221.0069,242.6647L218.84723,243.14475L218.3673,243.38477L217.64741,243.86482L217.16748,244.34487L217.64741,245.30497
				L218.60726,246.26507L219.32716,247.46519L219.32716,248.42529L218.84723,249.38538L218.60726,249.62541L218.12733,249.86543
				L216.68755,249.62541L215.72769,248.66531L214.76784,247.94524L213.32805,247.22516L212.84813,247.22516L211.16838,248.42529
				L209.24866,250.82553L208.28881,251.06555L207.08899,251.30558L204.92931,250.82553L203.24956,249.86543L202.04974,249.14536
				L196.77053,248.18526L195.09078,248.18526L194.61086,248.66531L194.37089,249.62541L194.61086,251.78563L194.61086,253.4658L
				193.651,254.66592L192.69114,255.38599L189.09168,257.78624L187.89186,259.46641L186.69204,261.86665L185.97215,264.50692L185.01229,267.38722
				L185.25226,269.06739L185.73219,269.54744L186.69204,269.78746L189.33165,269.54744L190.77143,269.54744L191.97125,270.26751
				L192.45118,270.74756L193.17107,272.1877L193.89096,274.82797L192.93111,279.86849L192.21122,282.02871L190.77143,283.46885L
				189.57161,284.42895L188.85172,283.22883L187.41193,282.26873L185.97215,281.30863L183.33255,279.14841L178.77323,276.74817L
				177.33344,275.78807L171.81427,270.98758L169.17467,269.54744L168.45477,268.82736L165.5752,267.62724L165.09528,267.14719L163.17556,265.94707
				L156.9365,263.06678L155.25675,261.62663L153.33704,259.22638L152.85711,258.02626L150.9374,256.34609L149.73758,253.70582L148.77772,250.58551
				L148.77772,248.66531L147.5779,245.30497L147.81786,243.86482L147.81786,242.90472L148.53776,241.7046L151.17736,239.30436L153.81697,235.94402
				L156.21661,232.10362L158.37628,229.46336L160.296,227.54316L161.25585,225.86299L162.69564,224.42284L163.41553,223.22272L164.61535,219.38233
				L164.85531,215.06189L165.09528,212.1816L164.85531,210.98147L166.2951,211.2215L168.45477,211.46152L173.25405,211.46152L175.6537,210.98147
				L177.81337,210.98147L180.45298,211.46152L182.13273,211.46152L186.93201,210.2614L188.85172,210.02138L190.2915,209.54133L194.37089,209.54133
				L198.21032,209.54133L203.48953,207.86116L205.88917,207.62113L207.56892,208.10118L210.20852,209.3013L211.88827,209.78135L
				214.52787,209.78135L217.16748,209.78135L219.32716,209.54133L221.48683,210.02138L224.12644,211.2215L226.04615,212.90167L227.48593,213.62174
				L229.88557,213.86177L230.60547,213.86177L234.44489,213.14169L235.64471,212.66165L237.56442,211.2215L238.28432,210.02138L
				238.76424,207.86116L239.24417,206.42101L240.68396,202.10057L241.40385,201.3805L242.12374,199.94035L245.24327,196.33998L246.20313,195.37989
				L246.92302,194.65981L251.24238,193.21967L253.40205,192.73962L256.76155,191.5395L260.12105,189.6193L264.92033,186.25896L268.03986,185.05884
				L270.19954,182.17854L270.91943,179.53827L271.63932,178.8182L272.59918,178.33815L274.51889,176.89801L275.71871,173.05761L
				276.91853,171.13742L277.63842,169.45725L278.11835,168.9772L279.07821,167.77708L280.27803,168.49715L281.47785,169.21722L285.07731,169.9373
				L286.27713,170.41735L287.47695,171.13742L287.95688,171.85749L289.87659,174.49776L290.35652,175.69788L290.83645,176.17793
				L291.31637,176.89801L292.51619,178.57818L293.23609,179.7783L294.67587,180.7384L297.7954,182.17854L301.1549,184.09874L303.31458,184.81881
				L304.5144,186.01893L305.95418,187.6991L306.67407,188.89923L308.59379,193.21967L309.79361,194.65981L310.03357,195.37989L310.5135,195.85994
				L314.11296,198.74023L315.55274,199.4603L318.91224,200.90045z"/>
			<path clip-path="url(#SVG_CP_1)" fill="#73B273" fill-rule="evenodd" stroke="#000000" stroke-width="0.95986" stroke-miterlimit="10" stroke-linecap="round" stroke-linejoin="round" d="
				M359.9461,167.53705L359.2262,168.73717L357.06653,171.37744L356.82656,172.33754L356.5866,173.77769L356.34664,174.73779L355.14682,175.93791
				L353.46707,177.13803L352.50721,178.57818L351.78732,180.7384L350.10757,182.17854L346.74807,184.33876L345.06832,184.81881L
				341.2289,185.05884L339.54915,185.53888L338.82926,185.77891L336.66958,186.73901L331.63034,188.17915L331.15041,188.17915L328.5108,189.37928
				L325.8712,192.01954L325.15131,193.21967L324.19145,195.37989L323.23159,196.58001L320.35203,199.22028L318.91224,200.90045L
				315.55274,199.4603L314.11296,198.74023L310.5135,195.85994L310.03357,195.37989L309.79361,194.65981L308.59379,193.21967L306.67407,188.89923
				L305.95418,187.6991L304.5144,186.01893L303.31458,184.81881L301.1549,184.09874L297.7954,182.17854L294.67587,180.7384L293.23609,179.7783
				L292.51619,178.57818L291.31637,176.89801L290.83645,176.17793L290.35652,175.69788L289.87659,174.49776L287.95688,171.85749
				L287.47695,171.13742L286.27713,170.41735L285.07731,169.9373L281.47785,169.21722L280.27803,168.49715L279.07821,167.77708L
				278.11835,168.9772L277.63842,169.45725L276.91853,171.13742L275.71871,173.05761L274.51889,176.89801L272.59918,178.33815L271.63932,178.8182
				L270.91943,179.53827L270.19954,182.17854L268.03986,185.05884L264.92033,186.25896L260.12105,189.6193L256.76155,191.5395L253.40205,192.73962
				L251.24238,193.21967L246.92302,194.65981L246.20313,195.37989L245.24327,196.33998L242.12374,199.94035L241.40385,201.3805L
				240.68396,202.10057L239.24417,206.42101L238.76424,207.86116L238.28432,210.02138L237.56442,211.2215L235.64471,212.66165L234.44489,213.14169
				L230.60547,213.86177L229.88557,213.86177L227.48593,213.62174L226.04615,212.90167L224.12644,211.2215L221.48683,210.02138L
				219.32716,209.54133L217.16748,209.78135L214.52787,209.78135L211.88827,209.78135L210.20852,209.3013L207.56892,208.10118L205.88917,207.62113
				L203.48953,207.86116L198.21032,209.54133L194.37089,209.54133L190.2915,209.54133L188.85172,210.02138L186.93201,210.2614L182.13273,211.46152
				L180.45298,211.46152L177.81337,210.98147L175.6537,210.98147L173.25405,211.46152L168.45477,211.46152L166.2951,211.2215L164.85531,210.98147
				L165.09528,210.02138L164.85531,208.58123L164.61535,205.46091L164.85531,202.10057L165.09528,200.18037L166.05513,196.58001
				L167.25495,192.49959L168.45477,189.37928L170.37449,186.73901L172.53416,184.81881L174.21391,182.65859L175.89366,181.45847
				L176.61355,180.7384L177.09348,178.57818L178.2933,177.61808L179.25316,176.89801L181.89276,173.77769L183.33255,171.37744L184.05244,170.89739
				L185.25226,169.21722L186.45208,168.0171L187.41193,167.29703L190.2915,164.65676L192.45118,162.97659L193.651,162.25652L195.33075,161.77647
				L196.77053,162.01649L198.21032,162.25652L202.04974,162.25652L203.96945,162.73656L205.88917,162.97659L209.24866,162.97659
				L213.80798,162.25652L215.48773,162.25652L217.88737,162.49654L221.96676,163.69666L226.28611,163.93669L231.08539,163.69666
				L234.44489,162.73656L235.88468,162.25652L239.48414,162.01649L241.16388,162.25652L243.32356,162.97659L245.24327,162.97659
				L246.92302,163.21661L248.12284,163.21661L249.56263,162.73656L250.04256,162.25652L250.28252,161.77647L248.84273,157.216L249.0827,154.81576
				L250.04256,154.57573L251.00241,154.09568L251.48234,154.09568L252.4422,154.33571L255.56173,155.77586L256.52159,156.01588L
				257.72141,156.73595L258.4413,157.216L259.40115,158.65615L260.36101,159.37622L261.32087,160.0963L261.80079,160.33632L263.48054,160.81637
				L265.40026,160.81637L266.36011,161.29642L267.55993,161.53644L268.99972,161.53644L269.95957,160.57634L270.91943,159.37622
				L271.87929,156.49593L272.59918,155.77586L273.31907,154.81576L274.99882,153.85566L276.67857,151.93546L277.15849,150.73534
				L277.39846,147.61502L277.87839,146.17488L278.11835,144.97476L278.83824,144.01466L279.7981,143.29459L280.99792,143.05456L
				282.19774,143.29459L283.87749,143.77463L285.7972,144.01466L288.43681,143.77463L289.39666,143.77463L291.31637,144.73473L292.27623,144.97476
				L292.99612,145.4548L295.39576,147.13498L299.71512,148.81515L300.43501,149.53522L302.59469,150.73534L303.79451,150.97537L
				304.75436,151.21539L306.43411,150.73534L307.63393,150.01527L309.79361,149.77524L310.75346,150.25529L313.39307,151.45542L
				315.55274,152.41551L317.95239,152.89556L320.83195,152.89556L321.79181,152.89556L323.23159,152.41551L324.91134,151.45542L
				325.8712,150.97537L328.27084,150.73534L329.95059,150.97537L330.91044,151.45542L332.35023,151.45542L333.07012,150.97537L333.79001,150.49532
				L336.66958,146.4149L337.8694,145.21478L339.06922,144.25468L340.26904,143.53461L342.18876,142.57451L342.66868,142.09446L344.5884,140.89434
				L345.54825,139.93424L345.78822,138.97415L348.18786,136.5739L348.66779,136.09385L350.5875,135.13375L351.30739,135.13375L352.02728,135.6138
				L352.50721,136.09385L352.50721,136.5739L352.02728,138.73412L351.78732,139.45419L352.74717,142.09446L352.50721,143.53461L
				352.02728,144.49471L351.06743,146.89495L351.06743,149.05517L352.26725,150.97537L354.42692,152.41551L355.14682,153.37561L
				355.62674,154.81576L356.10667,155.77586L356.34664,155.77586L358.02638,157.216L360.42602,158.41612L361.62585,159.85627L361.86581,161.05639
				L361.86581,161.53644L361.62585,162.97659L359.9461,167.53705z"/>
			<path clip-path="url(#SVG_CP_1)" fill="#73B273" fill-rule="evenodd" stroke="#000000" stroke-width="0.95986" stroke-miterlimit="10" stroke-linecap="round" stroke-linejoin="round" d="
				M590.79153,191.5395L589.11178,192.01954L587.67199,192.49959L586.47217,192.97964L584.3125,194.41979L582.87271,196.09996L582.15282,197.30008
				L580.47307,198.5002L580.47307,198.98025L580.71304,199.70033L582.39278,200.66042L582.87271,201.3805L583.11268,202.82064L584.55246,204.02077
				L587.67199,204.98086L588.15192,205.46091L588.39189,205.94096L588.15192,206.90106L586.47217,209.06128L585.51232,209.54133
				L584.79242,209.78135L580.71304,208.58123L579.51322,208.58123L577.11357,209.54133L576.63365,209.3013L576.39368,208.82125L
				575.67379,207.62113L575.19386,207.14108L573.27415,207.14108L571.5944,207.62113L571.11447,208.10118L570.63454,209.06128L570.63454,210.74145
				L570.39458,211.46152L571.35444,212.90167L571.35444,214.82187L571.11447,215.54194L571.5944,216.26201L573.27415,217.70216L
				573.51411,218.42223L573.03419,220.1024L572.55426,220.58245L571.5944,221.0625L569.67469,221.54255L566.55516,221.78257L565.5953,222.0226
				L564.39548,222.9827L563.67559,223.70277L563.67559,224.18282L563.91555,226.10301L564.39548,228.02321L564.63544,228.98331L
				563.91555,229.70338L561.99584,230.42345L561.27595,230.66348L560.79602,230.9035L560.07613,231.14353L559.5962,231.8636L559.5962,232.10362
				L558.63634,233.06372L557.67649,233.30375L556.47667,233.06372L555.03688,233.7838L554.79692,234.02382L554.79692,236.66409L
				554.55695,237.62419L553.83706,238.82431L552.63724,240.02443L552.39728,240.26445L551.19746,241.46458L549.75767,243.14475L
				547.83796,244.34487L547.11807,244.82492L545.91825,245.06494L545.67828,245.06494L544.95839,244.82492L543.99853,244.34487L
				542.55875,244.34487L542.07882,244.34487L540.879,245.54499L539.91914,247.22516L538.47936,248.90533L537.75947,250.10546L536.31968,251.30558
				L535.59979,251.78563L534.63994,252.5057L533.68008,254.66592L532.48026,255.62602L531.5204,256.10607L529.84065,256.10607L528.64083,255.38599
				L527.92094,255.62602L526.72112,256.58612L526.00123,256.58612L524.08152,254.66592L522.64173,254.18587L521.68188,253.70582
				L520.24209,252.26568L518.32238,251.78563L517.36252,251.5456L517.12256,250.82553L517.12256,250.34548L516.88259,249.38538L
				514.96288,248.90533L514.00303,248.90533L511.60339,249.86543L509.20374,251.30558L508.72382,252.02565L508.72382,255.14597L
				508.24389,256.82614L506.8041,259.22638L506.08421,259.70643L504.40446,260.66653L502.48475,261.14658L501.76486,261.14658L500.805,261.3866
				L498.88529,262.58673L498.1654,263.3068L495.76576,263.78685L494.08601,262.3467L491.68637,259.22638L490.48655,258.98636L490.48655,258.50631
				L489.76666,257.78624L487.84694,254.66592L484.72741,251.30558L483.52759,249.38538L485.92723,249.38538L491.92633,249.86543
				L492.88619,249.38538L493.60608,247.46519L495.04586,247.22516L495.76576,247.70521L496.00572,248.42529L495.76576,249.86543
				L495.76576,250.82553L496.48565,251.06555L497.92543,250.82553L500.32507,249.86543L501.52489,249.86543L502.96468,249.14536
				L503.44461,248.66531L503.68457,246.50509L504.40446,246.02504L505.60428,245.78502L506.32418,245.30497L506.56414,244.82492
				L506.8041,243.38477L505.84425,240.7445L505.36432,238.34426L505.84425,237.14414L507.28403,236.18404L507.76396,235.46397L508.72382,234.02382
				L507.28403,231.8636L506.56414,231.38355L505.36432,230.18343L502.72471,226.10301L502.00482,223.70277L502.00482,222.74267L
				502.48475,220.82248L502.24479,219.86238L502.48475,218.18221L503.20464,218.66226L505.12436,219.38233L507.28403,219.86238L
				508.24389,220.34243L510.88349,220.58245L511.84335,220.58245L513.76306,219.86238L518.32238,219.38233L521.68188,217.70216L
				524.80141,216.02199L525.76126,215.54194L526.72112,215.30191L529.60069,214.34182L533.44011,213.86177L535.11986,213.38172L
				536.55965,212.42162L542.07882,209.78135L544.47846,208.34121L547.35803,206.90106L549.51771,204.50081L550.47756,202.58062L
				551.19746,200.4204L551.91735,198.74023L553.35713,197.54011L554.79692,196.33998L555.75677,195.85994L559.35623,194.41979L561.03598,192.97964
				L562.47577,192.01954L563.19566,191.77952L564.39548,191.29947L566.31519,191.05945L570.87451,191.29947L572.79422,190.5794L
				573.75408,189.85932L573.75408,190.09935L574.47397,190.33937L576.15372,190.09935L578.55336,188.89923L579.75318,188.17915L
				580.23311,187.45908L581.43293,186.49898L582.15282,186.25896L583.11268,186.97903L584.07253,186.97903L584.79242,186.73901L
				585.75228,185.77891L586.47217,185.53888L589.59171,186.73901L590.07163,187.21906L591.27145,188.89923L591.03149,190.09935L
				591.03149,191.05945L590.79153,191.5395z"/>
			<path clip-path="url(#SVG_CP_1)" fill="#73B273" fill-rule="evenodd" stroke="#000000" stroke-width="0.95986" stroke-miterlimit="10" stroke-linecap="round" stroke-linejoin="round" d="
				M483.52759,249.38538L478.96827,249.38538L475.12885,249.62541L473.68906,249.86543L472.24928,251.30558L471.04946,253.22577
				L468.88978,255.62602L467.21003,256.82614L466.25018,257.78624L465.29032,258.26629L463.85054,258.74634L463.13064,258.98636
				L462.65072,259.70643L461.21093,261.86665L460.731,264.50692L460.731,265.227L460.25108,267.62724L459.29122,269.30741L458.57133,270.74756
				L457.61147,272.1877L455.45179,275.068L454.7319,275.78807L454.49194,276.02809L454.7319,276.50814L456.89158,278.66836L456.89158,279.86849
				L456.89158,280.58856L455.93172,282.02871L455.93172,282.9888L454.97187,283.9489L454.25197,284.909L453.77205,287.78929L452.57223,289.22944
				L451.37241,290.66959L450.41255,291.14963L446.57312,292.34976L446.0932,292.58978L445.13334,294.02993L444.65341,294.50998L
				443.69355,293.7899L442.01381,292.8298L441.77384,292.8298L441.29391,292.34976L440.09409,291.86971L437.69445,289.46946L435.05485,287.78929
				L434.09499,287.30924L432.65521,286.34915L431.45539,285.62907L430.0156,284.18893L429.05575,282.74878L431.69535,279.62846L
				432.41524,278.90839L436.7346,273.1478L439.85413,270.74756L441.53388,270.26751L441.77384,270.02748L443.21363,267.86726L444.65341,265.94707
				L445.3733,264.74695L442.01381,263.78685L441.77384,263.3068L441.05395,262.82675L439.61417,261.62663L435.05485,260.66653L434.09499,260.18648
				L431.21542,259.94646L426.89607,260.90656L425.21632,261.14658L423.05665,260.90656L422.81668,260.66653L420.89697,259.70643
				L419.69715,259.22638L417.53747,258.02626L417.29751,257.78624L415.61776,256.82614L413.45808,255.62602L412.0183,254.90594L
				408.89877,254.66592L405.53927,254.66592L401.69984,253.70582L399.54017,253.4658L397.86042,253.70582L396.42063,253.94585L393.54107,253.94585
				L391.86132,253.94585L389.22171,253.4658L387.06204,252.74573L386.10218,252.02565L385.14232,251.78563L384.18247,251.06555L
				382.26275,248.90533L380.10308,247.94524L378.66329,246.98514L379.86311,246.26507L381.54286,245.06494L383.70254,244.10485L
				386.58211,243.14475L389.22171,242.6647L389.9416,242.18465L393.54107,241.22455L393.78103,241.22455L395.46078,240.7445L399.54017,238.10423
				L400.50002,237.38416L400.97995,237.14414L403.37959,234.50387L405.05934,233.06372L406.0192,232.34365L406.97905,232.34365L
				408.6588,232.58367L411.77833,232.10362L413.69805,231.38355L415.3778,230.42345L417.05754,228.74328L418.73729,226.34304L419.69715,224.42284
				L421.85683,225.38294L423.53657,227.30314L423.77654,227.30314L424.97636,228.26323L427.61596,228.98331L429.77564,229.22333
				L431.69535,229.70338L433.13514,230.66348L434.57492,232.34365L435.29481,233.06372L436.97456,233.30375L436.49463,234.02382
				L435.53478,234.50387L436.25467,235.46397L437.45449,235.46397L439.13424,235.46397L440.33406,234.98392L441.53388,234.98392
				L441.77384,234.98392L443.45359,234.02382L445.3733,233.7838L446.0932,234.02382L447.05305,234.02382L448.97276,233.7838L451.61237,233.7838
				L453.77205,233.06372L455.69176,232.8237L459.53118,233.06372L463.61057,231.8636L466.49014,230.66348L469.12975,229.9434L470.0896,229.70338
				L472.00931,229.9434L476.8086,233.06372L480.16809,234.50387L483.28763,235.46397L483.52759,235.94402L483.76755,236.90411L483.28763,237.86421
				L481.36791,239.30436L479.20824,240.26445L478.48834,241.46458L479.20824,243.14475L481.12795,246.26507L481.84784,247.94524
				L483.52759,249.38538z"/>
			<path clip-path="url(#SVG_CP_1)" fill="#73B273" fill-rule="evenodd" stroke="#000000" stroke-width="0.95986" stroke-miterlimit="10" stroke-linecap="round" stroke-linejoin="round" d="
				M567.99494,178.8182L569.91465,180.49837L571.5944,181.45847L572.79422,182.41857L573.75408,183.61869L574.23401,185.05884L574.23401,186.01893
				L573.99404,186.25896L573.75408,187.45908L573.51411,188.89923L573.75408,189.85932L572.79422,190.5794L570.87451,191.29947L
				566.31519,191.05945L564.39548,191.29947L563.19566,191.77952L562.47577,192.01954L561.03598,192.97964L559.35623,194.41979L
				555.75677,195.85994L554.79692,196.33998L553.35713,197.54011L551.91735,198.74023L551.19746,200.4204L550.47756,202.58062L549.51771,204.50081
				L547.35803,206.90106L544.47846,208.34121L542.07882,209.78135L536.55965,212.42162L535.11986,213.38172L533.44011,213.86177
				L529.60069,214.34182L526.72112,215.30191L525.76126,215.54194L524.80141,216.02199L521.68188,217.70216L518.32238,219.38233
				L513.76306,219.86238L511.84335,220.58245L510.88349,220.58245L508.24389,220.34243L507.28403,219.86238L505.12436,219.38233
				L503.20464,218.66226L502.48475,218.18221L502.24479,217.46213L501.04497,216.74206L498.88529,216.50204L496.48565,216.74206
				L494.8059,216.74206L494.08601,215.54194L493.84604,214.10179L493.12615,212.90167L492.64622,212.1816L491.68637,211.46152L490.24658,211.2215
				L488.56683,211.70155L486.40716,212.66165L485.20734,213.14169L483.76755,212.90167L483.04766,212.42162L482.8077,211.2215L483.04766,210.50143
				L483.04766,208.82125L482.8077,208.58123L480.88798,207.38111L480.64802,207.14108L479.4482,205.94096L479.4482,205.70094L479.92813,204.50081
				L479.92813,204.02077L481.12795,202.34059L482.08781,201.3805L485.4473,199.94035L486.88709,198.5002L488.08691,196.09996L487.12705,194.89984
				L486.64712,193.93974L487.12705,192.97964L487.12705,192.01954L486.88709,191.29947L485.92723,191.05945L484.96737,191.29947
				L484.48745,190.81942L483.52759,189.85932L482.32777,189.37928L480.64802,189.37928L478.00842,190.09935L476.32867,190.09935
				L474.40896,189.6193L473.68906,189.13925L472.48924,186.25896L471.76935,185.77891L470.32957,185.29886L469.36971,184.09874L
				469.36971,183.13864L469.60967,182.41857L470.32957,181.93852L472.00931,181.69849L476.0887,181.69849L478.96827,180.97842L487.84694,178.09813
				L489.52669,177.61808L490.24658,177.61808L492.64622,176.89801L494.32597,176.89801L495.52579,176.65798L496.72561,177.13803
				L498.40536,177.8581L500.805,179.29825L502.24479,180.01832L504.1645,181.69849L507.28403,182.17854L508.72382,182.17854L512.08331,182.41857
				L515.44281,181.69849L517.36252,180.97842L518.56234,180.7384L521.44191,179.7783L525.28134,178.8182L526.24119,178.57818L528.40087,178.09813
				L530.80051,178.09813L534.39997,178.8182L535.59979,179.29825L537.5195,180.01832L538.47936,180.01832L539.19925,179.53827L541.59889,178.33815
				L544.71843,177.13803L545.67828,176.89801L547.83796,176.89801L550.71753,176.41796L556.71663,176.65798L558.39638,176.89801
				L559.35623,176.65798L561.51591,177.13803L563.91555,178.33815L565.83526,178.8182L567.99494,178.8182z"/>
			<path clip-path="url(#SVG_CP_1)" fill="#73B273" fill-rule="evenodd" stroke="#000000" stroke-width="0.95986" stroke-miterlimit="10" stroke-linecap="round" stroke-linejoin="round" d="
				M540.39907,141.13437L542.31879,143.29459L543.03868,144.49471L543.51861,144.97476L544.47846,145.69483L546.39817,145.93485
				L547.59799,146.65493L549.27774,148.57512L549.99764,150.01527L550.47756,150.73534L551.43742,151.21539L552.39728,151.21539
				L553.11717,151.45542L555.99674,153.37561L556.95659,155.05578L557.67649,156.01588L558.39638,158.1761L559.5962,159.61625L560.55605,161.05639
				L561.51591,161.77647L561.99584,163.21661L563.19566,164.41673L565.35534,165.13681L566.07523,165.85688L566.55516,166.33693
				L566.55516,168.73717L565.5953,171.37744L565.5953,172.33754L566.07523,173.29764L567.51501,175.45786L567.99494,176.89801L567.99494,178.8182
				L565.83526,178.8182L563.91555,178.33815L561.51591,177.13803L559.35623,176.65798L558.39638,176.89801L556.71663,176.65798L
				550.71753,176.41796L547.83796,176.89801L545.67828,176.89801L544.71843,177.13803L541.59889,178.33815L539.19925,179.53827L
				538.47936,180.01832L537.5195,180.01832L535.59979,179.29825L534.39997,178.8182L530.80051,178.09813L528.40087,178.09813L526.24119,178.57818
				L525.28134,178.8182L521.44191,179.7783L518.56234,180.7384L517.36252,180.97842L515.44281,181.69849L512.08331,182.41857L508.72382,182.17854
				L507.28403,182.17854L504.1645,181.69849L502.24479,180.01832L500.805,179.29825L498.40536,177.8581L496.72561,177.13803L495.52579,176.65798
				L496.00572,175.69788L496.48565,173.53766L495.52579,170.89739L494.56594,168.49715L493.60608,167.53705L492.40626,166.81698
				L491.4464,165.85688L487.84694,164.17671L486.16719,162.97659L483.76755,160.81637L483.04766,160.0963L482.32777,158.41612L482.32777,157.216
				L482.8077,152.89556L483.28763,151.45542L483.28763,150.01527L482.8077,149.05517L482.08781,148.57512L479.20824,147.61502L478.00842,147.61502
				L475.36881,146.17488L474.40896,145.4548L473.68906,143.53461L473.92903,141.85444L473.4491,141.13437L472.96917,140.89434L471.76935,140.17427
				L467.92993,139.21417L466.73011,138.73412L463.85054,136.81393L459.77115,132.01344L456.89158,129.61319L455.93172,127.693L455.21183,127.21295
				L454.7319,126.49288L453.77205,125.05273L452.81219,123.85261L451.85233,123.13253L451.37241,121.69239L450.17258,119.53217L
				450.65251,116.8919L450.65251,114.9717L450.65251,114.49165L451.37241,114.49165L455.21183,114.73168L458.81129,115.69178L463.37061,117.61197
				L464.81039,117.852L473.20913,119.53217L475.84874,120.25224L477.76845,120.97231L479.92813,121.45236L480.88798,122.17244L481.60788,122.65248
				L482.08781,122.89251L482.8077,123.37256L483.76755,124.8127L484.72741,125.53278L485.68727,126.25285L486.88709,126.49288L489.28673,126.49288
				L491.68637,125.29275L494.08601,124.8127L496.00572,125.05273L496.48565,125.29275L497.44551,126.01283L498.40536,127.21295L
				499.60518,128.41307L500.56504,128.65309L501.76486,128.65309L502.48475,127.93302L503.20464,126.25285L503.44461,125.7728L505.36432,125.29275
				L506.08421,125.53278L508.72382,127.21295L509.68367,127.45297L511.84335,127.21295L512.80321,127.45297L514.24299,128.17305
				L515.68277,128.65309L516.64263,129.37317L518.08241,129.85322L519.76216,130.33327L520.00213,130.57329L521.92184,131.05334
				L523.60159,131.05334L524.32148,131.29336L524.80141,132.01344L526.24119,132.73351L526.72112,133.21356L530.32058,135.6138L
				531.5204,135.85383L533.20015,135.85383L533.68008,136.09385L534.8799,137.534L535.35983,138.97415L535.83976,139.45419L536.55965,139.93424
				L537.5195,139.69422L538.47936,140.17427L540.39907,141.13437z"/>
		</g>
		<g id="Labels">
			<g id="WordFile_-_Default">
				<g font-family="'Arial'" font-size="1" kerning="0" font-weight="400" fill="#000000" clip-path="url(#SVG_CP_1)" >
					<text text-anchor="start" transform="matrix(7.91881 0 0 7.92081 354.90685 101.29195)" >
						<tspan direction="ltr" unicode-bidi="embed" x="0 ">1</tspan>
					</text>
				</g>
				<g font-family="'Arial'" font-size="1" kerning="0" font-weight="400" fill="#000000" clip-path="url(#SVG_CP_1)" >
					<text text-anchor="start" transform="matrix(7.91881 0 0 7.92081 326.11116 324.51467)" >
						<tspan direction="ltr" unicode-bidi="embed" x="0 ">8</tspan>
					</text>
				</g>
				<g font-family="'Arial'" font-size="1" kerning="0" font-weight="400" fill="#000000" clip-path="url(#SVG_CP_1)" >
					<text text-anchor="start" transform="matrix(7.91881 0 0 7.92081 256.76155 109.69281)" >
						<tspan direction="ltr" unicode-bidi="embed" x="0 ">2</tspan>
					</text>
				</g>
				<g font-family="'Arial'" font-size="1" kerning="0" font-weight="400" fill="#000000" clip-path="url(#SVG_CP_1)" >
					<text text-anchor="start" transform="matrix(7.91881 0 0 7.92081 408.41884 368.43914)" >
						<tspan direction="ltr" unicode-bidi="embed" x="0 ">9</tspan>
					</text>
				</g>
				<g font-family="'Arial'" font-size="1" kerning="0" font-weight="400" fill="#000000" clip-path="url(#SVG_CP_1)" >
					<text text-anchor="start" transform="matrix(7.91881 0 0 7.92081 224.12644 180.25999)" >
						<tspan direction="ltr" unicode-bidi="embed" x="0 ">3</tspan>
					</text>
				</g>
				<g font-family="'Arial'" font-size="1" kerning="0" font-weight="400" fill="#000000" clip-path="url(#SVG_CP_1)" >
					<text text-anchor="start" transform="matrix(7.91881 0 0 7.92081 260.84094 246.50673)" >
						<tspan direction="ltr" unicode-bidi="embed" x="0 ">7</tspan>
					</text>
				</g>
				<g font-family="'Arial'" font-size="1" kerning="0" font-weight="400" fill="#000000" clip-path="url(#SVG_CP_1)" >
					<text text-anchor="start" transform="matrix(7.91881 0 0 7.92081 313.39307 266.66878)" >
						<tspan direction="ltr" unicode-bidi="embed" x="0 ">6</tspan>
					</text>
				</g>
				<g font-family="'Arial'" font-size="1" kerning="0" font-weight="400" fill="#000000" clip-path="url(#SVG_CP_1)" >
					<text text-anchor="start" transform="matrix(7.91881 0 0 7.92081 204.20942 225.38458)" >
						<tspan direction="ltr" unicode-bidi="embed" x="0 ">4</tspan>
					</text>
				</g>
				<g font-family="'Arial'" font-size="1" kerning="0" font-weight="400" fill="#000000" clip-path="url(#SVG_CP_1)" >
					<text text-anchor="start" transform="matrix(7.91881 0 0 7.92081 446.69311 177.85974)" >
						<tspan direction="ltr" unicode-bidi="embed" x="0 ">1</tspan>
						<tspan direction="ltr" unicode-bidi="embed" x="0.54559 ">2</tspan>
					</text>
				</g>
				<g font-family="'Arial'" font-size="1" kerning="0" font-weight="400" fill="#000000" clip-path="url(#SVG_CP_1)" >
					<text text-anchor="start" transform="matrix(7.91881 0 0 7.92081 381.3029 215.06353)" >
						<tspan direction="ltr" unicode-bidi="embed" x="0 ">5</tspan>
					</text>
				</g>
				<g font-family="'Arial'" font-size="1" kerning="0" font-weight="400" fill="#000000" clip-path="url(#SVG_CP_1)" >
					<text text-anchor="start" transform="matrix(7.91881 0 0 7.92081 512.2033 157.45767)" >
						<tspan direction="ltr" unicode-bidi="embed" x="0 ">1</tspan>
						<tspan direction="ltr" unicode-bidi="embed" x="0.54559 ">3</tspan>
					</text>
				</g>
				<g font-family="'Arial'" font-size="1" kerning="0" font-weight="400" fill="#000000" clip-path="url(#SVG_CP_1)" >
					<text text-anchor="start" transform="matrix(7.91881 0 0 7.92081 424.85638 251.06719)" >
						<tspan direction="ltr" unicode-bidi="embed" x="0 ">1</tspan>
						<tspan direction="ltr" unicode-bidi="embed" x="0.54559 ">0</tspan>
					</text>
				</g>
				<g font-family="'Arial'" font-size="1" kerning="0" font-weight="400" fill="#000000" clip-path="url(#SVG_CP_1)" >
					<text text-anchor="start" transform="matrix(7.91881 0 0 7.92081 527.32103 232.10526)" >
						<tspan direction="ltr" unicode-bidi="embed" x="0 ">1</tspan>
						<tspan direction="ltr" unicode-bidi="embed" x="0.54559 ">5</tspan>
					</text>
				</g>
				<g font-family="'Arial'" font-size="1" kerning="0" font-weight="400" fill="#000000" clip-path="url(#SVG_CP_1)" >
					<text text-anchor="start" transform="matrix(7.91881 0 0 7.92081 514.60294 202.10221)" >
						<tspan direction="ltr" unicode-bidi="embed" x="0 ">1</tspan>
						<tspan direction="ltr" unicode-bidi="embed" x="0.54559 ">4</tspan>
					</text>
				</g>
				<g font-family="'Arial'" font-size="1" kerning="0" font-weight="400" fill="#000000" clip-path="url(#SVG_CP_1)" >
					<text text-anchor="start" transform="matrix(7.91881 0 0 7.92081 454.7319 221.54419)" >
						<tspan direction="ltr" unicode-bidi="embed" x="0 ">1</tspan>
						<tspan direction="ltr" unicode-bidi="embed" x="0.48497 ">1</tspan>
					</text>
				</g>
			</g>
		</g>
	</g>
</svg>
