<?xml version="1.0" encoding="utf-8" standalone="no"?>
<!-- Creator: Esri ArcMap 10.6.1.9270 -->
<!DOCTYPE svg PUBLIC "-//W3C//DTD SVG 1.1//EN"  "http://www.w3.org/Graphics/SVG/1.1/DTD/svg11.dtd">
<svg width="813.74173pt" height="434.23937pt" viewBox="0 0 813.74173 434.23937" enable-background="new 0 0 813.74173 434.23937"
	version="1.1" xmlns="http://www.w3.org/2000/svg" xmlns:xlink="http://www.w3.org/1999/xlink" >
	<g id="Layers">
		<g id="NEPAL_WARDS">
			<clipPath id="SVG_CP_1">
				<path d="M0,434.23937L0,0L813.74173,0L813.74173,434.23937L0,434.23937z"/>
			</clipPath>
			<path clip-path="url(#SVG_CP_1)" fill="#73B273" fill-rule="evenodd" stroke="#000000" stroke-width="0.95986" stroke-miterlimit="10" stroke-linecap="round" stroke-linejoin="round" d="
				M423.05665,192.01954L426.65611,193.21967L426.89607,193.45969L427.61596,193.45969L428.81578,193.93974L429.77564,194.41979
				L430.97546,194.41979L431.93532,194.89984L433.13514,195.37989L434.33496,196.33998L434.57492,196.33998L435.05485,196.58001
				L435.77474,197.06006L436.49463,198.02016L436.97456,198.98025L437.21453,200.18037L436.97456,201.14047L436.7346,201.62052L
				436.49463,202.10057L436.7346,203.06067L436.97456,203.54072L437.21453,204.26079L437.45449,204.50081L438.41435,205.46091L438.89427,205.70094
				L439.3742,205.94096L441.77384,206.18099L442.7337,206.42101L442.97366,206.42101L444.17348,207.14108L444.65341,207.62113L444.89338,207.62113
				L445.3733,208.10118L446.33316,208.58123L448.25287,209.06128L448.7328,209.06128L450.41255,209.54133L451.61237,209.3013L452.0923,209.54133
				L452.57223,209.54133L453.53208,210.02138L454.25197,210.50143L454.97187,211.46152L455.45179,211.70155L455.45179,211.94157
				L456.41165,213.38172L457.13154,213.86177L457.37151,214.10179L459.29122,214.82187L459.53118,214.82187L460.49104,215.30191
				L461.21093,215.78196L461.4509,216.02199L462.17079,216.98209L462.41075,217.22211L462.65072,217.70216L463.37061,218.42223L
				463.61057,218.66226L464.33046,219.86238L464.57043,220.34243L464.81039,220.58245L465.05036,221.0625L466.01021,222.26262L469.12975,222.50265
				L471.76935,222.74267L472.72921,222.9827L475.12885,223.94279L475.60878,223.94279L475.84874,224.18282L476.32867,224.66287L
				476.8086,224.90289L477.76845,225.86299L478.24838,226.34304L478.24838,226.58306L478.96827,227.30314L479.4482,228.26323L479.20824,228.74328
				L478.72831,229.46336L478.00842,230.42345L477.52849,230.9035L476.8086,231.62358L476.56863,232.34365L476.32867,233.7838L475.60878,234.98392
				L474.64892,235.70399L474.40896,236.18404L473.92903,236.66409L473.68906,237.14414L473.20913,237.14414L472.24928,237.14414
				L471.52939,236.90411L471.04946,236.90411L469.36971,236.42406L468.40985,236.42406L466.97007,236.66409L465.77025,236.66409
				L463.85054,236.66409L461.21093,236.18404L458.57133,236.42406L457.85143,236.42406L456.17169,237.14414L454.97187,237.62419
				L454.7319,238.10423L454.01201,238.58428L453.77205,238.58428L453.05215,239.06433L452.33226,239.54438L451.85233,240.02443L
				450.89248,240.7445L450.41255,241.22455L450.17258,241.7046L449.69266,242.42467L448.97276,243.6248L448.49284,245.30497L448.25287,245.78502
				L447.53298,246.50509L447.29302,246.74511L446.0932,247.46519L444.17348,247.94524L442.25377,247.94524L442.01381,247.94524L
				441.53388,247.94524L440.57402,247.70521L438.65431,247.46519L437.93442,247.22516L435.53478,246.98514L435.05485,247.22516L
				432.89517,246.98514L432.65521,246.74511L431.93532,246.74511L431.45539,246.50509L430.49553,246.50509L430.49553,246.02504L
				429.53568,245.54499L429.29571,245.30497L428.09589,244.58489L425.69625,243.86482L425.21632,243.6248L423.77654,243.14475L422.57672,242.42467
				L421.85683,241.94463L421.3769,241.7046L420.657,241.46458L420.41704,240.98453L419.21722,240.50448L418.73729,240.26445L418.49733,240.02443
				L418.0174,240.02443L417.29751,239.54438L416.57762,239.30436L416.57762,238.82431L415.3778,238.34426L413.69805,238.10423L413.21812,237.86421
				L412.73819,237.86421L411.29841,237.38416L410.57851,237.38416L410.33855,237.14414L408.89877,236.66409L406.97905,236.18404
				L405.77923,235.46397L403.61956,234.98392L402.89966,234.74389L401.93981,234.74389L401.69984,234.50387L400.26006,234.26384
				L396.90056,234.98392L396.42063,234.98392L395.46078,235.22394L394.74089,235.22394L393.78103,235.22394L393.06114,235.22394
				L392.58121,235.46397L392.34125,235.46397L391.14142,235.70399L389.46168,235.70399L387.54196,235.22394L384.18247,233.54377
				L383.9425,233.54377L382.26275,233.06372L381.3029,232.8237L380.58301,232.58367L380.10308,232.34365L377.46347,232.34365L375.78372,232.58367
				L373.86401,232.58367L371.9443,232.10362L371.22441,232.10362L370.26455,231.8636L367.14502,231.14353L366.18516,230.42345L364.50541,229.9434
				L364.26545,229.70338L363.54556,229.46336L363.30559,229.46336L361.86581,228.74328L360.90595,228.50326L359.2262,228.50326L
				356.82656,228.98331L355.62674,228.74328L355.38678,228.74328L352.50721,228.50326L350.82746,228.74328L346.50811,229.46336L
				345.78822,229.70338L344.82836,229.9434L344.10847,230.18343L343.38858,230.18343L341.94879,230.9035L341.2289,230.9035L340.74897,231.14353
				L340.26904,231.14353L340.02908,231.62358L339.54915,231.62358L338.34933,232.34365L336.66958,233.06372L335.46976,233.54377
				L334.98983,233.7838L334.26994,234.50387L333.79001,234.74389L333.55005,234.98392L331.15041,234.02382L330.91044,234.26384L
				326.83106,234.74389L325.15131,234.98392L324.67138,235.22394L323.23159,235.22394L321.07192,234.74389L319.15221,234.74389L
				316.99253,234.98392L314.59289,234.74389L313.39307,234.26384L311.47336,233.7838L307.154,233.7838L303.55454,233.06372L301.87479,233.06372
				L300.43501,232.8237L298.99522,232.58367L293.47605,232.8237L290.35652,233.06372L288.19684,233.06372L285.31727,232.8237L283.39756,232.8237
				L282.67767,232.58367L281.71781,232.58367L281.71781,231.8636L282.19774,228.98331L284.11745,223.70277L284.59738,222.74267L
				284.83734,222.50265L285.55724,220.82248L286.51709,218.66226L288.43681,215.78196L289.39666,214.10179L290.11655,213.38172L
				290.35652,213.14169L291.31637,211.94157L291.55634,211.70155L293.23609,209.54133L294.43591,208.34121L294.91584,207.62113L
				297.55544,204.26079L298.99522,201.86055L303.07461,196.58001L305.23429,194.17976L305.71422,193.45969L309.07372,189.6193L310.03357,188.89923
				L311.95328,186.97903L313.1531,186.01893L315.07282,184.09874L316.03267,183.37866L319.63213,180.01832L320.11206,179.53827L
				322.75167,176.89801L323.47156,175.69788L325.39127,173.77769L326.35113,172.33754L326.35113,171.85749L326.59109,171.37744L
				328.27084,168.73717L328.99073,167.77708L328.75077,167.29703L329.71062,166.33693L330.19055,165.13681L330.67048,164.41673L
				331.39037,163.21661L332.83016,161.77647L333.07012,161.77647L333.55005,162.97659L333.79001,163.45664L334.02998,163.93669L
				334.02998,164.65676L334.26994,166.57695L334.26994,167.29703L334.98983,168.49715L336.18965,169.69727L337.14951,170.41735L
				338.82926,171.13742L340.26904,171.37744L340.98894,172.09752L341.70883,172.33754L341.94879,172.57757L342.42872,173.53766L
				342.90865,174.49776L343.14861,174.73779L343.62854,176.17793L344.10847,176.89801L344.10847,177.13803L344.34843,177.61808L
				344.5884,177.8581L345.06832,178.33815L346.26814,178.33815L346.98804,177.8581L347.228,177.37805L347.70793,176.89801L349.14771,175.69788
				L349.38768,175.21783L349.86761,174.73779L350.10757,174.49776L350.5875,173.77769L350.82746,173.53766L351.30739,173.29764L
				351.54735,172.81759L352.74717,171.85749L353.46707,171.37744L354.42692,171.13742L354.90685,170.89739L356.82656,170.41735L
				357.78642,170.41735L358.74628,170.65737L359.9461,171.37744L360.18606,171.37744L361.62585,172.09752L363.54556,173.29764L364.02549,173.53766
				L364.50541,174.01771L364.98534,174.49776L365.22531,174.73779L365.70523,175.21783L365.9452,176.17793L366.18516,177.13803L
				366.42513,177.61808L367.14502,178.8182L368.5848,180.01832L369.06473,180.25835L369.3047,180.7384L370.98444,181.93852L371.46437,182.17854
				L371.9443,182.41857L372.66419,182.89862L373.62405,183.61869L374.10398,183.85871L374.34394,183.85871L374.5839,184.09874L375.54376,184.57879
				L376.02369,185.05884L376.26365,185.29886L376.98355,186.01893L377.70344,186.73901L378.42333,187.45908L378.90326,187.6991L
				379.14322,187.93913L380.82297,188.41918L381.3029,188.6592L382.02279,188.89923L385.38229,189.6193L386.34214,190.09935L387.06204,190.5794
				L387.302,190.81942L387.78193,190.81942L388.74178,191.5395L390.42153,192.01954L390.90146,192.01954L391.38139,191.77952L392.58121,190.81942
				L392.58121,190.5794L393.06114,190.09935L393.54107,189.37928L393.78103,189.13925L394.02099,188.89923L394.50092,188.6592L394.74089,188.41918
				L395.46078,188.41918L397.62045,188.41918L398.82028,188.17915L399.78013,187.6991L400.50002,186.97903L401.45988,186.49898L
				402.17977,186.01893L402.41974,185.53888L403.37959,184.81881L403.61956,184.81881L404.09948,184.33876L405.05934,183.85871L
				406.25916,183.37866L407.21902,183.13864L409.37869,183.37866L409.85862,183.37866L410.33855,183.61869L411.29841,184.09874L
				413.21812,186.25896L413.45808,186.49898L414.17798,187.21906L414.41794,187.21906L414.89787,187.6991L415.85772,188.41918L417.29751,188.6592
				L418.49733,189.37928L418.97726,189.6193L419.93711,190.09935L421.13693,190.81942L422.09679,191.5395L422.57672,191.5395L423.05665,192.01954
				z"/>
			<path clip-path="url(#SVG_CP_1)" fill="#73B273" fill-rule="evenodd" stroke="#000000" stroke-width="0.95986" stroke-miterlimit="10" stroke-linecap="round" stroke-linejoin="round" d="
				M473.20913,237.14414L472.96917,238.10423L472.72921,238.58428L472.72921,238.82431L472.48924,239.30436L471.28942,240.7445L
				470.56953,241.46458L470.0896,242.18465L469.84964,242.90472L469.36971,243.86482L469.36971,244.34487L468.88978,245.54499L468.88978,249.62541
				L468.64982,250.10546L468.64982,252.5057L468.88978,253.4658L469.12975,254.66592L469.36971,255.38599L468.64982,259.94646L468.64982,261.86665
				L468.88978,264.50692L469.12975,264.98697L469.84964,265.94707L470.32957,266.42712L470.56953,266.66714L471.28942,267.38722
				L472.72921,268.34731L473.20913,269.06739L474.64892,269.78746L474.88888,270.26751L476.0887,270.74756L477.04856,271.46763L
				477.28852,271.70766L477.76845,271.94768L478.24838,272.66775L478.72831,272.66775L478.72831,272.90778L479.68816,273.62785L
				480.88798,274.58795L481.12795,275.068L481.36791,275.78807L481.84784,276.74817L481.84784,277.22822L482.08781,277.94829L482.8077,278.90839
				L483.04766,279.62846L483.28763,280.10851L483.28763,280.34853L483.76755,280.58856L483.76755,281.06861L484.24748,281.30863
				L484.48745,281.78868L484.96737,282.74878L485.20734,283.46885L485.92723,285.14902L486.16719,285.62907L486.64712,286.82919
				L486.64712,287.30924L487.12705,287.54927L487.12705,288.02932L487.36701,288.26934L487.60698,288.74939L487.60698,289.70949
				L487.12705,291.38966L487.12705,292.8298L486.88709,293.54988L486.88709,293.7899L486.64712,294.26995L486.40716,294.50998L486.16719,295.23005
				L486.16719,295.7101L485.68727,296.91022L485.20734,298.59039L484.72741,300.03054L484.48745,300.99064L483.52759,303.15086L
				483.52759,303.6309L483.28763,304.35098L482.8077,306.5112L482.56773,306.99125L482.32777,307.95134L482.32777,309.15147L482.32777,310.35159
				L482.08781,311.55171L482.08781,312.51181L481.60788,313.23188L481.36791,314.19198L481.36791,314.432L481.12795,314.67203L480.40806,317.07227
				L480.16809,317.55232L480.16809,317.79235L479.92813,318.03237L479.68816,318.75244L479.20824,320.91266L478.72831,322.11279
				L478.48834,322.83286L478.24838,323.79296L477.52849,325.2331L477.04856,326.1932L477.04856,326.91327L476.8086,327.39332L476.8086,327.63335
				L476.32867,329.31352L475.84874,330.99369L475.36881,331.47374L474.88888,333.87398L474.40896,334.35403L473.92903,336.51425
				L473.4491,337.23432L472.48924,338.43445L472.24928,339.39454L472.00931,339.63457L470.32957,341.55476L469.84964,342.51486L
				469.84964,342.99491L469.12975,343.23494L467.92993,342.51486L467.45,342.51486L466.73011,342.51486L466.25018,342.03481L465.53028,342.03481
				L464.81039,342.03481L464.33046,342.27484L463.37061,342.51486L462.65072,342.99491L461.93082,343.23494L461.4509,343.23494L
				460.731,343.47496L460.25108,343.95501L459.29122,344.19503L457.37151,345.63518L456.41165,346.11523L455.93172,346.59528L455.21183,347.31535
				L454.97187,347.31535L454.7319,347.7954L454.25197,348.03542L453.77205,348.51547L453.53208,349.23555L452.33226,350.67569L452.0923,350.91572
				L451.85233,351.39577L451.37241,351.87581L451.13244,352.35586L450.41255,353.31596L449.93262,353.55599L449.69266,354.03603
				L449.21273,354.51608L448.97276,354.51608L448.49284,354.99613L447.29302,355.47618L446.57312,355.47618L446.33316,355.71621
				L445.61327,355.71621L444.17348,356.43628L443.45359,357.15635L443.21363,357.6364L442.49373,358.11645L442.25377,358.5965L442.01381,359.07655
				L441.77384,359.31657L441.53388,359.5566L441.05395,360.27667L440.09409,360.99674L439.13424,361.47679L435.29481,362.43689L
				435.05485,362.67691L434.81488,362.91694L433.61506,363.15696L432.89517,363.39699L432.17528,363.87704L430.97546,364.59711L
				430.25557,365.07716L429.29571,365.79723L428.81578,366.03726L426.17618,366.75733L425.93621,366.99735L424.49643,367.4774L423.77654,367.4774
				L422.81668,367.71743L421.85683,367.71743L419.69715,368.4375L418.97726,369.15757L418.73729,369.87765L418.0174,370.59772L418.0174,370.83774
				L417.77744,371.07777L417.53747,371.31779L416.81758,372.03787L416.09769,373.23799L415.3778,373.95806L414.6579,374.67814L414.41794,374.91816
				L414.17798,375.15818L413.93801,375.39821L413.69805,375.87826L413.45808,375.87826L412.97815,376.59833L411.77833,377.55843
				L410.09859,379.47862L409.37869,379.95867L407.45898,380.91877L406.73909,380.91877L406.49913,380.43872L404.33945,380.1987L
				404.33945,379.71865L404.09948,379.47862L403.85952,378.99858L403.61956,378.03848L403.61956,376.35831L403.37959,374.67814L
				403.13963,373.23799L402.89966,371.55782L402.6597,368.4375L402.41974,366.27728L402.17977,365.31718L401.93981,364.59711L401.45988,363.15696
				L401.45988,362.91694L401.21992,362.67691L400.73999,360.75672L400.50002,360.51669L399.3002,357.87643L398.82028,357.15635L
				398.58031,356.6763L398.10038,356.43628L397.62045,356.19625L396.90056,355.95623L396.6606,355.71621L395.94071,355.47618L395.22081,354.99613
				L394.26096,354.75611L393.54107,354.27606L393.06114,354.27606L392.10128,353.31596L391.86132,353.07594L391.14142,351.87581
				L389.70164,350.43567L389.46168,349.95562L389.22171,349.95562L388.98175,349.47557L388.74178,349.23555L387.78193,347.31535
				L387.06204,345.39516L386.58211,344.43506L386.10218,343.47496L385.62225,343.47496L385.38229,342.99491L385.14232,342.99491
				L384.6624,342.51486L384.18247,341.79479L383.9425,340.59467L384.18247,339.39454L383.70254,338.43445L382.50272,336.9943L382.26275,336.75428
				L381.54286,335.79418L381.3029,335.79418L380.58301,334.59406L380.34304,333.87398L379.86311,332.91388L379.38319,330.99369L
				378.66329,329.31352L377.9434,328.59344L377.70344,328.35342L377.70344,327.87337L377.22351,327.39332L376.98355,326.91327L376.26365,326.1932
				L375.78372,325.2331L375.3038,324.75305L374.82387,324.27301L374.34394,324.27301L373.62405,323.31291L373.14412,322.59283L373.14412,321.39271
				L372.90416,320.91266L372.18426,320.19259L371.70434,320.19259L371.46437,319.95257L370.50452,319.23249L369.78462,318.75244
				L369.06473,317.07227L369.06473,315.3921L368.82477,315.15208L367.86491,314.91205L367.86491,314.67203L366.42513,314.19198L
				365.46527,313.71193L363.78552,312.75183L362.82567,312.75183L362.34574,312.51181L361.38588,312.51181L360.90595,312.75183L
				360.18606,312.51181L358.02638,312.51181L357.30649,312.27178L354.90685,311.79173L354.42692,311.55171L353.947,311.31169L353.46707,310.35159
				L352.98714,309.63151L352.50721,307.4713L352.74717,306.75122L352.50721,305.79112L352.74717,302.91083L352.98714,302.19076L
				352.98714,300.51059L352.74717,300.27056L352.50721,300.03054L352.02728,299.31046L350.82746,298.59039L350.10757,297.63029L
				349.86761,296.6702L349.62764,295.47007L349.38768,295.23005L348.90775,293.7899L347.94789,292.8298L347.94789,292.34976L347.94789,291.14963
				L348.42782,290.18954L348.90775,289.22944L348.90775,288.02932L348.66779,286.34915L348.66779,283.9489L348.66779,283.46885L
				348.42782,282.74878L348.42782,282.26873L348.18786,281.54866L348.18786,279.38844L347.70793,277.70827L347.46797,275.30802L
				347.46797,274.82797L347.228,274.82797L346.98804,274.58795L346.26814,274.1079L345.78822,273.62785L345.78822,273.1478L345.54825,272.66775
				L345.30829,270.98758L344.82836,270.50753L343.38858,269.78746L341.94879,269.54744L341.46886,269.54744L340.74897,269.06739
				L340.26904,269.06739L339.54915,268.58734L338.58929,267.62724L337.62944,266.66714L336.18965,265.227L334.98983,264.74695L333.79001,263.78685
				L332.59019,263.78685L332.35023,264.02687L331.39037,263.78685L329.95059,264.02687L329.2307,264.2669L327.31098,264.2669L326.83106,264.2669
				L324.67138,263.78685L323.23159,263.3068L323.23159,262.82675L322.99163,262.10668L322.75167,260.66653L322.75167,259.70643L
				323.23159,254.90594L323.47156,250.82553L324.43142,241.94463L324.43142,240.7445L324.67138,239.78441L324.67138,235.22394L325.15131,234.98392
				L326.83106,234.74389L330.91044,234.26384L331.15041,234.02382L333.55005,234.98392L333.79001,234.74389L334.26994,234.50387
				L334.98983,233.7838L335.46976,233.54377L336.66958,233.06372L338.34933,232.34365L339.54915,231.62358L340.02908,231.62358L
				340.26904,231.14353L340.74897,231.14353L341.2289,230.9035L341.94879,230.9035L343.38858,230.18343L344.10847,230.18343L344.82836,229.9434
				L345.78822,229.70338L346.50811,229.46336L350.82746,228.74328L352.50721,228.50326L355.38678,228.74328L355.62674,228.74328
				L356.82656,228.98331L359.2262,228.50326L360.90595,228.50326L361.86581,228.74328L363.30559,229.46336L363.54556,229.46336L
				364.26545,229.70338L364.50541,229.9434L366.18516,230.42345L367.14502,231.14353L370.26455,231.8636L371.22441,232.10362L371.9443,232.10362
				L373.86401,232.58367L375.78372,232.58367L377.46347,232.34365L380.10308,232.34365L380.58301,232.58367L381.3029,232.8237L382.26275,233.06372
				L383.9425,233.54377L384.18247,233.54377L387.54196,235.22394L389.46168,235.70399L391.14142,235.70399L392.34125,235.46397L
				392.58121,235.46397L393.06114,235.22394L393.78103,235.22394L394.74089,235.22394L395.46078,235.22394L396.42063,234.98392L
				396.90056,234.98392L400.26006,234.26384L401.69984,234.50387L401.93981,234.74389L402.89966,234.74389L403.61956,234.98392L
				405.77923,235.46397L406.97905,236.18404L408.89877,236.66409L410.33855,237.14414L410.57851,237.38416L411.29841,237.38416L
				412.73819,237.86421L413.21812,237.86421L413.69805,238.10423L415.3778,238.34426L416.57762,238.82431L416.57762,239.30436L417.29751,239.54438
				L418.0174,240.02443L418.49733,240.02443L418.73729,240.26445L419.21722,240.50448L420.41704,240.98453L420.657,241.46458L421.3769,241.7046
				L421.85683,241.94463L422.57672,242.42467L423.77654,243.14475L425.21632,243.6248L425.69625,243.86482L428.09589,244.58489L
				429.29571,245.30497L429.53568,245.54499L430.49553,246.02504L430.49553,246.50509L431.45539,246.50509L431.93532,246.74511L
				432.65521,246.74511L432.89517,246.98514L435.05485,247.22516L435.53478,246.98514L437.93442,247.22516L438.65431,247.46519L
				440.57402,247.70521L441.53388,247.94524L442.01381,247.94524L442.25377,247.94524L444.17348,247.94524L446.0932,247.46519L447.29302,246.74511
				L447.53298,246.50509L448.25287,245.78502L448.49284,245.30497L448.97276,243.6248L449.69266,242.42467L450.17258,241.7046L450.41255,241.22455
				L450.89248,240.7445L451.85233,240.02443L452.33226,239.54438L453.05215,239.06433L453.77205,238.58428L454.01201,238.58428L
				454.7319,238.10423L454.97187,237.62419L456.17169,237.14414L457.85143,236.42406L458.57133,236.42406L461.21093,236.18404L463.85054,236.66409
				L465.77025,236.66409L466.97007,236.66409L468.40985,236.42406L469.36971,236.42406L471.04946,236.90411L471.52939,236.90411
				L472.24928,237.14414L473.20913,237.14414z"/>
			<path clip-path="url(#SVG_CP_1)" fill="#73B273" fill-rule="evenodd" stroke="#000000" stroke-width="0.95986" stroke-miterlimit="10" stroke-linecap="round" stroke-linejoin="round" d="
				M281.71781,232.58367L282.67767,232.58367L283.39756,232.8237L285.31727,232.8237L288.19684,233.06372L290.35652,233.06372L293.47605,232.8237
				L298.99522,232.58367L300.43501,232.8237L301.87479,233.06372L303.55454,233.06372L307.154,233.7838L311.47336,233.7838L313.39307,234.26384
				L314.59289,234.74389L316.99253,234.98392L319.15221,234.74389L321.07192,234.74389L323.23159,235.22394L324.67138,235.22394
				L324.67138,239.78441L324.43142,240.7445L324.43142,241.94463L323.47156,250.82553L323.23159,254.90594L322.75167,259.70643L
				322.75167,260.66653L322.99163,262.10668L323.23159,262.82675L323.23159,263.3068L322.99163,263.54682L321.55185,263.78685L319.63213,264.2669
				L317.47246,264.2669L314.59289,264.74695L313.39307,265.227L312.67318,265.46702L310.5135,266.18709L307.63393,266.90717L305.23429,267.86726
				L304.27443,268.58734L301.63483,269.78746L300.43501,270.02748L298.99522,270.02748L297.31548,270.26751L296.35562,270.50753
				L294.43591,271.22761L293.95598,271.22761L293.47605,271.46763L291.55634,271.94768L290.59648,272.1877L289.39666,272.42773L
				287.71691,272.90778L286.75706,273.62785L286.27713,273.86787L285.31727,274.34792L284.35742,274.82797L282.67767,274.82797L
				280.51799,274.82797L279.7981,274.58795L278.83824,274.58795L278.11835,274.82797L277.63842,276.02809L274.51889,279.14841L274.27893,279.38844
				L273.799,279.38844L273.07911,279.38844L272.11925,279.62846L268.99972,281.54866L267.7999,282.74878L267.08,283.22883L266.60008,283.70888
				L264.68036,284.42895L263.96047,284.42895L263.24058,284.42895L261.56083,283.46885L259.64112,282.26873L258.20133,280.34853
				L257.72141,280.10851L257.48144,280.10851L256.76155,280.10851L256.28162,280.10851L255.80169,281.06861L255.56173,281.30863
				L255.0818,282.26873L254.84184,282.50875L253.88198,282.9888L253.40205,283.70888L252.68216,284.18893L251.24238,284.66897L249.80259,284.909
				L249.0827,284.909L248.36281,284.42895L247.16299,283.9489L245.48324,282.74878L243.80349,281.06861L242.60367,280.34853L241.40385,280.34853
				L240.92392,280.10851L236.60457,280.34853L235.16478,280.10851L234.20493,279.62846L233.48503,278.90839L232.76514,277.94829
				L231.80529,274.34792L230.3655,270.74756L229.40565,269.30741L229.16568,268.82736L228.20583,267.38722L227.7259,266.90717L226.76604,266.66714
				L225.56622,266.66714L224.84633,266.90717L223.64651,267.14719L222.92662,266.66714L221.96676,266.66714L221.48683,266.42712
				L219.32716,266.18709L219.08719,265.94707L217.64741,266.18709L216.44759,265.94707L214.04795,265.46702L206.12913,262.58673
				L203.48953,261.86665L202.04974,261.3866L200.36999,260.66653L199.89007,260.42651L198.21032,259.70643L196.05064,259.70643L
				194.85082,259.22638L194.37089,258.74634L193.89096,258.74634L193.651,258.50631L192.93111,258.02626L192.45118,257.54621L191.25136,255.86604
				L190.53147,253.70582L190.05154,252.26568L188.85172,249.86543L187.89186,248.66531L185.97215,246.50509L185.49222,246.26507
				L184.77233,245.78502L183.81247,245.06494L182.61265,244.58489L180.45298,244.58489L179.73308,244.34487L178.77323,244.34487
				L176.85352,244.10485L173.49402,244.10485L172.53416,244.34487L170.61445,245.54499L169.41463,246.26507L166.77503,249.62541
				L166.2951,250.10546L165.5752,250.34548L164.85531,250.82553L163.65549,251.30558L162.9356,251.5456L161.49582,252.5057L161.01589,252.74573
				L159.81607,253.22577L158.85621,253.70582L157.41643,254.18587L156.9365,254.4259L156.45657,254.4259L155.25675,254.90594L154.05693,256.10607
				L153.33704,256.34609L150.2175,258.02626L148.05783,258.74634L146.85801,258.74634L144.45837,258.74634L141.81876,258.74634L
				140.61894,258.50631L140.61894,257.54621L140.13901,255.86604L138.45927,250.34548L137.25945,247.94524L137.01948,247.70521L
				136.53955,246.26507L136.05962,245.30497L135.81966,245.06494L135.09977,243.86482L134.61984,242.90472L133.42002,240.98453L
				133.18006,240.7445L132.46016,239.78441L131.26034,238.10423L128.14081,235.22394L125.74117,231.62358L125.50121,230.42345L125.02128,229.9434
				L124.78131,229.22333L124.78131,226.58306L125.50121,224.18282L126.2211,222.74267L126.94099,221.78257L127.90085,220.82248L
				128.8607,220.1024L131.74027,218.66226L132.70013,218.18221L130.54045,217.70216L130.06052,217.70216L128.38077,217.22211L126.94099,216.50204
				L124.54135,215.78196L124.06142,215.30191L123.58149,214.58184L123.10157,214.10179L122.8616,213.38172L122.8616,212.1816L122.8616,209.78135
				L122.8616,208.82125L123.10157,208.10118L123.82146,207.14108L124.54135,206.42101L130.78042,203.06067L131.74027,202.34059L
				132.2202,201.62052L132.70013,200.66042L132.70013,199.94035L133.18006,198.74023L133.65998,198.26018L135.33973,196.58001L135.5797,196.09996
				L136.05962,193.69972L135.81966,193.21967L134.8598,191.77952L133.89995,188.41918L133.89995,187.93913L133.42002,186.97903L
				133.18006,186.73901L132.70013,186.01893L131.26034,185.29886L129.82056,184.81881L128.38077,184.09874L126.70103,183.61869L
				124.78131,183.61869L124.06142,182.89862L123.58149,182.17854L122.8616,180.49837L122.8616,179.53827L123.10157,179.05823L123.10157,177.37805
				L122.8616,176.89801L122.38167,176.65798L121.66178,176.41796L116.38257,176.41796L114.94279,175.93791L113.74297,175.69788L
				113.26304,175.93791L112.54315,175.69788L110.62343,175.69788L109.42361,175.21783L107.74387,175.21783L106.06412,174.73779L
				104.1444,173.53766L103.18455,172.33754L101.74476,170.17732L100.78491,167.057L100.78491,163.93669L101.02487,162.01649L101.26484,160.57634
				L101.98473,157.93608L102.46466,157.45603L103.42451,155.53583L104.38437,153.85566L106.30408,151.93546L106.78401,151.45542
				L109.66358,150.49532L113.26304,149.2952L114.70282,148.57512L115.90264,148.3351L116.62254,147.85505L117.10246,147.61502L118.78221,146.65493
				L119.02218,146.65493L119.74207,145.93485L122.14171,144.73473L124.30139,143.53461L125.50121,142.81454L126.46106,141.85444
				L126.94099,141.13437L128.38077,138.01405L129.82056,135.85383L130.30049,135.37378L132.2202,133.93363L134.37988,133.45358L
				138.45927,133.69361L140.13901,134.17366L141.09887,134.89373L143.73847,136.5739L144.2184,136.81393L146.37808,138.01405L148.77772,138.73412
				L150.9374,138.73412L152.37718,138.73412L153.81697,138.25407L154.77682,138.01405L157.41643,135.85383L159.5761,132.97353L160.296,132.25346
				L161.25585,131.53339L161.25585,132.01344L162.21571,135.85383L162.9356,138.25407L164.13542,140.89434L164.37538,142.09446L
				165.81517,144.73473L166.2951,146.65493L167.49492,149.2952L168.21481,151.45542L168.45477,151.93546L168.9347,153.37561L168.9347,153.61564
				L169.41463,154.33571L170.37449,156.97598L172.05423,159.85627L173.01409,162.25652L173.73398,163.45664L174.45388,166.09691
				L174.69384,167.77708L174.9338,169.9373L174.45388,171.61747L174.21391,172.81759L173.73398,174.01771L177.09348,175.93791L180.69294,179.05823
				L183.33255,180.25835L184.77233,180.7384L186.69204,181.21845L189.81158,181.21845L190.53147,181.21845L191.97125,181.21845L
				192.45118,181.21845L194.13093,181.45847L197.0105,182.17854L198.21032,182.17854L199.17017,181.93852L200.84992,180.97842L201.32985,180.97842
				L202.28971,180.7384L203.24956,180.7384L204.92931,180.25835L205.6492,180.25835L206.3691,179.7783L207.32895,179.7783L210.68845,177.61808
				L211.40834,177.61808L211.64831,177.37805L213.32805,176.65798L214.52787,176.65798L215.24777,176.89801L216.68755,177.8581L
				216.92751,178.33815L217.64741,180.49837L218.3673,181.69849L220.28701,184.57879L221.48683,187.93913L223.16658,189.13925L223.88647,189.6193
				L226.04615,190.81942L228.20583,192.73962L229.40565,193.21967L231.32536,195.13986L232.76514,197.06006L235.16478,200.90045
				L236.3646,203.30069L237.56442,205.22089L238.04435,205.70094L238.52428,206.90106L239.00421,207.86116L239.96406,209.3013L240.68396,210.50143
				L242.12374,211.70155L245.7232,213.62174L246.68306,214.58184L248.36281,215.78196L250.04256,216.98209L250.76245,217.22211L
				252.92212,218.90228L253.88198,219.62235L260.12105,221.78257L260.60097,221.78257L261.32087,222.0226L263.00061,223.70277L263.24058,224.18282
				L264.68036,225.62296L265.64022,227.06311L267.31997,228.50326L268.51979,229.22333L269.47964,229.70338L271.15939,229.70338
				L271.87929,229.9434L275.23878,231.14353L276.4386,231.38355L278.11835,232.10362L280.27803,232.34365L281.71781,232.58367z"/>
			<path clip-path="url(#SVG_CP_1)" fill="#73B273" fill-rule="evenodd" stroke="#000000" stroke-width="0.95986" stroke-miterlimit="10" stroke-linecap="round" stroke-linejoin="round" d="
				M542.31879,160.81637L542.31879,161.53644L541.83886,162.73656L541.59889,163.45664L541.59889,164.41673L541.35893,165.13681
				L541.11897,167.77708L540.879,168.49715L540.879,169.9373L540.879,171.61747L540.879,172.57757L540.879,173.05761L541.35893,173.77769
				L541.83886,174.97781L541.83886,176.17793L541.83886,176.65798L541.59889,177.37805L541.11897,177.8581L540.879,177.8581L540.39907,178.33815
				L540.15911,179.05823L540.15911,179.53827L540.15911,179.7783L540.15911,181.21845L539.91914,181.69849L539.91914,183.37866L
				540.15911,184.33876L540.15911,185.29886L540.39907,186.01893L540.879,186.97903L541.11897,187.45908L542.07882,187.93913L542.79871,188.6592
				L543.27864,189.37928L543.27864,189.85932L543.75857,190.81942L545.43832,191.77952L546.15821,192.01954L546.63814,192.25957
				L547.11807,192.73962L547.59799,192.97964L549.99764,193.21967L550.71753,193.45969L551.19746,193.69972L552.15731,194.65981
				L552.15731,194.89984L552.63724,195.85994L552.8772,196.82003L553.35713,197.78013L553.35713,199.22028L553.35713,199.70033L
				553.35713,201.14047L553.83706,202.34059L554.07702,202.82064L554.79692,204.26079L555.27684,206.18099L555.27684,207.38111L
				555.99674,209.3013L556.2367,210.50143L556.47667,211.94157L555.99674,214.58184L555.51681,215.78196L555.51681,216.02199L555.27684,216.50204
				L554.79692,217.22211L554.79692,217.46213L554.31699,218.42223L554.07702,219.1423L553.5971,219.86238L553.5971,220.1024L553.5971,220.58245
				L552.8772,222.0226L552.15731,224.42284L551.19746,225.62296L550.71753,226.10301L550.47756,226.58306L549.75767,228.98331L549.51771,229.9434
				L549.51771,231.38355L549.75767,231.8636L550.2376,232.34365L550.2376,232.58367L551.43742,234.02382L551.91735,234.26384L552.39728,234.98392
				L552.8772,235.46397L553.35713,235.94402L553.83706,235.94402L554.31699,235.70399L555.51681,235.94402L556.2367,236.18404L556.95659,236.66409
				L557.43652,237.14414L558.39638,237.86421L558.87631,238.34426L559.5962,239.06433L560.31609,239.54438L560.55605,239.78441L
				561.27595,240.50448L562.47577,241.22455L562.71573,241.46458L564.63544,243.14475L566.07523,244.10485L567.03508,244.82492L
				567.75498,245.54499L568.2349,245.78502L568.9548,246.26507L569.19476,246.50509L569.43472,246.50509L570.39458,247.46519L571.35444,246.98514
				L572.31429,246.98514L572.55426,246.98514L574.9539,246.98514L575.91375,247.22516L576.39368,247.70521L576.63365,247.94524L
				577.35354,248.90533L577.5935,249.38538L577.83347,250.34548L577.83347,251.30558L577.35354,252.26568L576.87361,252.98575L576.39368,254.18587
				L579.27325,253.94585L580.23311,253.94585L580.71304,253.70582L582.87271,253.70582L583.5926,253.4658L584.07253,253.22577L585.51232,252.74573
				L586.9521,252.74573L588.63185,252.5057L590.3116,252.5057L590.55156,252.74573L590.79153,252.98575L591.03149,253.22577L590.79153,254.66592
				L590.55156,255.38599L590.3116,255.86604L590.3116,256.82614L590.55156,258.02626L591.03149,258.50631L591.51142,258.74634L592.47127,258.98636
				L593.43113,258.74634L594.63095,258.74634L595.11088,258.74634L596.07074,258.74634L596.55066,258.50631L599.43023,258.26629
				L599.91016,258.50631L601.34995,258.74634L603.74959,258.50631L603.98955,258.74634L604.22951,258.74634L604.94941,258.98636
				L604.70944,259.22638L604.22951,259.94646L603.74959,260.66653L603.50962,261.62663L603.02969,262.58673L602.78973,263.3068L
				602.54977,263.54682L602.06984,264.2669L602.06984,265.227L601.58991,266.90717L601.10998,268.58734L600.39009,270.74756L600.15012,271.70766
				L599.91016,272.90778L599.6702,273.38783L599.6702,273.86787L599.6702,276.50814L599.43023,277.22822L599.19027,277.46824L598.9503,278.42834
				L598.71034,278.66836L598.71034,279.14841L598.23041,280.10851L598.23041,280.58856L598.9503,284.42895L599.19027,284.909L599.43023,285.62907
				L599.6702,286.10912L600.15012,287.54927L600.87002,290.66959L601.10998,291.62968L601.82987,292.34976L602.06984,292.8298L602.54977,293.7899
				L602.78973,295.23005L603.26966,296.6702L602.78973,301.23066L602.54977,301.95073L602.06984,305.07105L601.10998,307.23127L
				600.39009,308.19137L599.19027,310.11156L598.47038,310.83164L597.99045,312.27178L597.99045,313.23188L597.99045,313.95195L
				598.23041,315.63213L598.47038,317.3123L598.47038,319.71254L598.47038,320.43261L598.47038,322.35281L599.19027,323.55293L599.43023,324.51303
				L599.91016,325.2331L600.15012,326.1932L600.15012,328.59344L599.6702,329.79357L599.19027,331.71376L598.71034,332.19381L598.71034,332.67386
				L598.9503,334.11401L598.71034,335.0741L599.19027,337.23432L599.19027,337.9544L599.19027,338.19442L599.19027,338.9145L599.43023,339.87459
				L599.6702,340.35464L600.15012,341.31474L601.10998,342.51486L601.34995,342.99491L601.58991,343.71498L601.34995,345.63518L
				601.10998,345.8752L601.10998,346.8353L600.87002,347.7954L600.87002,349.23555L600.63005,359.07655L600.87002,360.75672L600.87002,362.19687
				L598.9503,362.43689L598.23041,362.67691L597.75048,362.91694L597.03059,363.15696L596.55066,363.39699L596.07074,363.39699L
				595.11088,363.87704L593.91106,363.63701L593.19117,363.39699L592.71124,362.91694L591.99135,362.91694L587.91196,362.67691L
				585.99224,363.15696L585.75228,363.39699L584.79242,363.63701L584.3125,363.87704L582.63275,364.35708L581.43293,364.59711L580.23311,364.35708
				L578.55336,364.59711L578.07343,364.83713L577.11357,365.55721L576.15372,366.03726L574.71393,366.03726L573.75408,365.79723
				L572.79422,365.31718L572.31429,365.31718L571.83437,365.07716L571.35444,364.83713L570.39458,364.11706L570.15462,364.11706
				L569.67469,363.63701L568.71483,363.15696L568.2349,362.67691L567.99494,362.67691L567.75498,362.43689L567.51501,362.43689L
				566.79512,362.67691L565.83526,362.91694L565.11537,363.39699L564.63544,363.63701L563.67559,364.35708L563.67559,364.59711L
				563.19566,365.07716L562.71573,365.31718L562.2358,365.31718L560.79602,364.59711L560.31609,363.87704L559.5962,362.67691L559.11627,362.43689
				L557.67649,361.47679L555.51681,360.75672L553.11717,360.75672L550.47756,360.03665L549.51771,359.5566L548.55785,359.31657L
				547.11807,358.5965L546.15821,358.35647L545.67828,358.11645L545.19835,357.87643L544.47846,357.6364L542.55875,356.6763L542.31879,356.43628
				L541.35893,355.95623L541.11897,355.71621L539.91914,355.23616L539.43922,354.99613L538.95929,354.75611L536.79961,353.79601
				L536.07972,353.55599L534.8799,352.83591L533.92004,352.59589L532.48026,351.87581L532.24029,351.87581L532.00033,351.39577L
				531.76037,351.39577L530.80051,350.43567L529.84065,349.95562L529.12076,349.95562L527.68098,349.23555L527.20105,349.23555L
				526.72112,348.99552L525.5213,348.27545L524.80141,346.8353L524.32148,346.59528L524.08152,346.11523L523.84155,345.63518L522.40177,344.91511
				L521.92184,344.43506L521.44191,344.19503L520.96198,343.95501L519.5222,343.47496L518.56234,343.23494L518.32238,343.23494L
				517.36252,342.75489L515.44281,342.03481L514.24299,341.31474L513.76306,341.07472L513.28313,340.83469L512.80321,340.59467L
				511.60339,340.59467L510.40356,340.83469L510.1636,340.83469L508.96378,341.07472L506.32418,340.35464L505.84425,340.35464L504.88439,339.87459
				L503.20464,339.39454L501.76486,339.39454L499.36522,339.63457L498.40536,339.63457L497.92543,339.39454L497.20554,339.39454
				L496.48565,339.87459L495.76576,340.35464L493.60608,340.59467L493.12615,340.35464L492.64622,340.35464L491.20644,339.87459
				L490.72651,339.63457L489.52669,339.39454L488.8068,339.39454L488.32687,339.15452L487.84694,339.15452L487.60698,339.15452L
				486.40716,338.9145L485.68727,339.15452L484.72741,339.63457L484.48745,339.87459L483.52759,340.59467L481.84784,341.55476L480.88798,342.27484
				L479.92813,342.75489L478.48834,343.23494L476.56863,343.47496L476.32867,343.47496L473.20913,343.71498L472.24928,343.47496
				L469.84964,342.99491L469.84964,342.51486L470.32957,341.55476L472.00931,339.63457L472.24928,339.39454L472.48924,338.43445
				L473.4491,337.23432L473.92903,336.51425L474.40896,334.35403L474.88888,333.87398L475.36881,331.47374L475.84874,330.99369L
				476.32867,329.31352L476.8086,327.63335L476.8086,327.39332L477.04856,326.91327L477.04856,326.1932L477.52849,325.2331L478.24838,323.79296
				L478.48834,322.83286L478.72831,322.11279L479.20824,320.91266L479.68816,318.75244L479.92813,318.03237L480.16809,317.79235
				L480.16809,317.55232L480.40806,317.07227L481.12795,314.67203L481.36791,314.432L481.36791,314.19198L481.60788,313.23188L482.08781,312.51181
				L482.08781,311.55171L482.32777,310.35159L482.32777,309.15147L482.32777,307.95134L482.56773,306.99125L482.8077,306.5112L483.28763,304.35098
				L483.52759,303.6309L483.52759,303.15086L484.48745,300.99064L484.72741,300.03054L485.20734,298.59039L485.68727,296.91022L
				486.16719,295.7101L486.16719,295.23005L486.40716,294.50998L486.64712,294.26995L486.88709,293.7899L486.88709,293.54988L487.12705,292.8298
				L487.12705,291.38966L487.60698,289.70949L487.60698,288.74939L487.36701,288.26934L487.12705,288.02932L487.12705,287.54927
				L486.64712,287.30924L486.64712,286.82919L486.16719,285.62907L485.92723,285.14902L485.20734,283.46885L484.96737,282.74878
				L484.48745,281.78868L484.24748,281.30863L483.76755,281.06861L483.76755,280.58856L483.28763,280.34853L483.28763,280.10851
				L483.04766,279.62846L482.8077,278.90839L482.08781,277.94829L481.84784,277.22822L481.84784,276.74817L481.36791,275.78807L
				481.12795,275.068L480.88798,274.58795L479.68816,273.62785L478.72831,272.90778L478.72831,272.66775L478.24838,272.66775L477.76845,271.94768
				L477.28852,271.70766L477.04856,271.46763L476.0887,270.74756L474.88888,270.26751L474.64892,269.78746L473.20913,269.06739L
				472.72921,268.34731L471.28942,267.38722L470.56953,266.66714L470.32957,266.42712L469.84964,265.94707L469.12975,264.98697L
				468.88978,264.50692L468.64982,261.86665L468.64982,259.94646L469.36971,255.38599L469.12975,254.66592L468.88978,253.4658L468.64982,252.5057
				L468.64982,250.10546L468.88978,249.62541L468.88978,245.54499L469.36971,244.34487L469.36971,243.86482L469.84964,242.90472
				L470.0896,242.18465L470.56953,241.46458L471.28942,240.7445L472.48924,239.30436L472.72921,238.82431L472.72921,238.58428L472.96917,238.10423
				L473.20913,237.14414L473.68906,237.14414L473.92903,236.66409L474.40896,236.18404L474.64892,235.70399L475.60878,234.98392
				L476.32867,233.7838L476.56863,232.34365L476.8086,231.62358L477.52849,230.9035L478.00842,230.42345L478.72831,229.46336L479.20824,228.74328
				L479.4482,228.26323L478.96827,227.30314L478.24838,226.58306L478.24838,226.34304L477.76845,225.86299L476.8086,224.90289L476.32867,224.66287
				L475.84874,224.18282L475.60878,223.94279L475.12885,223.94279L472.72921,222.9827L471.76935,222.74267L469.12975,222.50265L
				466.01021,222.26262L465.05036,221.0625L464.81039,220.58245L464.57043,220.34243L464.33046,219.86238L463.61057,218.66226L463.37061,218.42223
				L462.65072,217.70216L462.41075,217.22211L462.17079,216.98209L461.4509,216.02199L461.21093,215.78196L460.49104,215.30191L
				459.53118,214.82187L459.29122,214.82187L457.37151,214.10179L457.13154,213.86177L456.41165,213.38172L455.45179,211.94157L
				455.45179,211.70155L454.97187,211.46152L454.25197,210.50143L453.53208,210.02138L452.57223,209.54133L452.0923,209.54133L451.61237,209.3013
				L450.41255,209.54133L448.7328,209.06128L448.25287,209.06128L446.33316,208.58123L445.3733,208.10118L444.89338,207.62113L444.65341,207.62113
				L444.17348,207.14108L442.97366,206.42101L442.7337,206.42101L441.77384,206.18099L439.3742,205.94096L438.89427,205.70094L438.41435,205.46091
				L437.45449,204.50081L437.21453,204.26079L436.97456,203.54072L436.7346,203.06067L436.49463,202.10057L436.7346,201.62052L436.97456,201.14047
				L437.21453,200.18037L436.97456,198.98025L436.49463,198.02016L435.77474,197.06006L435.05485,196.58001L434.57492,196.33998
				L434.33496,196.33998L433.13514,195.37989L431.93532,194.89984L430.97546,194.41979L429.77564,194.41979L428.81578,193.93974
				L427.61596,193.45969L426.89607,193.45969L426.65611,193.21967L423.05665,192.01954L423.53657,191.05945L424.49643,189.13925
				L425.93621,186.97903L426.89607,184.81881L427.13603,184.57879L427.376,183.85871L427.61596,183.61869L428.09589,182.89862L429.05575,181.45847
				L429.05575,180.97842L430.25557,181.21845L431.21542,181.93852L431.69535,182.65859L434.57492,184.33876L435.05485,184.57879
				L435.53478,184.81881L436.25467,184.81881L437.45449,185.29886L438.65431,185.29886L440.33406,185.53888L443.21363,186.01893
				L443.69355,186.01893L446.0932,186.97903L446.81309,187.45908L447.77294,187.45908L448.97276,188.17915L450.89248,188.89923L
				451.61237,187.6991L452.57223,186.25896L453.29212,185.29886L453.53208,184.57879L454.01201,184.09874L454.49194,182.65859L454.7319,181.93852
				L454.97187,180.49837L455.45179,179.29825L456.41165,178.33815L457.37151,177.61808L457.61147,177.13803L457.61147,176.89801
				L457.85143,176.41796L458.33136,176.41796L458.33136,175.93791L458.57133,175.69788L458.81129,175.21783L459.05126,173.77769
				L460.25108,171.85749L460.731,171.13742L461.69086,169.9373L461.93082,169.21722L460.97097,168.73717L460.731,168.49715L460.01111,168.49715
				L460.25108,167.77708L460.731,167.53705L460.731,167.29703L462.41075,166.09691L462.65072,165.37683L462.89068,164.41673L462.41075,162.97659
				L462.41075,162.25652L462.65072,162.01649L463.85054,161.77647L464.81039,161.53644L466.25018,161.53644L466.97007,161.53644
				L468.16989,161.05639L469.12975,160.33632L469.36971,160.0963L470.32957,159.61625L471.52939,159.85627L472.96917,160.33632L
				473.68906,160.33632L474.40896,160.0963L474.88888,159.61625L474.88888,158.65615L475.36881,157.216L476.0887,155.29581L475.84874,154.57573
				L476.0887,153.13559L475.60878,150.97537L475.60878,150.01527L475.84874,148.81515L475.84874,146.17488L476.0887,145.93485L476.32867,145.93485
				L476.56863,146.17488L477.28852,147.13498L477.76845,147.375L478.24838,148.09507L478.72831,148.57512L480.16809,149.77524L480.88798,150.97537
				L480.88798,151.21539L481.12795,152.65554L481.36791,153.61564L481.84784,154.33571L482.08781,154.81576L482.32777,155.53583
				L482.32777,156.49593L482.32777,157.69605L483.04766,158.65615L483.52759,159.85627L484.00752,160.81637L484.96737,162.01649
				L485.4473,162.49654L485.68727,162.97659L485.92723,163.21661L485.92723,163.69666L486.16719,165.13681L486.16719,167.29703L
				486.88709,168.73717L487.12705,169.21722L487.36701,169.69727L487.84694,170.17732L488.32687,170.17732L489.04676,170.65737L
				489.52669,171.37744L490.00662,171.85749L490.48655,172.09752L490.96648,172.81759L491.20644,173.05761L491.92633,173.53766L
				492.88619,174.25774L493.36612,174.73779L493.84604,174.73779L494.56594,175.21783L495.28583,175.21783L496.48565,174.73779L
				497.68547,174.49776L497.92543,174.49776L498.40536,174.01771L498.64533,173.77769L499.60518,173.29764L500.56504,172.81759L
				501.28493,172.81759L502.96468,172.33754L503.68457,171.85749L504.88439,171.85749L505.84425,171.85749L506.32418,172.09752L
				506.56414,172.33754L507.28403,172.33754L508.24389,172.57757L508.96378,172.57757L510.40356,172.33754L512.32328,171.61747L
				513.28313,171.13742L513.76306,170.65737L514.72292,168.9772L514.96288,168.25713L515.92274,167.057L517.12256,166.57695L517.84245,166.09691
				L518.80231,165.61686L520.24209,165.61686L521.44191,165.37683L522.1618,165.13681L522.64173,165.13681L524.32148,164.17671L
				525.5213,163.21661L526.24119,162.01649L527.20105,161.29642L527.68098,160.81637L528.64083,160.57634L529.84065,160.33632L531.04047,160.0963
				L531.76037,160.0963L534.39997,160.81637L535.83976,160.81637L536.55965,160.81637L539.19925,160.81637L539.91914,160.81637L
				541.35893,160.57634L542.31879,160.81637z"/>
			<path clip-path="url(#SVG_CP_1)" fill="#73B273" fill-rule="evenodd" stroke="#000000" stroke-width="0.95986" stroke-miterlimit="10" stroke-linecap="round" stroke-linejoin="round" d="
				M698.05546,127.21295L698.05546,128.17305L698.53539,128.89312L698.77536,129.37317L699.25528,130.09324L699.97518,130.81331
				L700.4551,131.05334L700.69507,131.53339L701.175,132.49349L701.65492,132.97353L701.41496,133.69361L701.175,133.93363L699.73521,135.37378
				L699.49525,135.85383L699.25528,136.5739L698.77536,138.01405L698.77536,138.25407L698.77536,140.41429L698.77536,141.13437L
				698.77536,142.57451L698.53539,143.29459L698.05546,143.77463L697.09561,144.49471L696.61568,144.73473L694.93593,145.69483L
				694.456,146.17488L693.49615,147.13498L693.01622,148.09507L692.77625,149.05517L692.77625,150.01527L693.01622,150.97537L693.49615,151.69544
				L693.73611,152.17549L694.456,153.13559L694.456,155.05578L693.73611,156.73595L693.49615,156.97598L693.25618,157.69605L692.77625,159.1362
				L692.29633,159.85627L692.29633,161.05639L691.8164,162.49654L691.33647,163.45664L691.09651,163.69666L690.61658,163.93669L
				689.65672,163.93669L688.93683,164.41673L688.69686,164.89678L688.4569,166.09691L687.97697,166.33693L687.73701,166.81698L686.53719,167.53705
				L686.05726,168.0171L685.8173,168.9772L685.8173,169.21722L685.8173,169.45725L686.29722,171.61747L686.29722,173.53766L686.77715,174.97781
				L687.25708,175.45786L687.25708,175.69788L687.49704,175.93791L687.49704,176.41796L687.73701,176.89801L688.21694,177.61808
				L688.4569,178.09813L688.69686,178.57818L689.17679,179.05823L689.65672,179.05823L690.85654,179.29825L691.57643,179.7783L691.8164,180.01832
				L691.8164,180.97842L691.57643,181.93852L690.85654,182.41857L690.37661,183.61869L689.89668,184.33876L689.89668,186.01893L
				689.41676,187.45908L689.41676,187.93913L689.65672,188.41918L689.89668,189.13925L689.89668,189.85932L689.89668,191.29947L
				689.41676,192.25957L689.17679,192.97964L688.4569,193.45969L688.21694,193.69972L687.97697,193.93974L687.49704,195.13986L687.25708,196.09996
				L687.25708,197.30008L687.25708,198.02016L687.01712,201.14047L686.77715,202.10057L686.53719,202.34059L685.8173,203.06067L
				685.57733,203.54072L685.0974,204.02077L684.61748,204.74084L683.41766,205.70094L682.93773,206.66103L682.93773,207.62113L683.89758,208.58123
				L684.13755,209.06128L684.61748,209.54133L684.85744,211.2215L685.0974,211.2215L685.33737,211.46152L685.57733,212.1816L685.8173,212.42162
				L686.29722,213.14169L686.29722,214.10179L686.29722,216.26201L686.53719,217.46213L686.77715,218.42223L687.25708,219.1423L
				687.25708,219.62235L687.25708,220.58245L687.25708,221.0625L686.29722,223.22272L686.29722,223.70277L686.05726,224.18282L686.29722,225.86299
				L686.29722,226.10301L686.29722,227.06311L686.05726,227.78318L683.65762,229.22333L683.17769,229.46336L682.93773,229.70338
				L681.73791,230.42345L681.49794,230.9035L680.77805,231.62358L680.53809,231.8636L680.29812,232.34365L679.33827,232.34365L678.85834,232.10362
				L678.37841,231.8636L677.89848,231.38355L677.17859,230.66348L675.97877,230.18343L673.81909,229.70338L672.85924,229.70338L
				671.65942,229.9434L670.69956,229.9434L669.7397,230.42345L669.01981,230.66348L668.29992,230.9035L667.1001,231.14353L666.38021,231.38355
				L665.66031,231.38355L664.70046,230.9035L662.30082,230.66348L661.58093,230.66348L660.62107,231.38355L660.14114,231.38355L
				659.42125,230.66348L658.46139,230.42345L658.22143,230.18343L657.26157,229.70338L656.54168,229.46336L655.82179,228.98331L
				654.14204,228.74328L652.70225,229.46336L652.46229,229.70338L651.7424,230.42345L651.26247,230.42345L651.02251,231.14353L650.30261,232.58367
				L649.58272,233.7838L649.10279,234.74389L648.86283,234.98392L648.3829,236.18404L647.90297,236.42406L647.66301,237.38416L647.18308,238.58428
				L646.94312,239.06433L646.22323,241.22455L646.22323,241.94463L645.7433,243.14475L645.7433,243.6248L645.50333,243.86482L645.26337,244.58489
				L645.0234,245.54499L644.78344,246.50509L644.78344,247.22516L644.06355,248.42529L643.82358,249.62541L643.10369,250.82553L
				642.62376,251.30558L641.90387,252.02565L641.18398,252.26568L640.70405,252.74573L639.50423,253.22577L639.26427,253.70582L
				638.78434,253.70582L637.10459,255.38599L635.18488,255.86604L633.50513,255.86604L632.54527,256.10607L629.18578,255.86604L
				626.30621,256.34609L624.3865,256.34609L623.18667,256.58612L622.46678,256.58612L621.027,256.82614L620.06714,256.82614L617.90747,257.30619
				L616.70765,257.30619L616.22772,257.30619L615.50782,257.06616L612.62826,256.82614L611.90836,256.82614L610.22862,257.06616
				L608.54887,257.78624L607.58901,257.78624L606.38919,258.26629L605.42933,258.74634L605.18937,258.74634L604.94941,258.98636
				L604.22951,258.74634L603.98955,258.74634L603.74959,258.50631L601.34995,258.74634L599.91016,258.50631L599.43023,258.26629
				L596.55066,258.50631L596.07074,258.74634L595.11088,258.74634L594.63095,258.74634L593.43113,258.74634L592.47127,258.98636
				L591.51142,258.74634L591.03149,258.50631L590.55156,258.02626L590.3116,256.82614L590.3116,255.86604L590.55156,255.38599L590.79153,254.66592
				L591.03149,253.22577L590.79153,252.98575L590.55156,252.74573L590.3116,252.5057L588.63185,252.5057L586.9521,252.74573L585.51232,252.74573
				L584.07253,253.22577L583.5926,253.4658L582.87271,253.70582L580.71304,253.70582L580.23311,253.94585L579.27325,253.94585L576.39368,254.18587
				L576.87361,252.98575L577.35354,252.26568L577.83347,251.30558L577.83347,250.34548L577.5935,249.38538L577.35354,248.90533L
				576.63365,247.94524L576.39368,247.70521L575.91375,247.22516L574.9539,246.98514L572.55426,246.98514L572.31429,246.98514L571.35444,246.98514
				L570.39458,247.46519L569.43472,246.50509L569.19476,246.50509L568.9548,246.26507L568.2349,245.78502L567.75498,245.54499L567.03508,244.82492
				L566.07523,244.10485L564.63544,243.14475L562.71573,241.46458L562.47577,241.22455L561.27595,240.50448L560.55605,239.78441
				L560.31609,239.54438L559.5962,239.06433L558.87631,238.34426L558.39638,237.86421L557.43652,237.14414L556.95659,236.66409L
				556.2367,236.18404L555.51681,235.94402L554.31699,235.70399L553.83706,235.94402L553.35713,235.94402L552.8772,235.46397L552.39728,234.98392
				L551.91735,234.26384L551.43742,234.02382L550.2376,232.58367L550.2376,232.34365L549.75767,231.8636L549.51771,231.38355L549.51771,229.9434
				L549.75767,228.98331L550.47756,226.58306L550.71753,226.10301L551.19746,225.62296L552.15731,224.42284L552.8772,222.0226L553.5971,220.58245
				L553.5971,220.1024L553.5971,219.86238L554.07702,219.1423L554.31699,218.42223L554.79692,217.46213L554.79692,217.22211L555.27684,216.50204
				L555.51681,216.02199L555.51681,215.78196L555.99674,214.58184L556.47667,211.94157L556.2367,210.50143L555.99674,209.3013L555.27684,207.38111
				L555.27684,206.18099L554.79692,204.26079L554.07702,202.82064L553.83706,202.34059L553.35713,201.14047L553.35713,199.70033
				L553.35713,199.22028L553.35713,197.78013L552.8772,196.82003L552.63724,195.85994L552.15731,194.89984L552.15731,194.65981L
				551.19746,193.69972L550.71753,193.45969L549.99764,193.21967L547.59799,192.97964L547.11807,192.73962L546.63814,192.25957L
				546.15821,192.01954L545.43832,191.77952L543.75857,190.81942L543.27864,189.85932L543.27864,189.37928L542.79871,188.6592L542.07882,187.93913
				L541.11897,187.45908L540.879,186.97903L540.39907,186.01893L540.15911,185.29886L540.15911,184.33876L539.91914,183.37866L539.91914,181.69849
				L540.15911,181.21845L540.15911,179.7783L540.15911,179.53827L540.15911,179.05823L540.39907,178.33815L540.879,177.8581L541.11897,177.8581
				L541.59889,177.37805L541.83886,176.65798L541.83886,176.17793L541.83886,174.97781L541.35893,173.77769L540.879,173.05761L540.879,172.57757
				L540.879,171.61747L540.879,169.9373L540.879,168.49715L541.11897,167.77708L541.35893,165.13681L541.59889,164.41673L541.59889,163.45664
				L541.83886,162.73656L542.31879,161.53644L542.31879,160.81637L545.43832,160.81637L547.35803,160.57634L552.63724,160.57634
				L553.5971,160.81637L555.03688,160.81637L556.47667,161.29642L558.87631,162.49654L560.79602,162.73656L561.75587,163.21661L
				562.2358,163.45664L563.19566,163.45664L563.67559,163.69666L564.39548,164.65676L564.87541,164.65676L565.5953,165.13681L566.31519,165.37683
				L567.27505,165.85688L568.2349,166.57695L568.71483,166.81698L570.87451,168.25713L572.07433,169.69727L572.79422,169.9373L573.27415,170.65737
				L574.23401,171.61747L575.67379,172.33754L576.63365,173.53766L576.87361,173.77769L577.83347,175.21783L578.79332,176.65798
				L579.51322,177.61808L580.953,178.33815L581.19296,178.8182L581.43293,178.8182L582.87271,179.53827L584.07253,180.49837L584.3125,180.7384
				L585.03239,181.69849L585.75228,182.65859L585.75228,183.13864L586.23221,183.85871L586.47217,184.33876L586.9521,186.49898L
				587.19207,186.97903L587.67199,188.89923L588.15192,190.09935L588.39189,192.01954L588.63185,192.49959L588.87181,192.73962L
				588.87181,193.21967L589.35174,194.65981L589.59171,195.13986L590.3116,195.61991L591.03149,195.85994L591.27145,196.09996L591.99135,196.33998
				L593.19117,196.33998L593.91106,196.33998L594.63095,196.58001L596.79063,196.58001L597.27056,196.82003L597.75048,196.82003
				L597.99045,197.06006L599.91016,197.06006L601.10998,196.82003L601.82987,196.58001L602.3098,196.58001L602.78973,196.33998L
				603.26966,196.33998L604.46948,195.61991L605.42933,195.37989L605.90926,195.13986L606.14923,195.13986L606.38919,194.89984L
				607.34905,194.17976L607.82897,193.69972L608.3089,193.45969L608.54887,192.97964L609.26876,192.49959L609.74869,191.77952L610.46858,191.05945
				L611.6684,189.6193L612.14833,189.13925L612.62826,188.41918L612.86822,188.17915L613.34815,187.6991L613.82808,187.21906L614.308,186.73901
				L615.0279,186.25896L615.50782,185.77891L615.98775,185.29886L616.70765,184.81881L617.42754,183.85871L618.14743,182.89862L
				618.38739,182.41857L619.10729,181.69849L620.30711,179.7783L621.027,178.8182L621.74689,178.09813L622.46678,177.61808L622.70675,177.37805
				L622.94671,176.89801L623.18667,176.41796L623.42664,175.69788L623.6666,174.73779L624.14653,173.53766L624.3865,172.09752L624.62646,171.85749
				L624.86642,171.37744L625.34635,170.89739L625.58632,170.65737L625.82628,170.17732L625.82628,169.9373L626.06624,168.9772L626.30621,168.73717
				L626.54617,168.0171L627.0261,167.77708L627.26606,167.29703L628.70585,165.85688L629.42574,165.61686L629.90567,164.89678L630.14563,164.89678
				L630.62556,164.17671L631.10549,163.69666L631.58542,163.45664L631.82538,162.97659L632.54527,162.49654L632.78524,162.25652
				L633.26517,161.53644L633.74509,160.81637L633.74509,160.33632L633.98506,160.0963L634.22502,159.61625L634.46499,159.37622L
				634.70495,159.1362L634.94491,158.1761L635.18488,157.93608L635.18488,157.216L635.42484,156.97598L635.90477,155.29581L636.62466,154.09568
				L637.58452,153.13559L638.30441,151.93546L638.78434,150.49532L638.78434,148.09507L638.06445,146.65493L637.58452,144.73473
				L637.58452,144.01466L637.34455,142.57451L637.34455,140.65432L637.82448,138.97415L638.06445,138.4941L638.30441,138.01405L
				639.0243,136.81393L639.0243,136.5739L639.98416,135.6138L640.22412,135.37378L640.46409,134.89373L640.94402,134.41368L641.90387,133.45358
				L642.14384,133.45358L643.58362,132.01344L644.54348,131.29336L645.50333,130.81331L646.22323,130.81331L648.62287,130.57329
				L651.02251,130.09324L651.50243,129.85322L652.94222,129.13314L653.66211,128.41307L654.14204,127.693L654.62197,127.693L654.86193,127.45297
				L655.82179,126.97292L656.30172,126.7329L656.54168,126.25285L657.26157,125.7728L657.7415,125.29275L657.98146,124.33266L657.98146,122.89251
				L657.7415,122.17244L657.98146,120.97231L658.46139,120.25224L658.70136,120.01222L658.94132,119.77219L659.42125,118.81209L
				660.14114,117.852L660.86103,117.13192L661.34096,116.8919L661.58093,116.65187L662.06085,116.17182L665.66031,114.49165L666.14024,114.25163
				L666.38021,113.53156L666.86013,113.77158L667.58003,113.77158L668.53988,113.53156L669.49974,113.77158L669.7397,113.53156L
				670.69956,113.53156L671.17949,113.53156L673.33916,113.53156L673.81909,113.53156L675.01891,113.53156L675.49884,113.53156L
				676.21873,114.0116L676.4587,114.73168L676.4587,115.45175L676.21873,116.8919L676.4587,117.852L676.69866,117.852L677.41855,118.81209
				L677.89848,119.05212L678.13845,119.29214L678.61837,119.53217L680.05816,120.01222L680.77805,120.01222L681.49794,119.53217
				L683.17769,119.29214L683.89758,119.05212L684.37751,118.81209L686.05726,118.09202L686.29722,118.09202L688.4569,117.61197L
				689.65672,117.852L690.13665,118.09202L690.85654,118.57207L691.33647,118.81209L691.57643,119.05212L692.29633,119.53217L692.77625,120.01222
				L693.01622,120.49226L693.25618,121.21234L693.49615,121.45236L693.73611,121.69239L693.73611,121.93241L694.21604,122.89251
				L694.456,122.89251L694.69597,124.33266L695.65582,126.25285L696.37571,126.7329L697.57553,126.97292L698.05546,127.21295z"/>
			<path clip-path="url(#SVG_CP_1)" fill="#73B273" fill-rule="evenodd" stroke="#000000" stroke-width="0.95986" stroke-miterlimit="10" stroke-linecap="round" stroke-linejoin="round" d="
				M245.7232,99.13009L246.44309,102.01038L246.44309,103.69055L246.68306,105.85077L246.44309,106.81087L245.96317,108.25102L245.7232,109.93119
				L245.7232,111.37134L245.96317,112.57146L246.20313,114.0116L247.16299,115.45175L248.12284,116.65187L249.32266,117.61197L251.48234,118.09202
				L252.20223,118.09202L253.16209,118.33204L254.36191,118.57207L255.80169,118.09202L256.04166,117.852L257.00151,117.37195L257.72141,116.41185
				L258.92123,115.21173L259.40115,114.9717L261.80079,114.25163L262.52069,114.25163L263.72051,114.0116L264.92033,114.0116L265.64022,113.77158
				L268.03986,113.77158L268.75975,114.0116L269.95957,114.0116L270.91943,114.25163L272.35921,114.25163L273.31907,114.49165L274.51889,114.73168
				L276.19864,115.21173L276.67857,115.69178L278.11835,117.13192L279.31817,117.61197L280.51799,118.33204L280.99792,118.57207
				L282.19774,119.29214L285.07731,120.49226L286.51709,121.21234L289.63663,122.65248L292.75616,124.57268L295.63573,125.53278
				L297.07551,126.25285L298.03537,126.49288L299.47515,126.7329L301.63483,126.97292L302.59469,127.45297L305.47425,129.13314L
				306.19415,129.37317L307.87389,130.09324L309.79361,131.05334L312.91314,132.25346L314.59289,132.97353L315.79271,133.93363L
				316.75257,134.65371L317.71242,135.85383L318.67228,136.81393L320.11206,138.97415L321.79181,140.89434L322.75167,142.33449L
				323.47156,143.05456L324.91134,145.21478L326.11116,147.375L326.83106,149.05517L327.31098,150.73534L327.55095,151.69544L328.03088,153.13559
				L329.47066,156.49593L330.67048,158.1761L331.8703,159.61625L332.59019,160.33632L333.07012,161.77647L332.83016,161.77647L331.39037,163.21661
				L330.67048,164.41673L330.19055,165.13681L329.71062,166.33693L328.75077,167.29703L328.99073,167.77708L328.27084,168.73717
				L326.59109,171.37744L326.35113,171.85749L326.35113,172.33754L325.39127,173.77769L323.47156,175.69788L322.75167,176.89801
				L320.11206,179.53827L319.63213,180.01832L316.03267,183.37866L315.07282,184.09874L313.1531,186.01893L311.95328,186.97903L
				310.03357,188.89923L309.07372,189.6193L305.71422,193.45969L305.23429,194.17976L303.07461,196.58001L298.99522,201.86055L297.55544,204.26079
				L294.91584,207.62113L294.43591,208.34121L293.23609,209.54133L291.55634,211.70155L291.31637,211.94157L290.35652,213.14169
				L290.11655,213.38172L289.39666,214.10179L288.43681,215.78196L286.51709,218.66226L285.55724,220.82248L284.83734,222.50265
				L284.59738,222.74267L284.11745,223.70277L282.19774,228.98331L281.71781,231.8636L281.71781,232.58367L280.27803,232.34365L
				278.11835,232.10362L276.4386,231.38355L275.23878,231.14353L271.87929,229.9434L271.15939,229.70338L269.47964,229.70338L268.51979,229.22333
				L267.31997,228.50326L265.64022,227.06311L264.68036,225.62296L263.24058,224.18282L263.00061,223.70277L261.32087,222.0226L
				260.60097,221.78257L260.12105,221.78257L253.88198,219.62235L252.92212,218.90228L250.76245,217.22211L250.04256,216.98209L
				248.36281,215.78196L246.68306,214.58184L245.7232,213.62174L242.12374,211.70155L240.68396,210.50143L239.96406,209.3013L239.00421,207.86116
				L238.52428,206.90106L238.04435,205.70094L237.56442,205.22089L236.3646,203.30069L235.16478,200.90045L232.76514,197.06006L
				231.32536,195.13986L229.40565,193.21967L228.20583,192.73962L226.04615,190.81942L223.88647,189.6193L223.16658,189.13925L221.48683,187.93913
				L220.28701,184.57879L218.3673,181.69849L217.64741,180.49837L216.92751,178.33815L216.68755,177.8581L215.24777,176.89801L214.52787,176.65798
				L213.32805,176.65798L211.64831,177.37805L211.40834,177.61808L210.68845,177.61808L207.32895,179.7783L206.3691,179.7783L205.6492,180.25835
				L204.92931,180.25835L203.24956,180.7384L202.28971,180.7384L201.32985,180.97842L200.84992,180.97842L199.17017,181.93852L198.21032,182.17854
				L197.0105,182.17854L194.13093,181.45847L192.45118,181.21845L191.97125,181.21845L190.53147,181.21845L189.81158,181.21845L
				186.69204,181.21845L184.77233,180.7384L183.33255,180.25835L180.69294,179.05823L177.09348,175.93791L173.73398,174.01771L174.21391,172.81759
				L174.45388,171.61747L174.9338,169.9373L174.69384,167.77708L174.45388,166.09691L173.73398,163.45664L173.01409,162.25652L172.05423,159.85627
				L170.37449,156.97598L169.41463,154.33571L168.9347,153.61564L168.9347,153.37561L168.45477,151.93546L168.21481,151.45542L167.49492,149.2952
				L166.2951,146.65493L165.81517,144.73473L164.37538,142.09446L164.13542,140.89434L162.9356,138.25407L162.21571,135.85383L161.25585,132.01344
				L161.25585,131.53339L161.01589,130.57329L160.53596,127.693L160.53596,126.25285L160.53596,116.8919L160.296,115.69178L160.77592,112.57146
				L161.73578,112.33143L166.2951,110.17121L167.73488,109.21112L168.9347,108.49104L170.13452,107.29092L172.05423,104.1706L173.25405,102.25041
				L174.9338,100.09019L176.61355,97.68994L177.81337,95.52972L178.2933,94.3296L179.01319,93.12948L180.21301,90.96926L180.9329,89.76914
				L183.09258,86.64882L183.81247,84.72862L184.77233,83.5285L185.01229,82.80843L185.25226,82.5684L185.97215,82.32838L186.93201,82.08836
				L187.89186,82.08836L189.57161,81.84833L191.97125,82.08836L193.89096,82.5684L194.61086,83.04845L195.09078,83.04845L195.81068,83.5285
				L196.2906,83.5285L197.97035,84.00855L198.69025,84.24858L199.17017,84.24858L200.36999,84.24858L201.32985,84.00855L204.44938,83.76853
				L205.16928,83.76853L206.12913,83.28848L207.80888,82.5684L208.76874,81.84833L210.68845,80.88823L210.92841,80.64821L212.60816,79.92814
				L213.08809,79.92814L213.80798,80.16816L214.28791,80.40818L215.24777,81.36828L215.48773,83.5285L217.16748,84.96865L217.16748,85.68872
				L217.64741,86.64882L218.3673,87.36889L220.04705,89.04906L220.76694,89.28909L221.24687,89.76914L223.40654,91.20928L227.96586,93.84955
				L230.12554,94.08958L231.56532,94.80965L233.24507,96.2498L234.92482,98.89007L236.12464,100.09019L237.0845,100.57024L238.52428,101.05029
				L239.48414,101.29031L240.44399,100.81026L242.60367,99.61014L244.76335,99.13009L245.00331,99.13009L245.7232,99.13009z"/>
			<path clip-path="url(#SVG_CP_1)" fill="#73B273" fill-rule="evenodd" stroke="#000000" stroke-width="0.95986" stroke-miterlimit="10" stroke-linecap="round" stroke-linejoin="round" d="
				M574.71393,68.64699L575.91375,67.92691L576.15372,67.92691L576.87361,66.72679L578.31339,64.8066L580.47307,62.8864L581.67289,62.40635
				L582.63275,62.8864L583.11268,63.12643L583.35264,63.60647L583.83257,65.04662L584.55246,67.20684L585.27235,68.16694L585.99224,68.64699
				L586.9521,68.64699L588.39189,68.40696L590.55156,67.44687L590.79153,66.48677L592.23131,64.8066L593.6711,64.32655L596.3107,63.60647
				L597.51052,62.40635L597.99045,62.16633L598.47038,60.96621L598.71034,60.48616L598.9503,60.48616L599.6702,60.72618L600.15012,61.20623
				L600.63005,61.9263L600.87002,64.32655L601.34995,67.20684L602.06984,68.64699L603.26966,70.32716L603.50962,70.80721L604.46948,71.04723
				L605.90926,70.32716L607.34905,68.64699L607.58901,68.40696L607.58901,67.68689L607.82897,67.44687L608.54887,66.48677L609.26876,66.48677
				L611.42844,67.20684L613.34815,66.96682L616.46768,66.24674L617.18757,65.52667L618.38739,65.04662L619.34725,64.32655L621.26696,63.36645
				L622.70675,63.36645L623.18667,63.60647L623.90657,64.08652L624.86642,65.52667L625.82628,67.20684L626.30621,68.40696L626.54617,68.88701
				L626.78614,69.36706L627.26606,70.56718L627.50603,71.28726L627.98596,72.00733L628.70585,72.7274L629.42574,73.20745L630.3856,73.44748
				L631.34545,73.44748L633.98506,72.96743L635.18488,73.6875L635.90477,74.16755L638.54438,76.32777L640.70405,80.16816L641.66391,83.28848
				L641.90387,83.76853L642.14384,84.96865L643.10369,86.16877L643.58362,86.4088L646.46319,87.84894L647.42305,88.32899L650.54258,88.80904
				L651.02251,88.80904L653.90208,89.28909L655.58182,89.52911L656.54168,89.76914L657.26157,89.52911L657.98146,90.24919L658.46139,90.96926
				L658.94132,91.68933L659.18128,91.92936L660.3811,93.12948L660.62107,93.12948L661.58093,94.80965L661.82089,96.96987L661.34096,97.68994
				L663.26067,97.92997L663.50064,98.65004L663.98057,99.13009L664.22053,99.37011L664.94042,100.33021L665.42035,101.29031L665.42035,102.01038
				L665.18039,105.1307L664.94042,107.0509L664.94042,108.97109L664.94042,109.69116L664.94042,110.41124L665.18039,111.37134L665.66031,112.81148
				L666.38021,113.53156L666.14024,114.25163L665.66031,114.49165L662.06085,116.17182L661.58093,116.65187L661.34096,116.8919L
				660.86103,117.13192L660.14114,117.852L659.42125,118.81209L658.94132,119.77219L658.70136,120.01222L658.46139,120.25224L657.98146,120.97231
				L657.7415,122.17244L657.98146,122.89251L657.98146,124.33266L657.7415,125.29275L657.26157,125.7728L656.54168,126.25285L656.30172,126.7329
				L655.82179,126.97292L654.86193,127.45297L654.62197,127.693L654.14204,127.693L653.66211,128.41307L652.94222,129.13314L651.50243,129.85322
				L651.02251,130.09324L648.62287,130.57329L646.22323,130.81331L645.50333,130.81331L644.54348,131.29336L643.58362,132.01344
				L642.14384,133.45358L641.90387,133.45358L640.94402,134.41368L640.46409,134.89373L640.22412,135.37378L639.98416,135.6138L
				639.0243,136.5739L639.0243,136.81393L638.30441,138.01405L638.06445,138.4941L637.82448,138.97415L637.34455,140.65432L637.34455,142.57451
				L637.58452,144.01466L637.58452,144.73473L638.06445,146.65493L638.78434,148.09507L638.78434,150.49532L638.30441,151.93546
				L637.58452,153.13559L636.62466,154.09568L635.90477,155.29581L635.42484,156.97598L635.18488,157.216L635.18488,157.93608L634.94491,158.1761
				L634.70495,159.1362L634.46499,159.37622L634.22502,159.61625L633.98506,160.0963L633.74509,160.33632L633.74509,160.81637L633.26517,161.53644
				L632.78524,162.25652L632.54527,162.49654L631.82538,162.97659L631.58542,163.45664L631.10549,163.69666L630.62556,164.17671
				L630.14563,164.89678L629.90567,164.89678L629.42574,165.61686L628.70585,165.85688L627.26606,167.29703L627.0261,167.77708L
				626.54617,168.0171L626.30621,168.73717L626.06624,168.9772L625.82628,169.9373L625.82628,170.17732L625.58632,170.65737L625.34635,170.89739
				L624.86642,171.37744L624.62646,171.85749L624.3865,172.09752L624.14653,173.53766L623.6666,174.73779L623.42664,175.69788L623.18667,176.41796
				L622.94671,176.89801L622.70675,177.37805L622.46678,177.61808L621.74689,178.09813L621.027,178.8182L620.30711,179.7783L619.10729,181.69849
				L618.38739,182.41857L618.14743,182.89862L617.42754,183.85871L616.70765,184.81881L615.98775,185.29886L615.50782,185.77891
				L615.0279,186.25896L614.308,186.73901L613.82808,187.21906L613.34815,187.6991L612.86822,188.17915L612.62826,188.41918L612.14833,189.13925
				L611.6684,189.6193L610.46858,191.05945L609.74869,191.77952L609.26876,192.49959L608.54887,192.97964L608.3089,193.45969L607.82897,193.69972
				L607.34905,194.17976L606.38919,194.89984L606.14923,195.13986L605.90926,195.13986L605.42933,195.37989L604.46948,195.61991
				L603.26966,196.33998L602.78973,196.33998L602.3098,196.58001L601.82987,196.58001L601.10998,196.82003L599.91016,197.06006L
				597.99045,197.06006L597.75048,196.82003L597.27056,196.82003L596.79063,196.58001L594.63095,196.58001L593.91106,196.33998L
				593.19117,196.33998L591.99135,196.33998L591.27145,196.09996L591.03149,195.85994L590.3116,195.61991L589.59171,195.13986L589.35174,194.65981
				L588.87181,193.21967L588.87181,192.73962L588.63185,192.49959L588.39189,192.01954L588.15192,190.09935L587.67199,188.89923
				L587.19207,186.97903L586.9521,186.49898L586.47217,184.33876L586.23221,183.85871L585.75228,183.13864L585.75228,182.65859L
				585.03239,181.69849L584.3125,180.7384L584.07253,180.49837L582.87271,179.53827L581.43293,178.8182L581.19296,178.8182L580.953,178.33815
				L579.51322,177.61808L578.79332,176.65798L577.83347,175.21783L576.87361,173.77769L576.63365,173.53766L575.67379,172.33754
				L574.23401,171.61747L573.27415,170.65737L572.79422,169.9373L572.07433,169.69727L570.87451,168.25713L568.71483,166.81698L
				568.2349,166.57695L567.27505,165.85688L566.31519,165.37683L565.5953,165.13681L564.87541,164.65676L564.39548,164.65676L563.67559,163.69666
				L563.19566,163.45664L562.2358,163.45664L561.75587,163.21661L560.79602,162.73656L558.87631,162.49654L556.47667,161.29642L
				555.03688,160.81637L553.5971,160.81637L552.63724,160.57634L547.35803,160.57634L545.43832,160.81637L542.31879,160.81637L541.35893,160.57634
				L539.91914,160.81637L539.19925,160.81637L536.55965,160.81637L535.83976,160.81637L534.39997,160.81637L531.76037,160.0963L
				531.04047,160.0963L529.84065,160.33632L528.64083,160.57634L527.68098,160.81637L527.20105,161.29642L526.24119,162.01649L525.5213,163.21661
				L524.32148,164.17671L522.64173,165.13681L522.1618,165.13681L521.44191,165.37683L520.24209,165.61686L518.80231,165.61686L
				517.84245,166.09691L517.12256,166.57695L515.92274,167.057L514.96288,168.25713L514.72292,168.9772L513.76306,170.65737L513.28313,171.13742
				L512.32328,171.61747L510.40356,172.33754L508.96378,172.57757L508.24389,172.57757L507.28403,172.33754L506.56414,172.33754
				L506.32418,172.09752L505.84425,171.85749L504.88439,171.85749L503.68457,171.85749L502.96468,172.33754L501.28493,172.81759
				L500.56504,172.81759L499.60518,173.29764L498.64533,173.77769L498.40536,174.01771L497.92543,174.49776L497.68547,174.49776
				L496.48565,174.73779L495.28583,175.21783L494.56594,175.21783L493.84604,174.73779L493.36612,174.73779L492.88619,174.25774
				L491.92633,173.53766L491.20644,173.05761L490.96648,172.81759L490.48655,172.09752L490.00662,171.85749L489.52669,171.37744
				L489.04676,170.65737L488.32687,170.17732L487.84694,170.17732L487.36701,169.69727L487.12705,169.21722L486.88709,168.73717
				L486.16719,167.29703L486.16719,165.13681L485.92723,163.69666L485.92723,163.21661L485.68727,162.97659L485.4473,162.49654L
				484.96737,162.01649L484.00752,160.81637L483.52759,159.85627L483.04766,158.65615L482.32777,157.69605L482.32777,156.49593L
				482.32777,155.53583L482.08781,154.81576L481.84784,154.33571L481.36791,153.61564L481.12795,152.65554L480.88798,151.21539L
				480.88798,150.97537L480.16809,149.77524L478.72831,148.57512L478.24838,148.09507L477.76845,147.375L477.28852,147.13498L476.56863,146.17488
				L476.32867,145.93485L476.32867,145.4548L476.0887,145.21478L475.84874,144.73473L475.12885,143.77463L473.92903,142.33449L473.20913,141.85444
				L472.72921,141.61441L472.48924,141.13437L472.00931,141.13437L470.80949,139.93424L470.56953,139.93424L469.60967,139.45419
				L469.36971,139.21417L468.64982,138.73412L468.16989,138.4941L466.73011,137.29397L465.77025,136.09385L465.29032,135.6138L464.81039,134.89373
				L463.37061,134.41368L462.41075,134.17366L461.69086,133.69361L461.4509,133.45358L459.77115,132.49349L459.29122,132.49349L
				457.37151,131.29336L457.13154,131.05334L456.65161,130.57329L455.21183,129.85322L454.7319,129.85322L453.53208,129.37317L453.29212,129.13314
				L452.57223,128.89312L449.21273,126.97292L448.25287,126.7329L446.81309,126.49288L445.13334,125.53278L444.17348,125.29275L
				443.69355,124.8127L442.49373,123.61258L442.01381,122.65248L441.53388,121.21234L441.53388,118.57207L441.29391,117.13192L441.29391,115.21173
				L441.05395,114.0116L440.81399,111.61136L440.57402,110.41124L439.85413,108.97109L438.41435,108.01099L436.97456,107.29092L
				436.0147,107.29092L435.53478,107.29092L435.05485,106.81087L434.57492,106.33082L435.05485,104.65065L435.29481,104.41063L435.77474,103.69055
				L436.7346,101.05029L436.49463,99.61014L436.25467,98.65004L436.0147,97.44992L436.0147,96.72985L436.25467,96.00977L436.49463,95.04967
				L437.21453,92.64943L437.69445,92.16938L438.17438,91.92936L438.17438,91.44931L438.65431,91.20928L438.89427,91.20928L439.3742,90.72923
				L439.61417,90.24919L439.61417,88.32899L439.61417,87.60892L439.61417,86.88884L439.3742,84.72862L439.61417,82.80843L439.3742,79.92814
				L439.85413,77.04784L439.85413,74.6476L440.09409,73.44748L440.33406,71.76731L440.57402,70.80721L441.29391,69.36706L441.77384,67.68689
				L442.49373,66.24674L442.49373,63.60647L442.25377,60.96621L442.49373,58.56596L442.7337,58.08591L443.21363,55.92569L443.93352,54.24552
				L444.65341,52.80538L446.81309,52.0853L447.53298,51.84528L448.25287,51.84528L451.61237,50.88518L452.57223,50.88518L455.21183,50.88518
				L458.0914,50.64516L459.05126,50.64516L461.93082,49.68506L462.41075,49.44503L462.89068,48.48494L463.85054,47.28481L465.05036,45.84467
				L465.77025,45.60464L466.49014,45.60464L466.73011,46.08469L468.88978,47.04479L470.80949,48.72496L471.52939,48.72496L471.76935,48.96498
				L472.48924,48.96498L473.20913,48.24491L473.92903,46.80476L474.40896,46.08469L474.88888,45.84467L476.32867,45.36462L477.76845,45.36462
				L478.72831,44.88457L479.92813,44.64454L481.60788,44.64454L481.84784,44.88457L482.8077,45.84467L483.52759,46.80476L484.96737,49.44503
				L486.88709,52.80538L487.36701,53.52545L487.36701,53.76547L488.32687,54.72557L489.28673,55.68567L490.48655,56.64577L491.20644,57.12581
				L493.60608,58.32594L494.08601,58.56596L494.8059,59.04601L496.24569,59.28603L496.72561,59.28603L498.40536,58.80599L500.32507,57.12581
				L502.00482,56.40574L502.48475,55.92569L502.96468,54.96559L503.44461,54.24552L504.1645,53.76547L506.56414,52.80538L507.524,52.0853
				L509.44371,50.40513L510.64353,48.96498L510.88349,48.96498L511.36342,49.20501L512.56324,49.68506L513.5231,49.92508L515.68277,51.1252
				L517.12256,52.56535L517.84245,52.80538L518.56234,52.80538L519.04227,52.80538L520.96198,51.84528L521.92184,51.36523L522.64173,50.64516
				L524.56144,49.68506L526.72112,48.00489L527.68098,47.76486L528.64083,48.48494L529.12076,48.72496L529.60069,48.96498L532.72022,50.64516
				L533.20015,51.1252L534.39997,51.84528L535.35983,51.60525L536.79961,51.84528L537.5195,52.0853L540.39907,52.0853L542.31879,51.84528
				L543.75857,51.84528L544.95839,51.84528L548.55785,51.1252L550.47756,50.16511L551.91735,48.72496L552.39728,47.76486L552.63724,47.28481
				L552.8772,45.84467L553.11717,45.12459L553.83706,44.40452L554.55695,43.92447L555.27684,43.68445L556.71663,43.68445L558.63634,43.44442
				L559.5962,43.44442L561.03598,43.92447L562.47577,44.1645L563.67559,45.12459L565.5953,46.32472L566.31519,47.04479L566.55516,47.52484
				L567.27505,48.24491L567.75498,48.24491L568.71483,48.96498L569.91465,48.48494L570.39458,48.72496L570.87451,48.96498L571.11447,49.44503
				L570.87451,50.88518L569.91465,52.0853L568.47487,54.72557L567.51501,58.56596L567.51501,60.00611L567.03508,61.68628L567.27505,62.8864
				L567.51501,63.8465L568.47487,65.52667L569.43472,66.72679L569.67469,66.96682L570.15462,66.96682L571.5944,67.92691L572.07433,68.40696
				L573.99404,68.88701L574.71393,68.64699z"/>
			<path clip-path="url(#SVG_CP_1)" fill="#73B273" fill-rule="evenodd" stroke="#000000" stroke-width="0.95986" stroke-miterlimit="10" stroke-linecap="round" stroke-linejoin="round" d="
				M444.65341,52.80538L443.93352,54.24552L443.21363,55.92569L442.7337,58.08591L442.49373,58.56596L442.25377,60.96621L442.49373,63.60647
				L442.49373,66.24674L441.77384,67.68689L441.29391,69.36706L440.57402,70.80721L440.33406,71.76731L440.09409,73.44748L439.85413,74.6476
				L439.85413,77.04784L439.3742,79.92814L439.61417,82.80843L439.3742,84.72862L439.61417,86.88884L439.61417,87.60892L439.61417,88.32899
				L439.61417,90.24919L439.3742,90.72923L438.89427,91.20928L438.65431,91.20928L438.17438,91.44931L438.17438,91.92936L437.69445,92.16938
				L437.21453,92.64943L436.49463,95.04967L436.25467,96.00977L436.0147,96.72985L436.0147,97.44992L436.25467,98.65004L436.49463,99.61014
				L436.7346,101.05029L435.77474,103.69055L435.29481,104.41063L435.05485,104.65065L434.57492,106.33082L435.05485,106.81087L
				435.53478,107.29092L436.0147,107.29092L436.97456,107.29092L438.41435,108.01099L439.85413,108.97109L440.57402,110.41124L440.81399,111.61136
				L441.05395,114.0116L441.29391,115.21173L441.29391,117.13192L441.53388,118.57207L441.53388,121.21234L442.01381,122.65248L
				442.49373,123.61258L443.69355,124.8127L444.17348,125.29275L445.13334,125.53278L446.81309,126.49288L448.25287,126.7329L449.21273,126.97292
				L452.57223,128.89312L453.29212,129.13314L453.53208,129.37317L454.7319,129.85322L455.21183,129.85322L456.65161,130.57329L
				457.13154,131.05334L457.37151,131.29336L459.29122,132.49349L459.77115,132.49349L461.4509,133.45358L461.69086,133.69361L462.41075,134.17366
				L463.37061,134.41368L464.81039,134.89373L465.29032,135.6138L465.77025,136.09385L466.73011,137.29397L468.16989,138.4941L468.64982,138.73412
				L469.36971,139.21417L469.60967,139.45419L470.56953,139.93424L470.80949,139.93424L472.00931,141.13437L472.48924,141.13437
				L472.72921,141.61441L473.20913,141.85444L473.92903,142.33449L475.12885,143.77463L475.84874,144.73473L476.0887,145.21478L
				476.32867,145.4548L476.32867,145.93485L476.0887,145.93485L475.84874,146.17488L475.84874,148.81515L475.60878,150.01527L475.60878,150.97537
				L476.0887,153.13559L475.84874,154.57573L476.0887,155.29581L475.36881,157.216L474.88888,158.65615L474.88888,159.61625L474.40896,160.0963
				L473.68906,160.33632L472.96917,160.33632L471.52939,159.85627L470.32957,159.61625L469.36971,160.0963L469.12975,160.33632L
				468.16989,161.05639L466.97007,161.53644L466.25018,161.53644L464.81039,161.53644L463.85054,161.77647L462.65072,162.01649L
				462.41075,162.25652L462.41075,162.97659L462.89068,164.41673L462.65072,165.37683L462.41075,166.09691L460.731,167.29703L460.731,167.53705
				L460.25108,167.77708L460.01111,168.49715L460.731,168.49715L460.97097,168.73717L461.93082,169.21722L461.69086,169.9373L460.731,171.13742
				L460.25108,171.85749L459.05126,173.77769L458.81129,175.21783L458.57133,175.69788L458.33136,175.93791L458.33136,176.41796
				L457.85143,176.41796L457.61147,176.89801L457.61147,177.13803L457.37151,177.61808L456.41165,178.33815L455.45179,179.29825
				L454.97187,180.49837L454.7319,181.93852L454.49194,182.65859L454.01201,184.09874L453.53208,184.57879L453.29212,185.29886L
				452.57223,186.25896L451.61237,187.6991L450.89248,188.89923L448.97276,188.17915L447.77294,187.45908L446.81309,187.45908L446.0932,186.97903
				L443.69355,186.01893L443.21363,186.01893L440.33406,185.53888L438.65431,185.29886L437.45449,185.29886L436.25467,184.81881
				L435.53478,184.81881L435.05485,184.57879L434.57492,184.33876L431.69535,182.65859L431.21542,181.93852L430.25557,181.21845
				L429.05575,180.97842L429.05575,181.45847L428.09589,182.89862L427.61596,183.61869L427.376,183.85871L427.13603,184.57879L426.89607,184.81881
				L425.93621,186.97903L424.49643,189.13925L423.53657,191.05945L423.05665,192.01954L422.57672,191.5395L422.09679,191.5395L421.13693,190.81942
				L419.93711,190.09935L418.97726,189.6193L418.49733,189.37928L417.29751,188.6592L415.85772,188.41918L414.89787,187.6991L414.41794,187.21906
				L414.17798,187.21906L413.45808,186.49898L413.21812,186.25896L411.29841,184.09874L410.33855,183.61869L409.85862,183.37866
				L409.37869,183.37866L407.21902,183.13864L406.25916,183.37866L405.05934,183.85871L404.09948,184.33876L403.61956,184.81881
				L403.37959,184.81881L402.41974,185.53888L402.17977,186.01893L401.45988,186.49898L400.50002,186.97903L399.78013,187.6991L
				398.82028,188.17915L397.62045,188.41918L395.46078,188.41918L394.74089,188.41918L394.50092,188.6592L394.02099,188.89923L393.78103,189.13925
				L393.54107,189.37928L393.06114,190.09935L392.58121,190.5794L392.58121,190.81942L391.38139,191.77952L390.90146,192.01954L
				390.42153,192.01954L388.74178,191.5395L387.78193,190.81942L387.302,190.81942L387.06204,190.5794L386.34214,190.09935L385.38229,189.6193
				L382.02279,188.89923L381.3029,188.6592L380.82297,188.41918L379.14322,187.93913L378.90326,187.6991L378.42333,187.45908L377.70344,186.73901
				L376.98355,186.01893L376.26365,185.29886L376.02369,185.05884L375.54376,184.57879L374.5839,184.09874L374.34394,183.85871L
				374.10398,183.85871L373.62405,183.61869L372.66419,182.89862L371.9443,182.41857L371.46437,182.17854L370.98444,181.93852L369.3047,180.7384
				L369.06473,180.25835L368.5848,180.01832L367.14502,178.8182L366.42513,177.61808L366.18516,177.13803L365.9452,176.17793L365.70523,175.21783
				L365.22531,174.73779L364.98534,174.49776L364.50541,174.01771L364.02549,173.53766L363.54556,173.29764L361.62585,172.09752
				L360.18606,171.37744L359.9461,171.37744L358.74628,170.65737L357.78642,170.41735L356.82656,170.41735L354.90685,170.89739L
				354.42692,171.13742L353.46707,171.37744L352.74717,171.85749L351.54735,172.81759L351.30739,173.29764L350.82746,173.53766L
				350.5875,173.77769L350.10757,174.49776L349.86761,174.73779L349.38768,175.21783L349.14771,175.69788L347.70793,176.89801L347.228,177.37805
				L346.98804,177.8581L346.26814,178.33815L345.06832,178.33815L344.5884,177.8581L344.34843,177.61808L344.10847,177.13803L344.10847,176.89801
				L343.62854,176.17793L343.14861,174.73779L342.90865,174.49776L342.42872,173.53766L341.94879,172.57757L341.70883,172.33754
				L340.98894,172.09752L340.26904,171.37744L338.82926,171.13742L337.14951,170.41735L336.18965,169.69727L334.98983,168.49715
				L334.26994,167.29703L334.26994,166.57695L334.02998,164.65676L334.02998,163.93669L333.79001,163.45664L333.55005,162.97659
				L333.07012,161.77647L332.59019,160.33632L331.8703,159.61625L330.67048,158.1761L329.47066,156.49593L328.03088,153.13559L327.55095,151.69544
				L327.31098,150.73534L326.83106,149.05517L326.11116,147.375L324.91134,145.21478L323.47156,143.05456L322.75167,142.33449L321.79181,140.89434
				L320.11206,138.97415L318.67228,136.81393L317.71242,135.85383L316.75257,134.65371L315.79271,133.93363L314.59289,132.97353
				L312.91314,132.25346L309.79361,131.05334L307.87389,130.09324L306.19415,129.37317L305.47425,129.13314L302.59469,127.45297
				L301.63483,126.97292L299.47515,126.7329L298.03537,126.49288L297.07551,126.25285L295.63573,125.53278L292.75616,124.57268L
				289.63663,122.65248L286.51709,121.21234L285.07731,120.49226L282.19774,119.29214L280.99792,118.57207L280.51799,118.33204L
				279.31817,117.61197L278.11835,117.13192L276.67857,115.69178L276.19864,115.21173L274.51889,114.73168L273.31907,114.49165L
				272.35921,114.25163L270.91943,114.25163L269.95957,114.0116L268.75975,114.0116L268.03986,113.77158L265.64022,113.77158L264.92033,114.0116
				L263.72051,114.0116L262.52069,114.25163L261.80079,114.25163L259.40115,114.9717L258.92123,115.21173L257.72141,116.41185L257.00151,117.37195
				L256.04166,117.852L255.80169,118.09202L254.36191,118.57207L253.16209,118.33204L252.20223,118.09202L251.48234,118.09202L249.32266,117.61197
				L248.12284,116.65187L247.16299,115.45175L246.20313,114.0116L245.96317,112.57146L245.7232,111.37134L245.7232,109.93119L245.96317,108.25102
				L246.44309,106.81087L246.68306,105.85077L246.44309,103.69055L246.44309,102.01038L245.7232,99.13009L246.92302,98.89007L248.60277,98.65004
				L250.28252,97.68994L252.92212,97.20989L254.12194,96.96987L256.04166,96.96987L257.00151,96.96987L259.64112,97.20989L260.60097,97.44992
				L262.28072,98.41002L263.24058,98.89007L264.68036,98.89007L266.84004,97.92997L268.27982,96.96987L269.23968,96.00977L270.4395,95.04967
				L271.39936,94.80965L272.35921,94.08958L273.31907,93.84955L275.47875,93.3695L276.19864,93.12948L277.15849,92.88945L280.51799,92.88945
				L280.75796,92.88945L280.99792,92.88945L283.1576,92.40941L284.35742,92.40941L285.07731,92.40941L286.51709,92.16938L288.19684,92.40941
				L289.1567,92.40941L289.87659,92.64943L290.59648,92.40941L292.03627,92.40941L294.19594,92.40941L295.87569,91.92936L297.7954,91.92936
				L300.19504,91.44931L301.39486,91.44931L302.35472,91.68933L302.83465,91.92936L305.71422,91.92936L307.63393,91.92936L310.27354,91.68933
				L311.95328,91.68933L315.07282,91.20928L318.91224,91.20928L321.79181,90.72923L323.71152,90.96926L325.39127,90.72923L327.07102,90.24919
				L329.2307,89.52911L330.91044,89.04906L331.63034,88.56902L331.8703,88.32899L331.39037,87.36889L332.35023,86.16877L332.59019,85.20867
				L333.07012,83.5285L333.07012,82.5684L333.31009,78.48799L333.07012,75.6077L333.07012,75.36767L333.07012,74.88762L333.07012,73.6875
				L333.55005,71.76731L333.79001,70.80721L334.02998,70.08713L334.50991,68.88701L335.94969,64.8066L336.66958,63.60647L337.14951,62.64638
				L339.30919,59.76608L341.46886,57.36584L343.38858,56.40574L343.8685,56.40574L345.06832,56.16572L345.78822,55.68567L349.14771,52.56535
				L350.10757,51.1252L350.82746,50.64516L351.54735,48.72496L352.26725,47.76486L354.18696,46.32472L356.10667,44.1645L357.54646,42.2443
				L357.78642,41.2842L358.02638,39.84406L359.9461,40.56413L361.62585,41.04418L363.06563,41.04418L363.78552,40.80415L366.18516,40.56413
				L367.62495,40.3241L368.34484,39.84406L370.50452,38.16388L371.22441,37.20379L371.70434,36.72374L372.18426,36.00366L372.66419,35.76364
				L373.62405,35.28359L375.54376,34.08347L378.42333,33.12337L379.62315,33.3634L380.82297,33.60342L382.02279,34.08347L384.6624,34.80354
				L386.82207,36.00366L387.302,36.48371L387.78193,37.20379L388.98175,37.92386L389.70164,38.40391L391.14142,38.88396L392.34125,39.60403
				L393.3011,39.60403L394.02099,39.36401L394.50092,39.12398L397.86042,38.88396L398.82028,39.12398L401.21992,40.08408L403.13963,41.76425
				L404.33945,42.48432L406.25916,42.96437L407.45898,42.96437L408.17887,42.96437L409.61866,42.48432L412.0183,42.2443L412.97815,41.76425
				L413.69805,41.2842L414.6579,41.04418L415.61776,40.56413L416.81758,39.60403L420.657,37.92386L421.61686,37.68384L423.05665,37.92386
				L424.49643,38.40391L424.97636,38.64393L425.93621,39.36401L429.53568,40.56413L430.49553,41.52423L431.45539,42.00428L431.69535,42.48432
				L433.13514,43.2044L435.05485,43.92447L436.0147,44.1645L438.65431,44.88457L440.57402,45.84467L442.25377,47.52484L443.21363,49.20501
				L444.41345,52.56535L444.65341,52.80538z"/>
		</g>
		<g id="Labels">
			<g id="NEPAL_WARDS_-_Default">
				<g font-family="'Arial'" font-size="1" kerning="0" font-weight="400" fill="#000000" clip-path="url(#SVG_CP_1)" >
					<text text-anchor="start" transform="matrix(11.9982 0 0 12.00122 547.47801 115.78882)" >
						<tspan direction="ltr" unicode-bidi="embed" x="0 ">1</tspan>
					</text>
				</g>
				<g font-family="'Arial'" font-size="1" kerning="0" font-weight="400" fill="#000000" clip-path="url(#SVG_CP_1)" >
					<text text-anchor="start" transform="matrix(11.9982 0 0 12.00122 519.64218 259.56345)" >
						<tspan direction="ltr" unicode-bidi="embed" x="0 ">2</tspan>
					</text>
				</g>
				<g font-family="'Arial'" font-size="1" kerning="0" font-weight="400" fill="#000000" clip-path="url(#SVG_CP_1)" >
					<text text-anchor="start" transform="matrix(11.9982 0 0 12.00122 353.82701 115.06874)" >
						<tspan direction="ltr" unicode-bidi="embed" x="0 ">6</tspan>
					</text>
				</g>
				<g font-family="'Arial'" font-size="1" kerning="0" font-weight="400" fill="#000000" clip-path="url(#SVG_CP_1)" >
					<text text-anchor="start" transform="matrix(11.9982 0 0 12.00122 414.77789 296.04716)" >
						<tspan direction="ltr" unicode-bidi="embed" x="0 ">3</tspan>
					</text>
				</g>
				<g font-family="'Arial'" font-size="1" kerning="0" font-weight="400" fill="#000000" clip-path="url(#SVG_CP_1)" >
					<text text-anchor="start" transform="matrix(11.9982 0 0 12.00122 186.3321 225.23996)" >
						<tspan direction="ltr" unicode-bidi="embed" x="0 ">4</tspan>
					</text>
				</g>
				<g font-family="'Arial'" font-size="1" kerning="0" font-weight="400" fill="#000000" clip-path="url(#SVG_CP_1)" >
					<text text-anchor="start" transform="matrix(11.9982 0 0 12.00122 246.80304 159.95331)" >
						<tspan direction="ltr" unicode-bidi="embed" x="0 ">5</tspan>
					</text>
				</g>
				<g font-family="'Arial'" font-size="1" kerning="0" font-weight="400" fill="#000000" clip-path="url(#SVG_CP_1)" >
					<text text-anchor="start" transform="matrix(11.9982 0 0 12.00122 567.15507 199.07729)" >
						<tspan direction="ltr" unicode-bidi="embed" x="0 ">8</tspan>
					</text>
				</g>
				<g font-family="'Arial'" font-size="1" kerning="0" font-weight="400" fill="#000000" clip-path="url(#SVG_CP_1)" >
					<text text-anchor="start" transform="matrix(11.9982 0 0 12.00122 364.6254 212.51866)" >
						<tspan direction="ltr" unicode-bidi="embed" x="0 ">7</tspan>
					</text>
				</g>
			</g>
		</g>
	</g>
</svg>
