<?xml version="1.0" encoding="utf-8" standalone="no"?>
<!-- Creator: Esri ArcMap 10.6.1.9270 -->
<!DOCTYPE svg PUBLIC "-//W3C//DTD SVG 1.1//EN"  "http://www.w3.org/Graphics/SVG/1.1/DTD/svg11.dtd">
<svg width="813.74173pt" height="434.23937pt" viewBox="0 0 813.74173 434.23937" enable-background="new 0 0 813.74173 434.23937"
	version="1.1" xmlns="http://www.w3.org/2000/svg" xmlns:xlink="http://www.w3.org/1999/xlink" >
	<g id="Layers">
		<g id="NEPAL_WARDS">
			<clipPath id="SVG_CP_1">
				<path d="M0,434.23937L0,0L813.74173,0L813.74173,434.23937L0,434.23937z"/>
			</clipPath>
			<path clip-path="url(#SVG_CP_1)" fill="#73B273" fill-rule="evenodd" stroke="#000000" stroke-width="0.95986" stroke-miterlimit="10" stroke-linecap="round" stroke-linejoin="round" d="
				M641.42394,197.30008L641.90387,198.02016L642.14384,198.74023L642.14384,199.4603L641.90387,199.94035L641.66391,200.4204L641.18398,200.90045
				L640.46409,201.62052L639.50423,202.58062L638.78434,203.54072L638.06445,204.50081L637.58452,206.18099L637.58452,206.90106
				L637.58452,208.58123L637.82448,209.3013L637.82448,209.54133L638.06445,210.2614L638.06445,210.74145L637.82448,211.70155L637.34455,213.14169
				L636.3847,214.82187L636.14473,215.30191L635.66481,216.02199L635.18488,216.98209L635.18488,217.94218L635.42484,218.66226L
				635.90477,219.62235L636.3847,220.1024L636.86463,220.58245L637.34455,221.78257L637.34455,222.0226L637.10459,222.50265L636.62466,223.22272
				L635.42484,223.94279L634.22502,224.66287L633.74509,225.38294L633.26517,225.86299L633.0252,226.58306L632.78524,227.06311L
				632.78524,227.30314L632.06535,228.98331L632.06535,229.46336L632.06535,230.42345L632.06535,230.9035L631.82538,231.38355L631.10549,231.8636
				L629.6657,231.62358L628.46588,231.8636L627.50603,231.62358L626.78614,231.62358L626.54617,232.10362L626.30621,233.06372L626.06624,234.02382
				L626.06624,235.22394L626.06624,236.42406L626.30621,237.38416L626.30621,237.86421L626.54617,239.06433L626.54617,240.26445
				L626.30621,241.7046L626.06624,244.10485L625.82628,244.82492L625.34635,245.54499L624.86642,246.02504L623.90657,246.98514L
				623.18667,247.46519L622.46678,247.70521L621.74689,248.18526L621.50693,248.42529L621.50693,249.38538L621.50693,249.86543L
				622.46678,251.78563L622.70675,252.5057L622.46678,253.22577L622.46678,253.70582L622.22682,253.70582L621.98685,254.18587L621.74689,254.18587
				L620.54707,254.18587L618.86732,253.4658L618.38739,253.70582L617.90747,253.70582L617.6675,254.4259L617.42754,257.54621L617.18757,257.78624
				L616.70765,258.50631L615.0279,259.46641L614.308,259.70643L612.38829,260.66653L611.42844,260.90656L610.70854,261.14658L610.22862,261.3866
				L609.74869,261.86665L609.50872,262.10668L608.54887,263.3068L608.06894,264.50692L607.58901,265.94707L606.86912,267.86726L
				606.38919,268.58734L605.42933,269.30741L604.70944,269.78746L603.74959,270.26751L603.50962,270.50753L603.26966,270.74756L
				603.02969,271.46763L603.26966,271.94768L603.50962,272.42773L603.74959,272.90778L604.22951,273.38783L604.46948,273.38783L
				605.42933,274.1079L605.6693,274.34792L606.14923,275.068L605.90926,276.26812L605.6693,276.74817L605.42933,277.46824L604.46948,277.70827
				L603.98955,277.94829L603.50962,278.66836L602.78973,279.86849L602.06984,280.58856L601.10998,281.30863L599.19027,282.74878
				L598.47038,283.22883L597.75048,283.70888L596.79063,285.14902L595.59081,285.8691L595.11088,286.58917L595.11088,288.02932L
				595.35084,288.50937L595.83077,288.98941L597.27056,290.66959L597.27056,290.90961L597.27056,293.06983L597.03059,294.99002L
				596.55066,295.95012L596.3107,296.43017L595.83077,297.15024L595.11088,297.63029L594.63095,298.59039L594.15102,300.51059L593.91106,301.23066
				L593.6711,301.47068L593.19117,301.47068L592.71124,301.23066L592.23131,301.23066L591.99135,300.27056L591.75138,299.79051L
				591.27145,299.07044L591.03149,299.07044L590.55156,298.83042L590.07163,298.83042L589.83167,299.31046L589.59171,299.55049L
				589.59171,300.51059L590.07163,302.67081L590.3116,303.87093L590.3116,305.07105L590.55156,306.5112L590.79153,306.75122L591.27145,306.99125
				L592.23131,306.99125L593.43113,307.4713L593.43113,307.95134L593.6711,308.43139L594.15102,309.39149L595.11088,310.35159L595.59081,311.07166
				L595.83077,311.55171L595.59081,311.79173L595.59081,312.03176L595.11088,312.27178L593.91106,312.51181L593.43113,312.75183
				L592.47127,314.432L591.51142,315.3921L590.79153,315.63213L590.3116,315.87215L589.83167,315.63213L589.11178,314.67203L588.63185,312.75183
				L587.67199,311.31169L587.19207,310.11156L586.9521,309.63151L586.47217,309.15147L585.99224,308.91144L585.27235,308.91144L
				584.07253,309.63151L583.11268,310.59161L582.63275,311.55171L582.63275,312.27178L582.39278,314.91205L581.67289,316.11217L
				581.67289,316.3522L579.99314,316.83225L579.51322,317.3123L577.5935,317.79235L577.35354,318.03237L577.11357,318.27239L577.11357,318.51242
				L577.5935,319.47252L578.55336,319.95257L580.47307,321.39271L580.953,321.87276L581.91286,322.35281L582.39278,322.59283L582.87271,322.83286
				L583.35264,323.31291L583.5926,324.03298L583.5926,324.51303L583.5926,325.47313L583.5926,325.71315L583.5926,326.91327L583.83257,327.63335
				L583.83257,328.35342L584.07253,328.83347L584.55246,330.27362L584.79242,332.19381L585.03239,332.67386L585.51232,333.15391
				L585.51232,333.39393L586.23221,334.35403L586.9521,335.0741L587.43203,335.55415L587.67199,336.27423L587.67199,336.9943L587.67199,337.71437
				L587.67199,338.43445L587.67199,338.9145L587.19207,339.39454L585.99224,340.59467L585.03239,341.55476L584.3125,341.79479L583.35264,342.27484
				L582.87271,342.75489L582.15282,343.23494L579.99314,343.71498L579.75318,343.95501L578.79332,344.91511L578.31339,345.39516
				L577.83347,346.35525L577.35354,348.27545L577.35354,349.23555L577.35354,349.95562L577.5935,350.43567L578.07343,350.67569L
				578.79332,351.15574L579.03329,351.39577L579.03329,351.63579L579.51322,352.59589L579.75318,354.03603L580.23311,354.99613L
				581.19296,355.95623L582.15282,356.91633L582.39278,357.15635L582.87271,358.35647L583.11268,358.83652L583.11268,360.75672L
				583.11268,361.71682L582.87271,361.95684L582.39278,362.43689L581.91286,362.67691L580.71304,363.39699L579.99314,364.35708L
				579.51322,364.83713L579.51322,366.03726L579.75318,366.99735L579.99314,367.23738L580.47307,368.91755L580.47307,369.63762L
				580.47307,370.83774L580.23311,371.07777L579.51322,371.07777L579.27325,371.07777L578.31339,371.07777L577.5935,371.07777L577.11357,371.31779
				L576.87361,371.55782L576.87361,372.51792L577.11357,372.99796L579.03329,376.11828L579.75318,376.83836L579.99314,377.3184L
				580.23311,377.79845L580.23311,378.2785L579.99314,378.51853L579.51322,378.51853L578.31339,378.2785L577.35354,378.51853L577.11357,378.75855
				L576.87361,379.2386L576.39368,381.1588L576.39368,382.59894L576.39368,383.55904L576.39368,384.27911L576.39368,385.47923L576.39368,386.67936
				L576.63365,388.1195L577.11357,388.83958L577.83347,389.55965L578.31339,389.79967L578.55336,390.0397L579.51322,390.51975L579.99314,390.9998
				L580.47307,391.47985L580.953,392.43994L582.63275,394.60016L583.83257,395.56026L584.55246,396.04031L585.51232,396.04031L587.19207,395.56026
				L587.67199,395.56026L588.15192,395.56026L588.63185,395.80029L590.07163,395.80029L590.55156,395.80029L590.55156,396.52036
				L589.35174,397.96051L589.11178,398.20053L588.87181,398.44055L588.39189,399.16063L587.91196,400.36075L587.91196,400.8408L
				587.67199,401.08082L587.43203,402.76099L587.43203,403.24104L586.71214,404.68119L585.75228,406.60138L585.51232,406.60138L
				585.03239,407.32146L584.55246,407.56148L584.07253,408.04153L583.35264,408.28156L582.15282,408.04153L580.23311,407.32146L
				579.27325,407.08143L577.5935,406.12134L577.11357,405.64129L574.9539,404.92121L573.75408,404.68119L572.55426,404.68119L571.35444,404.92121
				L570.63454,404.92121L568.47487,404.68119L567.03508,403.96112L566.31519,403.48107L564.63544,402.04092L563.91555,401.08082
				L563.19566,400.36075L562.95569,399.8807L562.47577,398.68058L562.2358,397.00041L561.99584,396.04031L561.99584,395.80029L561.99584,393.88009
				L562.2358,392.19992L562.47577,391.47985L562.71573,390.9998L564.39548,388.35953L567.99494,385.23921L568.47487,384.27911L568.47487,383.79906
				L568.47487,383.31901L568.2349,383.07899L567.75498,382.59894L566.31519,381.63884L564.63544,381.1588L563.91555,380.67875L562.95569,380.43872
				L561.27595,380.43872L559.5962,380.43872L558.87631,380.67875L557.91645,380.67875L557.67649,380.67875L553.83706,380.67875L
				552.8772,380.1987L552.39728,379.95867L550.71753,379.2386L549.75767,378.2785L547.11807,376.59833L545.43832,375.15818L543.99853,373.71804
				L543.75857,373.23799L543.27864,372.75794L542.55875,371.31779L542.07882,370.3577L541.59889,369.63762L541.35893,368.67752L
				540.39907,366.99735L540.15911,365.79723L539.67918,364.59711L539.43922,364.11706L537.27954,361.47679L537.03958,361.47679L
				535.83976,360.51669L535.35983,360.27667L534.8799,360.03665L533.92004,359.31657L533.20015,358.35647L532.48026,355.47618L532.72022,353.07594
				L532.96019,351.39577L532.96019,351.15574L532.96019,350.19564L531.5204,348.7555L531.04047,348.27545L531.04047,348.03542L530.08062,347.31535
				L529.60069,346.8353L527.20105,345.15513L526.72112,344.67508L526.24119,343.95501L525.28134,342.75489L523.84155,342.03481L
				523.36162,341.79479L522.64173,341.31474L521.68188,340.83469L520.72202,340.35464L520.48206,340.11462L519.28224,339.39454L
				518.08241,339.15452L516.88259,338.43445L515.44281,337.9544L514.96288,337.71437L514.24299,337.47435L513.5231,337.23432L512.32328,336.75428
				L511.12346,337.23432L510.40356,336.75428L508.96378,336.75428L507.76396,336.9943L507.04407,336.75428L506.56414,336.51425L
				506.08421,336.0342L505.84425,335.55415L504.88439,334.11401L502.96468,328.1134L502.72471,326.67325L502.48475,323.79296L502.24479,322.35281
				L501.28493,319.23249L501.04497,318.51242L500.08511,315.15208L499.84515,311.79173L499.12525,310.11156L493.12615,305.07105
				L492.88619,304.11095L494.8059,302.43078L495.04586,302.43078L495.76576,302.43078L497.20554,302.91083L497.92543,303.15086L
				498.1654,302.67081L499.12525,301.71071L502.72471,300.99064L502.96468,300.51059L503.20464,299.79051L503.44461,298.35037L503.68457,297.87032
				L504.88439,296.6702L507.04407,294.02993L507.524,293.06983L509.92364,290.66959L510.64353,290.18954L511.60339,289.94951L513.5231,289.70949
				L514.24299,289.94951L515.20285,290.18954L515.92274,289.70949L516.40267,289.22944L516.88259,288.26934L517.12256,287.54927
				L517.84245,286.34915L518.56234,285.8691L519.28224,285.38905L519.76216,285.14902L520.24209,285.38905L520.72202,285.14902L
				521.44191,284.909L523.12166,283.9489L523.84155,283.70888L524.56144,283.46885L525.5213,283.9489L526.00123,283.9489L526.72112,283.46885
				L527.92094,282.50875L529.12076,281.78868L530.32058,281.54866L532.24029,282.02871L532.72022,282.02871L533.44011,281.54866
				L533.44011,281.06861L533.20015,280.34853L532.96019,279.86849L532.72022,279.14841L533.44011,278.42834L534.63994,277.46824
				L534.8799,277.22822L535.11986,276.50814L535.11986,275.78807L535.11986,275.54805L534.8799,275.30802L534.63994,274.82797L534.8799,274.1079
				L536.07972,271.94768L536.31968,271.22761L536.55965,270.02748L536.79961,269.78746L537.27954,268.58734L537.99943,267.86726
				L539.19925,266.90717L539.19925,266.66714L539.19925,264.2669L539.43922,263.54682L539.91914,262.58673L541.11897,261.3866L541.59889,261.14658
				L542.31879,260.42651L543.51861,259.22638L543.75857,258.74634L543.75857,258.26629L544.2385,257.30619L544.47846,255.62602L
				544.47846,255.14597L545.43832,254.66592L545.67828,254.66592L546.63814,254.4259L546.8781,253.94585L547.11807,253.4658L546.8781,252.74573
				L546.39817,252.02565L546.15821,251.30558L545.43832,250.34548L544.95839,249.14536L544.71843,248.66531L544.47846,248.18526
				L543.99853,246.50509L543.99853,245.30497L544.47846,243.86482L544.95839,242.18465L545.19835,241.94463L545.91825,239.78441
				L546.63814,239.30436L547.35803,238.10423L547.59799,237.86421L548.31789,237.62419L548.55785,237.62419L549.51771,237.86421
				L550.2376,237.86421L550.47756,237.62419L550.71753,237.14414L550.95749,236.90411L551.19746,236.18404L550.95749,235.22394L
				550.71753,234.98392L550.47756,234.98392L550.2376,234.98392L549.51771,234.98392L549.03778,234.74389L548.79782,234.26384L548.79782,234.02382
				L548.79782,233.7838L548.79782,233.30375L549.75767,232.10362L550.2376,231.62358L550.95749,230.9035L551.67738,230.42345L552.15731,230.18343
				L552.39728,229.70338L552.63724,228.98331L552.63724,227.54316L552.8772,226.82309L553.35713,226.10301L553.35713,225.38294L
				553.35713,223.70277L553.11717,223.22272L552.63724,222.74267L553.5971,221.54255L554.55695,220.58245L555.99674,219.62235L556.47667,219.38233
				L557.43652,218.90228L558.63634,218.18221L559.83616,216.98209L560.07613,216.50204L560.55605,215.78196L561.27595,215.30191
				L561.51591,214.82187L561.99584,214.10179L562.71573,213.38172L563.43562,211.70155L563.91555,210.02138L564.15552,209.06128
				L564.63544,208.34121L564.63544,207.62113L565.5953,205.22089L566.31519,204.02077L567.03508,203.30069L567.27505,202.82064L
				568.47487,201.62052L569.19476,201.14047L569.67469,200.90045L570.15462,200.18037L570.87451,199.4603L571.11447,199.22028L571.11447,198.02016
				L570.63454,196.33998L570.63454,195.61991L570.63454,194.89984L570.87451,194.65981L571.11447,193.93974L571.5944,193.21967L
				571.83437,192.73962L571.83437,192.01954L571.35444,191.29947L571.11447,190.81942L571.5944,190.81942L573.03419,191.05945L575.91375,190.5794
				L576.15372,190.33937L578.31339,190.09935L581.67289,189.6193L582.63275,189.6193L584.3125,189.6193L586.23221,189.13925L586.9521,188.89923
				L588.39189,188.89923L589.83167,188.17915L590.55156,187.93913L590.79153,187.93913L591.75138,187.21906L593.43113,186.97903
				L595.59081,187.21906L596.79063,187.93913L598.23041,188.89923L600.15012,190.09935L600.63005,190.33937L600.87002,190.5794L
				602.06984,191.05945L603.26966,191.05945L604.94941,190.81942L605.6693,190.81942L606.62915,191.05945L607.34905,191.05945L608.06894,191.5395
				L609.26876,191.5395L610.46858,191.77952L610.94851,191.77952L611.42844,191.77952L611.90836,191.77952L613.10818,191.77952L
				613.82808,191.77952L615.0279,191.5395L615.26786,191.5395L616.22772,191.5395L618.62736,190.81942L619.58721,190.5794L620.78703,190.33937
				L621.98685,190.5794L622.94671,190.81942L624.3865,191.29947L625.10639,191.5395L626.30621,192.49959L627.50603,192.97964L628.70585,193.21967
				L630.14563,193.21967L631.10549,193.21967L632.06535,193.21967L634.22502,193.21967L634.70495,193.21967L635.90477,193.93974
				L636.62466,194.17976L637.10459,194.17976L637.82448,194.65981L638.06445,195.13986L639.26427,196.33998L640.46409,196.82003
				L641.18398,197.06006L641.42394,197.30008z"/>
			<path clip-path="url(#SVG_CP_1)" fill="#73B273" fill-rule="evenodd" stroke="#000000" stroke-width="0.95986" stroke-miterlimit="10" stroke-linecap="round" stroke-linejoin="round" d="
				M458.57133,248.66531L457.85143,247.94524L457.13154,247.46519L456.17169,247.46519L455.45179,247.94524L454.7319,248.18526L
				454.49194,247.94524L454.49194,247.22516L454.97187,246.02504L454.97187,245.06494L454.25197,243.86482L453.53208,243.14475L
				453.05215,240.7445L452.33226,239.06433L452.33226,237.86421L452.57223,236.42406L452.57223,235.46397L451.85233,233.7838L451.85233,231.62358
				L451.61237,230.42345L450.89248,229.22333L450.65251,228.02321L449.45269,224.90289L449.21273,224.66287L449.69266,224.42284
				L450.89248,222.0226L451.13244,221.30252L450.65251,220.34243L448.97276,219.1423L448.25287,218.42223L448.01291,217.70216L448.25287,217.22211
				L448.97276,216.26201L449.69266,213.86177L450.65251,212.1816L452.33226,206.90106L453.29212,204.98086L454.25197,204.98086L
				455.21183,204.50081L456.17169,204.02077L457.37151,204.02077L458.0914,203.54072L459.77115,202.82064L460.49104,202.34059L461.4509,201.14047
				L462.17079,199.22028L463.13064,197.78013L463.37061,196.58001L463.61057,195.61991L464.0905,195.13986L464.81039,194.89984L
				465.53028,194.65981L466.49014,194.65981L466.97007,195.13986L467.45,195.85994L467.92993,196.58001L469.60967,196.33998L472.48924,195.85994
				L472.96917,195.61991L473.4491,194.41979L473.4491,188.41918L472.96917,187.93913L471.76935,187.45908L469.12975,187.45908L468.16989,187.21906
				L467.45,186.73901L467.21003,186.25896L468.16989,185.53888L469.60967,183.85871L470.80949,182.41857L472.96917,181.21845L476.56863,180.01832
				L477.76845,179.05823L479.4482,177.61808L480.16809,176.89801L481.12795,176.17793L481.84784,175.69788L482.08781,175.69788L
				482.8077,173.05761L483.28763,172.09752L485.92723,169.9373L486.16719,168.9772L486.40716,167.29703L486.64712,166.09691L487.60698,164.65676
				L487.60698,164.41673L489.52669,162.01649L490.00662,161.05639L490.00662,160.57634L489.76666,156.97598L490.72651,154.57573
				L490.96648,153.61564L490.72651,153.13559L492.1663,152.17549L493.12615,151.93546L494.32597,150.73534L496.24569,150.01527L
				496.72561,149.2952L498.64533,148.81515L499.36522,148.3351L501.04497,146.89495L504.88439,144.49471L507.28403,143.53461L510.40356,142.57451
				L512.56324,141.61441L513.76306,141.13437L514.96288,141.13437L515.44281,140.65432L515.68277,139.93424L515.92274,139.45419
				L516.64263,140.17427L516.88259,141.37439L515.92274,143.29459L512.08331,147.375L512.08331,149.53522L511.60339,151.45542L510.88349,152.89556
				L509.68367,158.1761L509.44371,159.61625L509.20374,160.33632L509.44371,162.01649L511.36342,165.61686L511.84335,166.09691L
				513.28313,167.29703L514.24299,167.53705L514.48295,167.77708L515.20285,170.17732L514.96288,170.41735L514.96288,170.65737L
				513.5231,170.89739L511.84335,172.33754L508.96378,175.69788L508.00392,176.41796L507.04407,176.65798L507.28403,178.57818L506.32418,180.25835
				L505.84425,181.21845L505.36432,183.61869L504.88439,184.57879L502.72471,187.45908L502.72471,189.13925L501.76486,190.5794L
				500.56504,191.77952L500.08511,193.21967L499.60518,194.65981L499.36522,196.82003L498.88529,198.5002L498.88529,200.4204L498.64533,201.86055
				L496.00572,206.66103L496.00572,208.34121L496.24569,210.74145L496.00572,211.70155L495.52579,212.66165L494.32597,214.10179
				L493.36612,214.82187L491.68637,215.78196L486.64712,217.94218L485.92723,218.66226L485.92723,219.62235L484.48745,220.82248
				L480.16809,223.70277L479.20824,224.66287L478.24838,225.38294L478.00842,225.62296L477.52849,225.86299L477.04856,226.34304
				L475.60878,228.26323L475.12885,229.9434L474.40896,230.9035L473.4491,231.8636L470.56953,233.30375L469.60967,234.02382L468.64982,235.46397
				L466.97007,239.78441L465.77025,241.46458L464.57043,242.18465L461.69086,243.14475L460.25108,244.34487L459.53118,246.26507
				L459.29122,247.70521L458.57133,248.66531z"/>
			<path clip-path="url(#SVG_CP_1)" fill="#73B273" fill-rule="evenodd" stroke="#000000" stroke-width="0.95986" stroke-miterlimit="10" stroke-linecap="round" stroke-linejoin="round" d="
				M430.7355,118.33204L429.05575,118.57207L427.376,119.29214L424.73639,120.97231L423.05665,121.69239L422.09679,122.41246L420.89697,123.13253
				L419.69715,124.57268L419.21722,126.97292L417.05754,129.85322L416.57762,131.29336L413.21812,135.13375L411.77833,138.25407
				L410.33855,139.93424L409.13873,141.85444L408.89877,142.57451L409.13873,143.53461L409.85862,144.97476L410.57851,145.69483
				L412.0183,146.17488L412.97815,147.85505L412.49823,149.77524L412.0183,151.45542L410.09859,155.29581L410.09859,155.77586L410.33855,156.49593
				L411.05844,157.216L413.45808,157.93608L413.93801,159.37622L413.69805,160.0963L412.73819,161.53644L412.49823,162.49654L412.25826,163.69666
				L412.0183,164.41673L410.81848,165.61686L410.57851,166.09691L410.81848,167.057L411.29841,167.77708L411.29841,168.73717L410.81848,169.21722
				L408.41884,169.9373L408.17887,169.9373L407.93891,170.41735L407.93891,171.13742L408.41884,173.05761L409.61866,174.25774L410.33855,174.49776
				L411.77833,174.25774L412.49823,174.49776L413.21812,174.97781L412.97815,175.69788L411.53837,178.8182L410.09859,177.61808L
				409.61866,177.61808L406.73909,177.37805L405.53927,177.13803L404.57941,176.65798L402.41974,175.69788L399.06024,174.01771L
				398.82028,174.97781L399.06024,175.93791L399.54017,176.89801L400.0201,178.33815L401.21992,180.01832L401.93981,181.93852L402.17977,184.09874
				L402.41974,184.81881L404.33945,188.17915L407.93891,188.6592L407.45898,191.29947L406.97905,194.17976L406.49913,194.89984L
				405.53927,196.58001L404.33945,198.74023L403.37959,200.18037L402.41974,202.34059L400.50002,204.02077L399.78013,206.66103L
				398.82028,208.10118L396.18067,210.02138L394.50092,210.74145L394.02099,210.50143L393.3011,210.02138L392.58121,209.3013L392.10128,208.58123
				L393.3011,204.74084L393.54107,201.86055L393.54107,200.4204L390.90146,199.4603L387.78193,199.70033L386.58211,199.4603L384.6624,199.4603
				L381.78283,198.98025L378.90326,198.74023L377.70344,198.26018L375.78372,196.82003L373.38408,193.93974L371.46437,191.05945
				L370.50452,190.33937L368.5848,189.37928L367.62495,189.6193L365.70523,189.37928L364.98534,188.89923L364.50541,188.41918L363.54556,186.49898
				L363.54556,186.01893L364.74538,184.57879L365.46527,182.41857L366.18516,181.21845L367.86491,179.53827L370.02459,176.41796
				L371.9443,174.49776L373.14412,172.57757L375.06383,170.41735L375.78372,168.73717L376.50362,167.53705L378.18337,166.33693L
				380.10308,164.89678L380.34304,164.89678L381.54286,164.89678L382.74268,164.65676L383.22261,163.21661L385.38229,159.1362L385.62225,156.49593
				L386.10218,155.53583L386.58211,154.81576L387.302,154.09568L389.22171,152.17549L391.14142,151.21539L391.62135,151.45542L392.58121,147.61502
				L392.10128,145.69483L392.10128,144.25468L392.34125,144.01466L391.86132,140.89434L392.34125,138.97415L392.34125,137.29397
				L392.82117,135.85383L392.10128,132.73351L392.10128,132.01344L391.38139,129.85322L391.14142,128.89312L389.70164,125.7728L
				388.98175,125.05273L387.78193,124.57268L386.34214,124.33266L385.14232,123.37256L383.70254,121.21234L382.26275,120.49226L
				381.78283,119.77219L381.54286,118.57207L382.02279,117.13192L381.54286,116.65187L380.82297,116.17182L379.86311,115.9318L375.06383,115.9318
				L372.42423,116.8919L366.90505,123.37256L366.42513,124.8127L364.98534,127.45297L363.78552,129.13314L362.82567,130.09324L361.86581,131.29336
				L360.90595,131.77341L360.42602,132.25346L359.9461,132.73351L357.78642,133.93363L357.30649,133.93363L357.06653,132.25346L
				356.5866,131.29336L356.5866,130.57329L356.5866,128.41307L356.5866,126.01283L356.34664,125.05273L355.62674,123.85261L353.46707,122.17244
				L352.50721,121.93241L351.54735,121.45236L350.82746,120.73229L350.5875,120.25224L350.34753,118.57207L349.62764,115.45175L
				349.62764,114.73168L350.34753,113.53156L350.34753,113.05151L350.10757,112.09141L350.34753,110.65126L351.54735,109.69116L
				352.74717,107.29092L352.02728,105.1307L352.02728,104.1706L351.54735,102.01038L351.30739,100.09019L352.26725,99.13009L354.42692,96.48982
				L355.86671,94.3296L356.34664,94.08958L358.26635,93.84955L358.74628,94.08958L358.98624,94.3296L359.2262,95.2897L359.70613,96.00977
				L361.14592,96.48982L361.62585,97.20989L362.10577,98.41002L363.06563,98.89007L363.78552,99.37011L364.50541,100.33021L365.70523,100.57024
				L368.34484,101.05029L373.38408,100.57024L374.82387,100.09019L376.02369,99.37011L376.26365,99.37011L376.50362,98.89007L376.74358,98.65004
				L377.70344,98.65004L379.38319,99.13009L381.06293,99.13009L381.3029,98.65004L382.50272,96.2498L383.70254,94.3296L384.6624,93.60953
				L385.62225,93.3695L390.18157,92.64943L391.14142,92.64943L394.02099,92.40941L395.46078,92.16938L395.94071,91.44931L396.90056,89.76914
				L397.38049,87.84894L398.10038,88.08897L398.82028,88.56902L400.73999,90.48921L401.45988,91.20928L402.6597,92.40941L404.09948,94.80965
				L405.53927,96.96987L406.49913,98.16999L408.41884,101.53033L409.61866,102.73046L410.33855,103.93058L410.57851,104.89068L411.29841,106.57085
				L412.0183,107.53095L412.97815,108.01099L414.17798,108.01099L415.61776,108.49104L418.97726,108.97109L421.3769,109.21112L422.33675,109.45114
				L424.0165,109.69116L425.45629,110.89129L426.17618,111.37134L428.81578,112.81148L429.05575,113.29153L430.0156,114.9717L430.0156,115.21173
				L430.49553,117.61197L430.7355,118.33204z"/>
			<path clip-path="url(#SVG_CP_1)" fill="#73B273" fill-rule="evenodd" stroke="#000000" stroke-width="0.95986" stroke-miterlimit="10" stroke-linecap="round" stroke-linejoin="round" d="
				M338.10937,94.80965L338.58929,95.2897L339.54915,96.48982L339.54915,96.72985L340.02908,97.68994L340.50901,97.92997L341.94879,98.41002
				L343.8685,99.61014L345.54825,100.33021L346.74807,100.33021L347.228,100.09019L349.14771,100.33021L350.10757,99.85016L351.06743,99.85016
				L351.30739,100.09019L351.54735,102.01038L352.02728,104.1706L352.02728,105.1307L352.74717,107.29092L351.54735,109.69116L350.34753,110.65126
				L350.10757,112.09141L350.34753,113.05151L350.34753,113.53156L349.62764,114.73168L349.62764,115.45175L350.34753,118.57207
				L350.5875,120.25224L350.82746,120.73229L351.54735,121.45236L352.50721,121.93241L353.46707,122.17244L355.62674,123.85261L
				356.34664,125.05273L356.5866,126.01283L356.5866,128.41307L356.5866,130.57329L356.5866,131.29336L357.06653,132.25346L357.30649,133.93363
				L357.06653,134.41368L356.82656,135.13375L355.62674,135.85383L355.86671,136.81393L357.30649,138.73412L358.02638,140.89434
				L358.26635,141.61441L357.54646,143.29459L356.82656,144.73473L356.82656,146.17488L357.06653,147.85505L357.54646,148.81515
				L358.02638,150.25529L357.78642,151.21539L357.30649,153.61564L356.82656,157.216L355.86671,158.65615L355.62674,159.1362L355.14682,159.1362
				L353.70703,159.1362L352.74717,158.41612L351.78732,156.49593L351.30739,156.01588L350.82746,156.01588L350.5875,156.01588L349.38768,157.216
				L348.66779,157.216L347.94789,156.97598L346.98804,155.53583L346.50811,155.05578L345.78822,154.81576L344.10847,155.29581L343.8685,155.29581
				L341.70883,154.81576L340.98894,155.05578L340.26904,156.49593L339.30919,156.97598L338.10937,157.69605L337.8694,157.93608L
				337.8694,158.1761L339.06922,158.89617L340.02908,161.53644L338.34933,161.77647L335.94969,163.21661L334.74987,164.65676L334.26994,165.85688
				L334.26994,166.33693L334.50991,167.057L336.42962,168.25713L337.14951,169.21722L339.54915,174.49776L340.50901,175.93791L340.50901,176.17793
				L340.26904,176.65798L338.82926,176.41796L338.34933,177.13803L336.90955,177.61808L335.2298,177.37805L332.83016,176.89801L
				332.35023,177.37805L331.8703,178.57818L330.91044,179.29825L329.71062,179.7783L328.03088,180.01832L326.83106,180.25835L325.8712,180.97842
				L325.39127,181.69849L324.91134,182.65859L324.67138,182.89862L324.19145,183.37866L323.71152,185.05884L323.23159,185.77891
				L321.79181,186.49898L319.39217,187.45908L318.19235,188.17915L315.55274,188.89923L313.873,188.17915L310.75346,187.6991L308.59379,186.73901
				L308.35382,186.49898L305.71422,186.01893L303.55454,186.01893L302.59469,186.25896L301.39486,186.01893L300.43501,185.29886
				L299.23519,185.29886L298.27533,185.77891L297.31548,186.73901L295.63573,188.6592L294.67587,189.37928L293.71601,190.09935L
				292.03627,190.5794L289.63663,190.81942L288.91673,190.81942L287.95688,191.05945L287.23699,192.01954L286.03716,195.61991L283.63752,199.22028
				L281.71781,201.3805L281.23788,202.10057L280.27803,203.06067L278.35831,204.26079L276.91853,204.74084L276.4386,205.22089L276.19864,204.74084
				L274.75885,201.14047L274.27893,198.26018L274.03896,196.58001L273.799,195.13986L273.31907,187.45908L273.31907,186.25896L273.07911,184.57879
				L273.55903,183.37866L273.799,182.17854L273.31907,180.01832L270.4395,174.73779L266.84004,171.13742L264.68036,168.9772L263.72051,167.77708
				L262.52069,166.57695L256.52159,162.25652L254.84184,161.29642L253.88198,161.29642L253.40205,160.81637L252.20223,161.29642
				L251.24238,161.53644L250.04256,161.77647L249.0827,162.01649L247.40295,162.49654L246.44309,162.97659L245.24327,163.45664L
				244.04345,164.41673L241.40385,165.85688L240.20403,166.33693L238.52428,167.53705L237.56442,168.0171L236.84453,168.25713L233.24507,168.25713
				L229.40565,167.77708L229.16568,167.77708L229.16568,167.057L226.76604,166.09691L226.04615,165.13681L224.60636,164.65676L224.12644,164.17671
				L222.68665,162.25652L221.48683,160.0963L219.56712,157.45603L219.08719,156.73595L217.16748,154.09568L216.20762,152.17549L
				215.72769,151.45542L214.76784,150.49532L213.56802,148.81515L212.84813,146.89495L213.08809,145.69483L213.32805,144.49471L
				215.0078,141.85444L216.68755,138.97415L218.12733,135.6138L218.3673,135.13375L217.16748,132.01344L216.20762,130.57329L215.0078,129.37317
				L213.80798,129.61319L212.3682,130.33327L211.88827,130.33327L210.44848,129.61319L209.48863,129.13314L209.0087,128.65309L208.76874,127.693
				L208.52877,125.05273L209.0087,121.93241L209.0087,121.21234L208.28881,119.77219L207.08899,115.9318L205.88917,114.73168L204.20942,113.53156
				L201.80978,112.81148L199.6501,112.57146L198.69025,112.57146L196.2906,114.0116L195.33075,115.21173L193.41104,116.17182L192.69114,116.65187
				L191.97125,116.8919L191.0114,117.37195L187.6519,118.33204L181.89276,119.77219L178.05334,120.01222L176.61355,120.49226L174.45388,122.41246
				L173.25405,123.85261L173.01409,123.13253L172.77413,121.69239L172.2942,117.852L172.2942,115.21173L172.05423,111.61136L171.81427,108.25102
				L171.57431,105.1307L171.09438,101.53033L170.85441,98.41002L171.09438,95.52972L171.33434,94.3296L172.05423,87.36889L171.81427,83.76853
				L171.33434,81.84833L171.09438,81.12826L171.33434,80.16816L172.53416,79.20806L175.17377,76.08774L174.9338,75.12765L175.17377,74.16755
				L175.6537,73.6875L176.37359,73.20745L177.33344,72.00733L178.05334,71.28726L178.2933,70.80721L178.2933,69.84711L178.05334,68.88701
				L178.2933,68.16694L178.53326,67.68689L179.01319,67.44687L179.97305,67.20684L181.17287,66.00672L183.33255,65.76669L184.2924,65.52667
				L184.53237,65.28665L184.77233,65.28665L188.13183,65.52667L190.05154,66.00672L190.2915,66.24674L191.0114,66.48677L191.49132,66.72679
				L197.73039,68.88701L198.45028,69.36706L201.80978,71.28726L205.40924,74.88762L208.28881,78.96804L209.72859,81.36828L212.60816,84.4886
				L213.08809,84.96865L214.76784,85.68872L215.0078,85.92875L215.0078,86.64882L215.72769,87.84894L216.92751,87.84894L218.60726,87.84894
				L223.40654,92.40941L223.88647,92.88945L224.84633,95.2897L227.00601,97.68994L228.92572,102.01038L230.3655,103.69055L230.60547,103.45053
				L231.08539,104.89068L231.80529,107.77097L232.52518,109.45114L233.00511,109.93119L235.16478,112.09141L236.60457,114.49165
				L236.60457,115.21173L236.3646,115.9318L234.92482,117.852L234.44489,118.81209L234.44489,121.45236L234.68486,121.93241L235.40475,123.13253
				L235.88468,123.37256L237.0845,123.61258L238.04435,123.37256L240.44399,121.93241L241.16388,121.69239L243.32356,122.41246L
				244.52338,123.13253L245.48324,123.37256L247.88288,124.57268L248.36281,124.8127L248.60277,126.01283L248.36281,127.45297L247.16299,130.09324
				L247.16299,130.33327L247.40295,130.81331L248.36281,131.29336L249.32266,131.29336L252.20223,129.85322L253.16209,129.85322
				L253.88198,129.61319L255.32176,128.89312L256.04166,127.93302L257.24148,127.45297L259.16119,126.97292L259.88108,126.97292
				L261.0809,127.45297L263.00061,126.7329L264.4404,127.21295L267.31997,126.7329L267.7999,126.49288L269.95957,124.57268L270.4395,124.09263
				L271.39936,122.89251L273.31907,120.97231L274.51889,120.49226L275.23878,120.49226L278.35831,119.53217L280.03806,118.09202
				L283.63752,115.69178L284.59738,114.73168L285.31727,114.25163L288.19684,114.0116L290.83645,114.25163L291.7963,114.25163L292.99612,114.49165
				L294.19594,115.21173L294.67587,115.45175L295.1558,115.21173L295.63573,114.49165L295.63573,114.25163L296.83555,113.77158L
				299.23519,113.77158L300.67497,113.05151L301.39486,111.61136L302.83465,109.93119L303.79451,108.73107L305.23429,107.29092L
				305.71422,105.85077L308.35382,103.45053L309.79361,101.53033L309.79361,100.57024L310.75346,99.61014L311.95328,98.41002L312.43321,97.44992
				L312.91314,96.96987L314.59289,96.72985L315.79271,95.76975L317.47246,95.52972L318.67228,95.52972L320.83195,94.80965L321.79181,93.84955
				L322.99163,93.3695L324.67138,92.16938L325.63124,92.16938L326.11116,91.68933L327.07102,90.96926L327.31098,90.96926L328.5108,90.96926
				L329.47066,91.20928L332.83016,93.60953L334.50991,94.08958L336.18965,94.08958L338.10937,94.80965z"/>
			<path clip-path="url(#SVG_CP_1)" fill="#73B273" fill-rule="evenodd" stroke="#000000" stroke-width="0.95986" stroke-miterlimit="10" stroke-linecap="round" stroke-linejoin="round" d="
				M559.5962,117.852L560.07613,117.852L560.31609,118.33204L560.79602,119.05212L561.51591,119.53217L562.2358,119.77219L563.43562,120.01222
				L565.83526,120.25224L566.79512,120.49226L567.27505,120.49226L568.47487,120.73229L569.19476,121.45236L570.87451,122.89251
				L571.35444,123.85261L571.83437,124.33266L572.07433,125.05273L572.79422,126.7329L573.51411,127.93302L573.51411,128.65309L
				573.75408,131.05334L573.75408,132.25346L573.51411,133.21356L573.51411,133.93363L573.51411,134.65371L573.51411,135.37378L
				573.27415,136.09385L572.79422,136.81393L572.07433,137.29397L571.83437,137.77402L570.87451,139.45419L570.63454,139.69422L
				570.15462,140.17427L569.67469,141.13437L568.9548,141.85444L568.2349,142.81454L567.75498,143.29459L566.79512,144.49471L566.31519,145.69483
				L565.5953,147.13498L565.11537,148.3351L564.39548,149.77524L563.91555,150.97537L563.91555,151.69544L564.15552,153.13559L563.91555,154.33571
				L563.91555,155.05578L563.19566,156.2559L562.2358,158.1761L560.79602,160.0963L559.11627,161.53644L558.39638,162.25652L557.91645,162.73656
				L556.71663,164.41673L555.99674,166.09691L555.27684,167.057L554.07702,168.0171L553.11717,169.45725L552.63724,170.17732L552.39728,170.89739
				L552.15731,171.37744L552.15731,172.33754L552.63724,173.29764L552.8772,173.77769L553.35713,174.49776L553.83706,175.93791L
				554.55695,178.09813L555.75677,180.01832L556.71663,181.21845L557.67649,182.41857L558.63634,184.09874L559.11627,184.57879L
				559.5962,184.33876L560.79602,184.09874L561.27595,183.85871L561.99584,183.61869L563.19566,183.37866L564.15552,183.37866L565.83526,183.85871
				L566.31519,184.33876L567.27505,185.29886L567.75498,185.53888L567.99494,186.01893L568.2349,186.49898L569.67469,188.6592L569.67469,188.89923
				L570.39458,190.09935L570.87451,190.5794L571.11447,190.81942L571.35444,191.29947L571.83437,192.01954L571.83437,192.73962L
				571.5944,193.21967L571.11447,193.93974L570.87451,194.65981L570.63454,194.89984L570.63454,195.61991L570.63454,196.33998L571.11447,198.02016
				L571.11447,199.22028L570.87451,199.4603L570.15462,200.18037L569.67469,200.90045L569.19476,201.14047L568.47487,201.62052L
				567.27505,202.82064L567.03508,203.30069L566.31519,204.02077L565.5953,205.22089L564.63544,207.62113L564.63544,208.34121L564.15552,209.06128
				L563.91555,210.02138L563.43562,211.70155L562.71573,213.38172L561.99584,214.10179L561.51591,214.82187L561.27595,215.30191
				L560.55605,215.78196L560.07613,216.50204L559.83616,216.98209L558.63634,218.18221L557.43652,218.90228L556.47667,219.38233
				L555.99674,219.62235L554.55695,220.58245L553.5971,221.54255L552.63724,222.74267L553.11717,223.22272L553.35713,223.70277L
				553.35713,225.38294L553.35713,226.10301L552.8772,226.82309L552.63724,227.54316L552.63724,228.98331L552.39728,229.70338L552.15731,230.18343
				L551.67738,230.42345L550.95749,230.9035L550.2376,231.62358L549.75767,232.10362L548.79782,233.30375L548.79782,233.7838L548.79782,234.02382
				L548.79782,234.26384L549.03778,234.74389L549.51771,234.98392L550.2376,234.98392L550.47756,234.98392L550.71753,234.98392L
				550.95749,235.22394L551.19746,236.18404L550.95749,236.90411L550.71753,237.14414L550.47756,237.62419L550.2376,237.86421L549.51771,237.86421
				L548.55785,237.62419L548.31789,237.62419L547.59799,237.86421L547.35803,238.10423L546.63814,239.30436L545.91825,239.78441
				L545.19835,241.94463L544.95839,242.18465L544.47846,243.86482L543.99853,245.30497L543.99853,246.50509L544.47846,248.18526
				L544.71843,248.66531L544.95839,249.14536L545.43832,250.34548L546.15821,251.30558L546.39817,252.02565L546.8781,252.74573L
				547.11807,253.4658L546.8781,253.94585L546.63814,254.4259L545.67828,254.66592L545.43832,254.66592L544.47846,255.14597L544.47846,255.62602
				L544.2385,257.30619L543.75857,258.26629L543.75857,258.74634L543.51861,259.22638L542.31879,260.42651L541.59889,261.14658L
				541.11897,261.3866L539.91914,262.58673L539.43922,263.54682L539.19925,264.2669L539.19925,266.66714L539.19925,266.90717L537.99943,267.86726
				L537.27954,268.58734L536.79961,269.78746L536.55965,270.02748L536.31968,271.22761L536.07972,271.94768L534.8799,274.1079L534.63994,274.82797
				L534.8799,275.30802L535.11986,275.54805L535.11986,275.78807L535.11986,276.50814L534.8799,277.22822L534.63994,277.46824L533.44011,278.42834
				L532.72022,279.14841L532.96019,279.86849L533.20015,280.34853L533.44011,281.06861L533.44011,281.54866L532.72022,282.02871
				L532.24029,282.02871L530.32058,281.54866L529.12076,281.78868L527.92094,282.50875L526.72112,283.46885L526.00123,283.9489L
				525.5213,283.9489L524.56144,283.46885L523.84155,283.70888L523.12166,283.9489L521.44191,284.909L520.72202,285.14902L520.24209,285.38905
				L519.76216,285.14902L519.28224,285.38905L518.56234,285.8691L517.84245,286.34915L517.12256,287.54927L516.88259,288.26934L
				516.40267,289.22944L515.92274,289.70949L515.20285,290.18954L514.24299,289.94951L513.5231,289.70949L511.60339,289.94951L510.64353,290.18954
				L509.92364,290.66959L507.524,293.06983L507.04407,294.02993L504.88439,296.6702L503.68457,297.87032L503.44461,298.35037L503.20464,299.79051
				L502.96468,300.51059L502.72471,300.99064L499.12525,301.71071L498.1654,302.67081L497.92543,303.15086L497.20554,302.91083L
				495.76576,302.43078L495.04586,302.43078L494.8059,302.43078L492.88619,304.11095L491.68637,302.67081L490.24658,300.99064L489.04676,300.75061
				L487.60698,300.51059L485.20734,299.31046L481.84784,298.59039L480.16809,298.35037L478.24838,298.59039L476.8086,298.59039L
				474.16899,298.83042L473.4491,299.31046L473.20913,299.31046L472.72921,299.55049L469.36971,300.51059L467.45,301.23066L465.29032,301.71071
				L461.93082,301.95073L460.97097,301.47068L460.49104,301.23066L459.29122,300.03054L458.57133,297.87032L458.81129,295.95012
				L459.29122,294.50998L461.21093,290.90961L461.93082,288.74939L462.17079,288.02932L462.17079,286.58917L461.93082,285.8691L
				461.69086,285.38905L460.25108,284.42895L454.25197,281.54866L450.89248,278.18831L449.69266,277.70827L448.49284,276.74817L
				446.57312,276.02809L444.89338,275.30802L442.97366,273.86787L441.77384,273.38783L438.65431,272.42773L436.7346,272.1877L433.61506,272.66775
				L432.65521,272.66775L429.77564,271.94768L428.57582,271.22761L427.85593,270.74756L426.89607,269.54744L426.41614,269.06739
				L427.13603,268.10729L427.61596,267.62724L428.57582,267.62724L428.81578,267.14719L429.29571,265.94707L430.7355,264.02687L
				431.21542,262.10668L431.93532,261.62663L434.81488,260.66653L438.41435,260.90656L439.61417,260.18648L441.77384,261.3866L442.25377,261.3866
				L442.7337,260.90656L443.21363,259.70643L442.7337,258.74634L442.97366,258.02626L444.17348,256.58612L445.3733,255.86604L446.33316,255.86604
				L448.01291,256.10607L450.17258,255.86604L450.89248,255.38599L451.61237,253.70582L452.33226,253.22577L454.7319,252.5057L455.93172,251.78563
				L457.37151,250.58551L458.57133,248.66531L459.29122,247.70521L459.53118,246.26507L460.25108,244.34487L461.69086,243.14475
				L464.57043,242.18465L465.77025,241.46458L466.97007,239.78441L468.64982,235.46397L469.60967,234.02382L470.56953,233.30375
				L473.4491,231.8636L474.40896,230.9035L475.12885,229.9434L475.60878,228.26323L477.04856,226.34304L477.52849,225.86299L478.00842,225.62296
				L478.24838,225.38294L479.20824,224.66287L480.16809,223.70277L484.48745,220.82248L485.92723,219.62235L485.92723,218.66226
				L486.64712,217.94218L491.68637,215.78196L493.36612,214.82187L494.32597,214.10179L495.52579,212.66165L496.00572,211.70155
				L496.24569,210.74145L496.00572,208.34121L496.00572,206.66103L498.64533,201.86055L498.88529,200.4204L498.88529,198.5002L499.36522,196.82003
				L499.60518,194.65981L500.08511,193.21967L500.56504,191.77952L501.76486,190.5794L502.72471,189.13925L502.72471,187.45908L
				504.88439,184.57879L505.36432,183.61869L505.84425,181.21845L506.32418,180.25835L507.28403,178.57818L507.04407,176.65798L
				508.00392,176.41796L508.96378,175.69788L511.84335,172.33754L513.5231,170.89739L514.96288,170.65737L514.96288,170.41735L515.20285,170.17732
				L514.48295,167.77708L514.24299,167.53705L513.28313,167.29703L511.84335,166.09691L511.36342,165.61686L509.44371,162.01649
				L509.20374,160.33632L509.44371,159.61625L509.68367,158.1761L510.88349,152.89556L511.60339,151.45542L512.08331,149.53522L
				512.08331,147.375L515.92274,143.29459L516.88259,141.37439L516.64263,140.17427L515.92274,139.45419L516.40267,137.05395L516.64263,134.17366
				L517.12256,132.97353L517.36252,132.49349L517.60249,132.49349L519.5222,132.49349L520.72202,132.25346L523.12166,130.81331L
				523.84155,130.33327L524.80141,129.85322L525.5213,129.13314L526.96109,127.693L528.40087,126.49288L529.12076,126.01283L529.36073,126.01283
				L531.5204,125.29275L532.00033,124.8127L532.24029,124.57268L533.44011,123.61258L536.79961,119.05212L537.99943,117.852L538.71932,117.13192
				L539.19925,116.41185L540.39907,115.21173L541.35893,114.25163L543.03868,112.57146L544.2385,111.85138L545.67828,111.61136L
				546.8781,111.13131L547.35803,110.65126L547.59799,110.65126L548.07792,110.89129L549.03778,111.37134L549.75767,112.09141L550.47756,112.33143
				L551.91735,113.29153L552.63724,113.53156L553.11717,114.0116L553.5971,114.0116L554.07702,114.49165L554.79692,114.73168L556.71663,115.69178
				L556.95659,116.17182L558.15641,116.65187L558.87631,117.37195L559.5962,117.852z"/>
			<path clip-path="url(#SVG_CP_1)" fill="#73B273" fill-rule="evenodd" stroke="#000000" stroke-width="0.95986" stroke-miterlimit="10" stroke-linecap="round" stroke-linejoin="round" d="
				M458.57133,248.66531L457.37151,250.58551L455.93172,251.78563L454.7319,252.5057L452.33226,253.22577L451.61237,253.70582L450.89248,255.38599
				L450.17258,255.86604L448.01291,256.10607L446.33316,255.86604L445.3733,255.86604L444.17348,256.58612L442.97366,258.02626L
				442.7337,258.74634L443.21363,259.70643L442.7337,260.90656L442.25377,261.3866L441.77384,261.3866L439.61417,260.18648L438.41435,260.90656
				L434.81488,260.66653L431.93532,261.62663L431.21542,262.10668L430.7355,264.02687L429.29571,265.94707L428.81578,267.14719L
				428.57582,267.62724L427.61596,267.62724L427.13603,268.10729L426.41614,269.06739L426.17618,268.58734L425.69625,267.38722L
				425.21632,264.74695L424.73639,263.54682L425.21632,259.46641L424.97636,258.26629L424.97636,255.86604L425.45629,255.38599L
				425.69625,254.90594L425.93621,254.66592L427.376,252.02565L427.376,250.58551L427.376,249.14536L427.13603,248.18526L426.41614,247.22516
				L425.21632,246.50509L424.25647,246.26507L423.05665,245.06494L420.17708,243.86482L418.97726,243.14475L418.97726,242.90472
				L418.97726,242.6647L418.97726,242.42467L419.69715,241.22455L421.13693,239.30436L421.3769,238.34426L421.61686,237.38416L421.13693,236.42406
				L420.17708,235.94402L419.21722,235.70399L418.49733,235.46397L417.53747,235.70399L415.13783,235.22394L412.49823,235.22394
				L411.53837,234.98392L410.81848,234.50387L409.61866,234.26384L406.97905,233.54377L405.77923,233.06372L404.57941,232.10362
				L402.6597,230.42345L402.17977,228.98331L401.69984,227.06311L400.0201,223.94279L399.54017,223.46274L399.06024,222.9827L399.06024,222.50265
				L399.54017,221.30252L397.62045,216.74206L397.14053,216.26201L396.6606,215.54194L393.06114,213.86177L393.3011,213.62174L393.54107,211.94157
				L394.02099,210.50143L394.50092,210.74145L396.18067,210.02138L398.82028,208.10118L399.78013,206.66103L400.50002,204.02077
				L402.41974,202.34059L403.37959,200.18037L404.33945,198.74023L405.53927,196.58001L406.49913,194.89984L406.97905,194.17976
				L407.45898,191.29947L407.93891,188.6592L404.33945,188.17915L402.41974,184.81881L402.17977,184.09874L401.93981,181.93852L
				401.21992,180.01832L400.0201,178.33815L399.54017,176.89801L399.06024,175.93791L398.82028,174.97781L399.06024,174.01771L402.41974,175.69788
				L404.57941,176.65798L405.53927,177.13803L406.73909,177.37805L409.61866,177.61808L410.09859,177.61808L411.53837,178.8182L
				411.77833,179.7783L412.25826,181.21845L412.97815,181.69849L413.21812,181.45847L413.93801,179.53827L414.17798,177.37805L414.6579,176.17793
				L416.57762,173.05761L417.05754,172.09752L418.97726,170.41735L419.93711,170.17732L420.17708,170.41735L420.89697,170.41735
				L421.13693,170.41735L423.05665,168.9772L424.0165,166.57695L424.73639,166.09691L426.17618,166.33693L426.65611,166.81698L427.61596,166.81698
				L429.29571,166.33693L430.49553,165.37683L430.97546,165.13681L431.69535,164.89678L433.85503,165.13681L435.29481,164.89678
				L438.65431,161.77647L442.01381,161.29642L444.41345,160.0963L447.77294,159.37622L448.49284,158.89617L449.21273,158.1761L452.0923,157.216
				L454.25197,157.69605L455.21183,157.45603L456.17169,156.97598L457.61147,156.01588L459.53118,155.05578L461.93082,154.57573
				L462.41075,154.81576L463.37061,155.05578L465.53028,156.49593L467.21003,156.97598L467.68996,156.97598L472.72921,155.53583
				L476.32867,155.05578L478.00842,154.09568L479.20824,154.09568L479.68816,154.09568L480.40806,154.57573L481.60788,154.57573
				L484.72741,154.57573L485.4473,154.57573L486.40716,154.09568L488.56683,153.85566L490.24658,153.61564L490.72651,153.13559L
				490.96648,153.61564L490.72651,154.57573L489.76666,156.97598L490.00662,160.57634L490.00662,161.05639L489.52669,162.01649L
				487.60698,164.41673L487.60698,164.65676L486.64712,166.09691L486.40716,167.29703L486.16719,168.9772L485.92723,169.9373L483.28763,172.09752
				L482.8077,173.05761L482.08781,175.69788L481.84784,175.69788L481.12795,176.17793L480.16809,176.89801L479.4482,177.61808L477.76845,179.05823
				L476.56863,180.01832L472.96917,181.21845L470.80949,182.41857L469.60967,183.85871L468.16989,185.53888L467.21003,186.25896
				L467.45,186.73901L468.16989,187.21906L469.12975,187.45908L471.76935,187.45908L472.96917,187.93913L473.4491,188.41918L473.4491,194.41979
				L472.96917,195.61991L472.48924,195.85994L469.60967,196.33998L467.92993,196.58001L467.45,195.85994L466.97007,195.13986L466.49014,194.65981
				L465.53028,194.65981L464.81039,194.89984L464.0905,195.13986L463.61057,195.61991L463.37061,196.58001L463.13064,197.78013L
				462.17079,199.22028L461.4509,201.14047L460.49104,202.34059L459.77115,202.82064L458.0914,203.54072L457.37151,204.02077L456.17169,204.02077
				L455.21183,204.50081L454.25197,204.98086L453.29212,204.98086L452.33226,206.90106L450.65251,212.1816L449.69266,213.86177L
				448.97276,216.26201L448.25287,217.22211L448.01291,217.70216L448.25287,218.42223L448.97276,219.1423L450.65251,220.34243L451.13244,221.30252
				L450.89248,222.0226L449.69266,224.42284L449.21273,224.66287L449.45269,224.90289L450.65251,228.02321L450.89248,229.22333L
				451.61237,230.42345L451.85233,231.62358L451.85233,233.7838L452.57223,235.46397L452.57223,236.42406L452.33226,237.86421L452.33226,239.06433
				L453.05215,240.7445L453.53208,243.14475L454.25197,243.86482L454.97187,245.06494L454.97187,246.02504L454.49194,247.22516L
				454.49194,247.94524L454.7319,248.18526L455.45179,247.94524L456.17169,247.46519L457.13154,247.46519L457.85143,247.94524L458.57133,248.66531
				z"/>
			<path clip-path="url(#SVG_CP_1)" fill="#73B273" fill-rule="evenodd" stroke="#000000" stroke-width="0.95986" stroke-miterlimit="10" stroke-linecap="round" stroke-linejoin="round" d="
				M393.06114,213.86177L396.6606,215.54194L397.14053,216.26201L397.62045,216.74206L399.54017,221.30252L399.06024,222.50265L
				399.06024,222.9827L399.54017,223.46274L400.0201,223.94279L401.69984,227.06311L402.17977,228.98331L402.6597,230.42345L404.57941,232.10362
				L405.77923,233.06372L406.97905,233.54377L409.61866,234.26384L410.81848,234.50387L411.53837,234.98392L412.49823,235.22394
				L415.13783,235.22394L417.53747,235.70399L418.49733,235.46397L419.21722,235.70399L420.17708,235.94402L421.13693,236.42406
				L421.61686,237.38416L421.3769,238.34426L421.13693,239.30436L419.69715,241.22455L418.97726,242.42467L418.97726,242.6647L418.97726,242.90472
				L418.97726,243.14475L420.17708,243.86482L423.05665,245.06494L424.25647,246.26507L425.21632,246.50509L426.41614,247.22516
				L427.13603,248.18526L427.376,249.14536L427.376,250.58551L427.376,252.02565L425.93621,254.66592L425.69625,254.90594L425.93621,252.74573
				L426.17618,251.5456L425.93621,250.58551L425.45629,249.86543L423.77654,249.38538L420.89697,248.42529L419.69715,248.66531L
				418.97726,248.90533L418.73729,249.14536L416.33765,251.78563L414.89787,252.74573L413.21812,252.74573L411.05844,252.02565L
				410.09859,251.5456L409.37869,251.5456L408.6588,251.5456L408.17887,252.02565L407.21902,252.74573L406.73909,253.4658L406.49913,254.18587
				L406.49913,255.62602L406.25916,256.58612L405.77923,257.30619L404.57941,258.02626L403.61956,260.18648L402.17977,262.58673
				L401.45988,263.54682L400.97995,264.02687L400.0201,264.02687L399.78013,264.2669L398.58031,265.46702L398.34035,266.66714L398.58031,267.62724
				L399.54017,268.58734L399.78013,269.06739L399.54017,269.78746L399.3002,270.02748L396.18067,271.22761L392.82117,275.068L390.42153,276.74817
				L386.58211,279.62846L382.74268,284.42895L380.82297,285.8691L378.90326,283.70888L375.78372,282.02871L373.62405,279.62846L
				371.70434,276.98819L370.02459,273.86787L366.90505,267.14719L366.18516,265.227L364.98534,263.06678L364.50541,262.10668L363.78552,259.70643
				L363.54556,258.98636L363.06563,258.50631L360.90595,257.30619L360.42602,256.10607L360.18606,253.22577L359.70613,252.5057L
				359.2262,252.5057L358.74628,252.74573L357.78642,253.70582L357.06653,254.90594L356.82656,254.90594L355.14682,252.5057L354.18696,251.5456
				L352.26725,250.10546L351.54735,249.62541L348.42782,250.10546L347.228,249.86543L345.54825,250.10546L341.70883,250.82553L339.54915,252.02565
				L339.30919,251.78563L339.30919,250.82553L339.78912,250.10546L340.02908,249.62541L340.74897,249.38538L344.10847,248.90533
				L344.5884,248.18526L346.02818,245.30497L346.26814,245.06494L346.98804,244.82492L347.46797,244.82492L347.94789,245.06494L
				348.18786,247.22516L348.90775,247.94524L349.14771,247.94524L349.38768,247.70521L349.86761,247.22516L350.10757,245.78502L
				350.5875,245.54499L352.50721,247.22516L352.74717,247.46519L353.46707,247.46519L354.42692,246.74511L355.38678,245.30497L357.54646,243.14475
				L357.78642,242.18465L357.30649,241.46458L356.5866,241.22455L354.66689,241.46458L352.74717,241.46458L351.30739,240.7445L348.42782,237.86421
				L347.70793,236.90411L346.98804,235.22394L346.02818,234.02382L345.06832,233.54377L343.8685,233.54377L342.66868,233.54377L
				341.46886,234.26384L340.02908,234.26384L338.10937,231.38355L338.58929,231.14353L340.50901,230.42345L341.46886,230.42345L
				344.10847,230.42345L346.50811,229.9434L348.18786,228.98331L351.06743,227.78318L352.02728,227.06311L353.46707,225.86299L354.66689,224.66287
				L357.30649,222.50265L357.54646,222.50265L358.26635,221.54255L358.26635,221.30252L359.9461,217.70216L360.90595,215.30191L
				361.14592,213.86177L360.18606,210.98147L359.46617,209.06128L358.74628,206.90106L358.02638,205.46091L357.78642,203.54072L
				357.54646,201.14047L357.78642,200.18037L358.26635,199.4603L359.46617,197.78013L360.18606,197.30008L361.86581,197.06006L363.78552,197.78013
				L365.22531,198.74023L366.18516,199.70033L367.62495,200.90045L369.06473,202.10057L369.78462,203.06067L370.50452,204.50081
				L370.74448,205.22089L370.74448,206.42101L370.50452,207.14108L369.78462,209.54133L369.54466,210.74145L370.26455,211.70155
				L371.22441,212.1816L374.34394,213.14169L380.10308,214.10179L384.6624,214.10179L385.86222,214.34182L388.98175,213.38172L389.46168,213.38172
				L390.90146,213.38172L393.06114,213.86177z"/>
			<path clip-path="url(#SVG_CP_1)" fill="#73B273" fill-rule="evenodd" stroke="#000000" stroke-width="0.95986" stroke-miterlimit="10" stroke-linecap="round" stroke-linejoin="round" d="
				M394.02099,210.50143L393.54107,211.94157L393.3011,213.62174L393.06114,213.86177L390.90146,213.38172L389.46168,213.38172L
				388.98175,213.38172L385.86222,214.34182L384.6624,214.10179L380.10308,214.10179L374.34394,213.14169L371.22441,212.1816L370.26455,211.70155
				L369.54466,210.74145L369.78462,209.54133L370.50452,207.14108L370.74448,206.42101L370.74448,205.22089L370.50452,204.50081
				L369.78462,203.06067L369.06473,202.10057L367.62495,200.90045L366.18516,199.70033L365.22531,198.74023L363.78552,197.78013
				L361.86581,197.06006L360.18606,197.30008L359.46617,197.78013L358.26635,199.4603L357.78642,200.18037L357.54646,201.14047L
				357.78642,203.54072L358.02638,205.46091L358.74628,206.90106L359.46617,209.06128L360.18606,210.98147L361.14592,213.86177L
				360.90595,215.30191L359.9461,217.70216L358.26635,221.30252L358.26635,221.54255L357.54646,222.50265L357.30649,222.50265L354.66689,224.66287
				L353.46707,225.86299L352.02728,227.06311L351.06743,227.78318L348.18786,228.98331L346.50811,229.9434L344.10847,230.42345L
				341.46886,230.42345L340.50901,230.42345L338.58929,231.14353L338.10937,231.38355L337.14951,231.14353L334.50991,230.66348L
				330.43052,230.9035L328.27084,231.38355L327.55095,231.62358L326.59109,232.58367L324.19145,233.7838L323.47156,234.50387L322.27174,235.70399
				L321.07192,237.38416L319.63213,239.30436L318.43231,242.42467L316.99253,245.06494L316.03267,246.02504L313.873,247.70521L312.91314,248.66531
				L311.47336,252.26568L310.75346,253.22577L309.31368,253.70582L307.154,253.22577L306.43411,252.98575L305.71422,252.74573L304.75436,250.82553
				L304.5144,249.14536L304.75436,246.98514L306.67407,242.6647L306.91404,241.46458L306.67407,240.50448L305.95418,236.66409L304.99433,234.02382
				L303.31458,230.66348L302.59469,227.78318L301.87479,225.14292L301.87479,222.74267L303.07461,221.0625L303.07461,220.82248L
				303.79451,220.1024L303.55454,218.42223L302.35472,216.74206L301.39486,215.54194L300.19504,214.58184L298.27533,213.86177L296.11566,213.86177
				L290.83645,215.30191L287.23699,214.82187L286.03716,214.34182L284.83734,213.86177L281.47785,211.46152L278.59828,209.3013L
				277.63842,208.10118L276.91853,207.14108L276.4386,205.22089L276.91853,204.74084L278.35831,204.26079L280.27803,203.06067L281.23788,202.10057
				L281.71781,201.3805L283.63752,199.22028L286.03716,195.61991L287.23699,192.01954L287.95688,191.05945L288.91673,190.81942L
				289.63663,190.81942L292.03627,190.5794L293.71601,190.09935L294.67587,189.37928L295.63573,188.6592L297.31548,186.73901L298.27533,185.77891
				L299.23519,185.29886L300.43501,185.29886L301.39486,186.01893L302.59469,186.25896L303.55454,186.01893L305.71422,186.01893
				L308.35382,186.49898L308.59379,186.73901L310.75346,187.6991L313.873,188.17915L315.55274,188.89923L318.19235,188.17915L319.39217,187.45908
				L321.79181,186.49898L323.23159,185.77891L323.71152,185.05884L324.19145,183.37866L324.67138,182.89862L324.91134,182.65859
				L325.39127,181.69849L325.8712,180.97842L326.83106,180.25835L328.03088,180.01832L329.71062,179.7783L330.91044,179.29825L331.8703,178.57818
				L332.35023,177.37805L332.83016,176.89801L335.2298,177.37805L336.90955,177.61808L338.34933,177.13803L338.82926,176.41796L
				340.26904,176.65798L340.50901,176.17793L340.50901,175.93791L339.54915,174.49776L337.14951,169.21722L336.42962,168.25713L
				334.50991,167.057L334.26994,166.33693L334.26994,165.85688L334.74987,164.65676L335.94969,163.21661L338.34933,161.77647L340.02908,161.53644
				L339.06922,158.89617L337.8694,158.1761L337.8694,157.93608L338.10937,157.69605L339.30919,156.97598L340.26904,156.49593L340.98894,155.05578
				L341.70883,154.81576L343.8685,155.29581L344.10847,155.29581L345.78822,154.81576L346.50811,155.05578L346.98804,155.53583L
				347.94789,156.97598L348.66779,157.216L349.38768,157.216L350.5875,156.01588L350.82746,156.01588L351.30739,156.01588L351.78732,156.49593
				L352.74717,158.41612L353.70703,159.1362L355.14682,159.1362L355.62674,159.1362L355.86671,158.65615L356.82656,157.216L357.30649,153.61564
				L357.78642,151.21539L358.02638,150.25529L357.54646,148.81515L357.06653,147.85505L356.82656,146.17488L356.82656,144.73473
				L357.54646,143.29459L358.26635,141.61441L358.02638,140.89434L357.30649,138.73412L355.86671,136.81393L355.62674,135.85383
				L356.82656,135.13375L357.06653,134.41368L357.30649,133.93363L357.78642,133.93363L359.9461,132.73351L360.42602,132.25346L
				360.90595,131.77341L361.86581,131.29336L362.82567,130.09324L363.78552,129.13314L364.98534,127.45297L366.42513,124.8127L366.90505,123.37256
				L372.42423,116.8919L375.06383,115.9318L379.86311,115.9318L380.82297,116.17182L381.54286,116.65187L382.02279,117.13192L381.54286,118.57207
				L381.78283,119.77219L382.26275,120.49226L383.70254,121.21234L385.14232,123.37256L386.34214,124.33266L387.78193,124.57268
				L388.98175,125.05273L389.70164,125.7728L391.14142,128.89312L391.38139,129.85322L392.10128,132.01344L392.10128,132.73351L
				392.82117,135.85383L392.34125,137.29397L392.34125,138.97415L391.86132,140.89434L392.34125,144.01466L392.10128,144.25468L
				392.10128,145.69483L392.58121,147.61502L391.62135,151.45542L391.14142,151.21539L389.22171,152.17549L387.302,154.09568L386.58211,154.81576
				L386.10218,155.53583L385.62225,156.49593L385.38229,159.1362L383.22261,163.21661L382.74268,164.65676L381.54286,164.89678L
				380.34304,164.89678L380.10308,164.89678L378.18337,166.33693L376.50362,167.53705L375.78372,168.73717L375.06383,170.41735L
				373.14412,172.57757L371.9443,174.49776L370.02459,176.41796L367.86491,179.53827L366.18516,181.21845L365.46527,182.41857L364.74538,184.57879
				L363.54556,186.01893L363.54556,186.49898L364.50541,188.41918L364.98534,188.89923L365.70523,189.37928L367.62495,189.6193L
				368.5848,189.37928L370.50452,190.33937L371.46437,191.05945L373.38408,193.93974L375.78372,196.82003L377.70344,198.26018L378.90326,198.74023
				L381.78283,198.98025L384.6624,199.4603L386.58211,199.4603L387.78193,199.70033L390.90146,199.4603L393.54107,200.4204L393.54107,201.86055
				L393.3011,204.74084L392.10128,208.58123L392.58121,209.3013L393.3011,210.02138L394.02099,210.50143z"/>
			<path clip-path="url(#SVG_CP_1)" fill="#73B273" fill-rule="evenodd" stroke="#000000" stroke-width="0.95986" stroke-miterlimit="10" stroke-linecap="round" stroke-linejoin="round" d="
				M476.0887,2.88029L477.28852,3.12032L479.4482,3.12032L480.88798,3.12032L483.76755,4.32044L487.12705,6.24064L487.84694,6.72068
				L489.76666,6.72068L491.20644,6.48066L493.12615,6.48066L496.24569,6.00061L498.1654,6.24064L501.76486,5.52056L503.68457,4.32044
				L505.12436,2.88029L505.84425,2.64027L506.32418,2.64027L506.8041,2.88029L507.28403,3.36034L508.24389,5.52056L508.48385,6.24064
				L508.96378,6.48066L509.92364,6.96071L510.88349,7.92081L513.5231,10.32105L516.88259,12.96132L518.08241,13.44137L519.76216,14.40147
				L520.72202,14.64149L520.96198,14.64149L521.68188,15.12154L522.64173,16.32166L524.32148,17.04174L525.76126,17.52178L526.48116,17.52178
				L527.68098,17.76181L528.40087,17.76181L528.8808,18.00183L529.84065,18.48188L530.56055,18.96193L530.80051,19.20195L531.04047,19.44198
				L531.28044,21.12215L531.28044,22.80232L531.28044,23.28237L531.04047,24.00244L531.04047,24.72252L530.80051,25.68261L529.84065,27.12276
				L529.36073,28.32288L528.8808,30.72313L527.92094,33.60342L527.44101,37.44381L527.44101,41.2842L526.96109,42.96437L526.96109,43.44442
				L526.72112,44.40452L526.72112,44.88457L526.72112,48.72496L526.96109,50.64516L526.96109,51.60525L526.72112,51.84528L526.72112,52.56535
				L526.24119,53.52545L525.5213,55.68567L525.04137,56.88579L524.32148,58.08591L523.60159,59.52606L523.36162,59.76608L523.12166,60.72618
				L522.8817,61.9263L522.8817,63.60647L522.8817,64.32655L523.60159,66.24674L523.84155,66.48677L524.80141,66.00672L525.28134,65.76669
				L525.76126,65.28665L527.20105,64.56657L529.60069,63.8465L532.00033,63.36645L533.20015,63.36645L534.63994,62.8864L535.59979,62.64638
				L536.31968,62.64638L537.03958,62.64638L537.75947,62.64638L538.2394,63.12643L538.71932,64.32655L538.47936,65.28665L537.99943,66.96682
				L537.75947,68.16694L537.99943,69.36706L538.2394,69.84711L538.47936,70.08713L538.71932,70.08713L539.43922,69.60709L540.879,68.40696
				L541.83886,67.44687L542.55875,66.72679L543.27864,66.24674L544.2385,66.00672L545.19835,66.00672L545.91825,66.00672L548.55785,66.00672
				L549.27774,66.24674L549.99764,66.48677L550.47756,66.48677L550.95749,66.96682L551.91735,68.64699L551.91735,69.60709L552.39728,71.04723
				L552.63724,71.76731L552.63724,72.24735L552.63724,72.96743L553.35713,75.12765L553.5971,76.56779L553.5971,77.28787L553.5971,77.76792
				L553.35713,78.00794L553.11717,79.68811L552.8772,83.28848L552.63724,84.24858L551.67738,84.72862L551.43742,85.20867L550.95749,86.64882
				L550.71753,87.60892L550.71753,88.80904L550.47756,92.64943L550.47756,93.3695L550.47756,93.84955L550.47756,94.80965L549.99764,96.96987
				L549.75767,98.89007L549.51771,99.85016L549.27774,101.05029L549.03778,103.45053L548.31789,107.77097L548.07792,109.93119L547.59799,110.65126
				L547.35803,110.65126L546.8781,111.13131L545.67828,111.61136L544.2385,111.85138L543.03868,112.57146L541.35893,114.25163L540.39907,115.21173
				L539.19925,116.41185L538.71932,117.13192L537.99943,117.852L536.79961,119.05212L533.44011,123.61258L532.24029,124.57268L532.00033,124.8127
				L531.5204,125.29275L529.36073,126.01283L529.12076,126.01283L528.40087,126.49288L526.96109,127.693L525.5213,129.13314L524.80141,129.85322
				L523.84155,130.33327L523.12166,130.81331L520.72202,132.25346L519.5222,132.49349L517.60249,132.49349L517.36252,132.49349L
				517.12256,132.97353L516.64263,134.17366L516.40267,137.05395L515.92274,139.45419L515.68277,139.93424L515.44281,140.65432L
				514.96288,141.13437L513.76306,141.13437L512.56324,141.61441L510.40356,142.57451L507.28403,143.53461L504.88439,144.49471L
				501.04497,146.89495L499.36522,148.3351L498.64533,148.81515L496.72561,149.2952L496.24569,150.01527L494.32597,150.73534L493.12615,151.93546
				L492.1663,152.17549L490.72651,153.13559L490.24658,153.61564L488.56683,153.85566L486.40716,154.09568L485.4473,154.57573L484.72741,154.57573
				L481.60788,154.57573L480.40806,154.57573L479.68816,154.09568L479.20824,154.09568L478.00842,154.09568L476.32867,155.05578
				L472.72921,155.53583L467.68996,156.97598L467.21003,156.97598L465.53028,156.49593L463.37061,155.05578L462.41075,154.81576
				L461.93082,154.57573L459.53118,155.05578L457.61147,156.01588L456.17169,156.97598L455.21183,157.45603L454.25197,157.69605
				L452.0923,157.216L449.21273,158.1761L448.49284,158.89617L447.77294,159.37622L444.41345,160.0963L442.01381,161.29642L438.65431,161.77647
				L435.29481,164.89678L433.85503,165.13681L431.69535,164.89678L430.97546,165.13681L430.49553,165.37683L429.29571,166.33693
				L427.61596,166.81698L426.65611,166.81698L426.17618,166.33693L424.73639,166.09691L424.0165,166.57695L423.05665,168.9772L421.13693,170.41735
				L420.89697,170.41735L420.17708,170.41735L419.93711,170.17732L418.97726,170.41735L417.05754,172.09752L416.57762,173.05761
				L414.6579,176.17793L414.17798,177.37805L413.93801,179.53827L413.21812,181.45847L412.97815,181.69849L412.25826,181.21845L
				411.77833,179.7783L411.53837,178.8182L412.97815,175.69788L413.21812,174.97781L412.49823,174.49776L411.77833,174.25774L410.33855,174.49776
				L409.61866,174.25774L408.41884,173.05761L407.93891,171.13742L407.93891,170.41735L408.17887,169.9373L408.41884,169.9373L410.81848,169.21722
				L411.29841,168.73717L411.29841,167.77708L410.81848,167.057L410.57851,166.09691L410.81848,165.61686L412.0183,164.41673L412.25826,163.69666
				L412.49823,162.49654L412.73819,161.53644L413.69805,160.0963L413.93801,159.37622L413.45808,157.93608L411.05844,157.216L410.33855,156.49593
				L410.09859,155.77586L410.09859,155.29581L412.0183,151.45542L412.49823,149.77524L412.97815,147.85505L412.0183,146.17488L410.57851,145.69483
				L409.85862,144.97476L409.13873,143.53461L408.89877,142.57451L409.13873,141.85444L410.33855,139.93424L411.77833,138.25407
				L413.21812,135.13375L416.57762,131.29336L417.05754,129.85322L419.21722,126.97292L419.69715,124.57268L420.89697,123.13253
				L422.09679,122.41246L423.05665,121.69239L424.73639,120.97231L427.376,119.29214L429.05575,118.57207L430.7355,118.33204L431.69535,117.61197
				L433.61506,115.21173L433.61506,114.9717L434.81488,113.53156L438.89427,110.65126L439.3742,109.69116L440.81399,108.25102L443.45359,106.57085
				L442.97366,103.45053L442.97366,102.49043L443.21363,101.29031L443.93352,99.61014L445.85323,97.68994L448.97276,93.60953L450.89248,90.00916
				L451.85233,88.32899L452.33226,87.60892L453.53208,84.96865L453.77205,84.96865L454.49194,84.4886L456.41165,84.00855L457.85143,84.24858
				L459.77115,84.00855L461.4509,84.4886L463.37061,84.4886L464.0905,84.4886L464.81039,84.4886L467.92993,83.04845L469.60967,80.88823
				L470.0896,80.64821L471.76935,80.64821L474.16899,81.84833L474.88888,82.32838L476.0887,83.04845L476.8086,83.28848L478.00842,83.04845
				L480.16809,83.76853L480.88798,84.72862L482.08781,85.92875L482.08781,86.16877L484.00752,83.5285L484.72741,82.08836L485.20734,79.92814
				L485.20734,78.48799L484.96737,77.04784L484.72741,76.08774L486.40716,73.44748L486.88709,72.48738L486.88709,71.04723L487.36701,69.84711
				L487.60698,67.68689L488.32687,66.72679L488.8068,66.00672L490.24658,65.28665L490.96648,65.28665L494.32597,64.08652L495.52579,62.8864
				L496.00572,61.44625L496.00572,60.24613L496.00572,59.04601L495.52579,57.84589L494.8059,57.36584L493.84604,57.12581L491.4464,57.84589
				L489.76666,57.36584L488.8068,57.12581L488.08691,56.40574L487.60698,55.20562L486.40716,50.64516L484.00752,47.04479L482.08781,44.40452
				L481.60788,44.1645L480.88798,42.96437L480.40806,42.00428L479.92813,41.2842L479.4482,40.80415L479.20824,40.3241L479.20824,39.36401
				L479.68816,37.68384L479.92813,34.80354L479.68816,33.60342L479.68816,31.20318L479.68816,29.52301L479.20824,28.56291L477.28852,26.40269
				L476.32867,25.92264L474.64892,25.44259L472.00931,23.28237L471.76935,23.04235L472.00931,21.36217L471.76935,20.40208L471.04946,19.20195
				L470.32957,18.72191L469.60967,18.24186L468.64982,18.24186L466.01021,17.04174L464.81039,16.80171L464.57043,16.32166L464.81039,15.84161
				L465.53028,13.68139L466.01021,11.7612L466.25018,8.8809L466.49014,7.92081L466.25018,6.72068L466.01021,6.48066L467.21003,5.04051
				L468.64982,3.84039L471.28942,2.16022L472.24928,2.16022L473.4491,1.9202L476.0887,2.88029z"/>
		</g>
		<g id="Labels">
			<g id="NEPAL_WARDS_-_Default">
				<g font-family="'Arial'" font-size="1" kerning="0" font-weight="400" fill="#000000" clip-path="url(#SVG_CP_1)" >
					<text text-anchor="start" transform="matrix(11.9982 0 0 12.00122 561.87586 287.16626)" >
						<tspan direction="ltr" unicode-bidi="embed" x="0 ">8</tspan>
					</text>
				</g>
				<g font-family="'Arial'" font-size="1" kerning="0" font-weight="400" fill="#000000" clip-path="url(#SVG_CP_1)" >
					<text text-anchor="start" transform="matrix(11.9982 0 0 12.00122 521.08197 222.35966)" >
						<tspan direction="ltr" unicode-bidi="embed" x="0 ">7</tspan>
					</text>
				</g>
				<g font-family="'Arial'" font-size="1" kerning="0" font-weight="400" fill="#000000" clip-path="url(#SVG_CP_1)" >
					<text text-anchor="start" transform="matrix(11.9982 0 0 12.00122 487.487 115.54879)" >
						<tspan direction="ltr" unicode-bidi="embed" x="0 ">9</tspan>
					</text>
				</g>
				<g font-family="'Arial'" font-size="1" kerning="0" font-weight="400" fill="#000000" clip-path="url(#SVG_CP_1)" >
					<text text-anchor="start" transform="matrix(11.9982 0 0 12.00122 276.31862 154.19273)" >
						<tspan direction="ltr" unicode-bidi="embed" x="0 ">1</tspan>
					</text>
				</g>
				<g font-family="'Arial'" font-size="1" kerning="0" font-weight="400" fill="#000000" clip-path="url(#SVG_CP_1)" >
					<text text-anchor="start" transform="matrix(11.9982 0 0 12.00122 337.26949 196.91707)" >
						<tspan direction="ltr" unicode-bidi="embed" x="0 ">3</tspan>
					</text>
				</g>
				<g font-family="'Arial'" font-size="1" kerning="0" font-weight="400" fill="#000000" clip-path="url(#SVG_CP_1)" >
					<text text-anchor="start" transform="matrix(11.9982 0 0 12.00122 425.81623 205.79798)" >
						<tspan direction="ltr" unicode-bidi="embed" x="0 ">5</tspan>
					</text>
				</g>
				<g font-family="'Arial'" font-size="1" kerning="0" font-weight="400" fill="#000000" clip-path="url(#SVG_CP_1)" >
					<text text-anchor="start" transform="matrix(11.9982 0 0 12.00122 398.46033 136.91097)" >
						<tspan direction="ltr" unicode-bidi="embed" x="0 ">2</tspan>
					</text>
				</g>
				<g font-family="'Arial'" font-size="1" kerning="0" font-weight="400" fill="#000000" clip-path="url(#SVG_CP_1)" >
					<text text-anchor="start" transform="matrix(11.9982 0 0 12.00122 380.22306 254.04289)" >
						<tspan direction="ltr" unicode-bidi="embed" x="0 ">4</tspan>
					</text>
				</g>
				<g font-family="'Arial'" font-size="1" kerning="0" font-weight="400" fill="#000000" clip-path="url(#SVG_CP_1)" >
					<text text-anchor="start" transform="matrix(11.9982 0 0 12.00122 481.72786 203.39773)" >
						<tspan direction="ltr" unicode-bidi="embed" x="0 ">6</tspan>
					</text>
				</g>
			</g>
		</g>
	</g>
</svg>
