<?xml version="1.0" encoding="utf-8" standalone="no"?>
<!-- Creator: Esri ArcMap 10.6.1.9270 -->
<!DOCTYPE svg PUBLIC "-//W3C//DTD SVG 1.1//EN"  "http://www.w3.org/Graphics/SVG/1.1/DTD/svg11.dtd">
<svg width="813.74173pt" height="434.23937pt" viewBox="0 0 813.74173 434.23937" enable-background="new 0 0 813.74173 434.23937"
	version="1.1" xmlns="http://www.w3.org/2000/svg" xmlns:xlink="http://www.w3.org/1999/xlink" >
	<g id="Layers">
		<g id="NEPAL_WARDS">
			<clipPath id="SVG_CP_1">
				<path d="M0,434.23937L0,0L813.74173,0L813.74173,434.23937L0,434.23937z"/>
			</clipPath>
			<path clip-path="url(#SVG_CP_1)" fill="#73B273" fill-rule="evenodd" stroke="#000000" stroke-width="0.95986" stroke-miterlimit="10" stroke-linecap="round" stroke-linejoin="round" d="
				M397.38049,214.34182L398.82028,214.58184L400.73999,214.34182L403.85952,214.34182L406.97905,214.10179L411.05844,214.34182
				L416.09769,214.82187L419.93711,214.82187L420.657,214.82187L421.61686,214.82187L422.57672,215.06189L423.05665,215.06189L423.05665,214.82187
				L424.73639,215.30191L426.65611,215.30191L428.81578,215.54194L430.25557,215.54194L433.13514,215.78196L436.97456,216.26201
				L440.81399,217.22211L443.45359,217.94218L445.61327,218.42223L448.7328,219.38233L448.97276,219.38233L449.21273,219.62235L
				449.21273,220.34243L448.7328,221.30252L447.77294,222.26262L446.81309,223.94279L446.57312,225.14292L445.3733,230.9035L444.89338,232.58367
				L444.89338,233.7838L444.65341,234.74389L444.65341,235.22394L444.41345,236.18404L443.21363,239.78441L442.97366,240.26445L
				441.29391,242.42467L437.69445,247.94524L436.25467,249.62541L435.29481,249.38538L433.13514,248.42529L427.85593,247.46519L
				427.376,247.46519L426.89607,247.22516L426.89607,244.58489L426.89607,243.38477L426.65611,242.90472L424.25647,241.22455L423.77654,240.98453
				L421.13693,240.26445L420.657,240.02443L418.97726,239.30436L418.73729,239.30436L416.81758,239.06433L415.13783,238.58428L413.45808,238.58428
				L411.77833,238.34426L410.33855,237.86421L407.69895,237.86421L407.45898,237.86421L407.21902,237.86421L406.25916,238.10423
				L405.2993,238.34426L404.33945,238.10423L402.6597,237.86421L401.93981,237.14414L400.50002,235.22394L399.78013,234.98392L399.78013,234.74389
				L399.78013,234.50387L400.0201,233.7838L400.73999,230.66348L400.73999,229.9434L398.34035,229.22333L397.14053,228.98331L394.26096,228.02321
				L393.54107,228.02321L393.78103,227.78318L393.78103,226.82309L393.3011,225.14292L393.06114,222.50265L392.82117,217.94218L
				393.3011,216.50204L394.26096,215.30191L397.38049,214.34182L397.38049,214.34182z"/>
			<path clip-path="url(#SVG_CP_1)" fill="#73B273" fill-rule="evenodd" stroke="#000000" stroke-width="0.95986" stroke-miterlimit="10" stroke-linecap="round" stroke-linejoin="round" d="
				M442.97366,254.66592L457.85143,262.82675L470.32957,269.54744L483.76755,273.86787L484.24748,274.1079L484.72741,274.34792L
				485.92723,275.068L486.16719,275.54805L488.56683,276.26812L489.04676,276.74817L490.00662,278.66836L490.48655,278.90839L498.40536,282.02871
				L499.36522,283.46885L499.60518,283.70888L500.56504,284.18893L502.00482,284.909L503.68457,285.8691L504.40446,286.82919L506.32418,287.78929
				L514.24299,292.34976L521.44191,296.43017L521.92184,296.6702L522.1618,296.91022L523.60159,297.63029L567.51501,322.11279L567.03508,322.83286
				L566.31519,323.31291L562.95569,327.1533L561.03598,329.55354L559.5962,330.75366L557.67649,332.67386L554.79692,335.31413L551.67738,337.47435
				L549.03778,338.9145L547.83796,339.87459L546.8781,340.59467L546.8781,340.83469L546.15821,341.07472L541.35893,345.15513L540.879,346.11523
				L540.39907,347.31535L540.15911,348.03542L539.91914,348.51547L538.47936,348.27545L536.79961,347.55537L536.07972,347.55537
				L535.35983,347.55537L534.8799,348.03542L532.72022,350.19564L532.00033,350.67569L531.28044,350.91572L530.32058,350.91572L
				527.92094,350.43567L525.04137,349.71559L523.60159,349.95562L522.64173,349.95562L520.00213,350.91572L518.32238,351.39577L
				517.12256,351.39577L516.64263,350.91572L516.40267,350.67569L515.92274,349.71559L516.1627,347.55537L515.68277,346.8353L514.48295,346.35525
				L513.76306,346.35525L512.32328,346.35525L509.92364,347.07533L509.44371,347.31535L507.76396,348.51547L507.28403,348.7555L
				505.36432,350.19564L502.48475,351.39577L502.24479,351.63579L501.76486,353.07594L501.04497,355.71621L500.805,356.43628L500.08511,357.39638
				L498.40536,359.79662L497.92543,360.27667L496.00572,360.75672L494.08601,360.27667L491.92633,359.79662L490.00662,360.03665
				L488.8068,360.27667L487.84694,360.51669L487.60698,360.75672L485.92723,361.71682L485.4473,362.67691L484.72741,363.63701L483.04766,365.07716
				L482.32777,365.55721L481.60788,366.03726L481.12795,366.03726L480.16809,366.03726L479.92813,365.55721L479.92813,365.31718
				L480.16809,362.43689L480.40806,361.95684L480.40806,361.23677L480.40806,360.51669L480.16809,359.5566L480.16809,358.83652L
				480.40806,358.35647L480.40806,357.87643L480.40806,356.6763L480.64802,355.47618L481.60788,354.51608L482.08781,353.55599L482.32777,352.83591
				L482.32777,352.59589L482.56773,352.35586L483.76755,351.15574L484.00752,350.67569L482.56773,349.23555L481.12795,347.7954L
				480.40806,347.07533L479.92813,346.35525L479.92813,345.8752L480.16809,345.39516L480.16809,345.15513L480.16809,344.91511L480.16809,344.19503
				L479.68816,342.75489L479.4482,342.03481L479.4482,341.31474L479.92813,340.11462L480.16809,339.87459L480.16809,339.63457L479.92813,339.63457
				L480.16809,338.9145L480.40806,335.0741L480.40806,333.39393L479.68816,330.75366L479.20824,330.27362L478.72831,329.31352L478.48834,329.07349
				L475.84874,322.83286L474.88888,321.39271L474.40896,320.67264L474.16899,320.43261L472.00931,318.75244L471.04946,318.03237
				L469.36971,317.3123L467.68996,317.07227L464.81039,316.83225L463.61057,317.55232L463.37061,317.55232L462.65072,317.55232L
				462.41075,317.55232L461.4509,317.07227L460.97097,316.3522L459.77115,315.3921L459.05126,314.91205L457.37151,314.67203L455.45179,313.95195
				L455.21183,314.19198L455.45179,314.67203L455.69176,314.67203L455.69176,314.91205L455.45179,314.91205L453.05215,315.15208
				L450.89248,315.87215L450.17258,316.11217L448.49284,316.59222L446.81309,317.55232L445.61327,318.03237L442.7337,318.03237L
				439.85413,318.27239L439.61417,318.03237L439.3742,318.03237L439.13424,317.3123L438.89427,316.59222L438.41435,316.11217L437.21453,315.3921
				L436.25467,314.67203L434.09499,312.99186L432.89517,312.51181L432.65521,312.51181L432.17528,312.99186L432.65521,316.11217
				L433.13514,318.75244L433.85503,319.95257L433.85503,320.67264L434.33496,321.39271L435.53478,325.2331L435.53478,325.47313L
				435.53478,325.71315L434.81488,325.71315L432.89517,325.95318L431.93532,325.95318L430.49553,325.47313L429.29571,324.99308L
				427.376,324.03298L424.97636,323.31291L423.29661,322.83286L418.73729,321.39271L417.05754,321.15269L415.13783,321.63274L413.93801,321.87276
				L412.73819,322.11279L410.81848,322.11279L407.69895,321.63274L404.33945,320.43261L403.61956,320.19259L402.6597,319.71254L
				402.17977,319.47252L401.45988,318.75244L400.50002,318.03237L400.0201,317.3123L399.54017,315.87215L399.54017,313.95195L399.78013,312.99186
				L399.54017,311.31169L399.54017,309.63151L399.3002,308.91144L398.82028,306.75122L397.86042,304.591L397.38049,303.6309L398.34035,303.39088
				L400.50002,302.67081L400.97995,302.43078L403.13963,300.75061L404.33945,299.79051L405.05934,298.83042L405.2993,298.35037L
				405.77923,297.87032L406.49913,296.19015L406.73909,294.75L406.73909,294.26995L406.49913,292.8298L405.05934,291.62968L405.53927,290.66959
				L406.73909,288.98941L407.69895,286.82919L408.89877,282.74878L409.13873,281.54866L409.13873,280.10851L409.13873,279.86849
				L409.61866,277.46824L409.61866,276.50814L409.61866,274.58795L410.33855,269.30741L410.33855,268.58734L410.57851,266.42712
				L410.81848,263.54682L411.05844,261.3866L411.53837,260.90656L412.49823,258.26629L415.13783,258.02626L415.3778,257.54621L416.09769,257.06616
				L418.0174,256.34609L418.49733,256.10607L420.41704,256.10607L422.09679,256.34609L422.81668,256.34609L423.29661,256.34609L
				423.53657,256.10607L424.97636,255.62602L424.97636,255.38599L425.69625,254.66592L426.17618,253.22577L426.41614,252.26568L
				426.89607,248.42529L426.89607,247.22516L427.376,247.46519L427.85593,247.46519L433.13514,248.42529L435.29481,249.38538L436.25467,249.62541
				L436.0147,250.58551L436.0147,250.82553L436.25467,251.06555L442.97366,254.66592z"/>
			<path clip-path="url(#SVG_CP_1)" fill="#73B273" fill-rule="evenodd" stroke="#000000" stroke-width="0.95986" stroke-miterlimit="10" stroke-linecap="round" stroke-linejoin="round" d="
				M391.14142,98.41002L392.82117,98.41002L397.86042,96.2498L398.58031,96.2498L399.54017,96.48982L400.97995,97.44992L401.69984,98.41002
				L402.6597,100.09019L404.09948,101.05029L404.57941,101.29031L405.2993,102.01038L406.73909,102.73046L409.37869,105.37073L413.93801,108.73107
				L416.09769,110.17121L416.57762,110.41124L418.0174,111.37134L421.13693,115.21173L421.85683,116.41185L422.81668,120.97231L
				424.0165,122.41246L424.25647,123.13253L424.73639,124.09263L424.0165,126.01283L423.77654,127.93302L424.0165,131.53339L424.73639,131.53339
				L426.41614,131.77341L428.09589,131.53339L429.29571,131.29336L430.25557,131.05334L430.7355,131.05334L434.09499,130.33327L
				434.81488,130.33327L435.77474,130.81331L436.49463,131.29336L436.97456,132.25346L437.45449,133.45358L438.17438,134.17366L
				438.89427,134.65371L440.33406,134.89373L440.81399,134.89373L441.53388,134.65371L442.25377,134.41368L443.93352,134.17366L
				445.85323,135.13375L446.81309,136.33388L447.05305,136.33388L447.05305,136.81393L447.53298,137.534L449.45269,141.13437L450.17258,143.77463
				L450.65251,146.65493L450.65251,146.89495L450.89248,148.57512L451.13244,150.01527L451.13244,156.73595L451.13244,156.97598
				L450.65251,160.0963L450.41255,161.29642L449.93262,161.29642L448.7328,160.81637L447.29302,160.33632L446.33316,160.33632L445.85323,160.57634
				L444.89338,161.05639L444.41345,161.05639L443.93352,160.81637L442.25377,159.61625L439.85413,156.97598L438.41435,156.2559L
				437.21453,156.01588L436.49463,156.01588L435.53478,155.53583L434.33496,155.29581L433.61506,155.05578L432.89517,154.81576L
				431.69535,153.61564L430.7355,151.93546L429.53568,150.97537L428.57582,150.49532L428.09589,150.01527L426.89607,149.05517L426.65611,148.81515
				L426.65611,148.57512L426.17618,148.3351L425.93621,148.3351L425.21632,147.61502L424.73639,147.375L424.0165,146.65493L423.53657,146.17488
				L423.29661,145.21478L422.57672,144.01466L422.09679,143.29459L421.13693,142.81454L419.21722,141.85444L418.49733,141.85444
				L418.0174,141.37439L418.0174,140.89434L418.25736,139.93424L418.25736,138.97415L418.0174,138.25407L417.53747,137.29397L417.05754,137.05395
				L416.81758,137.05395L416.33765,137.29397L415.61776,138.25407L414.6579,139.21417L414.17798,139.45419L413.21812,139.45419L
				411.77833,138.97415L409.85862,138.01405L408.89877,137.534L408.6588,137.534L408.17887,137.534L406.25916,135.37378L405.77923,135.37378
				L404.81938,134.65371L403.37959,132.73351L401.93981,131.77341L400.50002,130.33327L398.82028,127.93302L398.58031,127.21295
				L397.62045,125.53278L395.94071,124.33266L395.46078,123.61258L394.98085,123.13253L394.98085,122.17244L394.98085,121.45236
				L395.22081,118.57207L395.22081,117.13192L394.98085,116.17182L394.50092,114.9717L394.26096,114.9717L394.50092,114.25163L394.26096,113.29153
				L393.54107,112.09141L392.58121,111.13131L391.62135,110.41124L390.42153,109.45114L389.9416,109.21112L389.70164,108.73107L
				388.98175,107.77097L388.74178,107.0509L388.26186,105.1307L388.26186,102.73046L388.02189,102.25041L387.78193,102.01038L386.82207,102.01038
				L385.62225,102.25041L385.14232,102.25041L384.90236,102.01038L384.18247,99.61014L384.42243,98.89007L384.6624,98.41002L386.58211,96.2498
				L387.06204,96.72985L388.26186,97.44992L390.42153,98.16999L391.14142,98.41002z"/>
			<path clip-path="url(#SVG_CP_1)" fill="#73B273" fill-rule="evenodd" stroke="#000000" stroke-width="0.95986" stroke-miterlimit="10" stroke-linecap="round" stroke-linejoin="round" d="
				M408.41884,154.33571L408.6588,154.81576L408.89877,156.01588L409.13873,157.216L409.13873,160.0963L409.13873,161.05639L409.61866,162.01649
				L410.09859,162.73656L410.81848,163.45664L410.81848,163.69666L410.81848,164.65676L410.57851,165.37683L410.09859,165.85688
				L410.09859,167.77708L409.85862,167.77708L408.41884,167.77708L406.97905,167.29703L406.97905,167.057L406.25916,168.73717L405.77923,169.45725
				L405.77923,169.9373L406.25916,170.41735L406.97905,170.89739L407.45898,171.61747L407.93891,174.49776L407.69895,175.69788L
				406.49913,178.8182L406.0192,179.29825L406.0192,179.7783L405.2993,180.25835L404.09948,180.49837L402.89966,180.25835L402.41974,180.25835
				L402.17977,180.01832L401.45988,183.37866L401.21992,184.09874L400.97995,184.33876L400.50002,184.57879L400.26006,185.05884
				L399.78013,186.97903L399.3002,187.93913L398.34035,189.37928L398.10038,190.09935L398.58031,191.05945L398.58031,191.77952L
				398.10038,194.41979L398.34035,195.85994L399.54017,199.94035L399.54017,200.4204L399.54017,201.62052L399.54017,202.10057L399.3002,203.30069
				L399.54017,203.78074L401.93981,206.18099L401.93981,206.42101L401.93981,206.66103L401.21992,208.10118L401.21992,208.34121
				L400.97995,208.82125L400.97995,209.3013L400.50002,210.02138L398.82028,212.42162L397.38049,214.34182L394.26096,215.30191L
				393.3011,216.50204L392.82117,217.94218L393.06114,222.50265L393.3011,225.14292L393.78103,226.82309L393.78103,227.78318L393.54107,228.02321
				L393.54107,228.26323L392.82117,229.46336L391.14142,231.8636L390.42153,232.34365L389.22171,232.8237L388.50182,233.06372L387.78193,232.8237
				L387.302,232.58367L387.06204,231.8636L386.82207,230.42345L386.58211,229.46336L386.10218,228.50326L385.86222,228.26323L383.70254,227.30314
				L383.70254,226.58306L384.42243,223.94279L384.6624,221.0625L384.6624,220.34243L384.42243,219.38233L384.18247,219.38233L383.9425,219.38233
				L382.26275,220.34243L379.62315,221.54255L378.90326,221.54255L378.18337,221.78257L374.10398,223.70277L370.74448,225.14292
				L368.5848,225.62296L364.02549,227.78318L362.34574,228.26323L361.14592,228.98331L360.90595,229.22333L360.42602,229.70338L
				359.2262,231.14353L356.34664,234.02382L355.86671,234.50387L355.62674,234.50387L355.62674,234.74389L355.38678,233.7838L355.62674,231.62358
				L355.38678,230.42345L354.18696,227.54316L353.46707,224.66287L353.46707,221.54255L352.50721,215.54194L351.06743,215.30191
				L348.90775,214.82187L348.66779,214.82187L348.18786,215.06189L347.70793,215.30191L346.26814,216.26201L345.78822,216.26201
				L345.30829,216.02199L344.5884,215.54194L342.18876,213.14169L341.2289,212.1816L340.98894,211.2215L340.74897,210.50143L340.02908,209.54133
				L339.78912,209.06128L339.54915,208.82125L339.30919,207.86116L340.02908,207.86116L341.46886,207.38111L342.42872,206.42101
				L343.62854,205.46091L344.10847,204.26079L344.82836,203.06067L345.30829,201.3805L345.78822,197.78013L345.54825,196.82003L
				344.82836,193.93974L344.82836,192.97964L345.06832,191.5395L348.18786,191.5395L349.62764,192.01954L350.34753,192.73962L352.02728,193.21967
				L353.70703,193.21967L355.38678,193.21967L355.62674,193.21967L355.86671,194.89984L355.62674,196.09996L354.66689,198.5002L
				354.42692,201.3805L353.46707,204.26079L352.98714,207.38111L352.26725,209.06128L352.26725,209.3013L351.78732,210.2614L351.54735,210.50143
				L351.30739,211.46152L351.30739,212.42162L351.78732,212.90167L352.02728,212.66165L352.74717,212.42162L353.947,211.46152L355.14682,210.50143
				L356.82656,209.3013L356.82656,209.06128L357.30649,208.82125L357.78642,208.34121L360.42602,207.62113L362.82567,207.14108L
				364.26545,207.14108L366.66509,206.42101L367.38498,205.70094L368.10487,204.02077L368.34484,201.3805L368.10487,199.94035L368.34484,199.22028
				L369.3047,197.06006L369.3047,196.33998L369.06473,195.61991L367.38498,194.41979L367.38498,194.17976L367.14502,193.93974L365.9452,192.73962
				L364.26545,191.29947L363.78552,190.5794L363.54556,189.85932L363.78552,187.21906L363.54556,186.97903L363.06563,186.73901L
				362.5857,186.49898L361.38588,183.85871L360.42602,181.93852L358.74628,178.8182L357.78642,174.97781L357.54646,174.73779L357.78642,173.53766
				L358.26635,171.85749L359.2262,171.37744L359.46617,170.89739L359.46617,170.65737L363.06563,169.9373L366.66509,168.9772L370.26455,167.53705
				L370.50452,167.29703L370.98444,167.29703L377.9434,165.13681L380.58301,164.17671L385.38229,162.73656L386.34214,162.49654L
				386.58211,162.49654L388.50182,162.73656L390.90146,163.45664L390.90146,163.21661L392.34125,162.73656L394.98085,162.25652L
				394.98085,162.01649L394.98085,161.77647L394.98085,160.81637L393.54107,157.69605L393.54107,157.45603L393.54107,156.73595L
				394.26096,154.81576L394.50092,154.57573L395.46078,154.81576L395.94071,154.57573L395.94071,154.09568L395.94071,152.65554L
				396.42063,151.21539L397.62045,150.97537L398.10038,150.49532L400.0201,150.01527L400.50002,149.77524L403.37959,148.81515L403.85952,148.57512
				L404.57941,148.3351L405.53927,148.81515L406.0192,149.2952L406.97905,150.73534L407.45898,152.41551L408.17887,153.85566L408.41884,154.33571
				z"/>
			<path clip-path="url(#SVG_CP_1)" fill="#73B273" fill-rule="evenodd" stroke="#000000" stroke-width="0.95986" stroke-miterlimit="10" stroke-linecap="round" stroke-linejoin="round" d="
				M346.74807,52.32533L347.46797,53.0454L347.94789,54.48555L348.42782,54.96559L349.38768,55.20562L349.38768,55.44564L349.38768,55.68567
				L349.38768,56.64577L349.38768,57.84589L349.38768,58.56596L349.62764,58.80599L349.86761,58.80599L350.10757,58.56596L350.34753,57.36584
				L350.5875,57.12581L350.82746,57.36584L351.06743,57.36584L351.78732,58.08591L352.02728,58.32594L352.74717,57.84589L353.46707,57.60586
				L354.18696,57.84589L354.42692,58.08591L354.90685,59.28603L354.66689,60.00611L354.18696,60.96621L353.947,61.20623L353.947,62.16633
				L353.947,62.8864L353.947,63.60647L354.42692,64.08652L354.90685,64.08652L355.14682,64.08652L355.86671,63.8465L356.34664,63.8465
				L356.82656,64.32655L356.82656,65.04662L356.34664,65.76669L356.34664,66.00672L356.5866,66.48677L356.82656,66.48677L358.26635,67.44687
				L358.26635,67.92691L358.26635,68.16694L358.02638,68.16694L357.54646,68.64699L357.54646,69.84711L357.30649,70.08713L356.10667,70.56718
				L355.86671,71.04723L355.86671,71.52728L356.34664,72.48738L356.10667,73.20745L355.14682,74.16755L355.14682,74.6476L355.38678,74.88762
				L356.10667,75.12765L355.86671,76.08774L355.86671,76.56779L356.10667,77.04784L356.5866,77.28787L357.30649,77.28787L358.02638,77.28787
				L359.2262,77.28787L359.9461,77.76792L360.18606,78.00794L359.9461,78.00794L358.98624,78.96804L358.50631,79.20806L358.50631,79.68811
				L359.70613,80.88823L360.42602,81.12826L361.38588,80.40818L363.06563,80.64821L363.30559,80.40818L364.50541,78.48799L364.74538,78.48799
				L364.98534,78.24796L365.22531,78.48799L366.90505,79.68811L368.5848,79.68811L369.78462,79.92814L370.74448,80.88823L371.70434,82.32838
				L373.38408,83.28848L373.62405,83.04845L374.5839,82.32838L375.06383,81.60831L375.78372,81.60831L376.74358,83.04845L379.62315,84.4886
				L381.78283,85.20867L382.26275,85.4487L382.50272,85.92875L382.98265,86.64882L384.42243,91.44931L384.6624,91.92936L385.38229,94.56963
				L386.58211,96.2498L384.6624,98.41002L384.42243,98.89007L384.18247,99.61014L384.90236,102.01038L385.14232,102.25041L385.62225,102.25041
				L386.82207,102.01038L387.78193,102.01038L388.02189,102.25041L388.26186,102.73046L388.26186,105.1307L388.74178,107.0509L388.98175,107.77097
				L389.70164,108.73107L389.9416,109.21112L390.42153,109.45114L391.62135,110.41124L392.58121,111.13131L393.54107,112.09141L
				394.26096,113.29153L394.50092,114.25163L394.26096,114.9717L394.50092,114.9717L394.98085,116.17182L395.22081,117.13192L395.22081,118.57207
				L394.98085,121.45236L394.98085,122.17244L394.98085,123.13253L395.46078,123.61258L395.94071,124.33266L397.62045,125.53278
				L398.58031,127.21295L398.82028,127.93302L400.50002,130.33327L401.93981,131.77341L403.37959,132.73351L404.81938,134.65371
				L405.77923,135.37378L406.25916,135.37378L408.17887,137.534L408.6588,137.534L408.41884,137.77402L408.17887,138.97415L408.17887,140.41429
				L407.93891,141.37439L407.69895,141.61441L407.21902,141.37439L405.53927,141.61441L403.85952,141.61441L403.85952,141.85444
				L404.09948,142.57451L404.09948,143.53461L404.33945,145.69483L404.81938,146.89495L404.81938,148.09507L404.57941,148.3351L
				403.85952,148.57512L403.37959,148.81515L400.50002,149.77524L400.0201,150.01527L398.10038,150.49532L397.62045,150.97537L396.42063,151.21539
				L395.94071,152.65554L395.94071,154.09568L395.94071,154.57573L395.46078,154.81576L394.50092,154.57573L394.26096,154.81576
				L393.54107,156.73595L393.54107,157.45603L393.54107,157.69605L394.98085,160.81637L394.98085,161.77647L394.98085,162.01649
				L394.98085,162.25652L392.34125,162.73656L390.90146,163.21661L390.90146,163.45664L388.50182,162.73656L386.58211,162.49654
				L386.34214,162.49654L385.38229,162.73656L380.58301,164.17671L377.9434,165.13681L370.98444,167.29703L370.50452,167.29703L
				370.26455,167.53705L366.66509,168.9772L363.06563,169.9373L359.46617,170.65737L359.46617,170.41735L359.2262,170.17732L358.74628,168.25713
				L359.2262,167.29703L358.98624,166.33693L359.2262,165.37683L358.98624,161.53644L358.50631,159.37622L358.50631,157.45603L358.50631,157.216
				L357.78642,156.73595L357.54646,156.49593L357.30649,156.01588L356.82656,154.57573L356.34664,154.33571L355.38678,154.09568
				L354.90685,154.33571L354.18696,154.81576L352.74717,154.33571L352.50721,154.57573L352.02728,155.53583L349.86761,157.93608
				L349.62764,158.89617L349.62764,160.0963L349.62764,162.25652L349.62764,163.69666L348.90775,164.89678L348.90775,165.61686L
				348.90775,166.57695L348.90775,166.81698L349.14771,167.057L349.62764,167.29703L349.86761,167.77708L349.86761,168.25713L349.86761,169.69727
				L349.62764,169.69727L349.38768,169.69727L348.66779,168.9772L347.70793,168.9772L347.70793,168.73717L347.228,168.49715L346.74807,167.53705
				L345.54825,166.09691L345.06832,164.89678L345.06832,163.21661L343.8685,158.89617L343.8685,157.45603L343.62854,155.29581L343.62854,154.81576
				L343.38858,153.61564L343.14861,153.13559L342.42872,152.41551L341.94879,152.17549L341.46886,151.69544L341.2289,151.69544L
				339.78912,150.01527L339.54915,149.53522L339.30919,148.81515L339.06922,148.3351L338.82926,147.85505L338.58929,147.61502L338.10937,146.65493
				L337.62944,145.93485L337.14951,145.4548L336.90955,145.21478L336.42962,144.49471L335.70973,144.01466L334.98983,143.77463L
				333.55005,143.53461L333.07012,143.53461L332.35023,143.05456L331.63034,141.13437L331.15041,140.41429L331.15041,140.17427L
				330.91044,139.93424L330.19055,138.01405L329.71062,137.534L329.71062,136.81393L329.47066,136.33388L328.75077,136.33388L328.5108,136.09385
				L328.5108,135.6138L329.2307,134.89373L329.2307,134.41368L328.99073,134.17366L328.5108,133.21356L328.27084,132.73351L328.03088,131.77341
				L327.07102,130.33327L326.83106,128.65309L326.35113,127.693L326.11116,127.45297L325.63124,127.45297L324.91134,126.7329L323.95149,125.7728
				L322.03177,123.61258L322.03177,123.13253L322.03177,122.89251L321.79181,122.65248L321.07192,122.65248L320.83195,122.89251
				L320.59199,122.89251L320.59199,123.13253L320.11206,123.85261L319.8721,124.09263L319.39217,124.09263L318.91224,123.13253L
				318.43231,122.89251L318.19235,122.41246L317.23249,122.17244L316.5126,122.17244L315.79271,121.93241L315.07282,121.69239L313.873,120.97231
				L313.39307,120.49226L313.39307,119.77219L313.1531,118.57207L312.91314,118.33204L312.91314,116.65187L312.67318,115.69178L
				312.19325,114.9717L311.47336,114.49165L310.99343,114.25163L310.27354,114.0116L309.79361,113.77158L309.31368,113.29153L309.07372,112.33143
				L309.07372,111.13131L309.55364,109.69116L310.27354,107.0509L310.75346,106.57085L311.71332,106.0908L312.67318,105.85077L313.39307,105.61075
				L313.63303,105.1307L312.91314,103.93058L309.55364,101.29031L308.11386,100.57024L306.91404,100.33021L306.43411,100.33021L
				305.23429,99.85016L304.75436,99.61014L304.5144,99.13009L304.5144,98.89007L304.5144,98.65004L304.75436,97.68994L304.99433,96.96987
				L306.19415,95.2897L306.19415,94.56963L305.95418,94.08958L305.71422,93.60953L305.23429,93.3695L303.79451,92.88945L303.31458,92.40941
				L303.07461,91.92936L303.31458,91.44931L304.03447,89.52911L304.99433,88.08897L304.99433,87.84894L304.27443,87.36889L302.83465,87.36889
				L302.35472,87.36889L301.39486,87.36889L300.43501,87.12887L299.71512,87.36889L299.23519,87.60892L298.75526,88.08897L298.27533,88.56902
				L298.03537,88.56902L297.55544,88.32899L297.31548,87.36889L297.31548,86.64882L297.55544,85.20867L298.27533,84.4886L298.27533,83.04845
				L298.99522,81.84833L299.47515,81.12826L300.19504,80.16816L300.91494,77.76792L300.91494,77.04784L300.67497,76.08774L300.67497,75.6077
				L301.1549,75.12765L301.1549,74.16755L301.1549,73.6875L300.19504,73.20745L299.95508,72.96743L300.43501,72.00733L301.1549,71.28726
				L302.35472,70.08713L303.31458,69.36706L303.79451,69.12704L304.75436,69.12704L305.47425,68.88701L305.47425,68.40696L304.27443,66.24674
				L304.03447,65.28665L304.03447,64.56657L304.03447,63.36645L304.27443,62.40635L304.5144,62.16633L305.95418,62.16633L307.39397,62.40635
				L308.11386,62.64638L310.03357,62.64638L310.5135,62.40635L312.67318,60.96621L313.873,60.00611L315.31278,58.56596L316.27264,57.84589
				L316.99253,57.84589L317.95239,58.80599L318.19235,59.04601L318.91224,58.80599L319.15221,58.32594L319.63213,54.24552L319.8721,53.76547
				L320.11206,53.0454L321.55185,52.56535L322.75167,52.0853L323.95149,51.1252L324.43142,50.64516L325.8712,50.40513L326.35113,50.64516
				L327.07102,51.36523L327.79091,51.84528L329.2307,52.56535L329.47066,52.56535L330.43052,52.32533L331.15041,52.32533L331.8703,52.80538
				L332.11027,52.80538L332.35023,52.32533L331.63034,46.80476L331.39037,43.68445L331.39037,39.84406L332.11027,37.20379L332.59019,36.00366
				L333.07012,34.80354L333.31009,33.60342L333.79001,32.64332L334.50991,31.92325L338.82926,29.52301L340.74897,28.32288L340.98894,29.52301
				L341.2289,30.72313L341.46886,31.4432L340.98894,32.88335L340.74897,33.84345L340.26904,35.04357L340.50901,36.00366L340.50901,36.72374
				L340.50901,37.20379L341.46886,38.40391L341.70883,40.56413L341.70883,42.48432L341.70883,42.96437L341.94879,43.2044L342.90865,43.68445
				L344.82836,44.1645L345.30829,44.40452L346.02818,44.88457L346.02818,45.36462L346.02818,46.56474L346.02818,47.76486L346.74807,48.96498
				L346.98804,49.44503L346.50811,50.88518L346.50811,51.1252L346.50811,51.84528L346.74807,52.32533z"/>
			<path clip-path="url(#SVG_CP_1)" fill="#73B273" fill-rule="evenodd" stroke="#000000" stroke-width="0.95986" stroke-miterlimit="10" stroke-linecap="round" stroke-linejoin="round" d="
				M452.0923,95.2897L454.01201,95.52972L454.97187,95.2897L456.17169,95.2897L457.61147,95.2897L458.57133,95.04967L460.97097,94.80965
				L463.85054,94.08958L464.81039,94.08958L465.77025,94.56963L468.16989,96.2498L470.80949,97.20989L471.52939,97.44992L473.20913,97.92997
				L474.40896,97.92997L474.64892,97.92997L477.52849,98.16999L479.4482,98.41002L479.68816,98.16999L480.64802,98.16999L483.28763,98.41002
				L488.32687,98.65004L489.28673,98.65004L489.76666,98.41002L490.48655,98.41002L490.96648,98.65004L491.20644,98.65004L491.4464,98.89007
				L491.68637,99.61014L491.68637,100.09019L491.4464,102.01038L490.72651,102.97048L489.76666,103.45053L489.52669,103.93058L489.52669,104.1706
				L490.00662,104.65065L490.96648,105.37073L491.68637,106.33082L491.92633,106.81087L491.92633,107.29092L492.88619,108.49104
				L492.64622,108.97109L492.1663,109.69116L492.1663,110.41124L493.36612,112.81148L493.12615,113.05151L492.88619,113.29153L491.92633,113.77158
				L490.72651,115.21173L490.48655,115.69178L490.48655,116.41185L490.96648,117.13192L490.48655,117.37195L490.00662,118.57207
				L489.52669,119.05212L489.52669,119.29214L489.28673,119.77219L488.08691,123.85261L487.60698,125.53278L486.88709,126.97292
				L485.4473,128.41307L485.4473,128.65309L484.72741,128.65309L482.8077,128.17305L481.84784,127.693L481.36791,126.97292L480.88798,126.49288
				L480.64802,125.05273L479.68816,122.17244L479.68816,121.93241L479.4482,121.45236L478.96827,120.49226L478.48834,120.01222L
				478.24838,119.77219L477.52849,119.53217L476.8086,119.29214L475.36881,118.81209L473.92903,118.33204L472.24928,117.852L471.76935,117.61197
				L471.04946,117.13192L470.56953,116.41185L469.60967,115.9318L468.88978,115.9318L468.40985,115.69178L467.21003,115.45175L465.53028,114.9717
				L463.13064,114.73168L459.53118,113.77158L457.61147,113.05151L457.61147,113.29153L457.13154,113.53156L456.65161,114.25163
				L456.65161,115.45175L455.69176,119.05212L455.45179,120.01222L455.45179,120.25224L455.45179,120.97231L454.97187,122.65248
				L454.97187,122.89251L454.7319,123.61258L453.53208,128.89312L452.0923,132.49349L451.61237,133.45358L450.65251,134.41368L450.17258,135.13375
				L448.97276,135.6138L446.81309,136.33388L445.85323,135.13375L443.93352,134.17366L442.25377,134.41368L441.53388,134.65371L
				440.81399,134.89373L440.33406,134.89373L438.89427,134.65371L438.17438,134.17366L437.45449,133.45358L436.97456,132.25346L
				436.49463,131.29336L435.77474,130.81331L434.81488,130.33327L434.09499,130.33327L430.7355,131.05334L430.25557,131.05334L429.29571,131.29336
				L428.09589,131.53339L426.41614,131.77341L424.73639,131.53339L424.0165,131.53339L423.77654,127.93302L424.0165,126.01283L424.73639,124.09263
				L424.25647,123.13253L424.0165,122.41246L422.81668,120.97231L421.85683,116.41185L421.13693,115.21173L418.0174,111.37134L416.57762,110.41124
				L416.09769,110.17121L416.81758,109.69116L417.29751,108.73107L417.53747,107.0509L417.77744,106.33082L417.77744,105.1307L418.0174,104.65065
				L418.73729,104.41063L420.657,103.45053L421.3769,102.73046L421.85683,102.25041L421.61686,101.05029L421.61686,98.41002L421.61686,97.92997
				L421.85683,97.44992L422.81668,96.72985L424.0165,94.80965L424.25647,94.56963L424.49643,93.84955L424.25647,92.16938L424.0165,91.44931
				L424.25647,90.96926L424.49643,90.96926L424.97636,90.96926L425.69625,90.48921L425.93621,90.00916L426.41614,88.56902L426.65611,88.56902
				L426.89607,88.32899L427.376,88.32899L429.29571,87.36889L431.69535,86.4088L432.89517,86.4088L433.3751,86.64882L434.33496,88.32899
				L435.29481,89.04906L436.49463,89.52911L438.41435,89.76914L440.81399,90.24919L442.49373,90.72923L444.89338,91.92936L446.0932,93.12948
				L446.57312,93.3695L448.49284,94.3296L451.13244,95.2897L452.0923,95.2897z"/>
			<path clip-path="url(#SVG_CP_1)" fill="#73B273" fill-rule="evenodd" stroke="#000000" stroke-width="0.95986" stroke-miterlimit="10" stroke-linecap="round" stroke-linejoin="round" d="
				M443.93352,160.81637L444.41345,161.05639L444.89338,161.05639L445.85323,160.57634L446.33316,160.33632L447.29302,160.33632
				L448.7328,160.81637L449.93262,161.29642L450.41255,161.29642L450.65251,163.21661L450.89248,165.37683L451.37241,167.77708L
				451.61237,168.9772L451.61237,169.69727L451.85233,171.37744L451.85233,171.61747L451.85233,171.85749L451.85233,173.29764L451.85233,174.01771
				L451.61237,175.21783L451.61237,175.45786L451.85233,176.17793L451.61237,176.89801L451.61237,178.8182L451.85233,179.29825L
				452.0923,179.29825L453.29212,179.05823L453.77205,179.29825L455.21183,180.7384L455.69176,181.45847L456.89158,182.89862L458.33136,183.61869
				L459.29122,183.85871L459.77115,183.37866L460.01111,182.89862L460.25108,181.45847L460.49104,180.97842L460.731,180.97842L461.21093,180.97842
				L461.4509,180.97842L462.89068,182.17854L463.61057,182.89862L465.53028,184.81881L466.49014,185.53888L468.64982,186.49898L
				468.88978,186.73901L469.12975,186.97903L469.12975,187.45908L468.64982,188.41918L467.21003,190.09935L466.97007,190.81942L
				467.21003,192.49959L467.21003,194.17976L467.45,195.13986L467.45,197.06006L467.68996,198.02016L467.92993,198.5002L468.16989,198.74023
				L468.88978,199.70033L468.88978,200.18037L468.16989,200.90045L466.73011,201.86055L465.77025,202.82064L463.61057,204.26079
				L462.89068,204.98086L461.69086,206.66103L461.69086,206.90106L460.97097,207.62113L460.49104,208.34121L460.97097,210.2614L
				461.21093,210.50143L461.21093,210.74145L460.97097,210.74145L460.49104,210.98147L459.29122,210.50143L459.05126,210.2614L458.81129,210.50143
				L458.0914,211.2215L456.65161,212.66165L456.17169,213.38172L455.45179,214.34182L454.7319,215.54194L454.25197,216.26201L454.01201,217.22211
				L453.77205,217.70216L452.57223,218.42223L451.37241,218.66226L449.93262,219.1423L449.45269,219.38233L449.21273,219.38233L
				449.21273,219.62235L448.97276,219.38233L448.7328,219.38233L445.61327,218.42223L443.45359,217.94218L440.81399,217.22211L436.97456,216.26201
				L433.13514,215.78196L430.25557,215.54194L428.81578,215.54194L426.65611,215.30191L424.73639,215.30191L423.05665,214.82187
				L423.05665,215.06189L422.81668,213.86177L423.05665,212.66165L423.29661,211.2215L423.29661,210.50143L422.81668,209.54133L
				422.81668,209.3013L422.81668,208.82125L423.05665,208.10118L423.05665,207.86116L423.05665,207.62113L423.05665,206.42101L422.33675,206.18099
				L421.85683,205.94096L421.85683,205.70094L421.85683,205.46091L421.85683,205.22089L422.33675,204.26079L422.33675,204.02077
				L422.81668,202.82064L423.77654,200.66042L424.49643,197.30008L424.73639,196.09996L425.21632,192.49959L425.21632,189.6193L
				425.21632,188.6592L425.69625,187.93913L426.17618,187.6991L427.13603,186.73901L427.376,186.25896L427.376,185.53888L427.376,184.57879
				L427.376,183.85871L427.61596,183.37866L428.81578,180.97842L429.29571,180.25835L430.49553,178.8182L430.7355,178.33815L430.7355,178.09813
				L429.53568,176.17793L429.29571,175.45786L429.53568,174.25774L429.77564,174.01771L430.49553,173.77769L430.7355,173.53766L
				430.97546,171.61747L430.97546,171.13742L431.21542,168.73717L431.69535,167.057L431.93532,166.81698L433.3751,165.61686L434.81488,164.89678
				L435.05485,164.65676L435.29481,163.93669L435.29481,162.73656L435.29481,161.53644L435.05485,159.85627L435.05485,159.1362L
				435.53478,158.41612L435.77474,158.1761L436.7346,156.97598L436.7346,156.49593L436.49463,156.01588L437.21453,156.01588L438.41435,156.2559
				L439.85413,156.97598L442.25377,159.61625L443.93352,160.81637z"/>
			<path clip-path="url(#SVG_CP_1)" fill="#73B273" fill-rule="evenodd" stroke="#000000" stroke-width="0.95986" stroke-miterlimit="10" stroke-linecap="round" stroke-linejoin="round" d="
				M418.25736,138.97415L418.25736,139.93424L418.0174,140.89434L418.0174,141.37439L418.49733,141.85444L419.21722,141.85444L421.13693,142.81454
				L422.09679,143.29459L422.57672,144.01466L423.29661,145.21478L423.53657,146.17488L424.0165,146.65493L424.73639,147.375L425.21632,147.61502
				L425.93621,148.3351L426.17618,148.3351L426.65611,148.57512L426.65611,148.81515L426.89607,149.05517L428.09589,150.01527L428.57582,150.49532
				L429.53568,150.97537L430.7355,151.93546L431.69535,153.61564L432.89517,154.81576L433.61506,155.05578L434.33496,155.29581L
				435.53478,155.53583L436.49463,156.01588L436.7346,156.49593L436.7346,156.97598L435.77474,158.1761L435.53478,158.41612L435.05485,159.1362
				L435.05485,159.85627L435.29481,161.53644L435.29481,162.73656L435.29481,163.93669L435.05485,164.65676L434.81488,164.89678
				L433.3751,165.61686L431.93532,166.81698L431.69535,167.057L431.21542,168.73717L430.97546,171.13742L430.97546,171.61747L430.7355,173.53766
				L430.49553,173.77769L429.77564,174.01771L429.53568,174.25774L429.29571,175.45786L429.53568,176.17793L430.7355,178.09813L
				430.7355,178.33815L430.49553,178.8182L429.29571,180.25835L428.81578,180.97842L427.61596,183.37866L427.376,183.85871L427.376,184.57879
				L427.376,185.53888L427.376,186.25896L427.13603,186.73901L426.17618,187.6991L425.69625,187.93913L425.21632,188.6592L425.21632,189.6193
				L425.21632,192.49959L424.73639,196.09996L424.49643,197.30008L423.77654,200.66042L422.81668,202.82064L422.33675,204.02077
				L422.33675,204.26079L421.85683,205.22089L421.85683,205.46091L421.85683,205.70094L421.85683,205.94096L422.33675,206.18099
				L423.05665,206.42101L423.05665,207.62113L423.05665,207.86116L423.05665,208.10118L422.81668,208.82125L422.81668,209.3013L
				422.81668,209.54133L423.29661,210.50143L423.29661,211.2215L423.05665,212.66165L422.81668,213.86177L423.05665,215.06189L422.57672,215.06189
				L421.61686,214.82187L420.657,214.82187L419.93711,214.82187L416.09769,214.82187L411.05844,214.34182L406.97905,214.10179L403.85952,214.34182
				L400.73999,214.34182L398.82028,214.58184L397.38049,214.34182L398.82028,212.42162L400.50002,210.02138L400.97995,209.3013L
				400.97995,208.82125L401.21992,208.34121L401.21992,208.10118L401.93981,206.66103L401.93981,206.42101L401.93981,206.18099L
				399.54017,203.78074L399.3002,203.30069L399.54017,202.10057L399.54017,201.62052L399.54017,200.4204L399.54017,199.94035L398.34035,195.85994
				L398.10038,194.41979L398.58031,191.77952L398.58031,191.05945L398.10038,190.09935L398.34035,189.37928L399.3002,187.93913L
				399.78013,186.97903L400.26006,185.05884L400.50002,184.57879L400.97995,184.33876L401.21992,184.09874L401.45988,183.37866L
				402.17977,180.01832L402.41974,180.25835L402.89966,180.25835L404.09948,180.49837L405.2993,180.25835L406.0192,179.7783L406.0192,179.29825
				L406.49913,178.8182L407.69895,175.69788L407.93891,174.49776L407.45898,171.61747L406.97905,170.89739L406.25916,170.41735L
				405.77923,169.9373L405.77923,169.45725L406.25916,168.73717L406.97905,167.057L406.97905,167.29703L408.41884,167.77708L409.85862,167.77708
				L410.09859,167.77708L410.09859,165.85688L410.57851,165.37683L410.81848,164.65676L410.81848,163.69666L410.81848,163.45664
				L410.09859,162.73656L409.61866,162.01649L409.13873,161.05639L409.13873,160.0963L409.13873,157.216L408.89877,156.01588L408.6588,154.81576
				L408.41884,154.33571L408.17887,153.85566L407.45898,152.41551L406.97905,150.73534L406.0192,149.2952L405.53927,148.81515L404.57941,148.3351
				L404.81938,148.09507L404.81938,146.89495L404.33945,145.69483L404.09948,143.53461L404.09948,142.57451L403.85952,141.85444
				L403.85952,141.61441L405.53927,141.61441L407.21902,141.37439L407.69895,141.61441L407.93891,141.37439L408.17887,140.41429
				L408.17887,138.97415L408.41884,137.77402L408.6588,137.534L408.89877,137.534L409.85862,138.01405L411.77833,138.97415L413.21812,139.45419
				L414.17798,139.45419L414.6579,139.21417L415.61776,138.25407L416.33765,137.29397L416.81758,137.05395L417.05754,137.05395L
				417.53747,137.29397L418.0174,138.25407L418.25736,138.97415z"/>
			<path clip-path="url(#SVG_CP_1)" fill="#73B273" fill-rule="evenodd" stroke="#000000" stroke-width="0.95986" stroke-miterlimit="10" stroke-linecap="round" stroke-linejoin="round" d="
				M483.04766,160.81637L483.52759,160.81637L484.96737,160.33632L485.20734,160.0963L485.68727,160.81637L486.40716,161.77647L
				486.88709,162.97659L487.36701,163.45664L487.36701,164.41673L487.12705,164.89678L486.64712,165.37683L486.64712,165.61686L
				486.64712,165.85688L486.64712,166.33693L486.64712,168.49715L487.12705,169.69727L487.36701,170.17732L487.36701,170.89739L
				486.88709,173.77769L487.12705,174.25774L487.84694,174.49776L488.08691,174.73779L488.32687,174.97781L488.32687,175.45786L
				486.64712,176.89801L485.92723,176.89801L485.4473,177.13803L484.96737,177.61808L484.72741,177.61808L484.00752,178.09813L481.60788,179.53827
				L481.12795,180.25835L480.64802,181.69849L480.40806,181.69849L480.16809,181.69849L479.68816,181.93852L478.96827,182.17854
				L478.96827,182.41857L478.24838,182.89862L476.56863,184.09874L475.36881,185.29886L472.96917,187.21906L472.72921,187.93913
				L473.4491,188.6592L473.20913,189.37928L473.68906,190.33937L473.68906,191.05945L470.56953,193.45969L468.40985,195.85994L468.16989,196.58001
				L468.16989,196.82003L468.64982,197.30008L468.16989,198.74023L467.92993,198.5002L467.68996,198.02016L467.45,197.06006L467.45,195.13986
				L467.21003,194.17976L467.21003,192.49959L466.97007,190.81942L467.21003,190.09935L468.64982,188.41918L469.12975,187.45908
				L469.12975,186.97903L468.88978,186.73901L468.64982,186.49898L466.49014,185.53888L465.53028,184.81881L463.61057,182.89862
				L462.89068,182.17854L461.4509,180.97842L461.21093,180.97842L460.731,180.97842L460.49104,180.97842L460.25108,181.45847L460.01111,182.89862
				L459.77115,183.37866L459.29122,183.85871L458.33136,183.61869L456.89158,182.89862L455.69176,181.45847L455.21183,180.7384L
				453.77205,179.29825L453.29212,179.05823L452.0923,179.29825L451.85233,179.29825L451.61237,178.8182L451.61237,176.89801L451.85233,176.17793
				L451.61237,175.45786L451.61237,175.21783L451.85233,174.01771L451.85233,173.29764L451.85233,171.85749L451.85233,171.61747
				L451.85233,171.37744L451.61237,169.69727L451.61237,168.9772L451.37241,167.77708L450.89248,165.37683L450.65251,163.21661L
				450.41255,161.29642L450.65251,160.0963L451.13244,156.97598L451.13244,156.73595L451.13244,150.01527L450.89248,148.57512L450.65251,146.89495
				L450.65251,146.65493L450.17258,143.77463L449.45269,141.13437L447.53298,137.534L447.05305,136.81393L447.05305,136.33388L446.81309,136.33388
				L448.97276,135.6138L450.17258,135.13375L450.65251,134.41368L451.61237,133.45358L452.0923,132.49349L453.53208,128.89312L454.7319,123.61258
				L454.97187,122.89251L454.97187,122.65248L455.45179,120.97231L455.45179,120.25224L455.45179,120.01222L455.69176,119.05212
				L456.65161,115.45175L456.65161,114.25163L457.13154,113.53156L457.61147,113.29153L457.61147,113.05151L459.53118,113.77158
				L463.13064,114.73168L465.53028,114.9717L467.21003,115.45175L468.40985,115.69178L468.88978,115.9318L469.60967,115.9318L470.56953,116.41185
				L471.04946,117.13192L471.76935,117.61197L472.24928,117.852L473.92903,118.33204L475.36881,118.81209L476.8086,119.29214L477.52849,119.53217
				L478.24838,119.77219L478.48834,120.01222L478.96827,120.49226L479.4482,121.45236L479.68816,121.93241L479.68816,122.17244L
				480.64802,125.05273L480.88798,126.49288L481.36791,126.97292L481.84784,127.693L482.8077,128.17305L484.72741,128.65309L485.4473,128.65309
				L485.4473,128.89312L485.4473,129.13314L486.64712,131.05334L486.64712,131.77341L486.64712,132.73351L486.40716,133.21356L486.16719,134.89373
				L485.68727,136.09385L485.4473,136.5739L484.72741,138.97415L484.72741,140.17427L484.48745,140.89434L484.00752,140.89434L483.52759,141.61441
				L483.52759,142.09446L483.76755,142.81454L482.8077,144.25468L481.84784,147.13498L481.12795,150.01527L480.40806,150.25529L
				480.40806,150.49532L480.40806,150.73534L480.40806,152.41551L480.64802,153.61564L481.84784,154.81576L481.84784,155.77586L
				481.84784,156.49593L482.08781,158.65615L482.32777,159.61625L482.8077,160.33632L483.04766,160.81637z"/>
			<path clip-path="url(#SVG_CP_1)" fill="#73B273" fill-rule="evenodd" stroke="#000000" stroke-width="0.95986" stroke-miterlimit="10" stroke-linecap="round" stroke-linejoin="round" d="
				M261.32087,29.28298L262.04076,29.52301L263.48054,29.52301L264.68036,29.76303L265.40026,29.76303L266.60008,30.24308L268.51979,30.4831
				L270.19954,31.20318L272.59918,31.20318L273.31907,31.68323L273.799,31.92325L274.51889,32.16327L274.99882,32.4033L276.67857,33.12337
				L277.15849,33.60342L279.07821,34.80354L279.55814,35.52362L279.7981,36.48371L279.31817,37.20379L279.31817,37.68384L279.07821,38.40391
				L279.31817,39.12398L280.03806,40.08408L280.99792,40.80415L281.47785,41.04418L281.95778,42.00428L282.67767,43.2044L283.1576,43.92447
				L283.39756,44.88457L283.87749,46.32472L284.11745,48.00489L283.87749,48.48494L284.11745,49.20501L284.35742,49.92508L283.87749,52.0853
				L284.11745,53.76547L284.35742,55.20562L284.59738,58.56596L285.31727,60.24613L285.7972,60.72618L286.75706,61.20623L287.47695,62.64638
				L287.71691,64.08652L287.95688,65.28665L287.71691,66.00672L286.03716,68.40696L285.7972,69.12704L285.55724,70.80721L285.31727,72.48738
				L285.7972,72.7274L286.27713,72.48738L286.99702,72.7274L287.47695,72.96743L287.95688,73.6875L288.19684,74.6476L288.43681,74.88762
				L288.91673,74.6476L289.1567,73.6875L290.35652,71.04723L291.31637,69.36706L291.7963,68.88701L292.27623,68.88701L293.47605,69.36706
				L294.67587,68.40696L296.11566,68.16694L296.35562,68.16694L296.83555,68.40696L297.07551,68.40696L297.55544,68.64699L297.7954,69.12704
				L298.75526,71.28726L298.99522,72.24735L299.23519,72.48738L299.71512,72.96743L299.95508,72.96743L300.19504,73.20745L301.1549,73.6875
				L301.1549,74.16755L301.1549,75.12765L300.67497,75.6077L300.67497,76.08774L300.91494,77.04784L300.91494,77.76792L300.19504,80.16816
				L299.47515,81.12826L298.99522,81.84833L298.27533,83.04845L298.27533,84.4886L297.55544,85.20867L297.31548,86.64882L297.31548,87.36889
				L297.55544,88.32899L298.03537,88.56902L298.27533,88.56902L298.75526,88.08897L299.23519,87.60892L299.71512,87.36889L300.43501,87.12887
				L301.39486,87.36889L302.35472,87.36889L302.83465,87.36889L304.27443,87.36889L304.99433,87.84894L304.99433,88.08897L304.03447,89.52911
				L303.31458,91.44931L303.07461,91.92936L303.31458,92.40941L303.79451,92.88945L305.23429,93.3695L305.71422,93.60953L305.95418,94.08958
				L306.19415,94.56963L306.19415,95.2897L304.99433,96.96987L304.75436,97.68994L304.5144,98.65004L304.5144,98.89007L304.5144,99.13009
				L304.75436,99.61014L305.23429,99.85016L306.43411,100.33021L306.91404,100.33021L308.11386,100.57024L309.55364,101.29031L312.91314,103.93058
				L313.63303,105.1307L313.39307,105.61075L312.67318,105.85077L311.71332,106.0908L310.75346,106.57085L310.27354,107.0509L309.55364,109.69116
				L309.07372,111.13131L309.07372,112.33143L309.31368,113.29153L309.79361,113.77158L310.27354,114.0116L310.99343,114.25163L
				311.47336,114.49165L312.19325,114.9717L312.67318,115.69178L312.91314,116.65187L312.91314,118.33204L313.1531,118.57207L313.39307,119.77219
				L313.39307,120.49226L313.873,120.97231L315.07282,121.69239L315.79271,121.93241L316.5126,122.17244L317.23249,122.17244L318.19235,122.41246
				L318.43231,122.89251L318.91224,123.13253L319.39217,124.09263L319.8721,124.09263L320.11206,123.85261L320.59199,123.13253L
				320.59199,122.89251L320.83195,122.89251L321.07192,122.65248L321.79181,122.65248L322.03177,122.89251L322.03177,123.13253L
				322.03177,123.61258L323.95149,125.7728L324.91134,126.7329L325.63124,127.45297L326.11116,127.45297L326.35113,127.693L326.83106,128.65309
				L327.07102,130.33327L328.03088,131.77341L328.27084,132.73351L328.5108,133.21356L328.99073,134.17366L329.2307,134.41368L329.2307,134.89373
				L328.5108,135.6138L328.5108,136.09385L328.75077,136.33388L329.47066,136.33388L329.71062,136.81393L329.71062,137.534L330.19055,138.01405
				L330.91044,139.93424L331.15041,140.17427L331.15041,140.41429L331.63034,141.13437L332.35023,143.05456L333.07012,143.53461
				L333.55005,143.53461L334.98983,143.77463L335.70973,144.01466L336.42962,144.49471L336.90955,145.21478L337.14951,145.4548L
				337.62944,145.93485L338.10937,146.65493L338.58929,147.61502L338.82926,147.85505L339.06922,148.3351L339.30919,148.81515L339.54915,149.53522
				L339.78912,150.01527L341.2289,151.69544L341.46886,151.69544L341.94879,152.17549L342.42872,152.41551L343.14861,153.13559L
				343.38858,153.61564L343.62854,154.81576L343.62854,155.29581L343.8685,157.45603L343.8685,158.89617L345.06832,163.21661L345.06832,164.89678
				L345.54825,166.09691L346.74807,167.53705L347.228,168.49715L347.70793,168.73717L347.70793,168.9772L348.66779,168.9772L349.38768,169.69727
				L349.62764,169.69727L349.86761,169.69727L349.86761,168.25713L349.86761,167.77708L349.62764,167.29703L349.14771,167.057L348.90775,166.81698
				L348.90775,166.57695L348.90775,165.61686L348.90775,164.89678L349.62764,163.69666L349.62764,162.25652L349.62764,160.0963L
				349.62764,158.89617L349.86761,157.93608L352.02728,155.53583L352.50721,154.57573L352.74717,154.33571L354.18696,154.81576L
				354.90685,154.33571L355.38678,154.09568L356.34664,154.33571L356.82656,154.57573L357.30649,156.01588L357.54646,156.49593L
				357.78642,156.73595L358.50631,157.216L358.50631,157.45603L358.50631,159.37622L358.98624,161.53644L359.2262,165.37683L358.98624,166.33693
				L359.2262,167.29703L358.74628,168.25713L359.2262,170.17732L359.46617,170.41735L359.46617,170.65737L359.46617,170.89739L359.2262,171.37744
				L358.26635,171.85749L357.78642,173.53766L357.54646,174.73779L357.78642,174.97781L358.74628,178.8182L360.42602,181.93852L
				361.38588,183.85871L362.5857,186.49898L363.06563,186.73901L363.54556,186.97903L363.78552,187.21906L363.54556,189.85932L363.78552,190.5794
				L364.26545,191.29947L365.9452,192.73962L367.14502,193.93974L367.38498,194.17976L367.38498,194.41979L369.06473,195.61991L
				369.3047,196.33998L369.3047,197.06006L368.34484,199.22028L368.10487,199.94035L368.34484,201.3805L368.10487,204.02077L367.38498,205.70094
				L366.66509,206.42101L364.26545,207.14108L362.82567,207.14108L360.42602,207.62113L357.78642,208.34121L357.30649,208.82125
				L356.82656,209.06128L356.82656,209.3013L355.14682,210.50143L353.947,211.46152L352.74717,212.42162L352.02728,212.66165L351.78732,212.90167
				L351.30739,212.42162L351.30739,211.46152L351.54735,210.50143L351.78732,210.2614L352.26725,209.3013L352.26725,209.06128L352.98714,207.38111
				L353.46707,204.26079L354.42692,201.3805L354.66689,198.5002L355.62674,196.09996L355.86671,194.89984L355.62674,193.21967L355.38678,193.21967
				L353.70703,193.21967L352.02728,193.21967L350.34753,192.73962L349.62764,192.01954L348.18786,191.5395L345.06832,191.5395L344.82836,192.97964
				L344.82836,193.93974L345.54825,196.82003L345.78822,197.78013L345.30829,201.3805L344.82836,203.06067L344.10847,204.26079L
				343.62854,205.46091L342.42872,206.42101L341.46886,207.38111L340.02908,207.86116L339.30919,207.86116L339.54915,208.82125L
				339.78912,209.06128L340.02908,209.54133L340.74897,210.50143L340.98894,211.2215L341.2289,212.1816L342.18876,213.14169L344.5884,215.54194
				L345.30829,216.02199L345.78822,216.26201L346.26814,216.26201L347.70793,215.30191L348.18786,215.06189L348.66779,214.82187
				L348.90775,214.82187L351.06743,215.30191L352.50721,215.54194L353.46707,221.54255L353.46707,224.66287L354.18696,227.54316
				L355.38678,230.42345L355.62674,231.62358L355.38678,233.7838L355.62674,234.74389L354.66689,236.18404L353.46707,237.38416L
				349.38768,241.94463L348.18786,242.90472L346.02818,245.30497L344.82836,246.98514L344.10847,247.46519L343.8685,247.22516L343.38858,246.74511
				L341.94879,244.34487L341.2289,243.86482L336.18965,238.34426L334.02998,235.94402L331.39037,232.34365L330.91044,231.62358L
				329.71062,230.18343L329.2307,229.9434L328.03088,228.98331L327.79091,228.26323L325.39127,225.38294L324.91134,224.66287L324.43142,224.18282
				L324.19145,223.94279L323.23159,223.22272L321.31188,221.0625L315.31278,216.98209L312.67318,215.78196L310.27354,214.82187L
				307.87389,212.90167L306.19415,212.1816L305.47425,211.46152L304.99433,210.74145L304.75436,210.2614L304.03447,207.86116L303.79451,207.62113
				L303.07461,205.94096L301.87479,203.78074L300.91494,202.82064L299.71512,201.14047L299.47515,200.66042L298.99522,199.70033
				L298.5153,198.98025L298.27533,198.26018L298.03537,196.58001L297.31548,195.85994L296.59558,195.37989L294.43591,194.89984L
				292.03627,194.17976L292.51619,193.69972L292.75616,192.97964L292.75616,192.01954L292.75616,190.81942L292.51619,188.89923L
				291.55634,187.45908L291.31637,187.45908L291.31637,187.21906L292.51619,185.05884L292.75616,184.57879L292.75616,184.33876L
				292.27623,184.33876L291.55634,184.09874L290.83645,183.85871L290.83645,183.37866L291.31637,182.89862L291.55634,182.41857L
				292.03627,181.21845L292.75616,180.01832L292.75616,179.53827L292.27623,178.57818L292.27623,176.65798L291.55634,175.93791L
				291.07641,174.97781L290.83645,174.73779L290.59648,174.01771L290.11655,173.77769L289.1567,173.77769L288.67677,173.53766L288.67677,173.05761
				L289.39666,171.37744L289.87659,170.41735L289.63663,168.49715L289.87659,166.57695L289.87659,166.09691L288.67677,162.01649
				L288.19684,160.0963L287.95688,159.1362L287.47695,158.1761L286.99702,156.2559L285.7972,155.05578L285.7972,154.57573L285.7972,154.09568
				L285.7972,153.85566L284.83734,153.37561L284.83734,153.13559L285.31727,151.69544L285.07731,150.97537L285.55724,150.01527L
				285.55724,149.77524L284.59738,149.05517L284.59738,148.57512L284.83734,148.3351L285.55724,147.85505L285.55724,146.65493L286.03716,145.93485
				L286.51709,145.69483L286.27713,145.21478L286.03716,144.49471L285.7972,144.01466L286.51709,143.53461L286.75706,143.29459L
				286.51709,142.81454L286.03716,141.61441L285.07731,140.89434L284.83734,140.17427L284.83734,139.45419L285.31727,138.25407L
				286.27713,137.77402L286.27713,137.534L285.55724,136.33388L286.27713,136.09385L286.51709,135.6138L286.03716,134.89373L286.03716,133.21356
				L285.55724,132.01344L285.31727,131.77341L284.11745,131.77341L283.1576,131.77341L282.4377,132.01344L280.51799,132.25346L275.95867,132.97353
				L275.23878,132.97353L274.27893,132.73351L273.55903,131.05334L272.11925,129.61319L271.87929,128.41307L273.07911,125.7728L
				274.03896,125.05273L274.27893,124.33266L274.03896,124.09263L273.799,123.85261L272.59918,123.37256L269.23968,122.17244L268.75975,121.93241
				L268.03986,121.93241L267.31997,121.69239L266.84004,120.97231L266.12015,119.05212L265.88018,117.37195L265.64022,116.8919L
				264.92033,116.17182L263.48054,115.21173L262.28072,114.49165L261.32087,113.53156L260.84094,112.33143L260.36101,111.85138L
				259.88108,111.37134L258.92123,110.89129L258.4413,110.17121L257.72141,108.73107L257.72141,107.53095L258.20133,107.0509L261.0809,105.37073
				L264.4404,103.93058L265.40026,104.1706L267.31997,104.65065L268.27982,104.65065L268.51979,104.41063L268.99972,104.41063L270.19954,102.97048
				L270.4395,102.25041L271.15939,102.01038L271.87929,102.01038L273.55903,101.29031L274.51889,100.09019L275.47875,98.41002L275.47875,97.68994
				L275.47875,97.20989L273.799,94.3296L273.55903,93.84955L273.55903,93.12948L273.55903,92.64943L273.799,92.16938L274.75885,91.20928
				L275.71871,89.76914L276.19864,89.28909L278.35831,88.80904L278.59828,88.80904L278.83824,88.08897L278.59828,87.84894L276.4386,87.12887
				L275.47875,86.88884L274.99882,86.64882L274.03896,85.4487L273.55903,85.20867L272.59918,84.72862L271.87929,84.4886L271.15939,84.4886
				L270.19954,84.24858L268.75975,82.5684L268.27982,82.32838L267.7999,82.08836L267.08,81.84833L266.36011,81.84833L263.96047,82.5684
				L263.24058,82.80843L261.56083,84.00855L260.84094,84.4886L259.88108,84.4886L258.92123,84.72862L258.20133,84.4886L257.24148,84.00855
				L256.04166,83.76853L255.56173,83.5285L254.60187,82.32838L254.12194,81.60831L254.12194,80.88823L254.60187,80.40818L256.52159,78.96804
				L257.00151,78.48799L257.24148,77.76792L256.76155,77.52789L256.28162,77.52789L254.84184,77.52789L254.36191,77.04784L253.88198,76.32777
				L253.88198,75.84772L254.12194,75.36767L254.60187,74.88762L255.80169,73.6875L256.04166,73.20745L255.80169,72.24735L256.04166,70.80721
				L256.52159,70.08713L257.48144,69.36706L257.72141,68.88701L257.96137,68.40696L258.4413,67.92691L260.12105,66.96682L260.84094,66.48677
				L261.32087,66.00672L261.80079,65.28665L262.28072,64.32655L262.28072,63.8465L262.76065,63.36645L263.00061,62.64638L263.48054,62.16633
				L265.40026,60.96621L264.4404,59.76608L264.4404,59.28603L264.20044,58.80599L264.4404,58.56596L264.92033,58.32594L265.16029,58.56596
				L265.64022,59.04601L265.88018,59.28603L266.36011,58.80599L266.12015,57.84589L266.36011,57.12581L267.08,56.16572L267.55993,55.44564
				L268.27982,55.20562L268.27982,54.72557L267.08,53.0454L266.36011,52.80538L265.64022,51.60525L266.36011,50.64516L265.64022,50.16511
				L265.40026,49.44503L265.88018,48.72496L265.64022,48.24491L265.64022,47.76486L265.88018,47.04479L265.64022,46.08469L265.88018,45.12459
				L265.64022,44.88457L264.20044,44.88457L263.96047,44.64454L263.96047,44.1645L264.4404,43.68445L264.20044,43.2044L263.96047,42.96437
				L263.00061,42.72435L263.00061,42.48432L263.00061,42.00428L262.76065,41.52423L261.56083,40.80415L261.32087,40.3241L261.0809,39.36401
				L261.32087,38.64393L262.04076,37.68384L262.28072,37.20379L262.04076,36.24369L262.28072,35.28359L262.04076,34.80354L261.56083,34.56352
				L260.84094,33.84345L260.60097,33.12337L260.60097,31.92325L260.84094,30.72313L261.0809,29.28298L261.32087,29.28298z"/>
			<path clip-path="url(#SVG_CP_1)" fill="#73B273" fill-rule="evenodd" stroke="#000000" stroke-width="0.95986" stroke-miterlimit="10" stroke-linecap="round" stroke-linejoin="round" d="
				M404.33945,238.10423L405.2993,238.34426L406.25916,238.10423L407.21902,237.86421L407.45898,237.86421L407.69895,237.86421L
				410.33855,237.86421L411.77833,238.34426L413.45808,238.58428L415.13783,238.58428L416.81758,239.06433L418.73729,239.30436L
				418.97726,239.30436L420.657,240.02443L421.13693,240.26445L423.77654,240.98453L424.25647,241.22455L426.65611,242.90472L426.89607,243.38477
				L426.89607,244.58489L426.89607,247.22516L426.89607,248.42529L426.41614,252.26568L426.17618,253.22577L425.69625,254.66592
				L424.97636,255.38599L424.97636,255.62602L423.53657,256.10607L423.29661,256.34609L422.81668,256.34609L422.09679,256.34609
				L420.41704,256.10607L418.49733,256.10607L418.0174,256.34609L416.09769,257.06616L415.3778,257.54621L415.13783,258.02626L412.49823,258.26629
				L411.53837,260.90656L411.05844,261.3866L410.81848,263.54682L410.57851,266.42712L410.33855,268.58734L410.33855,269.30741L
				409.61866,274.58795L409.61866,276.50814L409.61866,277.46824L409.13873,279.86849L409.13873,280.10851L409.13873,281.54866L
				408.89877,282.74878L407.69895,286.82919L406.73909,288.98941L405.53927,290.66959L405.05934,291.62968L404.81938,291.38966L
				403.61956,290.18954L402.89966,288.74939L400.73999,285.62907L400.50002,285.62907L400.0201,285.38905L399.06024,284.66897L398.10038,283.46885
				L395.94071,279.62846L395.22081,278.90839L394.98085,278.66836L393.06114,276.02809L392.58121,274.82797L392.34125,274.1079L
				392.10128,271.94768L392.34125,266.66714L392.58121,264.50692L393.54107,264.02687L395.46078,263.54682L395.94071,263.54682L
				397.38049,263.3068L399.3002,262.3467L400.50002,262.10668L400.97995,254.4259L401.45988,251.5456L401.45988,250.82553L401.45988,250.58551
				L401.45988,249.38538L401.21992,248.66531L400.73999,248.90533L400.26006,248.90533L398.58031,248.42529L395.94071,247.70521
				L395.46078,247.70521L394.74089,247.46519L394.50092,247.22516L394.50092,246.98514L395.46078,245.06494L395.70074,244.34487
				L397.14053,242.42467L397.62045,241.7046L398.58031,239.54438L399.06024,238.10423L399.06024,237.38416L399.06024,237.14414L
				399.3002,235.94402L399.54017,235.46397L399.78013,234.98392L400.50002,235.22394L401.93981,237.14414L402.6597,237.86421L404.33945,238.10423
				L404.33945,238.10423z"/>
			<path clip-path="url(#SVG_CP_1)" fill="#73B273" fill-rule="evenodd" stroke="#000000" stroke-width="0.95986" stroke-miterlimit="10" stroke-linecap="round" stroke-linejoin="round" d="
				M387.78193,232.8237L388.50182,233.06372L389.22171,232.8237L390.42153,232.34365L391.14142,231.8636L392.82117,229.46336L393.54107,228.26323
				L393.54107,228.02321L394.26096,228.02321L397.14053,228.98331L398.34035,229.22333L400.73999,229.9434L400.73999,230.66348L
				400.0201,233.7838L399.78013,234.50387L399.78013,234.74389L399.78013,234.98392L399.54017,235.46397L399.3002,235.94402L399.06024,237.14414
				L399.06024,237.38416L399.06024,238.10423L398.58031,239.54438L397.62045,241.7046L397.14053,242.42467L395.70074,244.34487L
				395.46078,245.06494L394.50092,246.98514L394.50092,247.22516L394.74089,247.46519L395.46078,247.70521L395.94071,247.70521L
				398.58031,248.42529L400.26006,248.90533L400.73999,248.90533L401.21992,248.66531L401.45988,249.38538L401.45988,250.58551L
				401.45988,250.82553L401.45988,251.5456L400.97995,254.4259L400.50002,262.10668L399.3002,262.3467L397.38049,263.3068L395.94071,263.54682
				L395.46078,263.54682L393.54107,264.02687L392.58121,264.50692L391.14142,264.98697L389.70164,265.46702L388.74178,265.70704
				L388.50182,265.70704L387.78193,265.94707L383.9425,266.42712L381.78283,266.18709L380.58301,265.46702L380.10308,265.227L377.9434,263.78685
				L377.46347,263.78685L377.46347,263.3068L376.98355,261.86665L376.50362,260.18648L376.26365,259.22638L376.26365,258.02626L
				376.26365,252.74573L376.26365,252.02565L375.78372,249.86543L375.54376,249.38538L374.5839,248.42529L372.66419,246.74511L372.42423,246.02504
				L372.66419,244.82492L373.14412,243.38477L373.14412,243.14475L372.90416,242.90472L372.90416,242.6647L371.70434,241.94463L
				370.50452,241.22455L367.62495,240.02443L365.46527,238.58428L362.34574,236.66409L361.38588,236.42406L357.78642,234.98392L
				357.30649,234.50387L356.34664,234.02382L359.2262,231.14353L360.42602,229.70338L360.90595,229.22333L361.14592,228.98331L362.34574,228.26323
				L364.02549,227.78318L368.5848,225.62296L370.74448,225.14292L374.10398,223.70277L378.18337,221.78257L378.90326,221.54255L
				379.62315,221.54255L382.26275,220.34243L383.9425,219.38233L384.18247,219.38233L384.42243,219.38233L384.6624,220.34243L384.6624,221.0625
				L384.42243,223.94279L383.70254,226.58306L383.70254,227.30314L385.86222,228.26323L386.10218,228.50326L386.58211,229.46336
				L386.82207,230.42345L387.06204,231.8636L387.302,232.58367L387.78193,232.8237z"/>
		</g>
		<g id="Labels">
			<g id="NEPAL_WARDS_-_Default">
				<g font-family="'Arial'" font-size="1" kerning="0" font-weight="400" fill="#000000" clip-path="url(#SVG_CP_1)" >
					<text text-anchor="start" transform="matrix(11.9982 0 0 12.00122 455.57178 301.3277)" >
						<tspan direction="ltr" unicode-bidi="embed" x="0 ">1</tspan>
					</text>
				</g>
				<g font-family="'Arial'" font-size="1" kerning="0" font-weight="400" fill="#000000" clip-path="url(#SVG_CP_1)" >
					<text text-anchor="start" transform="matrix(11.9982 0 0 12.00122 310.5135 167.87412)" >
						<tspan direction="ltr" unicode-bidi="embed" x="0 ">1</tspan>
						<tspan direction="ltr" unicode-bidi="embed" x="0.48012 ">1</tspan>
					</text>
				</g>
				<g font-family="'Arial'" font-size="1" kerning="0" font-weight="400" fill="#000000" clip-path="url(#SVG_CP_1)" >
					<text text-anchor="start" transform="matrix(11.9982 0 0 12.00122 342.5487 111.22835)" >
						<tspan direction="ltr" unicode-bidi="embed" x="0 ">1</tspan>
						<tspan direction="ltr" unicode-bidi="embed" x="0.54014 ">2</tspan>
					</text>
				</g>
				<g font-family="'Arial'" font-size="1" kerning="0" font-weight="400" fill="#000000" clip-path="url(#SVG_CP_1)" >
					<text text-anchor="start" transform="matrix(11.9982 0 0 12.00122 380.46302 197.39712)" >
						<tspan direction="ltr" unicode-bidi="embed" x="0 ">9</tspan>
					</text>
				</g>
				<g font-family="'Arial'" font-size="1" kerning="0" font-weight="400" fill="#000000" clip-path="url(#SVG_CP_1)" >
					<text text-anchor="start" transform="matrix(11.9982 0 0 12.00122 435.89472 118.66911)" >
						<tspan direction="ltr" unicode-bidi="embed" x="0 ">6</tspan>
					</text>
				</g>
				<g font-family="'Arial'" font-size="1" kerning="0" font-weight="400" fill="#000000" clip-path="url(#SVG_CP_1)" >
					<text text-anchor="start" transform="matrix(11.9982 0 0 12.00122 462.53073 154.9128)" >
						<tspan direction="ltr" unicode-bidi="embed" x="0 ">5</tspan>
					</text>
				</g>
				<g font-family="'Arial'" font-size="1" kerning="0" font-weight="400" fill="#000000" clip-path="url(#SVG_CP_1)" >
					<text text-anchor="start" transform="matrix(11.9982 0 0 12.00122 439.01426 193.55673)" >
						<tspan direction="ltr" unicode-bidi="embed" x="0 ">4</tspan>
					</text>
				</g>
				<g font-family="'Arial'" font-size="1" kerning="0" font-weight="400" fill="#000000" clip-path="url(#SVG_CP_1)" >
					<text text-anchor="start" transform="matrix(11.9982 0 0 12.00122 414.29796 182.27558)" >
						<tspan direction="ltr" unicode-bidi="embed" x="0 ">8</tspan>
					</text>
				</g>
				<g font-family="'Arial'" font-size="1" kerning="0" font-weight="400" fill="#000000" clip-path="url(#SVG_CP_1)" >
					<text text-anchor="start" transform="matrix(11.9982 0 0 12.00122 411.41839 132.83055)" >
						<tspan direction="ltr" unicode-bidi="embed" x="0 ">7</tspan>
					</text>
				</g>
				<g font-family="'Arial'" font-size="1" kerning="0" font-weight="400" fill="#000000" clip-path="url(#SVG_CP_1)" >
					<text text-anchor="start" transform="matrix(11.9982 0 0 12.00122 381.90281 247.3222)" >
						<tspan direction="ltr" unicode-bidi="embed" x="0 ">3</tspan>
					</text>
				</g>
				<g font-family="'Arial'" font-size="1" kerning="0" font-weight="400" fill="#000000" clip-path="url(#SVG_CP_1)" >
					<text text-anchor="start" transform="matrix(11.9982 0 0 12.00122 402.77968 262.92379)" >
						<tspan direction="ltr" unicode-bidi="embed" x="0 ">2</tspan>
					</text>
				</g>
				<g font-family="'Arial'" font-size="1" kerning="0" font-weight="400" fill="#000000" clip-path="url(#SVG_CP_1)" >
					<text text-anchor="start" transform="matrix(11.9982 0 0 12.00122 416.21767 231.72062)" >
						<tspan direction="ltr" unicode-bidi="embed" x="0 ">1</tspan>
						<tspan direction="ltr" unicode-bidi="embed" x="0.54014 ">0</tspan>
					</text>
				</g>
			</g>
		</g>
	</g>
</svg>
