<?xml version="1.0" encoding="utf-8" standalone="no"?>
<!-- Creator: Esri ArcMap 10.6.1.9270 -->
<!DOCTYPE svg PUBLIC "-//W3C//DTD SVG 1.1//EN"  "http://www.w3.org/Graphics/SVG/1.1/DTD/svg11.dtd">
<svg width="813.74173pt" height="434.23937pt" viewBox="0 0 813.74173 434.23937" enable-background="new 0 0 813.74173 434.23937"
	version="1.1" xmlns="http://www.w3.org/2000/svg" xmlns:xlink="http://www.w3.org/1999/xlink" >
	<g id="Layers">
		<g id="NEPAL_WARDS">
			<clipPath id="SVG_CP_1">
				<path d="M0,434.23937L0,0L813.74173,0L813.74173,434.23937L0,434.23937z"/>
			</clipPath>
			<path clip-path="url(#SVG_CP_1)" fill="#73B273" fill-rule="evenodd" stroke="#000000" stroke-width="0.95986" stroke-miterlimit="10" stroke-linecap="round" stroke-linejoin="round" d="
				M326.59109,133.45358L326.83106,133.45358L328.03088,133.45358L331.15041,135.13375L332.83016,135.6138L333.55005,135.85383L
				334.50991,135.13375L337.14951,135.85383L339.30919,137.05395L339.78912,137.05395L340.74897,137.05395L342.18876,135.85383L
				343.14861,134.65371L344.34843,133.93363L346.02818,133.69361L346.74807,133.69361L347.94789,133.69361L348.90775,133.93363L
				349.86761,134.17366L350.5875,134.65371L351.54735,135.37378L352.26725,136.33388L352.50721,136.5739L352.74717,136.5739L353.46707,138.25407
				L354.90685,139.93424L354.66689,140.41429L355.14682,141.37439L356.10667,143.05456L356.5866,143.77463L356.82656,144.73473L
				358.02638,145.69483L358.26635,146.17488L358.98624,148.09507L358.98624,148.81515L358.98624,149.2952L359.2262,150.25529L359.46617,150.49532
				L359.2262,150.97537L358.98624,151.45542L359.70613,151.93546L360.18606,152.41551L361.38588,153.13559L361.62585,153.37561L
				361.62585,153.85566L362.5857,154.57573L363.06563,154.81576L364.02549,155.53583L364.74538,156.01588L364.98534,156.2559L366.18516,156.97598
				L366.66509,157.45603L367.14502,157.93608L367.14502,158.65615L367.62495,159.1362L368.34484,160.33632L369.3047,161.29642L370.02459,161.53644
				L370.02459,162.01649L371.22441,162.73656L371.70434,163.21661L372.18426,164.41673L372.66419,166.09691L373.38408,167.057L374.34394,168.25713
				L374.5839,168.49715L374.82387,170.41735L375.06383,171.37744L375.3038,171.85749L375.78372,173.05761L376.02369,173.05761L376.02369,174.01771
				L376.02369,175.93791L376.74358,178.09813L376.74358,178.33815L376.74358,179.29825L377.22351,179.53827L376.74358,180.97842
				L377.22351,181.69849L378.42333,183.37866L379.14322,184.33876L380.10308,185.05884L380.34304,185.53888L380.58301,187.21906
				L381.06293,188.17915L381.3029,188.6592L381.54286,188.6592L381.54286,189.13925L381.54286,190.5794L381.78283,191.77952L381.78283,193.21967
				L382.02279,193.69972L382.02279,194.17976L382.50272,194.65981L382.98265,194.89984L383.70254,195.13986L385.14232,195.85994
				L385.62225,196.09996L386.82207,196.82003L387.54196,197.06006L388.26186,197.30008L389.70164,198.26018L389.9416,198.26018L
				390.90146,198.98025L391.86132,199.4603L392.34125,199.70033L393.06114,199.94035L394.02099,200.66042L394.50092,201.14047L395.70074,201.3805
				L395.94071,201.62052L397.14053,202.58062L397.62045,203.54072L398.10038,204.50081L398.10038,204.74084L398.10038,205.22089
				L398.10038,205.46091L398.34035,205.94096L398.58031,206.66103L398.58031,206.90106L398.82028,207.14108L398.58031,207.38111
				L398.58031,207.86116L398.10038,208.34121L398.10038,209.3013L398.34035,209.54133L398.58031,210.50143L398.82028,211.2215L399.06024,211.2215
				L399.54017,211.70155L400.50002,211.70155L400.97995,211.94157L401.45988,211.94157L401.69984,212.1816L401.45988,212.90167L
				401.45988,213.38172L400.73999,213.62174L399.3002,213.86177L398.10038,214.10179L397.38049,214.10179L396.42063,213.14169L396.18067,213.62174
				L395.46078,214.10179L394.26096,214.10179L393.54107,213.86177L393.06114,214.34182L392.10128,215.30191L391.14142,216.26201
				L389.9416,217.46213L388.74178,217.94218L387.302,218.42223L385.86222,218.90228L384.6624,219.1423L383.22261,219.86238L381.78283,220.34243
				L380.34304,221.54255L378.90326,222.74267L377.46347,223.70277L376.02369,224.42284L374.5839,224.42284L374.10398,224.18282L
				373.62405,223.94279L372.42423,222.9827L371.46437,222.26262L370.02459,221.30252L369.78462,221.54255L368.82477,221.54255L367.62495,222.0226
				L366.66509,223.22272L365.70523,224.18282L364.98534,225.14292L364.26545,225.86299L364.02549,226.10301L362.5857,226.34304L
				360.90595,226.58306L359.9461,227.06311L358.98624,228.26323L358.26635,229.46336L358.02638,229.46336L357.06653,229.70338L355.86671,230.18343
				L355.38678,230.42345L353.70703,230.42345L353.2271,230.9035L352.74717,231.14353L351.78732,232.10362L351.54735,232.34365L351.06743,232.34365
				L350.5875,233.06372L350.34753,233.06372L349.86761,233.54377L349.38768,233.7838L348.42782,234.26384L347.94789,234.50387L347.228,234.98392
				L346.74807,235.22394L346.50811,235.22394L346.02818,235.22394L345.54825,234.50387L345.06832,234.50387L344.82836,234.02382
				L344.5884,233.7838L344.82836,233.06372L345.06832,232.34365L345.06832,232.10362L345.78822,230.66348L345.78822,230.42345L345.78822,230.18343
				L345.78822,229.46336L345.78822,228.50326L345.54825,228.26323L345.54825,227.78318L345.54825,227.06311L345.30829,226.82309
				L345.06832,226.10301L345.06832,224.42284L345.06832,224.18282L345.06832,223.94279L344.82836,223.22272L345.06832,222.26262
				L345.54825,220.58245L345.54825,219.62235L345.54825,219.38233L346.26814,218.42223L346.50811,217.94218L346.26814,217.22211
				L346.50811,216.98209L346.74807,216.26201L346.74807,215.78196L346.50811,214.82187L346.50811,214.34182L346.50811,213.62174
				L346.50811,213.14169L346.50811,212.66165L346.50811,211.46152L345.78822,209.78135L345.78822,209.3013L346.26814,208.58123L
				346.50811,208.34121L346.74807,208.34121L346.98804,207.62113L346.98804,206.66103L347.228,205.94096L347.228,204.98086L347.228,204.26079
				L347.228,203.78074L346.98804,203.30069L346.74807,202.58062L346.50811,202.10057L346.26814,201.86055L345.54825,200.90045L345.54825,200.66042
				L345.54825,200.18037L345.30829,199.94035L345.06832,199.22028L345.06832,198.5002L345.06832,198.26018L345.06832,198.02016L
				345.06832,197.78013L344.5884,197.54011L344.34843,197.06006L344.10847,196.82003L343.8685,196.58001L343.38858,196.09996L343.14861,195.85994
				L342.90865,195.61991L342.66868,195.37989L342.42872,194.89984L342.18876,194.65981L342.18876,194.17976L342.18876,193.69972
				L341.94879,193.45969L341.94879,192.97964L341.70883,192.73962L341.70883,192.49959L341.46886,192.01954L341.2289,191.29947L
				340.74897,190.5794L340.50901,190.09935L340.26904,190.09935L340.26904,189.6193L340.26904,189.13925L340.26904,188.6592L340.26904,188.17915
				L340.02908,187.93913L339.78912,186.97903L339.78912,185.77891L339.78912,185.53888L339.78912,184.81881L339.78912,184.09874
				L340.02908,184.09874L339.54915,183.61869L339.54915,182.65859L339.54915,182.41857L339.30919,181.93852L339.06922,181.21845
				L338.58929,180.25835L338.34933,179.53827L338.10937,178.8182L338.10937,178.57818L337.8694,178.57818L337.38947,178.33815L337.14951,178.09813
				L336.90955,178.09813L336.66958,178.09813L336.18965,177.8581L335.46976,178.09813L334.74987,178.09813L334.50991,178.09813L
				334.02998,178.09813L333.79001,178.09813L333.55005,177.8581L333.31009,177.8581L332.83016,177.61808L332.35023,177.37805L331.8703,177.37805
				L331.39037,177.13803L331.15041,176.89801L330.91044,176.89801L330.67048,176.65798L330.43052,176.41796L330.19055,176.41796
				L329.71062,176.17793L328.99073,176.17793L328.5108,176.17793L327.79091,176.17793L327.55095,176.17793L327.31098,176.17793L
				326.59109,176.41796L326.11116,176.41796L325.15131,176.17793L324.67138,176.17793L324.43142,175.93791L323.95149,175.93791L
				323.71152,175.93791L323.23159,176.17793L322.75167,176.41796L322.5117,176.65798L322.27174,176.89801L321.79181,177.13803L321.31188,176.89801
				L321.07192,176.89801L320.83195,177.13803L320.35203,177.13803L319.8721,177.37805L319.63213,177.37805L319.15221,177.61808L
				318.91224,177.8581L318.43231,177.8581L317.95239,178.09813L317.71242,178.09813L316.99253,178.57818L316.75257,178.8182L316.03267,179.53827
				L315.79271,179.7783L315.31278,180.01832L315.07282,180.25835L314.83285,180.49837L314.35292,180.7384L314.11296,180.7384L313.39307,180.97842
				L312.91314,180.97842L312.43321,180.97842L311.95328,180.97842L311.47336,180.97842L310.75346,180.97842L309.79361,180.97842
				L309.31368,180.97842L308.83375,180.7384L308.35382,180.7384L307.87389,180.97842L307.154,180.97842L306.67407,180.97842L306.43411,180.97842
				L306.19415,181.21845L305.71422,181.45847L305.47425,181.45847L305.23429,181.45847L304.75436,181.45847L304.5144,181.45847L
				304.27443,181.45847L304.03447,181.45847L303.55454,181.21845L303.07461,181.21845L302.35472,181.21845L302.11476,181.21845L
				301.39486,181.45847L300.43501,181.45847L299.71512,181.69849L299.23519,181.93852L298.5153,181.93852L298.03537,181.93852L297.31548,181.93852
				L296.35562,182.41857L295.63573,182.65859L293.23609,183.85871L292.27623,183.37866L292.03627,182.89862L291.55634,181.21845
				L290.83645,179.29825L290.59648,178.33815L290.35652,177.13803L290.11655,176.41796L289.63663,175.21783L289.87659,175.21783
				L292.03627,174.49776L293.47605,173.77769L294.91584,173.05761L296.35562,172.57757L297.07551,171.85749L297.7954,171.37744L
				298.27533,170.41735L298.5153,169.9373L298.5153,168.73717L298.75526,168.25713L299.47515,167.057L301.1549,165.37683L301.39486,163.93669
				L302.35472,162.73656L303.55454,160.81637L304.27443,159.85627L304.75436,158.89617L305.23429,158.41612L305.47425,158.41612
				L306.67407,157.216L307.63393,156.2559L307.87389,155.29581L307.87389,154.57573L307.39397,153.85566L307.39397,152.89556L307.63393,151.93546
				L307.87389,151.45542L308.83375,150.01527L309.55364,149.05517L309.55364,148.57512L310.75346,148.57512L311.95328,148.3351L
				312.91314,147.85505L313.873,147.375L314.59289,146.4149L315.31278,145.4548L316.03267,144.73473L316.27264,144.73473L316.27264,143.53461
				L316.5126,142.57451L316.75257,141.61441L316.5126,140.41429L316.75257,140.17427L316.27264,139.93424L315.55274,139.45419L314.83285,138.73412
				L314.11296,138.25407L314.11296,137.534L315.07282,135.37378L316.27264,133.69361L316.5126,133.69361L317.71242,133.69361L318.91224,133.69361
				L320.11206,133.45358L322.75167,132.97353L323.71152,132.97353L324.67138,132.97353L325.39127,132.97353L325.8712,132.97353L
				326.59109,132.97353L326.59109,133.45358z"/>
			<path clip-path="url(#SVG_CP_1)" fill="#73B273" fill-rule="evenodd" stroke="#000000" stroke-width="0.95986" stroke-miterlimit="10" stroke-linecap="round" stroke-linejoin="round" d="
				M341.94879,192.97964L341.94879,193.45969L342.18876,193.69972L342.18876,194.17976L342.18876,194.65981L342.42872,194.89984
				L342.66868,195.37989L342.90865,195.61991L343.14861,195.85994L343.38858,196.09996L343.8685,196.58001L344.10847,196.82003L
				344.34843,197.06006L344.5884,197.54011L345.06832,197.78013L345.06832,198.02016L345.06832,198.26018L345.06832,198.5002L345.06832,199.22028
				L345.30829,199.94035L345.54825,200.18037L345.54825,200.66042L345.54825,200.90045L346.26814,201.86055L346.50811,202.10057
				L346.74807,202.58062L346.98804,203.30069L347.228,203.78074L347.228,204.26079L347.228,204.98086L347.228,205.94096L346.98804,206.66103
				L346.98804,207.62113L346.74807,208.34121L346.50811,208.34121L346.26814,208.58123L345.78822,209.3013L345.78822,209.78135L
				346.50811,211.46152L346.50811,212.66165L346.50811,213.14169L346.50811,213.62174L346.50811,214.34182L346.50811,214.82187L
				346.74807,215.78196L346.74807,216.26201L346.50811,216.98209L346.26814,217.22211L346.50811,217.94218L346.26814,218.42223L
				345.54825,219.38233L345.54825,219.62235L345.54825,220.58245L345.06832,222.26262L344.82836,223.22272L345.06832,223.94279L
				345.06832,224.18282L345.06832,224.42284L345.06832,226.10301L345.30829,226.82309L345.54825,227.06311L345.54825,227.78318L
				345.54825,228.26323L345.78822,228.50326L345.78822,229.46336L345.78822,230.18343L345.78822,230.42345L345.78822,230.66348L
				345.06832,232.10362L345.06832,232.34365L344.82836,233.06372L344.5884,233.7838L344.82836,234.02382L345.06832,234.50387L345.54825,234.50387
				L346.02818,235.22394L346.50811,235.22394L346.74807,235.22394L347.228,234.98392L347.94789,234.50387L348.42782,234.26384L349.38768,233.7838
				L349.86761,233.54377L350.34753,233.06372L350.5875,233.06372L351.06743,232.34365L351.54735,232.34365L351.78732,232.10362L
				352.74717,231.14353L353.2271,230.9035L353.70703,230.42345L355.38678,230.42345L355.86671,230.18343L357.06653,229.70338L358.02638,229.46336
				L358.26635,229.46336L358.74628,229.9434L358.74628,230.42345L360.66599,231.14353L361.14592,231.8636L361.62585,232.58367L361.86581,233.54377
				L362.34574,233.7838L362.5857,234.26384L363.54556,234.98392L363.78552,235.22394L364.74538,237.14414L364.98534,237.38416L365.70523,239.06433
				L366.18516,239.54438L366.42513,240.02443L366.42513,240.50448L366.18516,240.7445L365.9452,242.18465L365.9452,243.6248L364.98534,245.30497
				L363.78552,246.26507L363.30559,246.98514L362.5857,247.94524L362.10577,249.38538L361.62585,250.10546L361.62585,251.5456L362.10577,253.22577
				L362.10577,254.4259L362.34574,256.10607L362.82567,257.30619L363.06563,257.54621L363.06563,257.78624L363.54556,260.42651L
				363.78552,262.3467L362.82567,263.78685L362.10577,264.2669L361.38588,265.46702L360.18606,266.66714L360.18606,266.90717L359.2262,266.42712
				L358.02638,264.50692L357.54646,263.54682L357.54646,262.58673L357.06653,262.3467L355.38678,259.46641L354.90685,258.98636L
				354.90685,258.74634L353.947,257.30619L352.50721,255.86604L352.02728,255.62602L351.54735,255.14597L350.82746,254.90594L349.62764,254.4259
				L348.66779,253.70582L346.98804,251.78563L346.74807,251.78563L346.50811,251.5456L345.30829,251.06555L344.34843,250.82553L
				343.62854,250.58551L343.38858,250.34548L341.46886,249.86543L337.8694,248.90533L337.38947,248.42529L336.90955,247.94524L336.42962,246.74511
				L335.46976,245.30497L335.2298,245.06494L335.2298,244.58489L334.98983,244.10485L334.26994,243.14475L333.55005,243.38477L332.35023,243.86482
				L331.8703,244.34487L330.43052,245.78502L328.99073,247.22516L328.27084,247.70521L326.83106,248.42529L326.35113,248.66531L
				325.8712,248.90533L324.67138,248.90533L323.71152,248.90533L323.47156,248.18526L322.99163,247.22516L322.99163,246.98514L322.99163,244.82492
				L322.99163,243.86482L322.75167,242.18465L322.5117,240.02443L322.5117,239.30436L321.79181,236.90411L321.07192,235.46397L320.83195,234.02382
				L320.83195,233.30375L320.83195,232.58367L321.31188,229.70338L321.55185,228.74328L322.27174,227.54316L323.95149,224.90289
				L324.43142,225.38294L327.31098,228.02321L329.47066,229.9434L332.83016,232.34365L334.02998,233.06372L334.74987,232.10362L
				336.42962,230.9035L336.90955,228.98331L337.38947,227.30314L336.90955,225.62296L336.66958,224.42284L335.94969,223.22272L335.46976,221.54255
				L335.2298,218.18221L335.2298,216.50204L334.98983,214.10179L334.26994,210.98147L333.79001,206.90106L334.26994,204.02077L334.02998,201.86055
				L333.31009,196.33998L333.55005,195.85994L334.26994,195.37989L335.46976,195.37989L336.42962,194.89984L337.8694,194.41979L
				338.82926,194.17976L339.06922,194.17976L339.54915,193.93974L339.78912,193.69972L340.26904,193.69972L340.74897,193.21967L
				341.2289,192.97964L341.70883,192.97964L341.94879,192.97964z"/>
			<path clip-path="url(#SVG_CP_1)" fill="#73B273" fill-rule="evenodd" stroke="#000000" stroke-width="0.95986" stroke-miterlimit="10" stroke-linecap="round" stroke-linejoin="round" d="
				M341.94879,192.97964L341.70883,192.97964L341.2289,192.97964L340.74897,193.21967L340.26904,193.69972L339.78912,193.69972L
				339.54915,193.93974L339.06922,194.17976L338.82926,194.17976L337.8694,194.41979L336.42962,194.89984L335.46976,195.37989L334.26994,195.37989
				L333.55005,195.85994L333.31009,196.33998L334.02998,201.86055L334.26994,204.02077L333.79001,206.90106L334.26994,210.98147
				L334.98983,214.10179L335.2298,216.50204L335.2298,218.18221L335.46976,221.54255L335.94969,223.22272L336.66958,224.42284L336.90955,225.62296
				L337.38947,227.30314L336.90955,228.98331L336.42962,230.9035L334.74987,232.10362L334.02998,233.06372L332.83016,232.34365L
				329.47066,229.9434L327.31098,228.02321L324.43142,225.38294L323.95149,224.90289L324.43142,223.94279L325.39127,222.74267L326.35113,220.1024
				L326.35113,216.02199L325.8712,214.34182L324.43142,211.70155L324.19145,210.2614L324.43142,209.3013L324.67138,208.10118L324.91134,207.14108
				L324.67138,206.42101L324.67138,206.18099L324.19145,205.46091L323.23159,204.50081L322.5117,202.58062L321.79181,200.90045L
				320.11206,197.30008L319.63213,196.33998L318.91224,195.61991L317.71242,194.89984L315.79271,194.41979L314.59289,194.17976L
				314.11296,194.17976L314.11296,193.45969L313.873,192.97964L313.63303,192.25957L313.1531,192.25957L312.43321,192.25957L310.99343,192.49959
				L309.55364,192.97964L308.83375,193.21967L306.67407,193.45969L305.47425,193.21967L303.55454,192.01954L302.83465,192.01954
				L302.11476,191.5395L301.1549,190.09935L300.43501,188.41918L298.99522,186.97903L296.83555,185.53888L295.39576,184.81881L294.67587,184.33876
				L293.95598,184.33876L293.23609,183.85871L295.63573,182.65859L296.35562,182.41857L297.31548,181.93852L298.03537,181.93852
				L298.5153,181.93852L299.23519,181.93852L299.71512,181.69849L300.43501,181.45847L301.39486,181.45847L302.11476,181.21845L
				302.35472,181.21845L303.07461,181.21845L303.55454,181.21845L304.03447,181.45847L304.27443,181.45847L304.5144,181.45847L304.75436,181.45847
				L305.23429,181.45847L305.47425,181.45847L305.71422,181.45847L306.19415,181.21845L306.43411,180.97842L306.67407,180.97842
				L307.154,180.97842L307.87389,180.97842L308.35382,180.7384L308.83375,180.7384L309.31368,180.97842L309.79361,180.97842L310.75346,180.97842
				L311.47336,180.97842L311.95328,180.97842L312.43321,180.97842L312.91314,180.97842L313.39307,180.97842L314.11296,180.7384L
				314.35292,180.7384L314.83285,180.49837L315.07282,180.25835L315.31278,180.01832L315.79271,179.7783L316.03267,179.53827L316.75257,178.8182
				L316.99253,178.57818L317.71242,178.09813L317.95239,178.09813L318.43231,177.8581L318.91224,177.8581L319.15221,177.61808L319.63213,177.37805
				L319.8721,177.37805L320.35203,177.13803L320.83195,177.13803L321.07192,176.89801L321.31188,176.89801L321.79181,177.13803L
				322.27174,176.89801L322.5117,176.65798L322.75167,176.41796L323.23159,176.17793L323.71152,175.93791L323.95149,175.93791L324.43142,175.93791
				L324.67138,176.17793L325.15131,176.17793L326.11116,176.41796L326.59109,176.41796L327.31098,176.17793L327.55095,176.17793
				L327.79091,176.17793L328.5108,176.17793L328.99073,176.17793L329.71062,176.17793L330.19055,176.41796L330.43052,176.41796L
				330.67048,176.65798L330.91044,176.89801L331.15041,176.89801L331.39037,177.13803L331.8703,177.37805L332.35023,177.37805L332.83016,177.61808
				L333.31009,177.8581L333.55005,177.8581L333.79001,178.09813L334.02998,178.09813L334.50991,178.09813L334.74987,178.09813L335.46976,178.09813
				L336.18965,177.8581L336.66958,178.09813L336.90955,178.09813L337.14951,178.09813L337.38947,178.33815L337.8694,178.57818L338.10937,178.57818
				L338.10937,178.8182L338.34933,179.53827L338.58929,180.25835L339.06922,181.21845L339.30919,181.93852L339.54915,182.41857L
				339.54915,182.65859L339.54915,183.61869L340.02908,184.09874L339.78912,184.09874L339.78912,184.81881L339.78912,185.53888L
				339.78912,185.77891L339.78912,186.97903L340.02908,187.93913L340.26904,188.17915L340.26904,188.6592L340.26904,189.13925L340.26904,189.6193
				L340.26904,190.09935L340.50901,190.09935L340.74897,190.5794L341.2289,191.29947L341.46886,192.01954L341.70883,192.49959L341.70883,192.73962
				L341.94879,192.97964z"/>
			<path clip-path="url(#SVG_CP_1)" fill="#73B273" fill-rule="evenodd" stroke="#000000" stroke-width="0.95986" stroke-miterlimit="10" stroke-linecap="round" stroke-linejoin="round" d="
				M514.48295,153.13559L515.44281,153.37561L515.92274,153.61564L516.40267,153.61564L518.32238,155.53583L518.32238,156.73595
				L518.80231,157.69605L519.04227,158.65615L519.5222,159.61625L519.5222,161.77647L519.5222,163.93669L519.5222,165.37683L520.00213,166.81698
				L520.48206,168.73717L520.48206,169.21722L520.96198,170.17732L521.44191,170.89739L521.68188,172.09752L522.40177,172.81759
				L522.8817,173.53766L523.12166,174.01771L522.8817,174.25774L522.40177,175.45786L521.68188,176.41796L520.96198,177.37805L520.24209,178.33815
				L519.76216,179.05823L519.04227,179.7783L518.08241,181.21845L518.08241,181.69849L517.84245,182.41857L517.36252,183.37866L
				516.88259,183.85871L515.20285,186.49898L515.20285,186.97903L515.92274,187.93913L516.40267,189.13925L517.84245,192.01954L
				518.56234,193.45969L520.00213,197.78013L520.00213,199.22028L520.24209,199.4603L520.48206,199.4603L520.96198,199.22028L522.40177,199.4603
				L523.36162,200.66042L523.60159,201.14047L526.24119,200.66042L527.68098,201.14047L528.40087,201.3805L531.5204,202.82064L532.00033,203.30069
				L532.96019,204.74084L533.20015,206.18099L533.92004,206.90106L534.16001,207.62113L534.8799,208.58123L535.35983,209.06128L
				535.83976,210.50143L536.07972,210.98147L536.31968,212.1816L537.03958,213.14169L537.5195,213.62174L539.43922,214.58184L540.39907,216.26201
				L541.59889,216.98209L542.55875,217.46213L542.79871,217.46213L544.95839,217.94218L547.83796,218.66226L549.75767,219.1423L
				550.47756,219.38233L551.43742,219.62235L551.43742,219.38233L551.67738,218.90228L553.83706,217.94218L554.31699,217.94218L
				555.27684,218.18221L555.75677,218.42223L555.51681,219.1423L555.51681,220.34243L555.03688,221.78257L555.27684,223.22272L555.03688,225.14292
				L555.27684,226.10301L555.51681,227.06311L556.2367,228.26323L556.71663,229.22333L556.47667,230.18343L556.95659,230.9035L557.19656,231.8636
				L557.19656,232.8237L556.95659,233.7838L556.71663,234.74389L555.99674,235.46397L555.03688,236.90411L554.79692,238.10423L554.79692,239.06433
				L554.79692,240.50448L554.79692,241.94463L554.55695,243.38477L554.07702,244.58489L554.07702,245.78502L554.07702,247.46519
				L554.79692,248.90533L554.79692,250.10546L554.55695,251.06555L554.55695,251.30558L554.07702,252.5057L554.31699,253.4658L554.31699,254.66592
				L553.83706,256.58612L552.8772,257.06616L551.67738,257.06616L550.47756,256.82614L549.03778,256.58612L547.59799,256.82614L
				547.59799,257.54621L547.35803,257.54621L547.83796,258.02626L549.03778,258.74634L550.47756,259.22638L550.47756,259.46641L
				550.47756,259.94646L550.47756,260.66653L550.71753,262.10668L550.95749,263.06678L551.19746,263.78685L551.67738,264.98697L
				551.91735,265.94707L552.39728,266.90717L552.39728,267.14719L552.8772,268.58734L553.35713,270.26751L553.5971,270.74756L553.35713,271.94768
				L554.07702,274.1079L554.07702,274.58795L554.31699,275.30802L555.27684,276.50814L555.75677,277.22822L555.99674,277.94829L
				556.2367,278.66836L556.71663,279.86849L556.95659,280.58856L557.43652,281.78868L557.91645,282.26873L558.39638,283.70888L558.87631,284.909
				L559.35623,285.62907L559.83616,287.54927L559.83616,287.78929L559.83616,288.74939L559.83616,290.42956L559.83616,290.90961
				L559.83616,292.34976L560.07613,293.06983L560.31609,293.30985L560.07613,294.50998L560.31609,295.23005L560.55605,296.43017
				L560.79602,297.15024L561.03598,298.59039L561.27595,298.83042L561.51591,300.51059L561.75587,300.99064L561.75587,301.71071
				L561.99584,301.95073L561.99584,302.43078L562.2358,303.15086L562.47577,304.591L562.71573,306.75122L562.71573,307.23127L562.95569,307.71132
				L562.95569,308.19137L563.19566,308.67142L562.95569,309.39149L562.47577,311.31169L561.99584,312.03176L561.75587,312.75183
				L561.75587,313.23188L561.51591,313.95195L561.51591,314.19198L561.51591,315.15208L561.27595,315.3921L561.27595,316.11217L
				561.03598,317.3123L560.31609,318.51242L560.07613,319.23249L559.83616,318.99247L558.87631,318.27239L558.39638,318.03237L557.91645,318.51242
				L556.95659,318.75244L556.95659,318.99247L556.2367,318.99247L555.27684,319.71254L554.55695,320.43261L553.35713,321.39271L
				553.11717,321.39271L552.8772,321.39271L551.43742,321.15269L550.95749,320.91266L549.99764,320.91266L549.75767,320.91266L549.27774,320.91266
				L547.83796,320.91266L547.59799,321.15269L546.63814,321.15269L545.43832,321.63274L544.47846,321.87276L544.47846,322.11279
				L543.99853,323.07288L542.79871,325.2331L542.55875,324.99308L542.55875,324.75305L542.31879,324.27301L541.83886,323.79296L
				541.11897,323.55293L539.91914,323.31291L539.19925,323.07288L537.75947,322.35281L537.03958,321.63274L536.79961,320.19259L
				536.79961,319.47252L537.03958,318.75244L536.79961,317.55232L536.79961,317.07227L536.55965,315.87215L535.35983,314.19198L
				534.39997,313.47191L533.44011,312.75183L533.20015,312.03176L532.00033,310.83164L530.80051,309.63151L528.8808,307.4713L527.92094,306.75122
				L527.20105,306.75122L526.72112,306.5112L526.24119,304.83103L526.24119,303.87093L525.5213,303.15086L525.04137,303.15086L522.40177,303.15086
				L520.72202,301.95073L519.76216,301.71071L517.36252,300.27056L516.40267,299.79051L516.1627,299.79051L515.92274,299.79051L
				514.72292,299.55049L514.48295,299.31046L512.80321,298.83042L512.32328,298.59039L510.64353,297.87032L509.20374,297.63029L
				507.76396,297.15024L506.08421,296.43017L505.12436,296.19015L503.68457,295.47007L503.44461,294.99002L501.28493,294.26995L
				500.32507,294.02993L499.12525,293.7899L498.40536,293.54988L496.72561,292.8298L495.52579,291.86971L494.8059,291.14963L493.60608,289.46946
				L492.40626,287.78929L491.68637,285.8691L491.4464,285.38905L491.20644,284.909L491.20644,284.42895L491.4464,283.46885L491.68637,282.74878
				L490.24658,280.82858L488.8068,278.42834L488.32687,277.46824L488.08691,276.98819L487.36701,276.50814L485.92723,276.02809L
				483.76755,275.78807L482.56773,275.54805L481.84784,275.30802L481.12795,275.30802L480.64802,275.068L479.20824,274.34792L478.48834,274.1079
				L476.8086,273.62785L476.32867,273.38783L475.84874,273.38783L475.36881,273.1478L475.12885,273.1478L474.40896,272.90778L474.16899,272.90778
				L473.68906,272.66775L473.4491,272.1877L473.20913,271.94768L473.20913,271.70766L471.76935,269.78746L471.76935,269.54744L471.28942,269.30741
				L471.04946,269.30741L470.56953,268.82736L470.0896,268.34731L469.84964,268.34731L468.64982,267.14719L468.40985,267.14719L
				468.16989,267.14719L467.68996,266.90717L467.45,266.90717L467.21003,266.66714L467.21003,266.18709L466.73011,265.46702L466.49014,265.227
				L466.25018,264.74695L465.53028,264.2669L465.29032,263.78685L465.05036,263.06678L464.81039,262.82675L464.57043,261.62663L
				464.0905,259.70643L463.85054,259.22638L463.61057,258.74634L463.13064,258.26629L462.89068,258.26629L462.17079,257.78624L460.01111,257.54621
				L458.81129,257.54621L458.33136,257.78624L457.85143,258.02626L455.93172,258.02626L454.01201,257.78624L454.01201,257.54621
				L452.57223,258.02626L452.0923,258.02626L450.41255,257.54621L448.25287,256.82614L447.53298,256.82614L447.29302,256.82614L
				446.57312,257.06616L446.0932,256.82614L445.61327,256.58612L445.13334,256.34609L444.89338,256.10607L444.65341,256.10607L444.17348,256.10607
				L443.69355,256.34609L443.45359,256.58612L442.97366,257.30619L442.49373,257.30619L441.77384,257.30619L441.05395,257.78624
				L440.81399,257.78624L440.57402,258.02626L439.85413,258.26629L439.13424,258.74634L438.89427,259.22638L438.65431,259.46641
				L438.17438,259.94646L437.69445,260.18648L436.7346,260.18648L435.53478,259.94646L435.05485,259.94646L433.61506,259.94646L
				432.89517,259.94646L432.17528,260.18648L431.45539,260.66653L430.97546,259.70643L431.69535,259.22638L432.17528,258.74634L
				432.65521,258.74634L434.09499,258.02626L436.0147,256.58612L436.97456,255.62602L438.17438,253.70582L439.61417,251.30558L442.7337,248.18526
				L443.45359,247.46519L443.93352,246.74511L443.45359,246.50509L442.97366,245.78502L442.7337,245.54499L442.01381,245.30497L
				442.01381,245.06494L441.77384,245.06494L442.97366,244.34487L444.89338,243.14475L444.89338,242.6647L445.3733,242.42467L446.33316,242.18465
				L447.53298,241.94463L448.7328,241.46458L449.45269,240.7445L449.93262,240.50448L450.41255,240.02443L450.65251,239.78441L450.89248,237.86421
				L450.89248,237.62419L450.89248,237.14414L451.13244,236.42406L451.37241,235.46397L451.61237,234.98392L452.0923,234.74389L
				452.57223,233.7838L452.81219,233.06372L452.81219,232.58367L453.05215,232.10362L453.05215,231.14353L452.57223,230.66348L451.85233,230.18343
				L451.61237,230.18343L451.37241,229.9434L450.65251,229.22333L450.41255,228.50326L450.41255,227.78318L450.65251,227.06311L
				450.89248,226.58306L450.65251,225.86299L450.65251,225.62296L450.41255,225.14292L450.41255,224.42284L449.93262,223.70277L
				449.93262,223.46274L449.69266,222.9827L449.69266,222.74267L449.69266,221.78257L449.69266,221.30252L449.93262,220.34243L450.17258,218.66226
				L450.41255,218.66226L450.41255,217.70216L450.17258,217.22211L449.93262,216.26201L449.93262,216.02199L449.93262,215.78196
				L449.93262,215.30191L449.69266,213.62174L449.21273,212.66165L448.97276,212.42162L448.97276,211.70155L449.21273,211.2215L
				449.93262,210.98147L450.17258,210.74145L450.41255,210.74145L450.65251,210.2614L451.85233,209.54133L453.05215,208.34121L453.05215,208.10118
				L453.53208,207.62113L454.7319,206.90106L454.97187,206.42101L455.45179,205.94096L455.69176,205.46091L456.17169,204.98086L
				457.13154,204.26079L457.37151,204.02077L458.0914,203.30069L458.57133,203.06067L459.53118,203.06067L460.49104,202.82064L461.69086,203.06067
				L462.89068,203.06067L463.85054,203.30069L465.05036,203.54072L466.25018,203.54072L466.49014,203.54072L467.45,204.02077L468.40985,204.74084
				L469.12975,205.46091L469.60967,205.94096L470.0896,205.46091L470.80949,204.50081L471.28942,204.02077L472.48924,203.30069L
				473.4491,202.58062L473.68906,201.62052L473.92903,200.18037L474.16899,199.4603L474.40896,198.26018L474.88888,197.78013L475.36881,197.30008
				L475.60878,196.82003L475.84874,194.89984L476.0887,193.69972L476.56863,192.97964L476.32867,192.25957L476.8086,191.5395L477.04856,190.81942
				L477.04856,189.85932L477.52849,188.6592L477.76845,187.93913L478.00842,186.49898L478.24838,185.29886L478.72831,184.33876L
				478.96827,182.89862L479.20824,181.69849L479.92813,180.49837L480.88798,179.53827L481.84784,178.57818L482.56773,177.61808L
				483.76755,176.65798L484.24748,175.69788L485.20734,175.21783L485.92723,174.49776L487.12705,174.01771L487.84694,173.53766L
				488.8068,172.81759L490.00662,172.57757L490.72651,172.57757L491.4464,172.33754L491.68637,171.85749L492.1663,171.61747L493.36612,171.37744
				L494.32597,171.37744L495.28583,171.13742L496.48565,170.65737L497.20554,169.9373L498.64533,168.9772L499.60518,167.77708L500.08511,166.57695
				L500.56504,165.37683L501.28493,164.65676L501.76486,164.41673L501.76486,163.21661L502.48475,162.25652L502.96468,161.29642
				L502.96468,160.0963L502.48475,159.1362L502.00482,158.1761L501.28493,156.49593L500.32507,155.29581L499.36522,154.33571L499.36522,153.61564
				L499.36522,152.65554L499.60518,151.69544L500.32507,151.21539L500.805,150.01527L501.28493,149.05517L501.76486,147.85505L502.96468,145.93485
				L504.1645,144.73473L505.12436,143.77463L506.08421,143.05456L506.56414,144.25468L507.524,146.17488L508.00392,148.09507L508.48385,150.01527
				L508.72382,150.73534L509.68367,151.21539L512.32328,152.17549L513.76306,153.13559L514.48295,153.13559z"/>
			<path clip-path="url(#SVG_CP_1)" fill="#73B273" fill-rule="evenodd" stroke="#000000" stroke-width="0.95986" stroke-miterlimit="10" stroke-linecap="round" stroke-linejoin="round" d="
				M438.17438,120.25224L439.85413,120.73229L442.01381,120.97231L444.41345,121.45236L445.3733,121.93241L446.33316,122.41246L
				447.53298,123.37256L448.01291,123.61258L449.69266,125.7728L450.41255,126.01283L450.65251,126.49288L451.13244,126.97292L452.0923,127.93302
				L453.29212,129.85322L454.01201,130.81331L454.97187,131.29336L455.21183,131.77341L455.21183,132.01344L455.21183,132.73351
				L455.93172,134.65371L456.17169,135.37378L455.93172,137.05395L455.69176,137.29397L455.69176,138.01405L455.93172,138.4941L
				457.13154,139.21417L457.61147,142.09446L458.33136,144.49471L458.0914,147.375L458.33136,148.09507L459.53118,148.81515L460.01111,149.05517
				L460.731,150.01527L461.4509,150.49532L462.65072,151.69544L463.37061,153.13559L463.61057,153.61564L465.53028,153.37561L466.49014,153.61564
				L466.97007,153.85566L467.21003,154.33571L467.68996,155.53583L467.92993,155.77586L468.40985,156.01588L468.88978,156.01588
				L468.88978,156.2559L468.88978,156.49593L469.84964,156.49593L471.52939,156.49593L473.20913,155.77586L474.16899,155.53583L
				474.88888,155.05578L475.12885,154.33571L475.60878,153.85566L477.28852,151.21539L478.72831,148.81515L479.68816,148.09507L
				480.16809,147.375L480.88798,147.375L482.32777,147.85505L483.28763,147.61502L486.16719,146.89495L487.12705,146.4149L488.56683,146.17488
				L489.28673,145.69483L490.00662,144.25468L491.4464,143.77463L492.88619,143.29459L494.32597,143.29459L494.8059,143.53461L495.76576,144.01466
				L496.48565,144.73473L496.96558,145.21478L497.44551,145.21478L497.92543,144.97476L498.1654,144.73473L498.64533,143.77463L
				499.12525,143.29459L499.60518,142.33449L499.84515,142.09446L501.04497,140.89434L501.76486,140.41429L502.24479,140.41429L
				502.72471,140.89434L503.44461,140.41429L503.92454,140.41429L504.40446,140.41429L505.36432,141.13437L506.08421,143.05456L
				505.12436,143.77463L504.1645,144.73473L502.96468,145.93485L501.76486,147.85505L501.28493,149.05517L500.805,150.01527L500.32507,151.21539
				L499.60518,151.69544L499.36522,152.65554L499.36522,153.61564L499.36522,154.33571L500.32507,155.29581L501.28493,156.49593
				L502.00482,158.1761L502.48475,159.1362L502.96468,160.0963L502.96468,161.29642L502.48475,162.25652L501.76486,163.21661L501.76486,164.41673
				L501.28493,164.65676L500.56504,165.37683L500.08511,166.57695L499.60518,167.77708L498.64533,168.9772L497.20554,169.9373L496.48565,170.65737
				L495.28583,171.13742L494.32597,171.37744L493.36612,171.37744L492.1663,171.61747L491.68637,171.85749L491.4464,172.33754L490.72651,172.57757
				L490.00662,172.57757L488.8068,172.81759L487.84694,173.53766L487.12705,174.01771L485.92723,174.49776L485.20734,175.21783L
				484.24748,175.69788L483.76755,176.65798L482.56773,177.61808L481.84784,178.57818L480.88798,179.53827L479.92813,180.49837L
				479.20824,181.69849L478.96827,182.89862L478.72831,184.33876L478.24838,185.29886L478.00842,186.49898L477.76845,187.93913L
				477.52849,188.6592L477.04856,189.85932L477.04856,190.81942L476.8086,191.5395L476.32867,192.25957L476.56863,192.97964L476.0887,193.69972
				L475.84874,194.89984L475.60878,196.82003L475.36881,197.30008L474.88888,197.78013L474.40896,198.26018L474.16899,199.4603L
				473.92903,200.18037L473.68906,201.62052L473.4491,202.58062L472.48924,203.30069L471.28942,204.02077L470.80949,204.50081L470.0896,205.46091
				L469.60967,205.94096L469.12975,205.46091L468.40985,204.74084L467.45,204.02077L466.49014,203.54072L466.25018,203.54072L465.05036,203.54072
				L463.85054,203.30069L462.89068,203.06067L461.69086,203.06067L460.49104,202.82064L459.53118,203.06067L458.57133,203.06067
				L458.0914,203.30069L457.37151,204.02077L457.13154,204.26079L456.17169,204.98086L455.69176,205.46091L455.45179,205.94096L
				454.97187,206.42101L454.7319,206.90106L453.53208,207.62113L453.05215,208.10118L453.05215,208.34121L451.85233,209.54133L450.65251,210.2614
				L450.41255,210.74145L450.17258,210.74145L449.93262,210.98147L449.21273,211.2215L448.97276,211.70155L448.97276,212.42162L
				449.21273,212.66165L449.69266,213.62174L449.93262,215.30191L449.93262,215.78196L449.93262,216.02199L449.93262,216.26201L
				450.17258,217.22211L450.41255,217.70216L450.41255,218.66226L450.17258,218.66226L449.93262,220.34243L449.69266,221.30252L
				449.69266,221.78257L449.69266,222.74267L449.69266,222.9827L449.93262,223.46274L449.93262,223.70277L450.41255,224.42284L450.41255,225.14292
				L450.65251,225.62296L450.65251,225.86299L450.89248,226.58306L450.65251,227.06311L450.41255,227.78318L450.41255,228.50326
				L450.65251,229.22333L451.37241,229.9434L451.61237,230.18343L451.85233,230.18343L452.57223,230.66348L453.05215,231.14353L
				453.05215,232.10362L452.81219,232.58367L452.81219,233.06372L452.57223,233.7838L452.0923,234.74389L451.61237,234.98392L451.37241,235.46397
				L451.13244,236.42406L450.89248,237.14414L450.89248,237.62419L450.89248,237.86421L450.65251,239.78441L450.41255,240.02443
				L449.93262,240.50448L449.45269,240.7445L448.7328,241.46458L447.53298,241.94463L446.33316,242.18465L445.3733,242.42467L444.89338,242.6647
				L444.89338,243.14475L442.97366,244.34487L441.77384,245.06494L441.53388,245.06494L440.33406,244.10485L439.85413,243.86482
				L438.65431,244.10485L436.97456,243.14475L436.0147,242.18465L434.57492,240.02443L432.89517,238.58428L432.17528,238.58428L
				431.93532,238.82431L431.21542,239.54438L430.49553,240.02443L428.81578,240.7445L427.61596,240.98453L426.89607,240.98453L424.73639,240.26445
				L423.53657,240.26445L422.81668,240.26445L421.61686,238.82431L421.3769,238.10423L421.3769,237.86421L421.3769,236.90411L420.89697,235.70399
				L420.17708,234.74389L419.21722,233.7838L418.25736,232.58367L417.53747,232.10362L417.29751,232.10362L416.57762,231.8636L414.41794,231.38355
				L413.45808,230.66348L413.21812,230.66348L407.45898,229.70338L405.77923,229.46336L405.77923,229.22333L405.2993,228.74328L
				404.81938,228.26323L404.81938,228.02321L404.57941,227.06311L404.33945,226.34304L404.09948,225.86299L403.13963,223.94279L
				402.6597,222.9827L402.6597,222.74267L402.17977,222.0226L402.17977,221.30252L402.6597,220.34243L402.89966,219.86238L402.89966,219.62235
				L401.69984,216.26201L401.45988,215.06189L401.45988,214.34182L401.69984,214.10179L401.21992,213.38172L401.45988,213.38172
				L401.45988,212.90167L401.69984,212.1816L401.45988,211.94157L400.97995,211.94157L400.50002,211.70155L399.54017,211.70155L
				399.06024,211.2215L398.82028,211.2215L398.58031,210.50143L398.34035,209.54133L398.10038,209.3013L398.10038,208.34121L398.58031,207.86116
				L398.58031,207.38111L398.82028,207.14108L398.58031,206.90106L398.58031,206.66103L398.34035,205.94096L398.10038,205.46091
				L398.10038,205.22089L398.10038,204.74084L398.10038,204.50081L397.62045,203.54072L397.14053,202.58062L395.94071,201.62052
				L395.70074,201.3805L394.50092,201.14047L394.02099,200.66042L393.06114,199.94035L392.34125,199.70033L391.86132,199.4603L390.90146,198.98025
				L389.9416,198.26018L389.70164,198.26018L388.26186,197.30008L387.54196,197.06006L386.82207,196.82003L385.62225,196.09996L
				385.14232,195.85994L383.70254,195.13986L382.98265,194.89984L382.50272,194.65981L382.02279,194.17976L382.02279,193.69972L
				381.78283,193.21967L381.78283,191.77952L381.54286,190.5794L381.54286,189.13925L381.54286,188.6592L381.3029,188.6592L381.06293,188.17915
				L380.58301,187.21906L380.34304,185.53888L380.10308,185.05884L379.14322,184.33876L378.42333,183.37866L377.22351,181.69849
				L376.74358,180.97842L377.22351,179.53827L376.74358,179.29825L376.74358,178.33815L376.74358,178.09813L376.02369,175.93791
				L376.02369,174.01771L376.02369,173.05761L375.78372,173.05761L375.3038,171.85749L375.06383,171.37744L374.82387,170.41735L
				374.5839,168.49715L374.34394,168.25713L373.38408,167.057L372.66419,166.09691L372.18426,164.41673L371.70434,163.21661L371.22441,162.73656
				L370.02459,162.01649L370.02459,161.53644L369.3047,161.29642L368.34484,160.33632L367.62495,159.1362L367.14502,158.65615L367.14502,157.93608
				L366.66509,157.45603L366.18516,156.97598L364.98534,156.2559L364.74538,156.01588L364.02549,155.53583L363.06563,154.81576L
				362.5857,154.57573L361.62585,153.85566L361.62585,153.37561L361.38588,153.13559L360.18606,152.41551L359.70613,151.93546L358.98624,151.45542
				L359.2262,150.97537L359.46617,150.49532L359.70613,150.73534L360.42602,149.53522L364.02549,144.73473L364.74538,144.25468L
				365.70523,144.01466L366.18516,143.05456L366.18516,142.09446L366.42513,141.37439L366.90505,141.37439L367.14502,140.89434L
				367.62495,140.41429L368.10487,140.41429L369.78462,140.17427L371.70434,140.89434L372.42423,141.13437L372.90416,141.13437L
				373.62405,141.13437L374.82387,141.13437L376.74358,140.65432L377.9434,139.69422L379.38319,137.77402L380.58301,135.85383L381.3029,134.17366
				L381.78283,133.45358L382.02279,132.73351L382.26275,132.25346L383.22261,130.81331L384.18247,129.13314L385.14232,127.93302
				L385.38229,127.693L387.06204,126.25285L388.02189,125.53278L388.26186,125.53278L388.98175,125.05273L389.22171,124.8127L390.42153,124.09263
				L391.38139,123.37256L392.10128,122.65248L392.34125,122.41246L392.58121,122.17244L393.06114,121.45236L393.78103,120.97231
				L394.98085,120.49226L395.94071,120.49226L397.14053,120.49226L397.86042,120.01222L398.82028,120.01222L399.78013,119.77219
				L400.73999,119.53217L402.41974,119.29214L403.37959,119.53217L404.81938,120.49226L407.93891,121.21234L409.61866,121.93241
				L411.29841,122.89251L412.97815,124.33266L413.21812,125.05273L413.45808,126.25285L418.0174,125.53278L419.21722,125.05273L
				420.657,123.85261L421.85683,122.89251L423.29661,121.93241L424.49643,121.45236L427.376,120.01222L428.09589,119.77219L429.77564,120.49226
				L432.41524,120.73229L433.61506,120.97231L434.09499,120.97231L435.77474,120.97231L436.97456,120.49226L438.17438,120.25224
				z"/>
			<path clip-path="url(#SVG_CP_1)" fill="#73B273" fill-rule="evenodd" stroke="#000000" stroke-width="0.95986" stroke-miterlimit="10" stroke-linecap="round" stroke-linejoin="round" d="
				M401.45988,213.38172L401.21992,213.38172L401.69984,214.10179L401.45988,214.34182L401.45988,215.06189L401.69984,216.26201
				L402.89966,219.62235L402.89966,219.86238L402.6597,220.34243L402.17977,221.30252L402.17977,222.0226L402.6597,222.74267L402.6597,222.9827
				L403.13963,223.94279L404.09948,225.86299L404.33945,226.34304L404.57941,227.06311L404.81938,228.02321L404.81938,228.26323
				L405.2993,228.74328L405.77923,229.22333L405.77923,229.46336L407.45898,229.70338L413.21812,230.66348L413.45808,230.66348L
				414.41794,231.38355L416.57762,231.8636L417.29751,232.10362L417.53747,232.10362L418.25736,232.58367L419.21722,233.7838L420.17708,234.74389
				L420.89697,235.70399L421.3769,236.90411L421.3769,237.86421L421.3769,238.10423L421.61686,238.82431L422.81668,240.26445L423.53657,240.26445
				L424.73639,240.26445L426.89607,240.98453L427.61596,240.98453L428.81578,240.7445L430.49553,240.02443L431.21542,239.54438L
				431.93532,238.82431L432.17528,238.58428L432.89517,238.58428L434.57492,240.02443L436.0147,242.18465L436.97456,243.14475L438.65431,244.10485
				L439.85413,243.86482L440.33406,244.10485L441.53388,245.06494L441.77384,245.06494L442.01381,245.06494L442.01381,245.30497
				L442.7337,245.54499L442.97366,245.78502L443.45359,246.50509L443.93352,246.74511L443.45359,247.46519L442.7337,248.18526L439.61417,251.30558
				L438.17438,253.70582L436.97456,255.62602L436.0147,256.58612L434.09499,258.02626L432.65521,258.74634L432.17528,258.74634L
				431.69535,259.22638L430.97546,259.70643L431.45539,260.66653L431.45539,261.3866L430.7355,262.3467L430.49553,263.54682L430.25557,264.02687
				L430.0156,264.50692L429.53568,265.227L429.53568,266.18709L429.29571,266.42712L429.05575,266.90717L429.05575,267.62724L428.81578,268.10729
				L428.09589,269.30741L427.85593,269.30741L427.376,269.06739L426.65611,268.82736L426.41614,268.82736L425.21632,268.10729L424.73639,267.86726
				L423.77654,267.38722L423.05665,267.38722L422.33675,267.62724L421.85683,267.86726L421.3769,268.82736L421.13693,269.54744L
				421.13693,271.94768L420.657,272.42773L419.21722,272.90778L418.97726,273.1478L418.97726,273.38783L418.73729,273.86787L417.77744,275.30802
				L417.05754,276.50814L416.81758,276.74817L415.3778,279.14841L415.13783,279.38844L415.13783,279.62846L414.41794,281.54866L
				414.17798,282.50875L413.21812,284.42895L412.49823,284.909L411.53837,285.62907L410.57851,286.58917L409.61866,287.30924L407.93891,288.02932
				L406.97905,288.98941L405.53927,290.42956L404.57941,291.86971L402.17977,294.26995L401.69984,294.50998L400.73999,295.7101L
				399.78013,296.6702L399.06024,297.63029L398.58031,297.87032L398.34035,298.35037L398.10038,297.87032L397.38049,298.11034L396.18067,297.39027
				L395.94071,296.43017L395.22081,295.7101L394.74089,295.23005L393.54107,295.23005L392.34125,295.47007L391.14142,295.7101L390.90146,295.95012
				L388.74178,296.43017L387.302,296.43017L386.34214,296.43017L384.90236,296.19015L384.18247,295.95012L382.74268,295.7101L381.06293,295.23005
				L380.58301,295.23005L379.38319,294.75L378.42333,294.26995L378.18337,294.02993L377.70344,292.58978L377.22351,290.90961L376.98355,290.66959
				L376.50362,290.18954L376.50362,289.70949L375.54376,288.98941L375.06383,288.74939L373.86401,288.02932L373.38408,288.02932
				L372.18426,287.30924L371.22441,286.82919L370.74448,286.58917L370.02459,286.58917L368.82477,286.34915L368.10487,286.34915
				L367.38498,285.8691L366.90505,285.38905L366.42513,284.909L366.18516,284.42895L365.46527,284.18893L364.98534,284.42895L364.74538,284.18893
				L363.06563,284.42895L362.10577,284.42895L361.38588,284.66897L360.90595,284.18893L360.18606,284.42895L359.70613,284.18893
				L359.9461,283.22883L358.98624,282.50875L357.54646,282.02871L357.54646,281.30863L357.30649,280.82858L357.30649,280.34853L
				357.54646,278.90839L357.54646,276.74817L358.50631,274.34792L359.2262,271.70766L359.2262,269.06739L360.18606,266.90717L360.18606,266.66714
				L361.38588,265.46702L362.10577,264.2669L362.82567,263.78685L363.78552,262.3467L363.54556,260.42651L363.06563,257.78624L363.06563,257.54621
				L362.82567,257.30619L362.34574,256.10607L362.10577,254.4259L362.10577,253.22577L361.62585,251.5456L361.62585,250.10546L362.10577,249.38538
				L362.5857,247.94524L363.30559,246.98514L363.78552,246.26507L364.98534,245.30497L365.9452,243.6248L365.9452,242.18465L366.18516,240.7445
				L366.42513,240.50448L366.42513,240.02443L366.18516,239.54438L365.70523,239.06433L364.98534,237.38416L364.74538,237.14414
				L363.78552,235.22394L363.54556,234.98392L362.5857,234.26384L362.34574,233.7838L361.86581,233.54377L361.62585,232.58367L361.14592,231.8636
				L360.66599,231.14353L358.74628,230.42345L358.74628,229.9434L358.26635,229.46336L358.98624,228.26323L359.9461,227.06311L360.90595,226.58306
				L362.5857,226.34304L364.02549,226.10301L364.26545,225.86299L364.98534,225.14292L365.70523,224.18282L366.66509,223.22272L
				367.62495,222.0226L368.82477,221.54255L369.78462,221.54255L370.02459,221.30252L371.46437,222.26262L372.42423,222.9827L373.62405,223.94279
				L374.10398,224.18282L374.5839,224.42284L376.02369,224.42284L377.46347,223.70277L378.90326,222.74267L380.34304,221.54255L
				381.78283,220.34243L383.22261,219.86238L384.6624,219.1423L385.86222,218.90228L387.302,218.42223L388.74178,217.94218L389.9416,217.46213
				L391.14142,216.26201L392.10128,215.30191L393.06114,214.34182L393.54107,213.86177L394.26096,214.10179L395.46078,214.10179
				L396.18067,213.62174L396.42063,213.14169L397.38049,214.10179L398.10038,214.10179L399.3002,213.86177L400.73999,213.62174L
				401.45988,213.38172z"/>
			<path clip-path="url(#SVG_CP_1)" fill="#73B273" fill-rule="evenodd" stroke="#000000" stroke-width="0.95986" stroke-miterlimit="10" stroke-linecap="round" stroke-linejoin="round" d="
				M289.63663,175.21783L290.11655,176.41796L290.35652,177.13803L290.59648,178.33815L290.83645,179.29825L291.55634,181.21845
				L292.03627,182.89862L292.27623,183.37866L293.23609,183.85871L293.95598,184.33876L294.67587,184.33876L295.39576,184.81881
				L296.83555,185.53888L298.99522,186.97903L300.43501,188.41918L301.1549,190.09935L302.11476,191.5395L302.83465,192.01954L303.55454,192.01954
				L305.47425,193.21967L306.67407,193.45969L308.83375,193.21967L309.55364,192.97964L310.99343,192.49959L312.43321,192.25957
				L313.1531,192.25957L313.63303,192.25957L313.873,192.97964L314.11296,193.45969L314.11296,194.17976L314.59289,194.17976L315.79271,194.41979
				L317.71242,194.89984L318.91224,195.61991L319.63213,196.33998L318.19235,197.30008L315.31278,200.4204L315.07282,201.86055L
				314.59289,203.78074L313.39307,205.70094L312.91314,207.38111L312.43321,208.58123L311.47336,209.06128L310.99343,210.02138L
				310.99343,211.2215L311.71332,212.42162L311.95328,213.62174L311.95328,214.82187L311.71332,215.06189L310.75346,216.26201L309.55364,217.94218
				L309.07372,218.90228L308.59379,218.90228L306.91404,218.90228L305.71422,219.1423L304.75436,219.38233L303.55454,220.1024L302.59469,220.1024
				L301.63483,219.86238L300.19504,218.42223L299.23519,216.74206L298.27533,216.02199L297.07551,215.54194L294.91584,216.02199
				L293.47605,215.78196L291.55634,214.82187L289.63663,213.86177L287.95688,214.10179L286.03716,214.58184L284.83734,215.30191
				L284.11745,215.54194L282.91763,216.50204L280.03806,215.78196L280.51799,216.74206L281.23788,217.46213L281.23788,217.94218
				L281.23788,218.66226L281.23788,219.38233L281.23788,220.1024L281.71781,221.0625L282.19774,222.0226L282.4377,223.22272L282.91763,223.94279
				L283.39756,224.90289L284.11745,225.62296L285.07731,226.10301L286.27713,226.82309L286.99702,228.02321L287.47695,228.98331
				L288.19684,229.9434L289.1567,230.18343L288.67677,230.42345L288.19684,231.14353L287.71691,231.38355L286.99702,231.14353L285.7972,230.9035
				L284.83734,230.66348L284.11745,230.9035L283.1576,230.66348L282.4377,229.9434L281.71781,230.18343L281.23788,230.42345L280.03806,231.38355
				L279.55814,231.62358L278.35831,231.8636L277.15849,231.8636L275.71871,232.34365L274.75885,232.10362L273.55903,232.10362L272.59918,232.34365
				L271.63932,233.54377L269.95957,235.94402L269.23968,237.38416L268.51979,242.90472L268.51979,243.86482L266.84004,243.38477
				L265.40026,243.6248L264.20044,244.10485L263.00061,244.10485L261.32087,243.6248L259.16119,244.10485L257.24148,244.58489L255.80169,245.54499
				L254.12194,245.54499L252.92212,245.30497L253.40205,243.86482L252.68216,240.98453L252.4422,238.58428L251.48234,236.66409L
				251.24238,234.98392L250.04256,232.58367L250.28252,228.98331L251.00241,225.86299L251.48234,220.34243L251.7223,218.90228L253.88198,215.06189
				L252.4422,210.2614L252.68216,206.42101L253.64202,201.62052L253.88198,200.18037L253.64202,198.74023L253.88198,197.30008L253.88198,196.09996
				L252.92212,191.77952L252.4422,190.33937L252.20223,190.09935L252.4422,189.37928L252.4422,188.89923L253.16209,187.6991L254.12194,185.77891
				L254.84184,184.57879L255.0818,183.37866L255.56173,183.13864L256.04166,182.65859L257.00151,181.93852L260.84094,176.17793L
				264.4404,174.25774L265.88018,174.25774L267.08,174.73779L268.75975,174.49776L269.71961,174.73779L271.15939,175.69788L273.55903,176.17793
				L275.47875,175.93791L276.19864,175.93791L279.07821,175.21783L280.51799,175.45786L281.71781,175.69788L282.19774,175.69788
				L282.67767,175.69788L283.63752,174.97781L285.7972,174.97781L287.23699,175.21783L287.95688,175.21783L289.63663,175.21783z
				"/>
			<path clip-path="url(#SVG_CP_1)" fill="#73B273" fill-rule="evenodd" stroke="#000000" stroke-width="0.95986" stroke-miterlimit="10" stroke-linecap="round" stroke-linejoin="round" d="
				M323.95149,224.90289L322.27174,227.54316L321.55185,228.74328L321.31188,229.70338L320.83195,232.58367L320.83195,233.30375
				L320.83195,234.02382L321.07192,235.46397L321.79181,236.90411L322.5117,239.30436L322.5117,240.02443L322.75167,242.18465L322.99163,243.86482
				L322.99163,244.82492L322.99163,246.98514L322.99163,247.22516L323.47156,248.18526L323.71152,248.90533L324.67138,248.90533
				L325.8712,248.90533L326.35113,248.66531L326.83106,248.42529L328.27084,247.70521L328.99073,247.22516L330.43052,245.78502L
				331.8703,244.34487L332.35023,243.86482L333.55005,243.38477L334.26994,243.14475L334.98983,244.10485L335.2298,244.58489L335.2298,245.06494
				L335.46976,245.30497L336.42962,246.74511L336.90955,247.94524L337.38947,248.42529L337.8694,248.90533L341.46886,249.86543L
				343.38858,250.34548L343.62854,250.58551L344.34843,250.82553L345.30829,251.06555L346.50811,251.5456L346.74807,251.78563L346.98804,251.78563
				L348.66779,253.70582L349.62764,254.4259L350.82746,254.90594L351.54735,255.14597L352.02728,255.62602L352.50721,255.86604L
				353.947,257.30619L354.90685,258.74634L354.90685,258.98636L355.38678,259.46641L357.06653,262.3467L357.54646,262.58673L357.54646,263.54682
				L358.02638,264.50692L359.2262,266.42712L360.18606,266.90717L359.2262,269.06739L359.2262,271.70766L358.50631,274.34792L357.54646,276.74817
				L357.54646,278.90839L357.30649,280.34853L357.30649,280.82858L357.54646,281.30863L357.54646,282.02871L357.06653,281.78868
				L355.14682,281.78868L354.42692,282.26873L354.42692,282.02871L354.42692,281.30863L353.947,281.06861L353.70703,281.06861L353.46707,280.58856
				L351.54735,278.42834L350.82746,278.18831L349.38768,277.94829L348.42782,278.42834L347.70793,278.42834L346.26814,276.98819
				L345.78822,276.74817L345.54825,276.50814L344.34843,276.02809L344.10847,275.54805L343.8685,275.54805L342.90865,274.82797L
				342.42872,274.58795L342.18876,274.1079L341.70883,273.86787L340.74897,273.38783L340.26904,273.1478L338.34933,273.86787L337.8694,274.1079
				L337.38947,274.1079L337.38947,273.62785L336.90955,273.38783L336.18965,273.38783L335.70973,273.38783L334.74987,273.62785L
				334.02998,274.1079L333.31009,274.58795L332.35023,274.82797L332.11027,274.58795L331.15041,272.66775L329.95059,270.98758L329.47066,266.90717
				L328.75077,266.18709L327.55095,265.70704L325.39127,265.46702L325.15131,265.46702L324.67138,265.227L323.71152,264.50692L321.31188,262.82675
				L319.63213,261.86665L317.23249,260.18648L317.23249,259.94646L316.99253,259.70643L317.47246,259.22638L318.67228,257.30619
				L319.15221,256.10607L319.39217,255.38599L319.63213,254.66592L319.39217,254.4259L318.43231,254.4259L315.31278,253.70582L314.11296,253.22577
				L313.39307,252.5057L312.91314,251.78563L311.71332,251.30558L311.23339,250.34548L310.27354,248.90533L309.31368,247.22516L
				308.83375,245.78502L308.59379,244.58489L307.154,243.86482L306.43411,243.38477L305.95418,242.6647L304.99433,241.46458L303.79451,240.02443
				L302.83465,239.54438L301.1549,239.06433L300.67497,238.58428L299.95508,237.62419L298.99522,236.18404L298.5153,235.22394L298.27533,234.74389
				L297.55544,234.02382L295.63573,233.06372L294.67587,233.06372L293.47605,233.30375L292.27623,233.30375L291.31637,231.62358
				L290.35652,230.42345L289.39666,230.18343L289.1567,230.18343L288.19684,229.9434L287.47695,228.98331L286.99702,228.02321L286.27713,226.82309
				L285.07731,226.10301L284.11745,225.62296L283.39756,224.90289L282.91763,223.94279L282.4377,223.22272L282.19774,222.0226L281.71781,221.0625
				L281.23788,220.1024L281.23788,219.38233L281.23788,218.66226L281.23788,217.94218L281.23788,217.46213L280.51799,216.74206L
				280.03806,215.78196L282.91763,216.50204L284.11745,215.54194L284.83734,215.30191L286.03716,214.58184L287.95688,214.10179L
				289.63663,213.86177L291.55634,214.82187L293.47605,215.78196L294.91584,216.02199L297.07551,215.54194L298.27533,216.02199L
				299.23519,216.74206L300.19504,218.42223L301.63483,219.86238L302.59469,220.1024L303.55454,220.1024L304.75436,219.38233L305.71422,219.1423
				L306.91404,218.90228L308.59379,218.90228L309.07372,218.90228L309.55364,217.94218L310.75346,216.26201L311.71332,215.06189
				L311.95328,214.82187L311.95328,213.62174L311.71332,212.42162L310.99343,211.2215L310.99343,210.02138L311.47336,209.06128L
				312.43321,208.58123L312.91314,207.38111L313.39307,205.70094L314.59289,203.78074L315.07282,201.86055L315.31278,200.4204L318.19235,197.30008
				L319.63213,196.33998L320.11206,197.30008L321.79181,200.90045L322.5117,202.58062L323.23159,204.50081L324.19145,205.46091L
				324.67138,206.18099L324.67138,206.42101L324.91134,207.14108L324.67138,208.10118L324.43142,209.3013L324.19145,210.2614L324.43142,211.70155
				L325.8712,214.34182L326.35113,216.02199L326.35113,220.1024L325.39127,222.74267L324.43142,223.94279L323.95149,224.90289z"/>
		</g>
		<g id="Labels">
			<g id="NEPAL_WARDS_-_Default">
				<g font-family="'Arial'" font-size="1" kerning="0" font-weight="400" fill="#000000" clip-path="url(#SVG_CP_1)" >
					<text text-anchor="start" transform="matrix(11.9982 0 0 12.00122 499.72516 245.64203)" >
						<tspan direction="ltr" unicode-bidi="embed" x="0 ">1</tspan>
					</text>
				</g>
				<g font-family="'Arial'" font-size="1" kerning="0" font-weight="400" fill="#000000" clip-path="url(#SVG_CP_1)" >
					<text text-anchor="start" transform="matrix(11.9982 0 0 12.00122 426.0562 184.4358)" >
						<tspan direction="ltr" unicode-bidi="embed" x="0 ">2</tspan>
					</text>
				</g>
				<g font-family="'Arial'" font-size="1" kerning="0" font-weight="400" fill="#000000" clip-path="url(#SVG_CP_1)" >
					<text text-anchor="start" transform="matrix(11.9982 0 0 12.00122 354.54691 183.47571)" >
						<tspan direction="ltr" unicode-bidi="embed" x="0 ">3</tspan>
					</text>
				</g>
				<g font-family="'Arial'" font-size="1" kerning="0" font-weight="400" fill="#000000" clip-path="url(#SVG_CP_1)" >
					<text text-anchor="start" transform="matrix(11.9982 0 0 12.00122 393.90101 260.52355)" >
						<tspan direction="ltr" unicode-bidi="embed" x="0 ">4</tspan>
					</text>
				</g>
				<g font-family="'Arial'" font-size="1" kerning="0" font-weight="400" fill="#000000" clip-path="url(#SVG_CP_1)" >
					<text text-anchor="start" transform="matrix(11.9982 0 0 12.00122 279.19819 207.9582)" >
						<tspan direction="ltr" unicode-bidi="embed" x="0 ">7</tspan>
					</text>
				</g>
				<g font-family="'Arial'" font-size="1" kerning="0" font-weight="400" fill="#000000" clip-path="url(#SVG_CP_1)" >
					<text text-anchor="start" transform="matrix(11.9982 0 0 12.00122 312.31323 246.12208)" >
						<tspan direction="ltr" unicode-bidi="embed" x="0 ">8</tspan>
					</text>
				</g>
				<g font-family="'Arial'" font-size="1" kerning="0" font-weight="400" fill="#000000" clip-path="url(#SVG_CP_1)" >
					<text text-anchor="start" transform="matrix(11.9982 0 0 12.00122 337.74942 227.88023)" >
						<tspan direction="ltr" unicode-bidi="embed" x="0 ">5</tspan>
					</text>
				</g>
				<g font-family="'Arial'" font-size="1" kerning="0" font-weight="400" fill="#000000" clip-path="url(#SVG_CP_1)" >
					<text text-anchor="start" transform="matrix(11.9982 0 0 12.00122 323.59154 194.99688)" >
						<tspan direction="ltr" unicode-bidi="embed" x="0 ">6</tspan>
					</text>
				</g>
			</g>
		</g>
	</g>
</svg>
