<?xml version="1.0" encoding="utf-8" standalone="no"?>
<!-- Creator: Esri ArcMap 10.6.1.9270 -->
<!DOCTYPE svg PUBLIC "-//W3C//DTD SVG 1.1//EN"  "http://www.w3.org/Graphics/SVG/1.1/DTD/svg11.dtd">
<svg width="813.74173pt" height="434.23937pt" viewBox="0 0 813.74173 434.23937" enable-background="new 0 0 813.74173 434.23937"
	version="1.1" xmlns="http://www.w3.org/2000/svg" xmlns:xlink="http://www.w3.org/1999/xlink" >
	<g id="Layers">
		<g id="NEPAL_WARDS">
			<clipPath id="SVG_CP_1">
				<path d="M0,434.23937L0,0L813.74173,0L813.74173,434.23937L0,434.23937z"/>
			</clipPath>
			<path clip-path="url(#SVG_CP_1)" fill="#73B273" fill-rule="evenodd" stroke="#000000" stroke-width="0.95986" stroke-miterlimit="10" stroke-linecap="round" stroke-linejoin="round" d="
				M531.5204,254.66592L531.28044,256.10607L530.80051,258.98636L530.56055,261.62663L528.64083,267.86726L528.16091,270.50753L
				527.44101,270.98758L524.80141,273.38783L519.28224,278.18831L518.08241,279.14841L515.20285,281.30863L514.48295,282.02871L
				512.08331,282.9888L508.24389,283.46885L506.08421,283.22883L504.88439,282.74878L502.72471,282.50875L500.56504,282.02871L498.64533,281.78868
				L496.72561,280.82858L495.76576,280.10851L493.36612,277.70827L492.40626,276.74817L490.24658,276.02809L490.00662,276.02809
				L489.04676,275.78807L486.88709,276.26812L486.40716,276.26812L486.64712,275.78807L487.12705,273.38783L487.84694,271.22761
				L488.56683,269.30741L488.56683,269.06739L488.8068,267.62724L489.76666,265.94707L490.48655,264.74695L491.68637,263.78685L
				493.36612,263.06678L494.56594,262.3467L494.56594,262.10668L494.8059,262.10668L496.00572,260.42651L496.96558,259.22638L498.64533,258.74634
				L500.56504,258.26629L502.48475,257.30619L504.88439,256.10607L506.56414,255.14597L507.524,253.70582L507.76396,252.5057L508.96378,251.78563
				L509.92364,250.82553L511.12346,248.66531L512.32328,246.98514L513.28313,245.78502L514.48295,245.54499L515.68277,246.50509
				L516.64263,248.42529L517.60249,250.10546L518.56234,251.5456L520.00213,251.78563L521.20195,251.5456L522.8817,251.78563L525.5213,252.5057
				L527.68098,253.22577L530.08062,254.18587L531.28044,254.66592L531.5204,254.66592z"/>
			<path clip-path="url(#SVG_CP_1)" fill="#73B273" fill-rule="evenodd" stroke="#000000" stroke-width="0.95986" stroke-miterlimit="10" stroke-linecap="round" stroke-linejoin="round" d="
				M559.83616,215.54194L559.5962,216.02199L557.19656,218.42223L555.75677,220.1024L555.51681,221.0625L555.27684,222.26262L554.31699,224.18282
				L553.83706,224.66287L552.8772,225.38294L552.15731,225.86299L549.75767,226.10301L548.79782,226.34304L548.07792,226.58306L
				546.39817,227.30314L545.67828,228.02321L545.43832,228.74328L544.95839,229.70338L544.71843,231.14353L544.95839,232.8237L544.95839,234.26384
				L544.71843,235.46397L543.99853,236.66409L543.75857,237.86421L543.75857,239.06433L543.75857,239.78441L543.27864,240.98453
				L542.31879,242.42467L540.879,244.34487L539.91914,245.78502L539.91914,248.42529L539.43922,250.58551L538.71932,251.30558L537.99943,251.78563
				L534.39997,252.5057L533.44011,252.74573L532.72022,253.22577L531.76037,254.4259L531.5204,254.66592L531.28044,254.66592L530.08062,254.18587
				L527.68098,253.22577L525.5213,252.5057L522.8817,251.78563L521.20195,251.5456L520.00213,251.78563L518.56234,251.5456L517.60249,250.10546
				L516.64263,248.42529L515.68277,246.50509L514.48295,245.54499L513.28313,245.78502L512.32328,246.98514L511.12346,248.66531
				L509.92364,250.82553L508.96378,251.78563L507.76396,252.5057L507.524,253.70582L506.56414,255.14597L504.88439,256.10607L502.48475,257.30619
				L500.56504,258.26629L498.64533,258.74634L496.96558,259.22638L496.00572,260.42651L494.8059,262.10668L494.56594,262.10668L
				493.84604,260.90656L492.1663,260.18648L490.00662,259.94646L489.76666,259.94646L489.76666,259.70643L489.28673,257.78624L489.76666,256.82614
				L490.48655,256.10607L491.20644,254.90594L491.4464,252.98575L491.20644,251.06555L491.68637,249.86543L492.64622,247.94524L
				493.36612,246.02504L493.60608,244.58489L492.64622,244.10485L491.68637,243.86482L489.76666,244.58489L487.84694,244.82492L
				485.68727,245.06494L484.00752,244.58489L482.32777,244.58489L480.40806,244.82492L478.72831,243.6248L476.8086,243.14475L475.60878,242.42467
				L475.12885,242.18465L475.60878,241.22455L474.64892,239.30436L473.92903,237.38416L473.20913,235.70399L473.20913,233.06372
				L473.4491,229.9434L473.4491,228.74328L472.48924,226.58306L472.24928,223.94279L472.24928,222.50265L473.4491,219.62235L474.40896,217.22211
				L473.68906,215.06189L473.92903,213.14169L474.64892,210.74145L474.88888,210.02138L474.64892,209.78135L475.60878,210.02138
				L476.32867,211.2215L476.8086,213.38172L476.8086,215.30191L476.0887,216.98209L477.04856,218.90228L477.52849,221.30252L478.72831,221.0625
				L480.40806,220.82248L482.32777,220.1024L484.24748,218.90228L485.20734,218.66226L486.88709,218.42223L489.52669,217.94218L
				491.68637,217.46213L492.88619,217.46213L494.56594,217.70216L496.00572,217.22211L496.24569,216.02199L497.68547,215.06189L
				498.64533,214.10179L499.84515,212.90167L501.28493,211.94157L503.20464,210.98147L504.64443,209.78135L506.08421,208.34121L
				508.00392,207.38111L510.64353,205.22089L511.60339,204.98086L514.00303,204.74084L515.68277,204.26079L516.88259,203.06067L
				516.1627,201.14047L515.92274,199.22028L516.40267,197.30008L517.84245,194.65981L519.28224,192.25957L521.44191,189.85932L523.60159,187.21906
				L524.08152,186.25896L523.84155,183.37866L524.08152,180.25835L524.56144,178.8182L527.68098,182.17854L528.8808,183.61869L531.04047,186.25896
				L533.92004,188.89923L536.55965,191.5395L537.27954,191.77952L539.91914,192.73962L541.11897,193.45969L543.99853,194.41979L
				544.95839,194.89984L546.8781,196.58001L548.07792,197.30008L549.75767,199.70033L550.47756,200.18037L559.83616,215.54194z"/>
			<path clip-path="url(#SVG_CP_1)" fill="#73B273" fill-rule="evenodd" stroke="#000000" stroke-width="0.95986" stroke-miterlimit="10" stroke-linecap="round" stroke-linejoin="round" d="
				M429.77564,80.40818L430.49553,81.12826L431.93532,81.60831L435.53478,81.60831L436.7346,82.08836L439.85413,82.80843L440.33406,82.80843
				L442.25377,83.5285L443.45359,84.00855L445.13334,85.20867L446.33316,85.68872L447.29302,86.16877L448.7328,88.08897L451.37241,91.68933
				L452.57223,93.3695L453.05215,94.3296L453.53208,95.2897L455.21183,96.2498L456.17169,96.48982L458.81129,97.20989L459.77115,97.92997
				L461.69086,99.61014L462.65072,100.33021L463.37061,100.81026L465.29032,101.29031L466.25018,101.77036L468.40985,103.21051L
				470.32957,106.57085L471.28942,107.53095L472.48924,109.45114L472.96917,110.41124L473.68906,111.61136L475.36881,113.05151L
				475.84874,113.77158L477.52849,114.9717L478.24838,115.45175L478.72831,116.17182L480.40806,117.852L481.12795,118.57207L481.60788,119.29214
				L483.28763,120.25224L484.00752,120.73229L484.72741,121.21234L485.4473,123.37256L485.92723,124.33266L486.40716,127.693L487.12705,130.33327
				L487.84694,131.77341L489.04676,133.93363L489.28673,134.65371L490.24658,135.13375L491.68637,136.09385L492.1663,136.81393L
				494.56594,138.01405L495.76576,138.25407L498.40536,138.01405L499.60518,137.77402L502.48475,138.01405L503.20464,138.4941L505.12436,138.97415
				L506.56414,139.69422L506.8041,139.69422L508.96378,143.05456L510.1636,144.01466L513.04317,146.4149L515.20285,150.49532L516.1627,153.61564
				L516.1627,158.65615L517.60249,163.21661L518.32238,165.61686L519.04227,167.057L519.5222,169.9373L520.48206,171.37744L522.1618,173.53766
				L524.32148,177.37805L524.08152,178.57818L524.56144,178.8182L524.08152,180.25835L523.84155,183.37866L524.08152,186.25896L
				523.60159,187.21906L521.44191,189.85932L519.28224,192.25957L517.84245,194.65981L516.40267,197.30008L515.92274,199.22028L
				516.1627,201.14047L516.88259,203.06067L515.68277,204.26079L514.00303,204.74084L511.60339,204.98086L510.64353,205.22089L508.00392,207.38111
				L506.08421,208.34121L504.64443,209.78135L503.20464,210.98147L501.28493,211.94157L499.84515,212.90167L498.64533,214.10179
				L497.68547,215.06189L496.24569,216.02199L496.00572,217.22211L494.56594,217.70216L492.88619,217.46213L491.68637,217.46213
				L489.52669,217.94218L486.88709,218.42223L485.20734,218.66226L484.24748,218.90228L482.32777,220.1024L480.40806,220.82248L
				478.72831,221.0625L477.52849,221.30252L477.04856,218.90228L476.0887,216.98209L476.8086,215.30191L476.8086,213.38172L476.32867,211.2215
				L475.60878,210.02138L474.64892,209.78135L474.16899,208.10118L473.20913,206.66103L472.00931,205.22089L471.04946,204.26079
				L470.56953,204.26079L469.84964,204.26079L470.0896,203.30069L468.88978,201.86055L468.64982,200.18037L468.88978,198.5002L468.64982,196.82003
				L468.16989,194.17976L467.45,191.77952L467.68996,189.85932L466.97007,186.97903L466.01021,184.57879L465.05036,182.65859L463.85054,181.21845
				L462.89068,179.7783L462.89068,177.37805L463.37061,174.73779L463.61057,171.37744L463.13064,168.73717L463.85054,167.057L463.85054,165.85688
				L463.61057,163.69666L462.41075,163.45664L460.97097,162.73656L459.53118,161.29642L458.0914,159.85627L456.17169,158.65615L
				454.25197,158.1761L451.85233,158.1761L448.97276,158.41612L445.85323,158.41612L444.17348,158.65615L442.49373,158.41612L440.81399,158.89617
				L439.85413,158.41612L440.57402,157.93608L440.81399,157.216L442.7337,156.2559L443.21363,156.01588L445.61327,153.61564L446.0932,152.41551
				L446.33316,151.21539L445.61327,150.73534L445.3733,149.77524L444.17348,148.09507L443.69355,146.89495L442.25377,145.4548L442.01381,144.49471
				L441.29391,144.01466L439.85413,144.01466L439.3742,144.01466L438.65431,143.77463L438.41435,143.77463L438.17438,143.77463L
				436.0147,143.77463L435.53478,143.77463L435.53478,143.29459L434.81488,142.57451L432.17528,140.89434L428.81578,137.534L428.09589,136.33388
				L428.09589,136.09385L425.69625,132.97353L424.49643,132.01344L424.25647,132.01344L418.25736,128.65309L417.53747,127.45297
				L415.85772,125.05273L414.41794,122.89251L412.25826,121.45236L411.05844,120.49226L408.41884,120.01222L406.25916,120.49226
				L404.09948,120.49226L403.37959,120.01222L402.6597,119.53217L400.0201,117.852L399.3002,117.61197L399.06024,117.13192L396.18067,117.13192
				L392.58121,114.9717L389.46168,113.77158L387.54196,114.25163L385.14232,114.0116L383.46257,114.0116L381.54286,114.25163L381.06293,114.25163
				L379.38319,114.25163L377.70344,113.53156L377.22351,113.29153L377.22351,113.05151L375.06383,111.85138L372.66419,111.13131
				L371.46437,110.17121L367.86491,107.29092L366.66509,106.33082L366.42513,106.33082L364.26545,105.37073L363.30559,105.1307L
				360.66599,104.1706L358.02638,104.1706L356.82656,103.45053L354.42692,101.29031L352.02728,99.37011L350.10757,98.41002L349.14771,98.41002
				L348.42782,97.92997L347.228,96.72985L346.50811,94.80965L346.26814,92.64943L346.02818,91.44931L346.26814,90.48921L346.74807,87.60892
				L347.228,84.72862L347.228,82.5684L346.98804,80.16816L346.98804,79.20806L346.74807,78.24796L346.74807,76.08774L346.50811,75.36767
				L346.74807,73.20745L347.70793,71.76731L348.42782,70.56718L348.42782,69.12704L347.94789,68.40696L346.26814,65.76669L343.62854,63.12643
				L342.42872,61.68628L341.2289,59.52606L340.74897,58.32594L340.26904,57.12581L339.30919,54.72557L339.06922,52.80538L338.58929,50.64516
				L338.34933,49.20501L338.58929,47.76486L338.82926,46.56474L338.82926,45.36462L339.30919,43.2044L340.26904,40.80415L340.98894,35.76364
				L341.2289,35.28359L339.78912,32.88335L338.34933,30.96315L337.62944,29.28298L335.46976,26.40269L334.50991,24.72252L334.50991,23.52239
				L335.46976,21.84222L337.14951,18.96193L338.82926,16.56169L341.94879,18.00183L343.62854,18.48188L345.78822,18.96193L347.46797,19.44198
				L351.78732,20.88213L352.26725,21.6022L355.38678,23.04235L356.82656,23.76242L360.42602,24.96254L363.30559,25.92264L365.9452,26.64271
				L369.3047,28.08286L370.50452,28.32288L373.62405,29.28298L374.34394,29.52301L376.50362,30.24308L377.22351,30.4831L377.70344,30.4831
				L379.62315,30.96315L383.9425,33.84345L386.10218,34.56352L389.22171,36.72374L394.74089,36.72374L395.70074,36.96376L396.6606,38.40391
				L396.90056,40.3241L397.62045,43.2044L398.58031,44.1645L400.26006,44.1645L402.17977,45.36462L405.77923,49.92508L408.17887,51.84528
				L410.57851,54.48555L410.81848,55.92569L412.97815,57.36584L414.6579,58.80599L417.53747,61.9263L417.77744,64.32655L417.77744,65.28665
				L418.0174,67.92691L417.77744,69.12704L417.77744,70.80721L418.25736,73.20745L419.69715,74.6476L422.57672,76.08774L423.77654,76.56779
				L426.17618,77.04784L427.61596,77.76792L428.33585,78.72801L429.05575,79.44809L429.29571,80.16816L429.77564,80.40818z"/>
			<path clip-path="url(#SVG_CP_1)" fill="#73B273" fill-rule="evenodd" stroke="#000000" stroke-width="0.95986" stroke-miterlimit="10" stroke-linecap="round" stroke-linejoin="round" d="
				M474.64892,209.78135L474.88888,210.02138L474.64892,210.74145L473.92903,213.14169L473.68906,215.06189L474.40896,217.22211
				L473.4491,219.62235L472.24928,222.50265L472.24928,223.94279L472.48924,226.58306L473.4491,228.74328L473.4491,229.9434L473.20913,233.06372
				L473.20913,235.70399L473.92903,237.38416L474.64892,239.30436L475.60878,241.22455L475.12885,242.18465L475.60878,242.42467
				L476.8086,243.14475L478.72831,243.6248L480.40806,244.82492L482.32777,244.58489L484.00752,244.58489L485.68727,245.06494L487.84694,244.82492
				L489.76666,244.58489L491.68637,243.86482L492.64622,244.10485L493.60608,244.58489L493.36612,246.02504L492.64622,247.94524
				L491.68637,249.86543L491.20644,251.06555L491.4464,252.98575L491.20644,254.90594L490.48655,256.10607L489.76666,256.82614L
				489.28673,257.78624L489.76666,259.70643L489.76666,259.94646L487.60698,259.70643L485.92723,259.70643L485.68727,258.74634L
				483.28763,258.02626L481.60788,257.30619L479.4482,257.06616L477.28852,256.82614L476.56863,256.58612L474.16899,255.86604L473.68906,255.14597
				L472.72921,253.4658L470.80949,252.26568L468.40985,250.82553L467.45,250.58551L464.81039,247.70521L464.33046,245.54499L465.05036,242.18465
				L464.81039,239.06433L463.37061,238.34426L462.89068,237.14414L462.89068,234.50387L461.21093,230.18343L459.53118,225.38294
				L459.77115,225.14292L459.53118,222.26262L459.53118,221.78257L457.61147,217.94218L456.41165,210.74145L455.45179,209.54133
				L454.49194,207.14108L454.01201,205.22089L452.57223,203.78074L451.85233,202.58062L451.37241,201.62052L449.69266,199.94035
				L448.49284,198.5002L447.53298,197.78013L447.05305,197.30008L446.81309,196.82003L446.57312,195.61991L447.05305,194.89984L
				447.53298,193.45969L447.05305,192.73962L446.57312,190.81942L445.85323,189.85932L445.61327,188.89923L445.61327,187.6991L446.0932,187.45908
				L446.33316,185.29886L445.3733,183.37866L445.13334,182.65859L444.65341,181.93852L441.29391,180.01832L440.33406,177.8581L440.09409,176.41796
				L440.33406,174.01771L439.85413,173.53766L439.13424,172.33754L438.89427,171.61747L439.13424,170.89739L436.97456,168.9772L
				434.09499,165.13681L433.85503,163.21661L435.77474,161.29642L438.41435,159.85627L439.85413,158.41612L440.81399,158.89617L
				442.49373,158.41612L444.17348,158.65615L445.85323,158.41612L448.97276,158.41612L451.85233,158.1761L454.25197,158.1761L456.17169,158.65615
				L458.0914,159.85627L459.53118,161.29642L460.97097,162.73656L462.41075,163.45664L463.61057,163.69666L463.85054,165.85688L
				463.85054,167.057L463.13064,168.73717L463.61057,171.37744L463.37061,174.73779L462.89068,177.37805L462.89068,179.7783L463.85054,181.21845
				L465.05036,182.65859L466.01021,184.57879L466.97007,186.97903L467.68996,189.85932L467.45,191.77952L468.16989,194.17976L468.64982,196.82003
				L468.88978,198.5002L468.64982,200.18037L468.88978,201.86055L470.0896,203.30069L469.84964,204.26079L470.56953,204.26079L471.04946,204.26079
				L472.00931,205.22089L473.20913,206.66103L474.16899,208.10118L474.64892,209.78135z"/>
			<path clip-path="url(#SVG_CP_1)" fill="#73B273" fill-rule="evenodd" stroke="#000000" stroke-width="0.95986" stroke-miterlimit="10" stroke-linecap="round" stroke-linejoin="round" d="
				M489.76666,259.94646L490.00662,259.94646L492.1663,260.18648L493.84604,260.90656L494.56594,262.10668L494.56594,262.3467L493.36612,263.06678
				L491.68637,263.78685L490.48655,264.74695L489.76666,265.94707L488.8068,267.62724L488.56683,269.06739L488.56683,269.30741L
				487.84694,271.22761L487.12705,273.38783L486.64712,275.78807L486.40716,276.26812L485.92723,276.50814L485.20734,277.22822L
				482.08781,277.22822L481.12795,277.70827L480.16809,278.18831L478.96827,280.10851L478.48834,281.06861L477.04856,280.34853L
				476.56863,280.10851L476.0887,279.38844L475.60878,277.22822L475.36881,276.74817L475.36881,276.02809L474.88888,274.58795L474.16899,272.90778
				L474.40896,272.42773L474.64892,271.70766L474.40896,270.74756L473.4491,269.30741L471.52939,268.34731L470.0896,267.86726L468.40985,268.34731
				L466.25018,268.10729L465.53028,267.14719L465.53028,264.50692L467.21003,260.90656L467.92993,258.50631L468.16989,255.86604
				L468.40985,253.94585L467.92993,251.06555L467.45,250.58551L468.40985,250.82553L470.80949,252.26568L472.72921,253.4658L473.68906,255.14597
				L474.16899,255.86604L476.56863,256.58612L477.28852,256.82614L479.4482,257.06616L481.60788,257.30619L483.28763,258.02626L
				485.68727,258.74634L485.92723,259.70643L487.60698,259.70643L489.76666,259.94646z"/>
			<path clip-path="url(#SVG_CP_1)" fill="#73B273" fill-rule="evenodd" stroke="#000000" stroke-width="0.95986" stroke-miterlimit="10" stroke-linecap="round" stroke-linejoin="round" d="
				M486.16719,356.6763L485.20734,356.6763L484.96737,356.91633L484.48745,357.15635L483.28763,357.87643L482.56773,358.11645L481.60788,358.11645
				L480.16809,357.87643L479.4482,357.87643L477.76845,357.6364L476.32867,357.39638L474.88888,356.91633L474.40896,356.6763L473.68906,356.6763
				L473.20913,356.43628L472.48924,356.19625L471.76935,355.95623L471.28942,355.71621L470.56953,355.71621L469.84964,355.47618
				L469.12975,355.23616L468.40985,354.99613L467.45,354.99613L466.73011,355.47618L466.49014,355.47618L466.25018,355.71621L465.29032,355.95623
				L464.57043,356.19625L463.61057,356.43628L463.37061,356.43628L462.17079,356.6763L461.4509,356.91633L460.49104,357.39638L459.77115,357.87643
				L459.29122,358.35647L459.05126,358.35647L458.0914,358.35647L457.37151,358.35647L456.89158,358.11645L456.65161,357.87643L
				456.17169,357.6364L455.69176,357.39638L454.97187,357.15635L454.01201,357.15635L452.0923,357.15635L451.37241,356.91633L450.89248,356.91633
				L449.93262,356.6763L447.77294,356.6763L446.81309,356.43628L446.0932,356.19625L445.13334,355.95623L444.41345,355.71621L443.93352,355.71621
				L443.45359,355.47618L442.25377,354.99613L441.77384,354.99613L441.05395,354.75611L439.85413,354.75611L439.13424,355.23616
				L438.41435,355.23616L436.97456,355.47618L436.25467,355.47618L434.33496,355.47618L433.3751,355.47618L431.93532,355.47618L
				430.97546,355.47618L429.05575,355.71621L428.33585,355.47618L427.61596,355.23616L426.41614,354.51608L425.69625,354.27606L
				424.97636,354.03603L424.0165,353.79601L423.29661,353.79601L422.33675,353.79601L421.61686,353.55599L421.13693,353.31596L420.17708,353.07594
				L419.45718,352.83591L418.97726,352.83591L418.49733,352.59589L417.77744,352.11584L417.53747,352.11584L416.81758,352.11584
				L416.09769,352.11584L415.61776,352.11584L415.13783,352.35586L414.41794,352.83591L414.41794,353.07594L413.69805,353.55599
				L413.21812,353.79601L412.73819,354.27606L412.0183,354.75611L411.53837,355.23616L410.81848,355.47618L410.33855,355.71621L
				409.85862,355.95623L408.89877,355.95623L407.21902,355.71621L406.49913,355.23616L405.53927,354.99613L404.57941,354.75611L
				404.09948,354.75611L403.37959,354.51608L402.6597,354.51608L401.93981,354.27606L401.21992,354.03603L400.50002,353.79601L400.0201,353.79601
				L399.54017,353.55599L398.58031,353.31596L398.10038,353.07594L397.62045,352.83591L397.14053,352.59589L396.6606,352.59589L
				395.94071,352.59589L395.70074,352.59589L395.22081,352.83591L394.02099,353.07594L393.3011,353.31596L392.58121,353.55599L392.10128,353.55599
				L391.62135,353.79601L390.90146,353.79601L388.98175,353.79601L388.26186,353.79601L387.78193,353.55599L387.54196,353.55599
				L387.302,353.31596L386.34214,352.83591L385.62225,352.59589L385.14232,352.59589L384.42243,352.59589L383.70254,352.59589L383.22261,352.83591
				L382.50272,352.83591L381.54286,353.07594L378.66329,353.07594L378.18337,352.83591L377.22351,353.07594L376.02369,353.07594
				L375.54376,352.83591L375.06383,352.83591L374.10398,353.07594L373.62405,353.07594L373.38408,353.07594L372.90416,353.07594
				L372.42423,353.31596L371.70434,353.55599L371.22441,353.79601L370.50452,354.03603L370.02459,354.51608L369.3047,354.75611L
				368.82477,354.99613L368.34484,355.23616L367.86491,355.47618L367.14502,355.71621L366.42513,355.71621L365.70523,355.47618L
				364.50541,355.23616L363.78552,355.23616L363.30559,355.23616L361.62585,355.23616L360.66599,355.47618L360.18606,355.47618L
				359.70613,355.71621L358.74628,356.19625L358.02638,356.19625L357.30649,356.43628L356.34664,356.43628L355.62674,356.19625L
				354.90685,356.19625L354.18696,355.95623L353.46707,355.95623L352.74717,355.71621L352.02728,355.71621L350.5875,354.51608L347.94789,352.59589
				L345.54825,350.43567L344.82836,349.47557L343.38858,347.31535L342.42872,345.8752L341.2289,344.67508L340.74897,342.99491L339.30919,341.31474
				L337.8694,339.39454L339.06922,338.43445L340.26904,337.47435L341.70883,336.27423L342.66868,336.27423L344.5884,335.55415L346.02818,335.0741
				L350.5875,333.39393L353.46707,332.43384L355.14682,332.19381L357.54646,331.95379L358.98624,331.95379L359.46617,331.95379L
				361.38588,330.99369L362.34574,330.03359L363.54556,328.59344L364.02549,327.39332L364.26545,326.1932L364.74538,324.27301L365.22531,322.11279
				L365.70523,320.43261L366.90505,318.99247L367.86491,318.51242L369.54466,317.79235L370.98444,317.07227L371.70434,316.59222
				L373.86401,315.15208L374.5839,313.95195L376.02369,311.31169L376.74358,310.59161L377.22351,310.11156L379.62315,306.99125L
				379.86311,306.5112L382.02279,304.11095L382.50272,303.39088L383.46257,302.91083L383.70254,302.91083L386.10218,302.91083L386.58211,303.15086
				L389.46168,303.87093L389.70164,304.591L390.90146,305.5511L392.34125,306.27117L393.78103,306.99125L395.70074,307.4713L396.18067,307.71132
				L397.86042,307.95134L398.58031,307.95134L399.06024,307.4713L399.54017,307.23127L400.26006,306.99125L401.93981,305.79112L
				402.17977,305.07105L402.89966,304.35098L404.57941,301.71071L405.2993,301.23066L406.49913,298.35037L407.21902,297.87032L407.21902,297.63029
				L408.89877,295.47007L409.13873,295.23005L410.09859,294.50998L411.77833,292.8298L412.73819,292.34976L414.41794,291.86971L
				416.09769,290.90961L416.57762,290.90961L417.29751,290.66959L418.97726,289.94951L420.657,289.22944L421.61686,288.74939L422.33675,288.26934
				L423.53657,287.54927L424.0165,287.30924L425.45629,286.34915L428.09589,284.909L428.57582,284.909L429.05575,284.909L429.29571,284.66897
				L431.69535,282.74878L433.85503,281.78868L435.77474,282.02871L436.7346,282.26873L438.65431,282.50875L439.61417,282.50875L
				441.77384,283.9489L443.21363,284.909L443.93352,285.8691L445.85323,287.78929L446.0932,287.78929L446.57312,288.74939L448.7328,290.18954
				L449.93262,290.18954L451.85233,289.70949L452.33226,289.22944L453.29212,288.98941L453.53208,288.74939L454.7319,287.54927L
				455.69176,287.30924L457.37151,286.82919L458.0914,286.82919L459.29122,287.06922L460.01111,287.30924L460.49104,287.54927L460.731,287.78929
				L463.13064,288.02932L463.85054,287.54927L465.05036,287.54927L467.45,286.82919L468.16989,286.58917L470.80949,285.8691L473.20913,285.14902
				L474.40896,284.66897L476.56863,283.9489L477.28852,283.22883L477.76845,282.50875L478.48834,281.06861L478.96827,280.10851L
				480.16809,278.18831L481.12795,277.70827L482.08781,277.22822L485.20734,277.22822L485.92723,276.50814L486.40716,276.26812L
				486.88709,276.26812L489.04676,275.78807L490.00662,276.02809L490.24658,276.02809L492.40626,276.74817L493.36612,277.70827L
				495.76576,280.10851L496.72561,280.82858L498.64533,281.78868L500.56504,282.02871L502.72471,282.50875L504.88439,282.74878L
				506.08421,283.22883L508.24389,283.46885L512.08331,282.9888L514.48295,282.02871L515.20285,281.30863L518.08241,279.14841L519.28224,278.18831
				L524.80141,273.38783L525.28134,276.98819L525.5213,277.94829L526.24119,279.14841L528.40087,281.30863L528.8808,282.50875L528.8808,282.74878
				L529.36073,284.66897L529.84065,286.10912L529.60069,288.26934L529.36073,288.98941L529.12076,289.70949L527.68098,293.30985
				L526.24119,296.91022L525.76126,300.03054L526.00123,304.35098L526.48116,305.5511L525.04137,306.99125L524.56144,307.71132L
				521.68188,309.15147L519.76216,311.31169L519.76216,311.55171L518.08241,312.75183L517.60249,314.19198L517.12256,314.432L515.44281,316.83225
				L513.76306,318.99247L512.32328,322.11279L509.92364,325.47313L508.72382,328.1134L507.76396,332.43384L506.56414,334.35403L
				503.20464,337.47435L503.44461,338.43445L502.96468,339.15452L502.24479,340.11462L501.76486,341.07472L501.28493,341.55476L
				500.32507,342.51486L499.36522,342.99491L498.88529,343.23494L497.68547,343.95501L496.96558,344.67508L496.48565,345.15513L
				495.76576,345.8752L495.04586,347.31535L494.56594,347.55537L494.08601,348.51547L493.12615,349.47557L492.88619,349.95562L492.40626,350.43567
				L492.1663,351.15574L491.4464,352.11584L491.20644,352.35586L490.24658,353.07594L489.28673,353.79601L488.8068,354.27606L488.32687,354.75611
				L487.12705,355.47618L486.64712,355.95623L486.40716,356.43628L486.16719,356.6763z"/>
			<path clip-path="url(#SVG_CP_1)" fill="#73B273" fill-rule="evenodd" stroke="#000000" stroke-width="0.95986" stroke-miterlimit="10" stroke-linecap="round" stroke-linejoin="round" d="
				M439.85413,158.41612L438.41435,159.85627L435.77474,161.29642L433.85503,163.21661L434.09499,165.13681L436.97456,168.9772L
				439.13424,170.89739L438.89427,171.61747L439.13424,172.33754L439.85413,173.53766L440.33406,174.01771L440.09409,176.41796L
				440.33406,177.8581L441.29391,180.01832L444.65341,181.93852L445.13334,182.65859L445.3733,183.37866L446.33316,185.29886L446.0932,187.45908
				L445.61327,187.6991L445.61327,188.89923L445.85323,189.85932L446.57312,190.81942L447.05305,192.73962L447.53298,193.45969L
				447.05305,194.89984L446.57312,195.61991L446.81309,196.82003L447.05305,197.30008L447.53298,197.78013L448.49284,198.5002L449.69266,199.94035
				L451.37241,201.62052L451.85233,202.58062L452.57223,203.78074L454.01201,205.22089L454.49194,207.14108L455.45179,209.54133
				L456.41165,210.74145L457.61147,217.94218L459.53118,221.78257L459.53118,222.26262L459.77115,225.14292L459.53118,225.38294
				L461.21093,230.18343L462.89068,234.50387L462.89068,237.14414L463.37061,238.34426L464.81039,239.06433L465.05036,242.18465
				L464.33046,245.54499L464.81039,247.70521L467.45,250.58551L467.92993,251.06555L468.40985,253.94585L468.16989,255.86604L467.92993,258.50631
				L467.21003,260.90656L465.53028,264.50692L465.53028,267.14719L466.25018,268.10729L468.40985,268.34731L470.0896,267.86726L
				471.52939,268.34731L473.4491,269.30741L474.40896,270.74756L474.64892,271.70766L474.40896,272.42773L474.16899,272.90778L474.88888,274.58795
				L475.36881,276.02809L475.36881,276.74817L475.60878,277.22822L476.0887,279.38844L476.56863,280.10851L477.04856,280.34853L
				478.48834,281.06861L477.76845,282.50875L477.28852,283.22883L476.56863,283.9489L474.40896,284.66897L473.20913,285.14902L470.80949,285.8691
				L468.16989,286.58917L467.45,286.82919L465.05036,287.54927L463.85054,287.54927L463.13064,288.02932L460.731,287.78929L460.49104,287.54927
				L460.01111,287.30924L459.29122,287.06922L458.0914,286.82919L457.37151,286.82919L455.69176,287.30924L454.7319,287.54927L453.53208,288.74939
				L453.29212,288.98941L452.33226,289.22944L451.85233,289.70949L449.93262,290.18954L448.7328,290.18954L446.57312,288.74939L
				446.0932,287.78929L445.85323,287.78929L446.0932,286.58917L445.85323,285.14902L445.85323,282.26873L446.0932,279.14841L446.81309,277.22822
				L445.61327,274.34792L445.3733,272.90778L446.0932,270.98758L444.65341,270.02748L442.7337,266.18709L442.49373,263.54682L442.7337,260.18648
				L443.69355,257.06616L445.13334,254.4259L445.61327,252.26568L446.0932,248.90533L446.57312,243.38477L447.53298,239.06433L447.77294,234.98392
				L448.01291,232.58367L447.53298,229.22333L445.85323,226.82309L445.85323,223.94279L444.65341,219.86238L443.21363,216.02199
				L441.05395,211.70155L438.89427,207.86116L437.21453,205.46091L436.97456,203.30069L435.77474,200.66042L434.09499,196.82003
				L432.41524,193.45969L430.97546,189.6193L430.0156,184.09874L429.29571,178.33815L428.33585,174.25774L428.57582,169.69727L429.05575,164.89678
				L429.29571,161.29642L430.97546,157.45603L431.93532,153.85566L434.09499,150.25529L436.25467,146.89495L438.17438,143.77463
				L438.41435,143.77463L438.65431,143.77463L439.3742,144.01466L439.85413,144.01466L441.29391,144.01466L442.01381,144.49471L
				442.25377,145.4548L443.69355,146.89495L444.17348,148.09507L445.3733,149.77524L445.61327,150.73534L446.33316,151.21539L446.0932,152.41551
				L445.61327,153.61564L443.21363,156.01588L442.7337,156.2559L440.81399,157.216L440.57402,157.93608L439.85413,158.41612z"/>
			<path clip-path="url(#SVG_CP_1)" fill="#73B273" fill-rule="evenodd" stroke="#000000" stroke-width="0.95986" stroke-miterlimit="10" stroke-linecap="round" stroke-linejoin="round" d="
				M438.17438,143.77463L436.25467,146.89495L434.09499,150.25529L431.93532,153.85566L430.97546,157.45603L429.29571,161.29642
				L429.05575,164.89678L428.57582,169.69727L428.33585,174.25774L429.29571,178.33815L430.0156,184.09874L430.97546,189.6193L432.41524,193.45969
				L434.09499,196.82003L435.77474,200.66042L436.97456,203.30069L437.21453,205.46091L438.89427,207.86116L441.05395,211.70155
				L443.21363,216.02199L444.65341,219.86238L445.85323,223.94279L445.85323,226.82309L447.53298,229.22333L448.01291,232.58367
				L447.77294,234.98392L447.53298,239.06433L446.57312,243.38477L446.0932,248.90533L445.61327,252.26568L445.13334,254.4259L443.69355,257.06616
				L442.7337,260.18648L442.49373,263.54682L442.7337,266.18709L444.65341,270.02748L446.0932,270.98758L445.3733,272.90778L445.61327,274.34792
				L446.81309,277.22822L446.0932,279.14841L445.85323,282.26873L445.85323,285.14902L446.0932,286.58917L445.85323,287.78929L443.93352,285.8691
				L443.21363,284.909L441.77384,283.9489L439.61417,282.50875L438.65431,282.50875L436.7346,282.26873L435.77474,282.02871L433.85503,281.78868
				L431.69535,282.74878L429.29571,284.66897L429.05575,284.909L428.57582,284.909L428.09589,284.909L425.45629,286.34915L424.0165,287.30924
				L423.53657,287.54927L422.33675,288.26934L421.61686,288.74939L420.657,289.22944L418.97726,289.94951L417.29751,290.66959L416.57762,290.90961
				L416.09769,290.90961L414.41794,291.86971L412.73819,292.34976L411.77833,292.8298L410.09859,294.50998L409.13873,295.23005L
				408.89877,295.47007L407.21902,297.63029L407.21902,297.87032L406.49913,298.35037L405.2993,301.23066L404.57941,301.71071L402.89966,304.35098
				L402.17977,305.07105L401.93981,305.79112L400.26006,306.99125L399.54017,307.23127L399.06024,307.4713L398.58031,307.95134L
				397.86042,307.95134L396.18067,307.71132L395.70074,307.4713L393.78103,306.99125L392.34125,306.27117L390.90146,305.5511L389.70164,304.591
				L389.46168,303.87093L386.58211,303.15086L386.10218,302.91083L383.70254,302.91083L383.46257,302.91083L383.9425,300.03054L
				383.9425,299.79051L384.18247,298.59039L384.6624,297.87032L384.90236,296.6702L384.90236,293.7899L384.90236,293.30985L384.90236,292.58978
				L384.90236,291.14963L383.9425,288.98941L383.9425,287.06922L383.70254,286.34915L383.22261,285.14902L382.98265,284.42895L380.34304,281.78868
				L378.90326,280.58856L376.98355,278.42834L376.02369,278.18831L374.34394,276.50814L372.66419,274.82797L372.90416,274.1079L
				372.66419,270.98758L372.18426,268.82736L371.9443,266.66714L371.70434,266.66714L371.70434,265.227L371.70434,261.86665L371.70434,260.90656
				L372.18426,258.74634L373.62405,255.62602L376.98355,252.5057L379.38319,250.34548L383.22261,248.66531L385.62225,248.18526L
				387.302,247.22516L388.26186,246.02504L389.22171,243.86482L392.82117,242.42467L394.26096,240.98453L394.74089,240.26445L394.98085,238.82431
				L396.18067,238.34426L396.90056,238.10423L399.54017,235.46397L399.78013,234.98392L400.26006,233.30375L400.50002,233.06372
				L399.78013,227.78318L398.34035,224.42284L397.86042,223.70277L397.86042,220.34243L397.86042,217.70216L398.10038,214.82187
				L398.82028,212.90167L400.97995,207.62113L401.93981,201.3805L401.93981,200.90045L401.93981,199.4603L401.69984,197.78013L400.97995,194.65981
				L400.0201,190.09935L400.73999,185.29886L400.50002,182.41857L400.0201,181.45847L400.26006,180.49837L398.34035,179.29825L395.94071,179.7783
				L395.70074,180.25835L392.82117,180.01832L391.38139,179.05823L387.78193,179.29825L385.38229,178.8182L383.46257,178.8182L380.34304,180.01832
				L378.18337,179.7783L376.98355,180.49837L374.10398,181.45847L373.14412,181.21845L370.98444,181.69849L369.3047,181.93852L369.06473,181.93852
				L366.90505,176.89801L366.66509,175.45786L367.14502,174.01771L367.38498,171.37744L367.14502,170.89739L366.18516,169.45725
				L365.9452,167.057L365.9452,166.57695L365.46527,164.89678L363.78552,162.97659L360.90595,160.57634L354.90685,155.53583L353.46707,155.29581
				L351.78732,155.05578L344.5884,154.81576L341.70883,153.85566L340.74897,153.37561L332.59019,152.17549L329.47066,150.97537L
				325.63124,150.97537L320.83195,149.2952L319.15221,148.09507L317.95239,146.65493L316.5126,144.97476L313.1531,141.61441L311.71332,140.65432
				L308.59379,138.97415L304.75436,136.33388L303.07461,135.85383L301.1549,134.41368L300.43501,133.93363L299.47515,132.97353L
				298.27533,131.53339L298.27533,131.05334L296.11566,128.65309L293.23609,123.61258L292.99612,123.13253L292.27623,120.49226L
				292.03627,118.09202L292.51619,117.37195L292.75616,117.13192L293.71601,114.49165L293.95598,113.53156L295.39576,110.89129L
				295.87569,109.69116L297.7954,106.81087L298.5153,105.85077L300.19504,104.65065L301.1549,104.1706L301.87479,103.93058L310.99343,100.09019
				L322.03177,95.2897L323.71152,94.56963L325.15131,93.60953L325.39127,93.3695L326.35113,93.12948L328.03088,92.64943L329.71062,91.92936
				L332.11027,91.20928L333.07012,90.96926L334.02998,90.72923L339.78912,88.56902L342.42872,87.84894L346.74807,87.60892L346.26814,90.48921
				L346.02818,91.44931L346.26814,92.64943L346.50811,94.80965L347.228,96.72985L348.42782,97.92997L349.14771,98.41002L350.10757,98.41002
				L352.02728,99.37011L354.42692,101.29031L356.82656,103.45053L358.02638,104.1706L360.66599,104.1706L363.30559,105.1307L364.26545,105.37073
				L366.42513,106.33082L366.66509,106.33082L367.86491,107.29092L371.46437,110.17121L372.66419,111.13131L375.06383,111.85138
				L377.22351,113.05151L377.22351,113.29153L377.70344,113.53156L379.38319,114.25163L381.06293,114.25163L381.54286,114.25163
				L383.46257,114.0116L385.14232,114.0116L387.54196,114.25163L389.46168,113.77158L392.58121,114.9717L396.18067,117.13192L399.06024,117.13192
				L399.3002,117.61197L400.0201,117.852L402.6597,119.53217L403.37959,120.01222L404.09948,120.49226L406.25916,120.49226L408.41884,120.01222
				L411.05844,120.49226L412.25826,121.45236L414.41794,122.89251L415.85772,125.05273L417.53747,127.45297L418.25736,128.65309
				L424.25647,132.01344L424.49643,132.01344L425.69625,132.97353L428.09589,136.09385L428.09589,136.33388L428.81578,137.534L432.17528,140.89434
				L434.81488,142.57451L435.53478,143.29459L435.53478,143.77463L436.0147,143.77463L438.17438,143.77463z"/>
			<path clip-path="url(#SVG_CP_1)" fill="#73B273" fill-rule="evenodd" stroke="#000000" stroke-width="0.95986" stroke-miterlimit="10" stroke-linecap="round" stroke-linejoin="round" d="
				M371.70434,266.66714L371.9443,266.66714L372.18426,268.82736L372.66419,270.98758L372.90416,274.1079L372.66419,274.82797L374.34394,276.50814
				L376.02369,278.18831L376.98355,278.42834L378.90326,280.58856L380.34304,281.78868L382.98265,284.42895L383.22261,285.14902
				L383.70254,286.34915L383.9425,287.06922L383.9425,288.98941L384.90236,291.14963L384.90236,292.58978L384.90236,293.30985L384.90236,293.7899
				L384.90236,296.6702L384.6624,297.87032L384.18247,298.59039L383.9425,299.79051L383.9425,300.03054L383.46257,302.91083L382.50272,303.39088
				L382.02279,304.11095L379.86311,306.5112L379.62315,306.99125L377.22351,310.11156L376.74358,310.59161L376.02369,311.31169L
				374.5839,313.95195L373.86401,315.15208L371.70434,316.59222L370.98444,317.07227L369.54466,317.79235L367.86491,318.51242L366.90505,318.99247
				L365.70523,320.43261L365.22531,322.11279L364.74538,324.27301L364.26545,326.1932L364.02549,327.39332L363.54556,328.59344L
				362.34574,330.03359L361.38588,330.99369L359.46617,331.95379L358.98624,331.95379L357.54646,329.31352L354.90685,325.95318L
				350.10757,324.99308L349.14771,324.75305L344.82836,324.51303L342.66868,322.83286L342.18876,321.63274L341.94879,320.67264L
				341.2289,319.95257L339.30919,318.27239L337.38947,314.91205L333.31009,312.03176L326.59109,308.19137L325.63124,307.23127L325.39127,306.99125
				L323.95149,307.23127L318.19235,306.5112L315.55274,305.5511L315.07282,305.31108L313.873,304.35098L311.47336,302.91083L306.67407,298.11034
				L302.83465,295.95012L301.1549,294.50998L300.19504,293.30985L298.5153,291.38966L298.5153,289.94951L298.27533,289.70949L296.35562,288.98941
				L296.11566,288.98941L295.1558,288.74939L292.99612,288.26934L292.27623,288.26934L291.7963,288.26934L288.91673,288.02932L287.95688,287.54927
				L283.87749,282.02871L283.63752,282.02871L282.4377,279.38844L282.19774,279.14841L279.07821,274.58795L278.83824,274.1079L280.27803,273.1478
				L282.67767,271.70766L284.11745,270.26751L285.31727,269.78746L288.43681,269.78746L293.71601,269.78746L298.03537,269.54744
				L302.83465,269.06739L305.95418,268.10729L308.11386,268.10729L311.23339,268.58734L313.873,269.54744L316.03267,270.26751L320.35203,270.50753
				L323.95149,270.98758L326.35113,271.70766L327.79091,272.1877L328.75077,273.38783L330.43052,274.82797L332.11027,274.82797L
				332.11027,273.86787L332.35023,271.70766L332.59019,268.82736L332.83016,267.62724L333.07012,266.90717L333.55005,265.227L334.26994,263.3068
				L334.74987,261.14658L335.46976,259.46641L336.90955,258.50631L337.8694,256.58612L339.06922,256.10607L340.98894,254.4259L341.2289,254.18587
				L342.18876,254.90594L343.8685,255.38599L344.5884,255.14597L345.78822,255.14597L347.94789,255.86604L349.38768,257.30619L350.82746,258.02626
				L352.02728,258.74634L353.2271,258.98636L355.62674,258.98636L356.82656,259.46641L358.02638,260.66653L359.70613,261.14658L
				361.86581,261.14658L364.02549,262.82675L365.9452,264.02687L367.38498,264.98697L369.06473,265.46702L371.22441,266.42712L371.70434,266.66714
				z"/>
			<path clip-path="url(#SVG_CP_1)" fill="#73B273" fill-rule="evenodd" stroke="#000000" stroke-width="0.95986" stroke-miterlimit="10" stroke-linecap="round" stroke-linejoin="round" d="
				M292.51619,117.37195L292.03627,118.09202L292.27623,120.49226L292.99612,123.13253L293.23609,123.61258L296.11566,128.65309
				L298.27533,131.05334L298.27533,131.53339L299.47515,132.97353L300.43501,133.93363L301.1549,134.41368L303.07461,135.85383L
				304.75436,136.33388L308.59379,138.97415L311.71332,140.65432L313.1531,141.61441L316.5126,144.97476L317.95239,146.65493L319.15221,148.09507
				L320.83195,149.2952L325.63124,150.97537L329.47066,150.97537L332.59019,152.17549L340.74897,153.37561L341.70883,153.85566L
				344.5884,154.81576L351.78732,155.05578L353.46707,155.29581L354.90685,155.53583L360.90595,160.57634L363.78552,162.97659L365.46527,164.89678
				L365.9452,166.57695L365.9452,167.057L366.18516,169.45725L367.14502,170.89739L367.38498,171.37744L367.14502,174.01771L366.66509,175.45786
				L366.90505,176.89801L369.06473,181.93852L369.3047,181.93852L370.98444,181.69849L373.14412,181.21845L374.10398,181.45847L
				376.98355,180.49837L378.18337,179.7783L380.34304,180.01832L383.46257,178.8182L385.38229,178.8182L387.78193,179.29825L391.38139,179.05823
				L392.82117,180.01832L395.70074,180.25835L395.94071,179.7783L398.34035,179.29825L400.26006,180.49837L400.0201,181.45847L400.50002,182.41857
				L400.73999,185.29886L400.0201,190.09935L400.97995,194.65981L401.69984,197.78013L401.93981,199.4603L401.93981,200.90045L401.93981,201.3805
				L400.97995,207.62113L398.82028,212.90167L398.10038,214.82187L397.86042,217.70216L397.86042,220.34243L397.86042,223.70277
				L398.34035,224.42284L399.78013,227.78318L400.50002,233.06372L400.26006,233.30375L399.78013,234.98392L399.54017,235.46397
				L396.90056,238.10423L396.18067,238.34426L394.98085,238.82431L394.74089,240.26445L394.26096,240.98453L392.82117,242.42467
				L389.22171,243.86482L388.26186,246.02504L387.302,247.22516L385.62225,248.18526L383.22261,248.66531L379.38319,250.34548L376.98355,252.5057
				L373.62405,255.62602L372.18426,258.74634L371.70434,260.90656L371.70434,261.86665L371.70434,265.227L371.70434,266.66714L371.22441,266.42712
				L369.06473,265.46702L367.38498,264.98697L365.9452,264.02687L364.02549,262.82675L361.86581,261.14658L359.70613,261.14658L
				358.02638,260.66653L356.82656,259.46641L355.62674,258.98636L353.2271,258.98636L352.02728,258.74634L350.82746,258.02626L349.38768,257.30619
				L347.94789,255.86604L345.78822,255.14597L344.5884,255.14597L343.8685,255.38599L342.18876,254.90594L341.2289,254.18587L340.98894,254.4259
				L339.06922,256.10607L337.8694,256.58612L336.90955,258.50631L335.46976,259.46641L334.74987,261.14658L334.26994,263.3068L333.55005,265.227
				L333.07012,266.90717L332.83016,267.62724L332.59019,268.82736L332.35023,271.70766L332.11027,273.86787L332.11027,274.82797
				L330.43052,274.82797L328.75077,273.38783L327.79091,272.1877L326.35113,271.70766L323.95149,270.98758L320.35203,270.50753L
				316.03267,270.26751L313.873,269.54744L311.23339,268.58734L308.11386,268.10729L305.95418,268.10729L302.83465,269.06739L298.03537,269.54744
				L293.71601,269.78746L288.43681,269.78746L285.31727,269.78746L284.11745,270.26751L282.67767,271.70766L280.27803,273.1478L
				278.83824,274.1079L278.59828,273.62785L278.11835,267.14719L276.91853,263.54682L276.67857,261.86665L275.95867,257.78624L276.19864,256.34609
				L276.19864,256.10607L275.23878,253.94585L275.23878,251.78563L274.51889,250.10546L273.07911,248.42529L270.19954,245.06494
				L269.23968,243.86482L268.51979,243.38477L265.88018,240.02443L263.48054,239.30436L260.60097,235.70399L259.88108,231.62358
				L257.72141,229.22333L256.04166,225.38294L254.36191,223.22272L253.16209,222.26262L252.68216,222.0226L253.88198,217.46213L
				253.88198,217.22211L254.12194,214.58184L253.88198,213.86177L253.64202,212.66165L252.20223,210.74145L249.0827,206.90106L247.88288,205.94096
				L247.16299,205.22089L246.92302,205.22089L245.48324,204.50081L246.92302,197.54011L247.16299,196.58001L248.12284,195.13986
				L250.28252,193.69972L251.7223,190.81942L256.76155,182.17854L256.76155,181.45847L257.48144,176.89801L257.24148,174.49776L
				257.72141,173.77769L259.88108,170.65737L260.60097,169.21722L260.84094,168.49715L261.32087,166.33693L261.56083,165.13681L
				261.80079,164.17671L262.76065,162.01649L263.72051,160.0963L263.96047,158.1761L263.96047,157.216L264.4404,154.57573L264.92033,152.17549
				L267.7999,145.93485L271.15939,139.45419L273.55903,136.5739L274.03896,135.6138L274.03896,135.13375L278.11835,133.93363L280.27803,131.53339
				L281.23788,131.29336L282.4377,131.05334L285.31727,129.37317L286.51709,127.93302L289.39666,126.01283L290.35652,124.57268L
				290.59648,123.37256L290.59648,119.53217L290.83645,118.81209L291.07641,117.852L292.03627,117.13192L292.51619,117.37195z"/>
		</g>
		<g id="Labels">
			<g id="NEPAL_WARDS_-_Default">
				<g font-family="'Arial'" font-size="1" kerning="0" font-weight="400" fill="#000000" clip-path="url(#SVG_CP_1)" >
					<text text-anchor="start" transform="matrix(11.9982 0 0 12.00122 322.87165 209.63837)" >
						<tspan direction="ltr" unicode-bidi="embed" x="0 ">8</tspan>
					</text>
				</g>
				<g font-family="'Arial'" font-size="1" kerning="0" font-weight="400" fill="#000000" clip-path="url(#SVG_CP_1)" >
					<text text-anchor="start" transform="matrix(11.9982 0 0 12.00122 415.73774 212.03861)" >
						<tspan direction="ltr" unicode-bidi="embed" x="0 ">7</tspan>
					</text>
				</g>
				<g font-family="'Arial'" font-size="1" kerning="0" font-weight="400" fill="#000000" clip-path="url(#SVG_CP_1)" >
					<text text-anchor="start" transform="matrix(11.9982 0 0 12.00122 428.45584 114.10865)" >
						<tspan direction="ltr" unicode-bidi="embed" x="0 ">3</tspan>
					</text>
				</g>
				<g font-family="'Arial'" font-size="1" kerning="0" font-weight="400" fill="#000000" clip-path="url(#SVG_CP_1)" >
					<text text-anchor="start" transform="matrix(11.9982 0 0 12.00122 435.41479 324.37005)" >
						<tspan direction="ltr" unicode-bidi="embed" x="0 ">1</tspan>
						<tspan direction="ltr" unicode-bidi="embed" x="0.54014 ">0</tspan>
					</text>
				</g>
				<g font-family="'Arial'" font-size="1" kerning="0" font-weight="400" fill="#000000" clip-path="url(#SVG_CP_1)" >
					<text text-anchor="start" transform="matrix(11.9982 0 0 12.00122 339.18921 293.88694)" >
						<tspan direction="ltr" unicode-bidi="embed" x="0 ">9</tspan>
					</text>
				</g>
				<g font-family="'Arial'" font-size="1" kerning="0" font-weight="400" fill="#000000" clip-path="url(#SVG_CP_1)" >
					<text text-anchor="start" transform="matrix(11.9982 0 0 12.00122 517.4825 226.92013)" >
						<tspan direction="ltr" unicode-bidi="embed" x="0 ">2</tspan>
					</text>
				</g>
				<g font-family="'Arial'" font-size="1" kerning="0" font-weight="400" fill="#000000" clip-path="url(#SVG_CP_1)" >
					<text text-anchor="start" transform="matrix(11.9982 0 0 12.00122 450.53253 235.08096)" >
						<tspan direction="ltr" unicode-bidi="embed" x="0 ">6</tspan>
					</text>
				</g>
				<g font-family="'Arial'" font-size="1" kerning="0" font-weight="400" fill="#000000" clip-path="url(#SVG_CP_1)" >
					<text text-anchor="start" transform="matrix(11.9982 0 0 12.00122 456.7716 201.47754)" >
						<tspan direction="ltr" unicode-bidi="embed" x="0 ">4</tspan>
					</text>
				</g>
				<g font-family="'Arial'" font-size="1" kerning="0" font-weight="400" fill="#000000" clip-path="url(#SVG_CP_1)" >
					<text text-anchor="start" transform="matrix(11.9982 0 0 12.00122 507.16405 270.8446)" >
						<tspan direction="ltr" unicode-bidi="embed" x="0 ">1</tspan>
					</text>
				</g>
				<g font-family="'Arial'" font-size="1" kerning="0" font-weight="400" fill="#000000" clip-path="url(#SVG_CP_1)" >
					<text text-anchor="start" transform="matrix(11.9982 0 0 12.00122 477.64847 273.00482)" >
						<tspan direction="ltr" unicode-bidi="embed" x="0 ">5</tspan>
					</text>
				</g>
			</g>
		</g>
	</g>
</svg>
