<?xml version="1.0" encoding="utf-8" standalone="no"?>
<!-- Creator: Esri ArcMap 10.6.1.9270 -->
<!DOCTYPE svg PUBLIC "-//W3C//DTD SVG 1.1//EN"  "http://www.w3.org/Graphics/SVG/1.1/DTD/svg11.dtd">
<svg width="513.74173pt" height="274.23937pt" viewBox="0 0 813.74173 434.23937" enable-background="new 0 0 813.74173 434.23937"
	version="1.1" xmlns="http://www.w3.org/2000/svg" xmlns:xlink="http://www.w3.org/1999/xlink" >
	<g id="Layers">
		<g id="NEPAL_WARDS">
			<clipPath id="SVG_CP_1">
				<path d="M0,434.23937L0,0L813.74173,0L813.74173,434.23937L0,434.23937z"/>
			</clipPath>
			<path clip-path="url(#SVG_CP_1)" fill="#73B273" fill-rule="evenodd" stroke="#000000" stroke-width="0.95986" stroke-miterlimit="10" stroke-linecap="round" stroke-linejoin="round" d="
				M458.33136,120.25224L459.05126,121.21234L460.731,122.65248L463.61057,122.89251L467.68996,123.37256L468.88978,123.85261L470.32957,123.85261
				L471.76935,124.57268L473.4491,125.53278L473.92903,126.25285L474.40896,128.41307L474.64892,130.09324L474.88888,131.29336L
				474.88888,133.21356L474.88888,134.17366L474.40896,136.09385L473.92903,137.29397L473.20913,140.17427L472.96917,141.37439L
				473.4491,143.05456L473.68906,144.97476L473.4491,148.81515L473.20913,150.97537L471.52939,153.85566L470.32957,155.77586L469.84964,156.49593
				L469.12975,157.69605L466.97007,160.57634L465.77025,162.49654L465.29032,163.21661L464.0905,164.65676L461.93082,165.85688L
				460.731,167.53705L458.81129,169.45725L456.89158,170.65737L453.53208,172.33754L451.85233,173.53766L450.89248,174.25774L450.65251,174.49776
				L449.45269,176.65798L448.25287,178.57818L447.77294,180.25835L447.53298,181.21845L447.05305,181.45847L446.0932,181.93852L
				442.49373,183.13864L439.85413,183.85871L438.17438,185.05884L438.17438,186.01893L436.97456,186.97903L435.77474,187.21906L
				433.3751,187.21906L431.69535,187.6991L430.25557,188.17915L428.57582,188.89923L426.89607,189.37928L425.93621,189.85932L423.77654,190.33937
				L423.05665,190.33937L421.61686,191.05945L420.89697,191.5395L420.17708,192.01954L419.45718,192.25957L418.97726,193.21967L
				418.49733,193.93974L417.53747,195.37989L417.05754,195.37989L417.05754,195.61991L416.57762,195.85994L416.09769,196.33998L
				415.61776,196.82003L415.13783,197.54011L414.41794,198.26018L413.21812,198.98025L412.0183,199.70033L409.37869,200.90045L408.41884,201.14047
				L407.45898,201.14047L405.05934,200.66042L404.09948,200.90045L403.37959,201.14047L402.41974,200.66042L401.69984,200.90045
				L400.50002,201.3805L398.82028,201.86055L398.82028,202.58062L398.82028,203.54072L399.06024,204.50081L399.06024,205.70094L
				399.06024,206.42101L398.82028,206.90106L397.86042,207.38111L396.6606,207.62113L394.98085,208.10118L393.78103,208.34121L393.06114,208.82125
				L392.82117,209.3013L392.58121,210.50143L392.34125,211.2215L390.90146,212.90167L390.90146,213.14169L390.18157,213.38172L388.74178,213.62174
				L386.82207,213.86177L383.9425,214.10179L382.26275,213.86177L381.3029,214.10179L380.58301,214.58184L380.10308,214.82187L379.38319,215.30191
				L378.66329,215.30191L377.9434,214.82187L377.46347,214.58184L376.74358,214.34182L376.02369,214.34182L375.06383,214.58184L
				374.34394,215.06189L373.86401,215.54194L373.38408,215.78196L372.42423,215.78196L371.22441,215.54194L370.50452,215.54194L
				369.78462,215.54194L366.90505,216.98209L365.22531,217.70216L363.78552,218.18221L362.34574,218.66226L362.10577,218.90228L
				361.86581,219.38233L361.14592,218.90228L360.90595,218.66226L360.18606,218.18221L359.9461,217.94218L359.46617,217.46213L358.02638,214.82187
				L356.82656,213.38172L355.86671,212.66165L355.62674,212.1816L355.38678,212.1816L354.18696,211.46152L353.70703,211.2215L352.50721,210.74145
				L352.26725,210.50143L350.34753,209.78135L349.38768,209.06128L348.90775,208.34121L348.42782,208.10118L347.94789,207.62113
				L347.94789,207.38111L346.02818,206.42101L344.5884,205.46091L343.62854,204.50081L342.90865,204.02077L342.42872,203.78074L
				342.18876,203.78074L341.46886,202.82064L340.74897,201.14047L340.50901,201.14047L340.02908,200.90045L339.06922,200.66042L
				338.58929,200.4204L337.38947,199.4603L337.14951,198.74023L336.90955,198.5002L336.18965,198.26018L335.2298,198.02016L334.74987,197.06006
				L332.35023,190.81942L331.39037,188.89923L330.43052,187.93913L329.71062,186.97903L328.99073,186.49898L328.03088,185.29886
				L327.79091,184.81881L327.31098,182.17854L327.07102,181.45847L326.83106,180.97842L326.11116,180.49837L325.15131,179.7783L
				323.95149,179.53827L322.75167,178.33815L321.07192,178.09813L320.83195,178.09813L320.35203,178.57818L319.8721,179.53827L319.63213,179.53827
				L318.67228,179.7783L318.19235,179.53827L317.23249,179.29825L316.27264,178.57818L315.79271,178.33815L315.07282,178.09813L
				314.11296,177.61808L314.59289,175.93791L315.07282,173.77769L315.55274,170.89739L315.55274,170.65737L316.27264,169.69727L
				317.95239,168.25713L319.15221,167.057L320.11206,165.61686L321.07192,163.69666L324.19145,157.93608L324.43142,157.216L325.8712,153.85566
				L326.35113,151.45542L326.59109,146.17488L326.83106,141.37439L326.11116,139.45419L325.39127,138.01405L321.79181,134.65371
				L320.35203,133.45358L319.15221,131.77341L319.15221,128.65309L319.39217,126.49288L319.39217,125.7728L319.63213,123.13253L
				320.35203,120.49226L320.59199,120.01222L320.83195,119.77219L321.07192,119.29214L322.27174,118.09202L323.95149,117.13192L
				326.11116,115.9318L327.31098,114.9717L328.03088,114.0116L328.75077,112.81148L329.71062,110.89129L329.95059,110.65126L331.39037,108.73107
				L332.83016,107.29092L334.74987,106.0908L336.42962,104.41063L337.62944,103.45053L339.06922,102.73046L340.02908,102.25041L
				340.98894,103.69055L341.46886,106.57085L341.46886,108.49104L345.06832,109.93119L347.94789,112.57146L351.06743,115.45175L
				353.46707,116.41185L356.34664,118.09202L358.26635,120.49226L360.66599,122.89251L362.34574,124.57268L364.74538,126.97292L
				366.18516,128.17305L369.54466,130.09324L371.9443,131.77341L375.78372,132.49349L378.90326,131.53339L381.54286,129.61319L384.90236,129.61319
				L387.06204,130.57329L387.302,132.01344L384.6624,134.17366L382.02279,135.37378L380.58301,137.05395L376.26365,144.25468L374.82387,148.81515
				L372.66419,151.45542L371.70434,155.05578L370.74448,157.69605L371.22441,161.29642L371.46437,161.29642L375.54376,160.81637
				L378.66329,162.25652L380.34304,162.01649L382.74268,161.05639L386.10218,162.49654L391.62135,163.93669L394.74089,164.89678
				L398.10038,164.41673L399.78013,162.49654L403.13963,160.57634L405.2993,158.65615L405.05934,156.97598L405.53927,154.81576L
				407.93891,153.85566L409.61866,151.21539L411.05844,147.375L413.45808,144.73473L417.77744,143.77463L419.21722,142.57451L421.3769,139.21417
				L423.53657,135.13375L424.0165,134.65371L426.65611,133.45358L429.05575,131.77341L432.17528,131.53339L434.57492,131.29336L
				437.21453,131.05334L439.61417,127.21295L441.53388,126.7329L443.93352,125.05273L447.53298,124.57268L451.13244,122.89251L455.21183,120.97231
				L458.33136,120.25224z"/>
			<path clip-path="url(#SVG_CP_1)" fill="#73B273" fill-rule="evenodd" stroke="#000000" stroke-width="0.95986" stroke-miterlimit="10" stroke-linecap="round" stroke-linejoin="round" d="
				M404.09948,200.90045L404.33945,202.34059L403.85952,203.78074L403.13963,207.38111L402.89966,207.62113L403.61956,208.34121
				L405.05934,209.78135L406.0192,210.50143L407.93891,212.66165L408.89877,214.10179L410.33855,216.26201L411.29841,217.70216L
				413.69805,219.86238L415.61776,222.0226L416.33765,222.26262L416.57762,224.66287L417.29751,227.06311L417.05754,229.9434L417.77744,232.10362
				L417.53747,234.26384L417.77744,234.50387L418.97726,236.42406L419.45718,238.34426L420.41704,240.50448L418.97726,241.22455
				L418.49733,242.42467L418.25736,244.34487L418.49733,245.30497L419.93711,247.22516L419.93711,249.86543L420.89697,252.02565
				L422.57672,253.70582L423.29661,254.90594L423.29661,256.58612L424.25647,258.50631L424.73639,260.42651L424.49643,261.62663
				L423.05665,262.10668L422.57672,262.10668L421.85683,263.06678L420.657,263.3068L420.17708,264.2669L420.17708,265.46702L419.21722,266.90717
				L418.25736,268.82736L417.29751,270.50753L417.53747,272.1877L417.77744,272.42773L419.45718,273.38783L420.89697,275.30802L
				422.81668,277.70827L424.73639,279.14841L426.41614,280.82858L427.376,281.78868L427.61596,282.74878L427.13603,284.42895L425.69625,286.58917
				L423.53657,288.02932L422.81668,289.46946L422.09679,289.46946L420.17708,290.90961L419.21722,291.62968L418.25736,291.86971
				L416.81758,291.38966L416.57762,291.14963L415.3778,289.94951L413.45808,289.22944L412.73819,288.74939L411.53837,288.26934L
				410.09859,288.26934L408.41884,288.50937L407.93891,288.74939L405.53927,288.50937L404.81938,287.78929L403.13963,286.34915L
				400.26006,285.38905L399.06024,284.909L396.6606,285.14902L395.46078,284.909L393.78103,283.70888L393.06114,282.74878L392.82117,281.54866
				L392.82117,279.86849L392.10128,278.18831L391.14142,276.74817L389.70164,276.26812L387.78193,276.02809L385.86222,275.78807
				L383.9425,275.068L383.22261,275.30802L381.3029,277.22822L380.10308,277.46824L378.90326,276.98819L377.9434,276.02809L377.70344,275.78807
				L377.22351,274.82797L375.78372,272.90778L374.82387,272.1877L372.90416,271.70766L371.46437,271.46763L367.38498,272.66775L
				364.98534,273.86787L362.82567,273.86787L360.42602,273.38783L358.98624,272.66775L356.34664,271.46763L355.14682,270.74756L
				356.10667,267.14719L356.5866,260.18648L356.5866,255.62602L356.34664,251.06555L355.86671,248.90533L357.30649,245.78502L359.70613,242.90472
				L360.42602,241.94463L360.42602,241.46458L360.66599,240.02443L360.42602,239.30436L360.42602,238.58428L359.9461,238.10423L
				359.46617,236.90411L359.46617,234.98392L358.98624,233.54377L359.46617,231.38355L358.98624,229.22333L358.74628,228.26323L
				358.26635,225.38294L358.26635,224.90289L358.50631,224.18282L358.98624,223.22272L358.98624,222.9827L359.2262,222.74267L359.46617,222.26262
				L359.9461,221.78257L360.42602,221.30252L361.62585,219.62235L361.86581,219.38233L362.10577,218.90228L362.34574,218.66226L
				363.78552,218.18221L365.22531,217.70216L366.90505,216.98209L369.78462,215.54194L370.50452,215.54194L371.22441,215.54194L
				372.42423,215.78196L373.38408,215.78196L373.86401,215.54194L374.34394,215.06189L375.06383,214.58184L376.02369,214.34182L
				376.74358,214.34182L377.46347,214.58184L377.9434,214.82187L378.66329,215.30191L379.38319,215.30191L380.10308,214.82187L380.58301,214.58184
				L381.3029,214.10179L382.26275,213.86177L383.9425,214.10179L386.82207,213.86177L388.74178,213.62174L390.18157,213.38172L390.90146,213.14169
				L390.90146,212.90167L392.34125,211.2215L392.58121,210.50143L392.82117,209.3013L393.06114,208.82125L393.78103,208.34121L394.98085,208.10118
				L396.6606,207.62113L397.86042,207.38111L398.82028,206.90106L399.06024,206.42101L399.06024,205.70094L399.06024,204.50081L
				398.82028,203.54072L398.82028,202.58062L398.82028,201.86055L400.50002,201.3805L401.69984,200.90045L402.41974,200.66042L403.37959,201.14047
				L404.09948,200.90045z"/>
			<path clip-path="url(#SVG_CP_1)" fill="#73B273" fill-rule="evenodd" stroke="#000000" stroke-width="0.95986" stroke-miterlimit="10" stroke-linecap="round" stroke-linejoin="round" d="
				M454.49194,293.54988L454.25197,293.7899L451.13244,295.47007L449.69266,296.19015L447.53298,296.43017L446.0932,295.47007L445.13334,294.26995
				L444.17348,292.58978L442.7337,291.14963L440.33406,289.94951L439.13424,290.18954L438.41435,290.18954L437.69445,290.18954L
				436.49463,289.70949L434.81488,288.98941L433.61506,288.98941L432.65521,288.98941L431.69535,289.94951L429.77564,292.58978L
				429.05575,293.06983L428.81578,292.8298L427.376,291.86971L424.97636,289.94951L423.05665,289.46946L422.81668,289.46946L423.53657,288.02932
				L425.69625,286.58917L427.13603,284.42895L427.61596,282.74878L427.376,281.78868L426.41614,280.82858L424.73639,279.14841L422.81668,277.70827
				L420.89697,275.30802L419.45718,273.38783L417.77744,272.42773L417.53747,272.1877L417.29751,270.50753L418.25736,268.82736L
				419.21722,266.90717L420.17708,265.46702L420.17708,264.2669L420.657,263.3068L421.85683,263.06678L422.57672,262.10668L423.05665,262.10668
				L424.49643,261.62663L424.73639,260.42651L424.25647,258.50631L423.29661,256.58612L423.29661,254.90594L422.57672,253.70582
				L420.89697,252.02565L419.93711,249.86543L419.93711,247.22516L418.49733,245.30497L418.25736,244.34487L418.49733,242.42467
				L418.97726,241.22455L420.41704,240.50448L419.45718,238.34426L418.97726,236.42406L417.77744,234.50387L417.53747,234.26384
				L417.77744,232.10362L417.05754,229.9434L417.29751,227.06311L416.57762,224.66287L416.33765,222.26262L415.61776,222.0226L413.69805,219.86238
				L411.29841,217.70216L410.33855,216.26201L408.89877,214.10179L407.93891,212.66165L406.0192,210.50143L405.05934,209.78135L
				403.61956,208.34121L402.89966,207.62113L403.13963,207.38111L403.85952,203.78074L404.33945,202.34059L404.09948,200.90045L
				405.05934,200.66042L407.45898,201.14047L408.41884,201.14047L409.37869,200.90045L412.0183,199.70033L413.21812,198.98025L414.41794,198.26018
				L415.13783,197.54011L415.61776,196.82003L416.09769,196.33998L416.57762,195.85994L417.05754,195.61991L417.05754,195.37989
				L417.53747,195.37989L418.49733,193.93974L418.97726,193.21967L419.45718,192.25957L420.17708,192.01954L420.89697,191.5395L
				421.61686,191.05945L423.05665,190.33937L423.77654,190.33937L425.93621,189.85932L426.89607,189.37928L428.57582,188.89923L
				430.25557,188.17915L431.69535,187.6991L433.3751,187.21906L435.77474,187.21906L436.97456,186.97903L438.17438,186.01893L438.17438,185.05884
				L439.85413,183.85871L442.49373,183.13864L446.0932,181.93852L447.05305,181.45847L447.53298,181.21845L447.77294,180.25835L
				448.25287,178.57818L449.45269,176.65798L450.65251,174.49776L450.89248,174.25774L450.89248,175.21783L451.13244,177.37805L
				451.61237,179.53827L453.05215,182.17854L454.49194,183.61869L456.41165,186.73901L458.33136,188.41918L460.731,190.5794L462.41075,192.49959
				L463.61057,195.13986L464.57043,196.33998L466.49014,197.06006L467.45,198.98025L467.45,201.62052L467.45,204.74084L467.68996,207.14108
				L468.40985,208.58123L469.60967,209.78135L470.32957,211.2215L471.52939,212.90167L471.52939,214.58184L471.52939,215.78196L
				470.80949,217.22211L470.32957,219.1423L468.16989,218.90228L466.73011,220.34243L465.77025,222.50265L466.73011,224.18282L466.97007,226.58306
				L466.01021,228.98331L466.49014,230.9035L467.45,232.34365L469.12975,234.02382L470.0896,237.62419L470.56953,239.54438L471.28942,241.22455
				L472.24928,243.6248L472.96917,246.02504L473.68906,247.94524L474.16899,250.34548L473.92903,252.02565L473.92903,253.94585L
				474.40896,257.30619L474.16899,260.66653L472.96917,262.58673L472.48924,265.94707L471.28942,268.34731L469.60967,270.74756L
				468.40985,272.1877L468.16989,273.62785L466.73011,275.068L465.53028,277.22822L465.05036,278.90839L465.77025,280.82858L466.73011,282.26873
				L466.01021,283.70888L466.25018,286.10912L465.77025,286.82919L465.53028,286.34915L463.13064,285.14902L460.49104,284.909L458.81129,284.66897
				L457.61147,283.70888L455.93172,282.50875L454.97187,281.54866L453.29212,281.06861L452.81219,280.82858L452.0923,282.74878L
				453.29212,285.14902L454.01201,288.02932L453.53208,289.94951L454.49194,291.62968L454.49194,293.54988z"/>
			<path clip-path="url(#SVG_CP_1)" fill="#73B273" fill-rule="evenodd" stroke="#000000" stroke-width="0.95986" stroke-miterlimit="10" stroke-linecap="round" stroke-linejoin="round" d="
				M485.4473,167.057L482.56773,171.13742L482.56773,172.57757L482.56773,174.01771L483.76755,176.65798L484.24748,177.13803L484.72741,177.8581
				L484.48745,178.8182L485.4473,180.25835L485.4473,182.41857L485.68727,184.09874L485.20734,186.01893L484.96737,187.6991L484.48745,188.41918
				L484.00752,189.85932L484.24748,190.81942L484.24748,192.49959L485.68727,194.41979L485.68727,194.89984L485.20734,195.13986
				L484.96737,194.89984L484.00752,193.93974L483.76755,193.69972L483.52759,193.69972L482.8077,194.65981L482.56773,197.54011L
				482.32777,198.5002L480.64802,200.90045L480.40806,201.62052L480.16809,202.34059L479.68816,203.06067L479.4482,203.78074L479.20824,204.02077
				L479.20824,204.26079L479.68816,205.22089L479.4482,206.66103L479.20824,207.14108L479.20824,207.86116L479.68816,208.58123L
				480.16809,208.82125L480.16809,209.06128L480.16809,209.54133L479.92813,210.02138L479.4482,210.2614L479.20824,210.74145L479.20824,211.70155
				L479.4482,213.38172L479.20824,214.58184L479.20824,214.82187L479.20824,215.30191L479.20824,215.78196L479.4482,216.74206L480.16809,217.70216
				L480.64802,218.18221L481.12795,219.38233L481.36791,219.86238L481.60788,220.58245L482.32777,221.78257L483.52759,224.42284
				L484.00752,225.14292L483.76755,225.86299L484.00752,226.58306L484.48745,227.30314L484.96737,228.02321L484.72741,228.98331
				L484.48745,230.18343L484.48745,231.62358L484.48745,233.30375L484.96737,234.50387L485.68727,235.70399L485.92723,236.18404
				L485.92723,238.10423L486.16719,238.82431L486.16719,239.30436L486.64712,239.78441L486.88709,240.7445L487.60698,241.22455L
				487.84694,241.46458L487.84694,243.14475L488.08691,243.86482L488.8068,244.10485L489.28673,244.58489L489.52669,247.22516L490.00662,247.46519
				L490.00662,248.42529L489.52669,251.06555L489.76666,251.5456L489.76666,251.78563L489.52669,252.26568L488.8068,253.4658L488.32687,254.4259
				L488.08691,255.14597L487.84694,256.34609L487.84694,257.06616L488.32687,257.30619L488.32687,257.54621L488.56683,258.50631
				L488.56683,259.22638L488.08691,259.70643L488.08691,260.42651L488.32687,260.90656L488.32687,261.3866L487.84694,261.62663L
				487.84694,262.10668L488.08691,262.58673L488.08691,263.06678L488.32687,263.3068L488.32687,263.54682L488.56683,263.54682L488.56683,264.2669
				L488.56683,264.50692L489.28673,267.14719L490.00662,269.30741L490.00662,270.26751L490.24658,270.74756L490.48655,271.70766
				L490.96648,272.42773L490.96648,272.66775L491.20644,274.34792L491.4464,275.30802L491.4464,275.78807L491.4464,276.02809L490.72651,277.94829
				L490.24658,278.66836L489.28673,279.86849L488.8068,280.58856L487.84694,282.02871L487.84694,282.74878L487.84694,283.46885L
				488.08691,284.66897L487.84694,284.909L488.08691,285.38905L488.08691,286.10912L487.84694,287.06922L488.08691,287.78929L488.08691,288.02932
				L488.56683,289.94951L488.32687,289.94951L487.60698,290.90961L487.12705,292.34976L486.16719,294.02993L484.24748,295.23005
				L481.84784,296.19015L480.16809,297.15024L478.48834,298.11034L477.28852,298.35037L475.60878,298.83042L474.16899,298.59039
				L473.4491,297.63029L472.96917,296.6702L471.76935,295.95012L470.80949,295.47007L469.60967,294.75L468.64982,294.50998L467.68996,293.54988
				L466.97007,293.30985L465.77025,293.30985L465.05036,293.7899L463.61057,294.26995L461.4509,294.99002L459.77115,294.99002L458.81129,294.26995
				L457.85143,293.30985L457.37151,293.30985L455.93172,293.30985L454.49194,293.54988L454.49194,291.62968L453.53208,289.94951
				L454.01201,288.02932L453.29212,285.14902L452.0923,282.74878L452.81219,280.82858L453.29212,281.06861L454.97187,281.54866L
				455.93172,282.50875L457.61147,283.70888L458.81129,284.66897L460.49104,284.909L463.13064,285.14902L465.53028,286.34915L465.77025,286.82919
				L466.25018,286.10912L466.01021,283.70888L466.73011,282.26873L465.77025,280.82858L465.05036,278.90839L465.53028,277.22822
				L466.73011,275.068L468.16989,273.62785L468.40985,272.1877L469.60967,270.74756L471.28942,268.34731L472.48924,265.94707L472.96917,262.58673
				L474.16899,260.66653L474.40896,257.30619L473.92903,253.94585L473.92903,252.02565L474.16899,250.34548L473.68906,247.94524
				L472.96917,246.02504L472.24928,243.6248L471.28942,241.22455L470.56953,239.54438L470.0896,237.62419L469.12975,234.02382L467.45,232.34365
				L466.49014,230.9035L466.01021,228.98331L466.97007,226.58306L466.73011,224.18282L465.77025,222.50265L466.73011,220.34243L
				468.16989,218.90228L470.32957,219.1423L470.80949,217.22211L471.52939,215.78196L471.52939,214.58184L471.52939,212.90167L470.32957,211.2215
				L469.60967,209.78135L468.40985,208.58123L467.68996,207.14108L467.45,204.74084L467.45,201.62052L467.45,198.98025L466.49014,197.06006
				L464.57043,196.33998L463.61057,195.13986L462.41075,192.49959L460.731,190.5794L458.33136,188.41918L456.41165,186.73901L454.49194,183.61869
				L453.05215,182.17854L451.61237,179.53827L451.13244,177.37805L450.89248,175.21783L450.89248,174.25774L451.85233,173.53766
				L453.53208,172.33754L456.89158,170.65737L458.81129,169.45725L460.731,167.53705L461.93082,165.85688L464.0905,164.65676L465.29032,163.21661
				L465.77025,162.49654L466.97007,160.57634L469.12975,157.69605L469.84964,156.49593L470.32957,155.77586L473.4491,157.93608L
				476.32867,160.33632L478.96827,162.73656L481.12795,163.93669L482.32777,164.65676L484.24748,166.57695L485.4473,167.057z"/>
			<path clip-path="url(#SVG_CP_1)" fill="#73B273" fill-rule="evenodd" stroke="#000000" stroke-width="0.95986" stroke-miterlimit="10" stroke-linecap="round" stroke-linejoin="round" d="
				M316.99253,211.2215L316.5126,212.1816L315.79271,213.14169L314.83285,214.58184L314.35292,215.54194L314.59289,216.98209L314.35292,219.38233
				L313.873,222.0226L313.1531,224.66287L312.43321,226.82309L312.43321,227.06311L310.99343,231.14353L309.79361,233.54377L308.59379,235.46397
				L308.83375,236.42406L307.87389,238.10423L307.154,239.54438L305.71422,239.78441L304.03447,240.7445L301.63483,241.22455L298.75526,241.7046
				L297.55544,241.22455L297.31548,241.46458L295.39576,241.94463L293.95598,241.94463L293.23609,243.14475L292.27623,243.38477
				L291.31637,242.42467L291.31637,242.18465L289.39666,242.6647L289.63663,242.6647L290.35652,243.86482L290.35652,245.06494L291.07641,246.74511
				L291.55634,247.22516L292.27623,247.94524L292.75616,248.18526L293.71601,248.66531L294.67587,249.14536L295.1558,249.38538L
				297.07551,250.34548L298.03537,250.82553L298.99522,250.82553L299.71512,251.30558L301.1549,251.5456L302.11476,252.5057L302.35472,253.4658
				L302.59469,254.66592L302.83465,255.38599L303.07461,255.86604L303.31458,256.58612L304.27443,256.82614L304.27443,257.30619
				L303.55454,258.74634L302.11476,259.94646L301.87479,260.66653L301.63483,262.3467L302.11476,263.54682L301.87479,264.98697L
				300.91494,266.18709L299.47515,265.94707L296.83555,263.78685L294.43591,262.3467L293.47605,260.66653L292.27623,259.22638L292.03627,258.74634
				L291.31637,257.78624L291.07641,257.78624L290.35652,257.78624L289.1567,258.74634L288.43681,259.46641L287.47695,258.50631L
				287.47695,257.06616L287.95688,255.62602L287.71691,253.94585L286.75706,252.98575L285.31727,253.70582L284.11745,254.90594L
				282.67767,256.10607L281.47785,257.54621L280.03806,257.78624L278.83824,258.50631L277.87839,259.46641L277.15849,260.42651L
				275.23878,260.90656L273.31907,260.66653L271.87929,260.66653L270.4395,261.3866L269.71961,262.58673L269.23968,263.78685L268.51979,265.227
				L267.08,266.42712L266.12015,267.14719L265.40026,267.86726L264.68036,268.34731L265.40026,266.42712L265.64022,263.78685L266.12015,260.66653
				L267.31997,257.54621L267.08,253.22577L265.64022,251.5456L264.4404,249.14536L263.72051,247.70521L263.48054,247.22516L264.20044,244.10485
				L264.92033,242.18465L265.40026,239.78441L265.40026,238.10423L265.64022,236.90411L264.4404,237.14414L263.00061,236.18404L
				263.96047,234.98392L264.20044,234.50387L264.68036,233.30375L265.16029,230.66348L265.40026,229.70338L266.84004,226.10301L
				266.84004,224.42284L266.84004,223.70277L266.84004,221.30252L266.36011,219.86238L266.36011,218.42223L266.36011,217.70216L
				266.36011,216.26201L267.31997,214.82187L268.51979,212.66165L268.99972,211.70155L270.4395,208.10118L270.91943,206.90106L271.15939,205.46091
				L271.39936,203.78074L272.11925,202.58062L273.07911,200.90045L274.03896,199.70033L274.27893,199.4603L275.71871,200.66042L
				277.39846,203.30069L279.07821,204.50081L281.71781,204.74084L283.63752,206.90106L284.11745,209.54133L285.07731,211.46152L
				287.47695,211.94157L289.87659,212.66165L291.31637,212.42162L294.43591,210.50143L295.63573,209.54133L297.31548,209.06128L
				299.95508,209.06128L302.59469,209.06128L304.5144,209.78135L306.19415,210.02138L306.43411,210.02138L307.63393,211.70155L307.63393,212.90167
				L308.59379,214.58184L310.27354,214.10179L311.23339,213.62174L312.19325,211.94157L314.11296,210.74145L314.35292,210.50143
				L316.27264,210.98147L316.99253,211.2215z"/>
			<path clip-path="url(#SVG_CP_1)" fill="#73B273" fill-rule="evenodd" stroke="#000000" stroke-width="0.95986" stroke-miterlimit="10" stroke-linecap="round" stroke-linejoin="round" d="
				M361.86581,219.38233L361.62585,219.62235L360.42602,221.30252L359.9461,221.78257L359.46617,222.26262L359.2262,222.74267L358.98624,222.9827
				L358.98624,223.22272L357.78642,222.9827L356.5866,222.0226L355.14682,221.54255L353.46707,221.0625L351.54735,220.58245L349.86761,220.34243
				L348.90775,217.94218L346.50811,216.74206L344.34843,216.02199L341.94879,216.02199L340.02908,216.26201L339.78912,216.26201
				L338.34933,216.26201L336.90955,214.58184L334.98983,213.62174L332.35023,213.38172L329.2307,212.90167L327.07102,212.42162L
				324.43142,211.70155L320.83195,210.98147L319.63213,211.2215L318.19235,211.46152L316.99253,211.2215L316.27264,210.98147L314.35292,210.50143
				L314.11296,210.74145L312.19325,211.94157L311.23339,213.62174L310.27354,214.10179L308.59379,214.58184L307.63393,212.90167
				L307.63393,211.70155L306.43411,210.02138L306.19415,210.02138L304.5144,209.78135L302.59469,209.06128L299.95508,209.06128L
				297.31548,209.06128L295.63573,209.54133L294.43591,210.50143L291.31637,212.42162L289.87659,212.66165L287.47695,211.94157L
				285.07731,211.46152L284.11745,209.54133L283.63752,206.90106L281.71781,204.74084L279.07821,204.50081L277.39846,203.30069L
				275.71871,200.66042L274.27893,199.4603L275.71871,198.26018L278.83824,197.30008L280.99792,196.58001L281.47785,196.33998L284.11745,195.37989
				L286.51709,194.17976L288.43681,192.73962L289.87659,191.5395L291.31637,190.5794L293.71601,190.09935L297.31548,190.33937L298.5153,190.09935
				L301.1549,189.13925L303.55454,187.93913L306.19415,186.49898L308.35382,185.53888L309.79361,184.57879L311.95328,182.17854L
				313.1531,180.01832L313.873,177.8581L314.11296,177.61808L315.07282,178.09813L315.79271,178.33815L316.27264,178.57818L317.23249,179.29825
				L318.19235,179.53827L318.67228,179.7783L319.63213,179.53827L319.8721,179.53827L320.35203,178.57818L320.83195,178.09813L321.07192,178.09813
				L322.75167,178.33815L323.95149,179.53827L325.15131,179.7783L326.11116,180.49837L326.83106,180.97842L327.07102,181.45847L
				327.31098,182.17854L327.79091,184.81881L328.03088,185.29886L328.99073,186.49898L329.71062,186.97903L330.43052,187.93913L
				331.39037,188.89923L332.35023,190.81942L334.74987,197.06006L335.2298,198.02016L336.18965,198.26018L336.90955,198.5002L337.14951,198.74023
				L337.38947,199.4603L338.58929,200.4204L339.06922,200.66042L340.02908,200.90045L340.50901,201.14047L340.74897,201.14047L341.46886,202.82064
				L342.18876,203.78074L342.42872,203.78074L342.90865,204.02077L343.62854,204.50081L344.5884,205.46091L346.02818,206.42101L
				347.94789,207.38111L347.94789,207.62113L348.42782,208.10118L348.90775,208.34121L349.38768,209.06128L350.34753,209.78135L
				352.26725,210.50143L352.50721,210.74145L353.70703,211.2215L354.18696,211.46152L355.38678,212.1816L355.62674,212.1816L355.86671,212.66165
				L356.82656,213.38172L358.02638,214.82187L359.46617,217.46213L359.9461,217.94218L360.18606,218.18221L360.90595,218.66226L
				361.14592,218.90228L361.86581,219.38233z"/>
			<path clip-path="url(#SVG_CP_1)" fill="#73B273" fill-rule="evenodd" stroke="#000000" stroke-width="0.95986" stroke-miterlimit="10" stroke-linecap="round" stroke-linejoin="round" d="
				M358.98624,223.22272L358.50631,224.18282L358.26635,224.90289L358.26635,225.38294L358.74628,228.26323L358.98624,229.22333
				L359.46617,231.38355L358.98624,233.54377L359.46617,234.98392L359.46617,236.90411L359.9461,238.10423L360.42602,238.58428L
				360.42602,239.30436L360.66599,240.02443L360.42602,241.46458L360.42602,241.94463L359.70613,242.90472L357.30649,245.78502L
				355.86671,248.90533L356.34664,251.06555L356.5866,255.62602L356.5866,260.18648L356.10667,267.14719L355.14682,270.74756L354.90685,270.50753
				L352.26725,270.26751L351.06743,270.02748L350.10757,269.54744L348.42782,268.34731L347.70793,267.62724L346.26814,266.66714
				L344.82836,266.18709L343.14861,266.42712L341.94879,266.90717L340.74897,267.14719L340.50901,267.14719L339.30919,266.66714
				L338.58929,265.46702L337.8694,264.74695L335.94969,264.02687L333.79001,263.78685L332.83016,264.02687L329.95059,265.46702L
				327.07102,266.66714L326.11116,266.42712L324.43142,266.66714L323.71152,266.42712L322.99163,266.42712L321.55185,266.18709L
				317.71242,265.70704L316.5126,265.46702L315.07282,265.70704L314.83285,265.46702L314.59289,264.98697L314.11296,264.50692L313.63303,263.54682
				L313.1531,263.06678L312.67318,261.86665L312.19325,260.90656L311.71332,260.18648L311.47336,259.46641L310.5135,258.50631L309.55364,258.02626
				L308.35382,257.54621L306.19415,257.30619L304.5144,257.06616L304.27443,256.82614L303.31458,256.58612L304.99433,255.62602L
				307.154,252.98575L308.11386,250.10546L309.55364,248.18526L310.27354,247.70521L311.47336,246.50509L313.63303,246.02504L315.55274,245.30497
				L316.03267,245.54499L317.47246,243.6248L318.43231,242.18465L319.39217,240.7445L320.35203,239.06433L321.31188,236.90411L322.27174,235.94402
				L322.99163,235.22394L323.71152,234.26384L323.95149,232.34365L324.91134,230.9035L325.15131,229.70338L325.15131,228.74328L
				325.8712,227.30314L325.63124,225.38294L325.63124,224.42284L327.07102,223.94279L328.99073,223.70277L330.91044,223.94279L332.35023,225.14292
				L333.31009,226.34304L334.98983,227.54316L336.66958,224.42284L337.62944,222.0226L338.58929,219.62235L339.30919,217.94218L
				340.02908,216.26201L341.94879,216.02199L344.34843,216.02199L346.50811,216.74206L348.90775,217.94218L349.86761,220.34243L
				351.54735,220.58245L353.46707,221.0625L355.14682,221.54255L356.5866,222.0226L357.78642,222.9827L358.98624,223.22272z"/>
			<path clip-path="url(#SVG_CP_1)" fill="#73B273" fill-rule="evenodd" stroke="#000000" stroke-width="0.95986" stroke-miterlimit="10" stroke-linecap="round" stroke-linejoin="round" d="
				M340.02908,216.26201L339.30919,217.94218L338.58929,219.62235L337.62944,222.0226L336.66958,224.42284L334.98983,227.54316L
				333.31009,226.34304L332.35023,225.14292L330.91044,223.94279L328.99073,223.70277L327.07102,223.94279L325.63124,224.42284L
				325.63124,225.38294L325.8712,227.30314L325.15131,228.74328L325.15131,229.70338L324.91134,230.9035L323.95149,232.34365L323.71152,234.26384
				L322.99163,235.22394L322.27174,235.94402L321.31188,236.90411L320.35203,239.06433L319.39217,240.7445L318.43231,242.18465L
				317.47246,243.6248L316.03267,245.54499L315.55274,245.30497L313.63303,246.02504L311.47336,246.50509L310.27354,247.70521L309.55364,248.18526
				L308.11386,250.10546L307.154,252.98575L304.99433,255.62602L303.31458,256.58612L303.07461,255.86604L302.83465,255.38599L302.59469,254.66592
				L302.35472,253.4658L302.11476,252.5057L301.1549,251.5456L299.71512,251.30558L298.99522,250.82553L298.03537,250.82553L297.07551,250.34548
				L295.1558,249.38538L294.67587,249.14536L293.71601,248.66531L292.75616,248.18526L292.27623,247.94524L291.55634,247.22516L
				291.07641,246.74511L290.35652,245.06494L290.35652,243.86482L289.63663,242.6647L289.39666,242.6647L291.31637,242.18465L291.31637,242.42467
				L292.27623,243.38477L293.23609,243.14475L293.95598,241.94463L295.39576,241.94463L297.31548,241.46458L297.55544,241.22455
				L298.75526,241.7046L301.63483,241.22455L304.03447,240.7445L305.71422,239.78441L307.154,239.54438L307.87389,238.10423L308.83375,236.42406
				L308.59379,235.46397L309.79361,233.54377L310.99343,231.14353L312.43321,227.06311L312.43321,226.82309L313.1531,224.66287L
				313.873,222.0226L314.35292,219.38233L314.59289,216.98209L314.35292,215.54194L314.83285,214.58184L315.79271,213.14169L316.5126,212.1816
				L316.99253,211.2215L318.19235,211.46152L319.63213,211.2215L320.83195,210.98147L324.43142,211.70155L327.07102,212.42162L329.2307,212.90167
				L332.35023,213.38172L334.98983,213.62174L336.90955,214.58184L338.34933,216.26201L339.78912,216.26201L340.02908,216.26201
				z"/>
			<path clip-path="url(#SVG_CP_1)" fill="#73B273" fill-rule="evenodd" stroke="#000000" stroke-width="0.95986" stroke-miterlimit="10" stroke-linecap="round" stroke-linejoin="round" d="
				M547.11807,262.10668L546.8781,262.10668L546.63814,262.3467L545.43832,263.3068L543.99853,264.02687L543.27864,264.50692L542.07882,265.46702
				L541.35893,266.18709L540.879,266.42712L540.15911,266.66714L538.2394,268.10729L537.75947,268.58734L537.5195,268.82736L535.11986,270.26751
				L534.63994,270.74756L534.16001,271.22761L532.48026,272.90778L532.24029,273.1478L531.76037,273.62785L531.04047,274.82797L
				530.80051,276.02809L530.56055,276.50814L530.32058,277.22822L529.84065,278.18831L529.12076,279.14841L528.64083,279.38844L
				528.16091,279.86849L526.48116,280.82858L522.40177,283.70888L519.76216,285.14902L517.84245,287.30924L516.88259,287.54927L
				514.96288,287.78929L514.00303,288.26934L512.80321,288.74939L510.88349,289.22944L510.1636,289.22944L508.24389,288.74939L506.56414,288.98941
				L505.84425,289.70949L503.68457,291.38966L502.24479,291.62968L500.56504,291.62968L498.40536,291.62968L496.96558,291.38966
				L495.52579,291.14963L493.12615,290.66959L490.24658,289.70949L489.28673,289.94951L488.56683,289.94951L488.08691,288.02932
				L488.08691,287.78929L487.84694,287.06922L488.08691,286.10912L488.08691,285.38905L487.84694,284.909L488.08691,284.66897L487.84694,283.46885
				L487.84694,282.74878L487.84694,282.02871L488.8068,280.58856L489.28673,279.86849L490.24658,278.66836L490.72651,277.94829L
				491.4464,276.02809L491.4464,275.78807L491.4464,275.30802L491.20644,274.34792L490.96648,272.66775L490.96648,272.42773L490.48655,271.70766
				L490.24658,270.74756L490.00662,270.26751L490.00662,269.30741L489.28673,267.14719L488.56683,264.50692L488.56683,264.2669L
				488.56683,263.54682L488.32687,263.54682L488.32687,263.3068L488.08691,263.06678L488.08691,262.58673L487.84694,262.10668L487.84694,261.62663
				L488.32687,261.3866L488.32687,260.90656L488.08691,260.42651L488.08691,259.70643L488.56683,259.22638L488.56683,258.50631L
				488.32687,257.54621L488.32687,257.30619L487.84694,257.06616L487.84694,256.34609L488.08691,255.14597L488.32687,254.4259L488.8068,253.4658
				L489.52669,252.26568L489.76666,251.78563L489.76666,251.5456L489.52669,251.06555L490.00662,248.42529L490.00662,247.46519L
				489.52669,247.22516L489.28673,244.58489L488.8068,244.10485L488.08691,243.86482L487.84694,243.14475L487.84694,241.46458L487.60698,241.22455
				L486.88709,240.7445L486.64712,239.78441L486.16719,239.30436L486.16719,238.82431L485.92723,238.10423L485.92723,236.18404L
				485.68727,235.70399L484.96737,234.50387L484.48745,233.30375L484.48745,231.62358L484.48745,230.18343L484.72741,228.98331L
				484.96737,228.02321L484.48745,227.30314L484.00752,226.58306L483.76755,225.86299L484.00752,225.14292L483.52759,224.42284L
				482.32777,221.78257L481.60788,220.58245L481.36791,219.86238L481.12795,219.38233L480.64802,218.18221L480.16809,217.70216L
				479.4482,216.74206L479.20824,215.78196L479.20824,215.30191L479.20824,214.82187L481.12795,214.82187L483.52759,214.34182L485.68727,215.78196
				L487.36701,217.46213L489.28673,218.66226L490.24658,219.1423L492.1663,219.38233L495.52579,220.1024L497.20554,220.58245L499.12525,220.82248
				L500.805,221.78257L503.20464,223.70277L504.88439,225.38294L506.32418,225.62296L507.28403,226.34304L508.00392,228.26323L508.24389,229.70338
				L511.12346,231.8636L512.08331,235.22394L513.28313,235.70399L515.68277,238.58428L517.60249,240.26445L519.5222,244.10485L519.76216,244.58489
				L520.72202,243.86482L524.32148,243.38477L526.48116,242.18465L527.20105,241.7046L527.44101,241.46458L527.92094,241.22455L
				529.60069,242.90472L530.56055,243.86482L532.00033,245.78502L533.68008,246.26507L536.31968,248.66531L537.5195,248.66531L539.43922,251.30558
				L540.63904,252.26568L541.35893,253.70582L543.27864,255.62602L544.47846,257.30619L545.19835,257.54621L545.43832,259.22638
				L546.39817,260.42651L547.11807,262.10668z"/>
			<path clip-path="url(#SVG_CP_1)" fill="#73B273" fill-rule="evenodd" stroke="#000000" stroke-width="0.95986" stroke-miterlimit="10" stroke-linecap="round" stroke-linejoin="round" d="
				M556.95659,246.02504L555.99674,246.50509L555.51681,246.74511L555.27684,247.22516L554.07702,248.90533L553.83706,249.62541
				L553.5971,250.10546L553.35713,252.26568L553.5971,252.98575L553.11717,253.4658L551.67738,251.78563L550.47756,249.86543L548.31789,246.98514
				L545.91825,244.10485L543.51861,241.46458L543.03868,240.26445L541.83886,238.82431L540.63904,237.38416L538.95929,234.98392
				L538.2394,233.06372L537.5195,231.8636L536.55965,230.66348L534.63994,227.78318L533.20015,224.42284L532.72022,223.22272L532.48026,222.0226
				L531.04047,219.86238L529.84065,217.22211L528.64083,215.54194L527.68098,214.82187L526.96109,214.58184L526.96109,213.38172
				L527.68098,212.1816L528.64083,212.1816L529.36073,211.94157L532.72022,211.94157L533.68008,212.42162L534.39997,212.66165L537.03958,213.62174
				L539.67918,215.78196L542.31879,217.22211L542.55875,217.22211L542.79871,217.70216L543.75857,218.42223L543.99853,220.82248
				L543.75857,223.22272L543.75857,223.46274L544.47846,225.14292L543.99853,227.54316L544.71843,231.14353L546.8781,234.74389L
				547.35803,236.18404L549.03778,237.62419L550.95749,238.82431L551.43742,239.30436L552.15731,240.26445L552.63724,240.7445L553.5971,242.42467
				L553.83706,242.6647L555.27684,243.38477L555.75677,245.06494L556.95659,246.02504z"/>
			<path clip-path="url(#SVG_CP_1)" fill="#73B273" fill-rule="evenodd" stroke="#000000" stroke-width="0.95986" stroke-miterlimit="10" stroke-linecap="round" stroke-linejoin="round" d="
				M527.68098,212.1816L526.96109,213.38172L526.96109,214.58184L527.68098,214.82187L528.64083,215.54194L529.84065,217.22211L
				531.04047,219.86238L532.48026,222.0226L532.72022,223.22272L533.20015,224.42284L534.63994,227.78318L536.55965,230.66348L537.5195,231.8636
				L538.2394,233.06372L538.95929,234.98392L540.63904,237.38416L541.83886,238.82431L543.03868,240.26445L543.51861,241.46458L
				545.91825,244.10485L548.31789,246.98514L550.47756,249.86543L551.67738,251.78563L553.11717,253.4658L552.39728,254.66592L551.43742,255.38599
				L551.19746,255.86604L550.95749,256.34609L549.75767,258.26629L549.51771,258.74634L549.27774,259.22638L547.35803,261.62663
				L547.11807,261.86665L547.11807,262.10668L546.39817,260.42651L545.43832,259.22638L545.19835,257.54621L544.47846,257.30619
				L543.27864,255.62602L541.35893,253.70582L540.63904,252.26568L539.43922,251.30558L537.5195,248.66531L536.31968,248.66531L
				533.68008,246.26507L532.00033,245.78502L530.56055,243.86482L529.60069,242.90472L527.92094,241.22455L527.44101,241.46458L
				527.20105,241.7046L526.48116,242.18465L524.32148,243.38477L520.72202,243.86482L519.76216,244.58489L519.5222,244.10485L517.60249,240.26445
				L515.68277,238.58428L513.28313,235.70399L512.08331,235.22394L511.12346,231.8636L508.24389,229.70338L508.00392,228.26323L
				507.28403,226.34304L506.32418,225.62296L504.88439,225.38294L503.20464,223.70277L500.805,221.78257L499.12525,220.82248L497.20554,220.58245
				L495.52579,220.1024L492.1663,219.38233L490.24658,219.1423L489.28673,218.66226L487.36701,217.46213L485.68727,215.78196L483.52759,214.34182
				L481.12795,214.82187L479.20824,214.82187L479.20824,214.58184L479.4482,213.38172L479.20824,211.70155L479.20824,210.74145L
				479.4482,210.2614L479.92813,210.02138L480.16809,209.54133L480.16809,209.06128L480.16809,208.82125L479.68816,208.58123L479.20824,207.86116
				L479.20824,207.14108L479.4482,206.66103L479.68816,205.22089L479.20824,204.26079L479.20824,204.02077L479.4482,203.78074L479.68816,203.06067
				L480.16809,202.34059L480.40806,201.62052L480.64802,200.90045L482.32777,198.5002L482.56773,197.54011L482.8077,194.65981L483.52759,193.69972
				L483.76755,193.69972L484.00752,193.93974L484.96737,194.89984L485.20734,195.13986L485.68727,194.89984L485.68727,194.41979
				L484.24748,192.49959L484.24748,190.81942L484.00752,189.85932L484.48745,188.41918L484.96737,187.6991L485.20734,186.01893L
				485.68727,184.09874L485.4473,182.41857L485.4473,180.25835L484.48745,178.8182L484.72741,177.8581L484.24748,177.13803L483.76755,176.65798
				L482.56773,174.01771L482.56773,172.57757L482.56773,171.13742L485.4473,167.057L487.36701,165.85688L491.4464,165.85688L491.68637,165.85688
				L493.60608,165.37683L495.76576,164.89678L498.88529,163.69666L501.52489,162.01649L505.84425,161.05639L508.48385,160.0963L
				510.1636,158.89617L512.80321,157.45603L515.20285,156.49593L517.84245,155.29581L521.92184,152.41551L524.56144,150.25529L526.24119,148.81515
				L526.72112,150.49532L526.48116,152.89556L525.28134,156.73595L524.56144,160.81637L522.8817,165.37683L522.1618,167.29703L521.20195,170.65737
				L519.04227,176.17793L517.12256,179.7783L515.92274,182.17854L515.92274,183.61869L516.1627,186.73901L516.88259,187.93913L517.60249,189.6193
				L518.32238,196.33998L520.00213,197.78013L521.92184,199.70033L522.40177,200.18037L523.84155,203.54072L525.28134,207.38111
				L526.00123,209.3013L526.72112,210.2614L527.68098,212.1816z"/>
		</g>
		<g id="Labels">
			<g id="NEPAL_WARDS_-_Default">
				<g font-family="'Arial'" font-size="1" kerning="0" font-weight="400" fill="#000000" clip-path="url(#SVG_CP_1)" >
					<text text-anchor="start" transform="matrix(11.9982 0 0 12.00122 439.97411 240.3615)" >
						<tspan direction="ltr" unicode-bidi="embed" x="0 ">6</tspan>
					</text>
				</g>
				<g font-family="'Arial'" font-size="1" kerning="0" font-weight="400" fill="#000000" clip-path="url(#SVG_CP_1)" >
					<text text-anchor="start" transform="matrix(11.9982 0 0 12.00122 425.21632 167.63409)" >
						<tspan direction="ltr" unicode-bidi="embed" x="0 ">1</tspan>
						<tspan direction="ltr" unicode-bidi="embed" x="0.48012 ">1</tspan>
					</text>
				</g>
				<g font-family="'Arial'" font-size="1" kerning="0" font-weight="400" fill="#000000" clip-path="url(#SVG_CP_1)" >
					<text text-anchor="start" transform="matrix(11.9982 0 0 12.00122 386.22216 248.76235)" >
						<tspan direction="ltr" unicode-bidi="embed" x="0 ">5</tspan>
					</text>
				</g>
				<g font-family="'Arial'" font-size="1" kerning="0" font-weight="400" fill="#000000" clip-path="url(#SVG_CP_1)" >
					<text text-anchor="start" transform="matrix(11.9982 0 0 12.00122 497.32552 206.9981)" >
						<tspan direction="ltr" unicode-bidi="embed" x="0 ">9</tspan>
					</text>
				</g>
				<g font-family="'Arial'" font-size="1" kerning="0" font-weight="400" fill="#000000" clip-path="url(#SVG_CP_1)" >
					<text text-anchor="start" transform="matrix(11.9982 0 0 12.00122 511.72337 263.88389)" >
						<tspan direction="ltr" unicode-bidi="embed" x="0 ">8</tspan>
					</text>
				</g>
				<g font-family="'Arial'" font-size="1" kerning="0" font-weight="400" fill="#000000" clip-path="url(#SVG_CP_1)" >
					<text text-anchor="start" transform="matrix(11.9982 0 0 12.00122 472.60922 232.44069)" >
						<tspan direction="ltr" unicode-bidi="embed" x="0 ">7</tspan>
					</text>
				</g>
				<g font-family="'Arial'" font-size="1" kerning="0" font-weight="400" fill="#000000" clip-path="url(#SVG_CP_1)" >
					<text text-anchor="start" transform="matrix(11.9982 0 0 12.00122 283.99747 236.52111)" >
						<tspan direction="ltr" unicode-bidi="embed" x="0 ">2</tspan>
					</text>
				</g>
				<g font-family="'Arial'" font-size="1" kerning="0" font-weight="400" fill="#000000" clip-path="url(#SVG_CP_1)" >
					<text text-anchor="start" transform="matrix(11.9982 0 0 12.00122 334.86985 249.48242)" >
						<tspan direction="ltr" unicode-bidi="embed" x="0 ">4</tspan>
					</text>
				</g>
				<g font-family="'Arial'" font-size="1" kerning="0" font-weight="400" fill="#000000" clip-path="url(#SVG_CP_1)" >
					<text text-anchor="start" transform="matrix(11.9982 0 0 12.00122 313.75301 199.07729)" >
						<tspan direction="ltr" unicode-bidi="embed" x="0 ">1</tspan>
					</text>
				</g>
				<g font-family="'Arial'" font-size="1" kerning="0" font-weight="400" fill="#000000" clip-path="url(#SVG_CP_1)" >
					<text text-anchor="start" transform="matrix(11.9982 0 0 12.00122 313.75301 235.56101)" >
						<tspan direction="ltr" unicode-bidi="embed" x="0 ">3</tspan>
					</text>
				</g>
				<g font-family="'Arial'" font-size="1" kerning="0" font-weight="400" fill="#000000" clip-path="url(#SVG_CP_1)" >
					<text text-anchor="start" transform="matrix(11.9982 0 0 12.00122 533.5601 233.88084)" >
						<tspan direction="ltr" unicode-bidi="embed" x="0 ">1</tspan>
						<tspan direction="ltr" unicode-bidi="embed" x="0.54014 ">0</tspan>
					</text>
				</g>
			</g>
		</g>
	</g>
</svg>
