<?xml version="1.0" encoding="utf-8" standalone="no"?>
<!-- Creator: Esri ArcMap 10.6.1.9270 -->
<!DOCTYPE svg PUBLIC "-//W3C//DTD SVG 1.1//EN"  "http://www.w3.org/Graphics/SVG/1.1/DTD/svg11.dtd">
<svg width="612pt" height="792pt" viewBox="0 0 612 792" enable-background="new 0 0 612 792"
	version="1.1" xmlns="http://www.w3.org/2000/svg" xmlns:xlink="http://www.w3.org/1999/xlink" >
	<g id="Layers">
		<g id="NEPAL_WARDS">
			<clipPath id="SVG_CP_1">
				<path d="M10.80052,781.96446L10.80052,10.32059L596.66864,10.32059L596.66864,781.96446L10.80052,781.96446z"/>
			</clipPath>
			<path clip-path="url(#SVG_CP_1)" fill="#73B273" fill-rule="evenodd" stroke="#000000" stroke-width="0.96005" stroke-miterlimit="10" stroke-linecap="round" stroke-linejoin="round" d="
				M262.5726,220.57254L264.25268,223.21269L268.33288,228.25298L269.29292,230.89313L270.01296,234.49333L270.01296,235.45339L
				270.25297,236.17343L270.49298,238.81358L270.25297,239.53362L270.25297,241.93376L269.53294,244.09388L268.8129,245.29395L268.09287,246.01399
				L265.69275,247.21406L263.29264,248.17411L262.09258,249.61419L260.17249,252.73437L260.17249,252.97438L259.69246,254.41447
				L259.21244,256.09456L258.97243,259.69477L258.25239,261.85489L256.81233,264.49504L255.61227,265.93512L254.1722,267.3752L250.57203,270.73539
				L244.81175,275.29565L241.21158,279.37588L240.25153,281.29599L239.77151,283.45612L239.29148,284.8962L239.5315,286.33628L240.01152,287.29633
				L244.57174,290.1765L246.73184,293.05666L247.9319,295.4568L248.17191,297.61692L249.37197,299.77704L249.85199,300.97711L250.092,308.41754
				L249.61198,310.57766L248.65193,312.49777L247.69189,313.69784L246.01181,315.85796L245.29177,316.578L243.61169,317.77807L242.17162,318.97814
				L239.5315,319.21815L238.57145,318.73812L235.93132,318.49811L232.81117,318.97814L230.17105,318.2581L228.73098,317.53805L228.01094,317.53805
				L224.65078,316.09797L223.45072,315.13792L222.01066,314.41788L220.57059,313.45782L217.69045,312.25775L216.01037,311.05769
				L215.05032,311.05769L213.85026,311.05769L212.17018,310.57766L211.45015,310.57766L209.29004,311.05769L206.64992,312.25775
				L202.80973,315.61795L199.68958,318.01808L198.0095,318.97814L195.8494,320.65823L194.40933,321.37827L192.72925,322.33833L189.84911,323.5384
				L184.08884,324.01842L180.96869,323.5384L179.52862,323.77841L175.44842,324.49845L173.04831,325.4585L170.8882,326.65857L169.44813,326.89859
				L168.7281,326.41856L170.40818,324.25844L171.12821,322.81835L171.84825,321.37827L172.08826,320.41822L171.84825,318.97814L
				171.84825,317.53805L172.08826,315.85796L172.32827,315.37793L174.24836,314.65789L175.44842,313.69784L177.36851,312.9778L178.80858,312.25775
				L179.76863,311.05769L181.2087,308.89756L184.80887,305.05734L185.5289,303.61726L186.24894,301.69715L185.28889,300.97711L183.84882,300.49709
				L179.76863,299.057L176.40847,298.09695L173.04831,298.09695L170.64819,297.13689L168.7281,295.93683L167.28803,294.25673L166.56799,293.53669
				L165.60795,291.13655L164.40789,288.4964L163.20783,286.57629L162.4878,285.85625L161.28774,285.37623L159.84767,285.13621L158.16759,284.41617
				L157.44756,283.69613L155.76748,280.33594L155.28745,279.13587L154.80743,278.17582L152.64733,276.25571L151.92729,276.01569
				L148.56713,275.29565L147.36707,274.57561L147.12706,274.09558L146.88705,272.6555L145.927,270.97541L145.927,269.0553L148.80714,262.0949
				L148.80714,260.17479L148.56713,257.29463L148.56713,256.33457L148.56713,255.85455L148.32712,252.49436L148.32712,251.05427
				L149.04715,246.49402L149.04715,243.61385L148.56713,241.69374L146.88705,235.93341L146.40703,231.61317L147.60708,227.77295
				L147.60708,225.85284L147.36707,224.89279L147.12706,222.25264L147.36707,221.5326L148.08711,221.05257L148.56713,220.81255L
				151.20726,220.33253L152.64733,219.8525L152.64733,219.13246L152.40731,218.41242L151.44727,217.69238L150.0072,216.97234L149.28717,216.49231
				L148.32712,215.29224L147.8471,213.85216L146.88705,208.09183L145.20697,202.81153L144.24692,200.4114L142.32683,197.0512L142.32683,196.09115
				L145.20697,191.7709L146.16702,190.33082L146.64704,191.05086L147.12706,191.7709L149.28717,193.93103L150.24721,194.41105L152.1673,196.09115
				L153.84738,197.29122L159.60766,204.0116L161.76776,205.93171L164.88791,207.85182L171.84825,211.69204L175.92844,213.13212L
				177.36851,213.61215L178.32856,213.61215L183.60881,215.05223L187.20898,216.97234L189.84911,217.69238L195.12937,218.1724L199.20956,219.37247
				L199.9296,219.8525L205.68987,222.01262L208.57001,222.01262L209.77007,221.5326L211.93017,220.33253L213.61025,218.65243L216.49039,215.77227
				L217.93046,214.09217L221.29062,210.972L222.9707,209.05189L223.69074,208.09183L224.65078,205.93171L224.89079,204.0116L225.1308,200.17138
				L226.81089,197.77124L227.77093,197.0512L228.25095,195.37111L228.97099,194.89108L230.65107,192.49094L235.4513,184.81051L235.69131,184.33048
				L241.45159,172.56981L243.61169,168.48958L245.05176,170.16968L246.01181,172.56981L246.49183,174.96995L247.9319,177.13007L
				248.41192,178.57015L248.65193,180.01024L248.41192,183.37043L248.89195,187.93069L250.092,191.7709L251.77208,193.93103L254.89223,196.09115
				L258.97243,199.21133L259.45245,199.45134L259.93248,199.69135L262.5726,201.85148L263.05262,203.05155L263.53265,204.49163L
				263.05262,206.89176L262.33259,209.05189L261.85257,210.49197L261.13253,212.65209L260.89252,214.09217L261.37254,216.97234L
				262.5726,220.57254z"/>
			<path clip-path="url(#SVG_CP_1)" fill="#73B273" fill-rule="evenodd" stroke="#000000" stroke-width="0.96005" stroke-miterlimit="10" stroke-linecap="round" stroke-linejoin="round" d="
				M290.41394,339.3793L291.37398,339.85932L291.85401,340.81938L295.45418,342.73949L297.37427,343.21951L300.25441,343.69954L
				301.93449,344.17957L304.81463,341.29941L307.21474,339.85932L308.17479,339.85932L309.61486,340.09934L309.85487,342.73949L
				310.09488,343.21951L311.29494,344.17957L315.13512,345.61965L317.77525,348.49981L318.49529,350.89995L318.49529,352.34003L
				316.57519,356.18025L315.61515,358.34037L314.17508,360.02047L312.01497,365.54078L311.77496,366.98087L310.57491,370.82108L
				308.4148,370.82108L301.21446,371.0611L299.29436,370.82108L295.45418,370.34106L293.29408,370.34106L292.57404,370.10104L291.614,369.62102
				L288.25383,373.94126L285.3737,375.86137L282.97358,377.06144L281.77352,377.30145L279.61342,377.54147L275.29321,377.30145L
				272.8931,378.02149L272.17306,378.74153L271.93305,379.9416L270.973,382.10173L269.29292,383.78182L267.61284,385.2219L266.41279,385.70193
				L265.45274,385.94194L262.5726,387.14201L262.09258,387.14201L260.65251,387.38203L256.81233,388.58209L256.57231,388.10207L
				255.61227,387.14201L251.77208,388.34208L248.41192,387.86205L247.69189,386.902L248.17191,384.50186L248.89195,380.18162L248.89195,375.86137
				L250.33201,370.82108L251.53207,369.381L252.73213,369.14099L254.1722,368.42095L255.37226,366.74085L255.85228,365.30077L255.85228,360.98052
				L255.13224,358.8204L251.77208,354.98018L250.57203,352.10002L250.33201,348.49981L250.33201,345.61965L250.092,342.73949L249.85199,341.29941
				L248.17191,339.61931L246.49183,339.61931L245.7718,339.85932L244.81175,341.05939L243.61169,342.73949L241.21158,344.6596L238.81146,346.09968
				L237.6114,346.09968L236.89137,345.85966L236.41135,344.89961L236.17133,342.49947L236.41135,341.05939L237.13138,339.61931L
				238.81146,337.21917L240.49154,334.81904L242.17162,332.89893L243.37168,331.45885L243.61169,328.8187L243.13167,327.1386L242.65165,326.41856
				L241.93161,324.97848L241.93161,323.77841L241.6916,321.37827L242.17162,318.97814L243.61169,317.77807L245.29177,316.578L246.01181,315.85796
				L247.69189,313.69784L248.65193,312.49777L249.61198,310.57766L250.092,308.41754L249.85199,300.97711L249.37197,299.77704L248.17191,297.61692
				L247.9319,295.4568L246.73184,293.05666L244.57174,290.1765L240.01152,287.29633L239.5315,286.33628L239.29148,284.8962L239.77151,283.45612
				L240.25153,281.29599L241.21158,279.37588L244.81175,275.29565L250.57203,270.73539L254.1722,267.3752L255.37226,269.0553L258.49241,274.81563
				L260.65251,281.05598L261.13253,282.25605L265.21273,291.85659L265.45274,292.33662L267.37283,296.41685L272.8931,306.25741L
				276.73328,312.9778L278.89338,316.09797L279.61342,317.53805L279.61342,318.49811L282.49356,324.73846L283.4536,327.61863L285.3737,331.21883
				L285.61371,332.17889L288.25383,336.73915L290.41394,339.3793z"/>
			<path clip-path="url(#SVG_CP_1)" fill="#73B273" fill-rule="evenodd" stroke="#000000" stroke-width="0.96005" stroke-miterlimit="10" stroke-linecap="round" stroke-linejoin="round" d="
				M428.42056,337.93921L431.78072,339.13928L432.74077,339.61931L434.66086,339.85932L436.58095,340.57936L441.14117,341.53942
				L445.22137,343.93956L446.90145,345.61965L448.34152,346.33969L449.30156,347.53976L453.38176,352.82006L455.78187,357.14031
				L458.18199,362.42061L459.86207,365.06076L460.5821,366.50084L461.06213,369.381L461.06213,372.74119L460.5821,375.62136L459.86207,378.02149
				L458.90202,380.18162L458.422,382.58175L458.18199,383.54181L458.18199,384.02183L457.94198,385.46192L457.22194,387.86205L456.50191,389.78216
				L456.02189,392.1823L455.54186,393.14235L454.34181,400.10275L454.82183,401.0628L456.02189,402.7429L456.98193,403.22293L458.66201,403.70295
				L461.06213,404.18298L462.5022,403.70295L463.22223,403.70295L462.74221,405.14304L461.54215,408.0232L460.34209,411.14338L458.90202,413.3035
				L456.02189,417.38373L455.06184,418.34379L454.10179,419.30384L452.42171,419.78387L450.98164,419.54385L448.10151,418.82381
				L444.98136,418.5838L440.90116,417.38373L438.74106,417.38373L435.14088,418.10377L433.4608,418.10377L431.3007,418.10377L430.10064,418.34379
				L426.98049,418.5838L423.62033,419.06383L418.8201,418.82381L413.77986,417.14372L412.5798,416.66369L411.13973,416.66369L410.17969,417.38373
				L404.89943,423.38407L403.21935,424.58414L401.29926,426.50425L391.21878,437.54488L390.97876,437.78489L389.5387,439.46499L
				388.33864,440.90507L386.65856,443.78523L385.4585,444.74529L384.73846,444.26526L383.53841,443.3052L382.81837,441.86512L379.45821,437.78489
				L378.97819,436.82484L378.25815,434.66471L377.0581,432.98462L375.37802,431.30452L374.65798,428.66437L374.17796,427.94433L
				372.49788,429.62443L370.33777,432.02456L368.65769,433.46465L366.7376,431.30452L365.53754,430.10445L364.81751,429.1444L363.37744,427.70432
				L361.69736,425.30418L360.73731,423.38407L359.53726,420.26389L359.29724,418.10377L359.05723,412.82347L359.77727,406.58312
				L360.4973,403.70295L360.73731,401.54283L362.41739,395.54249L363.13743,393.38237L363.61745,392.90234L364.33749,390.5022L366.7376,387.14201
				L367.93766,384.98189L368.17767,384.26185L371.05781,379.46158L372.73789,374.6613L373.69793,372.74119L374.17796,371.0611L374.41797,366.26082
				L375.138,364.58073L375.37802,361.46055L377.53812,354.50016L378.25815,353.06007L379.69822,351.13996L381.13829,346.81972L384.49845,339.3793
				L387.85861,334.57902L388.33864,333.61897L390.01872,330.49879L390.73875,329.77875L393.13887,326.65857L394.57894,326.89859
				L396.49903,328.09865L397.45908,328.09865L398.89914,328.8187L400.57922,330.01876L404.41941,331.21883L405.61947,331.93887L
				408.4996,332.65891L410.65971,334.33901L413.53985,335.29906L414.97992,336.73915L415.93996,337.21917L419.78015,338.17923L422.9003,337.93921
				L425.30041,338.65926L427.70053,338.41924L428.42056,337.93921z"/>
			<path clip-path="url(#SVG_CP_1)" fill="#73B273" fill-rule="evenodd" stroke="#000000" stroke-width="0.96005" stroke-miterlimit="10" stroke-linecap="round" stroke-linejoin="round" d="
				M382.57836,324.25844L384.73846,325.21849L386.17853,324.97848L388.09863,325.69852L389.29868,325.93853L390.73875,325.93853
				L393.13887,326.65857L390.73875,329.77875L390.01872,330.49879L388.33864,333.61897L387.85861,334.57902L384.49845,339.3793L
				381.13829,346.81972L379.69822,351.13996L378.25815,353.06007L377.53812,354.50016L375.37802,361.46055L375.138,364.58073L374.41797,366.26082
				L374.17796,371.0611L373.69793,372.74119L372.73789,374.6613L371.05781,379.46158L368.17767,384.26185L367.93766,384.98189L366.7376,387.14201
				L364.33749,390.5022L363.61745,392.90234L363.13743,393.38237L362.41739,395.54249L360.73731,401.54283L360.4973,403.70295L359.77727,406.58312
				L359.05723,412.82347L359.29724,418.10377L359.53726,420.26389L360.73731,423.38407L361.69736,425.30418L363.37744,427.70432
				L364.81751,429.1444L365.53754,430.10445L366.7376,431.30452L368.65769,433.46465L366.01757,436.82484L362.6574,439.46499L361.21734,440.66505
				L356.89713,444.9853L356.17709,446.18537L354.97704,447.62545L354.73702,448.10548L354.01699,449.06553L352.81693,450.74563L
				350.89684,453.38578L350.41682,454.58585L348.25671,453.62579L344.89655,451.46567L335.77611,447.62545L333.85602,446.42538L
				333.13599,445.94536L330.01584,442.58516L328.57577,440.66505L327.85573,439.22497L325.93564,436.82484L325.45562,436.58482L
				324.9756,436.1048L322.09546,433.22463L320.41538,431.06451L315.85516,427.4643L314.41509,425.5442L312.25499,423.8641L310.33489,422.66403
				L308.65481,421.94399L306.01469,421.22395L301.21446,419.30384L298.09431,419.06383L299.05435,415.46362L299.29436,414.98359
				L300.0144,414.50357L300.73443,414.26355L302.41451,414.26355L304.09459,414.74358L308.4148,414.50357L310.81492,413.54351L311.53495,413.06349
				L311.77496,412.82347L312.01497,411.38339L312.01497,407.30316L311.77496,406.10309L311.05493,404.66301L310.09488,403.70295
				L309.61486,403.70295L305.29465,405.38305L305.29465,404.42299L306.49471,400.34276L308.17479,396.98257L309.85487,394.58243
				L312.73501,390.26219L314.6551,387.38203L315.61515,385.94194L315.85516,384.50186L315.61515,382.82177L314.6551,381.86171L313.69506,381.38168
				L312.01497,381.38168L310.81492,380.66164L309.85487,379.9416L308.65481,378.02149L308.4148,376.10138L310.09488,372.74119L310.57491,370.82108
				L311.77496,366.98087L312.01497,365.54078L314.17508,360.02047L315.61515,358.34037L316.57519,356.18025L318.49529,352.34003
				L318.49529,350.89995L317.77525,348.49981L315.13512,345.61965L311.29494,344.17957L310.09488,343.21951L309.85487,342.73949
				L309.61486,340.09934L313.45504,342.25946L316.33518,342.9795L317.77525,343.45953L319.93535,344.17957L320.65539,344.41958L
				324.01555,345.37964L330.49586,346.09968L333.13599,345.85966L335.29609,346.09968L338.89626,346.09968L340.57635,345.37964L
				343.69649,343.45953L346.09661,341.53942L348.25671,339.3793L351.13685,336.97916L352.81693,335.29906L355.93708,330.01876L359.05723,326.41856
				L360.73731,325.21849L363.85746,324.01842L366.97761,323.77841L369.85775,323.05837L373.45792,322.09831L376.81808,322.33833
				L379.2182,323.05837L382.57836,324.25844z"/>
			<path clip-path="url(#SVG_CP_1)" fill="#73B273" fill-rule="evenodd" stroke="#000000" stroke-width="0.96005" stroke-miterlimit="10" stroke-linecap="round" stroke-linejoin="round" d="
				M511.94457,597.63398L511.22453,600.99417L510.74451,602.19424L508.10439,601.4742L505.70427,600.99417L504.50421,600.75416L
				501.38406,600.75416L501.38406,602.67427L501.38406,605.0744L501.38406,607.23453L501.38406,607.71455L501.38406,610.3547L501.38406,612.99485
				L501.38406,615.635L501.38406,618.75518L501.38406,621.15532L500.90404,624.75552L500.90404,625.71558L500.90404,629.07577L501.14405,630.75586
				L501.14405,633.63603L501.14405,636.27618L501.14405,638.67631L501.14405,641.55648L500.90404,642.75654L500.90404,644.91667
				L500.90404,648.75689L500.66403,653.07713L500.18401,655.47727L499.94399,658.11742L499.46397,660.03753L498.98395,661.47761
				L497.78389,661.71762L494.42373,661.71762L491.54359,661.47761L488.18343,661.47761L484.10323,660.99758L481.46311,660.99758
				L478.34296,660.75757L476.18285,660.75757L473.0627,660.51755L469.22252,660.27754L466.34238,660.03753L463.22223,659.79751L
				460.5821,659.79751L457.94198,659.5575L452.90174,659.07747L449.54157,658.59745L446.42142,658.35743L442.82125,657.8774L439.7011,657.39738
				L436.34094,656.91735L435.86092,656.91735L433.4608,656.91735L430.34065,656.43732L426.98049,655.9573L424.82039,655.47727L423.14031,653.55716
				L421.22022,651.63705L419.78015,649.95695L417.86005,648.03685L416.66,647.07679L415.93996,646.59676L414.25988,645.15668L412.81981,643.47659
				L411.37974,642.51653L409.69966,640.83644L407.77957,639.15634L405.61947,636.7562L402.97934,634.59608L401.05925,632.91599L
				399.85919,631.71592L399.13916,630.99588L397.9391,630.03582L396.73904,628.59574L395.29897,627.63569L395.29897,627.39567L391.21878,623.79547
				L388.57865,621.15532L385.4585,618.51517L382.81837,615.87502L380.89828,614.19492L379.93823,613.23487L381.13829,610.59472L
				381.61831,609.15463L382.57836,605.31442L384.25844,600.27413L384.73846,598.59403L385.69851,596.67392L384.73846,592.35368L
				383.2984,587.07338L382.33835,582.03309L382.09834,572.91257L382.33835,570.27242L383.05838,566.67222L384.25844,563.79206L386.41855,560.43186
				L387.85861,558.99178L388.33864,558.27174L392.41883,553.71148L394.57894,552.2714L395.29897,552.03139L396.73904,551.07133L
				398.65913,550.5913L403.45936,550.11128L409.69966,548.91121L411.13973,547.95115L413.53985,546.9911L415.45994,546.03105L418.10007,543.3909
				L419.06011,542.19083L419.30012,541.47079L419.06011,540.0307L418.10007,539.07065L417.14002,538.35061L416.41999,537.63057L
				415.21993,535.23043L413.77986,533.31032L411.37974,528.51005L409.93967,525.38987L409.45965,521.06963L409.21964,517.46942L
				409.45965,516.02934L409.69966,514.34924L409.45965,514.10923L410.17969,513.38919L413.53985,511.46908L418.10007,510.029L420.74019,509.06894
				L421.70024,508.3489L425.78043,507.14883L431.06069,504.50868L435.14088,502.58858L437.06098,501.38851L439.46109,500.18844L
				444.50133,498.26833L446.90145,496.82825L450.0216,494.42811L451.46167,493.70807L452.1817,492.26799L452.90174,489.86785L453.38176,490.34788
				L456.74192,492.508L459.38205,494.42811L460.34209,495.14815L463.22223,498.02832L466.58239,502.34856L469.22252,505.70875L470.9026,507.62886
				L471.86265,508.82893L474.26276,511.70909L478.10295,513.14918L479.06299,513.38919L483.62321,516.26935L484.82327,516.98939
				L485.30329,518.9095L486.50335,519.38953L487.46339,519.62954L492.02361,521.54965L492.26362,521.78967L492.98366,522.74972L
				494.66374,524.1898L498.0239,525.38987L499.46397,525.62989L501.38406,526.58994L503.06414,528.03002L504.74422,528.99008L506.4243,531.87024
				L508.10439,533.55034L508.82442,534.03036L511.70456,535.23043L513.14463,536.4305L513.62465,537.39055L514.10467,542.19083L
				514.34468,545.311L514.10467,548.43118L514.10467,550.35129L515.06472,552.99144L515.06472,553.9515L514.82471,557.07167L514.34468,561.39192
				L513.62465,566.19219L513.38464,569.07236L513.14463,570.75245L513.14463,572.19253L512.6646,573.63261L512.90462,577.95286L
				513.14463,579.63296L513.14463,581.55307L513.38464,583.47317L514.10467,585.87331L514.10467,588.75347L513.38464,591.15361L
				512.6646,593.07372L511.94457,597.63398z"/>
			<path clip-path="url(#SVG_CP_1)" fill="#73B273" fill-rule="evenodd" stroke="#000000" stroke-width="0.96005" stroke-miterlimit="10" stroke-linecap="round" stroke-linejoin="round" d="
				M508.82442,246.49402L510.26449,246.73403L512.18458,246.73403L513.14463,246.73403L515.06472,246.49402L516.50479,246.73403
				L518.9049,247.9341L523.46512,248.41412L529.94543,248.17411L539.78591,250.09422L540.02592,250.33423L541.706,251.5343L543.14607,253.2144
				L543.62609,254.65448L544.34612,259.45475L543.62609,263.29497L543.62609,264.73505L544.10611,266.65516L544.82615,267.61522
				L545.30617,267.61522L546.74624,267.13519L548.42632,265.93512L549.38637,264.73505L549.86639,263.53498L552.2665,259.69477L
				553.70657,258.97472L554.42661,258.4947L555.38665,258.4947L556.58671,258.73471L557.06673,258.97472L557.54676,259.69477L558.26679,261.13485
				L557.78677,263.29497L557.78677,263.05496L557.06673,264.49504L556.10669,265.21508L554.1866,265.69511L552.74653,266.41515L
				552.2665,267.13519L551.78648,268.33526L551.78648,269.0553L552.2665,270.01535L553.94659,271.45543L554.1866,272.17548L554.42661,273.85557
				L554.1866,274.3356L552.98654,275.29565L552.02649,276.49572L551.06645,277.21576L550.1064,277.69579L548.42632,278.17582L547.46627,278.65584
				L544.34612,281.53601L543.62609,282.49606L541.94601,284.8962L541.22597,286.33628L541.22597,287.05632L541.94601,290.1765L542.18602,290.41651
				L542.90606,290.65653L546.26622,290.41651L546.98625,290.41651L547.9463,291.37657L548.42632,292.09661L548.42632,293.53669L
				548.18631,294.49674L547.9463,295.21679L546.26622,297.13689L545.30617,300.97711L545.06616,303.13724L545.30617,304.3373L547.22626,306.49743
				L548.42632,307.45748L550.82644,307.93751L551.54647,307.93751L552.98654,308.65755L553.70657,309.37759L554.66662,310.81767
				L555.38665,312.49777L555.62667,314.41788L554.90663,316.81801L554.90663,318.97814L553.94659,322.09831L552.98654,324.01842
				L552.74653,325.4585L551.30646,327.1386L549.86639,327.61863L548.90634,327.61863L548.18631,327.61863L547.22626,326.89859L546.98625,325.93853
				L546.74624,324.01842L546.50623,323.5384L545.54618,322.57834L545.06616,322.33833L544.10611,322.09831L542.66604,322.57834L
				540.74595,323.77841L537.38579,324.73846L536.42574,324.49845L533.78562,324.01842L533.54561,323.5384L532.34555,322.09831L531.62551,320.1782
				L530.66547,316.81801L526.58527,309.37759L524.42517,306.73744L522.74509,305.53737L522.26506,305.05734L520.34497,304.81733
				L518.9049,305.05734L516.50479,307.93751L514.34468,309.85762L511.94457,312.73778L510.02448,314.41788L509.78447,315.13792L
				509.54445,315.85796L510.02448,317.29804L510.26449,318.97814L510.26449,319.69818L509.78447,320.41822L506.66432,322.81835L
				504.74422,322.57834L503.06414,321.8583L500.66403,319.21815L499.22396,316.81801L498.26391,313.93785L497.54388,312.49777L496.34382,309.85762
				L495.62379,308.41754L493.94371,302.65721L492.98366,300.7371L490.82356,297.61692L488.18343,294.97677L486.50335,293.7767L483.62321,292.33662
				L482.42315,291.85659L480.98308,291.85659L477.62292,293.05666L475.94284,294.25673L472.34267,297.85694L470.42258,300.7371L
				469.46253,303.61726L469.22252,306.73744L469.94255,308.65755L470.9026,310.57766L471.86265,312.01774L473.30271,313.21781L482.90318,320.65823
				L486.26334,322.57834L488.90346,324.01842L490.58354,324.73846L491.30358,324.97848L494.90375,327.1386L496.58383,328.57868L
				497.30387,329.29872L499.70398,330.97882L501.62407,332.65891L502.82413,334.099L503.54417,335.53908L503.30415,336.25912L502.82413,336.97916
				L501.86409,338.89927L500.42402,341.05939L498.98395,343.21951L496.82384,347.53976L496.58383,347.77977L496.10381,349.21986
				L493.46368,352.58005L492.26362,354.50016L491.54359,355.2202L491.06357,355.94024L490.10352,358.8204L489.14348,362.42061L488.66345,363.62067
				L488.42344,363.86069L487.94342,366.50084L487.22338,369.14099L486.02333,371.78114L485.5433,372.98121L484.10323,377.78148L
				483.14319,380.42163L482.66316,382.10173L480.02304,385.46192L478.58297,389.54215L476.66288,392.90234L476.18285,394.10241L
				475.22281,394.58243L474.26276,394.82245L472.82269,395.54249L471.38262,396.02252L469.70254,396.98257L468.26247,398.42265L
				466.10237,401.78284L465.38233,402.50289L464.90231,402.7429L463.22223,403.70295L462.5022,403.70295L461.06213,404.18298L458.66201,403.70295
				L456.98193,403.22293L456.02189,402.7429L454.82183,401.0628L454.34181,400.10275L455.54186,393.14235L456.02189,392.1823L456.50191,389.78216
				L457.22194,387.86205L457.94198,385.46192L458.18199,384.02183L458.18199,383.54181L458.422,382.58175L458.90202,380.18162L459.86207,378.02149
				L460.5821,375.62136L461.06213,372.74119L461.06213,369.381L460.5821,366.50084L459.86207,365.06076L458.18199,362.42061L455.78187,357.14031
				L453.38176,352.82006L449.30156,347.53976L448.34152,346.33969L446.90145,345.61965L445.22137,343.93956L441.14117,341.53942
				L436.58095,340.57936L434.66086,339.85932L432.74077,339.61931L431.78072,339.13928L428.42056,337.93921L427.46051,336.97916
				L426.74048,335.53908L426.02045,333.13894L425.78043,331.69886L425.78043,330.25878L427.2205,327.37861L431.78072,320.89825L
				436.58095,315.13792L441.62119,306.25741L444.74134,302.41719L447.62148,298.57698L448.82154,297.85694L452.1817,295.93683L453.62177,294.73676
				L457.70197,290.65653L459.62206,289.21644L461.54215,288.4964L468.02246,287.05632L470.66259,285.61624L475.70283,283.93614L
				476.42286,282.97609L476.66288,282.01603L476.66288,280.57595L475.94284,277.9358L475.70283,272.6555L476.90289,268.57527L477.86293,267.13519
				L481.2231,266.65516L483.3832,267.13519L484.34324,267.61522L487.22338,268.09524L490.34353,269.0553L493.94371,269.53533L495.62379,270.01535
				L496.34382,270.25537L497.30387,270.73539L498.98395,271.45543L500.18401,272.6555L500.90404,275.29565L501.14405,276.01569L
				502.34411,277.45578L503.78418,278.65584L504.2642,278.89586L505.94428,280.81597L508.82442,283.45612L509.54445,283.69613L512.18458,282.49606
				L516.50479,283.2161L518.66489,283.69613L519.62494,283.45612L521.78504,282.97609L522.26506,282.73608L522.9851,281.77602L522.9851,280.81597
				L522.26506,277.45578L522.50508,275.53567L524.18516,272.89552L524.66518,271.45543L524.18516,270.25537L522.74509,269.0553L
				520.34497,268.33526L518.42488,268.33526L511.22453,268.57527L507.62436,267.85523L505.22425,266.17513L503.78418,264.73505L
				502.34411,264.25502L500.66403,262.57493L498.50392,261.13485L495.62379,259.21474L494.90375,258.73471L493.46368,258.01467L
				491.54359,255.85455L491.06357,254.89449L491.06357,253.93444L491.54359,253.2144L492.98366,252.49436L494.90375,251.5343L495.38377,251.05427
				L496.58383,249.61419L496.58383,248.41412L497.30387,247.45407L498.74394,246.254L500.66403,245.53396L504.2642,245.53396L507.38435,245.77397
				L508.82442,246.49402z"/>
			<path clip-path="url(#SVG_CP_1)" fill="#73B273" fill-rule="evenodd" stroke="#000000" stroke-width="0.96005" stroke-miterlimit="10" stroke-linecap="round" stroke-linejoin="round" d="
				M381.3783,160.80914L385.93852,162.00921L387.6186,161.7692L391.45879,161.04916L396.25902,161.52918L398.17911,162.00921L401.05925,162.96927
				L402.49932,163.92932L403.93939,164.16933L408.25959,164.88938L410.17969,165.60942L412.33979,166.32946L416.17997,166.32946
				L418.34008,166.80948L425.54042,166.56947L428.90058,166.56947L431.06069,166.32946L438.26103,166.08944L440.66115,165.60942
				L444.26132,164.64936L455.30185,160.32912L456.98193,159.60908L458.66201,158.16899L460.5821,156.24888L461.06213,157.68897L
				462.74221,159.36906L463.94227,161.04916L465.14232,166.32946L465.86236,167.28951L467.06242,169.20962L467.30243,169.92966L
				467.78245,171.60976L468.26247,172.80983L468.26247,175.68999L468.98251,180.49026L471.38262,184.33048L474.26276,188.41071L
				474.74278,188.41071L474.9828,188.1707L475.94284,186.73062L477.62292,185.29054L477.86293,185.53055L480.02304,190.33082L480.74307,192.97097
				L480.98308,193.21099L481.94313,193.21099L482.42315,193.451L483.3832,195.61112L483.62321,197.53123L485.06328,197.77124L486.74336,199.93137
				L488.18343,202.3315L491.7836,205.21167L494.90375,205.93171L495.38377,206.17172L498.0239,206.17172L500.42402,206.89176L501.62407,207.13178
				L502.82413,207.37179L503.78418,207.85182L505.70427,209.53191L506.4243,210.49197L507.14434,212.65209L507.14434,213.85216L
				507.62436,214.81221L508.58441,216.01228L510.02448,216.97234L511.46455,217.69238L513.86466,218.41242L514.82471,219.37247L
				516.26478,219.8525L518.66489,221.29258L521.54503,223.45271L521.78504,223.69272L521.54503,225.37281L521.06501,226.33287L519.38493,228.25298
				L517.70485,229.45305L516.98481,229.69306L514.34468,231.13314L510.74451,235.45339L510.02448,236.65346L508.58441,238.33355
				L507.38435,239.29361L507.14434,240.25366L508.10439,243.61385L507.86437,245.05393L507.38435,245.77397L504.2642,245.53396L
				500.66403,245.53396L498.74394,246.254L497.30387,247.45407L496.58383,248.41412L496.58383,249.61419L495.38377,251.05427L494.90375,251.5343
				L492.98366,252.49436L491.54359,253.2144L491.06357,253.93444L491.06357,254.89449L491.54359,255.85455L493.46368,258.01467L
				494.90375,258.73471L495.62379,259.21474L498.50392,261.13485L500.66403,262.57493L502.34411,264.25502L503.78418,264.73505L
				505.22425,266.17513L507.62436,267.85523L511.22453,268.57527L518.42488,268.33526L520.34497,268.33526L522.74509,269.0553L524.18516,270.25537
				L524.66518,271.45543L524.18516,272.89552L522.50508,275.53567L522.26506,277.45578L522.9851,280.81597L522.9851,281.77602L522.26506,282.73608
				L521.78504,282.97609L519.62494,283.45612L518.66489,283.69613L516.50479,283.2161L512.18458,282.49606L509.54445,283.69613L
				508.82442,283.45612L505.94428,280.81597L504.2642,278.89586L503.78418,278.65584L502.34411,277.45578L501.14405,276.01569L500.90404,275.29565
				L500.18401,272.6555L498.98395,271.45543L497.30387,270.73539L496.34382,270.25537L495.62379,270.01535L493.94371,269.53533L
				490.34353,269.0553L487.22338,268.09524L484.34324,267.61522L483.3832,267.13519L481.2231,266.65516L477.86293,267.13519L476.90289,268.57527
				L475.70283,272.6555L475.94284,277.9358L476.66288,280.57595L476.66288,282.01603L476.42286,282.97609L475.70283,283.93614L470.66259,285.61624
				L468.02246,287.05632L461.54215,288.4964L459.62206,289.21644L457.70197,290.65653L453.62177,294.73676L452.1817,295.93683L448.82154,297.85694
				L447.62148,298.57698L444.74134,302.41719L441.62119,306.25741L436.58095,315.13792L431.78072,320.89825L427.2205,327.37861L
				425.78043,330.25878L425.78043,331.69886L426.02045,333.13894L426.74048,335.53908L427.46051,336.97916L428.42056,337.93921L
				427.70053,338.41924L425.30041,338.65926L422.9003,337.93921L419.78015,338.17923L415.93996,337.21917L414.97992,336.73915L413.53985,335.29906
				L410.65971,334.33901L408.4996,332.65891L405.61947,331.93887L404.41941,331.21883L400.57922,330.01876L398.89914,328.8187L397.45908,328.09865
				L396.49903,328.09865L394.57894,326.89859L393.13887,326.65857L390.73875,325.93853L389.29868,325.93853L388.09863,325.69852
				L386.17853,324.97848L384.73846,325.21849L382.57836,324.25844L379.2182,323.05837L376.81808,322.33833L373.45792,322.09831L
				371.77784,319.45816L371.53783,318.49811L371.53783,316.09797L373.69793,305.53737L376.09805,296.65687L378.49817,292.33662L
				380.65827,288.73642L381.85833,286.57629L382.09834,285.13621L382.09834,281.77602L381.3783,278.89586L381.3783,276.49572L382.09834,275.05564
				L384.49845,272.89552L385.21849,271.45543L386.17853,266.17513L388.81866,261.85489L388.81866,260.89483L388.81866,258.01467
				L387.85861,256.09456L386.41855,254.17445L384.49845,253.2144L382.09834,252.97438L381.3783,252.49436L378.73818,251.77432L377.29811,251.5343
				L375.61803,251.29429L375.37802,251.29429L375.138,251.29429L373.93795,251.77432L366.25758,251.5343L364.81751,251.29429L363.37744,251.5343
				L362.89742,251.5343L360.4973,249.85421L359.05723,249.37418L357.13714,249.61419L352.33691,248.89415L349.93679,249.37418L348.49673,249.85421
				L346.09661,249.85421L344.65654,250.81426L344.17652,250.81426L336.97617,248.17411L334.09603,247.69408L332.65597,247.9341L
				331.2159,247.9341L326.89569,246.254L324.9756,246.254L323.53553,246.97404L321.37542,247.21406L320.65539,246.73403L320.41538,244.57391
				L320.17537,243.61385L319.69534,242.89381L318.01526,242.41378L317.29523,241.93376L316.8152,241.21371L319.45533,231.37316L
				319.93535,229.93307L320.41538,227.05291L321.37542,222.97268L322.33547,221.5326L323.0555,221.29258L324.25556,220.81255L324.73559,220.57254
				L326.89569,216.73232L327.37571,216.01228L328.57577,214.5722L329.77583,214.09217L331.45591,212.8921L333.85602,209.2919L335.05608,208.09183
				L338.41624,206.17172L339.13628,205.21167L341.05637,201.37145L342.73645,200.17138L344.17652,199.93137L347.77669,200.17138
				L348.73674,200.17138L350.65683,200.89142L351.61688,200.65141L352.57692,199.93137L354.257,197.29122L355.21705,194.89108L354.97704,193.93103
				L353.29696,192.73096L353.05694,192.25093L352.81693,191.53089L353.05694,190.09081L354.257,188.1707L354.49701,187.45066L354.49701,186.73062
				L354.01699,185.29054L353.77698,182.65039L355.45706,176.41003L357.37715,172.56981L358.57721,170.16968L359.53726,168.00955
				L361.21734,163.92932L362.41739,162.00921L363.37744,161.04916L365.53754,159.36906L366.01757,158.40901L366.49759,156.24888
				L367.45764,153.12871L368.17767,152.16865L369.13772,151.92864L371.77784,154.56879L373.45792,156.96893L375.138,158.88903L376.33806,159.36906
				L381.3783,160.80914z"/>
			<path clip-path="url(#SVG_CP_1)" fill="#73B273" fill-rule="evenodd" stroke="#000000" stroke-width="0.96005" stroke-miterlimit="10" stroke-linecap="round" stroke-linejoin="round" d="
				M418.8201,418.82381L423.62033,419.06383L426.98049,418.5838L430.10064,418.34379L431.3007,418.10377L433.4608,418.10377L435.14088,418.10377
				L438.74106,417.38373L440.90116,417.38373L444.98136,418.5838L448.10151,418.82381L450.98164,419.54385L452.42171,419.78387L
				454.10179,419.30384L454.34181,421.70398L453.86178,422.66403L452.1817,425.30418L446.90145,432.50459L444.50133,436.34481L442.82125,440.66505
				L441.86121,443.54522L441.86121,446.90541L442.82125,449.30555L443.54129,453.14576L443.7813,459.86615L444.26132,465.14645L
				444.98136,467.54658L446.90145,471.86683L447.86149,475.70705L449.30156,480.26731L450.0216,481.22736L451.46167,482.66744L451.94169,482.90746
				L452.90174,484.10752L453.38176,485.06758L453.62177,486.02763L453.62177,487.94774L452.90174,489.86785L452.1817,492.26799L
				451.46167,493.70807L450.0216,494.42811L446.90145,496.82825L444.50133,498.26833L439.46109,500.18844L437.06098,501.38851L435.14088,502.58858
				L431.06069,504.50868L425.78043,507.14883L421.70024,508.3489L420.74019,509.06894L418.10007,510.029L413.53985,511.46908L410.17969,513.38919
				L409.45965,514.10923L409.69966,514.34924L409.45965,516.02934L409.21964,517.46942L409.45965,521.06963L409.93967,525.38987
				L411.37974,528.51005L413.77986,533.31032L415.21993,535.23043L416.41999,537.63057L417.14002,538.35061L418.10007,539.07065
				L419.06011,540.0307L419.30012,541.47079L419.06011,542.19083L418.10007,543.3909L415.45994,546.03105L413.53985,546.9911L411.13973,547.95115
				L409.69966,548.91121L403.45936,550.11128L398.65913,550.5913L396.73904,551.07133L395.29897,552.03139L394.57894,552.2714L392.41883,553.71148
				L388.33864,558.27174L387.85861,558.99178L386.41855,560.43186L384.25844,563.79206L383.05838,566.67222L382.33835,570.27242
				L382.09834,572.91257L382.33835,582.03309L383.2984,587.07338L384.73846,592.35368L385.69851,596.67392L384.73846,598.59403L
				384.25844,600.27413L382.57836,605.31442L381.61831,609.15463L381.13829,610.59472L379.93823,613.23487L378.25815,611.79478L
				375.61803,609.63466L372.49788,606.7545L370.09776,604.35436L367.45764,601.95423L365.77755,600.27413L363.13743,597.87399L360.4973,595.47386
				L356.89713,592.35368L355.21705,590.67358L354.01699,589.2335L353.29696,588.75347L350.89684,586.83337L348.73674,584.67324L
				347.29667,583.23316L346.09661,582.03309L345.13656,581.31305L343.69649,580.11298L342.97646,576.51278L342.49644,573.63261L
				342.01641,571.23248L341.53639,570.03241L341.53639,568.83234L341.29638,567.87229L340.81636,564.99212L340.09632,561.87195L
				339.6163,559.71182L339.13628,556.59165L338.41624,552.99144L337.93622,550.35129L337.69621,548.43118L336.97617,545.79103L336.49615,542.67085
				L335.77611,539.07065L335.29609,535.95047L334.33605,531.87024L333.85602,528.51005L333.13599,524.42982L331.93593,521.54965
				L330.73587,521.30964L330.01584,521.06963L326.17565,520.10957L323.29552,519.62954L324.01555,516.74938L324.25556,515.3093L
				324.25556,515.06929L325.21561,512.90916L326.41567,510.50903L328.57577,505.22873L329.05579,503.30862L329.2958,502.82859L330.25585,499.4684
				L331.69592,495.38817L332.65597,492.98803L334.81607,487.2277L336.01613,484.82757L336.49615,483.14747L343.69649,467.06656L
				344.17652,465.62647L345.37658,462.74631L347.05666,459.62613L348.73674,456.74597L350.41682,454.58585L350.89684,453.38578L
				352.81693,450.74563L354.01699,449.06553L354.73702,448.10548L354.97704,447.62545L356.17709,446.18537L356.89713,444.9853L361.21734,440.66505
				L362.6574,439.46499L366.01757,436.82484L368.65769,433.46465L370.33777,432.02456L372.49788,429.62443L374.17796,427.94433L
				374.65798,428.66437L375.37802,431.30452L377.0581,432.98462L378.25815,434.66471L378.97819,436.82484L379.45821,437.78489L382.81837,441.86512
				L383.53841,443.3052L384.73846,444.26526L385.4585,444.74529L386.65856,443.78523L388.33864,440.90507L389.5387,439.46499L390.97876,437.78489
				L391.21878,437.54488L401.29926,426.50425L403.21935,424.58414L404.89943,423.38407L410.17969,417.38373L411.13973,416.66369
				L412.5798,416.66369L413.77986,417.14372L418.8201,418.82381z"/>
			<path clip-path="url(#SVG_CP_1)" fill="#73B273" fill-rule="evenodd" stroke="#000000" stroke-width="0.96005" stroke-miterlimit="10" stroke-linecap="round" stroke-linejoin="round" d="
				M320.17537,243.61385L320.41538,244.57391L320.65539,246.73403L321.37542,247.21406L323.53553,246.97404L324.9756,246.254L326.89569,246.254
				L331.2159,247.9341L332.65597,247.9341L334.09603,247.69408L336.97617,248.17411L344.17652,250.81426L344.65654,250.81426L346.09661,249.85421
				L348.49673,249.85421L349.93679,249.37418L352.33691,248.89415L357.13714,249.61419L359.05723,249.37418L360.4973,249.85421L
				362.89742,251.5343L363.37744,251.5343L364.81751,251.29429L366.25758,251.5343L373.93795,251.77432L375.138,251.29429L375.37802,251.29429
				L375.61803,251.29429L377.29811,251.5343L378.73818,251.77432L381.3783,252.49436L382.09834,252.97438L384.49845,253.2144L386.41855,254.17445
				L387.85861,256.09456L388.81866,258.01467L388.81866,260.89483L388.81866,261.85489L386.17853,266.17513L385.21849,271.45543
				L384.49845,272.89552L382.09834,275.05564L381.3783,276.49572L381.3783,278.89586L382.09834,281.77602L382.09834,285.13621L381.85833,286.57629
				L380.65827,288.73642L378.49817,292.33662L376.09805,296.65687L373.69793,305.53737L371.53783,316.09797L371.53783,318.49811
				L371.77784,319.45816L373.45792,322.09831L369.85775,323.05837L366.97761,323.77841L363.85746,324.01842L360.73731,325.21849
				L359.05723,326.41856L355.93708,330.01876L352.81693,335.29906L351.13685,336.97916L348.25671,339.3793L346.09661,341.53942L
				343.69649,343.45953L340.57635,345.37964L338.89626,346.09968L335.29609,346.09968L333.13599,345.85966L330.49586,346.09968L
				324.01555,345.37964L320.65539,344.41958L319.93535,344.17957L317.77525,343.45953L316.33518,342.9795L313.45504,342.25946L309.61486,340.09934
				L308.17479,339.85932L307.21474,339.85932L304.81463,341.29941L301.93449,344.17957L300.25441,343.69954L297.37427,343.21951
				L295.45418,342.73949L291.85401,340.81938L291.37398,339.85932L290.41394,339.3793L288.25383,336.73915L285.61371,332.17889L
				285.3737,331.21883L283.4536,327.61863L282.49356,324.73846L279.61342,318.49811L279.61342,317.53805L278.89338,316.09797L276.73328,312.9778
				L272.8931,306.25741L267.37283,296.41685L265.45274,292.33662L265.21273,291.85659L261.13253,282.25605L260.65251,281.05598L
				258.49241,274.81563L255.37226,269.0553L254.1722,267.3752L255.61227,265.93512L256.81233,264.49504L258.25239,261.85489L258.97243,259.69477
				L259.21244,256.09456L259.69246,254.41447L260.17249,252.97438L260.17249,252.73437L262.09258,249.61419L263.29264,248.17411
				L265.69275,247.21406L268.09287,246.01399L268.8129,245.29395L269.53294,244.09388L271.45303,244.09388L273.61313,244.33389L
				275.0532,243.85386L280.09344,241.21371L282.25355,239.53362L283.69362,238.81358L294.49413,234.49333L307.45476,230.4131L311.05493,228.49299
				L312.495,227.53294L316.33518,224.89279L318.25527,224.17275L320.17537,223.69272L321.37542,222.97268L320.41538,227.05291L319.93535,229.93307
				L319.45533,231.37316L316.8152,241.21371L317.29523,241.93376L318.01526,242.41378L319.69534,242.89381L320.17537,243.61385z
				"/>
			<path clip-path="url(#SVG_CP_1)" fill="#73B273" fill-rule="evenodd" stroke="#000000" stroke-width="0.96005" stroke-miterlimit="10" stroke-linecap="round" stroke-linejoin="round" d="
				M173.28832,425.06417L174.48837,426.50425L176.40847,425.5442L182.40875,421.70398L186.48895,418.82381L187.449,418.34379L190.32913,416.42368
				L191.7692,415.70364L192.48924,414.98359L193.44928,413.3035L196.08941,413.54351L197.52948,414.26355L198.48953,415.46362L198.72954,416.42368
				L198.72954,417.86376L197.76949,420.74392L194.88935,425.06417L193.92931,427.4643L193.44928,431.78455L193.44928,432.7446L193.92931,434.66471
				L194.88935,436.1048L195.60939,437.06485L198.96955,440.18503L201.60968,441.86512L202.0897,442.34515L204.00979,443.54522L204.48981,444.02525
				L207.60996,445.94536L209.77007,447.14542L214.09027,448.82552L215.05032,449.06553L217.45044,450.02559L218.89051,450.50561
				L220.33057,450.98564L222.25067,451.22566L224.89079,449.30555L226.09085,447.86546L229.93104,437.78489L230.41106,435.62477
				L230.17105,433.94467L233.77122,434.4247L236.65136,434.4247L239.05147,434.66471L242.41163,434.66471L243.8517,434.4247L247.9319,434.4247
				L246.49183,437.30486L247.9319,437.78489L251.53207,436.82484L259.21244,433.94467L262.33259,432.26458L262.81261,432.26458L
				269.05291,429.62443L270.49298,428.90439L271.69304,428.66437L275.53322,426.50425L277.69333,425.5442L284.65366,422.66403L286.09373,422.42402
				L288.73386,421.46396L293.05406,420.74392L295.45418,419.78387L298.09431,419.06383L301.21446,419.30384L306.01469,421.22395
				L308.65481,421.94399L310.33489,422.66403L312.25499,423.8641L314.41509,425.5442L315.85516,427.4643L320.41538,431.06451L322.09546,433.22463
				L324.9756,436.1048L325.45562,436.58482L325.93564,436.82484L327.85573,439.22497L328.57577,440.66505L330.01584,442.58516L333.13599,445.94536
				L333.85602,446.42538L335.77611,447.62545L344.89655,451.46567L348.25671,453.62579L350.41682,454.58585L348.73674,456.74597
				L347.05666,459.62613L345.37658,462.74631L344.17652,465.62647L343.69649,467.06656L336.49615,483.14747L336.01613,484.82757
				L334.81607,487.2277L332.65597,492.98803L331.69592,495.38817L330.25585,499.4684L329.2958,502.82859L329.05579,503.30862L328.57577,505.22873
				L326.41567,510.50903L325.21561,512.90916L324.25556,515.06929L324.25556,515.3093L324.01555,516.74938L323.29552,519.62954L
				322.81549,519.38953L318.97531,518.9095L315.61515,518.66949L312.25499,517.94945L310.57491,517.46942L306.2547,516.50937L304.57462,516.26935
				L303.61457,516.02934L303.37456,515.78933L301.93449,515.54931L297.85429,514.58926L295.21417,513.86922L294.01411,513.86922
				L292.57404,514.10923L291.614,514.10923L289.6939,513.6292L287.5338,513.14918L286.57375,513.14918L283.93363,513.14918L282.97358,513.14918
				L281.53351,512.42914L280.33345,512.18912L275.53322,512.18912L274.09315,511.94911L272.65309,511.70909L270.49298,511.22907
				L267.37283,510.74904L265.93276,510.50903L264.25268,510.74904L263.77266,510.50903L262.81261,510.50903L261.61256,510.26901
				L258.97243,509.78898L257.53236,509.54897L253.45216,508.3489L249.61198,507.38885L247.69189,506.42879L243.61169,505.22873L
				238.81146,504.02866L234.01123,502.58858L227.0509,500.66847L223.93075,499.4684L221.53063,498.74836L219.13052,498.50834L213.61025,498.50834
				L212.89022,498.26833L210.25009,498.02832L210.01008,498.02832L207.60996,497.54829L203.28976,496.82825L201.36966,496.82825
				L198.0095,496.34822L194.40933,495.86819L190.08912,495.14815L185.04888,493.94808L180.72867,492.74802L172.80829,491.54795L
				169.68814,491.06792L164.16788,490.10787L161.76776,489.86785L159.12764,489.38782L156.96753,488.66778L155.76748,488.42777L
				154.0874,488.66778L152.64733,488.9078L151.44727,488.9078L150.0072,488.66778L147.60708,486.50766L144.00691,484.10752L140.40674,481.22736
				L137.04658,479.30725L132.24635,476.18707L128.16615,473.54692L127.92614,473.30691L123.12591,469.94672L120.00576,467.7866L
				115.20553,464.18639L109.44525,460.58619L104.64502,457.226L104.64502,456.50596L105.36506,455.06587L106.56511,454.10582L109.68526,450.2656
				L111.12533,448.82552L113.52545,445.46533L114.96552,444.02525L117.12562,440.42504L119.76575,437.30486L120.96581,436.1048L
				121.68584,434.66471L122.64589,432.7446L123.36592,430.10445L125.28601,424.10411L126.00605,419.30384L126.24606,417.38373L126.72608,415.46362
				L127.44612,412.82347L127.92614,412.82347L134.64646,414.98359L139.20668,417.14372L143.28688,418.34379L144.72695,418.34379
				L146.16702,418.82381L153.36736,419.30384L155.04744,419.54385L157.20755,419.78387L159.36765,419.78387L162.4878,420.74392L
				165.12793,421.70398L168.24807,423.62409L169.68814,424.34413L171.12821,424.58414L173.28832,425.06417z"/>
			<path clip-path="url(#SVG_CP_1)" fill="#73B273" fill-rule="evenodd" stroke="#000000" stroke-width="0.96005" stroke-miterlimit="10" stroke-linecap="round" stroke-linejoin="round" d="
				M236.89137,345.85966L237.6114,346.09968L238.81146,346.09968L241.21158,344.6596L243.61169,342.73949L244.81175,341.05939L245.7718,339.85932
				L246.49183,339.61931L248.17191,339.61931L249.85199,341.29941L250.092,342.73949L250.33201,345.61965L250.33201,348.49981L250.57203,352.10002
				L251.77208,354.98018L255.13224,358.8204L255.85228,360.98052L255.85228,365.30077L255.37226,366.74085L254.1722,368.42095L252.73213,369.14099
				L251.53207,369.381L250.33201,370.82108L248.89195,375.86137L248.89195,380.18162L248.17191,384.50186L247.69189,386.902L248.41192,387.86205
				L251.77208,388.34208L255.61227,387.14201L256.57231,388.10207L256.81233,388.58209L260.65251,387.38203L262.09258,387.14201
				L262.5726,387.14201L265.45274,385.94194L266.41279,385.70193L267.61284,385.2219L269.29292,383.78182L270.973,382.10173L271.93305,379.9416
				L272.17306,378.74153L272.8931,378.02149L275.29321,377.30145L279.61342,377.54147L281.77352,377.30145L282.97358,377.06144L
				285.3737,375.86137L288.25383,373.94126L291.614,369.62102L292.57404,370.10104L293.29408,370.34106L295.45418,370.34106L299.29436,370.82108
				L301.21446,371.0611L308.4148,370.82108L310.57491,370.82108L310.09488,372.74119L308.4148,376.10138L308.65481,378.02149L309.85487,379.9416
				L310.81492,380.66164L312.01497,381.38168L313.69506,381.38168L314.6551,381.86171L315.61515,382.82177L315.85516,384.50186L
				315.61515,385.94194L314.6551,387.38203L312.73501,390.26219L309.85487,394.58243L308.17479,396.98257L306.49471,400.34276L305.29465,404.42299
				L305.29465,405.38305L309.61486,403.70295L310.09488,403.70295L311.05493,404.66301L311.77496,406.10309L312.01497,407.30316
				L312.01497,411.38339L311.77496,412.82347L311.53495,413.06349L310.81492,413.54351L308.4148,414.50357L304.09459,414.74358L
				302.41451,414.26355L300.73443,414.26355L300.0144,414.50357L299.29436,414.98359L299.05435,415.46362L298.09431,419.06383L295.45418,419.78387
				L293.05406,420.74392L288.73386,421.46396L286.09373,422.42402L284.65366,422.66403L277.69333,425.5442L275.53322,426.50425L
				271.69304,428.66437L270.49298,428.90439L269.05291,429.62443L262.81261,432.26458L262.33259,432.26458L259.21244,433.94467L
				251.53207,436.82484L247.9319,437.78489L246.49183,437.30486L247.9319,434.4247L243.8517,434.4247L242.41163,434.66471L239.05147,434.66471
				L236.65136,434.4247L233.77122,434.4247L230.17105,433.94467L230.41106,435.62477L229.93104,437.78489L226.09085,447.86546L224.89079,449.30555
				L222.25067,451.22566L220.33057,450.98564L218.89051,450.50561L217.45044,450.02559L215.05032,449.06553L214.09027,448.82552
				L209.77007,447.14542L207.60996,445.94536L204.48981,444.02525L204.00979,443.54522L202.0897,442.34515L201.60968,441.86512L
				198.96955,440.18503L195.60939,437.06485L194.88935,436.1048L193.92931,434.66471L193.44928,432.7446L193.44928,431.78455L193.92931,427.4643
				L194.88935,425.06417L197.76949,420.74392L198.72954,417.86376L198.72954,416.42368L198.48953,415.46362L197.52948,414.26355
				L196.08941,413.54351L193.44928,413.3035L192.48924,414.98359L191.7692,415.70364L190.32913,416.42368L187.449,418.34379L186.48895,418.82381
				L182.40875,421.70398L176.40847,425.5442L174.48837,426.50425L173.28832,425.06417L171.12821,424.58414L169.68814,424.34413L
				168.24807,423.62409L165.12793,421.70398L162.4878,420.74392L159.36765,419.78387L157.20755,419.78387L155.04744,419.54385L153.36736,419.30384
				L146.16702,418.82381L144.72695,418.34379L143.28688,418.34379L139.20668,417.14372L134.64646,414.98359L127.92614,412.82347
				L127.44612,412.82347L128.64617,408.0232L129.1262,407.06314L129.84623,403.22293L129.84623,401.78284L130.08624,398.66267L131.76632,397.94263
				L133.4464,396.74256L135.84652,392.42231L137.28659,390.74222L138.72666,387.86205L140.88676,385.2219L140.88676,383.06178L142.32683,382.10173
				L144.72695,380.42163L148.32712,376.58141L150.24721,375.86137L153.12735,375.62136L156.48751,377.06144L159.36765,378.74153
				L161.52775,381.14167L163.44784,380.18162L164.6479,380.42163L167.04802,379.46158L169.92816,379.22156L172.80829,378.02149L
				176.64848,377.30145L184.56886,374.6613L186.00893,373.94126L187.449,372.74119L192.96926,367.22088L194.88935,365.7808L196.32942,364.82074
				L200.64963,365.7808L201.60968,366.26082L203.04975,367.22088L203.52977,367.70091L205.92988,368.90097L206.88993,369.14099L
				208.81002,369.14099L211.69016,369.14099L215.05032,367.70091L216.49039,367.22088L217.45044,366.74085L219.13052,365.30077L
				220.09056,363.62067L221.53063,361.22054L221.77064,360.02047L222.25067,357.86035L222.25067,356.90029L221.53063,354.98018L
				221.77064,354.26014L222.49068,352.10002L223.21071,351.61999L224.41077,351.37998L226.81089,351.37998L229.93104,352.82006L
				230.89108,349.9399L231.61112,347.29975L232.09114,345.85966L234.97128,341.29941L235.4513,340.81938L241.6916,331.93887L241.93161,331.45885
				L242.89166,328.33867L242.65165,326.41856L243.13167,327.1386L243.61169,328.8187L243.37168,331.45885L242.17162,332.89893L240.49154,334.81904
				L238.81146,337.21917L237.13138,339.61931L236.41135,341.05939L236.17133,342.49947L236.41135,344.89961L236.89137,345.85966
				z"/>
			<path clip-path="url(#SVG_CP_1)" fill="#73B273" fill-rule="evenodd" stroke="#000000" stroke-width="0.96005" stroke-miterlimit="10" stroke-linecap="round" stroke-linejoin="round" d="
				M47.52228,291.37657L51.60248,291.85659L53.28256,291.85659L58.3228,292.09661L59.76287,292.33662L61.20294,292.33662L65.52315,292.81665
				L66.24318,292.81665L66.7232,292.81665L72.9635,293.53669L74.88359,294.01672L80.64387,295.69681L83.52401,296.65687L87.84422,297.85694
				L89.28429,298.09695L96.24462,300.01706L98.40472,300.49709L101.76488,300.97711L108.72522,301.45714L118.08567,301.45714L120.24577,301.45714
				L124.56598,301.93717L126.00605,302.41719L126.72608,303.13724L127.44612,303.85728L127.92614,305.53737L129.1262,307.69749L
				130.08624,309.85762L130.08624,312.25775L129.84623,313.69784L130.08624,314.41788L130.32626,317.29804L130.08624,320.1782L131.04629,322.81835
				L131.2863,323.29838L132.00634,323.77841L134.16644,324.25844L135.60651,325.21849L138.24664,325.93853L146.16702,326.89859L
				154.80743,327.61863L161.76776,327.37861L164.88791,327.37861L166.32798,327.1386L168.7281,326.41856L169.44813,326.89859L170.8882,326.65857
				L173.04831,325.4585L175.44842,324.49845L179.52862,323.77841L180.96869,323.5384L184.08884,324.01842L189.84911,323.5384L192.72925,322.33833
				L194.40933,321.37827L195.8494,320.65823L198.0095,318.97814L199.68958,318.01808L202.80973,315.61795L206.64992,312.25775L209.29004,311.05769
				L211.45015,310.57766L212.17018,310.57766L213.85026,311.05769L215.05032,311.05769L216.01037,311.05769L217.69045,312.25775
				L220.57059,313.45782L222.01066,314.41788L223.45072,315.13792L224.65078,316.09797L228.01094,317.53805L228.73098,317.53805
				L230.17105,318.2581L232.81117,318.97814L235.93132,318.49811L238.57145,318.73812L239.5315,319.21815L242.17162,318.97814L241.6916,321.37827
				L241.93161,323.77841L241.93161,324.97848L242.65165,326.41856L242.89166,328.33867L241.93161,331.45885L241.6916,331.93887L
				235.4513,340.81938L234.97128,341.29941L232.09114,345.85966L231.61112,347.29975L230.89108,349.9399L229.93104,352.82006L226.81089,351.37998
				L224.41077,351.37998L223.21071,351.61999L222.49068,352.10002L221.77064,354.26014L221.53063,354.98018L222.25067,356.90029
				L222.25067,357.86035L221.77064,360.02047L221.53063,361.22054L220.09056,363.62067L219.13052,365.30077L217.45044,366.74085
				L216.49039,367.22088L215.05032,367.70091L211.69016,369.14099L208.81002,369.14099L206.88993,369.14099L205.92988,368.90097
				L203.52977,367.70091L203.04975,367.22088L201.60968,366.26082L200.64963,365.7808L196.32942,364.82074L194.88935,365.7808L192.96926,367.22088
				L187.449,372.74119L186.00893,373.94126L184.56886,374.6613L176.64848,377.30145L172.80829,378.02149L169.92816,379.22156L167.04802,379.46158
				L164.6479,380.42163L163.44784,380.18162L161.52775,381.14167L159.36765,378.74153L156.48751,377.06144L153.12735,375.62136L
				150.24721,375.86137L148.32712,376.58141L144.72695,380.42163L142.32683,382.10173L140.88676,383.06178L140.88676,385.2219L138.72666,387.86205
				L137.28659,390.74222L135.84652,392.42231L133.4464,396.74256L131.76632,397.94263L130.08624,398.66267L129.84623,401.78284L
				129.84623,403.22293L129.1262,407.06314L128.64617,408.0232L127.44612,412.82347L126.72608,415.46362L126.24606,417.38373L126.00605,419.30384
				L125.28601,424.10411L123.36592,430.10445L122.64589,432.7446L121.68584,434.66471L120.96581,436.1048L119.76575,437.30486L117.12562,440.42504
				L114.96552,444.02525L113.52545,445.46533L111.12533,448.82552L109.68526,450.2656L106.56511,454.10582L105.36506,455.06587L
				104.64502,456.50596L104.64502,457.226L102.96494,456.02593L99.60478,453.38578L96.48463,450.98564L95.28457,449.78557L91.44439,448.10548
				L85.68411,446.42538L79.2038,444.9853L76.56367,444.50527L72.00346,443.54522L69.60334,442.58516L66.00317,441.62511L59.76287,440.18503
				L58.3228,440.18503L58.3228,438.50493L58.08279,433.22463L58.56281,429.38441L58.56281,426.02422L59.04283,422.184L59.28285,419.54385
				L59.04283,416.66369L60.24289,408.0232L60.96293,396.02252L61.44295,393.38237L61.68296,389.06212L61.68296,388.10207L61.68296,385.70193
				L62.16298,379.70159L63.36304,375.62136L63.36304,374.18127L63.12303,373.46123L62.88302,372.98121L60.00288,372.98121L53.76258,371.54112
				L49.9224,370.10104L43.20207,368.90097L40.80196,368.90097L39.12188,368.42095L35.76172,366.74085L35.28169,366.74085L33.84162,366.50084
				L33.84162,364.58073L34.56166,362.66062L35.28169,360.02047L35.28169,356.66028L35.76172,355.2202L37.4418,351.86001L39.84191,348.97984
				L40.56195,348.01979L42.24203,344.17957L42.24203,342.25946L42.72205,340.33935L42.48204,338.41924L42.00202,337.45919L40.56195,336.49913
				L38.16183,336.25912L35.28169,335.53908L34.56166,335.05905L34.32165,334.099L34.08164,331.69886L34.08164,330.01876L35.52171,322.33833
				L36.00173,315.85796L36.96177,312.9778L39.36189,301.93717L40.08192,298.81699L41.52199,292.57664L41.28198,291.13655L41.52199,289.69647
				L43.44209,290.1765L47.52228,291.37657z"/>
		</g>
		<g id="Labels">
			<g id="NEPAL_WARDS_-_Default">
				<g font-family="'Arial'" font-size="1" kerning="0" font-weight="400" fill="#000000" clip-path="url(#SVG_CP_1)" >
					<text text-anchor="start" transform="matrix(12.00058 0 0 12.00068 410.29969 240.59071)" >
						<tspan direction="ltr" unicode-bidi="embed" x="0 ">9</tspan>
					</text>
				</g>
				<g font-family="'Arial'" font-size="1" kerning="0" font-weight="400" fill="#000000" clip-path="url(#SVG_CP_1)" >
					<text text-anchor="start" transform="matrix(12.00058 0 0 12.00068 444.38133 580.45003)" >
						<tspan direction="ltr" unicode-bidi="embed" x="0 ">5</tspan>
					</text>
				</g>
				<g font-family="'Arial'" font-size="1" kerning="0" font-weight="400" fill="#000000" clip-path="url(#SVG_CP_1)" >
					<text text-anchor="start" transform="matrix(12.00058 0 0 12.00068 232.21114 472.68391)" >
						<tspan direction="ltr" unicode-bidi="embed" x="0 ">3</tspan>
					</text>
				</g>
				<g font-family="'Arial'" font-size="1" kerning="0" font-weight="400" fill="#000000" clip-path="url(#SVG_CP_1)" >
					<text text-anchor="start" transform="matrix(12.00058 0 0 12.00068 376.45807 503.88568)" >
						<tspan direction="ltr" unicode-bidi="embed" x="0 ">4</tspan>
					</text>
				</g>
				<g font-family="'Arial'" font-size="1" kerning="0" font-weight="400" fill="#000000" clip-path="url(#SVG_CP_1)" >
					<text text-anchor="start" transform="matrix(12.00058 0 0 12.00068 194.76935 271.07244)" >
						<tspan direction="ltr" unicode-bidi="embed" x="0 ">7</tspan>
					</text>
				</g>
				<g font-family="'Arial'" font-size="1" kerning="0" font-weight="400" fill="#000000" clip-path="url(#SVG_CP_1)" >
					<text text-anchor="start" transform="matrix(12.00058 0 0 12.00068 319.33533 298.91403)" >
						<tspan direction="ltr" unicode-bidi="embed" x="0 ">8</tspan>
					</text>
				</g>
				<g font-family="'Arial'" font-size="1" kerning="0" font-weight="400" fill="#000000" clip-path="url(#SVG_CP_1)" >
					<text text-anchor="start" transform="matrix(12.00058 0 0 12.00068 217.09042 404.52003)" >
						<tspan direction="ltr" unicode-bidi="embed" x="0 ">6</tspan>
					</text>
				</g>
				<g font-family="'Arial'" font-size="1" kerning="0" font-weight="400" fill="#000000" clip-path="url(#SVG_CP_1)" >
					<text text-anchor="start" transform="matrix(12.00058 0 0 12.00068 98.52473 375.71839)" >
						<tspan direction="ltr" unicode-bidi="embed" x="0 ">1</tspan>
						<tspan direction="ltr" unicode-bidi="embed" x="0.54001 ">2</tspan>
					</text>
				</g>
				<g font-family="'Arial'" font-size="1" kerning="0" font-weight="400" fill="#000000" clip-path="url(#SVG_CP_1)" >
					<text text-anchor="start" transform="matrix(12.00058 0 0 12.00068 336.61616 389.39917)" >
						<tspan direction="ltr" unicode-bidi="embed" x="0 ">2</tspan>
					</text>
				</g>
				<g font-family="'Arial'" font-size="1" kerning="0" font-weight="400" fill="#000000" clip-path="url(#SVG_CP_1)" >
					<text text-anchor="start" transform="matrix(12.00058 0 0 12.00068 265.81276 346.19672)" >
						<tspan direction="ltr" unicode-bidi="embed" x="0 ">1</tspan>
					</text>
				</g>
				<g font-family="'Arial'" font-size="1" kerning="0" font-weight="400" fill="#000000" clip-path="url(#SVG_CP_1)" >
					<text text-anchor="start" transform="matrix(12.00058 0 0 12.00068 450.62163 328.91573)" >
						<tspan direction="ltr" unicode-bidi="embed" x="0 ">1</tspan>
						<tspan direction="ltr" unicode-bidi="embed" x="0.48 ">1</tspan>
					</text>
				</g>
				<g font-family="'Arial'" font-size="1" kerning="0" font-weight="400" fill="#000000" clip-path="url(#SVG_CP_1)" >
					<text text-anchor="start" transform="matrix(12.00058 0 0 12.00068 407.41955 388.43912)" >
						<tspan direction="ltr" unicode-bidi="embed" x="0 ">1</tspan>
						<tspan direction="ltr" unicode-bidi="embed" x="0.54001 ">0</tspan>
					</text>
				</g>
			</g>
		</g>
		<g id="Other">
			<clipPath id="SVG_CP_2">
				<path d="M0,0L612,0L612,792L0,792z"/>
			</clipPath>
			<path clip-path="url(#SVG_CP_2)" fill="none" stroke="#000000" stroke-width="0.96005" stroke-miterlimit="10" stroke-linecap="round" stroke-linejoin="round" d="
				M10.80052,781.72445L10.80052,10.32059L596.42862,10.32059L596.42862,781.72445L10.80052,781.72445z"/>
		</g>
	</g>
</svg>
