<?xml version="1.0" encoding="utf-8" standalone="no"?>
<!-- Creator: Esri ArcMap 10.6.1.9270 -->
<!DOCTYPE svg PUBLIC "-//W3C//DTD SVG 1.1//EN"  "http://www.w3.org/Graphics/SVG/1.1/DTD/svg11.dtd">
<svg width="813.74173pt" height="434.23937pt" viewBox="0 0 813.74173 434.23937" enable-background="new 0 0 813.74173 434.23937"
	version="1.1" xmlns="http://www.w3.org/2000/svg" xmlns:xlink="http://www.w3.org/1999/xlink" >
	<g id="Layers">
		<g id="NEPAL_WARDS">
			<clipPath id="SVG_CP_1">
				<path d="M0,434.23937L0,0L813.74173,0L813.74173,434.23937L0,434.23937z"/>
			</clipPath>
			<path clip-path="url(#SVG_CP_1)" fill="#73B273" fill-rule="evenodd" stroke="#000000" stroke-width="0.95986" stroke-miterlimit="10" stroke-linecap="round" stroke-linejoin="round" d="
				M382.02279,227.30314L380.58301,227.06311L379.38319,226.58306L377.70344,226.34304L376.26365,226.82309L375.3038,227.06311L
				373.14412,227.30314L370.74448,227.78318L369.3047,228.50326L369.06473,228.50326L367.14502,229.46336L365.70523,229.9434L364.74538,229.9434
				L363.30559,229.9434L362.34574,230.18343L360.90595,230.18343L359.9461,229.9434L359.46617,229.46336L358.02638,227.54316L356.82656,226.58306
				L355.86671,226.82309L353.46707,227.06311L353.2271,227.06311L351.54735,227.30314L349.86761,226.82309L348.66779,226.82309L
				346.50811,226.34304L344.10847,225.62296L342.42872,224.42284L342.18876,224.18282L340.26904,223.46274L338.58929,222.9827L337.38947,222.50265
				L336.42962,222.26262L334.26994,221.30252L333.55005,220.82248L331.39037,219.86238L330.43052,219.1423L328.75077,218.66226L
				327.55095,218.66226L326.35113,218.90228L324.67138,218.90228L323.23159,218.66226L322.27174,218.42223L321.07192,217.70216L
				320.35203,217.46213L322.5117,214.82187L323.95149,212.66165L325.39127,210.74145L326.35113,210.50143L327.07102,209.78135L327.79091,208.58123
				L328.99073,206.90106L330.67048,205.94096L331.63034,205.22089L332.35023,204.74084L333.79001,203.54072L335.94969,200.90045
				L337.14951,199.22028L337.8694,198.26018L339.06922,196.82003L339.78912,196.09996L340.98894,195.37989L341.70883,195.37989L
				343.8685,195.37989L345.30829,195.13986L345.54825,195.13986L346.74807,194.41979L347.70793,193.21967L348.42782,191.77952L348.66779,190.33937
				L348.90775,187.93913L348.42782,186.01893L348.42782,184.57879L348.42782,183.61869L349.38768,181.69849L350.10757,180.25835
				L351.06743,179.05823L352.26725,177.8581L353.2271,177.13803L353.70703,176.41796L353.947,174.97781L353.46707,174.49776L353.70703,172.57757
				L353.947,171.37744L354.66689,170.41735L356.10667,168.9772L357.30649,168.25713L358.26635,167.53705L358.50631,167.29703L360.66599,166.09691
				L362.34574,165.37683L363.06563,164.65676L363.54556,162.73656L362.5857,160.33632L362.34574,159.61625L362.5857,158.41612L363.06563,157.45603
				L363.78552,155.05578L364.98534,153.37561L366.18516,151.69544L367.14502,150.73534L368.34484,149.77524L369.78462,148.09507
				L370.26455,146.65493L370.74448,144.73473L371.70434,143.29459L372.18426,142.81454L373.62405,141.85444L375.3038,145.4548L376.50362,148.57512
				L377.9434,151.93546L378.66329,155.29581L379.38319,158.89617L379.86311,161.05639L380.82297,162.01649L380.82297,162.25652L
				382.26275,165.37683L383.46257,167.057L384.42243,170.89739L384.42243,171.13742L384.6624,173.77769L384.18247,175.21783L384.6624,176.89801
				L384.90236,178.57818L384.6624,182.89862L383.9425,183.61869L383.46257,184.57879L383.46257,184.81881L383.46257,185.29886L383.46257,186.25896
				L383.46257,187.45908L383.46257,188.41918L383.46257,189.6193L382.98265,190.09935L382.98265,192.01954L382.98265,193.69972L
				383.46257,194.17976L384.42243,195.37989L385.86222,196.58001L386.82207,197.30008L387.06204,197.54011L387.78193,198.5002L388.74178,199.94035
				L388.50182,200.90045L387.302,202.82064L386.82207,203.54072L387.302,204.98086L387.06204,206.18099L386.34214,207.86116L385.86222,208.58123
				L385.14232,210.74145L384.18247,212.1816L383.70254,213.38172L383.22261,214.34182L382.98265,215.30191L382.26275,216.02199L
				382.02279,216.74206L381.54286,218.18221L381.54286,218.42223L381.3029,219.62235L381.3029,221.30252L381.78283,223.22272L381.78283,223.94279
				L381.78283,225.14292L381.78283,225.86299L382.02279,227.30314z"/>
			<path clip-path="url(#SVG_CP_1)" fill="#73B273" fill-rule="evenodd" stroke="#000000" stroke-width="0.95986" stroke-miterlimit="10" stroke-linecap="round" stroke-linejoin="round" d="
				M412.49823,224.42284L413.93801,224.42284L415.85772,224.90289L416.57762,225.38294L417.53747,226.10301L417.05754,226.82309
				L416.81758,227.78318L416.33765,228.74328L416.33765,229.46336L416.33765,229.70338L415.85772,230.9035L415.3778,231.62358L414.41794,232.34365
				L413.45808,234.50387L413.21812,237.14414L413.21812,237.62419L412.97815,237.86421L412.73819,239.30436L412.49823,242.18465
				L412.25826,244.82492L412.0183,246.50509L412.0183,247.46519L411.53837,248.18526L410.81848,248.90533L410.09859,249.38538L409.85862,249.62541
				L409.61866,250.34548L409.37869,251.5456L408.89877,252.98575L408.89877,253.22577L408.89877,254.18587L408.89877,255.14597L
				408.41884,257.54621L408.17887,260.18648L408.17887,260.90656L408.6588,261.3866L408.17887,262.3467L408.17887,263.54682L407.69895,265.227
				L407.69895,266.42712L407.69895,268.34731L407.45898,269.54744L406.73909,270.26751L405.05934,271.70766L404.81938,272.42773
				L404.81938,273.38783L404.81938,274.34792L405.05934,275.30802L405.2993,276.26812L404.81938,276.98819L404.81938,277.46824L
				405.53927,279.38844L406.0192,279.86849L406.97905,280.34853L407.45898,281.30863L407.69895,282.26873L408.17887,282.50875L408.6588,283.22883
				L408.89877,283.70888L408.6588,284.66897L408.6588,285.62907L409.13873,286.34915L409.13873,287.06922L409.13873,287.30924L408.6588,288.74939
				L408.6588,289.22944L408.89877,291.38966L408.41884,292.58978L408.17887,293.30985L406.97905,294.50998L406.49913,294.50998L
				405.77923,295.7101L406.0192,298.83042L406.25916,300.03054L406.25916,301.95073L406.25916,302.91083L406.25916,303.87093L406.0192,304.83103
				L405.77923,304.83103L405.2993,305.5511L403.85952,306.75122L403.61956,306.75122L401.93981,307.71132L399.06024,308.19137L398.58031,308.43139
				L397.62045,308.91144L395.70074,310.35159L394.02099,311.55171L393.78103,311.79173L393.3011,311.79173L390.18157,311.55171L
				388.98175,311.55171L387.54196,312.03176L386.58211,312.51181L385.86222,313.47191L384.90236,314.432L383.9425,314.67203L383.70254,314.67203
				L383.46257,314.67203L381.06293,313.47191L380.10308,312.75183L379.86311,312.03176L379.62315,311.79173L377.9434,310.59161L
				377.70344,310.59161L376.50362,310.59161L374.82387,310.83164L373.86401,310.83164L373.38408,310.59161L373.38408,310.35159L
				373.38408,309.63151L372.66419,308.19137L371.9443,306.99125L367.14502,304.35098L365.22531,303.87093L364.26545,303.87093L363.30559,303.6309
				L363.06563,303.39088L362.82567,303.15086L362.34574,302.43078L361.86581,301.71071L360.66599,300.99064L359.70613,300.27056
				L358.98624,299.07044L357.06653,297.63029L356.10667,297.15024L354.42692,296.43017L347.46797,295.95012L345.78822,295.95012
				L343.62854,296.43017L340.50901,297.39027L338.10937,297.63029L336.42962,298.11034L333.31009,299.31046L332.83016,299.55049
				L332.35023,299.79051L331.39037,300.51059L330.43052,301.47068L329.95059,301.95073L328.99073,302.67081L328.75077,302.67081
				L328.03088,302.67081L327.79091,302.91083L327.07102,302.91083L325.8712,302.91083L325.15131,302.67081L324.43142,302.67081L
				323.95149,302.67081L323.47156,303.15086L323.23159,303.15086L321.55185,303.6309L321.07192,303.87093L320.59199,303.87093L319.63213,304.11095
				L319.8721,303.6309L319.8721,303.15086L319.8721,302.91083L319.39217,302.19076L318.67228,301.95073L317.71242,301.23066L317.23249,300.51059
				L316.99253,299.55049L316.03267,298.35037L312.91314,293.30985L312.19325,292.58978L310.5135,291.86971L310.03357,291.38966L
				308.83375,288.50937L307.39397,286.10912L305.47425,281.06861L304.99433,280.10851L304.5144,279.86849L304.03447,278.90839L303.55454,278.42834
				L303.07461,277.94829L302.35472,277.46824L303.55454,276.02809L306.43411,271.94768L308.83375,268.58734L310.75346,265.70704
				L311.95328,262.82675L312.19325,259.94646L312.43321,258.50631L314.11296,254.90594L314.83285,251.30558L314.11296,249.14536
				L316.99253,244.82492L318.67228,239.54438L319.63213,234.50387L319.63213,233.7838L320.11206,233.7838L320.83195,233.54377L321.79181,233.30375
				L322.99163,234.02382L324.19145,234.50387L325.39127,235.22394L326.35113,236.42406L328.03088,238.10423L329.2307,239.54438L
				330.19055,240.98453L330.19055,242.6647L329.71062,243.14475L329.2307,244.34487L329.47066,245.78502L329.95059,246.50509L330.91044,246.98514
				L331.63034,247.94524L331.8703,249.38538L332.11027,250.10546L332.35023,250.82553L332.11027,252.5057L332.35023,253.4658L332.83016,254.4259
				L332.83016,255.14597L332.11027,256.10607L331.15041,257.06616L330.67048,258.50631L329.71062,260.42651L329.2307,262.3467L329.47066,262.58673
				L329.71062,262.58673L331.15041,261.14658L332.35023,258.26629L334.02998,257.06616L334.98983,256.58612L335.2298,254.90594L
				335.94969,252.5057L336.18965,252.02565L336.90955,248.42529L337.62944,246.26507L338.82926,244.10485L339.78912,241.7046L340.02908,239.30436
				L340.74897,237.38416L341.46886,234.74389L342.42872,231.62358L341.46886,230.9035L341.2289,228.74328L341.46886,225.86299L342.18876,224.18282
				L342.42872,224.42284L344.10847,225.62296L346.50811,226.34304L348.66779,226.82309L349.86761,226.82309L351.54735,227.30314
				L353.2271,227.06311L353.46707,227.06311L355.86671,226.82309L356.82656,226.58306L358.02638,227.54316L359.46617,229.46336L
				359.9461,229.9434L360.90595,230.18343L362.34574,230.18343L363.30559,229.9434L364.74538,229.9434L365.70523,229.9434L367.14502,229.46336
				L369.06473,228.50326L369.3047,228.50326L370.74448,227.78318L373.14412,227.30314L375.3038,227.06311L376.26365,226.82309L377.70344,226.34304
				L379.38319,226.58306L380.58301,227.06311L382.02279,227.30314L382.26275,227.30314L385.14232,227.54316L386.58211,227.54316
				L389.46168,227.06311L391.14142,226.58306L392.34125,226.10301L394.74089,226.34304L395.94071,226.34304L396.6606,226.10301L
				399.3002,225.86299L401.45988,225.14292L403.37959,224.90289L404.33945,225.14292L405.77923,225.38294L406.49913,225.14292L407.21902,224.42284
				L408.41884,224.18282L409.13873,223.94279L410.81848,224.18282L411.53837,224.42284L412.49823,224.42284z"/>
			<path clip-path="url(#SVG_CP_1)" fill="#73B273" fill-rule="evenodd" stroke="#000000" stroke-width="0.95986" stroke-miterlimit="10" stroke-linecap="round" stroke-linejoin="round" d="
				M286.51709,215.06189L287.23699,214.58184L288.43681,214.10179L289.63663,214.34182L292.03627,214.82187L294.19594,214.82187
				L296.59558,214.34182L299.47515,214.82187L301.1549,214.58184L302.11476,214.34182L304.03447,213.86177L305.71422,213.38172L
				307.39397,213.14169L309.55364,213.62174L311.95328,214.10179L313.63303,214.82187L314.59289,215.54194L316.03267,216.74206L
				316.75257,216.98209L318.67228,217.46213L320.35203,217.46213L321.07192,217.70216L322.27174,218.42223L323.23159,218.66226L
				324.67138,218.90228L326.35113,218.90228L327.55095,218.66226L328.75077,218.66226L330.43052,219.1423L331.39037,219.86238L333.55005,220.82248
				L334.26994,221.30252L336.42962,222.26262L337.38947,222.50265L338.58929,222.9827L340.26904,223.46274L342.18876,224.18282L
				341.46886,225.86299L341.2289,228.74328L341.46886,230.9035L342.42872,231.62358L341.46886,234.74389L340.74897,237.38416L340.02908,239.30436
				L339.78912,241.7046L338.82926,244.10485L337.62944,246.26507L336.90955,248.42529L336.18965,252.02565L335.94969,252.5057L335.2298,254.90594
				L334.98983,256.58612L334.02998,257.06616L332.35023,258.26629L331.15041,261.14658L329.71062,262.58673L329.47066,262.58673
				L329.2307,262.3467L329.71062,260.42651L330.67048,258.50631L331.15041,257.06616L332.11027,256.10607L332.83016,255.14597L332.83016,254.4259
				L332.35023,253.4658L332.11027,252.5057L332.35023,250.82553L332.11027,250.10546L331.8703,249.38538L331.63034,247.94524L330.91044,246.98514
				L329.95059,246.50509L329.47066,245.78502L329.2307,244.34487L329.71062,243.14475L330.19055,242.6647L330.19055,240.98453L329.2307,239.54438
				L328.03088,238.10423L326.35113,236.42406L325.39127,235.22394L324.19145,234.50387L322.99163,234.02382L321.79181,233.30375
				L320.83195,233.54377L320.11206,233.7838L319.63213,233.7838L319.63213,234.50387L318.67228,239.54438L316.99253,244.82492L314.11296,249.14536
				L314.83285,251.30558L314.11296,254.90594L312.43321,258.50631L312.19325,259.94646L311.95328,262.82675L310.75346,265.70704
				L308.83375,268.58734L306.43411,271.94768L303.55454,276.02809L302.35472,277.46824L302.11476,276.98819L300.67497,274.82797
				L299.95508,272.90778L299.47515,271.22761L298.75526,270.50753L297.31548,268.82736L295.63573,266.66714L295.1558,265.70704L
				293.95598,264.50692L292.03627,263.54682L289.63663,262.58673L287.47695,262.10668L286.75706,261.86665L285.07731,261.62663L
				284.59738,261.3866L284.11745,261.3866L282.91763,260.18648L282.19774,259.70643L280.99792,258.98636L280.27803,258.50631L277.87839,257.06616
				L275.23878,255.62602L274.03896,254.66592L272.59918,253.4658L272.59918,252.98575L272.35921,252.5057L271.63932,252.02565L270.4395,251.5456
				L268.51979,250.58551L267.55993,249.86543L267.08,249.14536L266.60008,247.70521L266.36011,246.26507L265.88018,245.54499L264.20044,243.38477
				L263.48054,242.18465L262.76065,241.46458L261.56083,240.50448L258.92123,239.06433L257.00151,236.90411L256.52159,236.18404
				L256.04166,235.22394L255.80169,234.74389L255.80169,233.54377L255.32176,232.58367L254.60187,232.58367L254.12194,232.10362
				L253.40205,231.14353L252.4422,229.70338L251.48234,228.50326L250.04256,227.30314L248.12284,225.86299L245.24327,222.26262L
				243.0836,220.34243L240.68396,217.46213L239.00421,215.30191L237.32446,214.10179L235.40475,212.42162L233.00511,211.70155L231.80529,211.46152
				L229.64561,210.98147L226.76604,210.74145L225.08629,210.50143L225.32626,209.78135L226.04615,208.34121L227.00601,207.14108
				L228.20583,206.42101L230.12554,205.46091L232.28521,204.02077L234.44489,203.30069L235.64471,203.30069L237.32446,204.02077
				L237.80439,204.50081L239.96406,205.94096L241.88378,206.66103L242.60367,207.14108L243.80349,208.10118L244.52338,208.82125
				L245.96317,209.54133L248.12284,210.02138L251.24238,210.2614L254.12194,210.50143L255.56173,210.74145L256.04166,210.98147L
				258.92123,211.70155L260.12105,212.1816L261.80079,212.1816L263.72051,212.1816L266.12015,211.46152L266.84004,210.98147L267.55993,210.50143
				L269.23968,210.2614L270.19954,210.2614L271.63932,210.50143L274.27893,211.94157L276.67857,213.62174L278.83824,215.06189L281.23788,215.78196
				L284.11745,215.78196L286.51709,215.06189z"/>
			<path clip-path="url(#SVG_CP_1)" fill="#73B273" fill-rule="evenodd" stroke="#000000" stroke-width="0.95986" stroke-miterlimit="10" stroke-linecap="round" stroke-linejoin="round" d="
				M613.34815,178.8182L613.10818,179.05823L612.38829,179.53827L611.6684,179.7783L611.42844,180.25835L611.42844,180.7384L611.42844,181.21845
				L611.42844,181.93852L611.42844,182.89862L611.18847,183.37866L611.18847,184.09874L611.18847,184.57879L611.18847,185.29886
				L611.42844,185.53888L611.6684,186.25896L611.90836,186.73901L611.90836,187.21906L612.14833,187.93913L612.38829,188.41918L
				612.62826,188.89923L612.62826,189.37928L612.62826,190.09935L612.14833,190.81942L611.90836,191.5395L611.6684,192.01954L611.42844,192.49959
				L611.18847,193.69972L610.94851,193.69972L610.70854,194.17976L610.70854,194.89984L610.70854,195.85994L610.70854,196.58001
				L610.70854,197.30008L610.70854,197.78013L610.46858,198.26018L610.46858,198.98025L610.22862,199.70033L609.98865,200.66042
				L609.0288,204.26079L608.54887,204.74084L608.3089,204.98086L607.82897,205.22089L607.58901,205.70094L607.34905,206.18099L606.86912,206.90106
				L606.38919,207.14108L606.14923,207.86116L606.38919,208.58123L606.62915,209.06128L606.86912,209.54133L607.34905,210.50143
				L607.58901,211.2215L607.82897,211.46152L608.3089,212.1816L608.78883,213.14169L609.0288,213.38172L609.0288,214.10179L609.0288,214.34182
				L609.0288,214.58184L608.3089,215.06189L607.82897,215.06189L607.34905,215.54194L606.38919,216.26201L605.90926,216.50204L605.42933,216.98209
				L604.70944,217.70216L604.46948,218.18221L603.98955,218.66226L603.26966,219.38233L603.02969,219.86238L602.78973,220.58245
				L602.3098,221.30252L602.3098,221.78257L602.3098,222.26262L602.54977,222.74267L602.78973,223.46274L602.78973,223.70277L602.3098,224.18282
				L602.06984,224.66287L601.58991,225.14292L600.87002,226.10301L600.39009,226.58306L599.91016,227.06311L599.19027,228.26323
				L599.19027,228.98331L599.43023,229.70338L599.43023,229.9434L599.6702,230.66348L599.6702,231.38355L599.6702,232.10362L599.43023,232.58367
				L599.19027,233.06372L599.43023,233.54377L599.43023,234.26384L599.19027,234.98392L599.19027,235.46397L599.43023,235.94402
				L599.6702,236.66409L600.39009,237.38416L600.87002,237.86421L601.10998,238.34426L601.34995,238.58428L601.82987,239.30436L
				601.82987,240.02443L601.58991,240.50448L601.34995,241.22455L601.34995,241.94463L601.58991,242.6647L601.58991,243.14475L601.58991,243.86482
				L601.82987,244.58489L601.58991,244.82492L601.58991,245.78502L601.82987,246.98514L601.82987,247.46519L601.58991,247.94524
				L601.34995,248.66531L601.34995,248.90533L601.10998,249.14536L600.63005,249.62541L600.15012,250.10546L599.6702,250.58551L
				599.43023,251.06555L599.19027,251.30558L598.71034,252.26568L598.23041,252.5057L597.75048,252.5057L597.51052,252.74573L597.03059,252.98575
				L596.79063,253.70582L596.3107,254.4259L596.07074,254.90594L596.07074,255.38599L595.83077,255.86604L595.35084,256.82614L595.35084,257.54621
				L595.11088,258.02626L595.11088,258.50631L594.87092,258.98636L594.39099,259.70643L593.91106,260.66653L593.6711,261.86665L
				592.9512,261.62663L592.71124,261.14658L592.47127,260.18648L592.23131,259.70643L592.23131,259.22638L592.23131,258.74634L592.23131,258.26629
				L592.47127,257.78624L592.71124,257.30619L592.9512,257.06616L593.43113,256.58612L593.6711,256.10607L594.15102,255.86604L594.39099,255.62602
				L594.63095,255.14597L594.87092,254.4259L594.87092,253.94585L595.11088,253.70582L595.11088,252.98575L595.11088,252.5057L595.11088,252.26568
				L594.87092,251.30558L594.87092,250.82553L594.63095,250.34548L594.15102,249.62541L593.91106,248.90533L593.91106,248.66531
				L593.19117,248.18526L592.71124,247.70521L592.23131,247.46519L591.99135,247.46519L591.51142,247.22516L590.79153,247.22516
				L590.3116,247.22516L589.83167,247.22516L589.35174,247.22516L588.63185,247.22516L588.39189,247.70521L588.15192,248.18526L
				587.67199,248.90533L587.43203,249.38538L587.43203,249.62541L586.9521,250.58551L586.71214,250.82553L586.47217,251.30558L586.23221,251.5456
				L585.75228,252.02565L585.27235,252.5057L585.03239,252.74573L584.07253,253.22577L583.35264,253.22577L583.11268,253.22577L
				582.39278,253.70582L581.91286,253.70582L581.43293,253.94585L580.953,254.18587L580.71304,254.18587L579.99314,254.66592L579.51322,255.14597
				L579.27325,255.14597L579.03329,255.38599L578.31339,255.86604L577.83347,256.10607L577.35354,256.34609L576.87361,256.58612
				L576.63365,256.82614L576.15372,257.06616L575.91375,257.30619L575.43383,257.30619L574.71393,257.54621L574.23401,257.78624
				L573.99404,258.02626L573.51411,258.02626L572.79422,258.26629L572.31429,258.26629L571.83437,258.26629L570.63454,258.74634
				L570.15462,258.74634L569.91465,259.22638L568.9548,259.94646L568.71483,260.18648L568.2349,260.42651L568.2349,260.66653L567.75498,261.14658
				L567.27505,261.3866L567.03508,261.86665L566.07523,262.3467L565.5953,262.58673L565.35534,262.82675L564.87541,263.06678L564.39548,263.06678
				L563.67559,263.3068L563.19566,263.3068L562.95569,263.3068L562.47577,263.54682L561.75587,263.78685L561.51591,263.78685L560.31609,264.2669
				L559.83616,264.50692L559.5962,264.74695L558.63634,265.227L558.39638,265.46702L557.91645,265.70704L556.95659,266.18709L556.47667,266.42712
				L555.99674,266.18709L555.51681,265.94707L555.27684,265.46702L555.03688,265.227L555.03688,264.98697L555.03688,264.50692L554.55695,264.02687
				L554.55695,263.78685L554.07702,263.78685L553.11717,263.78685L552.8772,263.78685L552.8772,262.3467L552.8772,259.46641L553.11717,258.02626
				L553.35713,255.38599L552.8772,253.70582L551.19746,252.02565L549.99764,250.34548L548.79782,248.66531L547.59799,245.78502L
				545.67828,242.90472L544.71843,240.50448L543.99853,236.42406L543.99853,234.02382L543.51861,230.42345L542.31879,227.30314L
				540.39907,225.62296L538.2394,223.70277L535.83976,222.50265L533.20015,221.30252L530.56055,217.70216L526.00123,214.34182L524.32148,210.74145
				L524.32148,208.58123L524.80141,205.70094L526.48116,202.82064L527.92094,201.3805L530.80051,200.18037L532.48026,198.98025L
				533.92004,196.82003L536.55965,194.41979L539.91914,191.29947L542.79871,189.85932L544.95839,188.41918L545.43832,185.77891L
				545.19835,182.89862L545.43832,177.37805L544.95839,172.57757L545.19835,172.57757L545.67828,171.85749L545.91825,171.37744L
				547.59799,168.25713L547.83796,168.0171L548.55785,167.77708L549.27774,167.29703L550.95749,165.85688L551.19746,165.37683L552.15731,164.17671
				L552.39728,163.69666L553.11717,163.45664L554.07702,162.97659L554.79692,162.25652L555.03688,162.01649L557.67649,160.57634
				L558.39638,160.0963L559.11627,159.85627L559.5962,159.61625L562.47577,158.65615L562.71573,158.65615L564.87541,159.1362L566.07523,159.61625
				L566.55516,159.61625L567.27505,159.85627L568.2349,160.33632L568.71483,160.33632L569.43472,160.81637L570.39458,161.29642L
				570.87451,161.53644L571.35444,161.77647L571.83437,162.01649L572.31429,162.25652L573.03419,162.49654L573.51411,162.49654L
				574.23401,162.49654L574.9539,162.49654L575.19386,162.49654L575.91375,162.25652L576.87361,161.77647L577.5935,161.53644L578.31339,161.29642
				L578.79332,161.05639L579.75318,161.05639L580.23311,161.05639L580.71304,161.05639L581.91286,161.05639L582.39278,161.05639
				L582.87271,161.05639L583.5926,161.05639L584.07253,161.29642L584.79242,161.53644L585.03239,161.77647L585.75228,162.25652L
				585.99224,162.73656L587.43203,164.65676L588.87181,164.17671L590.07163,163.93669L591.03149,163.69666L592.23131,163.45664L
				592.9512,163.45664L593.43113,163.45664L594.63095,163.69666L595.11088,164.17671L595.83077,164.17671L596.3107,164.41673L596.79063,164.41673
				L597.51052,164.17671L597.99045,163.69666L598.47038,163.45664L599.19027,163.45664L599.91016,163.45664L600.39009,163.93669
				L600.63005,164.17671L601.34995,164.41673L601.82987,164.65676L602.3098,164.65676L603.26966,164.41673L603.50962,164.41673L
				604.22951,163.21661L606.86912,165.13681L607.34905,165.85688L607.58901,166.09691L607.82897,166.57695L607.82897,167.29703L
				607.82897,168.49715L607.82897,169.21722L607.82897,169.9373L608.3089,171.13742L608.54887,171.61747L609.0288,172.09752L609.50872,172.57757
				L609.98865,173.05761L610.46858,173.05761L610.70854,173.53766L611.18847,174.01771L611.42844,174.49776L611.42844,175.21783
				L611.6684,175.93791L611.6684,176.65798L611.6684,177.13803L611.90836,177.61808L612.14833,178.09813L612.62826,178.57818L613.34815,178.8182
				z"/>
			<path clip-path="url(#SVG_CP_1)" fill="#73B273" fill-rule="evenodd" stroke="#000000" stroke-width="0.95986" stroke-miterlimit="10" stroke-linecap="round" stroke-linejoin="round" d="
				M544.95839,172.57757L545.43832,177.37805L545.19835,182.89862L545.43832,185.77891L544.95839,188.41918L542.79871,189.85932
				L539.91914,191.29947L536.55965,194.41979L533.92004,196.82003L532.48026,198.98025L530.80051,200.18037L527.92094,201.3805L
				526.48116,202.82064L524.80141,205.70094L524.32148,208.58123L524.32148,210.74145L526.00123,214.34182L530.56055,217.70216L
				533.20015,221.30252L535.83976,222.50265L538.2394,223.70277L540.39907,225.62296L542.31879,227.30314L543.51861,230.42345L543.99853,234.02382
				L543.99853,236.42406L544.71843,240.50448L545.67828,242.90472L547.59799,245.78502L548.79782,248.66531L549.99764,250.34548
				L551.19746,252.02565L552.8772,253.70582L553.35713,255.38599L553.11717,258.02626L552.8772,259.46641L552.8772,262.3467L552.8772,263.78685
				L552.63724,263.78685L551.91735,263.78685L551.43742,263.78685L551.19746,264.02687L549.99764,263.78685L549.51771,263.78685
				L549.03778,263.78685L548.55785,263.54682L548.07792,263.06678L547.59799,262.58673L547.35803,262.3467L546.8781,261.3866L546.63814,260.90656
				L546.63814,260.42651L546.39817,259.94646L546.15821,259.22638L546.15821,258.74634L545.67828,258.50631L545.43832,258.02626
				L544.95839,257.78624L544.47846,257.30619L543.99853,257.06616L543.51861,257.06616L542.79871,256.82614L542.55875,256.58612
				L542.07882,256.34609L540.879,256.34609L540.39907,256.34609L539.91914,256.34609L539.19925,256.10607L538.47936,255.86604L538.2394,255.62602
				L537.27954,255.14597L537.03958,254.90594L536.55965,254.90594L536.07972,254.90594L534.8799,255.14597L534.39997,255.14597L
				533.92004,255.38599L532.96019,255.38599L532.48026,255.62602L532.00033,255.62602L531.5204,255.62602L531.28044,255.62602L530.80051,255.62602
				L530.32058,255.86604L530.08062,255.86604L529.36073,255.62602L528.8808,255.62602L528.40087,255.62602L527.92094,255.38599L
				527.44101,255.38599L526.96109,255.14597L526.48116,254.66592L526.24119,254.66592L526.00123,254.66592L525.28134,254.4259L524.80141,254.18587
				L524.80141,253.70582L524.56144,253.22577L524.32148,252.26568L524.08152,251.78563L524.08152,251.5456L523.84155,251.06555L
				523.36162,250.58551L522.8817,250.34548L522.40177,250.34548L521.44191,250.10546L520.96198,249.86543L520.48206,249.62541L519.5222,249.14536
				L519.28224,249.14536L517.84245,248.90533L516.88259,248.42529L515.92274,247.94524L515.20285,246.98514L514.24299,246.02504
				L513.04317,245.30497L512.80321,245.06494L511.84335,244.82492L510.40356,244.58489L509.20374,244.34487L508.00392,243.86482
				L507.524,243.14475L506.56414,241.46458L505.12436,241.22455L502.96468,240.7445L500.08511,240.98453L497.92543,241.7046L496.24569,240.98453
				L494.8059,240.26445L493.60608,239.78441L492.64622,239.54438L490.72651,239.78441L489.76666,239.30436L488.56683,238.34426L
				486.88709,237.38416L486.16719,237.14414L484.96737,237.38416L483.76755,236.90411L481.36791,235.46397L481.12795,235.22394L
				477.76845,232.8237L474.16899,230.9035L472.96917,230.42345L471.76935,229.9434L470.56953,229.46336L470.32957,229.70338L469.12975,229.70338
				L467.68996,230.18343L466.01021,230.9035L465.05036,231.8636L464.33046,233.06372L463.85054,233.06372L462.89068,233.30375L461.93082,233.30375
				L460.97097,232.8237L460.49104,232.8237L459.05126,233.06372L458.0914,233.7838L456.65161,234.50387L455.45179,235.70399L453.53208,236.90411
				L452.57223,237.62419L451.85233,237.62419L450.89248,237.38416L449.45269,236.90411L448.01291,236.90411L446.57312,237.14414
				L444.89338,237.38416L443.21363,237.14414L441.77384,236.42406L440.09409,235.70399L438.41435,234.74389L436.0147,233.06372L
				435.29481,232.34365L434.09499,231.38355L432.65521,230.42345L430.49553,229.9434L428.09589,229.22333L426.41614,228.74328L423.53657,228.26323
				L421.61686,227.54316L419.21722,226.10301L417.53747,226.10301L416.57762,225.38294L415.85772,224.90289L413.93801,224.42284
				L412.49823,224.42284L414.41794,223.22272L415.3778,222.50265L416.57762,221.54255L417.77744,220.82248L418.73729,220.1024L418.97726,219.86238
				L418.73729,218.66226L419.21722,217.70216L419.93711,216.74206L420.657,215.54194L420.17708,214.34182L420.41704,213.38172L421.13693,212.66165
				L422.33675,212.1816L423.05665,211.46152L423.53657,210.50143L423.53657,209.3013L424.25647,207.86116L425.45629,207.14108L425.93621,206.66103
				L426.89607,205.94096L427.376,204.74084L429.29571,203.78074L434.81488,201.14047L439.3742,198.98025L442.25377,197.54011L443.69355,196.82003
				L445.13334,196.09996L445.61327,195.85994L448.25287,194.65981L453.29212,192.01954L454.49194,191.5395L455.93172,190.81942L
				456.89158,190.09935L458.33136,188.41918L459.05126,187.21906L459.53118,186.49898L460.25108,185.53888L461.69086,184.81881L
				463.13064,183.85871L466.01021,182.65859L467.92993,182.17854L469.60967,181.69849L469.84964,181.45847L470.56953,181.21845L
				472.48924,179.29825L473.4491,178.33815L475.12885,177.61808L475.36881,177.37805L475.84874,177.13803L476.32867,177.13803L477.28852,176.65798
				L478.72831,176.89801L482.08781,179.29825L483.76755,179.29825L484.24748,179.29825L484.72741,179.05823L485.20734,178.8182L
				486.16719,177.37805L486.88709,175.93791L487.84694,174.73779L489.28673,173.77769L490.72651,171.85749L493.36612,169.21722L
				494.56594,168.0171L495.76576,167.057L499.12525,166.81698L500.32507,166.33693L501.04497,166.09691L504.40446,165.85688L505.60428,165.37683
				L505.84425,165.13681L506.56414,164.41673L507.524,163.21661L508.00392,161.29642L508.72382,159.61625L509.44371,159.37622L510.40356,159.37622
				L512.80321,160.33632L514.00303,160.33632L516.1627,158.89617L517.12256,158.65615L517.84245,158.65615L520.72202,158.89617L
				521.68188,159.61625L522.1618,159.61625L522.64173,159.61625L523.84155,159.61625L524.32148,159.85627L524.80141,160.0963L525.76126,160.57634
				L526.24119,160.81637L526.96109,161.05639L527.68098,161.05639L528.16091,161.05639L528.8808,160.81637L529.60069,160.81637L
				530.56055,161.29642L531.28044,161.53644L531.76037,162.01649L532.48026,162.25652L532.96019,162.49654L533.68008,162.97659L
				533.92004,163.45664L534.16001,164.65676L533.92004,165.37683L537.03958,166.81698L537.75947,167.057L538.2394,167.29703L538.71932,167.53705
				L539.91914,168.49715L541.11897,169.69727L541.83886,170.41735L542.31879,170.89739L543.03868,171.37744L543.75857,171.85749
				L544.2385,172.09752L544.71843,172.57757L544.95839,172.57757z"/>
			<path clip-path="url(#SVG_CP_1)" fill="#73B273" fill-rule="evenodd" stroke="#000000" stroke-width="0.95986" stroke-miterlimit="10" stroke-linecap="round" stroke-linejoin="round" d="
				M543.99853,257.06616L543.99853,259.94646L543.75857,260.42651L543.51861,260.66653L543.03868,260.90656L541.83886,261.62663
				L540.879,261.86665L540.63904,262.10668L538.47936,262.82675L537.99943,263.06678L535.35983,264.2669L534.39997,264.74695L533.68008,264.98697
				L532.72022,265.94707L532.24029,266.66714L532.00033,266.90717L531.28044,267.86726L530.56055,268.34731L529.36073,269.30741
				L528.40087,270.50753L526.96109,271.22761L526.72112,271.70766L526.72112,273.1478L526.72112,275.30802L526.48116,275.78807L
				525.28134,276.98819L525.04137,277.46824L525.04137,277.94829L525.28134,279.86849L525.5213,280.58856L525.76126,281.06861L526.00123,281.54866
				L526.96109,282.74878L527.68098,283.70888L528.16091,284.18893L528.8808,286.10912L529.12076,286.82919L529.12076,288.26934L
				529.12076,288.50937L529.12076,288.74939L528.8808,289.70949L528.40087,290.42956L527.92094,291.38966L527.68098,291.38966L527.68098,291.62968
				L527.44101,292.34976L527.20105,293.7899L525.76126,295.95012L525.5213,296.43017L525.04137,297.63029L524.80141,297.63029L524.56144,299.55049
				L524.32148,300.51059L524.32148,300.75061L524.08152,301.71071L523.60159,303.6309L523.60159,304.11095L522.8817,303.87093L522.40177,303.87093
				L521.44191,304.35098L519.28224,304.35098L518.32238,303.87093L517.84245,304.83103L517.36252,306.03115L515.92274,307.23127
				L514.72292,308.91144L513.5231,310.11156L512.56324,311.31169L512.08331,311.79173L511.12346,312.51181L509.68367,313.23188L
				508.96378,314.19198L508.72382,315.15208L508.72382,316.11217L508.48385,316.3522L508.48385,316.83225L507.28403,317.3123L505.12436,317.79235
				L503.20464,317.55232L502.72471,317.55232L501.04497,316.59222L499.60518,316.11217L498.1654,315.3921L497.20554,314.19198L496.96558,313.47191
				L496.72561,312.99186L496.48565,312.51181L496.00572,311.79173L494.08601,309.87154L493.12615,308.67142L492.64622,307.23127
				L492.1663,306.75122L491.20644,305.79112L488.56683,305.07105L487.12705,304.591L483.04766,304.35098L479.20824,303.15086L478.48834,303.15086
				L477.04856,302.67081L476.56863,301.95073L476.0887,300.99064L475.36881,299.79051L474.64892,299.31046L474.64892,299.55049L
				473.92903,299.79051L473.68906,299.79051L471.04946,300.51059L469.12975,301.71071L467.45,302.19076L466.49014,302.91083L464.33046,303.87093
				L463.37061,305.07105L463.13064,305.31108L462.89068,305.5511L460.49104,307.4713L459.05126,308.67142L457.85143,309.63151L457.37151,310.35159
				L456.41165,310.83164L454.49194,311.55171L450.89248,311.79173L449.93262,312.03176L448.7328,312.03176L447.77294,312.03176L
				447.05305,311.79173L446.81309,312.03176L445.61327,311.79173L444.17348,311.79173L443.45359,311.79173L443.21363,312.03176L
				442.49373,312.27178L441.05395,313.23188L440.09409,313.71193L438.89427,314.19198L437.93442,314.19198L434.57492,315.63213L
				433.61506,315.15208L432.65521,314.19198L432.17528,313.47191L431.21542,312.75183L428.09589,311.31169L424.0165,310.83164L422.09679,310.11156
				L421.13693,309.87154L420.17708,309.63151L419.21722,308.91144L418.25736,308.67142L417.77744,308.67142L416.33765,308.67142
				L414.89787,308.19137L414.17798,307.71132L411.77833,307.23127L409.61866,306.03115L409.37869,305.79112L406.25916,304.83103
				L406.0192,304.83103L406.25916,303.87093L406.25916,302.91083L406.25916,301.95073L406.25916,300.03054L406.0192,298.83042L405.77923,295.7101
				L406.49913,294.50998L406.97905,294.50998L408.17887,293.30985L408.41884,292.58978L408.89877,291.38966L408.6588,289.22944L
				408.6588,288.74939L409.13873,287.30924L409.13873,287.06922L409.13873,286.34915L408.6588,285.62907L408.6588,284.66897L408.89877,283.70888
				L408.6588,283.22883L408.17887,282.50875L407.69895,282.26873L407.45898,281.30863L406.97905,280.34853L406.0192,279.86849L405.53927,279.38844
				L404.81938,277.46824L404.81938,276.98819L405.2993,276.26812L405.05934,275.30802L404.81938,274.34792L404.81938,273.38783L
				404.81938,272.42773L405.05934,271.70766L406.73909,270.26751L407.45898,269.54744L407.69895,268.34731L407.69895,266.42712L
				407.69895,265.227L408.17887,263.54682L408.17887,262.3467L408.6588,261.3866L408.17887,260.90656L408.17887,260.18648L408.41884,257.54621
				L408.89877,255.14597L408.89877,254.18587L408.89877,253.22577L408.89877,252.98575L409.37869,251.5456L409.61866,250.34548L
				409.85862,249.62541L410.09859,249.38538L410.81848,248.90533L411.53837,248.18526L412.0183,247.46519L412.0183,246.50509L412.25826,244.82492
				L412.49823,242.18465L412.73819,239.30436L412.97815,237.86421L413.21812,237.62419L413.21812,237.14414L413.45808,234.50387
				L414.41794,232.34365L415.3778,231.62358L415.85772,230.9035L416.33765,229.70338L416.33765,229.46336L416.33765,228.74328L416.81758,227.78318
				L417.05754,226.82309L417.53747,226.10301L419.21722,226.10301L421.61686,227.54316L423.53657,228.26323L426.41614,228.74328
				L428.09589,229.22333L430.49553,229.9434L432.65521,230.42345L434.09499,231.38355L435.29481,232.34365L436.0147,233.06372L438.41435,234.74389
				L440.09409,235.70399L441.77384,236.42406L443.21363,237.14414L444.89338,237.38416L446.57312,237.14414L448.01291,236.90411
				L449.45269,236.90411L450.89248,237.38416L451.85233,237.62419L452.57223,237.62419L453.53208,236.90411L455.45179,235.70399
				L456.65161,234.50387L458.0914,233.7838L459.05126,233.06372L460.49104,232.8237L460.97097,232.8237L461.93082,233.30375L462.89068,233.30375
				L463.85054,233.06372L464.33046,233.06372L465.05036,231.8636L466.01021,230.9035L467.68996,230.18343L469.12975,229.70338L470.32957,229.70338
				L470.56953,229.46336L471.76935,229.9434L472.96917,230.42345L474.16899,230.9035L477.76845,232.8237L481.12795,235.22394L481.36791,235.46397
				L483.76755,236.90411L484.96737,237.38416L486.16719,237.14414L486.88709,237.38416L488.56683,238.34426L489.76666,239.30436
				L490.72651,239.78441L492.64622,239.54438L493.60608,239.78441L494.8059,240.26445L496.24569,240.98453L497.92543,241.7046L500.08511,240.98453
				L502.96468,240.7445L505.12436,241.22455L506.56414,241.46458L507.524,243.14475L508.00392,243.86482L509.20374,244.34487L510.40356,244.58489
				L511.84335,244.82492L512.80321,245.06494L513.04317,245.30497L514.24299,246.02504L515.20285,246.98514L515.92274,247.94524
				L516.88259,248.42529L517.84245,248.90533L519.28224,249.14536L519.5222,249.14536L520.48206,249.62541L520.96198,249.86543L
				521.44191,250.10546L522.40177,250.34548L522.8817,250.34548L523.36162,250.58551L523.84155,251.06555L524.08152,251.5456L524.08152,251.78563
				L524.32148,252.26568L524.56144,253.22577L524.80141,253.70582L524.80141,254.18587L525.28134,254.4259L526.00123,254.66592L
				526.24119,254.66592L526.48116,254.66592L526.96109,255.14597L527.44101,255.38599L527.92094,255.38599L528.40087,255.62602L
				528.8808,255.62602L529.36073,255.62602L530.08062,255.86604L530.32058,255.86604L530.80051,255.62602L531.28044,255.62602L531.5204,255.62602
				L532.00033,255.62602L532.48026,255.62602L532.96019,255.38599L533.92004,255.38599L534.39997,255.14597L534.8799,255.14597L
				536.07972,254.90594L536.55965,254.90594L537.03958,254.90594L537.27954,255.14597L538.2394,255.62602L538.47936,255.86604L539.19925,256.10607
				L539.91914,256.34609L540.39907,256.34609L540.879,256.34609L542.07882,256.34609L542.55875,256.58612L542.79871,256.82614L543.51861,257.06616
				L543.99853,257.06616z"/>
			<path clip-path="url(#SVG_CP_1)" fill="#73B273" fill-rule="evenodd" stroke="#000000" stroke-width="0.95986" stroke-miterlimit="10" stroke-linecap="round" stroke-linejoin="round" d="
				M435.77474,156.49593L436.0147,158.65615L435.53478,159.1362L434.09499,160.57634L435.05485,161.53644L435.53478,162.73656L435.53478,163.69666
				L434.09499,165.85688L432.89517,165.85688L432.65521,165.85688L432.65521,166.33693L432.65521,166.57695L430.97546,165.85688
				L429.53568,165.85688L428.33585,165.85688L427.376,165.61686L426.17618,165.85688L425.21632,166.57695L424.0165,167.29703L423.77654,168.49715
				L424.73639,170.41735L424.97636,172.81759L425.45629,174.25774L425.45629,174.73779L425.69625,175.93791L425.69625,176.17793
				L425.93621,177.8581L426.17618,179.53827L426.65611,180.25835L428.09589,180.49837L429.29571,180.49837L430.7355,180.01832L432.41524,180.49837
				L434.33496,181.21845L435.53478,182.17854L436.25467,183.85871L436.7346,185.05884L437.45449,186.01893L438.41435,186.73901L
				438.89427,187.21906L438.89427,188.41918L439.13424,189.85932L439.85413,191.29947L441.29391,192.49959L442.25377,194.17976L
				443.21363,195.61991L443.69355,196.82003L442.25377,197.54011L439.3742,198.98025L434.81488,201.14047L429.29571,203.78074L427.376,204.74084
				L426.89607,205.94096L425.93621,206.66103L425.45629,207.14108L424.25647,207.86116L423.53657,209.3013L423.53657,210.50143L
				423.05665,211.46152L422.33675,212.1816L421.13693,212.66165L420.41704,213.38172L420.17708,214.34182L420.657,215.54194L419.93711,216.74206
				L419.21722,217.70216L418.73729,218.66226L418.97726,219.86238L418.73729,220.1024L417.77744,220.82248L416.57762,221.54255L
				415.3778,222.50265L414.41794,223.22272L412.49823,224.42284L411.53837,224.42284L410.81848,224.18282L409.13873,223.94279L408.41884,224.18282
				L407.21902,224.42284L406.49913,225.14292L405.77923,225.38294L404.33945,225.14292L403.37959,224.90289L401.45988,225.14292
				L399.3002,225.86299L396.6606,226.10301L395.94071,226.34304L394.74089,226.34304L392.34125,226.10301L391.14142,226.58306L389.46168,227.06311
				L386.58211,227.54316L385.14232,227.54316L382.26275,227.30314L382.02279,227.30314L381.78283,225.86299L381.78283,225.14292
				L381.78283,223.94279L381.78283,223.22272L381.3029,221.30252L381.3029,219.62235L381.54286,218.42223L381.54286,218.18221L382.02279,216.74206
				L382.26275,216.02199L382.98265,215.30191L383.22261,214.34182L383.70254,213.38172L384.18247,212.1816L385.14232,210.74145L
				385.86222,208.58123L386.34214,207.86116L387.06204,206.18099L387.302,204.98086L386.82207,203.54072L387.302,202.82064L388.50182,200.90045
				L388.74178,199.94035L387.78193,198.5002L387.06204,197.54011L386.82207,197.30008L385.86222,196.58001L384.42243,195.37989L
				383.46257,194.17976L382.98265,193.69972L382.98265,192.01954L382.98265,190.09935L383.46257,189.6193L383.46257,188.41918L383.46257,187.45908
				L383.46257,186.25896L383.46257,185.29886L383.46257,184.81881L383.46257,184.57879L383.9425,183.61869L384.6624,182.89862L384.90236,178.57818
				L384.6624,176.89801L384.18247,175.21783L384.6624,173.77769L384.42243,171.13742L384.42243,170.89739L383.46257,167.057L382.26275,165.37683
				L380.82297,162.25652L380.82297,162.01649L379.86311,161.05639L379.38319,158.89617L378.66329,155.29581L377.9434,151.93546L
				376.50362,148.57512L375.3038,145.4548L373.62405,141.85444L374.82387,141.37439L376.26365,141.13437L378.18337,141.37439L379.86311,141.37439
				L380.58301,141.13437L381.78283,140.89434L382.74268,140.89434L384.42243,141.13437L385.62225,141.61441L387.54196,142.09446
				L389.46168,143.05456L391.14142,143.77463L392.82117,144.25468L394.02099,145.21478L395.94071,147.13498L397.62045,149.05517
				L399.06024,149.77524L399.54017,150.01527L402.6597,149.77524L403.37959,149.77524L404.81938,149.77524L405.2993,149.77524L408.17887,149.53522
				L410.57851,149.2952L412.25826,148.81515L413.69805,148.3351L414.41794,147.61502L414.6579,146.65493L414.17798,144.25468L413.93801,143.05456
				L413.45808,141.37439L413.45808,140.17427L413.69805,139.21417L414.41794,137.77402L415.13783,135.6138L416.57762,133.93363L
				417.29751,133.21356L418.49733,132.73351L419.21722,132.73351L422.09679,132.25346L424.49643,131.53339L426.17618,130.57329L
				426.89607,129.61319L427.376,129.13314L427.85593,128.65309L428.09589,128.41307L428.57582,128.65309L429.05575,128.65309L429.77564,128.89312
				L430.25557,129.13314L430.25557,129.61319L430.25557,130.09324L429.77564,131.77341L429.05575,133.69361L428.57582,134.65371
				L428.09589,136.81393L426.65611,138.73412L426.41614,140.65432L425.45629,142.33449L425.21632,143.29459L424.97636,144.25468
				L424.97636,145.21478L425.21632,145.4548L425.21632,145.69483L425.21632,146.4149L425.45629,146.17488L426.17618,148.09507L427.13603,150.25529
				L427.61596,151.45542L428.33585,152.41551L428.57582,152.65554L429.29571,153.61564L430.0156,154.09568L430.97546,154.81576L
				432.17528,155.29581L432.89517,155.53583L433.13514,155.77586L434.09499,155.77586L434.81488,156.2559L435.29481,156.2559L435.77474,156.49593
				z"/>
			<path clip-path="url(#SVG_CP_1)" fill="#73B273" fill-rule="evenodd" stroke="#000000" stroke-width="0.95986" stroke-miterlimit="10" stroke-linecap="round" stroke-linejoin="round" d="
				M475.84874,177.13803L475.36881,177.37805L475.12885,177.61808L473.4491,178.33815L472.48924,179.29825L470.56953,181.21845L
				469.84964,181.45847L469.60967,181.69849L467.92993,182.17854L466.01021,182.65859L463.13064,183.85871L461.69086,184.81881L
				460.25108,185.53888L459.53118,186.49898L459.05126,187.21906L458.33136,188.41918L456.89158,190.09935L455.93172,190.81942L
				454.49194,191.5395L453.29212,192.01954L448.25287,194.65981L445.61327,195.85994L445.13334,196.09996L443.69355,196.82003L443.21363,195.61991
				L442.25377,194.17976L441.29391,192.49959L439.85413,191.29947L439.13424,189.85932L438.89427,188.41918L438.89427,187.21906
				L438.41435,186.73901L437.45449,186.01893L436.7346,185.05884L436.25467,183.85871L435.53478,182.17854L434.33496,181.21845L
				432.41524,180.49837L430.7355,180.01832L429.29571,180.49837L428.09589,180.49837L426.65611,180.25835L426.17618,179.53827L425.93621,177.8581
				L425.69625,176.17793L425.69625,175.93791L425.45629,174.73779L425.45629,174.25774L424.97636,172.81759L424.73639,170.41735
				L423.77654,168.49715L424.0165,167.29703L425.21632,166.57695L426.17618,165.85688L427.376,165.61686L428.33585,165.85688L429.53568,165.85688
				L430.97546,165.85688L432.65521,166.57695L432.65521,166.33693L432.65521,165.85688L432.89517,165.85688L434.09499,165.85688
				L435.53478,163.69666L435.53478,162.73656L435.05485,161.53644L434.09499,160.57634L435.53478,159.1362L436.0147,158.65615L435.77474,156.49593
				L436.0147,156.49593L437.93442,157.45603L439.61417,157.93608L440.81399,157.93608L441.05395,157.93608L442.01381,158.1761L442.97366,158.41612
				L443.45359,158.65615L444.17348,158.89617L447.05305,159.37622L450.89248,161.29642L451.85233,161.77647L454.25197,163.45664
				L457.13154,165.61686L459.29122,166.81698L460.731,167.29703L462.65072,167.77708L465.05036,168.9772L466.25018,169.69727L466.97007,170.41735
				L467.92993,171.37744L469.60967,172.57757L473.20913,174.73779L474.88888,176.17793L475.36881,176.89801L475.84874,177.13803
				L475.84874,177.13803z"/>
			<path clip-path="url(#SVG_CP_1)" fill="#73B273" fill-rule="evenodd" stroke="#000000" stroke-width="0.95986" stroke-miterlimit="10" stroke-linecap="round" stroke-linejoin="round" d="
				M549.27774,167.29703L548.55785,167.77708L547.83796,168.0171L547.59799,168.25713L545.91825,171.37744L545.67828,171.85749L
				545.19835,172.57757L544.95839,172.57757L544.71843,172.57757L544.2385,172.09752L543.75857,171.85749L543.03868,171.37744L542.31879,170.89739
				L541.83886,170.41735L541.11897,169.69727L539.91914,168.49715L538.71932,167.53705L538.2394,167.29703L537.75947,167.057L537.03958,166.81698
				L533.92004,165.37683L534.16001,164.65676L533.92004,163.45664L533.68008,162.97659L532.96019,162.49654L532.48026,162.25652
				L531.76037,162.01649L531.28044,161.53644L530.56055,161.29642L529.60069,160.81637L528.8808,160.81637L528.16091,161.05639L
				527.68098,161.05639L526.96109,161.05639L526.24119,160.81637L525.76126,160.57634L524.80141,160.0963L524.32148,159.85627L523.84155,159.61625
				L522.64173,159.61625L522.1618,159.61625L521.68188,159.61625L520.72202,158.89617L517.84245,158.65615L517.12256,158.65615L
				516.1627,158.89617L514.00303,160.33632L512.80321,160.33632L510.40356,159.37622L509.44371,159.37622L508.72382,159.61625L508.00392,161.29642
				L507.524,163.21661L506.56414,164.41673L505.84425,165.13681L505.60428,165.37683L504.40446,165.85688L501.04497,166.09691L500.32507,166.33693
				L499.12525,166.81698L495.76576,167.057L494.56594,168.0171L493.36612,169.21722L490.72651,171.85749L489.28673,173.77769L487.84694,174.73779
				L486.88709,175.93791L486.16719,177.37805L485.20734,178.8182L484.72741,179.05823L484.24748,179.29825L483.76755,179.29825L
				482.08781,179.29825L478.72831,176.89801L477.28852,176.65798L476.32867,177.13803L475.84874,177.13803L475.36881,176.89801L
				474.88888,176.17793L473.20913,174.73779L469.60967,172.57757L467.92993,171.37744L466.97007,170.41735L466.25018,169.69727L
				465.05036,168.9772L462.65072,167.77708L460.731,167.29703L459.29122,166.81698L457.13154,165.61686L454.25197,163.45664L451.85233,161.77647
				L450.89248,161.29642L447.05305,159.37622L444.17348,158.89617L443.45359,158.65615L442.97366,158.41612L442.01381,158.1761L
				441.05395,157.93608L440.81399,157.93608L439.61417,157.93608L437.93442,157.45603L436.0147,156.49593L435.77474,156.49593L435.29481,156.2559
				L434.81488,156.2559L434.09499,155.77586L433.13514,155.77586L432.89517,155.53583L432.17528,155.29581L430.97546,154.81576L
				430.0156,154.09568L429.29571,153.61564L428.57582,152.65554L428.33585,152.41551L427.61596,151.45542L427.13603,150.25529L426.17618,148.09507
				L425.45629,146.17488L425.21632,146.4149L425.21632,145.69483L425.21632,145.4548L424.97636,145.21478L424.97636,144.25468L425.21632,143.29459
				L425.45629,142.33449L426.41614,140.65432L426.65611,138.73412L428.09589,136.81393L428.57582,134.65371L429.05575,133.69361
				L429.77564,131.77341L430.25557,130.09324L430.25557,129.61319L430.25557,129.13314L429.77564,128.89312L429.05575,128.65309
				L428.57582,128.65309L428.09589,128.41307L428.57582,127.693L429.29571,127.693L430.97546,127.693L432.17528,128.65309L432.65521,129.37317
				L433.85503,130.81331L435.53478,133.45358L436.97456,135.13375L438.65431,135.85383L441.05395,135.6138L442.7337,134.89373L443.45359,134.65371
				L445.85323,133.93363L446.81309,133.69361L447.77294,133.45358L448.25287,133.45358L448.97276,132.97353L450.89248,132.01344
				L451.85233,131.05334L453.05215,130.57329L454.01201,130.09324L455.45179,128.65309L456.89158,127.45297L458.0914,126.25285L
				459.29122,124.8127L460.731,123.37256L460.97097,122.89251L461.93082,122.65248L462.89068,121.93241L464.0905,121.21234L465.53028,119.77219
				L466.97007,118.57207L467.92993,117.61197L469.84964,116.17182L471.76935,114.9717L473.4491,113.53156L474.64892,113.53156L475.60878,113.05151
				L476.56863,112.09141L477.52849,111.13131L478.48834,110.17121L479.92813,108.97109L481.60788,107.77097L482.56773,107.29092
				L484.72741,106.57085L485.68727,106.0908L487.12705,105.37073L488.8068,104.41063L490.96648,103.21051L491.92633,102.49043L493.12615,101.77036
				L495.04586,100.09019L495.52579,99.61014L496.24569,99.13009L497.92543,97.92997L500.32507,96.96987L502.00482,96.00977L502.72471,95.52972
				L503.92454,94.80965L505.84425,94.56963L507.524,93.60953L509.20374,92.16938L511.12346,90.48921L511.84335,89.28909L512.56324,88.56902
				L513.76306,88.08897L514.72292,87.60892L515.68277,86.4088L516.64263,84.72862L518.08241,82.32838L519.04227,80.40818L519.76216,78.72801
				L520.00213,78.48799L520.48206,77.28787L521.20195,76.08774L522.1618,75.36767L522.8817,75.12765L523.36162,74.40757L525.28134,76.56779
				L527.44101,78.48799L529.36073,79.68811L530.56055,80.64821L531.28044,81.12826L531.76037,82.5684L531.76037,83.5285L532.00033,86.4088
				L531.5204,88.08897L531.04047,90.00916L531.28044,91.44931L532.00033,93.60953L532.48026,95.2897L532.72022,97.20989L532.72022,99.13009
				L532.72022,101.29031L532.48026,103.45053L532.24029,105.1307L532.24029,107.29092L532.72022,109.69116L533.44011,111.37134L
				534.16001,113.77158L534.39997,114.73168L534.39997,115.45175L534.63994,117.13192L535.35983,118.33204L535.35983,119.77219L
				535.11986,121.69239L534.63994,122.65248L534.39997,123.61258L533.44011,125.29275L532.96019,126.25285L532.24029,127.93302L
				531.76037,129.37317L531.5204,130.81331L531.5204,132.25346L531.76037,133.69361L531.28044,135.13375L530.32058,137.05395L529.36073,138.73412
				L528.16091,140.17427L527.92094,140.89434L526.48116,141.85444L525.76126,142.33449L526.96109,143.29459L528.8808,144.01466L
				530.56055,144.97476L532.00033,146.4149L534.16001,147.85505L535.83976,148.81515L537.5195,150.49532L538.47936,151.45542L540.15911,152.65554
				L541.59889,154.33571L543.27864,156.01588L543.75857,156.73595L544.95839,156.73595L546.15821,157.69605L547.11807,159.1362L
				548.07792,160.57634L547.83796,162.01649L548.31789,163.45664L549.27774,164.89678L549.03778,166.09691L549.27774,167.29703z
				"/>
			<path clip-path="url(#SVG_CP_1)" fill="#73B273" fill-rule="evenodd" stroke="#000000" stroke-width="0.95986" stroke-miterlimit="10" stroke-linecap="round" stroke-linejoin="round" d="
				M601.82987,19.92203L602.06984,20.16205L603.26966,20.40208L604.46948,21.12215L605.42933,21.36217L606.38919,22.08225L607.58901,22.5623
				L608.54887,23.04235L608.3089,23.76242L608.06894,24.72252L607.58901,25.92264L607.10908,26.16266L607.10908,26.64271L607.10908,26.88274
				L607.34905,27.12276L607.58901,28.32288L608.3089,30.00305L609.26876,32.64332L609.26876,32.88335L609.50872,34.08347L609.98865,34.80354
				L609.74869,35.52362L609.50872,35.76364L609.50872,36.24369L609.26876,36.96376L609.26876,37.68384L609.0288,38.40391L609.0288,39.36401
				L609.0288,39.60403L609.0288,40.08408L608.54887,41.04418L608.3089,41.52423L607.82897,42.72435L607.58901,43.44442L607.10908,44.1645
				L607.10908,44.40452L606.86912,45.36462L607.58901,47.76486L607.34905,48.00489L607.82897,48.72496L608.3089,48.72496L609.0288,48.72496
				L609.26876,49.44503L608.78883,50.16511L609.0288,50.64516L609.26876,51.1252L610.46858,51.60525L610.94851,51.84528L612.62826,53.52545
				L612.86822,53.52545L613.58811,53.76547L614.78793,54.0055L615.26786,54.0055L615.74779,54.48555L615.98775,54.72557L616.46768,55.44564
				L616.94761,55.92569L617.6675,56.40574L618.14743,56.88579L618.38739,57.12581L618.62736,57.60586L618.38739,58.08591L617.90747,58.56596
				L616.94761,59.04601L616.94761,59.28603L616.94761,59.52606L616.70765,60.00611L616.70765,60.72618L616.70765,61.44625L617.90747,63.8465
				L618.14743,64.8066L619.34725,65.52667L619.10729,66.48677L619.10729,66.96682L619.34725,67.68689L620.78703,69.36706L620.78703,69.60709
				L621.98685,71.52728L622.22682,71.76731L624.3865,73.6875L624.62646,74.40757L625.10639,75.12765L625.58632,75.36767L626.30621,75.84772
				L626.78614,76.08774L627.50603,76.32777L627.98596,76.32777L628.70585,76.08774L629.42574,75.84772L630.14563,75.36767L631.34545,74.40757
				L631.82538,74.16755L632.30531,74.16755L633.26517,74.40757L634.94491,75.36767L635.18488,75.6077L635.18488,76.08774L635.42484,76.08774
				L635.42484,76.56779L635.42484,77.28787L635.42484,78.24796L635.66481,78.72801L636.14473,79.20806L636.3847,79.92814L636.14473,80.40818
				L635.42484,81.36828L634.94491,81.84833L635.18488,82.08836L635.42484,83.28848L636.3847,84.72862L636.62466,85.4487L636.3847,86.4088
				L636.62466,86.64882L636.62466,87.60892L636.86463,88.08897L637.58452,88.32899L638.06445,88.56902L638.78434,89.28909L640.70405,91.92936
				L640.94402,92.40941L641.42394,92.88945L642.62376,93.3695L645.26337,93.3695L646.22323,93.60953L647.18308,94.08958L647.90297,94.80965
				L650.30261,96.00977L651.02251,96.96987L651.50243,97.44992L651.98236,98.16999L652.22233,98.16999L652.46229,98.65004L652.70225,99.13009
				L652.70225,99.85016L652.70225,101.53033L652.22233,102.25041L651.50243,102.97048L651.26247,103.45053L651.26247,104.41063L
				651.26247,104.65065L651.26247,105.85077L651.7424,106.57085L652.46229,107.53095L652.70225,108.25102L652.70225,108.73107L652.46229,109.21112
				L651.26247,110.41124L651.02251,111.13131L651.7424,112.33143L652.46229,112.81148L652.46229,113.05151L653.66211,113.53156L
				655.1019,113.77158L656.30172,114.25163L658.22143,114.49165L659.18128,114.73168L659.90118,115.21173L660.14114,115.45175L660.86103,116.41185
				L661.34096,116.8919L662.06085,117.61197L663.02071,118.09202L663.26067,119.29214L663.26067,120.73229L663.02071,120.97231L
				663.02071,121.21234L662.78075,121.45236L662.54078,121.69239L662.54078,121.93241L661.82089,122.41246L661.58093,122.65248L
				660.62107,123.85261L660.3811,124.09263L659.42125,125.53278L659.18128,126.25285L658.46139,126.97292L658.46139,127.45297L658.94132,128.41307
				L659.18128,128.65309L659.90118,129.13314L660.62107,129.85322L660.86103,129.85322L661.101,130.57329L660.86103,132.01344L660.86103,132.49349
				L660.86103,133.45358L661.58093,134.41368L662.30082,134.89373L663.26067,135.6138L663.26067,136.33388L663.50064,137.77402L
				663.98057,138.4941L663.98057,138.73412L663.98057,138.97415L663.98057,139.93424L663.7406,140.41429L663.7406,140.65432L663.26067,141.37439
				L663.02071,141.61441L662.78075,141.85444L662.54078,143.05456L662.54078,143.29459L662.54078,143.53461L662.54078,144.49471
				L662.54078,145.93485L662.54078,146.4149L662.78075,146.89495L662.78075,147.61502L662.54078,148.3351L662.30082,148.57512L661.58093,149.2952
				L661.82089,150.25529L661.82089,150.49532L662.06085,151.21539L662.30082,151.45542L662.78075,151.69544L664.46049,152.41551
				L664.70046,152.65554L664.94042,153.13559L664.94042,153.61564L664.94042,154.81576L665.42035,156.01588L665.18039,157.216L665.18039,157.45603
				L665.66031,157.93608L666.62017,158.65615L666.86013,158.89617L666.86013,159.37622L667.81999,160.0963L669.01981,160.81637L
				669.01981,161.05639L669.7397,161.53644L670.4596,162.25652L670.93952,162.49654L671.65942,162.49654L672.13934,162.73656L672.85924,163.21661
				L672.85924,163.45664L673.0992,163.69666L673.0992,164.41673L673.33916,164.41673L673.33916,165.13681L674.05906,166.81698L674.05906,168.49715
				L674.05906,168.9772L674.53898,169.45725L675.25888,169.69727L675.7388,169.69727L676.93863,169.45725L677.89848,168.9772L678.13845,168.9772
				L678.61837,169.69727L678.85834,170.17732L679.0983,170.65737L679.0983,170.89739L678.61837,171.61747L677.65852,173.53766L676.93863,174.49776
				L676.69866,174.97781L676.21873,176.17793L675.97877,176.89801L675.01891,177.8581L674.77895,178.09813L674.53898,178.33815L
				674.53898,178.8182L674.77895,179.53827L674.77895,180.01832L674.53898,180.49837L673.57913,181.45847L672.13934,182.41857L671.89938,182.41857
				L671.17949,182.65859L670.93952,182.89862L670.69956,182.89862L670.21963,183.13864L669.97967,183.37866L669.25978,183.85871
				L668.53988,184.81881L668.29992,185.29886L667.81999,186.49898L667.58003,188.41918L667.58003,189.13925L667.34006,189.6193L
				666.38021,190.5794L665.66031,191.29947L664.70046,193.45969L663.98057,194.41979L663.98057,194.65981L664.46049,194.89984L664.46049,195.85994
				L664.46049,197.30008L664.22053,197.54011L663.98057,198.5002L663.7406,199.22028L663.7406,198.5002L663.98057,197.30008L663.7406,196.33998
				L663.26067,195.13986L663.02071,194.65981L662.54078,194.41979L662.54078,194.17976L661.82089,193.45969L661.58093,192.97964
				L661.34096,192.49959L661.101,192.01954L660.62107,191.77952L660.14114,191.29947L659.66121,191.05945L659.42125,190.5794L659.18128,190.09935
				L658.94132,189.6193L658.70136,189.13925L658.22143,188.17915L657.98146,187.6991L657.50154,187.21906L657.02161,186.25896L656.78164,185.77891
				L656.54168,185.29886L655.58182,184.33876L655.34186,184.09874L654.86193,183.85871L653.90208,183.61869L653.18218,183.61869
				L652.70225,183.37866L651.7424,183.13864L651.02251,183.13864L650.54258,182.65859L649.58272,182.41857L646.22323,180.97842L
				645.26337,179.05823L644.78344,177.8581L644.30351,177.37805L643.82358,177.13803L642.86373,176.65798L642.3838,176.41796L642.14384,175.93791
				L641.42394,175.21783L640.70405,174.49776L640.22412,174.01771L639.98416,173.77769L639.26427,173.05761L638.78434,172.81759
				L638.54438,172.33754L638.06445,172.09752L637.34455,171.85749L636.86463,171.61747L636.14473,171.61747L635.42484,172.09752
				L635.18488,172.33754L634.70495,172.33754L634.22502,172.81759L633.74509,173.53766L633.50513,174.01771L633.0252,174.73779L
				632.06535,175.21783L631.58542,175.45786L631.10549,175.69788L630.14563,176.17793L629.6657,176.41796L629.42574,176.89801L628.94581,177.37805
				L628.22592,177.61808L627.50603,177.61808L627.0261,177.61808L626.54617,177.8581L626.06624,178.09813L625.58632,178.8182L625.10639,179.05823
				L624.3865,179.53827L623.6666,179.53827L623.18667,179.53827L622.22682,179.29825L621.26696,178.8182L620.78703,178.57818L620.30711,178.57818
				L619.82718,178.8182L619.10729,179.05823L618.86732,179.29825L618.38739,179.53827L618.14743,179.53827L617.42754,179.53827L
				614.54797,178.57818L613.82808,178.8182L613.34815,178.8182L612.62826,178.57818L612.14833,178.09813L611.90836,177.61808L611.6684,177.13803
				L611.6684,176.65798L611.6684,175.93791L611.42844,175.21783L611.42844,174.49776L611.18847,174.01771L610.70854,173.53766L610.46858,173.05761
				L609.98865,173.05761L609.50872,172.57757L609.0288,172.09752L608.54887,171.61747L608.3089,171.13742L607.82897,169.9373L607.82897,169.21722
				L607.82897,168.49715L607.82897,167.29703L607.82897,166.57695L607.58901,166.09691L607.34905,165.85688L606.86912,165.13681
				L604.22951,163.21661L603.50962,164.41673L603.26966,164.41673L602.3098,164.65676L601.82987,164.65676L601.34995,164.41673L
				600.63005,164.17671L600.39009,163.93669L599.91016,163.45664L599.19027,163.45664L598.47038,163.45664L597.99045,163.69666L
				597.51052,164.17671L596.79063,164.41673L596.3107,164.41673L595.83077,164.17671L595.11088,164.17671L594.63095,163.69666L593.43113,163.45664
				L592.9512,163.45664L592.23131,163.45664L591.03149,163.69666L590.07163,163.93669L588.87181,164.17671L587.43203,164.65676L
				585.99224,162.73656L585.75228,162.25652L585.03239,161.77647L584.79242,161.53644L584.07253,161.29642L583.5926,161.05639L582.87271,161.05639
				L582.39278,161.05639L581.91286,161.05639L580.71304,161.05639L580.23311,161.05639L579.75318,161.05639L578.79332,161.05639
				L578.31339,161.29642L577.5935,161.53644L576.87361,161.77647L575.91375,162.25652L575.19386,162.49654L574.9539,162.49654L574.23401,162.49654
				L573.51411,162.49654L573.03419,162.49654L572.31429,162.25652L571.83437,162.01649L571.35444,161.77647L570.87451,161.53644
				L570.39458,161.29642L569.43472,160.81637L568.71483,160.33632L568.2349,160.33632L567.27505,159.85627L566.55516,159.61625L
				566.07523,159.61625L564.87541,159.1362L562.71573,158.65615L562.47577,158.65615L559.5962,159.61625L559.11627,159.85627L558.39638,160.0963
				L557.67649,160.57634L555.03688,162.01649L554.79692,162.25652L554.07702,162.97659L553.11717,163.45664L552.39728,163.69666
				L552.15731,164.17671L551.19746,165.37683L550.95749,165.85688L549.27774,167.29703L549.03778,166.09691L549.27774,164.89678
				L548.31789,163.45664L547.83796,162.01649L548.07792,160.57634L547.11807,159.1362L546.15821,157.69605L544.95839,156.73595L
				543.75857,156.73595L543.27864,156.01588L541.59889,154.33571L540.15911,152.65554L538.47936,151.45542L537.5195,150.49532L535.83976,148.81515
				L534.16001,147.85505L532.00033,146.4149L530.56055,144.97476L528.8808,144.01466L526.96109,143.29459L525.76126,142.33449L526.48116,141.85444
				L527.92094,140.89434L528.16091,140.17427L529.36073,138.73412L530.32058,137.05395L531.28044,135.13375L531.76037,133.69361
				L531.5204,132.25346L531.5204,130.81331L531.76037,129.37317L532.24029,127.93302L532.96019,126.25285L533.44011,125.29275L534.39997,123.61258
				L534.63994,122.65248L535.11986,121.69239L535.35983,119.77219L535.35983,118.33204L534.63994,117.13192L534.39997,115.45175
				L534.39997,114.73168L534.16001,113.77158L533.44011,111.37134L532.72022,109.69116L532.24029,107.29092L532.24029,105.1307L
				532.48026,103.45053L532.72022,101.29031L532.72022,99.13009L532.72022,97.20989L532.48026,95.2897L532.00033,93.60953L531.28044,91.44931
				L531.04047,90.00916L531.5204,88.08897L532.00033,86.4088L531.76037,83.5285L531.76037,82.5684L531.28044,81.12826L530.56055,80.64821
				L529.36073,79.68811L527.44101,78.48799L525.28134,76.56779L523.36162,74.40757L523.12166,73.20745L522.8817,72.48738L522.40177,71.52728
				L522.40177,70.80721L522.64173,70.32716L523.36162,69.36706L524.56144,68.88701L525.28134,68.16694L526.00123,67.20684L526.72112,66.48677
				L527.92094,66.00672L528.8808,65.76669L529.60069,65.28665L530.08062,65.04662L530.56055,64.08652L531.28044,63.12643L531.76037,61.9263
				L531.76037,61.44625L531.76037,60.48616L532.00033,59.28603L532.24029,58.80599L532.48026,58.08591L532.96019,56.64577L532.96019,55.44564
				L532.96019,54.96559L533.20015,54.48555L533.20015,53.76547L533.20015,52.80538L533.44011,51.84528L534.63994,51.1252L535.59979,50.64516
				L536.55965,49.92508L537.03958,49.20501L537.99943,48.48494L538.95929,47.76486L539.67918,47.28481L540.63904,46.56474L541.59889,45.84467
				L542.07882,44.88457L542.79871,43.68445L543.51861,42.72435L544.2385,42.00428L545.19835,41.04418L545.91825,40.56413L546.15821,40.08408
				L546.15821,38.88396L546.63814,38.40391L547.11807,38.16388L548.07792,37.92386L548.55785,37.68384L549.03778,37.68384L550.47756,37.20379
				L551.19746,37.44381L551.91735,37.44381L552.8772,37.20379L553.5971,36.72374L553.5971,36.48371L554.07702,35.52362L554.79692,34.56352
				L555.51681,33.84345L555.99674,33.3634L556.47667,33.12337L557.43652,32.64332L557.91645,32.16327L558.63634,31.92325L559.35623,31.4432
				L559.83616,31.68323L560.79602,31.92325L561.75587,32.4033L562.2358,32.4033L562.95569,32.4033L563.91555,31.92325L564.39548,31.68323
				L564.87541,31.20318L566.55516,27.84283L566.55516,27.36279L566.55516,26.88274L566.55516,25.44259L566.55516,24.72252L567.27505,23.52239
				L568.2349,23.28237L569.67469,22.80232L570.15462,22.5623L570.39458,22.32227L571.35444,21.6022L571.5944,21.36217L572.31429,20.88213
				L573.03419,19.92203L573.75408,19.20195L574.47397,18.00183L574.9539,17.76181L575.43383,17.76181L576.87361,17.52178L577.83347,17.52178
				L579.03329,17.28176L580.23311,17.28176L581.43293,17.28176L582.39278,17.28176L583.5926,17.28176L584.3125,17.04174L584.55246,16.80171
				L585.51232,16.08164L586.47217,15.60159L587.91196,15.36156L589.35174,15.36156L590.3116,15.60159L591.27145,16.32166L592.23131,16.80171
				L593.19117,18.00183L593.91106,18.72191L595.11088,19.20195L596.3107,19.682L597.51052,19.92203L598.47038,19.92203L599.6702,19.92203
				L600.63005,19.92203L600.87002,19.92203L601.82987,19.92203z"/>
			<path clip-path="url(#SVG_CP_1)" fill="#73B273" fill-rule="evenodd" stroke="#000000" stroke-width="0.95986" stroke-miterlimit="10" stroke-linecap="round" stroke-linejoin="round" d="
				M593.6711,261.86665L594.15102,262.10668L594.87092,262.10668L595.35084,262.10668L595.83077,262.10668L596.79063,261.62663L
				597.27056,261.3866L597.75048,261.14658L598.23041,260.66653L598.71034,260.18648L598.9503,259.94646L599.6702,259.70643L600.15012,259.70643
				L600.39009,259.94646L601.10998,259.94646L602.06984,260.18648L602.3098,260.18648L603.02969,260.42651L603.98955,260.42651L
				604.70944,260.42651L605.18937,260.18648L605.90926,260.18648L606.62915,260.18648L606.86912,260.18648L607.34905,260.18648L
				608.3089,259.94646L609.0288,259.94646L609.26876,259.94646L609.50872,259.70643L610.46858,259.70643L610.94851,259.70643L611.18847,259.70643
				L612.38829,259.46641L612.86822,259.22638L613.34815,259.46641L614.06804,259.46641L614.308,259.70643L614.78793,259.70643L615.26786,259.94646
				L616.46768,260.42651L616.70765,260.42651L617.18757,260.42651L617.6675,260.42651L618.38739,260.42651L618.86732,260.66653L
				619.34725,260.66653L620.06714,260.66653L620.54707,260.90656L621.027,261.14658L621.26696,261.62663L621.74689,261.86665L622.46678,262.10668
				L622.94671,262.3467L623.42664,262.3467L624.14653,262.10668L624.62646,261.86665L625.10639,261.3866L625.34635,261.14658L625.82628,260.90656
				L626.78614,261.14658L627.26606,261.14658L627.74599,261.3866L628.70585,262.3467L628.94581,262.58673L629.42574,262.82675L630.62556,262.82675
				L631.10549,263.06678L631.58542,262.82675L632.54527,262.82675L633.0252,262.82675L633.26517,262.58673L633.74509,262.58673L
				634.94491,262.3467L635.18488,262.3467L635.66481,262.3467L636.3847,262.3467L636.86463,262.3467L637.58452,262.82675L638.54438,263.3068
				L638.78434,263.54682L639.26427,263.78685L640.22412,264.2669L640.70405,264.50692L641.18398,264.50692L642.3838,264.74695L643.34366,264.98697
				L644.06355,264.98697L644.30351,264.98697L645.0234,265.227L645.98326,265.227L646.22323,265.227L646.70315,265.227L647.18308,265.227
				L647.66301,265.46702L648.3829,265.46702L648.62287,265.70704L649.10279,265.94707L650.06265,266.66714L650.30261,266.90717L
				650.78254,267.14719L651.26247,267.14719L651.50243,267.14719L651.98236,266.90717L652.46229,266.66714L652.70225,266.42712L
				652.94222,265.94707L653.42215,265.227L653.42215,264.74695L653.90208,264.50692L654.382,264.2669L655.1019,264.50692L655.34186,264.74695
				L655.82179,264.74695L656.54168,264.98697L657.02161,265.227L657.50154,265.46702L658.22143,265.46702L658.46139,265.70704L658.94132,265.70704
				L659.42125,265.70704L660.14114,265.70704L660.62107,265.70704L660.86103,265.46702L661.101,265.46702L661.58093,264.98697L661.82089,264.2669
				L662.06085,263.78685L662.06085,263.3068L662.54078,262.3467L662.78075,262.10668L663.02071,261.62663L663.7406,261.14658L663.98057,261.14658
				L664.46049,261.14658L664.70046,261.62663L664.70046,262.3467L664.70046,263.3068L664.94042,263.78685L664.94042,264.2669L664.94042,264.50692
				L665.18039,264.98697L665.42035,265.94707L665.66031,266.42712L665.66031,266.90717L666.38021,267.62724L666.62017,267.86726
				L666.62017,268.34731L667.1001,269.06739L667.34006,269.54744L667.81999,269.78746L668.29992,270.50753L668.53988,270.74756L
				668.53988,270.98758L668.77985,271.46763L668.77985,271.70766L668.53988,272.42773L668.29992,272.90778L668.05995,273.38783L
				667.58003,274.34792L667.58003,274.82797L667.58003,275.30802L667.34006,276.26812L667.58003,276.74817L667.58003,277.22822L
				667.58003,277.70827L667.34006,278.18831L667.34006,278.66836L667.1001,279.14841L666.62017,279.62846L666.38021,279.86849L666.38021,280.10851
				L665.90028,280.82858L665.42035,281.30863L664.94042,282.02871L664.70046,282.50875L664.46049,282.74878L664.22053,283.70888
				L663.98057,283.9489L663.98057,284.18893L663.26067,285.14902L662.54078,286.82919L662.54078,288.02932L662.54078,288.26934L
				662.30082,288.98941L662.06085,289.22944L661.82089,289.70949L661.101,290.42956L660.62107,290.66959L660.14114,290.90961L659.42125,291.14963
				L659.18128,291.62968L659.42125,292.58978L659.66121,293.06983L659.66121,293.30985L659.66121,293.7899L659.66121,294.50998L
				659.66121,294.99002L659.66121,295.47007L659.90118,295.95012L660.14114,296.19015L660.3811,296.6702L660.62107,296.91022L660.86103,297.39027
				L661.34096,298.11034L661.58093,298.35037L661.58093,298.59039L662.06085,298.83042L662.78075,299.79051L663.02071,300.03054
				L663.26067,300.51059L663.7406,301.23066L663.98057,301.71071L664.22053,301.95073L664.70046,302.67081L667.34006,304.11095L
				667.81999,304.83103L668.05995,305.07105L668.29992,305.5511L668.29992,305.79112L668.77985,306.5112L669.01981,306.99125L669.25978,307.23127
				L669.49974,307.71132L669.7397,307.95134L670.21963,308.19137L670.4596,308.43139L670.69956,308.67142L671.89938,309.39149L672.61927,309.63151
				L672.61927,310.11156L672.61927,311.55171L672.61927,312.03176L672.61927,312.75183L672.61927,312.99186L673.0992,313.47191L
				674.05906,314.432L674.05906,314.67203L674.53898,315.15208L674.53898,315.63213L674.77895,315.87215L675.01891,316.59222L675.25888,316.83225
				L675.25888,317.55232L675.49884,317.79235L675.7388,318.27239L675.97877,319.47252L675.97877,319.95257L676.21873,320.67264L
				676.4587,321.63274L676.69866,323.07288L676.93863,323.55293L676.4587,324.51303L675.7388,324.99308L675.49884,325.2331L675.01891,325.47313
				L674.77895,325.71315L673.81909,326.1932L673.33916,326.43323L673.0992,326.67325L672.13934,327.39332L671.65942,327.63335L671.41945,327.87337
				L670.69956,328.35342L670.4596,328.59344L670.4596,329.07349L670.21963,329.31352L669.97967,330.51364L669.97967,330.99369L669.97967,331.71376
				L670.21963,332.43384L670.21963,333.15391L670.4596,333.63396L670.69956,333.87398L671.17949,334.35403L671.41945,335.0741L671.65942,335.31413
				L671.89938,335.79418L671.89938,336.27423L672.13934,336.9943L672.37931,337.47435L671.65942,337.47435L670.21963,337.71437L
				667.34006,338.43445L665.18039,340.35464L663.02071,340.59467L661.58093,341.31474L658.22143,342.03481L654.62197,341.55476L
				651.7424,341.07472L648.86283,340.59467L646.46319,340.11462L644.06355,338.67447L642.3838,336.51425L641.42394,333.87398L639.7442,333.39393
				L639.50423,333.15391L637.10459,332.19381L633.74509,329.07349L630.3856,328.35342L627.26606,329.31352L624.14653,330.75366L
				620.78703,331.47374L617.18757,332.19381L613.34815,332.19381L609.50872,332.19381L605.18937,333.15391L601.34995,333.87398L
				600.87002,333.87398L598.47038,335.31413L596.3107,337.71437L592.71124,340.59467L589.11178,342.75489L587.19207,346.59528L585.75228,347.31535
				L584.79242,346.35525L583.11268,344.91511L579.99314,342.27484L576.63365,340.35464L575.19386,337.71437L574.47397,335.31413
				L574.9539,331.71376L575.19386,326.67325L575.19386,324.03298L573.75408,321.63274L573.51411,320.91266L570.63454,318.51242L
				567.03508,317.07227L563.43562,315.87215L561.27595,312.99186L559.11627,309.39149L557.19656,310.35159L555.03688,311.07166L
				554.07702,312.99186L553.35713,314.432L551.91735,315.63213L549.99764,316.59222L548.07792,318.03237L545.67828,318.75244L545.43832,321.39271
				L545.91825,324.99308L547.11807,327.87337L547.35803,328.59344L547.83796,330.51364L547.83796,332.43384L547.59799,334.11401
				L547.59799,335.55415L548.07792,337.23432L549.03778,338.67447L549.27774,340.11462L549.03778,341.07472L548.07792,342.99491
				L547.59799,344.91511L546.8781,346.59528L546.15821,348.51547L545.19835,349.71559L544.47846,351.63579L543.27864,352.59589L
				541.83886,353.79601L541.35893,354.99613L541.35893,356.6763L540.879,358.35647L540.39907,359.79662L540.15911,362.43689L540.15911,365.07716
				L540.63904,367.4774L540.879,369.3976L540.15911,370.3577L538.2394,371.07777L536.31968,372.27789L534.16001,372.27789L532.00033,372.27789
				L530.32058,372.03787L528.40087,372.75794L528.40087,372.51792L527.68098,372.27789L527.44101,372.03787L527.20105,372.03787
				L526.96109,371.55782L526.72112,371.07777L526.96109,369.63762L526.72112,368.91755L526.72112,368.67752L526.96109,367.71743
				L526.96109,367.4774L527.44101,366.75733L527.68098,366.27728L527.68098,365.79723L528.40087,365.07716L528.64083,364.59711L
				528.64083,364.11706L529.12076,363.39699L529.12076,362.91694L529.36073,362.67691L529.84065,361.71682L530.08062,361.23677L
				530.32058,360.51669L530.32058,360.03665L530.56055,359.5566L530.56055,359.07655L530.56055,358.5965L530.80051,357.6364L531.04047,357.39638
				L531.04047,356.91633L531.76037,355.95623L532.00033,355.47618L532.24029,354.99613L532.48026,354.75611L532.72022,354.27606
				L532.96019,353.79601L533.20015,353.55599L533.44011,352.83591L533.44011,352.35586L533.20015,352.11584L532.96019,351.87581
				L532.72022,351.15574L532.72022,350.91572L532.72022,350.43567L532.96019,350.19564L532.96019,349.71559L533.20015,348.51547
				L533.44011,348.27545L533.44011,347.7954L534.16001,346.8353L534.16001,346.35525L533.92004,345.8752L533.92004,345.63518L533.68008,345.15513
				L533.44011,345.15513L532.96019,345.15513L532.24029,345.15513L531.76037,345.15513L531.28044,345.15513L530.56055,344.91511
				L530.32058,344.43506L529.36073,343.47496L527.68098,341.31474L527.44101,340.35464L527.20105,339.87459L527.20105,339.39454
				L526.96109,338.67447L526.24119,337.9544L525.76126,337.71437L525.28134,336.51425L525.04137,336.27423L524.80141,335.79418L
				524.56144,335.0741L524.08152,334.59406L524.08152,334.11401L522.40177,331.71376L522.1618,330.75366L521.92184,330.51364L520.24209,328.83347
				L519.04227,327.63335L518.56234,327.1533L518.08241,326.43323L518.08241,325.47313L518.32238,324.99308L518.32238,324.27301L
				517.84245,324.03298L515.68277,323.07288L514.72292,322.11279L513.76306,320.67264L513.5231,319.95257L512.80321,319.47252L512.32328,319.23249
				L510.64353,317.07227L509.44371,316.3522L508.72382,316.3522L508.48385,316.3522L508.72382,316.11217L508.72382,315.15208L508.96378,314.19198
				L509.68367,313.23188L511.12346,312.51181L512.08331,311.79173L512.56324,311.31169L513.5231,310.11156L514.72292,308.91144L
				515.92274,307.23127L517.36252,306.03115L517.84245,304.83103L518.32238,303.87093L519.28224,304.35098L521.44191,304.35098L
				522.40177,303.87093L522.8817,303.87093L523.60159,304.11095L523.60159,303.6309L524.08152,301.71071L524.32148,300.75061L524.32148,300.51059
				L524.56144,299.55049L524.80141,297.63029L525.04137,297.63029L525.5213,296.43017L525.76126,295.95012L527.20105,293.7899L527.44101,292.34976
				L527.68098,291.62968L527.68098,291.38966L527.92094,291.38966L528.40087,290.42956L528.8808,289.70949L529.12076,288.74939L
				529.12076,288.50937L529.12076,288.26934L529.12076,286.82919L528.8808,286.10912L528.16091,284.18893L527.68098,283.70888L526.96109,282.74878
				L526.00123,281.54866L525.76126,281.06861L525.5213,280.58856L525.28134,279.86849L525.04137,277.94829L525.04137,277.46824L
				525.28134,276.98819L526.48116,275.78807L526.72112,275.30802L526.72112,273.1478L526.72112,271.70766L526.96109,271.22761L528.40087,270.50753
				L529.36073,269.30741L530.56055,268.34731L531.28044,267.86726L532.00033,266.90717L532.24029,266.66714L532.72022,265.94707
				L533.68008,264.98697L534.39997,264.74695L535.35983,264.2669L537.99943,263.06678L538.47936,262.82675L540.63904,262.10668L
				540.879,261.86665L541.83886,261.62663L543.03868,260.90656L543.51861,260.66653L543.75857,260.42651L543.99853,259.94646L543.99853,257.06616
				L544.47846,257.30619L544.95839,257.78624L545.43832,258.02626L545.67828,258.50631L546.15821,258.74634L546.15821,259.22638
				L546.39817,259.94646L546.63814,260.42651L546.63814,260.90656L546.8781,261.3866L547.35803,262.3467L547.59799,262.58673L548.07792,263.06678
				L548.55785,263.54682L549.03778,263.78685L549.51771,263.78685L549.99764,263.78685L551.19746,264.02687L551.43742,263.78685
				L551.91735,263.78685L552.63724,263.78685L552.8772,263.78685L553.11717,263.78685L554.07702,263.78685L554.55695,263.78685L
				554.55695,264.02687L555.03688,264.50692L555.03688,264.98697L555.03688,265.227L555.27684,265.46702L555.51681,265.94707L555.99674,266.18709
				L556.47667,266.42712L556.95659,266.18709L557.91645,265.70704L558.39638,265.46702L558.63634,265.227L559.5962,264.74695L559.83616,264.50692
				L560.31609,264.2669L561.51591,263.78685L561.75587,263.78685L562.47577,263.54682L562.95569,263.3068L563.19566,263.3068L563.67559,263.3068
				L564.39548,263.06678L564.87541,263.06678L565.35534,262.82675L565.5953,262.58673L566.07523,262.3467L567.03508,261.86665L567.27505,261.3866
				L567.75498,261.14658L568.2349,260.66653L568.2349,260.42651L568.71483,260.18648L568.9548,259.94646L569.91465,259.22638L570.15462,258.74634
				L570.63454,258.74634L571.83437,258.26629L572.31429,258.26629L572.79422,258.26629L573.51411,258.02626L573.99404,258.02626
				L574.23401,257.78624L574.71393,257.54621L575.43383,257.30619L575.91375,257.30619L576.15372,257.06616L576.63365,256.82614
				L576.87361,256.58612L577.35354,256.34609L577.83347,256.10607L578.31339,255.86604L579.03329,255.38599L579.27325,255.14597
				L579.51322,255.14597L579.99314,254.66592L580.71304,254.18587L580.953,254.18587L581.43293,253.94585L581.91286,253.70582L582.39278,253.70582
				L583.11268,253.22577L583.35264,253.22577L584.07253,253.22577L585.03239,252.74573L585.27235,252.5057L585.75228,252.02565L
				586.23221,251.5456L586.47217,251.30558L586.71214,250.82553L586.9521,250.58551L587.43203,249.62541L587.43203,249.38538L587.67199,248.90533
				L588.15192,248.18526L588.39189,247.70521L588.63185,247.22516L589.35174,247.22516L589.83167,247.22516L590.3116,247.22516L
				590.79153,247.22516L591.51142,247.22516L591.99135,247.46519L592.23131,247.46519L592.71124,247.70521L593.19117,248.18526L
				593.91106,248.66531L593.91106,248.90533L594.15102,249.62541L594.63095,250.34548L594.87092,250.82553L594.87092,251.30558L
				595.11088,252.26568L595.11088,252.5057L595.11088,252.98575L595.11088,253.70582L594.87092,253.94585L594.87092,254.4259L594.63095,255.14597
				L594.39099,255.62602L594.15102,255.86604L593.6711,256.10607L593.43113,256.58612L592.9512,257.06616L592.71124,257.30619L592.47127,257.78624
				L592.23131,258.26629L592.23131,258.74634L592.23131,259.22638L592.23131,259.70643L592.47127,260.18648L592.71124,261.14658
				L592.9512,261.62663L593.6711,261.86665z"/>
		</g>
		<g id="Labels">
			<g id="NEPAL_WARDS_-_Default">
				<g font-family="'Arial'" font-size="1" kerning="0" font-weight="400" fill="#000000" clip-path="url(#SVG_CP_1)" >
					<text text-anchor="start" transform="matrix(11.9982 0 0 12.00122 589.47172 111.46838)" >
						<tspan direction="ltr" unicode-bidi="embed" x="0 ">5</tspan>
					</text>
				</g>
				<g font-family="'Arial'" font-size="1" kerning="0" font-weight="400" fill="#000000" clip-path="url(#SVG_CP_1)" >
					<text text-anchor="start" transform="matrix(11.9982 0 0 12.00122 590.19162 304.92807)" >
						<tspan direction="ltr" unicode-bidi="embed" x="0 ">8</tspan>
					</text>
				</g>
				<g font-family="'Arial'" font-size="1" kerning="0" font-weight="400" fill="#000000" clip-path="url(#SVG_CP_1)" >
					<text text-anchor="start" transform="matrix(11.9982 0 0 12.00122 464.45045 271.32465)" >
						<tspan direction="ltr" unicode-bidi="embed" x="0 ">9</tspan>
					</text>
				</g>
				<g font-family="'Arial'" font-size="1" kerning="0" font-weight="400" fill="#000000" clip-path="url(#SVG_CP_1)" >
					<text text-anchor="start" transform="matrix(11.9982 0 0 12.00122 480.04811 208.43825)" >
						<tspan direction="ltr" unicode-bidi="embed" x="0 ">6</tspan>
					</text>
				</g>
				<g font-family="'Arial'" font-size="1" kerning="0" font-weight="400" fill="#000000" clip-path="url(#SVG_CP_1)" >
					<text text-anchor="start" transform="matrix(11.9982 0 0 12.00122 564.03553 212.03861)" >
						<tspan direction="ltr" unicode-bidi="embed" x="0 ">7</tspan>
					</text>
				</g>
				<g font-family="'Arial'" font-size="1" kerning="0" font-weight="400" fill="#000000" clip-path="url(#SVG_CP_1)" >
					<text text-anchor="start" transform="matrix(11.9982 0 0 12.00122 487.00707 140.27131)" >
						<tspan direction="ltr" unicode-bidi="embed" x="0 ">4</tspan>
					</text>
				</g>
				<g font-family="'Arial'" font-size="1" kerning="0" font-weight="400" fill="#000000" clip-path="url(#SVG_CP_1)" >
					<text text-anchor="start" transform="matrix(11.9982 0 0 12.00122 402.05979 185.63593)" >
						<tspan direction="ltr" unicode-bidi="embed" x="0 ">1</tspan>
					</text>
				</g>
				<g font-family="'Arial'" font-size="1" kerning="0" font-weight="400" fill="#000000" clip-path="url(#SVG_CP_1)" >
					<text text-anchor="start" transform="matrix(11.9982 0 0 12.00122 361.50586 271.08462)" >
						<tspan direction="ltr" unicode-bidi="embed" x="0 ">1</tspan>
						<tspan direction="ltr" unicode-bidi="embed" x="0.54014 ">0</tspan>
					</text>
				</g>
				<g font-family="'Arial'" font-size="1" kerning="0" font-weight="400" fill="#000000" clip-path="url(#SVG_CP_1)" >
					<text text-anchor="start" transform="matrix(11.9982 0 0 12.00122 362.46572 201.95759)" >
						<tspan direction="ltr" unicode-bidi="embed" x="0 ">3</tspan>
					</text>
				</g>
				<g font-family="'Arial'" font-size="1" kerning="0" font-weight="400" fill="#000000" clip-path="url(#SVG_CP_1)" >
					<text text-anchor="start" transform="matrix(11.9982 0 0 12.00122 283.87749 238.4413)" >
						<tspan direction="ltr" unicode-bidi="embed" x="0 ">1</tspan>
						<tspan direction="ltr" unicode-bidi="embed" x="0.48012 ">1</tspan>
					</text>
				</g>
				<g font-family="'Arial'" font-size="1" kerning="0" font-weight="400" fill="#000000" clip-path="url(#SVG_CP_1)" >
					<text text-anchor="start" transform="matrix(11.9982 0 0 12.00122 446.45314 181.55551)" >
						<tspan direction="ltr" unicode-bidi="embed" x="0 ">2</tspan>
					</text>
				</g>
			</g>
		</g>
	</g>
</svg>
